<svg width="100%" height="100%" viewBox="50 285 1218 1257" fill="none" xmlns="http://www.w3.org/2000/svg">
<path d="M140.048 588.98L125.912 580.865L0.750015 652.651L14.8949 660.772L140.048 588.98Z" fill="#FFF6D7"/>
<path d="M14.8949 660.772L0.750015 652.651L0.751856 797.648L14.8931 805.755L14.8949 660.772Z" fill="#FFF6D7"/>
<path d="M140.055 588.98L14.8949 660.772L14.8931 805.755L140.055 733.968L140.055 588.98Z" fill="#FFF6D7"/>
<path fill-rule="evenodd" clip-rule="evenodd" d="M125.912 580L140.052 588.117L140.805 587.685V588.55L141.555 588.98L140.805 589.41L140.805 734.403L14.8932 806.619L0.00186712 798.083L1.52588e-05 652.217L125.912 580ZM14.8951 659.907L138.541 588.98L125.912 581.729L2.25695 652.652L14.8951 659.907ZM1.50004 653.947L1.50186 797.214L14.1431 804.46L14.1449 661.206L1.50004 653.947ZM15.6449 661.206L15.6431 804.46L139.305 733.534L139.305 590.275L15.6449 661.206Z" fill="black"/>
<path d="M140.048 443.98L125.912 435.865L0.750015 507.651L14.8949 515.772L140.048 443.98Z" fill="#FFF6D7"/>
<path d="M14.8949 515.772L0.750015 507.651L0.751856 652.648L14.8931 660.755L14.8949 515.772Z" fill="#FFF6D7"/>
<path d="M140.055 443.98L14.8949 515.772L14.8931 660.755L140.055 588.968L140.055 443.98Z" fill="#FFF6D7"/>
<path fill-rule="evenodd" clip-rule="evenodd" d="M125.912 435L140.052 443.117L140.805 442.685V443.55L141.555 443.98L140.805 444.41L140.805 589.403L14.8932 661.619L0.00186712 653.083L1.52588e-05 507.217L125.912 435ZM14.8951 514.907L138.541 443.98L125.912 436.729L2.25695 507.652L14.8951 514.907ZM1.50004 508.947L1.50186 652.214L14.1431 659.46L14.1449 516.206L1.50004 508.947ZM15.6449 516.206L15.6431 659.46L139.305 588.534L139.305 445.275L15.6449 516.206Z" fill="black"/>
<path d="M140.048 298.98L125.912 290.865L0.750015 362.651L14.8949 370.772L140.048 298.98Z" fill="#FFF6D7"/>
<path d="M14.8949 370.772L0.750015 362.651L0.751856 507.648L14.8931 515.755L14.8949 370.772Z" fill="#FFF6D7"/>
<path d="M140.055 298.98L14.8949 370.772L14.8931 515.755L140.055 443.968L140.055 298.98Z" fill="#FFF6D7"/>
<path fill-rule="evenodd" clip-rule="evenodd" d="M125.912 290L140.052 298.117L140.805 297.685V298.55L141.555 298.98L140.805 299.41L140.805 444.403L14.8932 516.619L0.00186712 508.083L1.52588e-05 362.217L125.912 290ZM14.8951 369.907L138.541 298.98L125.912 291.729L2.25695 362.652L14.8951 369.907ZM1.50004 363.947L1.50186 507.214L14.1431 514.46L14.1449 371.206L1.50004 363.947ZM15.6449 371.206L15.6431 514.46L139.305 443.534L139.305 300.275L15.6449 371.206Z" fill="black"/>
<path d="M140.048 153.98L125.912 145.865L0.750015 217.651L14.8949 225.772L140.048 153.98Z" fill="#FFF6D7"/>
<path d="M14.8949 225.772L0.750015 217.651L0.751856 362.648L14.8931 370.755L14.8949 225.772Z" fill="#FFF6D7"/>
<path d="M140.055 153.98L14.8949 225.772L14.8931 370.755L140.055 298.968L140.055 153.98Z" fill="#FFF6D7"/>
<path fill-rule="evenodd" clip-rule="evenodd" d="M125.912 145L140.052 153.117L140.805 152.685V153.55L141.555 153.98L140.805 154.41L140.805 299.403L14.8932 371.619L0.00186712 363.083L1.52588e-05 217.217L125.912 145ZM14.8951 224.907L138.541 153.98L125.912 146.729L2.25695 217.652L14.8951 224.907ZM1.50004 218.947L1.50186 362.214L14.1431 369.46L14.1449 226.206L1.50004 218.947ZM15.6449 226.206L15.6431 369.46L139.305 298.534L139.305 155.275L15.6449 226.206Z" fill="black"/>
<path d="M140.048 8.98011L125.912 0.864746L0.750015 72.6514L14.8949 80.7718L140.048 8.98011Z" fill="#FFF6D7"/>
<path d="M14.8949 80.7718L0.750015 72.6514L0.751856 217.648L14.8931 225.755L14.8949 80.7718Z" fill="#FFF6D7"/>
<path d="M140.055 8.98012L14.8949 80.7718L14.8931 225.755L140.055 153.968L140.055 8.98012Z" fill="#FFF6D7"/>
<path fill-rule="evenodd" clip-rule="evenodd" d="M125.912 0L140.052 8.11737L140.805 7.68525V8.54984L141.555 8.98033L140.805 9.41047L140.805 154.403L14.8932 226.619L0.00186712 218.083L1.52588e-05 72.2169L125.912 0ZM14.8951 79.907L138.541 8.97981L125.912 1.72941L2.25695 72.6517L14.8951 79.907ZM1.50004 73.9467L1.50186 217.214L14.1431 224.46L14.1449 81.206L1.50004 73.9467ZM15.6449 81.2062L15.6431 224.46L139.305 153.534L139.305 10.2749L15.6449 81.2062Z" fill="black"/>
<path d="M391.36 733.5L391.32 749.8L266.57 822.3L266.61 805.99L391.36 733.5Z" fill="#FFF6D7"/>
<path d="M266.61 805.99L266.57 822.3L141 749.8L141.05 733.5L266.61 805.99Z" fill="#FFF6D7"/>
<path d="M391.36 733.5L266.61 805.99L141.05 733.5L265.8 661L391.36 733.5Z" fill="#FFF6D7"/>
<path fill-rule="evenodd" clip-rule="evenodd" d="M265.799 660.133L392.111 733.068L392.069 750.232L266.571 823.167L140.249 750.232L140.301 733.068L265.799 660.133ZM265.801 661.867L142.546 733.498L266.609 805.123L389.864 733.502L265.801 661.867ZM390.607 734.805L267.359 806.422L267.323 820.995L390.571 749.368L390.607 734.805ZM265.823 821.003L265.859 806.422L141.796 734.797L141.751 749.368L265.823 821.003Z" fill="black"/>
<path d="M516.36 805.5L516.32 821.8L391.57 894.3L391.61 877.99L516.36 805.5Z" fill="#FFF6D7"/>
<path d="M391.61 877.99L391.57 894.3L266 821.8L266.05 805.5L391.61 877.99Z" fill="#FFF6D7"/>
<path d="M516.36 805.5L391.61 877.99L266.05 805.5L390.8 733L516.36 805.5Z" fill="#FFF6D7"/>
<path fill-rule="evenodd" clip-rule="evenodd" d="M390.799 732.133L517.111 805.068L517.069 822.232L391.571 895.167L265.249 822.232L265.301 805.068L390.799 732.133ZM390.801 733.867L267.546 805.498L391.609 877.123L514.864 805.502L390.801 733.867ZM515.607 806.805L392.359 878.422L392.323 892.995L515.571 821.368L515.607 806.805ZM390.823 893.003L390.859 878.422L266.796 806.797L266.751 821.368L390.823 893.003Z" fill="black"/>
<path d="M641.36 877.5L641.32 893.8L516.57 966.3L516.61 949.99L641.36 877.5Z" fill="#FFF6D7"/>
<path d="M516.61 949.99L516.57 966.3L391 893.8L391.05 877.5L516.61 949.99Z" fill="#FFF6D7"/>
<path d="M641.36 877.5L516.61 949.99L391.05 877.5L515.8 805L641.36 877.5Z" fill="#FFF6D7"/>
<path fill-rule="evenodd" clip-rule="evenodd" d="M515.799 804.133L642.111 877.068L642.069 894.232L516.571 967.167L390.249 894.232L390.301 877.068L515.799 804.133ZM515.801 805.867L392.546 877.498L516.609 949.123L639.864 877.502L515.801 805.867ZM640.607 878.805L517.359 950.422L517.323 964.995L640.571 893.368L640.607 878.805ZM515.823 965.003L515.859 950.422L391.796 878.797L391.751 893.368L515.823 965.003Z" fill="black"/>
<path d="M766.36 949.5L766.32 965.8L641.57 1038.3L641.61 1021.99L766.36 949.5Z" fill="#FFF6D7"/>
<path d="M641.61 1021.99L641.57 1038.3L516 965.8L516.05 949.5L641.61 1021.99Z" fill="#FFF6D7"/>
<path d="M766.36 949.5L641.61 1021.99L516.05 949.5L640.8 877L766.36 949.5Z" fill="#FFF6D7"/>
<path fill-rule="evenodd" clip-rule="evenodd" d="M640.799 876.133L767.111 949.068L767.069 966.232L641.571 1039.17L515.249 966.232L515.301 949.068L640.799 876.133ZM640.801 877.867L517.546 949.498L641.609 1021.12L764.864 949.502L640.801 877.867ZM765.607 950.805L642.359 1022.42L642.323 1036.99L765.571 965.368L765.607 950.805ZM640.823 1037L640.859 1022.42L516.796 950.797L516.751 965.368L640.823 1037Z" fill="black"/>
<path d="M1016.36 949.5L1016.32 965.8L891.57 1038.3L891.61 1021.99L1016.36 949.5Z" fill="#FFF6D7"/>
<path d="M891.61 1021.99L891.57 1038.3L766 965.8L766.05 949.5L891.61 1021.99Z" fill="#FFF6D7"/>
<path d="M1016.36 949.5L891.61 1021.99L766.05 949.5L890.8 877L1016.36 949.5Z" fill="#FFF6D7"/>
<path fill-rule="evenodd" clip-rule="evenodd" d="M890.799 876.133L1017.11 949.068L1017.07 966.232L891.571 1039.17L765.249 966.232L765.301 949.068L890.799 876.133ZM890.801 877.867L767.546 949.498L891.609 1021.12L1014.86 949.502L890.801 877.867ZM1015.61 950.805L892.359 1022.42L892.323 1036.99L1015.57 965.368L1015.61 950.805ZM890.823 1037L890.859 1022.42L766.796 950.797L766.751 965.368L890.823 1037Z" fill="black"/>
<path d="M266.36 805.5L266.32 821.8L141.57 894.3L141.61 877.99L266.36 805.5Z" fill="#FFF6D7"/>
<path d="M141.61 877.99L141.57 894.3L16 821.8L16.05 805.5L141.61 877.99Z" fill="#FFF6D7"/>
<path d="M266.36 805.5L141.61 877.99L16.05 805.5L140.8 733L266.36 805.5Z" fill="#FFF6D7"/>
<path fill-rule="evenodd" clip-rule="evenodd" d="M140.799 732.133L267.111 805.068L267.069 822.232L141.571 895.167L15.2487 822.232L15.3013 805.068L140.799 732.133ZM140.801 733.867L17.5463 805.498L141.609 877.123L264.864 805.502L140.801 733.867ZM265.607 806.805L142.359 878.422L142.323 892.995L265.571 821.368L265.607 806.805ZM140.823 893.003L140.859 878.422L16.796 806.797L16.7513 821.368L140.823 893.003Z" fill="black"/>
<path d="M391.36 877.5L391.32 893.8L266.57 966.3L266.61 949.99L391.36 877.5Z" fill="#FFF6D7"/>
<path d="M266.61 949.99L266.57 966.3L141 893.8L141.05 877.5L266.61 949.99Z" fill="#FFF6D7"/>
<path d="M391.36 877.5L266.61 949.99L141.05 877.5L265.8 805L391.36 877.5Z" fill="#FFF6D7"/>
<path fill-rule="evenodd" clip-rule="evenodd" d="M265.799 804.133L392.111 877.068L392.069 894.232L266.571 967.167L140.249 894.232L140.301 877.068L265.799 804.133ZM265.801 805.867L142.546 877.498L266.609 949.123L389.864 877.502L265.801 805.867ZM390.607 878.805L267.359 950.422L267.323 964.995L390.571 893.368L390.607 878.805ZM265.823 965.003L265.859 950.422L141.796 878.797L141.751 893.368L265.823 965.003Z" fill="black"/>
<path d="M517 1095L393.5 1022L145 1167L268 1239L517 1095Z" fill="#FFF6D7"/>
<path d="M518.36 1094.5L518.32 1110.8L393.57 1183.3L393.61 1166.99L518.36 1094.5Z" fill="#FFF6D7"/>
<path d="M393.36 1166.5L393.32 1182.8L268.57 1255.3L268.61 1238.99L393.36 1166.5Z" fill="#FFF6D7"/>
<path d="M268.61 1238.99L268.57 1255.3L143 1182.8L143.05 1166.5L268.61 1238.99Z" fill="#FFF6D7"/>
<path fill-rule="evenodd" clip-rule="evenodd" d="M392.799 1021.13L519.111 1094.07L519.069 1111.23L392.817 1184.61L392.818 1183.96L268.571 1256.17L142.249 1183.23L142.301 1166.07L267.423 1093.35L267.703 1093.83L392.799 1021.13ZM268.147 1094.67L144.546 1166.5L268.609 1238.12L394.113 1165.19L394.112 1165.83L516.864 1094.5L392.801 1022.87L268.427 1095.15L268.147 1094.67ZM517.607 1095.81L394.359 1167.42L394.323 1181.99L517.571 1110.37L517.607 1095.81ZM392.607 1167.81L269.359 1239.42L269.323 1253.99L392.571 1182.37L392.607 1167.81ZM267.823 1254L267.859 1239.42L143.796 1167.8L143.751 1182.37L267.823 1254Z" fill="black"/>
<path d="M393 1166.37L517.5 1238.87L891.5 1022.37L768 950.867L393 1166.37Z" fill="#FFF6D7"/>
<path d="M891.36 1022.5L891.32 1038.8L766.57 1111.3L766.61 1094.99L891.36 1022.5Z" fill="#FFF6D7"/>
<path d="M767.36 1094.5L767.32 1110.8L642.57 1183.3L642.61 1166.99L767.36 1094.5Z" fill="#FFF6D7"/>
<path d="M643.36 1166.5L643.32 1182.8L518.57 1255.3L518.61 1238.99L643.36 1166.5Z" fill="#FFF6D7"/>
<path d="M518.61 1238.99L518.57 1255.3L393 1182.8L393.05 1166.5L518.61 1238.99Z" fill="#FFF6D7"/>
<path fill-rule="evenodd" clip-rule="evenodd" d="M765.799 949.133L892.111 1022.07L892.069 1039.23L765.817 1112.61L765.817 1112.54L641.817 1184.61L641.817 1184.54L518.571 1256.17L392.249 1183.23L392.301 1166.07L517.423 1093.35L517.451 1093.4L641.423 1021.35L641.451 1021.4L765.799 949.133ZM641.399 1023.1L517.427 1095.15L517.399 1095.1L394.546 1166.5L518.609 1238.12L644.113 1165.19L644.113 1165.25L768.113 1093.19L768.113 1093.25L889.864 1022.5L765.801 950.867L641.427 1023.15L641.399 1023.1ZM890.607 1023.81L768.109 1094.99L768.073 1109.56L890.571 1038.37L890.607 1023.81ZM765.857 1096.24L644.109 1166.99L644.073 1181.56L765.821 1110.8L765.857 1096.24ZM641.857 1168.24L519.359 1239.42L519.323 1253.99L641.821 1182.8L641.857 1168.24ZM517.823 1254L517.859 1239.42L393.796 1167.8L393.751 1182.37L517.823 1254Z" fill="black"/>
<g clip-path="url(#clip0_171_1323)">
<path d="M890.32 934.561C876.024 934.561 864.439 940.703 864.439 948.28C864.439 955.858 876.024 962 890.32 962C904.616 962 916.201 955.858 916.201 948.28C916.201 940.703 904.616 934.561 890.32 934.561Z" fill="#AA8887"/>
<path d="M890.32 931.065C876.024 931.065 864.439 937.207 864.439 944.785C864.439 952.362 876.024 958.504 890.32 958.504C904.616 958.504 916.201 952.362 916.201 944.785C916.201 937.207 904.616 931.065 890.32 931.065Z" fill="#C6A8A5"/>
<path d="M890.32 926.889C876.024 926.889 864.439 933.031 864.439 940.608C864.439 948.186 876.024 954.328 890.32 954.328C904.616 954.328 916.201 948.186 916.201 940.608C916.201 933.031 904.616 926.889 890.32 926.889Z" fill="#AA8887"/>
<path d="M890.32 923.393C876.024 923.393 864.439 929.535 864.439 937.112C864.439 944.69 876.024 950.832 890.32 950.832C904.616 950.832 916.201 944.69 916.201 937.112C916.201 929.535 904.616 923.393 890.32 923.393Z" fill="#C6A8A5"/>
<path d="M890.32 919.84C876.024 919.84 864.439 925.982 864.439 933.56C864.439 941.137 876.024 947.279 890.32 947.279C904.616 947.279 916.201 941.137 916.201 933.56C916.201 925.982 904.616 919.84 890.32 919.84Z" fill="#AA8887"/>
<path d="M890.32 916.326C876.024 916.326 864.439 922.467 864.439 930.045C864.439 937.623 876.024 943.764 890.32 943.764C904.616 943.764 916.201 937.623 916.201 930.045C916.201 922.467 904.616 916.326 890.32 916.326Z" fill="#C6A8A5"/>
<path d="M890.32 912.149C876.024 912.149 864.439 918.291 864.439 925.869C864.439 933.446 876.024 939.588 890.32 939.588C904.616 939.588 916.201 933.446 916.201 925.869C916.201 918.291 904.616 912.149 890.32 912.149Z" fill="#AA8887"/>
<path d="M890.32 908.653C876.024 908.653 864.439 914.795 864.439 922.373C864.439 929.95 876.024 936.092 890.32 936.092C904.616 936.092 916.201 929.95 916.201 922.373C916.201 914.795 904.616 908.653 890.32 908.653Z" fill="#C6A8A5"/>
<path d="M890.32 904.364C876.024 904.364 864.439 910.505 864.439 918.083C864.439 925.661 876.024 931.802 890.32 931.802C904.616 931.802 916.201 925.661 916.201 918.083C916.201 910.505 904.616 904.364 890.32 904.364Z" fill="#AA8887"/>
<path d="M890.32 902.644C877.389 902.644 866.904 908.2 866.904 915.059C866.904 921.919 877.389 927.475 890.32 927.475C903.251 927.475 913.736 921.919 913.736 915.059C913.736 908.2 903.251 902.644 890.32 902.644Z" fill="#9E7878"/>
<path d="M937 837.355C937 811.749 916.182 791 890.509 791C864.837 791 844 811.749 844 837.355C844 844.252 845.915 850.62 848.228 856.667C852.532 867.911 864.553 882.764 866.24 904.798C867.928 926.832 890.491 924.848 890.491 924.848C890.491 924.848 912.977 926.832 914.665 904.798C916.352 882.764 928.468 867.892 932.772 856.667C935.085 850.62 937 844.252 937 837.355Z" fill="#73ACFF"/>
<path d="M923.481 804.682C925.264 809.727 926.25 815.151 926.25 820.82C926.25 847.635 904.426 869.385 877.522 869.385C867.378 869.385 857.955 866.286 850.143 860.995C855.338 871.672 864.761 885.486 866.24 904.799C867.928 926.833 890.491 924.848 890.491 924.848C890.491 924.848 912.977 926.833 914.665 904.799C916.352 882.765 928.468 867.892 932.772 856.668C935.085 850.621 937 844.252 937 837.355C937 824.599 931.824 813.053 923.481 804.682Z" fill="#619BF7"/>
<path d="M899.212 802.924C904.332 811.749 898.568 824.618 886.338 831.648C874.109 838.677 860.059 837.222 854.94 828.379C849.821 819.554 855.585 806.685 867.814 799.655C880.043 792.625 894.093 794.08 899.212 802.924Z" fill="#8DC1FF"/>
<path d="M886.262 801.299C881.219 799.863 874.223 801.091 872.383 808.007C871.037 813.034 881.029 811.522 883.93 810.634C885.656 810.105 888.139 808.839 888.993 807.063C890.13 804.682 889.201 802.168 886.262 801.318V801.299Z" fill="white"/>
<path d="M868.535 814.98C868.307 813.223 866.942 812.146 865.179 812.354C862.297 812.694 859.794 815.698 859.339 818.665C859.244 819.289 859.016 821.5 859.813 822.596C861.462 824.864 865.141 821.462 866.392 819.894C867.473 818.533 868.781 816.832 868.535 814.98Z" fill="white"/>
<path d="M918.665 865.681C916.087 869.196 910.835 876.018 906.569 878.078C897.752 882.367 893.695 880.345 887.324 882.519C886.281 882.878 886.243 884.333 887.324 884.673C891.571 886.015 897.221 887.319 900.615 890.342C902.189 891.759 905.261 894.783 906.588 894.783C910.683 894.783 913.489 887.526 915.158 883.539C918.324 876.018 925.32 865.984 926.325 862.658C927.728 857.952 924.221 858.104 918.646 865.7L918.665 865.681Z" fill="#4688E8"/>
<path d="M901.26 910.222C898.643 908.559 894.719 907.501 890.32 907.501C885.921 907.501 881.996 908.559 879.38 910.222H876.062V915.079C876.062 919.255 882.451 922.638 890.32 922.638C898.188 922.638 904.578 919.255 904.578 915.079V910.222H901.26Z" fill="#4C2011"/>
<path d="M890.32 902.644C882.432 902.644 876.062 906.027 876.062 910.203C876.062 914.379 882.451 917.762 890.32 917.762C898.188 917.762 904.578 914.379 904.578 910.203C904.578 906.027 898.188 902.644 890.32 902.644Z" fill="#5E291B"/>
<path d="M890.32 903.287C884.727 903.287 880.214 905.687 880.214 908.653C880.214 911.62 884.746 914.02 890.32 914.02C895.894 914.02 900.426 911.62 900.426 908.653C900.426 905.687 895.894 903.287 890.32 903.287Z" fill="#4C2011"/>
<path d="M885.731 907.142C879.854 906.631 878.565 897.07 877.522 892.667C876.991 890.399 875.057 883.35 873.54 876.226C872.023 869.102 870.734 861.864 869.957 858.501C871.606 855.08 870.829 851.905 867.492 851.112C865.406 850.62 861.5 853.266 863.908 857.367C865.065 859.351 866.771 859.54 868.25 859.313C870.089 869.48 874.09 885.864 875.55 892.156C877.086 898.714 878.053 907.879 885.618 908.54C886.926 908.653 887.059 907.255 885.769 907.142H885.731Z" fill="#4C2011"/>
<path d="M895.742 907.142C901.62 906.631 902.909 897.07 903.952 892.667C904.483 890.399 906.417 883.35 907.934 876.226C909.451 869.102 910.74 861.864 911.517 858.501C909.868 855.08 910.645 851.905 913.982 851.112C916.068 850.62 919.974 853.266 917.566 857.367C916.409 859.351 914.703 859.54 913.224 859.313C911.385 869.48 907.384 885.864 905.924 892.156C904.388 898.714 903.421 907.879 895.856 908.54C894.548 908.653 894.415 907.255 895.705 907.142H895.742Z" fill="#4C2011"/>
</g>
<g clip-path="url(#clip1_171_1323)">
<path d="M161.366 865L60 806.603L218.293 716L319.586 774.47L161.366 865Z" fill="#EC5212"/>
<path d="M257.738 758.771C248.189 750.114 226.006 742.778 206.026 748.427C192.658 752.168 186.047 760.678 191.997 766.987C193.98 769.042 199.048 767.281 198.387 764.86C197.946 763.393 196.992 761.925 197.285 760.898C199.562 752.315 219.248 748.793 232.69 753.269C237.538 754.883 242.092 756.57 245.985 758.771C256.489 765.08 258.105 775.424 244.957 783.421C227.255 794.058 206.908 787.602 187.663 787.896C169.079 788.189 147.777 795.966 153.433 807.851C154.902 811.005 163.129 809.391 162.395 806.163C159.31 791.564 194.2 793.398 203.309 793.985C209.405 794.352 215.502 795.012 221.819 794.645C230.56 794.132 238.934 792.371 246.279 788.923C263.027 781.073 267.801 767.941 257.738 758.844V758.771Z" fill="white"/>
<path d="M149.687 820.175C151.009 817.241 149.393 814.306 145.794 812.619C142.562 811.078 135.584 810.125 127.798 813.499C118.469 817.461 118.837 823.99 126.77 826.925C134.923 829.933 147.116 825.824 149.687 820.175ZM134.188 823.037C130.516 823.037 127.945 820.395 129.708 818.341C130.736 817.167 132.94 816.214 134.996 816.067C137.567 815.774 141.24 816.874 141.534 818.561C141.901 820.689 137.861 823.11 134.115 823.037H134.188Z" fill="white"/>
<path d="M332 805.943L389 773.076L299.974 722.163L242.974 755.029L332 805.943Z" fill="#619BF7"/>
<path d="M288.295 740.65C279.847 743.731 272.722 750.921 278.158 757.377C281.831 761.705 290.131 763.833 296.228 761.925C298.284 761.265 296.522 759.651 294.098 759.871C292.628 760.018 291.233 760.311 290.204 760.238C281.831 759.504 278.378 753.122 282.712 748.72C284.255 747.179 285.944 745.639 288.074 744.392C294.244 741.017 304.381 740.43 312.094 744.758C322.451 750.481 316.134 757.083 316.428 763.319C316.721 769.335 324.361 776.231 335.893 774.397C338.904 773.883 337.435 771.242 334.203 771.462C319.953 772.489 321.79 761.118 322.304 758.184C322.671 756.203 323.332 754.222 322.965 752.168C322.451 749.307 320.761 746.592 317.382 744.245C309.743 738.816 296.889 737.275 288.001 740.503L288.295 740.65Z" fill="white"/>
<path d="M348.16 775.717C345.295 775.277 342.43 775.791 340.814 776.964C339.345 777.991 338.39 780.266 341.696 782.833C345.589 785.841 351.906 785.768 354.77 783.127C357.709 780.486 353.742 776.524 348.16 775.717ZM350.951 780.706C350.951 781.88 348.38 782.76 346.397 782.173C345.295 781.88 344.34 781.146 344.12 780.486C343.826 779.679 344.928 778.432 346.544 778.358C348.6 778.212 350.951 779.532 350.951 780.779V780.706Z" fill="white"/>
</g>
<g clip-path="url(#clip2_171_1323)">
<mask id="mask0_171_1323" style="mask-type:luminance" maskUnits="userSpaceOnUse" x="20" y="203" width="117" height="273">
<path d="M20.58 475.17L20 269.96L135.98 203L136.57 408.21L20.58 475.17Z" fill="white"/>
</mask>
<g mask="url(#mask0_171_1323)">
<path d="M28.52 434.79C26.97 435.68 25.59 437.12 24.38 439.1C23.16 441.09 22.22 443.44 21.54 446.18C20.86 448.91 20.52 451.81 20.53 454.88C20.54 457.95 20.89 460.43 21.59 462.37C22.28 464.31 23.24 465.57 24.46 466.14C25.68 466.72 27.07 466.56 28.62 465.67C29.85 464.96 30.97 463.92 31.99 462.52C33.02 461.13 33.89 459.49 34.61 457.59C35.33 455.7 35.86 453.64 36.2 451.4L32.44 451.01C32.19 452.82 31.71 454.41 31.03 455.76C30.34 457.11 29.53 458.06 28.6 458.6C27.83 459.04 27.14 459.1 26.52 458.77C25.9 458.45 25.42 457.75 25.06 456.69C24.71 455.62 24.54 454.25 24.53 452.57C24.52 450.89 24.69 449.32 25.03 447.86C25.38 446.39 25.85 445.14 26.47 444.09C27.09 443.04 27.78 442.3 28.55 441.85C29.49 441.31 30.3 441.32 30.99 441.87C31.68 442.43 32.16 443.46 32.42 444.97L36.16 440.25C35.81 438.42 35.27 436.97 34.54 435.92C33.81 434.86 32.93 434.23 31.9 434.02C30.87 433.82 29.75 434.07 28.52 434.78" fill="black"/>
<path d="M46.45 448.29C45.68 448.74 44.99 448.79 44.37 448.46C43.75 448.14 43.27 447.44 42.91 446.38C42.56 445.31 42.39 443.94 42.38 442.26C42.37 440.58 42.54 439.01 42.88 437.55C43.23 436.08 43.7 434.83 44.32 433.78C44.94 432.73 45.63 431.99 46.4 431.54C47.17 431.09 47.88 431.03 48.5 431.37C49.12 431.7 49.61 432.4 49.96 433.46C50.31 434.52 50.49 435.89 50.5 437.57C50.51 439.25 50.34 440.82 49.99 442.29C49.64 443.76 49.16 445.01 48.54 446.05C47.93 447.09 47.23 447.84 46.45 448.29ZM46.38 424.48C44.83 425.37 43.45 426.81 42.24 428.79C41.02 430.78 40.08 433.13 39.4 435.87C38.72 438.6 38.38 441.5 38.39 444.57C38.4 447.64 38.75 450.1 39.45 452.04C40.14 453.99 41.1 455.25 42.32 455.83C43.54 456.42 44.93 456.26 46.48 455.36C48.03 454.46 49.42 453.03 50.63 451.03C51.85 449.04 52.8 446.68 53.47 443.94C54.15 441.21 54.48 438.32 54.48 435.28C54.48 432.24 54.12 429.71 53.43 427.77C52.74 425.82 51.78 424.57 50.55 423.99C49.33 423.42 47.94 423.58 46.39 424.47" fill="black"/>
<path d="M71.44 410.44L67.43 412.76L67.48 431.39L62.37 415.68L57.64 418.41L57.73 448.45L61.74 446.14L61.68 427.27L66.75 443.24L71.52 440.48L71.44 410.44Z" fill="black"/>
<path d="M82.89 427.68C82.08 428.15 81.36 428.21 80.73 427.88C80.1 427.54 79.6 426.82 79.23 425.71C78.87 424.6 78.69 423.13 78.68 421.32C78.68 419.65 78.85 418.07 79.2 416.6C79.56 415.12 80.06 413.86 80.69 412.8C81.33 411.74 82.04 410.98 82.85 410.52C83.66 410.06 84.36 409.99 85.01 410.31C85.64 410.63 86.15 411.32 86.51 412.38C86.88 413.43 87.06 414.8 87.07 416.48C87.07 418.29 86.9 419.97 86.54 421.5C86.19 423.03 85.69 424.33 85.05 425.4C84.42 426.46 83.7 427.23 82.89 427.7M82.82 403.47C81.24 404.38 79.84 405.83 78.61 407.82C77.37 409.82 76.4 412.19 75.71 414.93C75.01 417.67 74.68 420.57 74.69 423.63C74.7 426.69 75.05 429.16 75.76 431.09C76.46 433.03 77.44 434.28 78.69 434.85C79.93 435.43 81.34 435.25 82.92 434.34C83.83 433.82 84.69 433.1 85.5 432.19L87.92 436.32L90.67 430.33L88.7 426.9C89.46 425.09 90.05 423.1 90.45 420.93C90.86 418.76 91.06 416.52 91.05 414.18C91.05 411.11 90.68 408.62 89.98 406.69C89.28 404.75 88.3 403.51 87.05 402.94C85.81 402.38 84.39 402.55 82.82 403.47Z" fill="black"/>
<path d="M106.65 390.11L102.64 392.42L102.69 410.53C102.7 414.22 101.93 416.52 100.38 417.41C98.83 418.3 98.04 416.91 98.03 413.22L97.98 395.11L93.97 397.42L94.02 416.59C94.02 419.2 94.31 421.19 94.86 422.56C95.41 423.92 96.16 424.72 97.11 424.94C98.06 425.16 99.15 424.92 100.39 424.2C101.63 423.48 102.71 422.48 103.66 421.16C104.61 419.84 105.35 418.18 105.89 416.19C106.43 414.19 106.7 411.88 106.7 409.27L106.65 390.1" fill="black"/>
<path d="M119.79 382.52L110.4 387.94L110.49 417.99L119.88 412.57L119.86 405.73L114.48 408.84L114.46 404L119.27 401.22L119.25 394.53L114.45 397.3L114.43 392.39L119.81 389.29L119.79 382.52Z" fill="black"/>
<path d="M127.71 391.4L127.69 384.41L129.8 383.19C130.49 382.79 130.99 382.81 131.31 383.24C131.63 383.66 131.79 384.42 131.8 385.52C131.81 386.62 131.65 387.63 131.33 388.4C131.02 389.18 130.52 389.77 129.82 390.18L127.71 391.4ZM129.61 376.86L123.67 380.29L123.76 410.33L127.77 408.02L127.74 396.76L127.85 396.7L131.81 405.69L136.57 402.94L131.88 394.1C132.65 393.32 133.32 392.34 133.89 391.16C134.46 389.97 134.89 388.68 135.18 387.28C135.48 385.87 135.63 384.46 135.62 383.04C135.62 381.07 135.43 379.47 135.06 378.26C134.7 377.05 134.08 376.3 133.19 376C132.31 375.71 131.12 375.99 129.62 376.86" fill="black"/>
<path d="M34.34 261.68C31.6 263.26 29.15 266.84 26.99 272.42C24.83 278 23.14 285.17 21.93 293.91C20.71 302.66 20.12 312.35 20.15 322.97C20.18 333.59 20.83 342.64 22.09 349.96C23.35 357.27 25.07 362.48 27.26 365.58C29.44 368.68 31.91 369.44 34.65 367.86C36.66 366.7 38.53 364.42 40.25 361.01C41.97 357.61 43.46 353.28 44.73 348.02C46 342.76 46.97 336.8 47.64 330.15L42.86 326.34C42.18 332.85 41.11 338.22 39.64 342.46C38.17 346.71 36.49 349.38 34.6 350.47C32.85 351.48 31.27 350.96 29.86 348.91C28.45 346.86 27.34 343.37 26.52 338.45C25.7 333.53 25.28 327.39 25.26 320.03C25.24 312.67 25.62 306.14 26.41 300.3C27.2 294.45 28.29 289.69 29.68 286.02C31.07 282.35 32.65 280.01 34.4 279C36.3 277.91 37.99 278.63 39.47 281.16C40.95 283.7 42.05 287.83 42.77 293.53L47.51 284.21C46.81 278.41 45.8 273.61 44.51 269.84C43.21 266.06 41.7 263.47 39.97 262.06C38.24 260.66 36.37 260.53 34.35 261.69" fill="black"/>
<path d="M67.38 331.6C65.63 332.61 64.05 332.09 62.64 330.04C61.23 327.99 60.12 324.49 59.3 319.55C58.48 314.6 58.07 308.45 58.05 301.09C58.03 293.73 58.41 287.21 59.2 281.36C59.99 275.51 61.08 270.75 62.47 267.08C63.87 263.41 65.44 261.07 67.19 260.06C68.94 259.05 70.5 259.58 71.91 261.64C73.31 263.7 74.43 267.18 75.25 272.1C76.07 277.02 76.5 283.13 76.52 290.44C76.54 297.75 76.15 304.42 75.36 310.3C74.56 316.18 73.47 320.95 72.09 324.61C70.7 328.28 69.14 330.61 67.4 331.62M67.15 242.77C64.41 244.35 61.97 247.93 59.8 253.51C57.64 259.09 55.95 266.26 54.74 275C53.52 283.75 52.93 293.43 52.96 304.05C52.99 314.68 53.64 323.66 54.9 331C56.16 338.34 57.88 343.56 60.07 346.65C62.26 349.74 64.72 350.51 67.46 348.93C70.2 347.35 72.61 343.77 74.78 338.16C76.94 332.55 78.63 325.37 79.85 316.6C81.07 307.83 81.66 298.13 81.63 287.5C81.6 276.88 80.95 267.91 79.69 260.59C78.43 253.28 76.71 248.08 74.52 245C72.34 241.93 69.88 241.18 67.15 242.76" fill="black"/>
<path d="M94.45 315.18L94.25 245.08L98.75 242.48C101.5 240.89 103.57 242.74 104.95 248.03C106.33 253.33 107.03 261.57 107.07 272.78C107.1 283.99 106.44 293.03 105.1 299.89C103.75 306.76 101.7 310.99 98.95 312.57L94.45 315.17M98.94 225.74L89.06 231.44L89.35 334.8L99.23 329.1C102.14 327.42 104.59 323.87 106.57 318.43C108.56 313 110.03 306.11 111.01 297.77C111.99 289.42 112.46 280.06 112.43 269.67C112.4 259.33 111.88 250.57 110.85 243.38C109.83 236.2 108.31 231.04 106.3 227.91C104.3 224.78 101.84 224.06 98.93 225.74" fill="black"/>
<path d="M135.99 204.36L119.99 213.6L120.28 316.96L136.28 307.72L136.23 291.06L125.4 297.31L125.33 270.56L134.91 265.02L134.87 248.58L125.28 254.11L125.21 227.21L136.03 220.96L135.99 204.36Z" fill="black"/>
<path d="M31.09 377.08C29.02 378.28 27.17 380.36 25.54 383.32C23.91 386.28 22.64 389.89 21.73 394.15C20.82 398.41 20.37 402.97 20.39 407.84C20.4 412.71 20.88 416.75 21.81 419.94C22.75 423.13 24.03 425.26 25.67 426.34C27.3 427.42 29.16 427.36 31.23 426.16C32.81 425.25 34.28 423.79 35.63 421.8C36.97 419.81 38.13 417.4 39.09 414.57C40.05 411.74 40.77 408.63 41.24 405.25L36.67 404.15C36.28 407.09 35.59 409.61 34.62 411.71C33.65 413.8 32.51 415.22 31.2 415.98C30.07 416.63 29.06 416.64 28.16 416C27.26 415.36 26.55 414.1 26.04 412.22C25.52 410.34 25.25 407.95 25.25 405.04C25.25 402.13 25.49 399.45 26 396.98C26.5 394.52 27.2 392.44 28.09 390.77C28.99 389.09 29.99 387.94 31.12 387.28C32.43 386.52 33.57 386.63 34.56 387.59C35.54 388.56 36.24 390.27 36.65 392.75L41.2 386.38C40.71 383.56 39.98 381.29 39.01 379.58C38.03 377.87 36.87 376.8 35.52 376.37C34.16 375.93 32.69 376.18 31.11 377.09" fill="black"/>
<path d="M50.84 387.89L50.81 375.64L54.05 373.77C55.03 373.2 55.77 373.32 56.25 374.14C56.74 374.95 56.99 376.29 56.99 378.17C56.99 380.05 56.76 381.79 56.28 383.14C55.81 384.48 55.08 385.44 54.08 386.02L50.84 387.89ZM53.83 364.6L45.89 369.18L46.03 416.95L50.91 414.13L50.86 396.01L51.66 395.55L56.95 410.64L62.75 407.29L56.59 392.3C57.63 391.21 58.53 389.77 59.3 387.98C60.06 386.18 60.64 384.19 61.04 381.98C61.45 379.77 61.65 377.53 61.64 375.23C61.63 370.51 61.02 367.16 59.81 365.16C58.61 363.16 56.61 362.97 53.82 364.59" fill="black"/>
<path d="M79.27 349.92L66.87 357.08L67 404.85L79.41 397.68L79.38 387.85L71.87 392.19L71.85 382.95L78.52 379.09L78.5 369.46L71.82 373.32L71.79 364.02L79.3 359.68L79.27 349.92Z" fill="black"/>
<path d="M90.63 372.56L93.44 352.2L96.34 369.26L90.63 372.56ZM96.39 340.03L90.41 343.48L82.86 395.68L87.83 392.81L89.23 382.64L97.78 377.7L99.24 386.21L104.21 383.34L96.38 340.01" fill="black"/>
<path d="M119.52 326.68L104.99 335.07L105.02 344.83L109.88 342.03L109.98 380.03L114.8 377.25L114.7 339.24L119.54 336.45L119.52 326.68Z" fill="black"/>
<path d="M136.31 316.99L123.9 324.15L124.04 371.92L136.44 364.75L136.41 354.92L128.91 359.26L128.88 350.02L135.55 346.17L135.52 336.54L128.85 340.39L128.83 331.09L136.33 326.75L136.31 316.99Z" fill="black"/>
</g>
</g>
<g clip-path="url(#clip3_171_1323)">
<mask id="mask1_171_1323" style="mask-type:luminance" maskUnits="userSpaceOnUse" x="42" y="529" width="82" height="88">
<path d="M42.12 616.91L42 575.94L123.3 529L123.42 569.97L42.12 616.91Z" fill="white"/>
</mask>
<g mask="url(#mask1_171_1323)">
<path d="M43.47 583.81L43.45 576.59L47.18 574.44C47.78 574.09 48.31 573.95 48.76 574C49.21 574.05 49.56 574.29 49.8 574.69C50.04 575.1 50.16 575.66 50.16 576.35C50.16 577.04 50.05 577.74 49.81 578.43C49.58 579.11 49.23 579.73 48.79 580.29C48.34 580.86 47.81 581.31 47.2 581.66L43.47 583.81ZM47.24 572.91L42 575.94L42.05 592.96L43.5 592.12L43.48 585.22L46.48 583.49L50.02 588.35L51.74 587.36L48.08 582.51C48.79 581.98 49.42 581.33 49.97 580.55C50.51 579.77 50.92 578.94 51.22 578.06C51.51 577.17 51.66 576.31 51.65 575.47C51.65 574.52 51.47 573.75 51.12 573.18C50.77 572.61 50.26 572.29 49.6 572.23C48.93 572.17 48.15 572.39 47.24 572.92" fill="black"/>
<path d="M64.24 563.1L56.58 567.52L56.63 584.54L64.29 580.12V578.56L58.14 582.1L58.12 575.94L63.52 572.82V571.28L58.12 574.39L58.1 568.21L64.25 564.66L64.24 563.1Z" fill="black"/>
<path d="M70.71 570.59L73.61 559.48L76.55 567.22L70.71 570.59ZM74.46 557.2L72.74 558.19L67.38 578.33L68.92 577.44L70.24 572.4L77.05 568.47L78.39 571.97L79.94 571.08L74.47 557.19" fill="black"/>
<path d="M85.57 550.79L84.12 551.62L84.17 568.64L90.89 564.76V563.2L85.61 566.24L85.57 550.79Z" fill="black"/>
<path d="M96.45 544.5L95.01 545.34L95.05 562.36L96.5 561.52L96.45 544.5Z" fill="black"/>
<path d="M109.81 536.79L100.63 542.09V543.65L104.5 541.42L104.54 556.88L105.99 556.04L105.95 540.59L109.81 538.36V536.79Z" fill="black"/>
<path d="M123.3 529L121.61 529.98L117.76 539.59L113.87 534.45L112.17 535.43L117.03 541.54L117.05 549.66L118.53 548.8L118.51 540.67L123.3 529Z" fill="black"/>
<path d="M49.82 594.95C48.46 595.74 47.24 596.79 46.14 598.13C45.04 599.47 44.18 600.98 43.54 602.67C42.91 604.36 42.6 606.09 42.6 607.86C42.6 609.63 42.93 611.01 43.56 611.97C44.2 612.92 45.07 613.43 46.17 613.5C47.27 613.56 48.5 613.21 49.86 612.42C51.22 611.63 52.51 610.51 53.64 609.12C54.76 607.72 55.61 606.17 56.19 604.47L54.86 604.55C54.38 605.89 53.7 607.11 52.82 608.19C51.94 609.27 50.96 610.12 49.86 610.76C48.76 611.4 47.8 611.67 46.92 611.62C46.04 611.57 45.34 611.17 44.83 610.39C44.32 609.61 44.06 608.49 44.06 607.01C44.06 605.53 44.31 604.13 44.81 602.77C45.32 601.4 46.01 600.2 46.89 599.13C47.77 598.06 48.75 597.22 49.82 596.6C50.89 595.98 51.9 595.68 52.78 595.75C53.66 595.82 54.35 596.24 54.84 597.02L56.17 595.57C55.59 594.55 54.73 593.99 53.6 593.89C52.47 593.78 51.22 594.14 49.82 594.94" fill="black"/>
<path d="M71.45 582.7L69.99 583.54L70.02 591.26L62.16 595.8L62.13 588.08L60.66 588.93L60.71 605.95L62.18 605.09L62.16 597.35L70.02 592.81L70.04 600.56L71.5 599.72L71.45 582.7Z" fill="black"/>
<path d="M85 574.88L77.34 579.3L77.39 596.31L85.05 591.89V590.33L78.91 593.87L78.89 587.71L84.28 584.6V583.05L78.88 586.16L78.87 579.98L85.01 576.43L85 574.88Z" fill="black"/>
<path d="M95.42 568.63C94.06 569.42 92.84 570.48 91.74 571.81C90.64 573.14 89.78 574.66 89.14 576.35C88.51 578.04 88.2 579.77 88.2 581.54C88.2 583.31 88.53 584.69 89.16 585.65C89.8 586.6 90.67 587.11 91.77 587.18C92.87 587.24 94.1 586.89 95.46 586.1C96.82 585.31 98.11 584.19 99.24 582.8C100.36 581.4 101.21 579.85 101.79 578.15L100.46 578.23C99.98 579.57 99.3 580.79 98.42 581.87C97.54 582.95 96.56 583.8 95.46 584.44C94.36 585.08 93.4 585.35 92.52 585.3C91.64 585.25 90.94 584.85 90.43 584.07C89.92 583.29 89.66 582.17 89.66 580.69C89.66 579.21 89.91 577.81 90.41 576.45C90.92 575.08 91.61 573.88 92.49 572.81C93.36 571.75 94.35 570.9 95.42 570.28C96.49 569.66 97.5 569.36 98.38 569.43C99.26 569.5 99.95 569.92 100.44 570.7L101.77 569.25C101.18 568.23 100.33 567.67 99.2 567.57C98.07 567.46 96.82 567.82 95.42 568.62" fill="black"/>
<path d="M116.14 556.9L114.32 557.95L107.73 569.78L107.71 561.77L106.25 562.61L106.3 579.62L107.76 578.78L107.73 570.01L114.66 574.8L116.53 573.72L109.44 568.88L116.14 556.9Z" fill="black"/>
</g>
</g>
<path d="M252.537 1203.75L251.662 1203.24L248.802 1204.9L246.961 1203.84C246.426 1203.53 246.164 1203.24 246.125 1202.97C246.086 1202.69 246.204 1202.45 246.439 1202.22C246.674 1202 247.039 1201.77 247.483 1201.5L248.058 1201.18L247.131 1200.64L246.478 1201.02C245.72 1201.47 245.146 1201.87 244.728 1202.28C244.297 1202.68 244.114 1203.09 244.14 1203.52C244.179 1203.93 244.558 1204.37 245.263 1204.77L247.157 1205.87L244.858 1207.2L245.733 1207.71L248.032 1206.38L254.875 1210.32L256.521 1209.37L249.677 1205.42L252.537 1203.76" fill="black"/>
<path d="M272.192 1200.25L264.474 1195.8L262.815 1196.76L267.569 1199.51C268.039 1199.78 268.3 1200.08 268.366 1200.42C268.431 1200.77 268.3 1201.13 268.013 1201.48C267.713 1201.84 267.269 1202.2 266.681 1202.54C265.871 1203.01 265.062 1203.29 264.187 1203.41C263.338 1203.53 262.58 1203.39 261.927 1203.01L256.978 1200.15L255.319 1201.11L260.517 1204.12C261.078 1204.44 261.744 1204.63 262.476 1204.65C263.233 1204.69 264.004 1204.59 264.813 1204.35C265.623 1204.12 266.42 1203.78 267.203 1203.32C267.987 1202.86 268.548 1202.42 268.927 1201.95C269.319 1201.48 269.502 1201.02 269.489 1200.59L270.573 1201.19L272.179 1200.25" fill="black"/>
<path d="M287.146 1191.57L281.961 1188.58C281.399 1188.25 280.733 1188.07 280.002 1188.04C279.258 1188.01 278.461 1188.12 277.664 1188.35C276.855 1188.59 276.058 1188.93 275.274 1189.39C274.491 1189.84 273.942 1190.27 273.551 1190.74C273.159 1191.2 272.963 1191.66 272.976 1192.09L271.931 1191.49L270.273 1192.45L277.991 1196.91L279.649 1195.94L274.909 1193.21C274.439 1192.94 274.164 1192.62 274.099 1192.28C274.047 1191.93 274.164 1191.58 274.452 1191.23C274.752 1190.86 275.209 1190.51 275.797 1190.17C276.606 1189.7 277.416 1189.41 278.278 1189.29C279.127 1189.18 279.871 1189.31 280.55 1189.7L285.5 1192.56L287.159 1191.59" fill="black"/>
<path d="M300.544 1181.11L298.768 1181.9C298.99 1182.4 298.938 1182.93 298.559 1183.5C298.194 1184.06 297.58 1184.59 296.718 1185.09C295.948 1185.53 295.125 1185.87 294.237 1186.09C293.336 1186.32 292.487 1186.39 291.651 1186.34C290.815 1186.29 290.11 1186.08 289.509 1185.73C288.908 1185.38 288.53 1184.96 288.425 1184.49C288.321 1184.02 288.464 1183.51 288.843 1183C289.222 1182.49 289.796 1182.01 290.58 1181.55C291.442 1181.05 292.356 1180.69 293.323 1180.48C294.302 1180.27 295.203 1180.22 296.065 1180.35L297.436 1179.32C296.274 1179.11 295.02 1179.16 293.636 1179.46C292.252 1179.76 290.933 1180.28 289.666 1181.01C288.569 1181.65 287.759 1182.32 287.198 1183.03C286.636 1183.73 286.414 1184.41 286.505 1185.05C286.61 1185.69 287.041 1186.24 287.837 1186.7C288.634 1187.15 289.574 1187.4 290.684 1187.45C291.795 1187.51 292.97 1187.37 294.184 1187.06C295.399 1186.73 296.548 1186.25 297.645 1185.62C298.481 1185.14 299.16 1184.63 299.67 1184.11C300.192 1183.59 300.518 1183.06 300.675 1182.56C300.819 1182.05 300.78 1181.56 300.544 1181.12" fill="black"/>
<path d="M312.573 1176.78L311.684 1176.27L310.587 1176.91C310.078 1177.21 309.543 1177.4 309.007 1177.46C308.459 1177.53 308.002 1177.46 307.623 1177.24L302.869 1174.5L305.716 1172.84L304.841 1172.33L301.994 1173.99L299.774 1172.71L298.364 1173.53C299.043 1173.92 299.461 1174.25 299.63 1174.5C299.8 1174.76 299.748 1175.02 299.474 1175.28C299.212 1175.56 298.677 1175.92 297.867 1176.39L298.742 1176.9L301.224 1175.45L306.082 1178.26C306.709 1178.62 307.466 1178.74 308.354 1178.62C309.255 1178.51 310.156 1178.18 311.071 1177.66L312.559 1176.8" fill="black"/>
<path d="M318.645 1173.26L310.927 1168.8L309.281 1169.76L317 1174.21L318.645 1173.26ZM308.511 1166.92C308.289 1166.79 307.976 1166.75 307.584 1166.8C307.192 1166.86 306.826 1166.99 306.487 1167.18C306.147 1167.38 305.938 1167.59 305.847 1167.82C305.768 1168.06 305.821 1168.23 306.056 1168.36C306.291 1168.49 306.591 1168.53 306.983 1168.48C307.388 1168.42 307.753 1168.31 308.093 1168.11C308.433 1167.91 308.642 1167.69 308.72 1167.47C308.798 1167.24 308.733 1167.05 308.511 1166.94" fill="black"/>
<path d="M321.27 1167.26C320.656 1166.91 320.304 1166.49 320.212 1166.01C320.108 1165.53 320.252 1165.03 320.63 1164.52C321.009 1164.01 321.597 1163.53 322.38 1163.07C323.164 1162.61 324 1162.27 324.888 1162.05C325.776 1161.83 326.638 1161.74 327.474 1161.79C328.309 1161.84 329.028 1162.05 329.641 1162.4C330.255 1162.76 330.621 1163.18 330.712 1163.67C330.804 1164.15 330.66 1164.66 330.268 1165.17C329.89 1165.7 329.302 1166.18 328.518 1166.64C327.735 1167.09 326.899 1167.43 326.011 1167.64C325.123 1167.86 324.261 1167.95 323.438 1167.89C322.602 1167.84 321.871 1167.63 321.257 1167.28M331.261 1161.46C330.464 1161.01 329.498 1160.75 328.401 1160.69C327.291 1160.64 326.128 1160.77 324.914 1161.1C323.699 1161.43 322.55 1161.91 321.453 1162.54C320.356 1163.16 319.52 1163.85 318.959 1164.56C318.397 1165.28 318.175 1165.94 318.253 1166.6C318.345 1167.24 318.789 1167.79 319.599 1168.26C320.408 1168.73 321.349 1168.97 322.472 1169.03C323.595 1169.08 324.77 1168.95 325.985 1168.62C327.212 1168.29 328.362 1167.81 329.472 1167.17C330.582 1166.53 331.378 1165.87 331.94 1165.16C332.488 1164.45 332.724 1163.78 332.619 1163.14C332.515 1162.5 332.071 1161.93 331.274 1161.48" fill="black"/>
<path d="M349.113 1155.55L343.929 1152.56C343.367 1152.23 342.701 1152.05 341.957 1152.02C341.212 1151.98 340.429 1152.09 339.619 1152.32C338.809 1152.56 338.013 1152.9 337.229 1153.35C336.446 1153.81 335.897 1154.24 335.505 1154.71C335.113 1155.17 334.918 1155.63 334.918 1156.07L333.873 1155.47L332.227 1156.42L339.946 1160.88L341.591 1159.92L336.85 1157.19C336.38 1156.92 336.119 1156.61 336.041 1156.25C335.975 1155.91 336.093 1155.56 336.393 1155.2C336.694 1154.84 337.138 1154.48 337.738 1154.14C338.548 1153.67 339.358 1153.38 340.22 1153.26C341.056 1153.16 341.813 1153.28 342.492 1153.67L347.442 1156.53L349.1 1155.56" fill="black"/>
<path d="M360.893 1137.02L359.874 1136.42L349.1 1142.69L350.132 1143.27L354.664 1140.63L364.746 1146.46L366.456 1145.47L356.361 1139.64L360.893 1137.02Z" fill="black"/>
<path d="M369.434 1138.45C368.82 1137.9 368.664 1137.3 368.977 1136.62C369.304 1135.96 369.996 1135.31 371.08 1134.68C372.164 1134.05 373.221 1133.67 374.305 1133.52C375.389 1133.37 376.356 1133.5 377.231 1133.92L369.434 1138.45ZM379.451 1133.26C378.628 1132.79 377.688 1132.51 376.656 1132.45C375.637 1132.38 374.567 1132.5 373.457 1132.81C372.346 1133.11 371.262 1133.57 370.205 1134.18C369.147 1134.8 368.285 1135.49 367.736 1136.18C367.175 1136.87 366.966 1137.54 367.07 1138.18C367.162 1138.82 367.632 1139.38 368.455 1139.85C369.277 1140.32 370.244 1140.59 371.341 1140.65C372.438 1140.7 373.587 1140.57 374.776 1140.26C375.977 1139.93 377.126 1139.45 378.249 1138.79C379.372 1138.14 380.195 1137.43 380.718 1136.69C381.214 1135.93 381.371 1135.23 381.149 1134.57L379.425 1135.29C379.529 1135.76 379.412 1136.27 379.033 1136.81C378.654 1137.34 378.08 1137.83 377.296 1138.28C376.512 1138.74 375.742 1139.05 374.906 1139.29C374.057 1139.52 373.234 1139.62 372.412 1139.59C371.602 1139.55 370.871 1139.35 370.218 1139L379.725 1133.48L379.438 1133.27" fill="black"/>
<path d="M385.119 1130.16C384.518 1129.81 384.178 1129.4 384.087 1128.92C383.996 1128.44 384.152 1127.93 384.531 1127.4C384.91 1126.88 385.484 1126.4 386.255 1125.96C387.025 1125.51 387.848 1125.18 388.762 1124.96C389.677 1124.75 390.552 1124.68 391.387 1124.73C392.223 1124.78 392.928 1124.98 393.49 1125.3C394.052 1125.63 394.378 1126.03 394.482 1126.52C394.574 1127 394.443 1127.51 394.078 1128.03C393.712 1128.55 393.15 1129.04 392.367 1129.49C391.583 1129.95 390.774 1130.28 389.872 1130.5C388.971 1130.72 388.109 1130.81 387.26 1130.76C386.425 1130.71 385.706 1130.51 385.119 1130.17M398.91 1126.62L391.191 1122.17L389.533 1123.13L391.178 1124.09C390.225 1124.01 389.206 1124.1 388.083 1124.38C386.973 1124.64 385.955 1125.05 385.001 1125.6C383.996 1126.19 383.238 1126.82 382.729 1127.51C382.219 1128.19 382.024 1128.85 382.128 1129.49C382.246 1130.13 382.69 1130.68 383.473 1131.13C384.257 1131.57 385.197 1131.85 386.294 1131.9C387.404 1131.96 388.54 1131.85 389.716 1131.54C390.904 1131.26 392.001 1130.81 393.02 1130.21C393.973 1129.66 394.678 1129.06 395.135 1128.42C395.593 1127.77 395.749 1127.18 395.619 1126.61L397.303 1127.55L398.923 1126.61" fill="black"/>
<path d="M419.909 1114.41L414.568 1111.33C414.046 1111.03 413.432 1110.86 412.74 1110.82C412.047 1110.78 411.316 1110.87 410.559 1111.09C409.814 1111.3 409.07 1111.62 408.352 1112.03C407.633 1112.45 407.046 1112.93 406.667 1113.4C406.301 1113.87 406.158 1114.33 406.249 1114.76C405.531 1114.68 404.786 1114.76 403.99 1114.96C403.193 1115.15 402.422 1115.47 401.678 1115.91C400.973 1116.32 400.451 1116.75 400.111 1117.18C399.771 1117.61 399.628 1118.04 399.68 1118.46L398.635 1117.86L396.977 1118.82L404.695 1123.28L406.353 1122.31L401.456 1119.49C400.803 1119.11 400.529 1118.68 400.673 1118.18C400.816 1117.7 401.273 1117.23 402.044 1116.79C402.814 1116.34 403.533 1116.11 404.342 1116.02C405.139 1115.92 405.844 1116.07 406.484 1116.43L411.499 1119.33L413.184 1118.35L408.273 1115.52C407.62 1115.14 407.359 1114.71 407.49 1114.23C407.633 1113.76 408.09 1113.29 408.874 1112.83C409.331 1112.57 409.814 1112.36 410.311 1112.23C410.82 1112.09 411.329 1112.03 411.825 1112.06C412.322 1112.1 412.766 1112.23 413.171 1112.46L418.251 1115.4L419.909 1114.44" fill="black"/>
<path d="M434.327 1101.85L426.818 1097.51L425.107 1098.5L432.447 1102.75C433.061 1103.1 433.387 1103.52 433.439 1103.99C433.492 1104.47 433.283 1104.97 432.839 1105.48C432.395 1106 431.742 1106.5 430.906 1106.98C430.07 1107.46 429.208 1107.84 428.32 1108.1C427.445 1108.36 426.596 1108.48 425.773 1108.46C424.964 1108.42 424.245 1108.23 423.632 1107.87L416.292 1103.62L414.581 1104.62L422.091 1108.95C422.848 1109.4 423.775 1109.62 424.872 1109.64C425.956 1109.67 427.132 1109.5 428.359 1109.13C429.587 1108.78 430.775 1108.26 431.938 1107.59C433.1 1106.93 433.988 1106.22 434.615 1105.5C435.242 1104.79 435.529 1104.11 435.503 1103.47C435.477 1102.83 435.072 1102.29 434.314 1101.85" fill="black"/>
<path d="M441.601 1097.34C441.04 1097.01 440.713 1096.61 440.622 1096.13C440.531 1095.63 440.674 1095.13 441.053 1094.6C441.432 1094.06 442.006 1093.58 442.777 1093.14C443.547 1092.69 444.357 1092.37 445.245 1092.14C446.12 1091.92 446.969 1091.83 447.805 1091.88C448.641 1091.92 449.359 1092.13 449.973 1092.48C450.586 1092.84 450.939 1093.25 451.017 1093.74C451.109 1094.22 450.978 1094.72 450.599 1095.23C450.221 1095.74 449.646 1096.21 448.876 1096.65C448.105 1097.09 447.256 1097.43 446.342 1097.65C445.415 1097.88 444.553 1097.96 443.704 1097.9C442.868 1097.85 442.163 1097.67 441.601 1097.34ZM451.644 1091.5C450.848 1091.05 449.894 1090.79 448.797 1090.72C447.713 1090.65 446.564 1090.77 445.389 1091.07C444.213 1091.37 443.129 1091.82 442.111 1092.4C441.092 1092.99 440.439 1093.57 439.982 1094.22C439.525 1094.86 439.368 1095.46 439.512 1096.01L437.814 1095.06L436.195 1096L447.831 1102.72L449.476 1101.77L443.9 1098.54C444.866 1098.62 445.898 1098.53 447.021 1098.26C448.131 1097.99 449.163 1097.58 450.116 1097.03C451.122 1096.44 451.892 1095.8 452.402 1095.12C452.924 1094.44 453.12 1093.78 453.002 1093.14C452.885 1092.5 452.428 1091.95 451.644 1091.49" fill="black"/>
<path d="M468.974 1089.73C467.681 1090.07 466.336 1090.22 464.926 1090.2C463.529 1090.19 462.131 1089.99 460.747 1089.61C459.363 1089.23 458.043 1088.68 456.803 1087.96C455.562 1087.25 454.622 1086.5 453.982 1085.69C453.342 1084.88 452.989 1084.09 452.95 1083.28C452.898 1082.47 453.159 1081.68 453.734 1080.93L452.219 1081C451.566 1081.85 451.266 1082.74 451.292 1083.64C451.318 1084.56 451.67 1085.46 452.35 1086.33C453.042 1087.21 454.047 1088.03 455.366 1088.8C456.685 1089.57 458.122 1090.16 459.65 1090.55C461.178 1090.94 462.719 1091.15 464.286 1091.16C465.853 1091.16 467.355 1090.99 468.857 1090.62L468.974 1089.71" fill="black"/>
<path d="M469.941 1080.35C468.609 1079.58 467.198 1079.01 465.67 1078.61C464.156 1078.22 462.614 1078.01 461.034 1078C459.454 1078 457.939 1078.17 456.476 1078.55L456.346 1079.42C457.639 1079.1 458.997 1078.94 460.394 1078.97C461.779 1078.99 463.189 1079.19 464.573 1079.55C465.958 1079.93 467.277 1080.47 468.504 1081.19C469.732 1081.9 470.698 1082.66 471.338 1083.47C471.991 1084.27 472.331 1085.08 472.37 1085.89C472.409 1086.7 472.135 1087.48 471.573 1088.23L473.114 1088.16C473.754 1087.3 474.068 1086.42 474.042 1085.51C474.016 1084.61 473.663 1083.72 472.958 1082.83C472.266 1081.94 471.26 1081.12 469.928 1080.35" fill="black"/>
<path d="M447.205 1170.92L446.4 1170.46L445.665 1170.88C445.142 1171.19 444.648 1171.35 444.182 1171.36C443.729 1171.36 443.263 1171.25 442.811 1170.98L439.039 1168.8C438.573 1168.53 438.135 1168.34 437.682 1168.21C437.244 1168.08 436.708 1168.03 436.058 1168.05C435.422 1168.08 434.687 1168.24 433.811 1168.51C434.263 1168 434.503 1167.56 434.56 1167.19C434.617 1166.82 434.518 1166.51 434.292 1166.26C434.066 1166.01 433.712 1165.74 433.26 1165.47L429.502 1163.31C429.064 1163.05 428.838 1162.77 428.852 1162.49C428.852 1162.2 429.106 1161.91 429.615 1161.61L430.35 1161.19L429.558 1160.74L428.513 1161.34C427.976 1161.65 427.58 1161.99 427.326 1162.33C427.058 1162.67 426.959 1163 427.015 1163.31C427.086 1163.62 427.298 1163.87 427.679 1164.1L431.466 1166.29C432.003 1166.6 432.384 1166.87 432.61 1167.11C432.836 1167.35 432.907 1167.62 432.865 1167.91C432.808 1168.21 432.554 1168.59 432.116 1169.04L432.907 1169.5C433.684 1169.24 434.334 1169.1 434.843 1169.06C435.351 1169.01 435.817 1169.06 436.213 1169.18C436.623 1169.31 437.103 1169.52 437.64 1169.83L441.469 1172.04C441.836 1172.25 442.288 1172.38 442.811 1172.41C443.348 1172.43 443.899 1172.38 444.492 1172.22C445.072 1172.07 445.637 1171.84 446.174 1171.53L447.219 1170.92" fill="black"/>
<path d="M474.591 1159.56L473.46 1158.91C472.542 1159.45 471.864 1160.01 471.426 1160.61C470.974 1161.2 470.847 1161.72 471.016 1162.2L469.476 1161.31L467.71 1162.34L476.06 1167.16L477.84 1166.13L473.248 1163.47C472.316 1162.94 472.005 1162.34 472.274 1161.67C472.542 1161 473.333 1160.3 474.605 1159.56" fill="black"/>
<path d="M481.725 1158.13C481.061 1157.54 480.892 1156.89 481.231 1156.16C481.584 1155.44 482.333 1154.73 483.506 1154.05C484.678 1153.37 485.823 1152.96 486.995 1152.79C488.168 1152.64 489.214 1152.78 490.16 1153.23L481.725 1158.13ZM492.562 1152.51C491.672 1152 490.655 1151.71 489.539 1151.64C488.437 1151.56 487.278 1151.69 486.077 1152.03C484.876 1152.36 483.703 1152.85 482.559 1153.51C481.415 1154.18 480.482 1154.93 479.889 1155.68C479.281 1156.42 479.055 1157.15 479.168 1157.84C479.267 1158.53 479.776 1159.12 480.666 1159.65C481.556 1160.17 482.601 1160.45 483.788 1160.51C484.975 1160.56 486.218 1160.42 487.504 1160.08C488.804 1159.73 490.047 1159.21 491.262 1158.5C492.477 1157.8 493.367 1157.03 493.933 1156.23C494.469 1155.41 494.639 1154.64 494.399 1153.94L492.534 1154.72C492.647 1155.22 492.52 1155.77 492.11 1156.35C491.7 1156.93 491.079 1157.46 490.231 1157.95C489.383 1158.45 488.55 1158.78 487.645 1159.04C486.727 1159.29 485.837 1159.39 484.947 1159.36C484.071 1159.32 483.28 1159.11 482.573 1158.73L492.859 1152.75L492.548 1152.53" fill="black"/>
<path d="M507.665 1148.78L506.705 1148.23L505.518 1148.92C504.967 1149.23 504.402 1149.43 503.808 1149.51C503.229 1149.59 502.734 1149.51 502.325 1149.27L497.182 1146.31L500.262 1144.51L499.315 1143.96L496.235 1145.76L493.833 1144.37L492.308 1145.26C493.042 1145.69 493.494 1146.04 493.664 1146.31C493.848 1146.59 493.791 1146.87 493.508 1147.15C493.226 1147.45 492.647 1147.85 491.771 1148.36L492.717 1148.91L495.402 1147.34L500.658 1150.38C501.336 1150.77 502.155 1150.91 503.116 1150.77C504.077 1150.66 505.066 1150.29 506.055 1149.73L507.665 1148.79" fill="black"/>
<path d="M522.119 1140.39L513.769 1135.57L511.975 1136.62L517.118 1139.58C517.626 1139.88 517.909 1140.2 517.98 1140.57C518.05 1140.95 517.923 1141.32 517.598 1141.72C517.273 1142.11 516.793 1142.49 516.171 1142.85C515.295 1143.36 514.405 1143.68 513.473 1143.79C512.554 1143.92 511.735 1143.78 511.014 1143.36L505.659 1140.26L503.865 1141.31L509.488 1144.56C510.096 1144.91 510.816 1145.11 511.622 1145.14C512.441 1145.18 513.275 1145.07 514.151 1144.81C515.027 1144.56 515.889 1144.19 516.736 1143.69C517.584 1143.2 518.191 1142.72 518.615 1142.21C519.039 1141.7 519.237 1141.21 519.223 1140.74L520.381 1141.39L522.119 1140.37" fill="black"/>
<path d="M526.894 1129.17L525.764 1128.52C524.86 1129.06 524.182 1129.62 523.73 1130.22C523.292 1130.81 523.15 1131.33 523.32 1131.81L521.78 1130.92L520.014 1131.95L528.364 1136.77L530.144 1135.74L525.552 1133.08C524.62 1132.55 524.295 1131.95 524.563 1131.29C524.832 1130.63 525.623 1129.92 526.894 1129.18" fill="black"/>
<path d="M548.313 1125.16L542.704 1121.92C542.097 1121.57 541.376 1121.37 540.585 1121.34C539.78 1121.31 538.932 1121.41 538.056 1121.67C537.166 1121.92 536.318 1122.29 535.471 1122.78C534.623 1123.28 534.029 1123.74 533.606 1124.25C533.182 1124.75 532.97 1125.24 532.984 1125.71L531.854 1125.06L530.059 1126.1L538.409 1130.92L540.204 1129.88L535.075 1126.92C534.566 1126.63 534.27 1126.29 534.199 1125.92C534.142 1125.54 534.27 1125.16 534.58 1124.78C534.905 1124.38 535.4 1124 536.036 1123.63C536.912 1123.12 537.802 1122.8 538.72 1122.69C539.638 1122.56 540.444 1122.7 541.178 1123.12L546.533 1126.22L548.328 1125.17" fill="black"/>
<path d="M524.517 1155.61L523.189 1156.39L526.241 1160.7L528.148 1159.59L524.517 1155.61Z" fill="black"/>
<path d="M556.194 1147.81L554.018 1148.5C554.174 1149.29 553.877 1150.13 553.156 1151.02C552.45 1151.89 551.39 1152.74 550.006 1153.55C548.621 1154.35 547.194 1154.96 545.682 1155.38C544.171 1155.81 542.715 1155.99 541.317 1155.92C539.918 1155.86 538.689 1155.53 537.657 1154.93C536.626 1154.34 536.047 1153.63 535.934 1152.81C535.835 1152.01 536.131 1151.16 536.852 1150.28C537.587 1149.41 538.632 1148.57 540.003 1147.77C541.373 1146.96 542.842 1146.34 544.368 1145.93C545.894 1145.52 547.335 1145.34 548.706 1145.42L549.907 1144.17C548.211 1144.04 546.389 1144.24 544.425 1144.76C542.475 1145.28 540.61 1146.06 538.83 1147.09C537.05 1148.12 535.792 1149.15 534.888 1150.24C533.998 1151.33 533.602 1152.39 533.744 1153.39C533.871 1154.4 534.549 1155.26 535.806 1155.99C537.064 1156.73 538.561 1157.12 540.313 1157.19C542.051 1157.26 543.86 1157.04 545.753 1156.51C547.646 1155.99 549.455 1155.23 551.178 1154.21C552.902 1153.19 554.287 1152.11 555.177 1150.96C556.067 1149.83 556.406 1148.76 556.18 1147.78" fill="black"/>
<path d="M560.729 1143.66C560.065 1143.28 559.684 1142.82 559.585 1142.3C559.472 1141.78 559.627 1141.24 560.037 1140.69C560.447 1140.14 561.082 1139.62 561.93 1139.12C562.778 1138.63 563.682 1138.26 564.643 1138.02C565.604 1137.78 566.536 1137.68 567.44 1137.74C568.345 1137.79 569.122 1138.02 569.786 1138.4C570.45 1138.78 570.831 1139.24 570.944 1139.77C571.043 1140.29 570.888 1140.85 570.464 1141.4C570.054 1141.96 569.432 1142.48 568.571 1142.98C567.709 1143.47 566.819 1143.84 565.858 1144.07C564.897 1144.31 563.965 1144.41 563.075 1144.34C562.156 1144.28 561.379 1144.05 560.715 1143.67M571.538 1137.38C570.676 1136.89 569.63 1136.61 568.443 1136.55C567.243 1136.49 565.985 1136.64 564.671 1136.99C563.357 1137.34 562.114 1137.86 560.927 1138.54C559.74 1139.22 558.836 1139.97 558.228 1140.73C557.635 1141.5 557.381 1142.23 557.466 1142.94C557.564 1143.63 558.045 1144.22 558.921 1144.73C559.797 1145.24 560.814 1145.51 562.029 1145.56C563.244 1145.62 564.516 1145.48 565.83 1145.13C567.158 1144.77 568.401 1144.25 569.602 1143.56C570.803 1142.87 571.665 1142.15 572.272 1141.38C572.866 1140.62 573.12 1139.89 573.007 1139.19C572.894 1138.5 572.414 1137.89 571.552 1137.4" fill="black"/>
<path d="M582.741 1135.7L569.503 1128.06L567.709 1129.1L580.947 1136.75L582.741 1135.7Z" fill="black"/>
<path d="M590.795 1131.03L577.556 1123.38L575.748 1124.43L588.986 1132.07L590.795 1131.03Z" fill="black"/>
<path d="M593.62 1124.56C592.97 1124.17 592.603 1123.74 592.504 1123.21C592.405 1122.69 592.575 1122.14 592.985 1121.57C593.38 1121.02 594.016 1120.49 594.85 1120.01C595.683 1119.53 596.573 1119.17 597.562 1118.93C598.551 1118.71 599.498 1118.62 600.402 1118.68C601.306 1118.73 602.069 1118.95 602.677 1119.3C603.284 1119.65 603.638 1120.09 603.751 1120.61C603.849 1121.14 603.708 1121.69 603.313 1122.25C602.917 1122.82 602.309 1123.34 601.462 1123.83C600.614 1124.33 599.724 1124.68 598.763 1124.92C597.788 1125.16 596.856 1125.26 595.937 1125.21C595.033 1125.15 594.256 1124.94 593.62 1124.57M608.54 1120.73L600.19 1115.91L598.396 1116.95L600.176 1117.99C599.145 1117.9 598.028 1118.01 596.828 1118.3C595.627 1118.58 594.525 1119.03 593.479 1119.64C592.434 1120.25 591.586 1120.95 591.021 1121.69C590.47 1122.42 590.258 1123.14 590.371 1123.83C590.498 1124.53 590.978 1125.12 591.826 1125.6C592.674 1126.08 593.691 1126.38 594.878 1126.43C596.079 1126.51 597.308 1126.38 598.58 1126.05C599.865 1125.74 601.052 1125.26 602.14 1124.63C603.228 1123.99 603.934 1123.37 604.429 1122.68C604.909 1121.98 605.093 1121.33 604.952 1120.71L606.774 1121.73L608.526 1120.71" fill="black"/>
<path d="M612.299 1113.7C611.635 1113.32 611.253 1112.87 611.154 1112.35C611.055 1111.83 611.197 1111.29 611.62 1110.72C612.044 1110.17 612.652 1109.65 613.5 1109.15C614.347 1108.66 615.237 1108.31 616.212 1108.07C617.187 1107.83 618.12 1107.73 619.024 1107.78C619.928 1107.84 620.705 1108.05 621.355 1108.42C622.005 1108.79 622.358 1109.24 622.457 1109.76C622.556 1110.29 622.401 1110.84 621.991 1111.39C621.581 1111.95 620.945 1112.48 620.112 1112.96C619.278 1113.44 618.36 1113.82 617.413 1114.06C616.452 1114.3 615.52 1114.4 614.616 1114.34C613.711 1114.28 612.949 1114.06 612.299 1113.69M623.149 1107.39C622.302 1106.89 621.284 1106.63 620.083 1106.56C618.883 1106.48 617.653 1106.61 616.396 1106.92C615.124 1107.25 613.952 1107.71 612.864 1108.35C611.776 1108.99 610.971 1109.64 610.462 1110.31C609.953 1110.99 609.798 1111.63 609.981 1112.23L603.327 1108.39L601.533 1109.44L614.771 1117.08L616.523 1116.06L614.757 1115.02C615.831 1115.13 616.947 1115.05 618.12 1114.76C619.292 1114.47 620.423 1114 621.525 1113.37C622.627 1112.73 623.446 1112.04 623.983 1111.3C624.534 1110.57 624.746 1109.85 624.605 1109.15C624.477 1108.48 623.997 1107.88 623.149 1107.39Z" fill="black"/>
<path d="M629.111 1103.93C628.447 1103.55 628.066 1103.09 627.953 1102.57C627.854 1102.05 627.995 1101.51 628.405 1100.96C628.829 1100.41 629.45 1099.89 630.298 1099.39C631.146 1098.9 632.05 1098.53 633.011 1098.29C633.972 1098.05 634.904 1097.95 635.808 1098.01C636.713 1098.06 637.49 1098.29 638.154 1098.67C638.818 1099.05 639.199 1099.51 639.312 1100.04C639.411 1100.57 639.256 1101.12 638.832 1101.67C638.422 1102.23 637.786 1102.76 636.939 1103.25C636.091 1103.74 635.187 1104.11 634.226 1104.35C633.279 1104.59 632.347 1104.68 631.443 1104.62C630.538 1104.55 629.747 1104.32 629.097 1103.94M639.92 1097.65C639.058 1097.16 638.012 1096.88 636.826 1096.82C635.625 1096.76 634.367 1096.91 633.053 1097.26C631.739 1097.61 630.496 1098.14 629.309 1098.83C628.122 1099.52 627.218 1100.25 626.611 1101C626.003 1101.78 625.763 1102.5 625.848 1103.21C625.947 1103.9 626.427 1104.49 627.303 1105C628.179 1105.51 629.196 1105.78 630.411 1105.84C631.626 1105.89 632.898 1105.75 634.212 1105.4C635.526 1105.04 636.783 1104.52 637.97 1103.84C639.157 1103.16 640.047 1102.43 640.654 1101.67C641.248 1100.9 641.502 1100.17 641.389 1099.48C641.276 1098.79 640.796 1098.18 639.934 1097.68" fill="black"/>
<path d="M647.846 1089.43L646.716 1088.78C645.811 1089.32 645.133 1089.88 644.681 1090.48C644.243 1091.07 644.102 1091.59 644.271 1092.07L642.731 1091.18L640.965 1092.21L649.315 1097.03L651.095 1096L646.504 1093.34C645.571 1092.81 645.246 1092.21 645.515 1091.55C645.783 1090.89 646.574 1090.18 647.846 1089.45" fill="black"/>
<path d="M655.715 1088.47C655.066 1088.09 654.698 1087.65 654.599 1087.13C654.5 1086.61 654.656 1086.05 655.066 1085.5C655.475 1084.94 656.097 1084.42 656.945 1083.94C657.792 1083.46 658.668 1083.1 659.657 1082.86C660.646 1082.64 661.593 1082.55 662.483 1082.61C663.387 1082.66 664.15 1082.86 664.772 1083.22C665.394 1083.57 665.733 1084.01 665.832 1084.53C665.945 1085.05 665.789 1085.6 665.408 1086.17C665.012 1086.73 664.39 1087.26 663.557 1087.75C662.723 1088.24 661.819 1088.6 660.844 1088.84C659.869 1089.08 658.937 1089.18 658.033 1089.12C657.114 1089.06 656.351 1088.85 655.715 1088.49M670.635 1084.64L662.285 1079.82L660.491 1080.87L662.271 1081.9C661.24 1081.82 660.124 1081.93 658.923 1082.21C657.722 1082.49 656.62 1082.95 655.588 1083.54C654.5 1084.18 653.681 1084.85 653.13 1085.6C652.579 1086.34 652.367 1087.06 652.48 1087.75C652.593 1088.44 653.088 1089.04 653.935 1089.52C654.783 1090 655.814 1090.29 657.001 1090.35C658.188 1090.42 659.431 1090.29 660.703 1089.97C661.989 1089.66 663.175 1089.18 664.263 1088.54C665.295 1087.95 666.058 1087.3 666.552 1086.61C667.047 1085.9 667.216 1085.26 667.075 1084.64L668.897 1085.66L670.663 1084.63" fill="black"/>
<path d="M682.419 1077.79L681.458 1077.24L680.271 1077.93C679.72 1078.24 679.155 1078.44 678.562 1078.52C677.968 1078.59 677.474 1078.52 677.064 1078.28L671.921 1075.32L675.015 1073.52L674.069 1072.97L670.975 1074.77L668.573 1073.38L667.061 1074.26C667.796 1074.68 668.248 1075.03 668.417 1075.3C668.601 1075.58 668.545 1075.87 668.248 1076.15C667.965 1076.45 667.386 1076.84 666.524 1077.34L667.471 1077.89L670.155 1076.33L675.411 1079.37C676.089 1079.77 676.909 1079.89 677.884 1079.77C678.844 1079.65 679.833 1079.29 680.822 1078.72L682.433 1077.79" fill="black"/>
<path d="M688.989 1073.96L680.639 1069.14L678.844 1070.19L687.194 1075.01L688.989 1073.96ZM678.025 1067.11C677.785 1066.97 677.446 1066.92 677.022 1066.98C676.584 1067.04 676.188 1067.18 675.821 1067.39C675.454 1067.6 675.242 1067.83 675.129 1068.08C675.044 1068.34 675.114 1068.52 675.355 1068.66C675.595 1068.8 675.92 1068.85 676.358 1068.79C676.796 1068.73 677.205 1068.61 677.559 1068.39C677.912 1068.18 678.152 1067.94 678.251 1067.69C678.336 1067.43 678.265 1067.23 678.025 1067.11Z" fill="black"/>
<path d="M691.828 1067.47C691.164 1067.09 690.783 1066.64 690.67 1066.12C690.557 1065.6 690.712 1065.06 691.122 1064.51C691.546 1063.96 692.167 1063.43 693.015 1062.94C693.863 1062.44 694.767 1062.08 695.728 1061.84C696.689 1061.6 697.621 1061.5 698.525 1061.55C699.429 1061.61 700.207 1061.84 700.871 1062.22C701.535 1062.6 701.916 1063.05 702.029 1063.59C702.142 1064.11 701.987 1064.65 701.563 1065.21C701.153 1065.78 700.517 1066.3 699.67 1066.8C698.822 1067.29 697.918 1067.66 696.957 1067.9C696.01 1068.14 695.064 1068.24 694.174 1068.17C693.269 1068.1 692.478 1067.87 691.828 1067.49M702.651 1061.2C701.789 1060.71 700.758 1060.42 699.557 1060.37C698.356 1060.31 697.098 1060.45 695.798 1060.81C694.484 1061.16 693.227 1061.68 692.054 1062.37C690.882 1063.07 689.963 1063.8 689.356 1064.56C688.762 1065.33 688.508 1066.06 688.607 1066.75C688.706 1067.45 689.186 1068.05 690.048 1068.55C690.91 1069.04 691.941 1069.33 693.171 1069.37C694.386 1069.42 695.657 1069.28 696.971 1068.93C698.285 1068.58 699.543 1068.05 700.729 1067.38C701.916 1066.7 702.806 1065.96 703.414 1065.2C704.007 1064.44 704.247 1063.72 704.134 1063.01C704.035 1062.3 703.541 1061.71 702.679 1061.22" fill="black"/>
<path d="M721.951 1054.82L716.342 1051.58C715.734 1051.23 715.014 1051.03 714.223 1051C713.417 1050.97 712.569 1051.07 711.694 1051.33C710.803 1051.58 709.956 1051.95 709.108 1052.44C708.26 1052.94 707.667 1053.4 707.243 1053.91C706.819 1054.41 706.607 1054.9 706.621 1055.37L705.491 1054.72L703.697 1055.76L712.047 1060.58L713.841 1059.54L708.712 1056.58C708.204 1056.29 707.907 1055.95 707.836 1055.58C707.78 1055.2 707.907 1054.82 708.218 1054.43C708.543 1054.04 709.037 1053.66 709.673 1053.29C710.549 1052.78 711.439 1052.46 712.358 1052.34C713.276 1052.22 714.081 1052.36 714.816 1052.78L720.171 1055.88L721.965 1054.83" fill="black"/>
<path d="M737.874 1045.56L729.524 1040.74L727.729 1041.79L736.079 1046.61L737.874 1045.56ZM726.91 1038.71C726.67 1038.57 726.331 1038.53 725.907 1038.58C725.469 1038.64 725.073 1038.78 724.72 1038.98C724.367 1039.18 724.127 1039.43 724.028 1039.67C723.929 1039.92 723.999 1040.11 724.254 1040.25C724.508 1040.39 724.819 1040.43 725.257 1040.38C725.695 1040.32 726.091 1040.19 726.458 1039.98C726.825 1039.77 727.037 1039.54 727.136 1039.29C727.221 1039.03 727.15 1038.84 726.91 1038.71Z" fill="black"/>
<path d="M750.406 1035.69C749.869 1035.38 749.233 1035.23 748.512 1035.29C747.792 1035.35 747.057 1035.49 746.322 1035.74C745.574 1035.98 744.684 1036.32 743.652 1036.76C742.776 1037.13 742.084 1037.4 741.561 1037.59C741.053 1037.78 740.558 1037.89 740.092 1037.95C739.626 1038 739.23 1037.95 738.919 1037.75C738.453 1037.48 738.382 1037.13 738.707 1036.69C739.004 1036.25 739.527 1035.81 740.261 1035.39C741.038 1034.94 741.83 1034.64 742.649 1034.46C743.469 1034.27 744.189 1034.3 744.825 1034.51L746.111 1033.47C745.235 1033.16 744.189 1033.13 742.974 1033.41C741.773 1033.68 740.558 1034.17 739.343 1034.88C738.538 1035.35 737.888 1035.83 737.393 1036.31C736.885 1036.79 736.63 1037.24 736.574 1037.68C736.531 1038.12 736.757 1038.47 737.266 1038.77C737.746 1039.05 738.312 1039.18 738.961 1039.15C739.597 1039.12 740.261 1039.01 740.925 1038.79C741.589 1038.58 742.395 1038.3 743.327 1037.92L743.836 1037.72C744.782 1037.34 745.545 1037.06 746.082 1036.87C746.633 1036.69 747.128 1036.58 747.58 1036.53C748.032 1036.49 748.428 1036.58 748.753 1036.75C749.233 1037.03 749.318 1037.4 748.979 1037.85C748.654 1038.3 748.089 1038.75 747.311 1039.2C746.393 1039.74 745.475 1040.09 744.571 1040.28C743.652 1040.46 742.875 1040.43 742.239 1040.21L740.939 1041.31C741.547 1041.52 742.268 1041.59 743.059 1041.52C743.864 1041.47 744.712 1041.27 745.616 1040.96C746.506 1040.65 747.396 1040.24 748.286 1039.71C749.176 1039.19 749.812 1038.72 750.335 1038.23C750.858 1037.74 751.14 1037.25 751.197 1036.8C751.253 1036.35 750.999 1035.97 750.462 1035.66" fill="black"/>
<path d="M776.515 1023.1L765.34 1024.33L767.572 1018.62L765.17 1020.02L763.206 1025.46L754.602 1020.5L752.793 1021.54L766.032 1029.19L767.84 1028.14L763.489 1025.63L774.128 1024.48L776.515 1023.1Z" fill="black"/>
<path d="M775.95 1017.7C775.286 1017.11 775.117 1016.46 775.456 1015.72C775.809 1015 776.558 1014.3 777.73 1013.62C778.903 1012.94 780.048 1012.53 781.22 1012.36C782.393 1012.2 783.438 1012.35 784.385 1012.8L775.95 1017.7ZM786.787 1012.08C785.897 1011.57 784.88 1011.27 783.763 1011.2C782.661 1011.13 781.503 1011.26 780.302 1011.6C779.101 1011.92 777.928 1012.42 776.784 1013.08C775.639 1013.74 774.707 1014.49 774.114 1015.24C773.52 1015.99 773.28 1016.71 773.393 1017.4C773.492 1018.1 774 1018.69 774.891 1019.21C775.781 1019.74 776.826 1020.02 778.013 1020.07C779.2 1020.13 780.443 1019.99 781.743 1019.64C783.043 1019.3 784.286 1018.76 785.487 1018.07C786.688 1017.38 787.606 1016.6 788.157 1015.79C788.694 1014.97 788.864 1014.21 788.624 1013.5L786.759 1014.28C786.872 1014.79 786.744 1015.34 786.335 1015.92C785.925 1016.5 785.303 1017.02 784.47 1017.5C783.636 1017.98 782.788 1018.35 781.884 1018.6C780.966 1018.86 780.076 1018.96 779.2 1018.92C778.31 1018.87 777.533 1018.66 776.826 1018.28L787.112 1012.3L786.787 1012.09" fill="black"/>
<path d="M806.722 1006.28L797.736 1001.1L795.942 1002.14L801.057 1005.1C801.565 1005.39 801.848 1005.72 801.918 1006.1C801.989 1006.47 801.848 1006.85 801.537 1007.25C801.212 1007.64 800.746 1008.02 800.11 1008.39C799.234 1008.9 798.33 1009.21 797.411 1009.34C796.493 1009.46 795.674 1009.31 794.953 1008.9L789.627 1005.82L787.832 1006.86L793.427 1010.1C794.035 1010.45 794.755 1010.65 795.561 1010.69C796.366 1010.73 797.199 1010.62 798.075 1010.37C798.951 1010.11 799.813 1009.73 800.647 1009.25C801.48 1008.77 802.102 1008.28 802.526 1007.77C802.95 1007.26 803.148 1006.78 803.133 1006.31L805.055 1007.43C805.818 1007.87 806.072 1008.36 805.86 1008.91C805.634 1009.46 805.055 1010.03 804.08 1010.58C803.105 1011.13 802.215 1011.5 801.339 1011.67C800.477 1011.85 799.601 1011.78 798.725 1011.46L797.539 1012.59C798.528 1012.95 799.658 1013.02 800.958 1012.77C802.257 1012.52 803.614 1011.98 805.041 1011.14C806.595 1010.24 807.542 1009.38 807.895 1008.53C808.234 1007.7 807.838 1006.95 806.722 1006.31" fill="black"/>
<path d="M803.487 993.498L801.594 994.6L805.211 998.57L806.553 997.793L803.487 993.498Z" fill="black"/>
<path d="M822.419 993.921L820.512 995.037L824.129 999.021L825.471 998.244L822.419 993.935M817.969 991.138C817.743 991.01 817.404 990.968 816.966 991.025C816.513 991.081 816.132 991.222 815.779 991.42C815.397 991.632 815.157 991.872 815.072 992.127C814.973 992.381 815.044 992.579 815.27 992.706C815.496 992.833 815.849 992.89 816.287 992.819C816.725 992.762 817.121 992.621 817.502 992.409C817.884 992.197 818.082 991.971 818.181 991.717C818.28 991.463 818.209 991.265 817.969 991.123" fill="black"/>
<path d="M501.603 1201.9L500.812 1201.44C500.035 1201.7 499.399 1201.84 498.876 1201.88C498.354 1201.91 497.901 1201.87 497.478 1201.74C497.068 1201.61 496.602 1201.39 496.065 1201.08L492.278 1198.89C491.897 1198.67 491.445 1198.55 490.908 1198.5C490.371 1198.46 489.82 1198.53 489.241 1198.69C488.661 1198.84 488.082 1199.07 487.531 1199.38L486.486 1199.99L487.277 1200.44L488.011 1200.02C488.52 1199.72 489.029 1199.58 489.523 1199.56C490.004 1199.56 490.484 1199.69 490.922 1199.95L494.68 1202.11C495.146 1202.38 495.599 1202.57 496.036 1202.7C496.474 1202.83 497.011 1202.88 497.647 1202.86C498.283 1202.81 499.046 1202.67 499.908 1202.42C499.456 1202.91 499.201 1203.35 499.145 1203.72C499.102 1204.09 499.187 1204.4 499.413 1204.65C499.653 1204.9 499.993 1205.17 500.459 1205.44L504.231 1207.62C504.683 1207.87 504.895 1208.14 504.881 1208.41C504.867 1208.68 504.584 1208.96 504.062 1209.27L503.327 1209.69L504.132 1210.16L505.178 1209.55C505.729 1209.24 506.124 1208.9 506.393 1208.56C506.661 1208.22 506.76 1207.9 506.689 1207.59C506.633 1207.29 506.421 1207.02 506.054 1206.81L502.225 1204.61C501.688 1204.3 501.306 1204.03 501.08 1203.79C500.868 1203.55 500.784 1203.29 500.854 1203C500.925 1202.7 501.179 1202.32 501.603 1201.87" fill="black"/>
<g clip-path="url(#clip4_171_1323)">
<mask id="mask2_171_1323" style="mask-type:luminance" maskUnits="userSpaceOnUse" x="460" y="830" width="159" height="92">
<path d="M460 877.333L541.544 830L619 874.667L537.456 922L460 877.333Z" fill="white"/>
</mask>
<g mask="url(#mask2_171_1323)">
<path d="M499.816 880.962L495.066 881.586C496.353 882.833 497.034 883.986 497.091 885.064C497.148 886.122 496.599 886.992 495.445 887.672C494.385 888.296 493.023 888.618 491.376 888.655C489.711 888.693 487.875 888.41 485.869 887.805C483.863 887.219 481.819 886.311 479.757 885.121C477.694 883.93 476.161 882.758 475.12 881.605C474.098 880.452 473.587 879.393 473.663 878.429C473.701 877.465 474.269 876.671 475.329 876.066C476.483 875.405 477.978 875.064 479.832 875.102C481.687 875.121 483.693 875.518 485.831 876.255L486.891 873.495C484.734 872.739 482.614 872.21 480.552 871.926C478.508 871.643 476.596 871.624 474.874 871.832C473.133 872.059 471.657 872.512 470.446 873.231C468.781 874.195 467.891 875.423 467.797 876.898C467.683 878.372 468.383 879.979 469.897 881.718C471.411 883.457 473.644 885.196 476.653 886.916C479.662 888.636 482.652 889.941 485.68 890.81C488.689 891.68 491.471 892.077 494.025 892.001C496.58 891.944 498.7 891.434 500.365 890.47C501.595 889.752 502.39 888.901 502.768 887.899C503.128 886.897 503.09 885.801 502.598 884.61C502.106 883.419 501.179 882.191 499.835 880.943" fill="black"/>
<path d="M503.544 876.217C502.257 875.48 501.254 874.705 500.535 873.949C499.835 873.193 499.476 872.512 499.457 871.889C499.457 871.265 499.759 870.754 500.422 870.376C501.084 869.998 501.993 869.79 503.071 869.79C504.169 869.79 505.361 869.998 506.667 870.395C507.973 870.811 509.297 871.378 510.584 872.134C511.871 872.89 512.912 873.647 513.612 874.403C514.312 875.178 514.672 875.858 514.691 876.501C514.691 877.125 514.369 877.635 513.669 878.032C512.968 878.429 512.117 878.618 511.038 878.599C509.96 878.599 508.767 878.391 507.443 877.975C506.156 877.559 504.831 876.992 503.525 876.217M513.555 870.395C511.398 869.148 509.222 868.221 507.045 867.617C504.888 867.012 502.882 866.747 501.027 866.823C499.192 866.898 497.64 867.295 496.372 868.051C495.104 868.807 494.423 869.677 494.29 870.736C494.177 871.813 494.631 872.966 495.691 874.214C496.751 875.461 498.359 876.709 500.535 877.956C502.712 879.204 504.907 880.149 507.083 880.773C509.259 881.378 511.284 881.642 513.12 881.567C514.956 881.491 516.507 881.094 517.756 880.376C519.005 879.658 519.705 878.731 519.838 877.673C519.97 876.614 519.497 875.442 518.419 874.195C517.359 872.947 515.75 871.681 513.536 870.414" fill="black"/>
<path d="M530.795 872.342L499.608 854.347L496.58 856.086L527.786 874.081L530.795 872.342Z" fill="black"/>
<path d="M538.592 867.806L507.405 849.81L504.377 851.568L535.583 869.564L538.592 867.806Z" fill="black"/>
<path d="M535.242 857.882C533.955 857.144 532.952 856.388 532.271 855.651C531.609 854.914 531.268 854.214 531.268 853.61C531.268 853.005 531.59 852.494 532.233 852.116C532.877 851.738 533.766 851.549 534.826 851.568C535.904 851.568 537.097 851.776 538.365 852.173C539.632 852.57 540.919 853.118 542.187 853.836C543.455 854.555 544.42 855.292 545.083 856.029C545.783 856.766 546.123 857.466 546.123 858.071C546.142 858.694 545.821 859.205 545.177 859.583C544.534 859.961 543.682 860.15 542.622 860.15C541.563 860.15 540.389 859.961 539.084 859.564C537.797 859.186 536.51 858.619 535.204 857.863M555.188 858.127L534.618 846.256L531.609 847.995L534.58 849.716C533.16 849.319 531.798 849.148 530.511 849.205C529.205 849.262 528.146 849.545 527.275 850.056C526.215 850.661 525.685 851.492 525.667 852.494C525.667 853.515 526.196 854.649 527.294 855.878C528.41 857.125 530.038 858.354 532.176 859.602C534.315 860.849 536.472 861.794 538.629 862.418C540.768 863.061 542.717 863.382 544.477 863.363C546.237 863.344 547.656 863.042 548.716 862.418C549.605 861.908 550.079 861.265 550.154 860.49C550.249 859.715 549.908 858.921 549.151 858.071L552.293 859.791L555.169 858.127" fill="black"/>
<path d="M552.52 847.863C551.195 847.107 550.211 846.37 549.549 845.613C548.867 844.876 548.546 844.196 548.546 843.591C548.546 842.986 548.867 842.476 549.511 842.098C550.154 841.72 551.025 841.53 552.085 841.53C553.125 841.53 554.318 841.72 555.585 842.116C556.872 842.495 558.159 843.081 559.465 843.818C560.771 844.555 561.755 845.311 562.436 846.048C563.117 846.785 563.458 847.466 563.458 848.09C563.458 848.695 563.136 849.186 562.474 849.583C561.811 849.98 560.96 850.15 559.919 850.15C558.859 850.15 557.686 849.961 556.418 849.564C555.131 849.186 553.844 848.619 552.539 847.844M562.493 842.06C560.335 840.812 558.197 839.886 556.04 839.243C553.901 838.601 551.952 838.298 550.192 838.298C548.432 838.298 547.032 838.619 545.972 839.243C545.102 839.754 544.591 840.377 544.458 841.096C544.326 841.833 544.61 842.608 545.329 843.421L531.817 835.633L528.808 837.372L560.014 855.367L562.871 853.704L559.938 851.908C561.414 852.362 562.777 852.551 564.101 852.475C565.407 852.419 566.524 852.116 567.413 851.606C568.473 850.982 569.003 850.169 569.022 849.148C569.022 848.128 568.492 847.012 567.375 845.765C566.278 844.536 564.631 843.288 562.493 842.041" fill="black"/>
<path d="M552.047 912.983L546.483 909.769L535.98 915.875L522.317 896.122L517.321 893.229L502.617 901.774L508.143 904.968L518.438 898.976L532.101 918.786L537.078 921.659L552.047 912.983Z" fill="black"/>
<path d="M541.411 899.184C538.97 897.785 537.153 896.387 535.923 895.007C534.693 893.627 534.107 892.379 534.182 891.245C534.239 890.111 534.901 889.185 536.169 888.447C537.437 887.71 539.027 887.332 540.995 887.294C542.963 887.256 545.12 887.597 547.524 888.296C549.908 888.996 552.312 890.054 554.753 891.453C557.194 892.852 559.049 894.269 560.26 895.649C561.471 897.029 562.076 898.296 562.02 899.43C561.963 900.564 561.301 901.49 560.052 902.228C558.803 902.965 557.175 903.343 555.226 903.381C553.258 903.418 551.063 903.078 548.697 902.379C546.294 901.679 543.89 900.621 541.43 899.203M558.443 889.317C554.885 887.275 551.346 885.744 547.751 884.705C544.174 883.665 540.881 883.211 537.873 883.287C534.864 883.363 532.366 883.967 530.398 885.12C528.429 886.274 527.37 887.71 527.237 889.449C527.124 891.207 527.937 893.097 529.735 895.158C531.533 897.218 534.182 899.279 537.721 901.32C541.26 903.362 544.856 904.893 548.413 905.932C551.99 906.953 555.302 907.445 558.329 907.369C561.357 907.293 563.836 906.689 565.823 905.535C567.81 904.382 568.832 902.946 568.946 901.207C569.059 899.449 568.227 897.54 566.429 895.479C564.65 893.419 561.982 891.358 558.424 889.298" fill="black"/>
<path d="M597.843 886.387L563.363 866.501L559.673 868.656L584.899 883.211L550.854 873.779L546.691 876.179L581.171 896.065L584.842 893.929L559.408 879.279L593.642 888.844L597.843 886.387Z" fill="black"/>
<path d="M616.124 875.782L610.56 872.588L602.725 877.124L593.812 871.983L600.738 867.956L595.25 864.8L588.324 868.807L579.335 863.628L587.17 859.091L581.644 855.896L570.081 862.607L604.561 882.493L616.124 875.782Z" fill="black"/>
</g>
</g>
<defs>
<clipPath id="clip0_171_1323">
<rect width="93" height="171" fill="white" transform="translate(844 791)"/>
</clipPath>
<clipPath id="clip1_171_1323">
<rect width="329" height="149" fill="white" transform="translate(60 716)"/>
</clipPath>
<clipPath id="clip2_171_1323">
<rect width="116.57" height="272.17" fill="white" transform="translate(20 203)"/>
</clipPath>
<clipPath id="clip3_171_1323">
<rect width="81.42" height="87.91" fill="white" transform="translate(42 529)"/>
</clipPath>
<clipPath id="clip4_171_1323">
<rect width="159" height="92" fill="white" transform="translate(460 830)"/>
</clipPath>
</defs>
</svg>
