<svg width="100%" height="100%" viewBox="65 -65 1235 1108" fill="none" xmlns="http://www.w3.org/2000/svg">
    <path d="M1233.39 889.43L1219.26 881.315L1094.1 953.102L1108.24 961.222L1233.39 889.43Z" fill="#FFF6D7"/>
    <path d="M1108.24 961.222L1094.1 953.102L1094.1 1098.1L1108.24 1106.21L1108.24 961.222Z" fill="#FFF6D7"/>
    <path d="M1233.4 889.43L1108.24 961.222L1108.24 1106.21L1233.4 1034.42L1233.4 889.43Z" fill="#FFF6D7"/>
    <path fill-rule="evenodd" clip-rule="evenodd" d="M1219.26 880.45L1233.4 888.568L1234.15 888.135V889L1234.9 889.431L1234.15 889.861L1234.15 1034.85L1108.24 1107.07L1093.35 1098.53L1093.35 952.667L1219.26 880.45ZM1108.24 960.357L1231.89 889.43L1219.26 882.18L1095.6 953.102L1108.24 960.357ZM1094.85 954.397L1094.85 1097.66L1107.49 1104.91L1107.49 961.656L1094.85 954.397ZM1108.99 961.656L1108.99 1104.91L1232.65 1033.98L1232.65 890.725L1108.99 961.656Z" fill="black"/>
    <path d="M1233.39 744.427L1219.26 736.312L1094.1 808.099L1108.24 816.219L1233.39 744.427Z" fill="#FFF6D7"/>
    <path d="M1108.24 816.219L1094.1 808.099L1094.1 953.095L1108.24 961.202L1108.24 816.219Z" fill="#FFF6D7"/>
    <path d="M1233.4 744.427L1108.24 816.219L1108.24 961.202L1233.4 889.416L1233.4 744.427Z" fill="#FFF6D7"/>
    <path fill-rule="evenodd" clip-rule="evenodd" d="M1219.26 735.447L1233.4 743.565L1234.15 743.133V743.997L1234.9 744.428L1234.15 744.858L1234.15 889.85L1108.24 962.067L1093.35 953.53L1093.35 807.664L1219.26 735.447ZM1108.24 815.354L1231.89 744.427L1219.26 737.177L1095.6 808.099L1108.24 815.354ZM1094.85 809.394L1094.85 952.661L1107.49 959.908L1107.49 816.653L1094.85 809.394ZM1108.99 816.653L1108.99 959.907L1232.65 888.981L1232.65 745.722L1108.99 816.653Z" fill="black"/>
    <path d="M718.36 159.5L718.32 175.8L593.57 248.3L593.61 231.99L718.36 159.5Z" fill="#FFF6D7"/>
    <path d="M593.61 231.99L593.57 248.3L468 175.8L468.05 159.5L593.61 231.99Z" fill="#FFF6D7"/>
    <path d="M718.36 159.5L593.61 231.99L468.05 159.5L592.8 87L718.36 159.5Z" fill="#FFF6D7"/>
    <path fill-rule="evenodd" clip-rule="evenodd" d="M592.799 86.1333L719.111 159.068L719.069 176.232L593.571 249.167L467.249 176.232L467.301 159.068L592.799 86.1333ZM592.801 87.8668L469.546 159.498L593.609 231.123L716.864 159.502L592.801 87.8668ZM717.607 160.805L594.359 232.422L594.323 246.995L717.571 175.368L717.607 160.805ZM592.823 247.003L592.859 232.422L468.796 160.797L468.751 175.368L592.823 247.003Z" fill="black"/>
    <path d="M594.36 231.5L594.32 247.8L469.57 320.3L469.61 303.99L594.36 231.5Z" fill="#FFF6D7"/>
    <path d="M469.61 303.99L469.57 320.3L344 247.8L344.05 231.5L469.61 303.99Z" fill="#FFF6D7"/>
    <path d="M594.36 231.5L469.61 303.99L344.05 231.5L468.8 159L594.36 231.5Z" fill="#FFF6D7"/>
    <path fill-rule="evenodd" clip-rule="evenodd" d="M468.799 158.133L595.111 231.068L595.069 248.232L469.571 321.167L343.249 248.232L343.301 231.068L468.799 158.133ZM468.801 159.867L345.546 231.498L469.609 303.123L592.864 231.502L468.801 159.867ZM593.607 232.805L470.359 304.422L470.323 318.995L593.571 247.368L593.607 232.805ZM468.823 319.003L468.859 304.422L344.796 232.797L344.751 247.368L468.823 319.003Z" fill="black"/>
    <path d="M470.36 303.5L470.32 319.8L345.57 392.3L345.61 375.99L470.36 303.5Z" fill="#FFF6D7"/>
    <path d="M345.61 375.99L345.57 392.3L220 319.8L220.05 303.5L345.61 375.99Z" fill="#FFF6D7"/>
    <path d="M470.36 303.5L345.61 375.99L220.05 303.5L344.8 231L470.36 303.5Z" fill="#FFF6D7"/>
    <path fill-rule="evenodd" clip-rule="evenodd" d="M344.799 230.133L471.111 303.068L471.069 320.232L345.571 393.167L219.249 320.232L219.301 303.068L344.799 230.133ZM344.801 231.867L221.546 303.498L345.609 375.123L468.864 303.502L344.801 231.867ZM469.607 304.805L346.359 376.422L346.323 390.995L469.571 319.368L469.607 304.805ZM344.823 391.003L344.859 376.422L220.796 304.797L220.751 319.368L344.823 391.003Z" fill="black"/>
    <path d="M346.36 375.5L346.32 391.8L221.57 464.3L221.61 447.99L346.36 375.5Z" fill="#FFF6D7"/>
    <path d="M221.61 447.99L221.57 464.3L96 391.8L96.05 375.5L221.61 447.99Z" fill="#FFF6D7"/>
    <path d="M346.36 375.5L221.61 447.99L96.05 375.5L220.8 303L346.36 375.5Z" fill="#FFF6D7"/>
    <path fill-rule="evenodd" clip-rule="evenodd" d="M220.799 302.133L347.111 375.068L347.069 392.232L221.571 465.167L95.2485 392.232L95.3012 375.068L220.799 302.133ZM220.801 303.867L97.5462 375.498L221.609 447.123L344.864 375.502L220.801 303.867ZM345.607 376.805L222.359 448.422L222.323 462.995L345.571 391.368L345.607 376.805ZM220.823 463.003L220.859 448.422L96.7959 376.797L96.7512 391.368L220.823 463.003Z" fill="black"/>
    <path d="M1.0001 463.6C0.970098 474.04 7.8601 484.5 21.6601 492.46L97.5701 536.29L97.6101 519.99L21.7101 476.17C7.9101 468.2 1.0201 457.74 1.0501 447.3L1.0001 463.6Z" fill="#FFF6D7"/>
    <path fill-rule="evenodd" clip-rule="evenodd" d="M1.77402 455.803L1.75009 463.602C1.75009 463.602 1.75009 463.602 1.75009 463.602C1.7212 473.679 8.37216 483.93 22.0348 491.81L96.8233 534.993L96.859 520.422L21.3351 476.82C11.0874 470.901 4.52027 463.566 1.77402 455.803ZM0.250101 463.598C0.219057 474.401 7.348 485.07 21.2851 493.11C21.285 493.109 21.2852 493.11 21.2851 493.11L98.3169 537.587L98.3612 519.558L22.0852 475.521C22.0852 475.521 22.0852 475.521 22.0852 475.521C8.42225 467.63 1.7712 457.379 1.80009 447.302C1.80009 447.302 1.80009 447.302 1.80009 447.302L0.3001 447.298L0.250101 463.598Z" fill="black"/>
    <path d="M222.36 447.49L222.31 463.8L97.5703 536.29L97.6103 519.99L222.36 447.49Z" fill="#FFF6D7"/>
    <path fill-rule="evenodd" clip-rule="evenodd" d="M223.114 446.184L223.059 464.232L96.8169 537.595L96.8612 519.558L223.114 446.184ZM98.359 520.422L98.3233 534.985L221.561 463.368L221.606 448.796L98.359 520.422Z" fill="black"/>
    <path d="M222.36 447.49L97.62 519.98L21.71 476.16C-5.71003 460.33 -5.86003 434.66 21.39 418.82L96.8 375L222.36 447.49Z" fill="#FFF6D7"/>
    <path fill-rule="evenodd" clip-rule="evenodd" d="M96.7988 374.133L223.856 447.488L97.6212 520.847L21.335 476.81C7.4889 468.816 0.359521 458.234 0.298732 447.498C0.237931 436.76 7.24985 426.172 21.0131 418.172L96.7988 374.133ZM96.8012 375.867L21.7669 419.468C21.7668 419.468 21.7669 419.468 21.7669 419.468C8.28016 427.308 1.74201 437.475 1.79871 447.49C1.85542 457.506 8.51106 467.674 22.085 475.51L97.6187 519.113L220.864 447.492L96.8012 375.867Z" fill="black"/>
    <path d="M347.36 519.5L347.32 535.8L222.57 608.3L222.61 591.99L347.36 519.5Z" fill="#FFF6D7"/>
    <path d="M222.61 591.99L222.57 608.3L97 535.8L97.05 519.5L222.61 591.99Z" fill="#FFF6D7"/>
    <path d="M347.36 519.5L222.61 591.99L97.05 519.5L221.8 447L347.36 519.5Z" fill="#FFF6D7"/>
    <path fill-rule="evenodd" clip-rule="evenodd" d="M221.799 446.133L348.111 519.068L348.069 536.232L222.571 609.167L96.2485 536.232L96.3012 519.068L221.799 446.133ZM221.801 447.867L98.5462 519.498L222.609 591.123L345.864 519.502L221.801 447.867ZM346.607 520.805L223.359 592.422L223.323 606.995L346.571 535.368L346.607 520.805ZM221.823 607.003L221.859 592.422L97.7959 520.797L97.7512 535.368L221.823 607.003Z" fill="black"/>
    <path d="M472.36 591.5L472.32 607.8L347.57 680.3L347.61 663.99L472.36 591.5Z" fill="#FFF6D7"/>
    <path d="M347.61 663.99L347.57 680.3L222 607.8L222.05 591.5L347.61 663.99Z" fill="#FFF6D7"/>
    <path d="M472.36 591.5L347.61 663.99L222.05 591.5L346.8 519L472.36 591.5Z" fill="#FFF6D7"/>
    <path fill-rule="evenodd" clip-rule="evenodd" d="M346.799 518.133L473.111 591.068L473.069 608.232L347.571 681.167L221.249 608.232L221.301 591.068L346.799 518.133ZM346.801 519.867L223.546 591.498L347.609 663.123L470.864 591.502L346.801 519.867ZM471.607 592.805L348.359 664.422L348.323 678.995L471.571 607.368L471.607 592.805ZM346.823 679.003L346.859 664.422L222.796 592.797L222.751 607.368L346.823 679.003Z" fill="black"/>
    <path d="M1218.36 592.5L1218.32 608.8L1093.57 681.3L1093.61 664.99L1218.36 592.5Z" fill="#FFF6D7"/>
    <path d="M1093.61 664.99L1093.57 681.3L968 608.8L968.05 592.5L1093.61 664.99Z" fill="#FFF6D7"/>
    <path d="M1218.36 592.5L1093.61 664.99L968.05 592.5L1092.8 520L1218.36 592.5Z" fill="#FFF6D7"/>
    <path fill-rule="evenodd" clip-rule="evenodd" d="M1092.8 519.133L1219.11 592.068L1219.07 609.232L1093.57 682.167L967.249 609.232L967.301 592.068L1092.8 519.133ZM1092.8 520.867L969.546 592.498L1093.61 664.123L1216.86 592.502L1092.8 520.867ZM1217.61 593.805L1094.36 665.422L1094.32 679.995L1217.57 608.368L1217.61 593.805ZM1092.82 680.003L1092.86 665.422L968.796 593.797L968.751 608.368L1092.82 680.003Z" fill="black"/>
    <path d="M596.36 663.5L596.32 679.8L471.57 752.3L471.61 735.99L596.36 663.5Z" fill="#FFF6D7"/>
    <path d="M471.61 735.99L471.57 752.3L346 679.8L346.05 663.5L471.61 735.99Z" fill="#FFF6D7"/>
    <path d="M596.36 663.5L471.61 735.99L346.05 663.5L470.8 591L596.36 663.5Z" fill="#FFF6D7"/>
    <path fill-rule="evenodd" clip-rule="evenodd" d="M470.799 590.133L597.111 663.068L597.069 680.232L471.571 753.167L345.249 680.232L345.301 663.068L470.799 590.133ZM470.801 591.867L347.546 663.498L471.609 735.123L594.864 663.502L470.801 591.867ZM595.607 664.805L472.359 736.422L472.323 750.995L595.571 679.368L595.607 664.805ZM470.823 751.003L470.859 736.422L346.796 664.797L346.751 679.368L470.823 751.003Z" fill="black"/>
    <path d="M1096.36 663.527L1096.32 679.827L971.57 752.327L971.61 736.017L1096.36 663.527Z" fill="#FFF6D7"/>
    <path d="M971.61 736.017L971.57 752.327L846 679.827L846.05 663.527L971.61 736.017Z" fill="#FFF6D7"/>
    <path d="M1096.36 663.527L971.61 736.017L846.05 663.527L970.8 591.027L1096.36 663.527Z" fill="#FFF6D7"/>
    <path fill-rule="evenodd" clip-rule="evenodd" d="M970.799 590.161L1097.11 663.095L1097.07 680.26L971.571 753.194L845.249 680.26L845.301 663.095L970.799 590.161ZM970.801 591.894L847.546 663.525L971.609 735.151L1094.86 663.529L970.801 591.894ZM1095.61 664.833L972.359 736.45L972.323 751.022L1095.57 679.395L1095.61 664.833ZM970.823 751.03L970.859 736.45L846.796 664.824L846.751 679.395L970.823 751.03Z" fill="black"/>
    <path d="M1233.39 600.4L1219.26 592.285L1094.1 664.071L1108.24 672.192L1233.39 600.4Z" fill="#FFF6D7"/>
    <path d="M1108.24 672.192L1094.1 664.071L1094.1 809.068L1108.24 817.175L1108.24 672.192Z" fill="#FFF6D7"/>
    <path d="M1233.39 600.4L1108.24 672.192L1108.24 817.175L1233.4 745.388L1233.39 600.4Z" fill="#FFF6D7"/>
    <path fill-rule="evenodd" clip-rule="evenodd" d="M1219.26 591.42L1234.14 599.966L1234.15 745.823L1108.24 818.039L1093.35 809.503L1093.35 663.637L1219.26 591.42ZM1094.85 665.367L1094.85 808.634L1107.49 815.88L1107.49 672.626L1094.85 665.367ZM1108.99 672.626L1108.99 815.88L1232.65 744.954L1232.64 601.695L1108.99 672.626ZM1231.89 600.4L1108.24 671.327L1095.6 664.072L1219.26 593.149L1231.89 600.4Z" fill="black"/>
    <path d="M722.36 735.5L722.32 751.8L597.57 824.3L597.61 807.99L722.36 735.5Z" fill="#FFF6D7"/>
    <path d="M597.61 807.99L597.57 824.3L472 751.8L472.05 735.5L597.61 807.99Z" fill="#FFF6D7"/>
    <path d="M722.36 735.5L597.61 807.99L472.05 735.5L596.8 663L722.36 735.5Z" fill="#FFF6D7"/>
    <path fill-rule="evenodd" clip-rule="evenodd" d="M596.799 662.133L723.111 735.068L723.069 752.232L597.571 825.167L471.249 752.232L471.301 735.068L596.799 662.133ZM596.801 663.867L473.546 735.498L597.609 807.123L720.864 735.502L596.801 663.867ZM721.607 736.805L598.359 808.422L598.323 822.995L721.571 751.368L721.607 736.805ZM596.823 823.003L596.859 808.422L472.796 736.797L472.751 751.368L596.823 823.003Z" fill="black"/>
    <path d="M972.36 735.527L972.32 751.827L847.57 824.327L847.61 808.017L972.36 735.527Z" fill="#FFF6D7"/>
    <path d="M847.61 808.017L847.57 824.327L722 751.827L722.05 735.527L847.61 808.017Z" fill="#FFF6D7"/>
    <path d="M972.36 735.527L847.61 808.017L722.05 735.527L846.8 663.027L972.36 735.527Z" fill="#FFF6D7"/>
    <path fill-rule="evenodd" clip-rule="evenodd" d="M846.799 662.161L973.111 735.095L973.069 752.26L847.571 825.194L721.249 752.26L721.301 735.095L846.799 662.161ZM846.801 663.894L723.546 735.525L847.609 807.151L970.864 735.529L846.801 663.894ZM971.607 736.833L848.359 808.45L848.323 823.022L971.571 751.395L971.607 736.833ZM846.823 823.03L846.859 808.45L722.796 736.824L722.751 751.395L846.823 823.03Z" fill="black"/>
    <path d="M847.36 808.5L847.32 824.8L722.57 897.3L722.61 880.99L847.36 808.5Z" fill="#FFF6D7"/>
    <path d="M722.61 880.99L722.57 897.3L597 824.8L597.05 808.5L722.61 880.99Z" fill="#FFF6D7"/>
    <path d="M847.36 808.5L722.61 880.99L597.05 808.5L721.8 736L847.36 808.5Z" fill="#FFF6D7"/>
    <path fill-rule="evenodd" clip-rule="evenodd" d="M721.799 735.133L848.111 808.068L848.069 825.232L722.571 898.167L596.249 825.232L596.301 808.068L721.799 735.133ZM721.801 736.867L598.546 808.498L722.609 880.123L845.864 808.502L721.801 736.867ZM846.607 809.805L723.359 881.422L723.323 895.995L846.571 824.368L846.607 809.805ZM721.823 896.003L721.859 881.422L597.796 809.797L597.751 824.368L721.823 896.003Z" fill="black"/>
    <path fill-rule="evenodd" clip-rule="evenodd" d="M1173.13 896.818L1173.13 896.817C1183.05 891.128 1192.12 881.308 1198.7 869.963C1205.29 858.616 1209.29 845.931 1209.25 834.622C1209.22 823.305 1205.19 815.888 1199.27 812.533C1193.34 809.173 1184.81 809.486 1174.88 815.183C1164.97 820.872 1155.9 830.686 1149.31 842.025C1142.73 853.366 1138.73 866.045 1138.77 877.354C1138.8 888.67 1142.83 896.094 1148.76 899.455C1154.69 902.821 1163.22 902.513 1173.13 896.818ZM1136.77 877.36C1136.7 853.864 1153.31 825.256 1173.89 813.448C1194.47 801.64 1211.18 811.12 1211.25 834.616C1211.32 858.112 1194.71 886.744 1174.13 898.552C1153.58 910.36 1136.84 900.856 1136.77 877.36Z" fill="black"/>
    <path d="M1210.41 817.097C1208.97 821.227 1205.37 824.753 1202.4 824.988C1199.42 825.223 1198.16 822.033 1199.59 817.903C1201.03 813.773 1204.63 810.247 1207.6 810.012C1210.58 809.777 1211.84 812.967 1210.41 817.097Z" fill="#FFBABA"/>
    <path d="M1166.13 821.175C1165.16 823.903 1162.77 826.246 1160.77 826.374C1158.76 826.503 1157.92 824.417 1158.89 821.689C1159.86 818.961 1162.25 816.618 1164.25 816.49C1166.26 816.361 1167.1 818.447 1166.13 821.175Z" fill="black"/>
    <path d="M1160.57 826.888C1159.76 826.888 1159.09 826.567 1158.63 825.957C1157.86 824.962 1157.79 823.358 1158.44 821.528C1159.47 818.576 1162.03 816.169 1164.22 816.008C1165.13 815.944 1165.9 816.265 1166.39 816.907C1167.16 817.902 1167.23 819.506 1166.58 821.336C1165.55 824.288 1162.99 826.695 1160.8 826.856C1160.73 826.856 1160.64 826.856 1160.57 826.856V826.888ZM1164.42 816.971C1162.48 817.099 1160.22 819.346 1159.31 821.849C1158.8 823.325 1158.83 824.641 1159.38 825.379C1159.67 825.765 1160.12 825.957 1160.7 825.925C1162.48 825.797 1164.74 823.55 1165.64 821.047C1166.16 819.57 1166.13 818.255 1165.58 817.516C1165.29 817.163 1164.9 816.971 1164.42 816.971Z" fill="black"/>
    <path d="M1147.41 855.106C1145.97 859.244 1142.38 862.758 1139.4 862.988C1136.43 863.218 1135.15 860.032 1136.59 855.894C1138.03 851.756 1141.62 848.242 1144.6 848.012C1147.57 847.782 1148.85 850.968 1147.41 855.106Z" fill="#EC5212"/>
    <g clip-path="url(#clip0_133_12470)">
    <path d="M1173.78 883.23L1173.08 882.82L1172.97 843.18L1173.67 843.59L1173.78 883.23Z" fill="black"/>
    <path d="M1174.03 833.16L1173.33 832.75L1181.56 828L1182.26 828.41L1174.03 833.16Z" fill="black"/>
    <path d="M1163.7 849.8L1163 849.39L1173.33 832.75L1174.03 833.16L1163.7 849.8Z" fill="black"/>
    <path d="M1163.73 860L1163.03 859.6L1163 849.39L1163.7 849.8L1163.73 860Z" fill="black"/>
    <path d="M1182.26 828.41L1182.4 878.25L1173.78 883.23L1173.67 843.59L1163.73 860L1163.7 849.8L1174.03 833.16L1182.26 828.41Z" fill="black"/>
    </g>
    <g clip-path="url(#clip1_133_12470)">
    <path d="M631.189 200L648.59 189.948V188.453L631.189 198.505V200Z" fill="#338C77"/>
    <path d="M624.553 196.158L631.189 200V198.505L624.553 194.663V196.158Z" fill="#B2E1D6"/>
    <path d="M631.189 198.505L648.59 188.453L641.932 184.611L624.553 194.663L631.189 198.505Z" fill="#41B383"/>
    <path d="M646.951 189.387L640.75 192.98H636.001V189.387H646.951Z" fill="#338C77"/>
    <path d="M634.591 147.394C635.69 148.017 637.453 148.017 638.552 147.394C639.651 146.771 639.651 145.732 638.552 145.109C637.453 144.486 635.69 144.486 634.591 145.109C633.492 145.732 633.492 146.771 634.591 147.394Z" fill="#338C77"/>
    <path d="M633.761 146.231V191.444C633.761 191.859 634.031 192.274 634.591 192.607C635.69 193.23 637.453 193.23 638.552 192.607C639.091 192.295 639.361 191.88 639.382 191.485V146.272C639.382 146.688 639.112 147.082 638.552 147.394C637.453 148.017 635.69 148.017 634.591 147.394C634.031 147.082 633.761 146.646 633.761 146.231Z" fill="url(#paint0_linear_133_12470)"/>
    <path d="M529.814 141.391L547.194 131.339V129.823L529.814 139.875V141.391Z" fill="#338C77"/>
    <path d="M523.157 137.549L529.814 141.391V139.875L523.157 136.033V137.549Z" fill="#B2E1D6"/>
    <path d="M529.814 139.875L547.194 129.823L540.557 125.981L523.157 136.033L529.814 139.875Z" fill="#41B383"/>
    <path d="M545.576 130.779L539.354 134.372H534.605V130.779H545.576Z" fill="#338C77"/>
    <path d="M533.195 88.785C534.294 89.4081 536.057 89.4081 537.156 88.785C538.255 88.162 538.255 87.1235 537.156 86.5005C536.057 85.8774 534.294 85.8774 533.195 86.5005C532.095 87.1235 532.095 88.162 533.195 88.785Z" fill="#338C77"/>
    <path d="M532.386 87.6221V132.835C532.386 133.25 532.655 133.666 533.215 133.998C534.315 134.621 536.077 134.621 537.177 133.998C537.716 133.686 537.985 133.271 538.006 132.876V87.6636C538.006 88.079 537.737 88.4736 537.177 88.7851C536.077 89.4082 534.315 89.4082 533.215 88.7851C532.655 88.4736 532.386 88.0374 532.386 87.6221Z" fill="url(#paint1_linear_133_12470)"/>
    <path d="M646.495 165.151L650 163.136V72.5442L646.495 74.5795V165.151Z" fill="#338C77"/>
    <path d="M521 92.6065L646.495 165.151V74.5795L521 2.0354V92.6065Z" fill="#B2E1D6"/>
    <path d="M644.421 75.7839L523.074 5.62817V91.4018L644.421 161.558V75.7839Z" fill="#41B383"/>
    <path d="M646.495 74.5794L650 72.5441L524.505 0L521 2.03531L646.495 74.5794Z" fill="#41B383"/>
    <path d="M542.756 49.2418C544.083 50.0103 545.348 50.9656 546.551 52.1079C547.754 53.2502 548.791 54.5586 549.662 56.0747C550.512 57.57 551.093 59.2107 551.363 60.9552L546.095 59.3976C545.95 58.2346 545.639 57.2377 545.141 56.4485C544.643 55.6385 543.979 54.9947 543.108 54.4963C542.32 54.0394 541.698 53.8524 541.221 53.9563C540.765 54.0394 540.537 54.434 540.537 55.1193C540.537 55.4931 540.682 55.9293 540.972 56.3862C541.263 56.8223 541.636 57.2792 542.071 57.7569C542.528 58.2138 543.15 58.8369 543.979 59.6261C544.249 59.8753 544.457 60.0622 544.581 60.1868C545.908 61.4537 547.049 62.6583 547.982 63.7382C548.916 64.8182 549.704 66.0227 550.367 67.3935C551.01 68.7434 551.342 70.1764 551.342 71.6717C551.342 73.354 550.969 74.5586 550.201 75.2647C549.455 75.9708 548.459 76.22 547.236 76.0539C546.012 75.867 544.643 75.3685 543.15 74.4963C541.657 73.624 540.163 72.4817 538.898 71.1525C537.612 69.8441 536.555 68.3903 535.725 66.7912C534.896 65.192 534.398 63.5721 534.19 61.8691L539.873 63.6551C539.956 64.9843 540.309 66.1474 540.931 67.165C541.574 68.1827 542.383 68.9926 543.399 69.5741C544.104 69.9895 544.664 70.1141 545.079 69.9687C545.473 69.8234 545.68 69.408 545.68 68.7226C545.68 68.1827 545.514 67.6219 545.182 67.0612C544.851 66.4796 544.436 65.9189 543.897 65.3581C543.378 64.7974 542.652 64.0705 541.719 63.1567C541.615 63.0321 541.491 62.9075 541.304 62.7621C540.018 61.5368 538.94 60.3945 538.069 59.3976C537.218 58.4007 536.493 57.2792 535.891 56.0331C535.29 54.7662 535.02 53.4578 535.02 52.0664C535.02 50.571 535.352 49.4703 536.016 48.7434C536.658 48.0165 537.592 47.705 538.753 47.7673C539.935 47.8711 541.283 48.3488 542.797 49.2211L542.756 49.2418Z" fill="#FDFAF5"/>
    <path d="M569.448 65.0259L569.427 70.488L564.657 67.7258L564.616 86.5628L559.202 83.4267L559.244 64.5898L554.453 61.8276L554.474 56.3655L569.448 65.0259Z" fill="#FDFAF5"/>
    <path d="M584.671 73.8109L592.365 102.617L586.807 99.3977L585.459 94.1225L577.018 89.2419L575.649 92.9594L570.091 89.7403L577.91 69.9272L584.65 73.8317L584.671 73.8109ZM578.615 84.9428L583.945 88.0166L581.311 77.6946L578.615 84.9428Z" fill="#FDFAF5"/>
    <path d="M607.754 102.16L614.079 115.161L607.588 111.402L602.258 99.1899L602.112 99.1069V108.224L596.596 105.047L596.658 80.7476L604.767 85.4412C606.82 86.625 608.438 87.8919 609.641 89.2418C610.844 90.5918 611.673 91.9833 612.171 93.4163C612.648 94.8493 612.897 96.3654 612.897 97.9646C612.897 99.1068 612.669 100.062 612.275 100.81C611.86 101.578 611.259 102.077 610.47 102.326C609.703 102.575 608.791 102.534 607.733 102.181L607.754 102.16ZM607.069 96.9054C607.505 96.6769 607.712 96.0954 607.733 95.1608C607.733 94.2886 607.505 93.4578 607.069 92.7309C606.654 91.9833 605.949 91.3395 605.016 90.7995L602.133 89.138V94.787L604.995 96.4485C605.928 96.9885 606.634 97.1546 607.069 96.9054Z" fill="#FDFAF5"/>
    <path d="M631.625 100.955L631.604 106.438L626.813 103.676L626.772 122.492L621.359 119.377L621.4 100.54L616.609 97.757L616.63 92.2949L631.625 100.955Z" fill="#FDFAF5"/>
    </g>
    <path d="M564.403 601.15L500.131 638.243L435.945 601.093L500.217 564L564.403 601.15Z" fill="#73ACFF"/>
    <path d="M500.131 706.641V638.243L435.945 601.093V669.491L500.131 706.641Z" fill="#619BF7"/>
    <path d="M564.403 669.548V601.15L500.131 638.242V706.64L564.403 669.548Z" fill="#4688E8"/>
    <path d="M553.169 631.942C550.581 624.443 544.183 622.02 536.988 625.84C530.049 629.547 522.654 638.927 520.18 649.362C517.82 659.284 521.744 665.67 527.717 665.642C533.291 665.642 541.452 659.113 543.927 649.391C545.121 644.715 544.695 639.811 542.05 638.556C539.917 637.559 536.533 639.184 534.286 642.662C532.153 645.969 531.3 651.272 533.49 652.527C535.196 653.468 537.898 651.044 538.637 647.822C538.779 647.281 538.182 647.281 538.011 647.822C536.76 652.299 533.234 652.156 533.291 648.535C533.347 646.226 534.513 643.688 536.106 642.063C539.007 639.127 542.135 639.355 543.045 642.69C545.32 650.788 537.101 661.28 531.215 663.361C526.01 665.214 521.005 662.449 520.635 655.349C520.209 647.737 525.015 638.271 530.248 632.74C542.107 620.167 555.16 625.898 552.743 644.373C551.634 652.869 547.681 660.852 542.419 667.295C536.845 674.081 529.992 680.411 523.906 681.665C517.763 682.92 513.639 678.13 512.331 670.745C510.881 662.335 511.45 651.814 515.431 641.949C515.602 641.493 515.203 641.436 515.033 641.864C510.284 653.068 509.26 665.072 511.677 674.167C513.725 681.836 519.071 685.486 526.039 682.72C533.603 679.698 543.216 670.318 548.79 660.025C553.852 650.674 555.7 639.184 553.198 631.913L553.169 631.942Z" fill="white"/>
    <path d="M442.173 631.97C444.931 631.97 454.402 635.762 460.63 638.642C462.876 632.512 468.479 624.215 468.479 624.215C468.479 624.215 474.024 639.355 476.299 647.281C481.703 651.928 488.955 658.058 492.794 662.049C489.552 664.758 484.66 667.295 480.821 669.006C482.613 675.05 485.741 690.076 485.912 693.497C479.172 687.994 470.669 677.274 468.735 675.165C466.943 675.678 455.937 676.818 453.662 676.162C453.435 670.774 455.255 656.518 455.795 653.468C454.117 651.301 444.931 637.872 442.173 631.97ZM457.843 652.84C457.16 657.545 455.767 670.546 455.738 673.796C459.094 673.197 466.772 672.855 468.479 672.256C469.787 673.739 477.096 681.893 478.546 683.547C479.371 684.488 482.613 688.622 483.466 688.907C483.665 687.282 479.229 669.434 478.83 667.381C482.129 665.613 486.765 663.104 490.121 661.508C485.684 657.716 480.338 652.84 475.532 648.991C473.342 641.008 469.787 630.659 468.308 626.924C466.687 630.203 462.393 639.127 461.54 641.493C458.696 640.524 448.287 635.534 444.931 634.451C447.662 638.841 454.373 648.678 457.843 652.869V652.84Z" fill="white"/>
    <path d="M480.224 582.646C477.806 583.188 474.536 584.813 472.716 585.84C470.953 586.895 468.166 588.776 467.227 590.173C462.108 597.729 472.517 603.802 476.072 605.626C481.333 608.306 486.622 608.962 492.851 610.131C501.695 611.785 509.999 618 516.512 621.764C518.076 621.706 523.337 618.627 525.185 617.487C525.527 617.259 525.925 617.059 526.323 616.831C526.693 616.603 527.062 616.375 527.432 616.175C529.394 615.092 534.712 612.07 534.798 611.157C528.257 607.365 517.535 602.576 514.692 597.444C512.672 593.823 511.563 590.772 506.928 587.721C503.771 585.64 493.249 579.653 480.195 582.589L480.224 582.646ZM524.247 615.662C523.764 615.919 519.043 618.57 516.569 619.768C513.469 617.601 508.975 614.75 505.648 613.096C507.383 612.241 508.947 611.271 510.568 610.331C511.307 609.903 512.132 609.504 512.871 609.076C513.639 608.648 514.293 608.164 515.033 607.736C516.654 606.795 518.332 605.883 519.811 604.885C522.683 606.795 527.574 609.418 531.328 611.214C529.281 612.668 524.73 615.377 524.247 615.662ZM511.734 596.303C513.127 599.24 515.374 601.663 518.303 603.859C516.455 604.714 514.805 605.712 513.099 606.653C512.331 607.08 511.506 607.451 510.767 607.879C510.028 608.306 509.373 608.791 508.634 609.219C507.013 610.217 505.307 611.157 503.799 612.241C500.046 610.559 495.837 609.247 490.774 608.449C484.376 607.451 478.773 605.968 474.109 602.861C470.782 600.637 469.417 598.156 468.621 595.818C467.284 591.77 473 587.636 474.394 586.838C475.787 586.039 482.925 582.732 489.893 583.502C493.931 583.958 498.225 584.728 502.065 586.666C507.411 589.375 509.942 592.597 511.705 596.303H511.734Z" fill="white"/>
    <path d="M489.04 601.977C489.04 601.977 488.926 601.749 488.841 601.606C488.301 601.008 487.163 600.608 486.082 600.437C484.092 600.124 481.987 600.751 482.983 602.091C483.665 603.032 485.684 603.745 488.301 602.975C488.557 602.889 488.727 602.804 488.869 602.69C491.742 603.431 494.671 604.087 497.458 604.999C501.61 606.368 505.222 608.078 508.89 609.875C509.63 610.245 510.568 609.732 509.857 609.333C504.454 606.14 496.605 603.06 489.097 601.977H489.04Z" fill="white"/>
    <path d="M500.387 595.42C500.188 595.42 499.989 595.363 499.761 595.306C498.709 594.992 498.027 594.336 497.742 593.709C497.23 592.54 498.311 591.343 500.614 591.913C502.236 592.312 503.458 593.481 502.122 594.992C502.008 595.134 501.809 595.249 501.61 595.306C502.89 596.959 504.027 598.67 505.62 600.266C507.98 602.661 510.938 604.771 514.066 606.881C514.692 607.309 513.839 607.85 513.099 607.423C507.582 604.287 502.264 599.753 500.359 595.42H500.387Z" fill="white"/>
    <path d="M519.157 609.019C517.621 609.846 516.114 610.701 514.606 611.557C513.81 612.013 512.786 612.44 512.161 612.982C511.933 613.182 512.616 613.638 512.957 613.524C514.009 613.182 514.777 612.583 515.659 612.127C517.223 611.3 518.759 610.473 520.237 609.618C520.863 609.276 519.782 608.648 519.157 608.991V609.019Z" fill="white"/>
    <path d="M523.053 611.272C521.517 612.099 520.01 612.954 518.502 613.809C517.706 614.265 516.682 614.693 516.057 615.235C515.829 615.434 516.512 615.891 516.853 615.777C517.905 615.434 518.673 614.836 519.555 614.38C521.119 613.553 522.655 612.726 524.133 611.871C524.759 611.528 523.678 610.901 523.053 611.243V611.272Z" fill="white"/>
    <path d="M621.967 666.845L573.792 694.643L525.645 666.788L573.849 638.961L621.967 666.845Z" fill="#FF5E4C"/>
    <path d="M573.792 745.935V694.644L525.645 666.788V718.08L573.792 745.935Z" fill="#EC5212"/>
    <path d="M621.967 718.136V666.845L573.792 694.643V745.935L621.967 718.136Z" fill="#EF4335"/>
    <path d="M593.898 689.91C595.036 688.684 597.055 687.316 598.278 686.603C599.472 685.919 601.52 684.921 602.657 684.864C608.772 684.408 608.8 692.533 608.686 695.242C608.487 699.205 607.065 702.541 605.643 706.561C603.624 712.292 604.449 719.22 604.449 724.323C603.909 725.236 600.325 727.26 599.046 727.944C598.79 728.087 598.534 728.229 598.306 728.372C598.05 728.514 597.794 728.657 597.567 728.799C596.287 729.598 592.732 731.679 592.163 731.422C592.163 726.319 592.988 718.45 590.969 715.057C589.547 712.662 588.125 710.98 587.926 707.245C587.784 704.708 587.841 696.525 593.955 689.882L593.898 689.91ZM598.278 726.775C598.591 726.576 601.719 724.722 603.255 723.667C603.027 721.13 602.885 717.538 603.056 715.029C601.975 715.741 600.866 716.34 599.785 716.967C599.302 717.252 598.79 717.623 598.278 717.88C597.794 718.193 597.282 718.421 596.771 718.706C595.69 719.334 594.581 720.018 593.5 720.531C593.642 722.841 593.5 726.604 593.301 729.398C594.837 728.685 597.937 726.946 598.278 726.775ZM591.225 712.947C592.476 714.743 593.13 716.882 593.415 719.334C594.524 718.535 595.661 717.908 596.799 717.224C597.311 716.91 597.794 716.568 598.306 716.283C598.79 715.998 599.302 715.77 599.814 715.485C600.951 714.858 602.06 714.202 603.198 713.689C603.482 710.923 604.136 708.015 605.388 704.793C606.952 700.716 607.975 696.953 607.748 693.189C607.577 690.481 606.61 688.855 605.501 687.629C603.596 685.491 599.273 687.458 598.335 687.972C597.396 688.485 593.074 691.564 591.168 695.926C590.059 698.435 589.092 701.201 588.921 704.109C588.694 708.157 589.718 710.723 591.282 712.976L591.225 712.947Z" fill="white"/>
    <path d="M602.174 701.571C602.174 701.571 602.06 701.429 602.032 701.315C601.861 700.801 602.032 700.003 602.288 699.319C602.771 698.036 603.852 697.038 604.307 698.064C604.62 698.777 604.335 700.203 603.027 701.457C602.913 701.571 602.771 701.657 602.657 701.685C602.117 703.624 601.52 705.534 601.122 707.473C600.525 710.353 600.297 713.061 600.126 715.798C600.098 716.368 599.501 716.739 599.472 716.169C599.415 711.949 600.297 706.304 602.174 701.543V701.571Z" fill="white"/>
    <path d="M594.524 705.99C594.524 705.99 594.638 705.734 594.666 705.591C594.837 704.878 594.666 704.251 594.41 703.88C593.927 703.196 592.846 703.424 592.391 704.964C592.078 706.047 592.363 707.159 593.671 706.874C593.785 706.874 593.927 706.789 594.041 706.675C594.581 707.986 595.178 709.212 595.576 710.695C596.173 712.89 596.401 715.313 596.572 717.851C596.6 718.364 597.197 718.05 597.226 717.48C597.283 713.204 596.401 708.556 594.524 705.99Z" fill="white"/>
    <path d="M596.116 721.557C597.112 720.93 598.107 720.331 599.131 719.761C599.671 719.448 600.269 718.991 600.78 718.82C600.98 718.763 601.008 719.305 600.837 719.476C600.297 719.961 599.671 720.246 599.131 720.588C598.136 721.215 597.14 721.843 596.116 722.441C595.718 722.669 595.718 721.843 596.116 721.586V721.557Z" fill="white"/>
    <path d="M596.116 724.608C597.112 723.981 598.107 723.382 599.131 722.812C599.671 722.498 600.269 722.042 600.78 721.871C600.98 721.814 601.008 722.356 600.837 722.527C600.297 723.012 599.671 723.268 599.131 723.639C598.136 724.266 597.14 724.893 596.116 725.492C595.718 725.72 595.718 724.893 596.116 724.637V724.608Z" fill="white"/>
    <path d="M549.932 685.206C546.206 682.099 540.916 680.702 539.352 685.007C538.3 687.915 539.551 692.363 542.111 694.729C542.964 695.499 543.248 694.244 542.509 693.189C542.054 692.534 541.542 691.964 541.286 691.45C539.381 687.316 541.428 683.98 544.642 684.836C545.808 685.149 546.945 685.52 548.111 686.204C551.382 688.172 554.34 692.762 554.425 697.552C554.539 703.967 549.761 702.798 546.917 704.622C544.187 706.39 542.992 711.836 546.974 716.768C548.026 718.051 548.851 716.626 547.884 715.2C543.561 708.814 549.363 706.59 550.87 706.048C551.894 705.677 553.003 705.449 553.856 704.736C555.051 703.739 555.847 702.199 556.074 699.975C556.558 694.929 553.799 688.485 549.903 685.206H549.932Z" fill="white"/>
    <path d="M549.675 722.727C549.107 721.273 548.083 720.076 547.116 719.619C546.206 719.192 544.926 719.391 544.613 721.615C544.244 724.267 546.007 727.203 547.998 727.831C550.017 728.486 550.813 725.55 549.704 722.727H549.675ZM548.083 725.407C547.514 725.692 546.433 724.751 546.177 723.668C546.035 723.069 546.121 722.413 546.377 722.157C546.689 721.815 547.543 721.986 548.026 722.727C548.652 723.668 548.68 725.122 548.083 725.436V725.407Z" fill="white"/>
    <path d="M646.055 616.666L597.852 644.493L549.705 616.638L597.908 588.811L646.055 616.666Z" fill="#5BBC82"/>
    <path d="M597.852 695.784V644.493L549.705 616.637V667.929L597.852 695.784Z" fill="#41B383"/>
    <path d="M646.055 667.957V616.666L597.852 644.493V695.784L646.055 667.957Z" fill="#359658"/>
    <path d="M589.462 659.661C587.528 651.791 582.722 644.407 577.319 641.014C572.114 637.764 566.569 638.391 564.692 644.093C562.929 649.511 565.858 657.693 570.351 662.882C574.532 667.729 580.674 669.924 582.523 664.764C583.405 662.284 583.092 658.235 581.129 655.013C579.508 652.39 576.977 650.68 575.299 651.335C573.707 651.963 573.053 655.213 574.702 658.064C575.982 660.259 578.001 660.772 578.57 659.005C578.655 658.691 578.229 658.178 578.115 658.463C577.176 660.744 574.532 657.551 574.588 654.899C574.617 653.217 575.499 652.305 576.693 652.476C578.854 652.761 581.215 655.669 581.926 658.976C583.632 667.045 577.461 667.758 573.053 664.222C569.157 661.086 565.403 654.671 565.09 648.997C564.777 642.925 568.389 639.988 572.285 640.359C581.186 641.242 590.998 656.866 589.178 668.641C588.353 674.059 585.395 676.625 581.414 676.881C577.233 677.138 572.086 675.94 567.507 671.578C562.9 667.187 559.8 659.974 558.833 653.331C557.724 645.747 558.179 638.334 561.165 634.4C561.308 634.229 560.995 633.83 560.853 633.972C557.269 638.249 556.501 646.374 558.321 655.298C559.857 662.825 563.867 670.238 569.1 674.201C574.788 678.535 581.983 679.818 586.192 676.938C590.002 674.315 591.367 667.301 589.49 659.661H589.462Z" fill="white"/>
    <path d="M612.81 600.158C609.483 600.785 600.724 604.52 595.264 607.115C588.325 605.176 575.812 603.152 575.812 603.152C575.812 603.152 579.622 610.508 582.381 614.214C579.11 617.322 574.617 621.456 572.769 623.936C578.542 624.278 586.163 624.164 591.936 623.936C593.984 626.787 600.61 633.516 602.772 634.913C607.066 631.15 609.853 624.877 610.734 623.594C613.237 623.366 627.257 621.285 629.532 620.486C626.091 618.291 614.033 612.988 611.275 611.905C611.787 610.65 613.55 603.152 612.782 600.13L612.81 600.158ZM608.431 612.161C612.498 613.872 623.162 618.776 625.466 620.059C621.029 620.601 611.559 622.226 609.085 622.397C608.516 623.281 605.388 628.27 604.791 629.239C604.449 629.81 603.397 632.205 602.572 632.518C601.207 631.919 594.211 623.737 593.245 622.824C588.04 622.881 580.76 622.967 575.584 623.081C578.286 620.544 581.329 617.35 584.457 614.67C581.556 610.964 578.684 606.003 577.888 604.15C582.096 605.091 593.444 607.685 596.117 608.426C598.847 607.371 607.919 602.952 611.189 601.755C610.962 604.15 609.682 609.652 608.431 612.133V612.161Z" fill="white"/>
    <path d="M625.039 632.832C621.313 634.029 616.024 638.762 614.46 644.863C613.408 648.969 614.659 651.991 617.218 651.392C618.071 651.193 618.356 649.568 617.616 649.397C617.161 649.282 616.65 649.311 616.394 649.083C614.488 647.173 616.536 641.442 619.749 638.591C620.915 637.564 622.053 636.624 623.219 635.939C626.489 634.143 629.447 635.284 629.532 639.959C629.646 646.232 624.868 650.594 622.024 655.754C619.294 660.715 618.1 667.501 622.081 667.815C623.134 667.9 623.958 665.505 622.991 665.192C618.697 663.795 624.47 654.871 625.977 652.561C627.001 651.022 628.11 649.511 628.964 647.8C630.158 645.405 630.954 642.953 631.182 640.473C631.665 634.856 628.907 631.606 625.011 632.86L625.039 632.832Z" fill="white"/>
    <path d="M624.783 670.608C624.215 669.81 623.191 669.81 622.224 670.494C621.314 671.122 620.034 672.804 619.721 675.37C619.352 678.42 621.115 679.333 623.105 677.679C625.125 675.969 625.921 672.148 624.812 670.608H624.783ZM623.191 675.113C622.622 676.083 621.541 676.368 621.285 675.569C621.143 675.142 621.228 674.4 621.484 673.83C621.797 673.117 622.65 672.319 623.134 672.49C623.76 672.718 623.788 674.144 623.191 675.113Z" fill="white"/>
    <g filter="url(#filter0_d_133_12470)">
    <path d="M1101.77 635.554L1075.91 620.52L791.806 783.973L764.875 768.308L1048.99 604.855L1020.05 588.007L1105.66 585.925L1101.77 635.554Z" fill="#FFEDAF"/>
    <path d="M764.46 768.643L791.375 784.308L1075.91 620.52L1101.77 635.57L1105.65 585.94L1020.05 588.023L1048.99 604.871L764.46 768.643ZM1104.59 639.798L1075.89 623.107L791.359 786.895L760 768.643L1044.55 604.839L1012.78 586.351L1108.97 584L1104.62 639.766" fill="black"/>
    </g>
    <path d="M467.6 205.504L467.569 218.064L462.875 215.348L462.906 202.787L467.6 205.504Z" fill="white"/>
    <path d="M462.906 202.787L462.875 215.348L458.212 218.064L458.259 205.488L462.906 202.787Z" fill="white"/>
    <path d="M458.212 218.064C455.15 219.854 453.611 222.178 453.596 224.517L453.627 211.941C453.627 209.602 455.166 207.278 458.243 205.488C458.243 209.256 458.212 214.28 458.212 218.064Z" fill="white"/>
    <path d="M472.264 224.611C472.264 222.24 470.709 219.87 467.569 218.064L467.601 205.488C470.741 207.294 472.295 209.664 472.295 212.035C472.295 215.803 472.264 220.827 472.264 224.611Z" fill="white"/>
    <path d="M472.295 212.051L472.263 224.627C472.263 226.966 470.725 229.305 467.647 231.08L467.679 218.503C470.756 216.714 472.279 214.39 472.295 212.051Z" fill="white"/>
    <path d="M476.22 208.173L476.189 220.749C476.189 224.077 473.991 227.39 469.626 229.934L469.657 217.358C474.022 214.814 476.204 211.501 476.22 208.173Z" fill="#482A1D"/>
    <path d="M453.596 224.517L453.627 211.941C453.627 214.311 455.181 216.682 458.322 218.488L458.29 231.064C455.166 229.258 453.596 226.888 453.596 224.517Z" fill="white"/>
    <path d="M449.639 220.607L449.671 208.031C449.671 211.407 451.884 214.782 456.343 217.342L456.312 229.918C451.853 227.343 449.639 223.967 449.639 220.607Z" fill="#301A13"/>
    <path d="M490.131 218.504L490.099 231.08C483.882 227.484 473.833 227.484 467.647 231.08L467.679 218.504C473.865 214.908 483.897 214.908 490.131 218.504Z" fill="white"/>
    <path d="M458.321 218.504L458.29 231.08C452.073 227.484 442.024 227.484 435.838 231.08L435.87 218.504C442.056 214.908 452.104 214.908 458.321 218.504Z" fill="white"/>
    <path d="M494.825 221.205L494.794 233.781L490.083 231.065L490.131 218.504L494.825 221.205Z" fill="white"/>
    <path d="M435.87 218.504L435.839 231.065L431.176 233.781L431.207 221.205L435.87 218.504Z" fill="white"/>
    <path d="M494.825 221.204L494.794 233.78L490.131 236.48L490.162 223.92L494.825 221.204Z" fill="white"/>
    <path d="M435.902 223.92L435.87 236.48L431.176 233.78L431.207 221.204L435.902 223.92Z" fill="white"/>
    <path d="M508.265 221.204L508.234 233.78L501.592 237.627L501.639 225.066L508.265 221.204Z" fill="#482A1D"/>
    <path d="M490.162 223.92L490.131 236.496C483.945 240.092 473.897 240.092 467.679 236.496L467.711 223.92C473.928 227.516 483.976 227.516 490.162 223.92Z" fill="white"/>
    <path d="M501.639 225.066L501.608 237.642C492.815 242.745 478.512 242.745 469.673 237.642L469.704 225.066C478.559 230.169 492.847 230.169 501.639 225.066Z" fill="#482A1D"/>
    <path d="M469.72 237.941C469.139 237.423 468.449 236.936 467.664 236.496L467.695 223.92C468.48 224.375 469.155 224.862 469.752 225.365C469.752 229.557 469.72 233.749 469.72 237.941Z" fill="white"/>
    <path d="M470.772 239.008C470.458 238.647 470.113 238.286 469.72 237.941C469.72 233.749 469.752 229.557 469.752 225.365C470.144 225.71 470.505 226.071 470.804 226.432C470.804 230.624 470.772 234.816 470.772 239.008Z" fill="white"/>
    <path d="M470.772 239.009C470.725 238.883 470.772 238.679 470.772 238.538C470.772 238.459 470.772 238.365 470.772 238.286C470.772 237.847 470.772 237.423 470.772 236.983C470.772 236.308 470.772 235.633 470.772 234.958C470.772 232.116 470.788 229.274 470.804 226.433C470.945 226.605 471.086 226.778 471.212 226.966C471.212 231.158 471.181 235.35 471.181 239.543C471.055 239.37 470.914 239.181 470.772 239.009Z" fill="white"/>
    <path d="M458.353 223.92L458.322 236.496C452.136 240.092 442.088 240.092 435.87 236.496L435.902 223.92C442.119 227.516 452.167 227.516 458.353 223.92Z" fill="white"/>
    <path d="M456.39 225.067L456.359 237.643C447.567 242.761 433.264 242.761 424.424 237.643L417.736 233.78L417.767 221.22L424.44 225.067C433.295 230.185 447.582 230.185 456.375 225.067H456.39Z" fill="#482A1D"/>
    <path d="M458.321 236.481C456.783 237.376 455.621 238.412 454.852 239.527C454.852 235.335 454.883 231.143 454.883 226.951C455.652 225.852 456.814 224.816 458.353 223.905C458.353 227.673 458.321 232.697 458.321 236.481Z" fill="white"/>
    <path d="M454.852 239.527C454.099 240.626 453.706 241.772 453.706 242.934L453.737 230.358C453.737 229.196 454.13 228.034 454.884 226.951C454.884 227.39 454.884 227.971 454.884 228.411C454.884 228.882 454.884 229.494 454.884 229.965C454.884 230.452 454.884 231.096 454.884 231.582C454.884 232.069 454.884 232.728 454.884 233.231C454.884 233.482 454.884 233.812 454.884 234.063C454.884 235.131 454.884 236.214 454.884 237.282C454.884 237.737 454.884 238.349 454.884 238.805C454.884 239.024 454.946 239.323 454.884 239.527H454.852Z" fill="white"/>
    <path d="M472.358 243.043C472.358 241.85 471.965 240.657 471.18 239.542C471.18 235.35 471.212 231.158 471.212 226.966C471.997 228.081 472.389 229.274 472.389 230.467C472.389 234.235 472.358 239.26 472.358 243.043Z" fill="white"/>
    <path d="M472.405 230.467L472.373 243.043C472.373 245.382 470.835 247.722 467.757 249.496L467.789 236.92C470.866 235.13 472.389 232.806 472.405 230.467Z" fill="white"/>
    <path d="M453.706 242.949L453.737 230.373C453.737 232.744 455.291 235.115 458.416 236.92L458.384 249.496C455.26 247.691 453.69 245.32 453.706 242.949Z" fill="white"/>
    <path d="M467.789 236.921L467.742 249.497L463.095 252.197L463.126 239.637L467.789 236.921Z" fill="white"/>
    <path d="M463.126 239.637L463.094 252.197L458.4 249.497L458.431 236.921L463.126 239.637Z" fill="white"/>
    <path d="M476.361 234.377L476.33 246.953C476.33 250.282 474.132 253.594 469.767 256.138L469.798 243.562C474.163 241.018 476.346 237.705 476.361 234.377Z" fill="#482A1D"/>
    <path d="M494.825 221.22L490.131 218.504C483.914 214.908 473.865 214.908 467.679 218.504C473.865 214.908 473.834 209.099 467.617 205.504L462.906 202.787L458.243 205.488C452.057 209.083 452.089 214.908 458.306 218.488C452.089 214.892 442.04 214.892 435.854 218.488L431.191 221.188L435.886 223.904C442.103 227.5 452.152 227.5 458.338 223.904C452.152 227.5 452.183 233.325 458.4 236.904L463.095 239.621L467.758 236.92C473.928 233.325 473.897 227.5 467.679 223.92C473.897 227.516 483.945 227.516 490.131 223.92L494.794 221.22H494.825Z" fill="white"/>
    <path d="M501.592 217.357C492.737 212.255 478.45 212.255 469.658 217.357C478.45 212.239 478.403 203.965 469.548 198.862L462.875 195L456.249 198.862C447.457 203.981 447.504 212.255 456.344 217.357C447.489 212.239 433.201 212.239 424.409 217.357L417.768 221.204L424.456 225.066C433.295 230.169 447.598 230.169 456.391 225.066C447.598 230.169 447.646 238.443 456.485 243.562L463.173 247.424L469.799 243.562C478.591 238.459 478.544 230.169 469.689 225.066C478.544 230.169 492.847 230.169 501.624 225.066L508.249 221.204L501.577 217.342L501.592 217.357Z" fill="#6F4838"/>
    <path d="M458.353 226.15L457.018 227.045C457.426 226.731 457.866 226.433 458.353 226.15Z" fill="#301A13"/>
    <path d="M458.353 223.921L456.783 224.989C456.955 224.847 457.144 224.706 457.332 224.58C457.474 224.47 457.631 224.376 457.788 224.266C457.976 224.141 458.149 224.031 458.337 223.921H458.353Z" fill="#301A13"/>
    <path d="M466.124 222.665C465.967 222.822 465.763 222.963 465.543 223.089C464.068 223.937 461.681 223.937 460.19 223.089C459.954 222.947 459.766 222.806 459.609 222.649C458.745 221.801 458.934 220.702 460.19 219.98C461.665 219.132 464.052 219.132 465.543 219.98C466.8 220.702 467.004 221.801 466.14 222.665H466.124Z" fill="#301A13"/>
    <path d="M472.248 212.695C472.232 212.836 472.201 212.993 472.169 213.135C471.761 211.156 470.238 209.241 467.616 207.718L462.906 205.002L458.259 207.718C455.668 209.225 454.161 211.109 453.753 213.072C453.721 212.883 453.69 212.695 453.674 212.507C453.564 211.455 453.753 210.387 454.286 209.351C454.365 209.209 454.443 209.068 454.522 208.927C454.663 208.723 454.789 208.519 454.946 208.314C455.103 208.11 455.276 207.906 455.448 207.702C455.574 207.561 455.699 207.435 455.825 207.31C455.966 207.168 456.092 207.058 456.233 206.933C456.657 206.556 457.16 206.179 457.693 205.834C457.866 205.708 458.055 205.598 458.243 205.488L462.89 202.772L467.6 205.488C468.071 205.771 468.511 206.038 468.919 206.336C469.17 206.54 469.422 206.729 469.657 206.933C470.678 207.828 471.416 208.801 471.824 209.822C471.887 209.963 471.934 210.104 471.981 210.261C472.263 211.062 472.342 211.878 472.232 212.695H472.248Z" fill="#301A13"/>
    <path d="M472.404 230.452C472.404 230.828 472.373 231.205 472.279 231.566C472.357 231.19 472.404 230.828 472.404 230.452Z" fill="#301A13"/>
    <path d="M465.512 219.98C464.021 219.132 461.634 219.132 460.158 219.98C458.918 220.702 458.729 221.801 459.577 222.649C459.734 222.492 459.923 222.335 460.158 222.21C461.634 221.362 464.021 221.362 465.512 222.21C465.748 222.351 465.952 222.492 466.109 222.665C466.972 221.817 466.768 220.718 465.512 219.98ZM457.803 224.266C457.646 224.361 457.489 224.47 457.348 224.58C457.159 224.722 456.971 224.847 456.798 224.989L458.368 223.921C458.18 224.031 457.992 224.141 457.819 224.266H457.803ZM457.018 227.045L458.353 226.15C457.866 226.433 457.411 226.731 457.018 227.045Z" fill="#301A13"/>
    <path d="M471.997 210.261C471.965 210.12 471.902 209.963 471.84 209.822C471.416 208.801 470.693 207.828 469.673 206.933C469.437 206.729 469.202 206.54 468.935 206.336C468.527 206.038 468.087 205.755 467.616 205.488L462.906 202.772L458.259 205.488C458.07 205.598 457.882 205.708 457.709 205.834C457.16 206.179 456.673 206.54 456.249 206.933C456.108 207.058 455.966 207.184 455.841 207.31C455.699 207.435 455.59 207.561 455.464 207.702C455.291 207.906 455.134 208.11 454.961 208.299C454.804 208.503 454.679 208.723 454.538 208.927C454.459 209.068 454.381 209.209 454.302 209.351C453.768 210.387 453.58 211.455 453.69 212.507C453.705 212.695 453.737 212.883 453.768 213.072C454.176 211.109 455.668 209.209 458.274 207.718L462.922 205.002L467.632 207.718C470.269 209.225 471.792 211.156 472.185 213.135C472.216 212.993 472.248 212.836 472.263 212.695C472.373 211.878 472.295 211.062 472.012 210.261H471.997ZM457.018 227.029L458.353 226.135C457.866 226.417 457.411 226.715 457.018 227.029ZM457.803 224.25C457.646 224.345 457.489 224.455 457.348 224.564C457.16 224.706 456.971 224.831 456.798 224.973L458.368 223.905C458.18 224.015 457.992 224.125 457.819 224.25H457.803Z" fill="#301A13"/>
    <path d="M490.13 220.733C484.101 217.248 474.493 217.138 468.275 220.403L467.679 220.733V218.504C468.652 217.954 469.453 217.342 470.112 216.682C470.222 216.588 470.316 216.478 470.411 216.368C470.709 216.054 470.96 215.74 471.18 215.426C471.243 215.348 471.306 215.238 471.368 215.144C471.557 214.83 471.714 214.531 471.839 214.217C471.902 214.092 471.949 213.982 471.981 213.856C472.012 213.746 472.059 213.621 472.091 213.495C472.122 213.37 472.153 213.26 472.169 213.134C471.761 211.156 470.238 209.24 467.616 207.717L462.906 205.001L458.258 207.717C455.668 209.225 454.161 211.109 453.752 213.071C453.815 213.322 453.878 213.558 453.957 213.809C454.035 214.06 454.145 214.296 454.271 214.531C454.333 214.657 454.396 214.767 454.475 214.893C454.537 215.002 454.6 215.097 454.679 215.207C454.71 215.285 454.757 215.364 454.836 215.442C454.914 215.552 454.993 215.678 455.087 215.787C455.322 216.086 455.589 216.384 455.888 216.682C456.013 216.792 456.139 216.918 456.28 217.043C456.422 217.185 456.579 217.295 456.736 217.42C457.207 217.797 457.74 218.158 458.321 218.488V220.717C452.104 217.122 442.056 217.122 435.87 220.717L433.138 222.303L435.901 223.905C442.118 227.5 452.167 227.5 458.353 223.905V226.134L457.018 227.029L456.955 227.06C455.213 228.379 454.192 229.918 453.862 231.488C453.894 231.614 453.925 231.739 453.957 231.865C453.988 231.975 454.019 232.1 454.066 232.226C454.098 232.351 454.145 232.461 454.208 232.587C454.443 233.152 454.789 233.702 455.213 234.236C455.322 234.377 455.432 234.518 455.558 234.644C455.558 234.644 455.589 234.675 455.589 234.691L455.935 235.036C456.61 235.696 457.426 236.308 458.4 236.873L463.094 239.589L467.757 236.873C468.731 236.308 469.547 235.68 470.222 235.021C470.426 234.816 470.63 234.597 470.803 234.393C471.007 234.141 471.211 233.89 471.353 233.639C471.431 233.529 471.494 233.435 471.557 233.325C471.698 233.089 471.808 232.854 471.918 232.618C471.981 232.493 472.012 232.367 472.059 232.257C472.091 232.132 472.138 232.006 472.169 231.88C472.2 231.771 472.232 231.645 472.248 231.519C471.871 229.698 470.536 227.924 468.26 226.464L467.679 226.103V223.873C473.896 227.469 483.944 227.469 490.13 223.873L492.862 222.287L490.099 220.686L490.13 220.733ZM466.124 222.664C465.967 222.821 465.763 222.963 465.543 223.088C464.068 223.936 461.681 223.936 460.19 223.088C459.954 222.947 459.766 222.806 459.609 222.649C458.745 221.801 458.934 220.702 460.19 219.979C461.665 219.132 464.052 219.132 465.543 219.979C466.8 220.702 467.004 221.801 466.14 222.664H466.124Z" fill="#482A1D"/>
    <path d="M458.321 218.503V220.733C452.104 217.138 442.056 217.138 435.87 220.733L433.138 222.319L431.207 221.204L435.854 218.503C438.963 216.698 443.013 215.803 447.095 215.803C447.394 215.803 447.692 215.803 447.99 215.819C448.304 215.819 448.618 215.834 448.917 215.866C449.184 215.866 449.466 215.897 449.733 215.929C449.922 215.929 450.11 215.96 450.283 215.991C450.471 215.991 450.644 216.023 450.832 216.054C451.13 216.086 451.429 216.133 451.696 216.195C451.978 216.227 452.245 216.29 452.512 216.352C453.093 216.462 453.674 216.604 454.239 216.776H454.271C454.585 216.871 454.867 216.965 455.165 217.075C455.37 217.138 455.574 217.216 455.762 217.295C456.233 217.467 456.704 217.671 457.144 217.891C457.285 217.954 457.442 218.032 457.583 218.095C457.819 218.221 458.054 218.346 458.29 218.472L458.321 218.503Z" fill="#301A13"/>
    <path d="M494.825 221.204L492.894 222.319L490.13 220.718C484.101 217.232 474.493 217.122 468.275 220.388L467.679 220.718V218.488C468.872 217.782 470.206 217.232 471.635 216.808H471.667C471.871 216.73 472.091 216.667 472.31 216.62C472.514 216.573 472.719 216.51 472.907 216.479C473.127 216.416 473.347 216.369 473.582 216.322C473.833 216.259 474.1 216.212 474.351 216.18C474.838 216.102 475.341 216.023 475.843 215.976C475.984 215.96 476.11 215.945 476.251 215.945C476.502 215.913 476.754 215.882 477.005 215.882C477.319 215.85 477.633 215.85 477.931 215.835C478.245 215.835 478.559 215.819 478.857 215.819C482.924 215.819 486.99 216.714 490.099 218.52L494.793 221.236L494.825 221.204Z" fill="#301A13"/>
    <path d="M458.353 223.92V226.15C457.866 226.433 457.411 226.731 457.018 227.045L456.955 227.076C455.213 228.395 454.192 229.934 453.862 231.504C453.831 231.363 453.8 231.221 453.784 231.08C453.753 230.844 453.737 230.609 453.737 230.373C453.737 230.232 453.737 230.091 453.753 229.949C453.753 229.808 453.784 229.667 453.815 229.51C453.831 229.369 453.862 229.227 453.894 229.086C453.925 228.976 453.941 228.882 453.972 228.788C454.004 228.678 454.035 228.584 454.082 228.474C454.161 228.27 454.239 228.05 454.349 227.846C454.349 227.846 454.365 227.814 454.381 227.783C454.475 227.579 454.585 227.375 454.726 227.186C454.804 227.076 454.883 226.951 454.961 226.825C454.993 226.794 455.024 226.747 455.04 226.715C455.15 226.558 455.275 226.401 455.401 226.26C455.542 226.103 455.684 225.93 455.856 225.789C456.108 225.538 456.374 225.302 456.673 225.035L456.751 224.972L458.321 223.905L458.353 223.92Z" fill="#301A13"/>
    <path d="M458.353 226.15L457.018 227.045C457.426 226.731 457.866 226.433 458.353 226.15Z" fill="#301A13"/>
    <path d="M472.404 230.436C472.404 230.813 472.357 231.19 472.279 231.551C471.902 229.73 470.567 227.956 468.291 226.495L467.71 226.134V223.905C467.961 224.046 468.181 224.187 468.416 224.344C468.621 224.47 468.793 224.596 468.982 224.737C469.217 224.91 469.453 225.098 469.657 225.271C469.845 225.428 470.018 225.585 470.175 225.742C470.473 226.024 470.74 226.323 470.976 226.621C471.054 226.715 471.133 226.825 471.211 226.935C471.431 227.233 471.619 227.532 471.761 227.846C471.823 227.987 471.886 228.113 471.949 228.238C471.965 228.301 471.996 228.348 472.012 228.411C472.043 228.489 472.075 228.584 472.106 228.678C472.137 228.788 472.185 228.898 472.2 229.007C472.263 229.212 472.294 229.4 472.342 229.604C472.357 229.745 472.373 229.871 472.389 230.012C472.389 230.154 472.404 230.295 472.404 230.436Z" fill="#301A13"/>
    <path d="M469.799 243.562L469.767 256.138L463.126 259.985L463.173 247.424L469.799 243.562Z" fill="#482A1D"/>
    <path d="M456.485 243.562C452.026 240.987 449.812 237.611 449.812 234.251L449.781 246.827C449.781 250.187 451.995 253.563 456.453 256.138L463.126 260L463.158 247.424L456.485 243.562Z" fill="#B2806B"/>
    <path d="M240.607 505.854C239.744 508.155 237.778 510.328 234.694 512.118C226.097 517.12 212.067 517.12 203.405 512.118C200.273 510.312 198.26 508.091 197.397 505.758C198.26 503.457 200.225 501.283 203.31 499.494C211.907 494.508 225.937 494.508 234.598 499.494C237.73 501.299 239.728 503.521 240.607 505.854Z" fill="white"/>
    <path d="M251.01 503.76V520.459C251.026 525.221 247.974 529.983 241.726 533.595C229.277 540.802 208.951 540.802 196.439 533.595C190.158 529.983 187.058 525.205 187.026 520.459V501.939L210.453 502.594C217.005 501.523 224.036 501.731 230.444 503.169L251.01 503.744V503.76Z" fill="#B2806B"/>
    <path d="M241.582 490.417C254.11 497.64 254.174 509.417 241.725 516.656C229.277 523.895 208.951 523.895 196.438 516.656C183.91 509.433 183.846 497.656 196.294 490.417C208.743 483.194 229.053 483.194 241.582 490.417Z" fill="#FED6C1"/>
    <path d="M240.319 506.301C239.456 508.57 237.523 510.712 234.503 512.469C234.151 512.677 233.783 512.869 233.416 513.061C225.202 517.231 212.834 517.215 204.62 513.013C204.301 512.837 203.949 512.645 203.645 512.469C200.561 510.696 198.58 508.506 197.717 506.205C196.183 502.146 198.116 497.752 203.534 494.588C212.019 489.666 225.873 489.666 234.407 494.588C239.888 497.768 241.869 502.194 240.335 506.301H240.319Z" fill="#B2806B"/>
    <path d="M240.319 506.301C239.457 504 237.475 501.811 234.391 500.037C225.858 495.116 212.003 495.116 203.534 500.037C200.498 501.795 198.564 503.952 197.701 506.222C196.167 502.163 198.101 497.768 203.534 494.604C212.019 489.682 225.858 489.682 234.391 494.604C239.872 497.768 241.854 502.211 240.319 506.301Z" fill="#E7B49F"/>
    <path d="M234.551 502.865V509.641C234.551 510.312 234.455 510.951 234.215 511.606C234.023 512.086 233.768 512.581 233.432 513.045C225.218 517.215 212.85 517.199 204.636 512.997C204.317 512.517 204.045 512.038 203.853 511.543C203.613 510.919 203.534 510.264 203.518 509.625V502.85H208.823C214.64 499.909 223.365 499.909 229.197 502.85H234.583L234.551 502.865Z" fill="#E7B49F"/>
    <path d="M234.199 504.815C233.576 506.429 232.201 507.963 230.044 509.209C224.004 512.725 214.144 512.725 208.056 509.209C205.867 507.947 204.46 506.381 203.837 504.751C202.75 501.859 204.125 498.727 207.992 496.489C214.032 492.974 223.892 492.974 229.98 496.489C233.895 498.743 235.301 501.907 234.199 504.815Z" fill="#FED6C1"/>
    <path d="M222.725 503.345C222.581 503.745 222.23 504.112 221.719 504.416C220.248 505.279 217.835 505.279 216.349 504.416C215.806 504.112 215.47 503.729 215.327 503.329C215.055 502.626 215.407 501.859 216.333 501.316C217.804 500.453 220.216 500.453 221.703 501.316C222.661 501.859 222.997 502.642 222.725 503.345Z" fill="#B2806B"/>
    <defs>
    <filter id="filter0_d_133_12470" x="760" y="584" width="353.97" height="207.895" filterUnits="userSpaceOnUse" color-interpolation-filters="sRGB">
    <feFlood flood-opacity="0" result="BackgroundImageFix"/>
    <feColorMatrix in="SourceAlpha" type="matrix" values="0 0 0 0 0 0 0 0 0 0 0 0 0 0 0 0 0 0 127 0" result="hardAlpha"/>
    <feOffset dx="4" dy="4"/>
    <feGaussianBlur stdDeviation="0.5"/>
    <feComposite in2="hardAlpha" operator="out"/>
    <feColorMatrix type="matrix" values="0 0 0 0 0 0 0 0 0 0 0 0 0 0 0 0 0 0 1 0"/>
    <feBlend mode="normal" in2="BackgroundImageFix" result="effect1_dropShadow_133_12470"/>
    <feBlend mode="normal" in="SourceGraphic" in2="effect1_dropShadow_133_12470" result="shape"/>
    </filter>
    <linearGradient id="paint0_linear_133_12470" x1="639.382" y1="169.657" x2="633.761" y2="169.657" gradientUnits="userSpaceOnUse">
    <stop stop-color="#77C6B3"/>
    <stop offset="1" stop-color="#B9E0D7"/>
    </linearGradient>
    <linearGradient id="paint1_linear_133_12470" x1="537.985" y1="111.049" x2="532.386" y2="111.049" gradientUnits="userSpaceOnUse">
    <stop stop-color="#77C6B3"/>
    <stop offset="1" stop-color="#ADD6CC"/>
    </linearGradient>
    <clipPath id="clip0_133_12470">
    <rect width="19.4" height="55.23" fill="white" transform="translate(1163 828)"/>
    </clipPath>
    <clipPath id="clip1_133_12470">
    <rect width="129" height="200" fill="white" transform="translate(521)"/>
    </clipPath>
    </defs>
</svg>
