<svg width="100%" height="100%" viewBox="30 240 1130 490" fill="none" xmlns="http://www.w3.org/2000/svg">
<path d="M998.36 562.5L998.32 578.8L873.57 651.3L873.61 634.99L998.36 562.5Z" fill="#FFF6D7"/>
<path d="M873.61 634.99L873.57 651.3L748 578.8L748.05 562.5L873.61 634.99Z" fill="#FFF6D7"/>
<path d="M998.36 562.5L873.61 634.99L748.05 562.5L872.8 490L998.36 562.5Z" fill="#FFF6D7"/>
<path fill-rule="evenodd" clip-rule="evenodd" d="M872.799 489.133L999.111 562.068L999.069 579.232L873.571 652.167L747.249 579.232L747.301 562.068L872.799 489.133ZM872.801 490.867L749.546 562.498L873.609 634.123L996.864 562.502L872.801 490.867ZM997.607 563.805L874.359 635.422L874.323 649.995L997.571 578.368L997.607 563.805ZM872.823 650.003L872.859 635.422L748.796 563.797L748.751 578.368L872.823 650.003Z" fill="black"/>
<path d="M375 779.367L499.5 851.867L873.5 635.367L750 563.867L375 779.367Z" fill="#FFF6D7"/>
<path d="M748.89 707.857L748.93 724.167L874.5 651.667L874.45 635.367L748.89 707.857Z" fill="#FFF6D7"/>
<path fill-rule="evenodd" clip-rule="evenodd" d="M749.701 562L623.765 634.717L624.515 636.016L749.699 563.734L872.954 635.365L748.139 707.424L748.183 725.464L875.251 652.099L875.199 634.934L749.701 562ZM873.704 636.663L749.641 708.289L749.677 722.87L873.749 651.235L873.704 636.663Z" fill="black"/>
<path d="M499.14 707.367L499.18 723.667L623.93 796.167L623.89 779.857L499.14 707.367Z" fill="#FFF6D7"/>
<path d="M623.89 779.857L623.93 796.167L749.5 723.667L749.45 707.367L623.89 779.857Z" fill="#FFF6D7"/>
<path fill-rule="evenodd" clip-rule="evenodd" d="M500.636 707.369L625.075 635.516L624.325 634.217L498.389 706.934L498.431 724.099L623.929 797.034L750.251 724.099L750.196 706.07L623.891 778.99L500.636 707.369ZM499.893 708.672L623.141 780.289L623.177 794.862L499.929 723.235L499.893 708.672ZM624.677 794.87L624.641 780.289L748.704 708.664L748.749 723.235L624.677 794.87Z" fill="black"/>
<path d="M997.507 435.98L1011.64 427.865L1136.8 499.651L1122.66 507.772L997.507 435.98Z" fill="#FFF6D7"/>
<path d="M1122.66 507.772L1136.8 499.651L1136.8 644.648L1122.66 652.755L1122.66 507.772Z" fill="#FFF6D7"/>
<path d="M997.5 435.98L1122.66 507.772L1122.66 652.755L997.5 580.968L997.5 435.98Z" fill="#FFF6D7"/>
<path fill-rule="evenodd" clip-rule="evenodd" d="M1011.64 427L997.503 435.117L996.75 434.685V435.55L996 435.98L996.75 436.41L996.75 581.403L1122.66 653.619L1137.55 645.083L1137.55 499.217L1011.64 427ZM1122.66 506.907L999.014 435.98L1011.64 428.729L1135.3 499.652L1122.66 506.907ZM1136.05 500.947L1136.05 644.214L1123.41 651.46L1123.41 508.206L1136.05 500.947ZM1121.91 508.206L1121.91 651.46L998.25 580.534L998.25 437.275L1121.91 508.206Z" fill="black"/>
<path d="M140.048 643.98L125.912 635.865L0.750015 707.651L14.8949 715.772L140.048 643.98Z" fill="#FFF6D7"/>
<path d="M14.8949 715.772L0.750015 707.651L0.751856 852.648L14.8931 860.755L14.8949 715.772Z" fill="#FFF6D7"/>
<path d="M140.055 643.98L14.8949 715.772L14.8931 860.755L140.055 788.968L140.055 643.98Z" fill="#FFF6D7"/>
<path fill-rule="evenodd" clip-rule="evenodd" d="M125.912 635L140.052 643.117L140.805 642.685V643.55L141.555 643.98L140.805 644.41L140.805 789.403L14.8932 861.619L0.00186712 853.083L1.52588e-05 707.217L125.912 635ZM14.8951 714.907L138.541 643.98L125.912 636.729L2.25695 707.652L14.8951 714.907ZM1.50004 708.947L1.50186 852.214L14.1431 859.46L14.1449 716.206L1.50004 708.947ZM15.6449 716.206L15.6431 859.46L139.305 788.534L139.305 645.275L15.6449 716.206Z" fill="black"/>
<path d="M997.507 298.98L1011.64 290.865L1136.8 362.651L1122.66 370.772L997.507 298.98Z" fill="#FFF6D7"/>
<path d="M1122.66 370.772L1136.8 362.651L1136.8 507.648L1122.66 515.755L1122.66 370.772Z" fill="#FFF6D7"/>
<path d="M997.5 298.98L1122.66 370.772L1122.66 515.755L997.5 443.968L997.5 298.98Z" fill="#FFF6D7"/>
<path fill-rule="evenodd" clip-rule="evenodd" d="M1011.64 290L997.503 298.117L996.75 297.685V298.55L996 298.98L996.75 299.41L996.75 444.403L1122.66 516.619L1137.55 508.083L1137.55 362.217L1011.64 290ZM1122.66 369.907L999.014 298.98L1011.64 291.729L1135.3 362.652L1122.66 369.907ZM1136.05 363.947L1136.05 507.214L1123.41 514.46L1123.41 371.206L1136.05 363.947ZM1121.91 371.206L1121.91 514.46L998.25 443.534L998.25 300.275L1121.91 371.206Z" fill="black"/>
<path d="M997.507 153.98L1011.64 145.865L1136.8 217.651L1122.66 225.772L997.507 153.98Z" fill="#FFF6D7"/>
<path d="M1122.66 225.772L1136.8 217.651L1136.8 362.648L1122.66 370.755L1122.66 225.772Z" fill="#FFF6D7"/>
<path d="M997.5 153.98L1122.66 225.772L1122.66 370.755L997.5 298.968L997.5 153.98Z" fill="#FFF6D7"/>
<path fill-rule="evenodd" clip-rule="evenodd" d="M1011.64 145L997.503 153.117L996.75 152.685V153.55L996 153.98L996.75 154.41L996.75 299.403L1122.66 371.619L1137.55 363.083L1137.55 217.217L1011.64 145ZM1122.66 224.907L999.014 153.98L1011.64 146.729L1135.3 217.652L1122.66 224.907ZM1136.05 218.947L1136.05 362.214L1123.41 369.46L1123.41 226.206L1136.05 218.947ZM1121.91 226.206L1121.91 369.46L998.25 298.534L998.25 155.275L1121.91 226.206Z" fill="black"/>
<path d="M997.507 8.98011L1011.64 0.864746L1136.8 72.6514L1122.66 80.7718L997.507 8.98011Z" fill="#FFF6D7"/>
<path d="M1122.66 80.7718L1136.8 72.6514L1136.8 217.648L1122.66 225.755L1122.66 80.7718Z" fill="#FFF6D7"/>
<path d="M997.5 8.98012L1122.66 80.7718L1122.66 225.755L997.5 153.968L997.5 8.98012Z" fill="#FFF6D7"/>
<path fill-rule="evenodd" clip-rule="evenodd" d="M1011.64 0L997.503 8.11737L996.75 7.68525V8.54984L996 8.98033L996.75 9.41047L996.75 154.403L1122.66 226.619L1137.55 218.083L1137.55 72.2169L1011.64 0ZM1122.66 79.907L999.014 8.97981L1011.64 1.72941L1135.3 72.6517L1122.66 79.907ZM1136.05 73.9467L1136.05 217.214L1123.41 224.46L1123.41 81.206L1136.05 73.9467ZM1121.91 81.2062L1121.91 224.46L998.25 153.534L998.25 10.2749L1121.91 81.2062Z" fill="black"/>
<path d="M625.36 779.5L625.32 795.8L500.57 868.3L500.61 851.99L625.36 779.5Z" fill="#FFF6D7"/>
<path d="M500.61 851.99L500.57 868.3L375 795.8L375.05 779.5L500.61 851.99Z" fill="#FFF6D7"/>
<path d="M625.36 779.5L500.61 851.99L375.05 779.5L499.8 707L625.36 779.5Z" fill="#FFF6D7"/>
<path fill-rule="evenodd" clip-rule="evenodd" d="M499.799 706.133L626.111 779.068L626.069 796.232L500.571 869.167L374.249 796.232L374.301 779.068L499.799 706.133ZM499.801 707.867L376.546 779.498L500.609 851.123L623.864 779.502L499.801 707.867ZM624.607 780.805L501.359 852.422L501.323 866.995L624.571 795.368L624.607 780.805ZM499.823 867.003L499.859 852.422L375.796 780.797L375.751 795.368L499.823 867.003Z" fill="black"/>
<path d="M500.5 851.5L376 924L2 707.5L125.5 636L500.5 851.5Z" fill="#FFF6D7"/>
<path d="M126.61 779.99L126.57 796.3L1 723.8L1.05 707.5L126.61 779.99Z" fill="#FFF6D7"/>
<path fill-rule="evenodd" clip-rule="evenodd" d="M125.799 634.133L251.735 706.851L250.985 708.15L125.801 635.867L2.54632 707.498L127.361 779.558L127.317 797.597L0.248672 724.232L0.301325 707.068L125.799 634.133ZM1.79603 708.797L125.859 780.422L125.823 795.003L1.75133 723.368L1.79603 708.797Z" fill="black"/>
<path d="M376.36 779.5L376.32 795.8L251.57 868.3L251.61 851.99L376.36 779.5Z" fill="#FFF6D7"/>
<path d="M251.61 851.99L251.57 868.3L126 795.8L126.05 779.5L251.61 851.99Z" fill="#FFF6D7"/>
<path fill-rule="evenodd" clip-rule="evenodd" d="M374.864 779.502L250.425 707.65L251.175 706.351L377.111 779.068L377.069 796.232L251.571 869.167L125.249 796.232L125.304 778.203L251.609 851.123L374.864 779.502ZM375.607 780.805L252.359 852.422L252.323 866.995L375.571 795.368L375.607 780.805ZM250.823 867.003L250.859 852.423L126.796 780.797L126.751 795.368L250.823 867.003Z" fill="black"/>
<path d="M501.36 851.5L501.32 867.8L376.57 940.3L376.61 923.99L501.36 851.5Z" fill="#FFF6D7"/>
<path d="M376.61 923.99L376.57 940.3L251 867.8L251.05 851.5L376.61 923.99Z" fill="#FFF6D7"/>
<path d="M501.36 851.5L376.61 923.99L251.05 851.5L375.8 779L501.36 851.5Z" fill="#FFF6D7"/>
<path fill-rule="evenodd" clip-rule="evenodd" d="M375.799 778.133L502.111 851.068L502.069 868.232L376.571 941.167L250.249 868.232L250.301 851.068L375.799 778.133ZM375.801 779.867L252.546 851.498L376.609 923.123L499.864 851.502L375.801 779.867ZM500.607 852.805L377.359 924.422L377.323 938.995L500.571 867.368L500.607 852.805ZM375.823 939.003L375.859 924.422L251.796 852.797L251.751 867.368L375.823 939.003Z" fill="black"/>
<path d="M1123.36 635.5L1123.32 651.8L998.57 724.3L998.61 707.99L1123.36 635.5Z" fill="#FFF6D7"/>
<path d="M998.61 707.99L998.57 724.3L873 651.8L873.05 635.5L998.61 707.99Z" fill="#FFF6D7"/>
<path d="M1123.36 635.5L998.61 707.99L873.05 635.5L997.8 563L1123.36 635.5Z" fill="#FFF6D7"/>
<path fill-rule="evenodd" clip-rule="evenodd" d="M997.799 562.133L1124.11 635.068L1124.07 652.232L998.571 725.167L872.249 652.232L872.301 635.068L997.799 562.133ZM997.801 563.867L874.546 635.498L998.609 707.123L1121.86 635.502L997.801 563.867ZM1122.61 636.805L999.359 708.422L999.323 722.995L1122.57 651.368L1122.61 636.805ZM997.823 723.003L997.859 708.422L873.796 636.797L873.751 651.368L997.823 723.003Z" fill="black"/>
<g clip-path="url(#clip0_171_1262)">
<path d="M943.459 484.078C889.091 452.47 844.888 477.828 844.711 540.744L872.279 556.786C872.397 511.488 904.22 493.214 943.37 515.982C982.491 538.75 1014.11 593.899 1013.99 639.197L1041.56 655.238C1041.73 592.322 997.826 515.685 943.459 484.078Z" fill="#3658D3"/>
<path d="M1041.56 655.684C1041.56 655.684 1041.7 655.684 1041.76 655.625C1041.91 655.536 1042 655.387 1042 655.238C1042.18 592.262 998.063 515.327 943.695 483.69C917.162 468.274 892.194 465.774 873.402 476.696C854.728 487.53 844.386 510.268 844.297 540.774C844.297 540.922 844.386 541.071 844.504 541.161L872.072 557.202C872.072 557.202 872.367 557.292 872.515 557.202C872.663 557.113 872.752 556.964 872.752 556.815C872.811 535.149 880.109 518.988 893.317 511.339C906.613 503.631 924.312 505.417 943.163 516.399C982.107 539.047 1013.69 594.137 1013.55 639.226C1013.55 639.375 1013.63 639.524 1013.75 639.613L1041.32 655.625C1041.32 655.625 1041.47 655.684 1041.56 655.684ZM943.488 484.077L943.252 484.464C997.176 515.833 1040.94 591.934 1041.11 654.464L1014.43 638.958C1014.43 593.631 982.698 538.363 943.607 515.625C924.46 504.494 906.436 502.708 892.873 510.565C879.548 518.303 872.102 534.434 871.865 556.042L845.184 540.536C845.331 510.506 855.496 488.125 873.845 477.5C892.371 466.756 917.014 469.256 943.252 484.524L943.488 484.137V484.077Z" fill="#403D8B"/>
<mask id="mask0_171_1262" style="mask-type:luminance" maskUnits="userSpaceOnUse" x="828" y="479" width="198" height="186">
<path d="M927.71 493.244C873.343 461.637 829.139 486.994 828.962 549.911L856.53 565.952C856.648 520.655 888.471 502.381 927.621 525.149C966.742 547.917 998.358 603.065 998.24 648.363L1025.81 664.405C1025.99 601.488 982.078 524.851 927.74 493.274L927.71 493.244Z" fill="white"/>
</mask>
<g mask="url(#mask0_171_1262)">
<path d="M838.831 504.226C831.976 516.905 828.726 531.399 828.667 549.911L927.444 607.44L838.831 504.226Z" fill="#4FA607"/>
<path d="M866.96 479.464C854.668 483.72 845.716 491.577 838.831 504.256L927.444 607.47L866.96 479.464Z" fill="#85B208"/>
<path d="M905.608 480.03C890.451 475.357 879.222 475.208 866.931 479.464L927.444 607.441L905.608 480.03Z" fill="#FFE04A"/>
<path d="M927.769 489.821C920.471 485.566 913.173 482.381 905.638 480.06L927.474 607.47L950.078 505.952C942.484 499.435 935.126 494.107 927.769 489.821Z" fill="#FFCE45"/>
<path d="M1017.15 609.94L927.444 607.44L1026.25 665C1026.31 646.518 1023.68 630.536 1017.15 609.97V609.94Z" fill="#FF637B"/>
<path d="M950.077 505.923L927.474 607.441L989.937 552.351C977.911 533.661 965.206 518.899 950.077 505.923Z" fill="#FFB59C"/>
<path d="M989.937 552.351L927.474 607.44L1017.18 609.94C1010.65 589.345 1001.99 571.012 989.967 552.351H989.937Z" fill="#FF8CFE"/>
</g>
<path d="M827.485 536.161C827.485 536.161 827.662 536.131 827.81 536.191L891.898 573.571L882.561 579.048L818.473 541.667C818.473 541.667 818.207 541.577 818.148 541.637L827.485 536.161Z" fill="#A8A8A8"/>
<path d="M818.473 541.667L882.561 579.048L879.134 587.976L818.384 542.678C817.823 542.262 817.882 541.339 818.443 541.667H818.473Z" fill="#121246"/>
<path d="M894.912 557.5C902.033 553.333 911.902 553.928 922.776 560.238C944.434 572.827 961.897 603.303 961.837 628.363L944.641 638.452C944.7 613.393 927.237 582.916 905.579 570.327C894.705 563.988 884.837 563.422 877.716 567.589L894.912 557.5Z" fill="#3658D3"/>
<path d="M944.641 638.928C944.641 638.928 944.789 638.928 944.877 638.869L962.074 628.78C962.074 628.78 962.281 628.542 962.281 628.393C962.34 603.244 944.729 572.5 923.012 559.881C912.345 553.661 902.299 552.708 894.705 557.143L877.509 567.262C877.302 567.381 877.213 567.649 877.361 567.887C877.479 568.095 877.745 568.155 877.952 568.036C885.25 563.78 894.971 564.732 905.372 570.774C926.853 583.274 944.257 613.661 944.198 638.512C944.198 638.661 944.286 638.809 944.434 638.899C944.493 638.928 944.582 638.958 944.641 638.958V638.928ZM961.394 628.125L945.084 637.708C944.789 612.708 927.326 582.47 905.815 569.97C897.542 565.149 889.623 563.482 882.975 565.059L895.178 557.887C902.476 553.631 912.198 554.583 922.598 560.625C944.02 573.065 961.365 603.303 961.424 628.095L961.394 628.125Z" fill="#403D8B"/>
<path d="M905.579 570.357C927.237 582.946 944.7 613.422 944.641 638.482L866.31 592.916C866.369 567.857 883.98 557.767 905.609 570.357H905.579Z" fill="#121246"/>
<path d="M944.641 638.779C944.641 638.779 944.73 638.779 944.789 638.75C944.877 638.69 944.936 638.601 944.936 638.482C944.995 613.393 927.415 582.708 905.727 570.089C895.149 563.928 885.162 562.946 877.627 567.291C870.152 571.637 866.015 580.714 865.985 592.916C865.985 593.035 866.044 593.125 866.133 593.184L944.464 638.75C944.464 638.75 944.552 638.779 944.611 638.779H944.641ZM905.579 570.357L905.431 570.625C926.794 583.065 944.168 613.154 944.345 637.976L866.606 592.768C866.665 580.893 870.713 572.053 877.952 567.827C885.28 563.571 895.06 564.553 905.461 570.625L905.609 570.357H905.579Z" fill="#121246"/>
</g>
<g clip-path="url(#clip1_171_1262)">
<mask id="mask1_171_1262" style="mask-type:luminance" maskUnits="userSpaceOnUse" x="1021" y="174" width="76" height="162">
<path d="M1021 292.04L1021.33 174L1096.05 217.14L1095.71 335.17L1021 292.04Z" fill="white"/>
</mask>
<g mask="url(#mask1_171_1262)">
<path d="M1024.62 176.6L1022.91 175.61L1022.76 227.73L1024.47 228.72L1024.62 176.6Z" fill="black"/>
<path d="M1039.91 185.43L1038.21 184.45L1038.1 226.13L1031.45 180.55L1029.67 179.52L1029.52 231.64L1031.2 232.61L1031.32 190.7L1037.95 236.5L1039.76 237.55L1039.91 185.43Z" fill="black"/>
<path d="M1052.4 192.64L1050.7 191.66L1050.55 243.78L1052.25 244.76L1052.4 192.64Z" fill="black"/>
<path d="M1064.58 199.67L1056.01 194.72L1055.99 200.75L1059.43 202.74L1059.3 248.83L1061 249.81L1061.13 203.72L1064.57 205.71L1064.58 199.67Z" fill="black"/>
<path d="M1080.67 208.96L1072.09 204.01L1072.07 210.04L1075.51 212.03L1075.38 258.11L1077.08 259.1L1077.21 213.01L1080.65 214.99L1080.67 208.96Z" fill="black"/>
<path d="M1089.24 260.55C1088.31 260.01 1087.47 258.72 1086.71 256.66C1085.96 254.61 1085.37 251.9 1084.94 248.54C1084.51 245.18 1084.3 241.37 1084.31 237.13C1084.32 232.9 1084.56 229.39 1085 226.57C1085.45 223.75 1086.06 221.75 1086.81 220.57C1087.57 219.39 1088.42 219.07 1089.35 219.61C1090.28 220.15 1091.12 221.44 1091.87 223.49C1092.61 225.54 1093.2 228.23 1093.62 231.55C1094.05 234.87 1094.25 238.64 1094.24 242.86C1094.23 247.08 1094 250.69 1093.56 253.53C1093.12 256.38 1092.52 258.39 1091.77 259.57C1091.01 260.76 1090.17 261.08 1089.23 260.54M1089.36 213.27C1088.1 212.54 1086.96 212.96 1085.93 214.53C1084.91 216.11 1084.1 218.75 1083.51 222.46C1082.92 226.17 1082.62 230.73 1082.6 236.14C1082.58 241.57 1082.86 246.47 1083.43 250.85C1084 255.24 1084.79 258.81 1085.8 261.56C1086.81 264.32 1087.94 266.06 1089.21 266.79C1090.48 267.52 1091.6 267.08 1092.62 265.49C1093.64 263.9 1094.45 261.25 1095.05 257.54C1095.64 253.83 1095.95 249.26 1095.97 243.83C1095.99 238.4 1095.7 233.53 1095.14 229.14C1094.56 224.76 1093.77 221.19 1092.77 218.44C1091.77 215.7 1090.63 213.97 1089.38 213.24" fill="black"/>
<path d="M1043.62 245.8L1039.93 243.67L1037.02 285.63L1033.89 240.18L1030.9 238.46L1027.51 280.14L1024.87 234.98L1021.17 232.84L1024.86 294.26L1029.51 296.95L1032.31 264.85L1034.94 300.09L1039.6 302.77L1043.62 245.8Z" fill="black"/>
<path d="M1050.33 249.67L1046.76 247.62L1046.6 306.81L1050.16 308.87L1050.33 249.67Z" fill="black"/>
<path d="M1067.83 259.78L1064.26 257.72L1064.15 296.74L1058.75 254.54L1054.62 252.15L1054.45 311.35L1058 313.4L1058.11 273.97L1063.48 316.56L1067.66 318.97L1067.83 259.78Z" fill="black"/>
<path d="M1081.74 267.81L1078.17 265.75L1078 324.95L1081.57 327.01L1081.74 267.81Z" fill="black"/>
<path d="M1095.54 275.78L1084.94 269.66L1084.9 281.75L1088.45 283.8L1088.31 330.9L1091.84 332.93L1091.97 285.83L1095.5 287.87L1095.54 275.78Z" fill="black"/>
</g>
</g>
<path d="M537.525 708.425L540.95 706.437C541.566 706.082 542.491 706.011 543.712 706.2C544.932 706.401 546.355 706.851 547.99 707.538C549.614 708.224 551.344 709.088 553.146 710.13C555.991 711.775 558.005 713.219 559.191 714.474C560.376 715.729 560.494 716.628 559.57 717.173L556.145 719.162L537.525 708.425ZM593.716 729.815L567.535 720.002C567.878 719.244 567.606 718.238 566.729 717.007C565.828 715.776 564.417 714.403 562.497 712.9C560.565 711.408 558.29 709.893 555.647 708.366C552.364 706.472 549.27 704.922 546.367 703.714C543.475 702.507 540.867 701.726 538.591 701.394C536.316 701.063 534.526 701.264 533.234 702.022L527 705.644L581.366 737L584.199 735.355L562.877 723.068L564.903 721.896L590.362 731.78L593.716 729.839" fill="black"/>
<path d="M607.678 721.706L599.524 717.007L592.969 720.807L577.988 712.177L583.784 708.804L575.724 704.164L569.929 707.526L554.876 698.849L561.431 695.037L553.312 690.362L543.878 695.831L598.256 727.187L607.678 721.706Z" fill="black"/>
<path d="M596.051 705.431L573.248 689.025L601.693 702.164L596.051 705.443M626.713 710.675L566.124 682.929L562.687 684.917L610.843 719.872L613.77 718.179L603.02 710.438L610.381 706.165L623.797 712.356L626.725 710.663" fill="black"/>
<path d="M587.399 679.969L590.22 678.335C591.915 677.353 594.83 677.578 599.002 678.998C603.162 680.419 608.271 682.869 614.315 686.361C620.36 689.853 624.674 692.824 627.139 695.227C629.617 697.63 630.008 699.322 628.313 700.305L625.492 701.938L587.399 679.969ZM617.29 684.633C611.862 681.496 606.801 678.927 602.143 676.927C597.473 674.926 593.42 673.624 589.983 672.997C586.534 672.381 583.95 672.571 582.231 673.577L576.448 676.927L630.814 708.283L636.598 704.933C638.316 703.939 638.648 702.447 637.569 700.447C636.491 698.458 634.203 696.103 630.707 693.404C627.211 690.693 622.742 687.77 617.302 684.633" fill="black"/>
<path d="M605.616 660L602.451 661.835L618.997 675.791L594.819 666.262L591.654 668.108L625.741 681.319L651.591 696.221L654.447 694.564L628.443 679.578L605.616 660Z" fill="black"/>
<path d="M675.908 679.878L668.816 675.783L660.483 680.622L707.969 708L710.474 706.553L690.267 694.89L695.329 691.954L688.258 687.88L683.196 690.816L670.079 683.258L675.908 679.878Z" fill="black"/>
<path d="M697.885 686.339C694.417 684.344 691.622 682.482 689.49 680.746C687.357 679.019 686.001 677.54 685.39 676.32C684.79 675.1 684.966 674.221 685.897 673.684C686.829 673.146 688.361 673.032 690.463 673.384C692.575 673.725 695.132 674.511 698.124 675.731C701.126 676.961 704.356 678.574 707.813 680.57C711.271 682.565 714.149 684.468 716.282 686.205C718.414 687.931 719.77 689.41 720.371 690.63C720.982 691.85 720.806 692.729 719.864 693.266C718.922 693.804 717.41 693.907 715.298 693.566C713.197 693.215 710.64 692.439 707.648 691.209C704.646 689.978 701.395 688.355 697.885 686.329M710.277 679.133C705.37 676.3 700.753 674.015 696.426 672.257C692.098 670.51 688.372 669.383 685.266 668.897C682.15 668.401 679.893 668.566 678.475 669.393C677.056 670.22 676.787 671.523 677.647 673.322C678.495 675.121 680.452 677.272 683.496 679.774C686.539 682.276 690.515 684.933 695.422 687.766C700.329 690.599 704.956 692.894 709.294 694.652C713.631 696.409 717.358 697.536 720.485 698.022C723.601 698.519 725.858 698.353 727.276 697.526C728.694 696.699 728.963 695.396 728.104 693.597C727.235 691.798 725.278 689.648 722.234 687.145C719.18 684.643 715.205 681.976 710.288 679.143" fill="black"/>
<path d="M699.884 665.526L702.876 663.789C703.414 663.479 704.222 663.417 705.288 663.593C706.354 663.768 707.607 664.151 709.025 664.751C710.443 665.35 711.955 666.105 713.528 667.015C716.013 668.452 717.773 669.713 718.808 670.809C719.843 671.905 719.947 672.691 719.139 673.167L716.147 674.904L699.884 665.526ZM748.965 684.209L726.096 675.638C726.396 674.976 726.158 674.097 725.392 673.022C724.605 671.947 723.373 670.747 721.696 669.434C720.009 668.131 718.011 666.808 715.702 665.474C712.835 663.82 710.143 662.466 707.607 661.401C705.081 660.346 702.803 659.664 700.816 659.374C698.828 659.085 697.254 659.271 696.136 659.922L690.691 663.086L738.177 690.474L740.652 689.037L722.028 678.305L723.798 677.282L746.035 685.915L748.965 684.219" fill="black"/>
<path d="M720.692 653.451L722.556 652.366C723.394 651.88 724.564 651.797 726.055 652.107C727.556 652.428 729.419 653.224 731.666 654.516C733.685 655.684 735.113 656.708 735.931 657.587C736.749 658.476 736.801 659.127 736.055 659.562L733.685 660.937L720.692 653.441M740.01 664.576L742.867 662.922C743.799 662.384 745.134 662.374 746.874 662.891C748.613 663.418 750.621 664.328 752.909 665.651C755.062 666.892 756.584 668.009 757.464 668.991C758.354 669.983 758.282 670.769 757.278 671.359L754.534 672.951L740.01 664.576ZM756.077 664.69C752.816 662.808 749.969 661.433 747.515 660.564C745.062 659.696 743.012 659.303 741.376 659.386C741.087 658.579 740.238 657.607 738.84 656.48C737.442 655.354 735.631 654.134 733.384 652.841C729.502 650.598 726.034 649.067 722.98 648.23C719.937 647.392 717.545 647.475 715.816 648.478L711.561 650.949L759.048 678.337L764.638 675.091C766.243 674.16 766.264 672.785 764.669 670.986C763.075 669.187 760.218 667.088 756.066 664.69" fill="black"/>
<path d="M759.058 658.236L739.151 643.896L763.996 655.372L759.058 658.236ZM785.84 662.806L732.919 638.571L729.927 640.308L771.978 670.85L774.535 669.372L765.146 662.61L771.564 658.877L783.283 664.285L785.84 662.806Z" fill="black"/>
<path d="M756.18 633.289L749.078 629.195L739.347 634.85L746.439 638.934L750.093 636.815L790.488 660.109L792.931 658.692L752.536 635.398L756.18 633.289Z" fill="black"/>
<path d="M768.158 626.331L761.066 622.236L751.325 627.892L758.416 631.986L762.071 629.867L802.466 653.15L804.919 651.734L764.524 628.44L768.158 626.331Z" fill="black"/>
<path d="M819.527 643.256L812.404 639.151L807.539 641.974L767.175 618.69L764.69 620.137L812.187 647.516L819.527 643.256Z" fill="black"/>
<path d="M831.38 636.38L824.248 632.265L818.533 635.594L805.448 628.047L810.5 625.11L803.47 621.057L798.408 623.983L785.26 616.405L790.975 613.086L783.884 608.992L775.653 613.779L823.14 641.157L831.38 636.38Z" fill="black"/>
<path d="M836.525 628.771C835.677 628.285 834.838 627.871 833.999 627.54C833.151 627.21 832.426 626.982 831.784 626.858C831.142 626.744 830.697 626.755 830.438 626.899C830.179 627.044 830.148 627.313 830.355 627.685C830.562 628.057 830.945 628.481 831.525 628.977C832.105 629.463 832.809 629.949 833.658 630.446C834.507 630.942 835.345 631.345 836.204 631.686C837.053 632.028 837.799 632.255 838.43 632.358C839.062 632.462 839.507 632.441 839.776 632.286C840.045 632.131 840.066 631.883 839.869 631.521C839.673 631.159 839.279 630.735 838.689 630.239C838.099 629.743 837.374 629.257 836.536 628.771M809.619 609.788C806.773 608.144 804.081 606.81 801.524 605.797C798.967 604.784 796.762 604.133 794.888 603.853C793.025 603.574 791.648 603.688 790.788 604.195C789.929 604.701 789.733 605.477 790.229 606.542C790.726 607.606 791.834 608.847 793.563 610.274C795.292 611.701 797.476 613.19 800.147 614.72C801.017 615.216 801.928 615.723 802.911 616.24L805.789 615.454C804.671 614.896 803.698 614.368 802.859 613.882C801.307 612.983 800.023 612.125 799.019 611.308C798.014 610.491 797.342 609.788 797.021 609.178C796.689 608.568 796.762 608.134 797.228 607.865C797.694 607.596 798.418 607.544 799.422 607.689C800.416 607.844 801.627 608.206 803.056 608.795C804.485 609.374 806.027 610.15 807.694 611.111C809.619 612.228 811.09 613.2 812.073 614.027C813.057 614.854 813.678 615.599 813.936 616.24C814.216 616.953 814.558 617.584 814.951 618.152C815.355 618.711 815.966 619.321 816.794 619.972C817.612 620.623 818.74 621.368 820.189 622.205L824.092 624.449L826.069 623.301L822.902 621.471C821.794 620.83 820.997 620.282 820.541 619.817C820.075 619.352 819.775 618.876 819.641 618.39C819.434 617.449 818.564 616.271 817.001 614.834C815.448 613.396 812.994 611.711 809.64 609.788" fill="black"/>
<g clip-path="url(#clip2_171_1262)">
<mask id="mask2_171_1262" style="mask-type:luminance" maskUnits="userSpaceOnUse" x="37" y="675" width="272" height="157">
<path d="M37 709.055L95.7128 675L309 797.946L250.287 832L37 709.055Z" fill="white"/>
</mask>
<g mask="url(#mask2_171_1262)">
<path d="M106.288 683.843L94.1066 676.826L70.7137 690.384L82.8952 697.417L85.0421 696.163L75.2778 690.527L83.7381 685.621L92.3414 690.574L94.4565 689.336L85.869 684.383L94.377 679.445L104.157 685.081L106.288 683.843Z" fill="black"/>
<path d="M118.326 699.068L115.925 697.671L97.3985 702.64L105.906 691.908L103.505 690.527L93.7568 703.672L95.6174 704.752L118.326 699.068Z" fill="black"/>
<path d="M117.515 706.244C119.376 705.419 121.253 705.038 123.129 705.101C125.006 705.165 126.675 705.609 128.138 706.467C129.601 707.324 130.333 708.229 130.365 709.261C130.397 710.293 129.633 711.309 128.059 712.341L117.5 706.26M129.951 705.419C128.472 704.561 126.803 703.99 124.926 703.704C123.065 703.418 121.173 703.434 119.217 703.799C117.261 704.149 115.432 704.831 113.715 705.816C111.997 706.8 110.804 707.88 110.232 709.007C109.628 710.134 109.58 711.229 110.105 712.309C110.614 713.389 111.631 714.357 113.142 715.23C114.653 716.103 116.466 716.659 118.517 716.897C120.569 717.12 122.62 717.008 124.656 716.532L123.161 715.071C121.698 715.357 120.251 715.421 118.804 715.246C117.372 715.071 116.116 714.69 115.066 714.087C114.017 713.484 113.333 712.817 112.967 712.071C112.601 711.325 112.601 710.515 113.031 709.689C113.444 708.864 114.303 708.054 115.623 707.276L128.504 714.706L129.236 714.325C130.969 713.325 132.13 712.277 132.718 711.229C133.307 710.182 133.355 709.15 132.877 708.149C132.4 707.149 131.43 706.26 129.983 705.419" fill="black"/>
<path d="M150.927 717.66C149.766 717.009 148.446 716.596 146.967 716.389C145.472 716.183 144.073 716.247 142.705 716.564L145.679 714.834L143.469 713.563L127.232 722.978L129.458 724.264L138.396 719.073C140.209 718.025 141.958 717.517 143.707 717.533C145.441 717.533 147.11 718.009 148.701 718.93L150.911 717.644" fill="black"/>
<path d="M168.245 727.836L165.987 726.534L156.048 732.297C155.046 732.869 154.044 733.266 152.994 733.456C151.945 733.647 150.943 733.663 149.973 733.504C148.987 733.345 148.112 733.043 147.317 732.583C146.22 731.948 145.647 731.218 145.631 730.424C145.631 729.614 146.315 728.804 147.731 727.995L158.083 721.978L155.825 720.676L144.948 726.979C143.755 727.677 142.96 728.408 142.578 729.154C142.196 729.916 142.196 730.646 142.594 731.376C142.976 732.107 143.707 732.758 144.773 733.377C145.838 733.996 146.951 734.377 148.176 734.599C149.432 734.806 150.704 734.821 151.993 734.647L148.255 736.822C146.792 737.663 145.345 738.092 143.914 738.092C142.467 738.076 141.147 737.727 139.922 737.028C138.698 736.33 138.046 735.615 137.871 734.869C137.696 734.139 138.205 733.297 139.382 732.377L136.662 731.694C135.295 732.726 134.738 733.805 134.977 734.917C135.231 736.028 136.233 737.092 138.014 738.124C139.97 739.251 142.037 739.823 144.216 739.838C146.411 739.854 148.589 739.235 150.768 737.965L168.245 727.836Z" fill="black"/>
<path d="M179.457 751.126C178.407 750.523 177.707 749.809 177.373 749.015C177.039 748.205 177.119 747.38 177.596 746.522C178.073 745.665 178.964 744.871 180.236 744.141C181.508 743.411 182.891 742.887 184.37 742.617C185.849 742.347 187.297 742.299 188.664 742.49C190.064 742.68 191.272 743.077 192.322 743.68C193.371 744.284 194.055 744.998 194.389 745.808C194.707 746.618 194.644 747.459 194.167 748.316C193.689 749.174 192.831 749.967 191.574 750.698C190.318 751.428 188.935 751.92 187.471 752.206C185.993 752.476 184.545 752.523 183.13 752.333C181.715 752.158 180.49 751.761 179.441 751.158M197.999 733.996L195.757 732.71L169.994 747.649L172.189 748.92L175.688 746.919C174.988 747.951 174.845 748.951 175.242 749.936C175.64 750.92 176.53 751.793 177.898 752.587C179.266 753.381 180.888 753.905 182.717 754.143C184.577 754.381 186.47 754.318 188.41 753.968C190.35 753.619 192.147 752.952 193.801 751.984C195.455 751.015 196.568 749.983 197.188 748.872C197.792 747.745 197.888 746.649 197.442 745.57C197.013 744.506 196.107 743.585 194.739 742.807C193.371 742.029 191.861 741.521 190.175 741.267C188.489 741.045 186.772 741.108 185.022 741.505L197.967 733.996" fill="black"/>
<path d="M220.581 758.001L218.339 756.715L208.352 762.51C207.35 763.081 206.332 763.462 205.283 763.653C204.233 763.859 203.215 763.859 202.245 763.7C201.275 763.542 200.384 763.24 199.605 762.779C198.508 762.144 197.951 761.43 197.951 760.62C197.951 759.811 198.635 759.001 200.019 758.191L210.435 752.158L208.177 750.856L197.252 757.191C196.059 757.89 195.264 758.62 194.882 759.366C194.5 760.128 194.5 760.858 194.898 761.589C195.28 762.319 196.027 762.986 197.077 763.589C198.126 764.192 199.255 764.589 200.512 764.812C201.768 765.018 203.056 765.034 204.36 764.859L202.166 766.177L204.344 767.431L220.581 758.017" fill="black"/>
<path d="M221.026 774.226C220.008 773.639 219.341 772.956 219.007 772.146C218.673 771.353 218.72 770.527 219.15 769.701C219.579 768.86 220.358 768.114 221.487 767.463C222.616 766.812 223.92 766.352 225.352 766.098C226.783 765.859 228.198 765.828 229.598 766.002C230.981 766.193 232.19 766.574 233.224 767.161C234.257 767.749 234.925 768.479 235.243 769.305C235.545 770.13 235.482 770.956 235.068 771.797C234.623 772.623 233.876 773.353 232.81 773.972C231.745 774.591 230.472 775.036 229.041 775.274C227.594 775.528 226.163 775.56 224.732 775.385C223.3 775.21 222.076 774.829 221.058 774.226M234.75 765.796C233.414 765.018 231.824 764.51 229.995 764.256C228.167 764.002 226.306 764.034 224.413 764.367C222.521 764.685 220.819 765.288 219.293 766.177C217.766 767.066 216.732 768.05 216.16 769.162C215.603 770.257 215.54 771.337 215.969 772.4C216.399 773.464 217.289 774.369 218.625 775.147C219.961 775.925 221.424 776.369 223.189 776.608C224.954 776.846 226.624 776.798 228.23 776.465L224.763 778.465C222.775 779.624 220.74 780.259 218.689 780.37C216.621 780.481 214.713 780.037 212.948 779.021C211.5 778.195 210.642 777.29 210.34 776.338C210.053 775.385 210.34 774.401 211.167 773.369L208.272 772.877C207.334 774.179 207.08 775.464 207.525 776.687C207.97 777.925 209.147 779.084 211.023 780.18C212.614 781.101 214.315 781.688 216.144 781.958C217.957 782.228 219.802 782.18 221.662 781.799C223.539 781.418 225.352 780.72 227.101 779.703L242.622 770.702L240.412 769.432L237.024 771.353C237.613 770.416 237.708 769.432 237.279 768.431C236.865 767.415 236.007 766.542 234.718 765.796" fill="black"/>
<path d="M65.3386 695.21L63.0964 693.924L37.334 708.864L39.5762 710.15L49.5472 704.355C50.5491 703.783 51.5669 703.402 52.6324 703.196C53.6978 703.006 54.7156 702.99 55.6857 703.148C56.6558 703.307 57.5304 703.609 58.3255 704.069C59.4228 704.704 59.9794 705.419 59.9953 706.228C60.0112 707.038 59.2956 707.848 57.8644 708.689L47.5117 714.706L49.7699 716.008L60.5837 709.737C61.8082 709.023 62.6034 708.292 63.0168 707.53C63.4144 706.752 63.4303 706.022 63.0327 705.292C62.6511 704.561 61.9355 703.91 60.9018 703.307C59.8681 702.704 58.7072 702.291 57.4509 702.085C56.1946 701.862 54.9065 701.847 53.6024 702.037L65.3704 695.21" fill="black"/>
<path d="M65.5772 723.216C64.5276 722.613 63.8438 721.898 63.5257 721.089C63.2077 720.279 63.2713 719.438 63.7484 718.58C64.2254 717.723 65.0683 716.929 66.3405 716.199C67.6127 715.469 68.9485 714.976 70.4434 714.707C71.9383 714.437 73.3854 714.389 74.7848 714.579C76.2002 714.754 77.4247 715.151 78.4743 715.754C79.5238 716.358 80.1759 717.072 80.4621 717.898C80.7643 718.723 80.6688 719.565 80.1759 720.438C79.6988 721.295 78.8559 722.073 77.6791 722.756C76.5023 723.438 75.1506 723.931 73.6716 724.216C72.1768 724.502 70.7137 724.55 69.2984 724.391C67.8672 724.232 66.6267 723.835 65.5772 723.232M80.0009 714.357C78.6333 713.579 77.0271 713.055 75.1824 712.801C73.3377 712.547 71.4294 712.595 69.4733 712.96C67.5173 713.309 65.7203 713.96 64.0823 714.913C62.4443 715.865 61.2834 716.913 60.6791 718.056C60.0748 719.184 59.9953 720.279 60.4088 721.359C60.8541 722.422 61.7605 723.359 63.1282 724.153C64.4163 724.899 65.9429 725.375 67.7081 725.582C69.4574 725.788 71.1908 725.725 72.9242 725.375L69.4733 727.423L71.6838 728.693L87.9205 719.279L85.6623 717.977L82.2114 719.977C82.7998 718.993 82.8952 717.993 82.5136 716.993C82.116 715.992 81.2891 715.103 80.0009 714.357Z" fill="black"/>
<path d="M100.627 726.249C99.609 725.661 98.5117 725.232 97.3667 724.931C96.2058 724.645 95.0608 724.55 93.884 724.661C92.7231 724.772 91.6417 725.105 90.6399 725.693C89.7016 726.233 89.145 726.804 89.0178 727.392C88.8588 727.979 88.9542 728.551 89.2881 729.09C89.6221 729.646 90.1469 730.281 90.8625 731.027L91.2442 731.424C91.9757 732.17 92.5005 732.774 92.8185 733.202C93.1366 733.647 93.2797 734.06 93.2161 734.472C93.1525 734.885 92.8185 735.282 92.1983 735.631C91.2601 736.171 90.2264 736.362 89.0973 736.219C87.9682 736.06 86.9027 735.711 85.9168 735.155C84.7559 734.488 84.1038 733.774 83.9289 732.996C83.754 732.218 84.0879 731.488 84.9626 730.805L82.3704 729.979C81.5753 730.63 81.13 731.297 81.0187 732.027C80.9074 732.742 81.13 733.472 81.6707 734.187C82.2114 734.901 83.0384 735.584 84.1516 736.235C85.2011 736.838 86.3461 737.298 87.5229 737.6C88.7156 737.902 89.9242 737.997 91.1328 737.902C92.3574 737.791 93.5023 737.441 94.5519 736.822C95.6015 736.203 96.1899 735.568 96.3171 734.917C96.4443 734.266 96.2853 733.647 95.8559 733.044C95.4425 732.44 94.8064 731.742 93.9794 730.932C93.2638 730.249 92.7549 729.694 92.421 729.281C92.087 728.868 91.9439 728.455 91.9598 728.027C91.9757 727.614 92.2937 727.217 92.898 726.868C93.7886 726.344 94.7905 726.153 95.9037 726.296C97.0009 726.423 98.0187 726.757 98.9411 727.28C99.9111 727.836 100.484 728.471 100.674 729.17C100.865 729.868 100.547 730.551 99.7203 731.218L102.169 732.012C103.346 731.091 103.76 730.122 103.426 729.09C103.092 728.074 102.169 727.122 100.659 726.249" fill="black"/>
<path d="M125.435 740.87L123.193 739.584L106.956 748.999L109.198 750.285L125.435 740.87ZM131.987 735.79C131.526 735.52 130.969 735.393 130.317 735.393C129.665 735.393 129.109 735.536 128.647 735.806C128.186 736.076 127.948 736.393 127.948 736.774C127.948 737.171 128.17 737.489 128.631 737.759C129.093 738.029 129.633 738.156 130.317 738.14C130.969 738.14 131.526 737.997 131.987 737.727C132.448 737.457 132.687 737.124 132.687 736.758C132.687 736.377 132.448 736.06 131.987 735.806" fill="black"/>
<path d="M141.051 744.458L139.143 743.363C137.712 744.188 136.583 744.728 135.756 744.998C134.929 745.252 134.166 745.3 133.466 745.141C132.766 744.982 131.876 744.585 130.778 743.95L128.934 745.014L132.289 746.951L122.08 752.873C120.76 753.635 120.108 754.46 120.108 755.302C120.108 756.159 120.728 756.937 122 757.667L124.004 758.826L125.864 757.747L124.385 756.889C123.686 756.492 123.336 756.032 123.352 755.524C123.352 755.016 123.749 754.524 124.544 754.063L134.547 748.269L138.412 750.491L140.256 749.428L136.392 747.205L141.067 744.49" fill="black"/>
<path d="M151.118 755.334C150.1 754.746 149.003 754.318 147.858 754.032C146.697 753.746 145.552 753.651 144.359 753.762C143.198 753.873 142.133 754.207 141.131 754.794C140.193 755.334 139.636 755.905 139.493 756.493C139.334 757.08 139.429 757.652 139.763 758.191C140.097 758.747 140.622 759.382 141.338 760.128L141.719 760.525C142.451 761.271 142.96 761.875 143.294 762.303C143.612 762.748 143.739 763.161 143.691 763.574C143.628 763.986 143.294 764.367 142.658 764.732C141.719 765.272 140.686 765.479 139.557 765.32C138.427 765.161 137.362 764.812 136.376 764.256C135.231 763.589 134.563 762.875 134.388 762.097C134.213 761.319 134.563 760.589 135.422 759.906L132.83 759.096C132.019 759.747 131.589 760.414 131.478 761.144C131.367 761.859 131.589 762.589 132.13 763.304C132.671 764.018 133.498 764.701 134.595 765.352C135.692 766.003 136.79 766.415 137.966 766.733C139.159 767.035 140.352 767.13 141.576 767.019C142.817 766.908 143.946 766.558 144.995 765.939C146.045 765.32 146.633 764.685 146.761 764.05C146.872 763.399 146.729 762.78 146.299 762.176C145.886 761.573 145.25 760.875 144.423 760.065C143.723 759.382 143.198 758.827 142.864 758.414C142.53 758.001 142.387 757.588 142.419 757.175C142.419 756.763 142.753 756.366 143.357 756.016C144.248 755.492 145.25 755.302 146.363 755.445C147.46 755.572 148.478 755.905 149.4 756.429C150.323 756.953 150.927 757.604 151.118 758.303C151.309 759.001 150.991 759.684 150.164 760.351L152.613 761.16C153.774 760.239 154.203 759.271 153.869 758.239C153.535 757.207 152.613 756.27 151.086 755.381" fill="black"/>
<path d="M186.072 767.479L184.196 766.399L171.108 767.495L173.827 769.067L186.072 767.495M190.843 770.241L188.966 769.162L175.894 770.257L178.63 771.829L190.859 770.241" fill="black"/>
<path d="M171.807 782.228L196.043 776.814L200.019 779.1C202.388 780.466 203.104 781.736 202.197 782.879C201.275 784.038 198.906 785.054 195.073 785.927C191.225 786.8 187.646 787.134 184.355 786.911C181.047 786.689 178.2 785.895 175.815 784.53L171.823 782.228M205.346 778.037L197.236 773.353L162.6 781.053L170.79 785.768C173.223 787.165 175.99 788.197 179.123 788.848C182.239 789.483 185.5 789.769 188.95 789.658C192.385 789.563 195.82 789.118 199.271 788.34C202.722 787.562 205.298 786.641 207.048 785.562C208.781 784.498 209.544 783.323 209.322 782.037C209.099 780.767 207.779 779.418 205.378 778.037" fill="black"/>
<path d="M205.012 795.389L225.161 793.976L212.979 799.993L205.012 795.405M233.144 794.087L228.326 791.309L185.197 794.119L189.332 796.501L198.858 795.85L209.242 801.835L203.517 804.693L207.652 807.074L233.128 794.103" fill="black"/>
<path d="M262.055 810.726L257.618 808.17L239.505 808.09L246.932 802.01L242.479 799.454L232.381 808.138L216.16 811.948L220.199 814.266L236.5 810.44L262.055 810.726Z" fill="black"/>
<path d="M269.291 815.457L266.587 813.901L254.581 815.616L256.457 816.695L269.307 815.457M274.078 818.203L271.374 816.647L259.368 818.378L261.26 819.473L274.094 818.219" fill="black"/>
</g>
</g>
<defs>
<clipPath id="clip0_171_1262">
<rect width="224" height="195" fill="white" transform="matrix(-1 0 0 1 1042 470)"/>
</clipPath>
<clipPath id="clip1_171_1262">
<rect width="75.05" height="161.17" fill="white" transform="translate(1021 174)"/>
</clipPath>
<clipPath id="clip2_171_1262">
<rect width="272" height="157" fill="white" transform="translate(37 675)"/>
</clipPath>
</defs>
</svg>
