<svg class="long_ladder"  viewBox="55 -470 877 1040" fill="none" xmlns="http://www.w3.org/2000/svg">
<path d="M2.51056 1296.35L16.483 1288.23L140.195 1360.05L126.214 1368.17L2.51056 1296.35Z" fill="#FFF6DA"/>
<path d="M126.214 1368.17L140.195 1360.05L140.193 1505.12L126.216 1513.23L126.214 1368.17Z" fill="#FFF6DA"/>
<path d="M2.50365 1296.35L126.214 1368.17L126.216 1513.23L2.5038 1441.41L2.50365 1296.35Z" fill="#FFF6DA"/>
<path fill-rule="evenodd" clip-rule="evenodd" d="M17.1298 1287.15L3.22064 1295.31L2.36729 1294.81V1295.81L1.53183 1296.3L2.36729 1296.79L2.36745 1442.56L126.339 1515.23L141.1 1506.58L141.102 1359.82L17.1298 1287.15ZM126.337 1367.49L4.91669 1296.3L17.1302 1289.14L138.559 1360.32L126.337 1367.49ZM139.401 1361.81L139.4 1505.59L127.189 1512.75L127.187 1368.97L139.401 1361.81ZM125.487 1368.97L4.06747 1297.79L4.06761 1441.57L125.489 1512.75L125.487 1368.97Z" fill="#0F0F0F"/>
<path d="M2.51056 1152.95L16.483 1144.83L140.195 1216.66L126.214 1224.78L2.51056 1152.95Z" fill="#FFF6DA"/>
<path d="M126.214 1224.78L140.195 1216.66L140.193 1361.73L126.216 1369.84L126.214 1224.78Z" fill="#FFF6DA"/>
<path d="M2.50365 1152.95L126.214 1224.78L126.216 1369.84L2.5038 1298.02L2.50365 1152.95Z" fill="#FFF6DA"/>
<path fill-rule="evenodd" clip-rule="evenodd" d="M16.9362 1143.85L3.02698 1152.01L2.17363 1151.51V1152.51L1.33817 1153L2.17363 1153.49L2.17378 1299.25L126.145 1371.92L140.906 1363.28L140.908 1216.52L16.9362 1143.85ZM126.143 1224.18L4.72302 1153L16.9366 1145.83L138.365 1217.01L126.143 1224.18ZM139.208 1218.5L139.206 1362.29L126.995 1369.44L126.994 1225.67L139.208 1218.5ZM125.293 1225.67L3.87381 1154.49L3.87395 1298.27L125.295 1369.44L125.293 1225.67Z" fill="#0F0F0F"/>
<path d="M2.51056 1009.56L16.483 1001.44L140.195 1073.27L126.214 1081.39L2.51056 1009.56Z" fill="#FFF6DA"/>
<path d="M126.214 1081.39L140.195 1073.27L140.193 1218.34L126.216 1226.45L126.214 1081.39Z" fill="#FFF6DA"/>
<path d="M2.50365 1009.56L126.214 1081.39L126.216 1226.45L2.5038 1154.63L2.50365 1009.56Z" fill="#FFF6DA"/>
<path fill-rule="evenodd" clip-rule="evenodd" d="M16.9362 1000.45L3.02698 1008.61L2.17363 1008.11V1009.12L1.33817 1009.61L2.17363 1010.1L2.17378 1155.86L126.145 1228.53L140.906 1219.88L140.908 1073.12L16.9362 1000.45ZM126.143 1080.79L4.72302 1009.61L16.9366 1002.44L138.365 1073.62L126.143 1080.79ZM139.208 1075.11L139.206 1218.89L126.995 1226.05L126.994 1082.27L139.208 1075.11ZM125.293 1082.27L3.87381 1011.1L3.87395 1154.87L125.295 1226.05L125.293 1082.27Z" fill="#0F0F0F"/>
<path d="M2.51056 866.17L16.483 858.05L140.195 929.875L126.214 937.999L2.51056 866.17Z" fill="#FFF6DA"/>
<path d="M126.214 937.999L140.195 929.875L140.193 1074.95L126.216 1083.06L126.214 937.999Z" fill="#FFF6DA"/>
<path d="M2.50365 866.17L126.214 937.999L126.216 1083.06L2.5038 1011.23L2.50365 866.17Z" fill="#FFF6DA"/>
<path fill-rule="evenodd" clip-rule="evenodd" d="M16.9362 857.063L3.02698 865.224L2.17363 864.723V865.724L1.33817 866.215L2.17363 866.704L2.17378 1012.47L126.145 1085.14L140.906 1076.49L140.908 929.732L16.9362 857.063ZM126.143 937.397L4.72302 866.214L16.9366 859.048L138.365 930.226L126.143 937.397ZM139.208 931.717L139.206 1075.5L126.995 1082.66L126.994 938.884L139.208 931.717ZM125.293 938.884L3.87381 867.705L3.87395 1011.48L125.295 1082.66L125.293 938.884Z" fill="#0F0F0F"/>
<path d="M2.51056 722.778L16.483 714.658L140.195 786.482L126.214 794.607L2.51056 722.778Z" fill="#FFF6DA"/>
<path d="M126.214 794.607L140.195 786.482L140.193 931.555L126.216 939.666L126.214 794.607Z" fill="#FFF6DA"/>
<path d="M2.50365 722.778L126.214 794.607L126.216 939.666L2.5038 867.842L2.50365 722.778Z" fill="#FFF6DA"/>
<path fill-rule="evenodd" clip-rule="evenodd" d="M16.9362 713.671L3.02698 721.832L2.17363 721.331V722.332L1.33817 722.823L2.17363 723.312L2.17378 869.08L126.145 941.748L140.906 933.1L140.908 786.34L16.9362 713.671ZM126.143 794.005L4.72302 722.822L16.9366 715.656L138.365 786.834L126.143 794.005ZM139.208 788.325L139.206 932.112L126.995 939.266L126.994 795.492L139.208 788.325ZM125.293 795.492L3.87381 724.313L3.87395 868.091L125.295 939.265L125.293 795.492Z" fill="#0F0F0F"/>
<path d="M2.51056 579.387L16.483 571.267L140.195 643.091L126.214 651.216L2.51056 579.387Z" fill="#FFF6DA"/>
<path d="M126.214 651.216L140.195 643.091L140.193 788.164L126.216 796.275L126.214 651.216Z" fill="#FFF6DA"/>
<path d="M2.50365 579.387L126.214 651.216L126.216 796.275L2.5038 724.451L2.50365 579.387Z" fill="#FFF6DA"/>
<path fill-rule="evenodd" clip-rule="evenodd" d="M16.9362 570.278L3.02698 578.439L2.17363 577.939V578.94L1.33817 579.43L2.17363 579.92L2.17378 725.687L126.145 798.356L140.906 789.708L140.908 642.947L16.9362 570.278ZM126.143 650.613L4.72302 579.429L16.9366 572.263L138.365 643.442L126.143 650.613ZM139.208 644.933L139.206 788.719L126.995 795.873L126.994 652.099L139.208 644.933ZM125.293 652.099L3.87381 580.92L3.87395 724.699L125.295 795.873L125.293 652.099Z" fill="#0F0F0F"/>
<path d="M2.51056 439.408L16.483 431.289L140.195 503.113L126.214 511.237L2.51056 439.408Z" fill="#FFF6DA"/>
<path d="M126.214 511.237L140.195 503.113L140.193 648.186L126.216 656.296L126.214 511.237Z" fill="#FFF6DA"/>
<path d="M2.50365 439.408L126.214 511.237L126.216 656.296L2.5038 584.472L2.50365 439.408Z" fill="#FFF6DA"/>
<path fill-rule="evenodd" clip-rule="evenodd" d="M16.9362 430.3L3.02698 438.461L2.17363 437.961V438.962L1.33817 439.452L2.17363 439.942L2.17378 585.709L126.145 658.378L140.906 649.729L140.908 502.969L16.9362 430.3ZM126.143 510.634L4.72302 439.451L16.9366 432.285L138.365 503.464L126.143 510.634ZM139.208 504.955L139.206 648.741L126.995 655.895L126.994 512.121L139.208 504.955ZM125.293 512.121L3.87381 440.942L3.87395 584.721L125.295 655.894L125.293 512.121Z" fill="#0F0F0F"/>
<path d="M2.51056 296.017L16.483 287.897L140.195 359.721L126.214 367.846L2.51056 296.017Z" fill="#FFF6DA"/>
<path d="M126.214 367.846L140.195 359.721L140.193 504.794L126.216 512.905L126.214 367.846Z" fill="#FFF6DA"/>
<path d="M2.50365 296.017L126.214 367.846L126.216 512.905L2.5038 441.081L2.50365 296.017Z" fill="#FFF6DA"/>
<path fill-rule="evenodd" clip-rule="evenodd" d="M16.9362 286.909L3.02698 295.07L2.17363 294.57V295.571L1.33817 296.061L2.17363 296.551L2.17378 442.318L126.145 514.987L140.906 506.338L140.908 359.578L16.9362 286.909ZM126.143 367.243L4.72302 296.06L16.9366 288.894L138.365 360.073L126.143 367.243ZM139.208 361.564L139.206 505.35L126.995 512.504L126.994 368.73L139.208 361.564ZM125.293 368.73L3.87381 297.551L3.87395 441.33L125.295 512.503L125.293 368.73Z" fill="#0F0F0F"/>
<path d="M2.51056 152.624L16.483 144.505L140.195 216.329L126.214 224.453L2.51056 152.624Z" fill="#FFF6DA"/>
<path d="M126.214 224.453L140.195 216.329L140.193 361.402L126.216 369.513L126.214 224.453Z" fill="#FFF6DA"/>
<path d="M2.50365 152.624L126.214 224.453L126.216 369.513L2.5038 297.688L2.50365 152.624Z" fill="#FFF6DA"/>
<path fill-rule="evenodd" clip-rule="evenodd" d="M16.9362 143.517L3.02698 151.678L2.17363 151.178V152.179L1.33817 152.669L2.17363 153.158L2.17378 298.926L126.145 371.594L140.906 362.946L140.908 216.186L16.9362 143.517ZM126.143 223.851L4.72302 152.668L16.9366 145.502L138.365 216.68L126.143 223.851ZM139.208 218.172L139.206 361.958L126.995 369.112L126.994 225.338L139.208 218.172ZM125.293 225.338L3.87381 154.159L3.87395 297.937L125.295 369.111L125.293 225.338Z" fill="#0F0F0F"/>
<path d="M2.51056 9.23265L16.483 1.11304L140.195 72.9373L126.214 81.0619L2.51056 9.23265Z" fill="#FFF6DA"/>
<path d="M126.214 81.0619L140.195 72.9373L140.193 218.01L126.216 226.121L126.214 81.0619Z" fill="#FFF6DA"/>
<path d="M2.50365 9.23266L126.214 81.0619L126.216 226.121L2.5038 154.297L2.50365 9.23266Z" fill="#FFF6DA"/>
<path fill-rule="evenodd" clip-rule="evenodd" d="M16.3549 0.210449L2.44571 8.37121L1.59236 7.87096V8.87187L0.756897 9.36205L1.59236 9.85185L1.59251 155.619L125.564 228.288L140.325 219.64L140.327 72.8793L16.3549 0.210449ZM125.562 80.5446L4.14175 9.36147L16.3553 2.19557L137.784 73.3738L125.562 80.5446ZM138.626 74.8649L138.625 218.651L126.414 225.805L126.412 82.0311L138.626 74.8649ZM124.712 82.0313L3.29254 10.8526L3.29268 154.631L124.714 225.805L124.712 82.0313Z" fill="#0F0F0F"/>
</svg>
