<svg  viewBox="50 -260 1218 1257" fill="none" xmlns="http://www.w3.org/2000/svg">
<path d="M136.048 861.538L122.257 853.524L0.153305 924.415L13.9526 932.434L136.048 861.538Z" fill="#FFF6DA"/>
<path d="M13.9526 932.434L0.153305 924.415L0.155101 1067.6L13.9508 1075.61L13.9526 932.434Z" fill="#FFF6DA"/>
<path d="M136.055 861.538L13.9526 932.434L13.9508 1075.61L136.055 1004.72L136.055 861.538Z" fill="#FFF6DA"/>
<path fill-rule="evenodd" clip-rule="evenodd" d="M121.594 854.552L135.219 862.546L136.055 862.056V863.037L136.873 863.517L136.055 863.997L136.055 1006.79L14.6146 1077.97L0.155121 1069.5L0.153336 925.737L121.594 854.552ZM14.6164 933.246L133.557 863.516L121.593 856.497L2.64401 926.222L14.6164 933.246ZM1.81882 927.682L1.82057 1068.53L13.7818 1075.54L13.7835 934.702L1.81882 927.682ZM15.4489 934.702L134.389 864.977L134.389 1005.82L15.4472 1075.54L15.4489 934.702Z" fill="#0F0F0F"/>
<path d="M136.049 721.56L122.258 713.546L0.153839 784.437L13.9531 792.455L136.049 721.56Z" fill="#FFF6DA"/>
<path d="M13.9531 792.455L0.153839 784.437L0.155635 927.623L13.9514 935.629L13.9531 792.455Z" fill="#FFF6DA"/>
<path d="M136.055 721.56L13.9531 792.455L13.9514 935.629L136.055 864.738L136.055 721.56Z" fill="#FFF6DA"/>
<path fill-rule="evenodd" clip-rule="evenodd" d="M121.594 712.576L135.219 720.57L136.055 720.08V721.061L136.874 721.541L136.055 722.021L136.055 864.811L14.6151 935.996L0.155625 927.525L0.153839 783.761L121.594 712.576ZM14.6169 791.27L133.558 721.54L121.594 714.521L2.64452 784.246L14.6169 791.27ZM1.81932 785.706L1.82107 926.556L13.7823 933.564L13.784 792.726L1.81932 785.706ZM15.4495 792.726L134.39 723.001L134.39 863.843L15.4477 933.564L15.4495 792.726Z" fill="#0F0F0F"/>
<path d="M136.049 578.167L122.258 570.153L0.153839 641.043L13.9531 649.062L136.049 578.167Z" fill="#FFF6DA"/>
<path d="M13.9531 649.062L0.153839 641.043L0.155635 784.23L13.9514 792.236L13.9531 649.062Z" fill="#FFF6DA"/>
<path d="M136.055 578.167L13.9531 649.062L13.9514 792.236L136.055 721.345L136.055 578.167Z" fill="#FFF6DA"/>
<path fill-rule="evenodd" clip-rule="evenodd" d="M121.594 569.185L135.219 577.179L136.055 576.689V577.669L136.874 578.149L136.055 578.629L136.055 721.42L14.6151 792.605L0.155625 784.133L0.153839 640.37L121.594 569.185ZM14.6169 647.878L133.558 578.149L121.594 571.129L2.64452 640.854L14.6169 647.878ZM1.81932 642.315L1.82107 783.165L13.7823 790.173L13.784 649.334L1.81932 642.315ZM15.4495 649.335L134.39 579.609L134.39 720.452L15.4477 790.172L15.4495 649.335Z" fill="#0F0F0F"/>
<path d="M136.049 438.191L122.258 430.177L0.153839 501.067L13.9531 509.086L136.049 438.191Z" fill="#FFF6DA"/>
<path d="M13.9531 509.086L0.153839 501.067L0.155635 644.254L13.9514 652.26L13.9531 509.086Z" fill="#FFF6DA"/>
<path d="M136.055 438.191L13.9531 509.086L13.9514 652.26L136.055 581.369L136.055 438.191Z" fill="#FFF6DA"/>
<path fill-rule="evenodd" clip-rule="evenodd" d="M121.594 429.208L135.219 437.203L136.055 436.713V437.693L136.874 438.173L136.055 438.653L136.055 581.444L14.6151 652.629L0.155625 644.157L0.153839 500.393L121.594 429.208ZM14.6169 507.902L133.558 438.173L121.594 431.153L2.64452 500.878L14.6169 507.902ZM1.81932 502.339L1.82107 643.189L13.7823 650.197L13.784 509.358L1.81932 502.339ZM15.4495 509.359L134.39 439.633L134.39 580.476L15.4477 650.196L15.4495 509.359Z" fill="#0F0F0F"/>
<path d="M136.049 294.797L122.258 286.783L0.153839 357.674L13.9531 365.693L136.049 294.797Z" fill="#FFF6DA"/>
<path d="M13.9531 365.693L0.153839 357.674L0.155635 500.861L13.9514 508.866L13.9531 365.693Z" fill="#FFF6DA"/>
<path d="M136.055 294.797L13.9531 365.693L13.9514 508.866L136.055 437.976L136.055 294.797Z" fill="#FFF6DA"/>
<path fill-rule="evenodd" clip-rule="evenodd" d="M121.594 285.816L135.219 293.811L136.055 293.32V294.301L136.874 294.781L136.055 295.261L136.055 438.052L14.6151 509.236L0.155625 500.765L0.153839 357.001L121.594 285.816ZM14.6169 364.51L133.558 294.781L121.594 287.761L2.64452 357.486L14.6169 364.51ZM1.81932 358.946L1.82107 499.797L13.7823 506.804L13.784 365.966L1.81932 358.946ZM15.4495 365.967L134.39 296.241L134.39 437.084L15.4477 506.804L15.4495 365.967Z" fill="#0F0F0F"/>
<path d="M136.049 151.406L122.258 143.392L0.153839 214.283L13.9531 222.302L136.049 151.406Z" fill="#FFF6DA"/>
<path d="M13.9531 222.302L0.153839 214.283L0.155635 357.47L13.9514 365.475L13.9531 222.302Z" fill="#FFF6DA"/>
<path d="M136.055 151.406L13.9531 222.302L13.9514 365.475L136.055 294.585L136.055 151.406Z" fill="#FFF6DA"/>
<path fill-rule="evenodd" clip-rule="evenodd" d="M121.594 142.425L135.219 150.419L136.055 149.929V150.909L136.874 151.39L136.055 151.869L136.055 294.66L14.6151 365.845L0.155625 357.373L0.153839 213.61L121.594 142.425ZM14.6169 221.119L133.558 151.389L121.594 144.369L2.64452 214.094L14.6169 221.119ZM1.81932 215.555L1.82107 356.405L13.7823 363.413L13.784 222.575L1.81932 215.555ZM15.4495 222.575L134.39 152.85L134.39 293.692L15.4477 363.412L15.4495 222.575Z" fill="#0F0F0F"/>
<path d="M136.049 8.01407L122.258 0L0.153839 70.8906L13.9531 78.9096L136.049 8.01407Z" fill="#FFF6DA"/>
<path d="M13.9531 78.9096L0.153839 70.8906L0.155635 214.078L13.9514 222.083L13.9531 78.9096Z" fill="#FFF6DA"/>
<path d="M136.055 8.01407L13.9531 78.9096L13.9514 222.083L136.055 151.192L136.055 8.01407Z" fill="#FFF6DA"/>
<path fill-rule="evenodd" clip-rule="evenodd" d="M121.594 1.0498L135.219 9.04392L136.055 8.55389V9.53437L136.874 10.0145L136.055 10.4943L136.055 153.285L14.6152 224.47L0.155747 215.998L0.153961 72.2348L121.594 1.0498ZM14.617 79.7436L133.558 10.014L121.594 2.99439L2.64464 72.7192L14.617 79.7436ZM1.81944 74.1798L1.82119 215.03L13.7824 222.038L13.7841 81.1997L1.81944 74.1798ZM15.4496 81.1999L134.39 11.4746L134.39 152.317L15.4478 222.037L15.4496 81.1999Z" fill="#0F0F0F"/>
</svg>
