<svg viewBox="-448 -610 13 1190" fill="none" xmlns="http://www.w3.org/2000/svg">
<path d="M2.11134 579.254L16.0733 571.14L139.692 642.91L125.722 651.029L2.11134 579.254Z" fill="#FFF6DA"/>
<path d="M125.722 651.029L139.692 642.91L139.691 787.874L125.724 795.979L125.722 651.029Z" fill="#FFF6DA"/>
<path d="M2.10445 579.254L125.722 651.029L125.724 795.979L2.10458 724.209L2.10445 579.254Z" fill="#FFF6DA"/>
<path fill-rule="evenodd" clip-rule="evenodd" d="M16.6673 570.154L2.7686 578.308L1.91589 577.809V578.809L1.08105 579.299L1.91589 579.788L1.91603 725.446L125.794 798.06L140.544 789.418L140.546 642.768L16.6673 570.154ZM125.792 650.428L4.46336 579.298L16.6677 572.137L138.005 643.262L125.792 650.428ZM138.847 644.752L138.845 788.43L126.644 795.579L126.642 651.913L138.847 644.752ZM124.943 651.913L3.61479 580.788L3.61493 724.458L124.945 795.579L124.943 651.913Z" fill="#0F0F0F"/>
<path d="M2.11134 439.277L16.0733 431.163L139.692 502.933L125.722 511.052L2.11134 439.277Z" fill="#FFF6DA"/>
<path d="M125.722 511.052L139.692 502.933L139.691 647.897L125.724 656.002L125.722 511.052Z" fill="#FFF6DA"/>
<path d="M2.10445 439.277L125.722 511.052L125.724 656.002L2.10458 584.232L2.10445 439.277Z" fill="#FFF6DA"/>
<path fill-rule="evenodd" clip-rule="evenodd" d="M16.6673 430.176L2.7686 438.33L1.91589 437.831V438.831L1.08105 439.321L1.91589 439.81L1.91603 585.468L125.794 658.082L140.544 649.44L140.546 502.79L16.6673 430.176ZM125.792 510.45L4.46336 439.32L16.6677 432.159L138.005 503.284L125.792 510.45ZM138.847 504.774L138.845 648.452L126.644 655.601L126.642 511.935L138.847 504.774ZM124.943 511.935L3.61479 440.81L3.61493 584.48L124.945 655.6L124.943 511.935Z" fill="#0F0F0F"/>
<path d="M2.11134 295.884L16.0733 287.771L139.692 359.541L125.722 367.659L2.11134 295.884Z" fill="#FFF6DA"/>
<path d="M125.722 367.659L139.692 359.541L139.691 504.504L125.724 512.609L125.722 367.659Z" fill="#FFF6DA"/>
<path d="M2.10445 295.884L125.722 367.659L125.724 512.609L2.10458 440.839L2.10445 295.884Z" fill="#FFF6DA"/>
<path fill-rule="evenodd" clip-rule="evenodd" d="M16.6673 286.785L2.7686 294.939L1.91589 294.439V295.44L1.08105 295.929L1.91589 296.419L1.91603 442.077L125.794 514.691L140.544 506.049L140.546 359.399L16.6673 286.785ZM125.792 367.058L4.46336 295.929L16.6677 288.768L138.005 359.893L125.792 367.058ZM138.847 361.383L138.845 505.061L126.644 512.21L126.642 368.544L138.847 361.383ZM124.943 368.544L3.61479 297.419L3.61493 441.089L124.945 512.209L124.943 368.544Z" fill="#0F0F0F"/>
<path d="M2.11134 152.492L16.0733 144.379L139.692 216.149L125.722 224.268L2.11134 152.492Z" fill="#FFF6DA"/>
<path d="M125.722 224.268L139.692 216.149L139.691 361.113L125.724 369.218L125.722 224.268Z" fill="#FFF6DA"/>
<path d="M2.10445 152.492L125.722 224.268L125.724 369.218L2.10458 297.447L2.10445 152.492Z" fill="#FFF6DA"/>
<path fill-rule="evenodd" clip-rule="evenodd" d="M16.6673 143.392L2.7686 151.546L1.91589 151.046V152.047L1.08105 152.536L1.91589 153.026L1.91603 298.684L125.794 371.298L140.544 362.656L140.546 216.006L16.6673 143.392ZM125.792 223.665L4.46336 152.536L16.6677 145.375L138.005 216.5L125.792 223.665ZM138.847 217.99L138.845 361.668L126.644 368.817L126.642 225.151L138.847 217.99ZM124.943 225.151L3.61479 154.026L3.61493 297.696L124.945 368.816L124.943 225.151Z" fill="#0F0F0F"/>
<path d="M2.11134 9.10033L16.0733 0.986816L139.692 72.7571L125.722 80.8756L2.11134 9.10033Z" fill="#FFF6DA"/>
<path d="M125.722 80.8756L139.692 72.7571L139.691 217.721L125.724 225.826L125.722 80.8756Z" fill="#FFF6DA"/>
<path d="M2.10445 9.10034L125.722 80.8756L125.724 225.826L2.10458 154.055L2.10445 9.10034Z" fill="#FFF6DA"/>
<path fill-rule="evenodd" clip-rule="evenodd" d="M15.9984 0L2.09966 8.15463L1.24695 7.65475V8.65492L0.412109 9.14473L1.24695 9.63416L1.24709 155.292L125.125 227.906L139.875 219.264L139.877 72.6142L15.9984 0ZM125.123 80.2738L3.79442 9.14414L15.9988 1.98363L137.336 73.1084L125.123 80.2738ZM138.178 74.5984L138.176 218.277L125.975 225.425L125.973 81.7592L138.178 74.5984ZM124.274 81.7594L2.94585 10.6341L2.94598 154.304L124.276 225.425L124.274 81.7594Z" fill="#0F0F0F"/>
</svg>
