<svg width="100%" height="100%" viewBox="25 470 1256 1032" fill="none" xmlns="http://www.w3.org/2000/svg">
<path d="M1004.36 797.5L1004.32 813.8L879.57 886.3L879.61 869.99L1004.36 797.5Z" fill="#FFF6D7"/>
<path d="M879.61 869.99L879.57 886.3L754 813.8L754.05 797.5L879.61 869.99Z" fill="#FFF6D7"/>
<path d="M1004.36 797.5L879.61 869.99L754.05 797.5L878.8 725L1004.36 797.5Z" fill="#FFF6D7"/>
<path fill-rule="evenodd" clip-rule="evenodd" d="M878.799 724.133L1005.11 797.068L1005.07 814.232L879.571 887.167L753.249 814.232L753.301 797.068L878.799 724.133ZM878.801 725.867L755.546 797.498L879.609 869.123L1002.86 797.502L878.801 725.867ZM1003.61 798.805L880.359 870.422L880.323 884.995L1003.57 813.368L1003.61 798.805ZM878.823 885.003L878.859 870.422L754.796 798.797L754.751 813.368L878.823 885.003Z" fill="black"/>
<path d="M1129.36 869.5L1129.32 885.8L1004.57 958.3L1004.61 941.99L1129.36 869.5Z" fill="#FFF6D7"/>
<path d="M1004.61 941.99L1004.57 958.3L879 885.8L879.05 869.5L1004.61 941.99Z" fill="#FFF6D7"/>
<path d="M1129.36 869.5L1004.61 941.99L879.05 869.5L1003.8 797L1129.36 869.5Z" fill="#FFF6D7"/>
<path fill-rule="evenodd" clip-rule="evenodd" d="M1003.8 796.133L1130.11 869.068L1130.07 886.232L1004.57 959.167L878.249 886.232L878.301 869.068L1003.8 796.133ZM1003.8 797.867L880.546 869.498L1004.61 941.123L1127.86 869.502L1003.8 797.867ZM1128.61 870.805L1005.36 942.422L1005.32 956.995L1128.57 885.368L1128.61 870.805ZM1003.82 957.003L1003.86 942.422L879.796 870.797L879.751 885.368L1003.82 957.003Z" fill="black"/>
<path d="M1254.36 941.5L1254.32 957.8L1129.57 1030.3L1129.61 1013.99L1254.36 941.5Z" fill="#FFF6D7"/>
<path d="M1129.61 1013.99L1129.57 1030.3L1004 957.8L1004.05 941.5L1129.61 1013.99Z" fill="#FFF6D7"/>
<path d="M1254.36 941.5L1129.61 1013.99L1004.05 941.5L1128.8 869L1254.36 941.5Z" fill="#FFF6D7"/>
<path fill-rule="evenodd" clip-rule="evenodd" d="M1128.8 868.133L1255.11 941.068L1255.07 958.232L1129.57 1031.17L1003.25 958.232L1003.3 941.068L1128.8 868.133ZM1128.8 869.867L1005.55 941.498L1129.61 1013.12L1252.86 941.502L1128.8 869.867ZM1253.61 942.805L1130.36 1014.42L1130.32 1028.99L1253.57 957.368L1253.61 942.805ZM1128.82 1029L1128.86 1014.42L1004.8 942.797L1004.75 957.368L1128.82 1029Z" fill="black"/>
<path d="M753.36 797.5L753.32 813.8L628.57 886.3L628.61 869.99L753.36 797.5Z" fill="#FFF6D7"/>
<path d="M628.61 869.99L628.57 886.3L503 813.8L503.05 797.5L628.61 869.99Z" fill="#FFF6D7"/>
<path d="M753.36 797.5L628.61 869.99L503.05 797.5L627.8 725L753.36 797.5Z" fill="#FFF6D7"/>
<path fill-rule="evenodd" clip-rule="evenodd" d="M627.799 724.133L754.111 797.068L754.069 814.232L628.571 887.167L502.249 814.232L502.301 797.068L627.799 724.133ZM627.801 725.867L504.546 797.498L628.609 869.123L751.864 797.502L627.801 725.867ZM752.607 798.805L629.359 870.422L629.323 884.995L752.571 813.368L752.607 798.805ZM627.823 885.003L627.859 870.422L503.796 798.797L503.751 813.368L627.823 885.003Z" fill="black"/>
<path d="M879.36 869.5L879.32 885.8L754.57 958.3L754.61 941.99L879.36 869.5Z" fill="#FFF6D7"/>
<path d="M754.61 941.99L754.57 958.3L629 885.8L629.05 869.5L754.61 941.99Z" fill="#FFF6D7"/>
<path d="M879.36 869.5L754.61 941.99L629.05 869.5L753.8 797L879.36 869.5Z" fill="#FFF6D7"/>
<path fill-rule="evenodd" clip-rule="evenodd" d="M753.799 796.133L880.111 869.068L880.069 886.232L754.571 959.167L628.249 886.232L628.301 869.068L753.799 796.133ZM753.801 797.867L630.546 869.498L754.609 941.123L877.864 869.502L753.801 797.867ZM878.607 870.805L755.359 942.422L755.323 956.995L878.571 885.368L878.607 870.805ZM753.823 957.003L753.859 942.422L629.796 870.797L629.751 885.368L753.823 957.003Z" fill="black"/>
<path d="M251.36 797.5L251.32 813.8L126.57 886.3L126.61 869.99L251.36 797.5Z" fill="#FFF6D7"/>
<path d="M126.61 869.99L126.57 886.3L1 813.8L1.05 797.5L126.61 869.99Z" fill="#FFF6D7"/>
<path d="M251.36 797.5L126.61 869.99L1.05 797.5L125.8 725L251.36 797.5Z" fill="#FFF6D7"/>
<path fill-rule="evenodd" clip-rule="evenodd" d="M125.799 724.133L252.111 797.068L252.069 814.232L126.571 887.167L0.248672 814.232L0.301325 797.068L125.799 724.133ZM125.801 725.867L2.54632 797.498L126.609 869.123L249.864 797.502L125.801 725.867ZM250.607 798.805L127.359 870.422L127.323 884.995L250.571 813.368L250.607 798.805ZM125.823 885.003L125.859 870.422L1.79603 798.797L1.75133 813.368L125.823 885.003Z" fill="black"/>
<path d="M254.111 798.867L377.611 725.867L626.111 870.867L503.111 942.867L254.111 798.867Z" fill="#FFF6D7"/>
<path d="M252.751 798.367L252.791 814.667L377.541 887.167L377.501 870.857L252.751 798.367Z" fill="#FFF6D7"/>
<path d="M377.751 870.367L377.791 886.667L502.541 959.167L502.501 942.857L377.751 870.367Z" fill="#FFF6D7"/>
<path d="M502.501 942.857L502.541 959.167L628.111 886.667L628.061 870.367L502.501 942.857Z" fill="#FFF6D7"/>
<path fill-rule="evenodd" clip-rule="evenodd" d="M378.312 725L252 797.934L252.042 815.099L378.294 888.472L378.293 887.826L502.54 960.033L628.862 887.099L628.81 869.934L503.688 797.218L503.408 797.701L378.312 725ZM502.965 798.533L626.565 870.365L502.502 941.99L376.998 869.062L376.999 869.698L254.247 798.369L378.31 726.734L502.684 799.015L502.965 798.533ZM253.504 799.672L376.752 871.289L376.788 885.862L253.54 814.235L253.504 799.672ZM378.504 871.672L501.752 943.289L501.788 957.862L378.54 886.235L378.504 871.672ZM503.288 957.87L503.252 943.289L627.315 871.663L627.36 886.234L503.288 957.87Z" fill="black"/>
<path d="M377.36 870.5L377.32 886.8L252.57 959.3L252.61 942.99L377.36 870.5Z" fill="#FFF6D7"/>
<path d="M252.61 942.99L252.57 959.3L127 886.8L127.05 870.5L252.61 942.99Z" fill="#FFF6D7"/>
<path d="M377.36 870.5L252.61 942.99L127.05 870.5L251.8 798L377.36 870.5Z" fill="#FFF6D7"/>
<path fill-rule="evenodd" clip-rule="evenodd" d="M251.799 797.133L378.111 870.068L378.069 887.232L252.571 960.167L126.249 887.232L126.301 870.068L251.799 797.133ZM251.801 798.867L128.546 870.498L252.609 942.123L375.864 870.502L251.801 798.867ZM376.607 871.805L253.359 943.422L253.323 957.995L376.571 886.368L376.607 871.805ZM251.823 958.003L251.859 943.422L127.796 871.797L127.751 886.368L251.823 958.003Z" fill="black"/>
<path d="M126.507 580.98L140.643 572.865L265.805 644.651L251.66 652.772L126.507 580.98Z" fill="#FFF6D7"/>
<path d="M251.66 652.772L265.805 644.651L265.803 789.648L251.662 797.755L251.66 652.772Z" fill="#FFF6D7"/>
<path d="M126.5 580.98L251.66 652.772L251.662 797.755L126.5 725.968L126.5 580.98Z" fill="#FFF6D7"/>
<path fill-rule="evenodd" clip-rule="evenodd" d="M140.643 572L126.503 580.117L125.75 579.685V580.55L125 580.98L125.75 581.41L125.75 726.403L251.662 798.619L266.553 790.083L266.555 644.217L140.643 572ZM251.66 651.907L128.014 580.98L140.643 573.729L264.298 644.652L251.66 651.907ZM265.055 645.947L265.053 789.214L252.412 796.46L252.41 653.206L265.055 645.947ZM250.91 653.206L250.912 796.46L127.25 725.534L127.25 582.275L250.91 653.206Z" fill="black"/>
<path d="M126.507 435.98L140.643 427.865L265.805 499.651L251.66 507.772L126.507 435.98Z" fill="#FFF6D7"/>
<path d="M251.66 507.772L265.805 499.651L265.803 644.648L251.662 652.755L251.66 507.772Z" fill="#FFF6D7"/>
<path d="M126.5 435.98L251.66 507.772L251.662 652.755L126.5 580.968L126.5 435.98Z" fill="#FFF6D7"/>
<path fill-rule="evenodd" clip-rule="evenodd" d="M140.643 427L126.503 435.117L125.75 434.685V435.55L125 435.98L125.75 436.41L125.75 581.403L251.662 653.619L266.553 645.083L266.555 499.217L140.643 427ZM251.66 506.907L128.014 435.98L140.643 428.729L264.298 499.652L251.66 506.907ZM265.055 500.947L265.053 644.214L252.412 651.46L252.41 508.206L265.055 500.947ZM250.91 508.206L250.912 651.46L127.25 580.534L127.25 437.275L250.91 508.206Z" fill="black"/>
<path d="M126.507 298.98L140.643 290.865L265.805 362.651L251.66 370.772L126.507 298.98Z" fill="#FFF6D7"/>
<path d="M251.66 370.772L265.805 362.651L265.803 507.648L251.662 515.755L251.66 370.772Z" fill="#FFF6D7"/>
<path d="M126.5 298.98L251.66 370.772L251.662 515.755L126.5 443.968L126.5 298.98Z" fill="#FFF6D7"/>
<path fill-rule="evenodd" clip-rule="evenodd" d="M140.643 290L126.503 298.117L125.75 297.685V298.55L125 298.98L125.75 299.41L125.75 444.403L251.662 516.619L266.553 508.083L266.555 362.217L140.643 290ZM251.66 369.907L128.014 298.98L140.643 291.729L264.298 362.652L251.66 369.907ZM265.055 363.947L265.053 507.214L252.412 514.46L252.41 371.206L265.055 363.947ZM250.91 371.206L250.912 514.46L127.25 443.534L127.25 300.275L250.91 371.206Z" fill="black"/>
<path d="M126.507 153.98L140.643 145.865L265.805 217.651L251.66 225.772L126.507 153.98Z" fill="#FFF6D7"/>
<path d="M251.66 225.772L265.805 217.651L265.803 362.648L251.662 370.755L251.66 225.772Z" fill="#FFF6D7"/>
<path d="M126.5 153.98L251.66 225.772L251.662 370.755L126.5 298.968L126.5 153.98Z" fill="#FFF6D7"/>
<path fill-rule="evenodd" clip-rule="evenodd" d="M140.643 145L126.503 153.117L125.75 152.685V153.55L125 153.98L125.75 154.41L125.75 299.403L251.662 371.619L266.553 363.083L266.555 217.217L140.643 145ZM251.66 224.907L128.014 153.98L140.643 146.729L264.298 217.652L251.66 224.907ZM265.055 218.947L265.053 362.214L252.412 369.46L252.41 226.206L265.055 218.947ZM250.91 226.206L250.912 369.46L127.25 298.534L127.25 155.275L250.91 226.206Z" fill="black"/>
<path d="M126.507 8.98011L140.643 0.864746L265.805 72.6514L251.66 80.7718L126.507 8.98011Z" fill="#FFF6D7"/>
<path d="M251.66 80.7718L265.805 72.6514L265.803 217.648L251.662 225.755L251.66 80.7718Z" fill="#FFF6D7"/>
<path d="M126.5 8.98012L251.66 80.7718L251.662 225.755L126.5 153.968L126.5 8.98012Z" fill="#FFF6D7"/>
<path fill-rule="evenodd" clip-rule="evenodd" d="M140.643 0L126.503 8.11737L125.75 7.68525V8.54984L125 8.98033L125.75 9.41047L125.75 154.403L251.662 226.619L266.553 218.083L266.555 72.2169L140.643 0ZM251.66 79.907L128.014 8.97981L140.643 1.72941L264.298 72.6517L251.66 79.907ZM265.055 73.9467L265.053 217.214L252.412 224.46L252.41 81.206L265.055 73.9467ZM250.91 81.2062L250.912 224.46L127.25 153.534L127.25 10.2749L250.91 81.2062Z" fill="black"/>
<g clip-path="url(#clip0_171_1388)">
<mask id="mask0_171_1388" style="mask-type:luminance" maskUnits="userSpaceOnUse" x="309" y="762" width="265" height="153">
<path d="M309 791.074L359.094 762L574 885.926L523.906 915L309 791.074Z" fill="white"/>
</mask>
<g mask="url(#mask0_171_1388)">
<path d="M370.737 770.125L369.022 769.133L358.958 774.982L359.556 763.679L357.875 762.71L345.792 769.719L347.484 770.7L357.604 764.817L356.95 776.154L358.654 777.134L370.737 770.125Z" fill="black"/>
<path d="M370.59 778.272C371.606 777.878 372.711 777.754 373.907 777.923C375.103 778.092 376.254 778.498 377.349 779.129C378.443 779.76 379.097 780.391 379.323 781.045C379.56 781.698 379.278 782.295 378.488 782.836L370.579 778.272M378.296 778.577C377.191 777.934 376.017 777.461 374.776 777.157C373.535 776.853 372.339 776.74 371.177 776.83C370.015 776.92 368.988 777.224 368.097 777.743C367.206 778.261 366.687 778.858 366.54 779.523C366.382 780.199 366.585 780.887 367.127 781.608C367.668 782.329 368.503 783.005 369.631 783.659C370.76 784.313 372.023 784.797 373.366 785.079C374.72 785.361 375.983 785.428 377.179 785.259L375.95 784.245C375.081 784.335 374.167 784.268 373.219 784.065C372.271 783.862 371.403 783.524 370.613 783.073C369.823 782.622 369.27 782.16 368.864 781.653C368.481 781.146 368.323 780.65 368.435 780.154C368.537 779.659 368.909 779.208 369.586 778.791L379.244 784.358L379.628 784.166C380.519 783.648 381.049 783.073 381.207 782.442C381.365 781.811 381.196 781.169 380.688 780.515C380.192 779.85 379.391 779.219 378.319 778.588" fill="black"/>
<path d="M393.234 784.583L391.813 783.76C391.068 784.189 390.47 784.459 389.996 784.572C389.533 784.684 389.048 784.662 388.574 784.515C388.101 784.369 387.458 784.053 386.634 783.58L385.686 784.132L388.202 785.586L382.933 788.651C382.256 789.046 381.997 789.508 382.177 790.049C382.347 790.589 382.911 791.119 383.847 791.66L385.348 792.528L386.307 791.976L385.19 791.333C384.671 791.029 384.355 790.713 384.253 790.387C384.152 790.06 384.298 789.778 384.705 789.541L389.861 786.544L392.76 788.223L393.708 787.671L390.808 785.992L393.223 784.583" fill="black"/>
<path d="M414.829 799.83L413.046 798.805L403.005 800.878L406.344 794.94L405.047 794.185L394.825 796.134L398.424 790.376L396.653 789.35L392.365 796.574L393.855 797.43L404.099 795.503L400.793 801.431L402.283 802.298L414.829 799.83Z" fill="black"/>
<path d="M415.923 809.195C415.122 808.733 414.546 808.237 414.174 807.707C413.813 807.177 413.689 806.648 413.836 806.141C413.971 805.634 414.366 805.183 415.043 804.788C415.72 804.394 416.476 804.169 417.356 804.09C418.225 804.011 419.127 804.078 420.041 804.293C420.955 804.507 421.812 804.845 422.613 805.307C423.414 805.769 423.99 806.253 424.362 806.794C424.734 807.324 424.859 807.854 424.734 808.361C424.599 808.868 424.204 809.319 423.538 809.702C422.873 810.085 422.094 810.322 421.214 810.4C420.334 810.479 419.432 810.412 418.495 810.198C417.57 809.983 416.713 809.645 415.923 809.195ZM423.629 804.732C422.512 804.09 421.316 803.605 420.064 803.29C418.8 802.974 417.581 802.861 416.408 802.94C415.235 803.019 414.219 803.312 413.351 803.808C412.482 804.304 411.974 804.901 411.85 805.589C411.715 806.276 411.906 806.975 412.448 807.718C412.99 808.451 413.824 809.127 414.93 809.769C416.036 810.412 417.232 810.885 418.484 811.2C419.748 811.516 420.955 811.629 422.128 811.539C423.302 811.448 424.328 811.155 425.208 810.648C426.088 810.141 426.573 809.555 426.709 808.879C426.856 808.203 426.652 807.504 426.111 806.772C425.569 806.039 424.746 805.363 423.629 804.721" fill="black"/>
<path d="M439.819 814.142C438.939 813.657 438.025 813.285 437.044 813.071C436.073 812.846 435.182 812.79 434.381 812.902L435.915 812.012L434.268 811.065L425.885 815.934L427.544 816.892L432.158 814.209C433.083 813.669 434.099 813.466 435.204 813.59C436.321 813.714 437.461 814.131 438.657 814.818L439.796 814.153" fill="black"/>
<path d="M450.3 814.593L448.608 813.624L435.306 821.343L436.998 822.312L441.376 819.776L442.91 825.727L445.133 827.011L443.474 820.779L452.963 821.827L450.718 820.52L441.658 819.607L450.3 814.593Z" fill="black"/>
<path d="M459.112 825.366L457.431 824.397L449.048 829.265L450.729 830.234L459.112 825.366ZM462.237 822.594C461.899 822.402 461.515 822.278 461.109 822.233C460.691 822.188 460.364 822.233 460.116 822.38C459.868 822.526 459.8 822.706 459.879 822.954C459.947 823.191 460.161 823.416 460.5 823.608C460.838 823.799 461.222 823.923 461.639 823.968C462.056 824.014 462.384 823.968 462.621 823.822C462.858 823.675 462.937 823.495 462.869 823.247C462.79 823.011 462.575 822.785 462.237 822.594Z" fill="black"/>
<path d="M470.36 831.676C469.593 831.237 468.781 830.899 467.957 830.685C467.134 830.459 466.321 830.369 465.531 830.392L466.66 829.738L464.979 828.769L456.596 833.637L458.277 834.606L463.433 831.62C463.941 831.327 464.516 831.147 465.137 831.102C465.768 831.057 466.411 831.102 467.055 831.271C467.698 831.44 468.329 831.699 468.927 832.048C469.751 832.522 470.247 833.006 470.417 833.513C470.597 834.032 470.315 834.494 469.582 834.911L464.211 838.032L465.904 839.013L471.534 835.745C472.154 835.384 472.504 834.978 472.594 834.528C472.673 834.066 472.527 833.603 472.132 833.119C471.737 832.634 471.15 832.161 470.36 831.71" fill="black"/>
<path d="M477.592 844.287C476.825 843.847 476.261 843.363 475.889 842.833C475.528 842.303 475.392 841.785 475.494 841.289C475.595 840.793 475.945 840.376 476.52 840.038C477.096 839.7 477.829 839.497 478.687 839.43C479.544 839.373 480.435 839.441 481.349 839.655C482.263 839.869 483.109 840.196 483.877 840.636C484.644 841.075 485.219 841.582 485.591 842.123C485.952 842.664 486.077 843.182 485.975 843.689C485.874 844.185 485.546 844.591 484.982 844.918C484.418 845.245 483.719 845.436 482.861 845.493C482.004 845.549 481.09 845.481 480.165 845.267C479.217 845.064 478.371 844.737 477.592 844.287ZM484.565 839.869C483.561 839.295 482.455 838.855 481.248 838.573C480.041 838.292 478.867 838.19 477.728 838.269C476.588 838.348 475.64 838.618 474.851 839.069C474.061 839.52 473.598 840.083 473.463 840.737C473.328 841.402 473.497 842.078 473.993 842.777C474.478 843.475 475.223 844.118 476.227 844.692C477.231 845.267 478.247 845.662 479.42 845.921C480.582 846.191 481.631 846.27 482.579 846.169L480.785 847.205C479.758 847.803 478.608 848.073 477.321 847.994C476.035 847.927 474.738 847.521 473.429 846.766C472.346 846.135 471.601 845.515 471.24 844.895C470.868 844.275 470.834 843.667 471.161 843.07L469.232 842.563C468.905 843.329 468.995 844.118 469.537 844.929C470.067 845.74 471.037 846.552 472.447 847.374C473.643 848.062 474.839 848.558 476.047 848.839C477.242 849.132 478.405 849.223 479.51 849.11C480.627 848.997 481.631 848.67 482.534 848.141L490.544 843.487L488.897 842.54L487.137 843.532C487.329 842.98 487.194 842.371 486.72 841.695C486.257 841.03 485.535 840.41 484.565 839.858" fill="black"/>
<path d="M408.409 823.506C408.07 823.315 407.687 823.191 407.269 823.146C406.863 823.101 406.525 823.146 406.299 823.292C406.073 823.439 405.983 823.619 406.051 823.867C406.13 824.115 406.344 824.329 406.683 824.521C407.021 824.712 407.405 824.847 407.822 824.881C408.24 824.926 408.567 824.881 408.804 824.735C409.041 824.588 409.12 824.408 409.041 824.171C408.973 823.935 408.759 823.709 408.409 823.506ZM419.77 817.883L418.089 816.914L409.289 822.019L410.97 822.988L419.77 817.883Z" fill="black"/>
<path d="M429.405 831.958L420.334 826.73L419.33 827.316L428.401 832.544L429.405 831.958ZM432.858 829.952L423.787 824.724L422.783 825.31L431.854 830.538L432.858 829.952Z" fill="black"/>
<path d="M446.611 841.887L437.54 836.658L436.536 837.244L445.607 842.473L446.611 841.887ZM450.063 839.881L440.992 834.652L439.988 835.238L449.059 840.467L450.063 839.881Z" fill="black"/>
<path d="M421.542 838.213C420.515 837.616 419.454 837.142 418.349 836.782C417.243 836.432 416.182 836.241 415.167 836.229C414.152 836.218 413.294 836.421 412.583 836.827C411.873 837.232 411.579 837.694 411.647 838.224C411.726 838.742 412.019 839.295 412.55 839.847C413.08 840.399 413.836 841.075 414.806 841.887C415.754 842.675 416.476 843.306 416.961 843.78C417.457 844.253 417.751 844.715 417.886 845.155C418.01 845.594 417.807 845.977 417.288 846.281C416.769 846.586 416.137 846.721 415.404 846.687C414.671 846.642 413.915 846.484 413.136 846.203C412.346 845.921 411.579 845.56 410.835 845.132C409.966 844.636 409.289 844.129 408.77 843.611C408.24 843.104 407.924 842.596 407.811 842.134C407.698 841.672 407.788 841.244 408.104 840.884L406.062 840.05C405.622 840.534 405.475 841.086 405.622 841.706C405.758 842.326 406.186 842.98 406.863 843.667C407.551 844.354 408.499 845.042 409.684 845.718C410.801 846.36 411.929 846.867 413.08 847.262C414.242 847.645 415.348 847.848 416.408 847.882C417.469 847.904 418.371 847.701 419.138 847.251C419.906 846.8 420.21 846.293 420.086 845.707C419.951 845.121 419.601 844.523 419.014 843.937C418.428 843.351 417.581 842.608 416.487 841.717C415.663 841.041 415.032 840.489 414.592 840.061C414.152 839.621 413.881 839.204 413.768 838.821C413.655 838.438 413.836 838.111 414.298 837.841C414.806 837.548 415.415 837.413 416.126 837.435C416.837 837.469 417.57 837.604 418.326 837.863C419.071 838.123 419.793 838.449 420.481 838.844C421.621 839.497 422.422 840.162 422.907 840.85C423.381 841.526 423.414 842.146 422.963 842.675L424.949 843.475C425.366 843.002 425.49 842.461 425.332 841.864C425.152 841.278 424.734 840.658 424.069 840.038C423.414 839.407 422.557 838.799 421.508 838.202" fill="black"/>
<path d="M441.308 853.888C440.541 853.449 439.729 853.122 438.883 852.919C438.036 852.716 437.224 852.648 436.423 852.716C436.581 852.277 436.502 851.826 436.163 851.353C435.825 850.879 435.283 850.417 434.528 849.978C433.772 849.538 433.061 849.268 432.271 849.076C431.493 848.885 430.725 848.817 429.969 848.862L431.109 848.197L429.428 847.228L421.045 852.096L422.726 853.065L428.04 849.978C428.762 849.561 429.563 849.38 430.432 849.448C431.301 849.516 432.124 849.775 432.914 850.226C433.659 850.654 434.099 851.116 434.223 851.589C434.358 852.074 434.076 852.502 433.388 852.908L427.939 856.074L429.665 857.066L435.001 853.967C435.712 853.55 436.502 853.37 437.359 853.437C438.217 853.505 439.04 853.764 439.853 854.226C440.315 854.497 440.665 854.778 440.891 855.083C441.128 855.387 441.207 855.68 441.128 855.984C441.049 856.288 440.789 856.57 440.338 856.818L434.81 860.03L436.502 861.01L442.301 857.641C442.876 857.314 443.204 856.931 443.305 856.502C443.384 856.074 443.26 855.646 442.899 855.195C442.549 854.744 442.008 854.305 441.274 853.888" fill="black"/>
<path d="M448.021 866.645C447.231 866.194 446.656 865.698 446.295 865.168C445.923 864.628 445.799 864.109 445.934 863.591C446.058 863.084 446.442 862.633 447.085 862.261C447.728 861.889 448.506 861.664 449.398 861.585C450.278 861.506 451.18 861.585 452.117 861.788C453.042 861.991 453.899 862.329 454.689 862.779C455.479 863.23 456.032 863.726 456.381 864.267C456.731 864.808 456.844 865.337 456.709 865.845C456.573 866.352 456.201 866.791 455.592 867.141C454.982 867.49 454.238 867.715 453.358 867.794C452.466 867.873 451.553 867.817 450.616 867.614C449.68 867.411 448.822 867.084 448.033 866.633M455.377 861.991C454.351 861.405 453.234 860.965 452.015 860.683C450.797 860.402 449.612 860.3 448.439 860.39C447.265 860.481 446.261 860.774 445.415 861.269C444.569 861.765 444.061 862.351 443.903 863.027C443.734 863.703 443.903 864.391 444.388 865.101C444.885 865.811 445.641 866.464 446.667 867.05C447.638 867.603 448.698 868.02 449.849 868.267C451 868.515 452.094 868.594 453.121 868.493L451.35 869.552L453.008 870.51L461.391 865.642L459.687 864.661L457.905 865.698C458.074 865.112 457.938 864.492 457.498 863.827C457.058 863.163 456.348 862.554 455.389 861.991" fill="black"/>
<path d="M473.835 867.141L472.143 866.171L458.841 873.879L460.545 874.86L473.835 867.141Z" fill="black"/>
<path d="M481.394 871.501L479.702 870.521L466.4 878.24L468.092 879.221L481.394 871.501Z" fill="black"/>
<path d="M495.475 881.035L484.554 874.736L483.448 875.378L488.04 878.026L477.073 884.393L478.811 885.396L489.777 879.029L494.369 881.678L495.475 881.035Z" fill="black"/>
<path d="M491.56 891.74C490.77 891.29 490.195 890.794 489.834 890.264C489.461 889.723 489.349 889.205 489.473 888.687C489.597 888.179 489.98 887.729 490.623 887.357C491.267 886.985 492.034 886.76 492.925 886.681C493.805 886.613 494.708 886.681 495.644 886.883C496.569 887.098 497.427 887.424 498.216 887.875C499.006 888.326 499.559 888.822 499.909 889.363C500.259 889.904 500.371 890.433 500.236 890.94C500.112 891.459 499.74 891.887 499.119 892.248C498.498 892.608 497.765 892.822 496.874 892.89C495.983 892.969 495.069 892.912 494.132 892.71C493.196 892.507 492.338 892.18 491.549 891.729M498.893 887.086C497.878 886.5 496.75 886.061 495.531 885.779C494.313 885.497 493.128 885.396 491.966 885.497C490.793 885.588 489.789 885.881 488.931 886.376C488.074 886.872 487.577 887.458 487.419 888.134C487.25 888.81 487.419 889.498 487.916 890.208C488.412 890.918 489.157 891.56 490.183 892.157C491.154 892.721 492.214 893.127 493.365 893.374C494.527 893.622 495.61 893.701 496.637 893.6L494.866 894.659L496.524 895.617L504.907 890.749L503.215 889.768L501.432 890.805C501.601 890.219 501.466 889.599 501.014 888.934C500.574 888.27 499.875 887.661 498.905 887.098" fill="black"/>
<path d="M517.374 892.248L515.681 891.268L502.38 898.987L504.072 899.967L517.374 892.248Z" fill="black"/>
<path d="M524.933 896.609L523.241 895.628L509.939 903.348L511.631 904.328L516.009 901.781L517.543 907.731L519.766 909.016L518.096 902.784L527.596 903.832L525.339 902.536L516.291 901.624L524.933 896.609Z" fill="black"/>
<path d="M528.995 911.833L527.201 910.797L520.398 912.983L521.65 913.704L528.995 911.833ZM533.462 908.002C533.113 907.799 532.729 907.675 532.312 907.63C531.883 907.585 531.556 907.63 531.319 907.777C531.082 907.923 531.003 908.103 531.082 908.351C531.172 908.588 531.375 908.813 531.736 909.016C532.063 909.208 532.447 909.332 532.876 909.377C533.305 909.422 533.62 909.377 533.857 909.241C534.094 909.106 534.162 908.915 534.083 908.667C534.004 908.419 533.79 908.205 533.474 908.013" fill="black"/>
</g>
</g>
<g clip-path="url(#clip1_171_1388)">
<mask id="mask1_171_1388" style="mask-type:luminance" maskUnits="userSpaceOnUse" x="138" y="331" width="101" height="141">
<path d="M138 413.84L138.23 331L238.46 388.87L238.23 471.71L138 413.84Z" fill="white"/>
</mask>
<g mask="url(#mask1_171_1388)">
<path d="M140.79 344.53L140.81 338.78L142.58 339.8C143.07 340.08 143.43 340.55 143.7 341.23C143.96 341.91 144.09 342.67 144.08 343.54C144.07 344.41 143.95 345.06 143.69 345.43C143.43 345.79 143.05 345.83 142.56 345.55L140.79 344.53ZM142.7 337.16L139.14 335.11L139.09 352.78L140.76 353.74L140.78 347.23L142.55 348.25C143.25 348.65 143.83 348.74 144.3 348.51C144.77 348.28 145.11 347.8 145.34 347.07C145.57 346.35 145.68 345.45 145.69 344.36C145.7 343.27 145.59 342.29 145.37 341.34C145.15 340.39 144.81 339.54 144.37 338.81C143.92 338.08 143.36 337.52 142.71 337.14" fill="black"/>
<path d="M151.43 347.24C151.12 347.06 150.84 347 150.55 347.04C150.27 347.07 150.02 347.2 149.81 347.4C149.6 347.6 149.43 347.88 149.33 348.22V346.18L147.8 345.29L147.76 357.78L149.37 358.71L149.39 352.44C149.39 351.55 149.46 350.88 149.62 350.45C149.77 350.01 149.99 349.77 150.29 349.71C150.58 349.65 150.96 349.76 151.43 350.03V347.24Z" fill="black"/>
<path d="M154.82 349.34L153.22 348.42L153.18 360.91L154.78 361.83L154.82 349.34ZM154.05 343C153.88 342.9 153.71 342.89 153.56 342.97C153.41 343.05 153.3 343.2 153.21 343.43C153.13 343.66 153.08 343.94 153.08 344.28C153.08 344.62 153.12 344.94 153.21 345.28C153.3 345.61 153.41 345.9 153.56 346.15C153.71 346.4 153.87 346.58 154.04 346.68C154.21 346.78 154.37 346.79 154.51 346.7C154.66 346.62 154.77 346.46 154.86 346.23C154.95 346 155 345.71 155 345.38C155 345.05 154.96 344.71 154.87 344.38C154.79 344.05 154.67 343.77 154.53 343.52C154.38 343.27 154.22 343.09 154.06 343" fill="black"/>
<path d="M160.93 352.63C160.51 352.39 160.13 352.32 159.79 352.4C159.45 352.5 159.17 352.75 158.95 353.17V351.72L157.36 350.8L157.32 363.29L158.92 364.21L158.94 357.13C158.94 356.04 159.09 355.34 159.37 354.98C159.65 354.64 160.01 354.59 160.44 354.84C160.8 355.05 161.1 355.42 161.33 355.96C161.57 356.5 161.68 357.2 161.68 358.06L161.66 365.8L163.27 366.73L163.29 358.32C163.29 356.93 163.09 355.75 162.67 354.76C162.26 353.76 161.68 353.06 160.93 352.62" fill="black"/>
<path d="M167.88 353.09L166.6 352.35C166.6 353.43 166.55 354.21 166.46 354.69C166.36 355.16 166.21 355.44 165.98 355.5C165.76 355.56 165.42 355.46 164.96 355.2V357.58L166.25 358.33L166.23 364.71C166.23 365.89 166.39 366.9 166.72 367.75C167.05 368.59 167.52 369.19 168.12 369.54L169.22 370.18V367.81L168.64 367.47C168.39 367.33 168.19 367.07 168.05 366.71C167.91 366.35 167.84 365.88 167.84 365.31L167.86 359.27L169.25 360.07V357.69L167.87 356.89V353.1" fill="black"/>
<path d="M177.51 353.68C176.95 354.11 176.46 354.88 176.04 355.98C175.63 357.09 175.3 358.47 175.08 360.14C174.86 361.8 174.74 363.66 174.73 365.72C174.72 367.78 174.83 369.78 175.05 371.7C175.26 373.61 175.58 375.36 175.98 376.93C176.38 378.51 176.87 379.84 177.43 380.92L178.33 379.35C177.89 378.53 177.51 377.47 177.18 376.16C176.85 374.85 176.6 373.38 176.43 371.73C176.25 370.08 176.16 368.36 176.17 366.55C176.18 364.74 176.27 363.13 176.46 361.68C176.64 360.24 176.9 359.05 177.24 358.12C177.58 357.19 177.97 356.58 178.4 356.26L177.51 353.68Z" fill="black"/>
<path d="M140.94 363.99L139.79 363.33L138.47 370.51L140.12 371.46L140.93 363.99M143.71 365.59L142.57 364.93L141.25 372.11L142.9 373.06L143.71 365.59Z" fill="black"/>
<path d="M153.51 371.25L151.85 370.29L151.83 377.7L147.7 375.32L147.72 367.91L146.05 366.94L146 384.61L147.67 385.57L147.69 378.13L151.82 380.51L151.8 387.95L153.46 388.92L153.51 371.25Z" fill="black"/>
<path d="M157.42 383.12C157.52 382.36 157.72 381.86 158.02 381.61C158.31 381.37 158.67 381.37 159.11 381.62C159.52 381.86 159.86 382.26 160.13 382.84C160.4 383.42 160.57 384.12 160.64 384.97L157.43 383.12M159.12 379.4C158.48 379.03 157.89 378.96 157.39 379.18C156.88 379.41 156.49 379.93 156.2 380.75C155.91 381.57 155.77 382.65 155.76 383.99C155.75 385.33 155.89 386.57 156.17 387.71C156.44 388.84 156.84 389.82 157.34 390.63C157.85 391.44 158.44 392.04 159.12 392.43C159.59 392.7 160.02 392.8 160.42 392.72C160.82 392.64 161.17 392.4 161.46 391.99C161.76 391.58 161.97 391.01 162.12 390.29L160.66 388.99C160.52 389.51 160.31 389.85 160.04 390.02C159.77 390.19 159.46 390.17 159.11 389.97C158.78 389.78 158.49 389.48 158.23 389.07C157.96 388.66 157.75 388.14 157.59 387.52C157.43 386.9 157.34 386.22 157.31 385.46L162.21 388.29L162.24 387.53C162.24 386.13 162.11 384.89 161.83 383.78C161.56 382.69 161.2 381.77 160.73 381.04C160.26 380.31 159.72 379.76 159.1 379.4" fill="black"/>
<path d="M165.98 377.18L164.37 376.25L164.32 395.18L165.93 396.11L165.98 377.18Z" fill="black"/>
<path d="M170.12 379.57L168.51 378.64L168.46 397.58L170.07 398.5L170.12 379.57Z" fill="black"/>
<path d="M175.59 399.46C175.23 399.25 174.91 398.91 174.63 398.41C174.35 397.92 174.13 397.31 173.98 396.61C173.82 395.9 173.75 395.15 173.75 394.36C173.75 393.57 173.83 392.92 173.99 392.39C174.15 391.87 174.38 391.53 174.66 391.36C174.94 391.18 175.26 391.21 175.61 391.41C175.96 391.61 176.3 391.97 176.59 392.47C176.88 392.97 177.1 393.58 177.26 394.28C177.42 394.99 177.5 395.73 177.5 396.53C177.5 397.33 177.41 397.98 177.25 398.5C177.09 399.02 176.86 399.36 176.58 399.53C176.29 399.7 175.97 399.67 175.6 399.46M175.64 388.96C174.97 388.57 174.38 388.49 173.85 388.71C173.32 388.93 172.91 389.44 172.62 390.25C172.32 391.06 172.17 392.12 172.17 393.44C172.17 394.76 172.31 396.01 172.61 397.17C172.9 398.32 173.31 399.31 173.83 400.13C174.35 400.96 174.95 401.56 175.61 401.94C176.27 402.32 176.88 402.42 177.41 402.19C177.94 401.97 178.35 401.46 178.65 400.65C178.95 399.84 179.1 398.76 179.1 397.43C179.1 396.1 178.96 394.88 178.67 393.73C178.37 392.57 177.97 391.59 177.45 390.77C176.93 389.95 176.33 389.34 175.65 388.95" fill="black"/>
<path d="M194.66 395.01L192.15 393.56L189.88 404.55L187.7 390.99L185.2 389.55L185.15 407.21L186.82 408.17L186.86 394.34L189.35 409.64L190.41 410.25L192.99 397.87L192.95 411.71L194.61 412.67L194.66 395.01Z" fill="black"/>
<path d="M198.57 406.88C198.68 406.12 198.88 405.62 199.17 405.37C199.46 405.13 199.83 405.13 200.26 405.38C200.66 405.61 201.01 406.02 201.27 406.6C201.54 407.18 201.71 407.89 201.78 408.73L198.56 406.87M200.25 403.15C199.6 402.77 199.02 402.71 198.52 402.93C198.01 403.16 197.62 403.68 197.33 404.5C197.05 405.32 196.9 406.4 196.9 407.74C196.9 409.08 197.03 410.32 197.31 411.46C197.59 412.6 197.98 413.57 198.49 414.38C199 415.19 199.59 415.79 200.27 416.18C200.74 416.45 201.16 416.54 201.57 416.47C201.97 416.39 202.31 416.15 202.61 415.74C202.9 415.33 203.12 414.75 203.27 414.03L201.82 412.73C201.68 413.25 201.47 413.59 201.2 413.76C200.93 413.93 200.62 413.91 200.27 413.71C199.94 413.52 199.65 413.22 199.39 412.81C199.12 412.4 198.91 411.88 198.75 411.26C198.59 410.64 198.49 409.96 198.47 409.2L203.36 412.02L203.39 411.26C203.39 409.87 203.26 408.62 202.99 407.52C202.72 406.43 202.36 405.51 201.89 404.78C201.42 404.05 200.88 403.5 200.26 403.14" fill="black"/>
<path d="M209.08 408.27C208.66 408.03 208.28 407.95 207.94 408.05C207.6 408.15 207.32 408.4 207.09 408.81V407.37L205.5 406.45L205.46 418.94L207.06 419.86L207.08 412.79C207.08 411.71 207.23 410.99 207.51 410.65C207.79 410.3 208.15 410.25 208.58 410.5C208.94 410.71 209.24 411.09 209.47 411.62C209.7 412.16 209.81 412.85 209.81 413.7L209.79 421.44L211.4 422.37L211.42 413.96C211.42 412.58 211.22 411.39 210.81 410.4C210.4 409.4 209.82 408.7 209.07 408.26" fill="black"/>
<path d="M216.03 408.74L214.76 408.01C214.76 409.09 214.71 409.86 214.61 410.34C214.52 410.82 214.36 411.09 214.13 411.15C213.91 411.22 213.57 411.12 213.11 410.85V413.23L214.4 413.98L214.38 420.36C214.38 421.54 214.54 422.56 214.87 423.41C215.2 424.25 215.67 424.85 216.26 425.19L217.37 425.83V423.47L216.79 423.13C216.53 422.98 216.34 422.72 216.2 422.36C216.06 421.99 215.99 421.53 215.99 420.96L216.01 414.91L217.4 415.71V413.33L216.01 412.53V408.74" fill="black"/>
<path d="M222.35 426.46C221.99 426.25 221.67 425.91 221.39 425.41C221.11 424.92 220.89 424.31 220.74 423.61C220.58 422.9 220.51 422.15 220.51 421.36C220.51 420.57 220.59 419.92 220.75 419.39C220.91 418.87 221.14 418.53 221.42 418.36C221.7 418.18 222.02 418.21 222.37 418.41C222.72 418.61 223.06 418.97 223.35 419.47C223.64 419.97 223.86 420.58 224.02 421.28C224.18 421.99 224.26 422.73 224.26 423.53C224.26 424.33 224.17 424.98 224.01 425.5C223.85 426.02 223.62 426.36 223.34 426.53C223.05 426.7 222.73 426.67 222.36 426.46M222.4 415.96C221.73 415.57 221.14 415.49 220.61 415.71C220.08 415.93 219.67 416.44 219.38 417.25C219.08 418.06 218.93 419.12 218.93 420.44C218.93 421.76 219.07 423.01 219.37 424.17C219.66 425.32 220.07 426.31 220.59 427.13C221.11 427.96 221.71 428.56 222.37 428.94C223.03 429.32 223.64 429.42 224.17 429.19C224.7 428.97 225.11 428.46 225.41 427.65C225.71 426.84 225.86 425.76 225.86 424.43C225.86 423.1 225.72 421.88 225.43 420.73C225.13 419.57 224.73 418.59 224.21 417.77C223.69 416.95 223.09 416.34 222.41 415.95" fill="black"/>
<path d="M231.56 421.35C231.25 421.17 230.97 421.1 230.68 421.14C230.39 421.18 230.15 421.3 229.94 421.5C229.72 421.71 229.56 421.98 229.46 422.32V420.29L227.93 419.4L227.89 431.89L229.5 432.82L229.52 426.55C229.52 425.66 229.59 425 229.75 424.57C229.9 424.13 230.12 423.89 230.42 423.83C230.71 423.77 231.09 423.87 231.56 424.14V421.36" fill="black"/>
<path d="M235.59 418.64L233.94 417.69L233.13 425.16L234.27 425.82L235.59 418.64ZM238.37 420.24L236.72 419.29L235.91 426.76L237.05 427.42L238.37 420.24Z" fill="black"/>
<path d="M138.97 387.12L138.07 388.67C138.5 389.48 138.88 390.54 139.21 391.86C139.54 393.17 139.8 394.66 139.97 396.31C140.14 397.96 140.24 399.7 140.23 401.49C140.22 403.28 140.12 404.91 139.94 406.35C139.76 407.79 139.5 408.98 139.16 409.9C138.82 410.82 138.44 411.44 138 411.76L138.89 414.36C139.45 413.93 139.95 413.16 140.36 412.06C140.77 410.95 141.09 409.58 141.32 407.92C141.54 406.26 141.66 404.4 141.66 402.33C141.66 400.26 141.56 398.28 141.35 396.37C141.13 394.45 140.82 392.7 140.41 391.12C140.01 389.54 139.52 388.21 138.96 387.13" fill="black"/>
<path d="M146.12 409.1L144.47 408.15L143.64 415.62L144.79 416.28L146.11 409.1M145.19 400.31C145.02 400.21 144.86 400.2 144.71 400.28C144.56 400.36 144.45 400.53 144.36 400.75C144.28 400.98 144.23 401.26 144.23 401.57C144.23 401.88 144.27 402.23 144.36 402.57C144.45 402.9 144.56 403.19 144.71 403.44C144.86 403.7 145.02 403.87 145.19 403.97C145.36 404.07 145.52 404.08 145.66 403.99C145.81 403.91 145.92 403.75 146.01 403.53C146.1 403.3 146.15 403.01 146.15 402.68C146.15 402.35 146.11 402.04 146.02 401.71C145.93 401.38 145.82 401.09 145.67 400.83C145.52 400.58 145.36 400.4 145.2 400.31" fill="black"/>
</g>
</g>
<g clip-path="url(#clip2_171_1388)">
<mask id="mask2_171_1388" style="mask-type:luminance" maskUnits="userSpaceOnUse" x="74" y="747" width="261" height="151">
<path d="M74 771.794L116.618 747L335 873.217L292.393 898L74 771.794Z" fill="white"/>
</mask>
<g mask="url(#mask2_171_1388)">
<path d="M128.584 778.655L126.62 777.526L119.945 781.415L121.798 782.487C123.025 783.202 124.711 782.923 126.91 781.638C127.993 781.012 128.707 780.42 129.008 779.895C129.299 779.403 129.165 779.001 128.584 778.666M189.007 805.348L178.436 809.695L181.539 811.483L189.018 805.337M228.789 828.321L218.219 832.679L221.322 834.467L228.789 828.321ZM171.381 793.75L169.751 792.812L154.827 801.494L156.457 802.432C157.115 802.812 157.919 802.946 158.935 802.868C159.995 802.779 161.201 802.477 162.54 801.963C163.913 801.438 165.387 800.711 166.927 799.818C168.468 798.924 169.707 798.074 170.6 797.281C171.482 796.499 171.995 795.795 172.14 795.192C172.274 794.599 172.017 794.13 171.37 793.75M136.186 773.325L135.014 772.655L129.098 776.096L130.75 777.057C131.185 777.303 131.766 777.359 132.491 777.191C133.295 777.023 134.177 776.655 135.103 776.107C137.079 774.956 137.425 774.051 136.186 773.336M240.421 833.539L238.378 832.366L230.988 836.668L233.031 837.841C233.355 838.031 233.768 838.098 234.27 838.076C234.828 838.042 235.453 837.908 236.146 837.663C236.86 837.417 237.597 837.07 238.344 836.623C239.092 836.176 239.673 835.774 240.097 835.35C240.51 834.947 240.756 834.579 240.811 834.255C240.856 833.942 240.722 833.707 240.41 833.528M280.795 856.87L278.752 855.697L271.363 859.999L273.406 861.172C273.729 861.362 274.142 861.429 274.645 861.406C275.203 861.373 275.828 861.239 276.52 860.993C277.234 860.747 277.971 860.401 278.719 859.954C279.467 859.507 280.047 859.105 280.472 858.68C280.885 858.278 281.13 857.909 281.186 857.585C281.231 857.272 281.097 857.038 280.784 856.859M115.725 782.029L136.052 770.208L138.82 771.805C140.015 772.498 140.383 773.303 139.903 774.196C139.445 775.057 138.418 775.962 136.833 776.878C135.829 777.459 134.846 777.917 133.92 778.23C133.116 778.498 132.368 778.655 131.71 778.699C131.9 779.202 131.732 779.761 131.241 780.398C130.683 781.091 129.689 781.839 128.316 782.644C126.575 783.661 124.934 784.32 123.416 784.621C121.831 784.934 120.48 784.767 119.364 784.119L115.725 782.018M125.124 787.448L145.451 775.627L147.058 776.554L126.731 788.376L125.124 787.448ZM145.652 799.315L165.978 787.493L167.597 788.432L147.27 800.253L145.652 799.315ZM150.496 802.108L170.823 790.286L174.116 792.186C175.132 792.767 175.545 793.538 175.366 794.454C175.187 795.348 174.507 796.343 173.312 797.426C172.151 798.499 170.566 799.616 168.59 800.767C166.615 801.918 164.684 802.846 162.819 803.527C160.967 804.22 159.236 804.622 157.707 804.723C156.111 804.834 154.794 804.589 153.778 804.008L150.485 802.108M161.033 808.209L181.36 796.387L186.908 799.594L184.207 801.17L180.3 798.912L174.172 802.477L177.61 804.466L174.942 806.019L171.504 804.03L165.376 807.594L169.283 809.851L166.581 811.416L161.033 808.209ZM168.066 812.276L192.009 802.544L193.795 803.583L193.661 803.695L177.085 817.494L175.4 816.522L179.351 813.271L175.344 810.958L169.74 813.259L168.055 812.287M218.542 821.036L221.244 819.461L227.774 823.237L225.072 824.813L222.605 823.383L204.98 833.64L203.373 832.713L220.998 822.455L218.542 821.036ZM207.826 835.283L231.77 825.55L233.556 826.589L233.422 826.701L216.846 840.501L215.16 839.529L219.112 836.277L215.104 833.964L209.501 836.266L207.815 835.294M219 841.752L239.327 829.93L242.999 832.053C243.702 832.456 244.015 832.981 243.948 833.595C243.87 834.188 243.479 834.824 242.776 835.506C242.084 836.176 241.146 836.858 239.985 837.54C238.992 838.121 237.965 838.601 236.927 838.981C235.878 839.361 234.873 839.618 233.935 839.73C233.087 839.83 232.339 839.808 231.714 839.674L226.077 845.853L224.213 844.78L229.861 838.802L228.577 838.065L220.607 842.702L218.989 841.763M245.142 836.445L247.844 834.869L254.374 838.646L251.672 840.221L249.217 838.802L231.591 849.06L229.984 848.132L247.609 837.875L245.154 836.456M253.492 848.356L257.957 850.937L266.764 845.808L268.383 846.747L248.056 858.568L246.437 857.63L255.289 852.479L250.824 849.898L241.972 855.049L240.354 854.11L260.681 842.288L262.299 843.227L253.492 848.356ZM251.282 860.434L271.609 848.613L277.156 851.819L274.455 853.395L270.559 851.138L264.431 854.702L267.869 856.691L265.201 858.244L261.763 856.255L255.635 859.82L259.531 862.077L256.829 863.641L251.282 860.434ZM259.375 865.116L279.701 853.294L283.374 855.417C284.077 855.82 284.39 856.345 284.323 856.959C284.244 857.552 283.854 858.188 283.15 858.87C282.458 859.54 281.521 860.222 280.36 860.904C279.366 861.485 278.339 861.965 277.301 862.345C276.252 862.725 275.247 862.982 274.31 863.094C273.462 863.194 272.714 863.172 272.089 863.038L266.451 869.217L264.587 868.144L270.236 862.166L268.952 861.429L260.982 866.066L259.363 865.127M268.93 870.658L289.256 858.836L294.804 862.043L292.103 863.619L288.207 861.362L282.079 864.926L285.517 866.915L282.849 868.468L279.411 866.479L273.283 870.044L277.179 872.301L274.477 873.865L268.93 870.658ZM134.009 792.912C133.049 792.365 132.625 791.616 132.726 790.678C132.826 789.772 133.462 788.722 134.601 787.571C135.728 786.432 137.369 785.236 139.445 784.029C141.522 782.822 143.62 781.839 145.596 781.18C147.594 780.51 149.413 780.13 150.998 780.063C152.639 779.996 153.945 780.241 154.905 780.8C155.865 781.359 156.278 782.085 156.2 783.012C156.111 783.918 155.497 784.945 154.392 786.063L154.325 786.141L151.367 786.242L151.624 785.973C152.461 785.147 152.907 784.42 152.974 783.795C153.041 783.191 152.773 782.733 152.182 782.387C151.59 782.04 150.742 781.873 149.659 781.929C148.554 781.973 147.248 782.253 145.797 782.755C144.323 783.258 142.749 783.996 141.109 784.945C139.468 785.895 138.24 786.8 137.358 787.661C136.498 788.51 136.03 789.258 135.952 789.907C135.873 790.532 136.152 791.035 136.789 791.393C137.313 791.694 138.017 791.851 138.91 791.873C139.825 791.895 140.874 791.739 142.035 791.404C143.151 791.091 144.323 790.599 145.518 789.962L142.258 788.085L144.803 786.61L149.659 789.415L149.48 789.527C149.09 789.761 148.799 789.94 148.599 790.063C146.656 791.192 144.725 792.085 142.883 792.7C141.03 793.315 139.311 793.661 137.804 793.694C136.264 793.739 134.992 793.482 134.02 792.923M184.821 819.304C185.156 819.494 185.557 819.617 186.049 819.662C186.54 819.707 187.109 819.651 187.756 819.472C188.426 819.304 189.14 818.991 189.9 818.556C190.659 818.12 191.161 817.695 191.395 817.293C191.63 816.902 191.708 816.544 191.652 816.22C191.574 815.874 191.406 815.427 191.139 814.902C190.86 814.31 190.681 813.785 190.647 813.326C190.592 812.857 190.804 812.321 191.25 811.74C191.697 811.159 192.512 810.522 193.672 809.84C194.833 809.159 196.072 808.622 197.211 808.298C198.372 807.963 199.421 807.818 200.37 807.863C201.341 807.907 202.145 808.108 202.781 808.477C203.417 808.846 203.786 809.282 203.942 809.796C204.087 810.31 203.953 810.891 203.551 811.539C203.161 812.176 202.457 812.857 201.486 813.55L201.363 813.639L198.997 813.215L199.242 813.025C200.18 812.354 200.705 811.74 200.828 811.203C200.95 810.701 200.749 810.298 200.225 809.997C199.923 809.818 199.533 809.717 199.075 809.673C198.595 809.639 198.037 809.695 197.412 809.863C196.764 810.03 196.061 810.332 195.324 810.768C194.677 811.148 194.242 811.505 194.03 811.851C193.818 812.187 193.739 812.511 193.795 812.812C193.862 813.125 194.007 813.516 194.253 813.974C194.577 814.611 194.778 815.181 194.844 815.651C194.923 816.142 194.711 816.712 194.264 817.36C193.806 817.986 192.936 818.69 191.686 819.416C190.435 820.142 189.129 820.723 187.946 821.047C186.752 821.371 185.647 821.505 184.687 821.45C183.704 821.383 182.878 821.159 182.209 820.779C181.494 820.366 181.081 819.863 180.97 819.282C180.858 818.701 181.037 818.075 181.517 817.382C181.985 816.712 182.711 816.008 183.704 815.304L183.827 815.215L186.249 815.695L185.993 815.874C185.323 816.343 184.821 816.813 184.508 817.26C184.207 817.695 184.084 818.098 184.151 818.444C184.218 818.79 184.441 819.07 184.843 819.304M198.305 827.081C198.64 827.271 199.042 827.394 199.533 827.439C200.024 827.483 200.593 827.427 201.241 827.249C201.91 827.081 202.625 826.768 203.384 826.332C204.143 825.897 204.645 825.472 204.88 825.07C205.114 824.679 205.192 824.321 205.136 823.997C205.058 823.651 204.891 823.204 204.623 822.679C204.344 822.087 204.165 821.561 204.132 821.103C204.076 820.634 204.288 820.098 204.734 819.517C205.181 818.936 205.996 818.299 207.157 817.617C208.318 816.935 209.557 816.399 210.695 816.075C211.856 815.74 212.905 815.595 213.865 815.639C214.825 815.673 215.64 815.885 216.265 816.254C216.89 816.623 217.27 817.058 217.426 817.572C217.571 818.086 217.437 818.667 217.035 819.315C216.645 819.952 215.941 820.634 214.97 821.327L214.848 821.416L212.481 820.992L212.727 820.802C213.664 820.131 214.189 819.517 214.312 818.98C214.435 818.477 214.234 818.086 213.709 817.774C213.408 817.595 213.028 817.494 212.559 817.449C212.079 817.416 211.521 817.472 210.896 817.639C210.249 817.807 209.545 818.109 208.809 818.544C208.161 818.924 207.726 819.282 207.514 819.628C207.302 819.964 207.224 820.288 207.279 820.589C207.346 820.902 207.492 821.293 207.737 821.751C208.061 822.388 208.251 822.958 208.329 823.427C208.396 823.919 208.195 824.489 207.737 825.137C207.291 825.774 206.409 826.467 205.159 827.193C203.908 827.919 202.602 828.5 201.419 828.824C200.225 829.148 199.12 829.282 198.16 829.226C197.189 829.159 196.351 828.936 195.682 828.556C194.978 828.154 194.554 827.64 194.443 827.059C194.331 826.489 194.51 825.852 194.99 825.159C195.458 824.489 196.184 823.785 197.177 823.081L197.3 822.992L199.722 823.472L199.466 823.651C198.796 824.12 198.305 824.589 197.981 825.036C197.68 825.472 197.557 825.874 197.624 826.221C197.691 826.567 197.914 826.846 198.316 827.081M315.923 863.999L131.029 757.157L95.923 761.324L92.7417 780.789L279.188 885.854L311.682 884.413L315.89 863.988" fill="white"/>
<path d="M92.7306 780.789L95.9119 761.325L131.018 757.157L315.868 863.988L311.659 884.413L279.166 885.854L92.7306 780.789ZM318.223 863.518L131.743 755.749L93.8468 760.252L90.4088 781.281L277.982 886.994L278.351 887.195L313.68 885.631L318.223 863.53" fill="black"/>
<path d="M119.163 781.404L126.62 777.068L128.975 778.431C129.712 778.856 129.901 779.381 129.544 779.996C129.209 780.577 128.462 781.202 127.312 781.862C124.878 783.281 122.891 783.56 121.418 782.711L119.163 781.415M128.316 776.096L135.025 772.196L136.588 773.102C138.084 773.962 137.726 775.057 135.516 776.342C134.523 776.923 133.574 777.303 132.703 777.504C131.754 777.705 130.973 777.638 130.37 777.292L128.316 776.107M138.43 772.062L136.063 770.699L116.529 782.063L119.766 783.929C120.726 784.487 121.865 784.622 123.237 784.353C124.666 784.074 126.24 783.437 127.926 782.454C129.265 781.672 130.203 780.945 130.739 780.286C131.252 779.66 131.375 779.091 131.107 778.621L130.984 778.409H131.364C132.022 778.409 132.781 778.264 133.652 777.973C134.545 777.672 135.483 777.236 136.454 776.666C137.972 775.783 138.965 774.923 139.39 774.118C139.803 773.336 139.49 772.666 138.441 772.051" fill="white"/>
<path d="M119.956 781.404L126.631 777.515L128.595 778.644C129.176 778.979 129.321 779.381 129.02 779.873C128.718 780.398 128.004 780.99 126.921 781.616C124.722 782.901 123.048 783.18 121.809 782.465L119.956 781.393M128.986 778.409L126.631 777.046L119.174 781.381L121.429 782.678C122.914 783.538 124.89 783.247 127.323 781.828C128.473 781.158 129.221 780.532 129.555 779.962C129.913 779.348 129.723 778.823 128.986 778.398M129.109 776.052L135.025 772.61L136.197 773.281C137.447 774.007 137.09 774.912 135.114 776.052C134.177 776.599 133.306 776.968 132.502 777.135C131.777 777.292 131.196 777.247 130.761 777.001L129.109 776.04M136.599 773.046L135.036 772.141L128.328 776.04L130.381 777.225C130.984 777.571 131.766 777.649 132.714 777.437C133.585 777.247 134.534 776.856 135.527 776.275C137.737 774.99 138.095 773.906 136.599 773.035M116.54 781.974L136.074 770.61L138.441 771.973C139.49 772.588 139.803 773.258 139.39 774.04C138.965 774.845 137.983 775.705 136.454 776.588C135.483 777.158 134.545 777.594 133.652 777.895C132.793 778.186 132.022 778.331 131.364 778.331H130.984L131.107 778.543C131.375 779.013 131.252 779.571 130.739 780.208C130.214 780.867 129.265 781.594 127.926 782.376C126.24 783.359 124.666 783.996 123.237 784.275C121.865 784.544 120.726 784.409 119.766 783.851L116.529 781.985M138.831 771.761L136.063 770.163L115.736 781.985L119.375 784.085C120.492 784.733 121.842 784.901 123.427 784.588C124.934 784.287 126.586 783.616 128.328 782.61C129.712 781.806 130.694 781.046 131.252 780.365C131.754 779.739 131.911 779.169 131.721 778.666C132.391 778.622 133.139 778.465 133.931 778.197C134.858 777.884 135.84 777.426 136.845 776.845C138.43 775.917 139.457 775.024 139.914 774.163C140.394 773.269 140.026 772.465 138.831 771.772" fill="black"/>
<path d="M146.277 776.577L145.451 776.096L125.916 787.46L126.742 787.94L146.277 776.577Z" fill="white"/>
<path d="M125.916 787.46L145.451 776.096L146.277 776.577L126.742 787.94L125.916 787.46ZM147.069 776.566L145.462 775.638L125.135 787.46L126.742 788.387L147.069 776.566Z" fill="black"/>
<path d="M154.515 781.024C153.677 780.543 152.505 780.32 151.043 780.376C149.536 780.443 147.795 780.8 145.875 781.448C143.933 782.096 141.901 783.035 139.836 784.242C137.771 785.448 136.186 786.599 135.081 787.717C133.987 788.823 133.373 789.828 133.284 790.689C133.194 791.516 133.574 792.197 134.4 792.678C135.226 793.158 136.376 793.404 137.76 793.359C139.177 793.315 140.807 793.002 142.593 792.398C144.39 791.795 146.277 790.923 148.186 789.817C148.353 789.717 148.587 789.583 148.878 789.404L144.803 787.046L143.04 788.074L146.31 789.963L146.109 790.074C144.781 790.801 143.497 791.337 142.258 791.683C141.019 792.03 139.87 792.197 138.876 792.186C137.849 792.164 137.012 791.974 136.387 791.605C135.639 791.169 135.304 790.588 135.382 789.862C135.46 789.158 135.974 788.354 136.878 787.46C137.771 786.577 139.066 785.65 140.718 784.689C142.37 783.728 143.988 782.968 145.507 782.443C147.036 781.918 148.42 781.627 149.614 781.571C150.853 781.515 151.847 781.705 152.572 782.119C153.298 782.532 153.61 783.091 153.532 783.772C153.465 784.376 153.075 785.069 152.36 785.828L153.979 785.784C154.995 784.733 155.553 783.772 155.631 782.946C155.709 782.119 155.329 781.471 154.503 780.99" fill="white"/>
<path d="M134.411 792.678C133.574 792.197 133.194 791.527 133.295 790.689C133.384 789.828 133.998 788.823 135.092 787.717C136.197 786.599 137.804 785.426 139.847 784.242C141.89 783.057 143.944 782.096 145.886 781.448C147.806 780.8 149.547 780.443 151.054 780.376C152.517 780.32 153.689 780.532 154.526 781.024C155.363 781.515 155.731 782.152 155.653 782.979C155.575 783.806 155.017 784.767 154.001 785.817L152.383 785.862C153.086 785.091 153.488 784.409 153.555 783.806C153.633 783.113 153.298 782.554 152.595 782.152C151.891 781.75 150.876 781.538 149.637 781.605C148.442 781.649 147.058 781.951 145.529 782.476C144.011 782.99 142.403 783.75 140.74 784.722C139.077 785.694 137.804 786.61 136.9 787.493C135.996 788.387 135.494 789.191 135.405 789.895C135.326 790.622 135.661 791.203 136.409 791.638C137.034 791.996 137.871 792.197 138.898 792.22C139.903 792.242 141.042 792.074 142.281 791.717C143.52 791.37 144.803 790.823 146.132 790.108L146.333 789.996L143.062 788.108L144.826 787.08L148.9 789.437C148.599 789.616 148.375 789.75 148.208 789.851C146.299 790.968 144.413 791.84 142.615 792.432C140.841 793.024 139.2 793.348 137.782 793.393C136.409 793.437 135.271 793.203 134.422 792.711M154.928 780.822C153.968 780.264 152.662 780.018 151.021 780.085C149.425 780.152 147.616 780.521 145.618 781.202C143.642 781.862 141.566 782.834 139.468 784.052C137.369 785.27 135.751 786.454 134.623 787.594C133.485 788.745 132.848 789.784 132.748 790.7C132.647 791.638 133.072 792.387 134.032 792.935C134.992 793.482 136.275 793.75 137.816 793.706C139.323 793.661 141.042 793.326 142.895 792.711C144.736 792.097 146.667 791.203 148.61 790.074C148.811 789.951 149.101 789.773 149.492 789.538L149.67 789.426L144.814 786.622L142.269 788.096L145.529 789.974C144.323 790.622 143.151 791.102 142.046 791.415C140.885 791.739 139.836 791.895 138.921 791.884C138.028 791.873 137.324 791.717 136.8 791.404C136.164 791.035 135.896 790.543 135.963 789.918C136.041 789.27 136.521 788.51 137.369 787.672C138.24 786.812 139.501 785.895 141.12 784.957C142.738 784.018 144.323 783.269 145.808 782.767C147.27 782.264 148.565 781.985 149.67 781.94C150.753 781.895 151.579 782.052 152.193 782.398C152.807 782.744 153.052 783.202 152.985 783.806C152.918 784.42 152.472 785.158 151.635 785.985L151.378 786.253L154.336 786.152L154.403 786.074C155.508 784.946 156.122 783.929 156.211 783.024C156.301 782.107 155.865 781.359 154.916 780.811" fill="black"/>
<path d="M166.804 788.432L165.978 787.962L146.444 799.326L147.27 799.795L166.804 788.432Z" fill="white"/>
<path d="M146.444 799.326L165.978 787.963L166.804 788.443L147.27 799.807L146.444 799.326ZM167.597 788.443L165.978 787.504L145.652 799.326L147.27 800.265L167.597 788.443Z" fill="black"/>
<path d="M154.023 801.483L169.74 792.343L171.772 793.516C172.542 793.963 172.854 794.533 172.698 795.225C172.542 795.885 172.006 796.633 171.08 797.46C170.164 798.265 168.903 799.136 167.34 800.052C165.778 800.969 164.248 801.706 162.864 802.242C161.458 802.779 160.152 803.103 159.024 803.192C157.841 803.281 156.848 803.114 156.077 802.656L154.046 801.483M173.747 792.432L170.845 790.756L151.311 802.119L154.213 803.795C155.106 804.309 156.234 804.522 157.674 804.421C159.125 804.321 160.777 803.93 162.574 803.27C164.393 802.6 166.291 801.684 168.233 800.555C170.176 799.427 171.749 798.32 172.877 797.27C174.004 796.231 174.674 795.281 174.841 794.432C175.009 793.605 174.652 792.946 173.747 792.432Z" fill="white"/>
<path d="M154.805 801.483L169.729 792.801L171.359 793.739C172.006 794.119 172.263 794.589 172.129 795.181C171.995 795.795 171.47 796.499 170.589 797.27C169.696 798.064 168.456 798.913 166.916 799.807C165.376 800.7 163.891 801.438 162.529 801.952C161.19 802.466 159.973 802.768 158.924 802.857C157.908 802.935 157.093 802.79 156.446 802.421L154.816 801.483M171.772 793.516L169.74 792.343L154.023 801.483L156.055 802.656C156.836 803.103 157.819 803.282 159.002 803.192C160.14 803.103 161.435 802.79 162.842 802.242C164.226 801.706 165.744 800.969 167.318 800.052C168.892 799.136 170.142 798.265 171.057 797.46C171.984 796.644 172.531 795.885 172.676 795.225C172.832 794.533 172.52 793.963 171.749 793.516M151.266 802.12L170.801 790.756L173.703 792.432C174.596 792.946 174.964 793.605 174.797 794.432C174.629 795.281 173.96 796.231 172.832 797.27C171.694 798.32 170.12 799.427 168.189 800.555C166.257 801.684 164.338 802.6 162.529 803.27C160.732 803.93 159.091 804.321 157.629 804.421C156.189 804.522 155.073 804.31 154.169 803.796L151.266 802.12ZM174.094 792.197L170.801 790.298L150.474 802.12L153.767 804.019C154.783 804.6 156.1 804.846 157.696 804.734C159.225 804.622 160.955 804.231 162.808 803.539C164.661 802.857 166.604 801.93 168.579 800.779C170.555 799.628 172.14 798.51 173.301 797.438C174.484 796.354 175.176 795.359 175.355 794.466C175.533 793.538 175.12 792.778 174.105 792.197" fill="black"/>
<path d="M186.115 799.594L181.36 796.846L161.826 808.209L166.581 810.958L168.49 809.852L164.594 807.595L171.504 803.583L174.931 805.561L176.828 804.466L173.39 802.477L180.311 798.455L184.207 800.712L186.115 799.594Z" fill="white"/>
<path d="M161.826 808.209L181.36 796.845L186.115 799.594L184.207 800.711L180.311 798.454L173.39 802.477L176.828 804.466L174.942 805.561L171.504 803.572L164.605 807.583L168.501 809.84L166.592 810.958L161.837 808.209M186.919 799.594L181.371 796.387L161.045 808.209L166.592 811.416L169.294 809.851L165.387 807.594L171.515 804.03L174.953 806.019L177.621 804.466L174.183 802.477L180.311 798.912L184.218 801.17L186.919 799.594Z" fill="black"/>
<path d="M177.576 809.639L177.833 809.528L191.34 803.974L181.617 811.963L177.576 809.628M193.081 803.606L191.942 802.946L168.948 812.31L169.818 812.813L175.411 810.522L180.088 813.226L176.147 816.466L177.029 816.969L193.092 803.594" fill="white"/>
<path d="M178.436 809.684L189.007 805.337L181.528 811.483L178.425 809.695M191.328 803.985L177.822 809.539L177.565 809.65L181.606 811.986L191.328 803.997M168.936 812.343L191.931 802.98L193.07 803.639L177.007 817.014L176.125 816.511L180.065 813.271L175.388 810.567L169.796 812.857L168.925 812.354M193.784 803.606L191.998 802.566L168.055 812.299L169.74 813.271L175.344 810.969L179.351 813.282L175.4 816.533L177.085 817.506L193.661 803.706L193.795 803.594" fill="black"/>
<path d="M202.379 808.678C201.832 808.365 201.174 808.198 200.325 808.164C199.477 808.131 198.517 808.265 197.445 808.566C196.363 808.879 195.224 809.371 194.063 810.053C192.902 810.734 192.177 811.304 191.764 811.851C191.351 812.388 191.161 812.868 191.206 813.293C191.239 813.729 191.406 814.231 191.686 814.79C191.953 815.338 192.132 815.807 192.21 816.165C192.288 816.533 192.21 816.947 191.931 817.382C191.663 817.829 191.116 818.287 190.301 818.757C189.487 819.226 188.716 819.561 187.991 819.74C187.243 819.93 186.562 820.008 185.97 819.952C185.368 819.896 184.843 819.729 184.441 819.494C183.972 819.226 183.671 818.857 183.593 818.444C183.515 818.042 183.66 817.584 183.995 817.103C184.296 816.678 184.731 816.254 185.312 815.818L184.028 815.572C183.146 816.22 182.477 816.857 182.052 817.472C181.617 818.109 181.438 818.69 181.539 819.215C181.639 819.729 182.008 820.153 182.622 820.511C183.191 820.835 183.905 821.047 184.754 821.092C185.624 821.148 186.618 821.025 187.723 820.723C188.839 820.422 190.045 819.896 191.306 819.159C192.567 818.422 193.326 817.796 193.762 817.204C194.186 816.611 194.365 816.086 194.298 815.651C194.242 815.192 194.041 814.645 193.739 814.042C193.494 813.561 193.326 813.159 193.259 812.824C193.181 812.477 193.259 812.108 193.516 811.717C193.751 811.326 194.242 810.924 194.934 810.522C195.715 810.064 196.474 809.74 197.2 809.55C197.925 809.36 198.595 809.282 199.164 809.326C199.756 809.371 200.247 809.516 200.649 809.74C201.296 810.12 201.553 810.611 201.408 811.226C201.274 811.762 200.794 812.354 199.957 813.002L201.196 813.226C202.078 812.578 202.692 811.963 203.049 811.393C203.417 810.801 203.54 810.276 203.406 809.807C203.272 809.36 202.937 808.98 202.401 808.667" fill="white"/>
<path d="M184.419 819.517C184.821 819.751 185.345 819.908 185.948 819.975C186.54 820.031 187.232 819.964 187.968 819.762C188.694 819.573 189.475 819.248 190.279 818.779C191.083 818.31 191.641 817.841 191.909 817.405C192.177 816.969 192.266 816.556 192.188 816.187C192.11 815.829 191.942 815.36 191.663 814.813C191.395 814.254 191.228 813.751 191.183 813.315C191.139 812.891 191.339 812.41 191.741 811.874C192.154 811.326 192.925 810.723 194.041 810.075C195.157 809.427 196.34 808.902 197.423 808.589C198.495 808.287 199.455 808.153 200.303 808.187C201.14 808.22 201.81 808.388 202.357 808.701C202.904 809.013 203.227 809.393 203.361 809.84C203.495 810.298 203.373 810.835 203.004 811.427C202.647 811.997 202.022 812.623 201.151 813.259L199.912 813.036C200.749 812.388 201.229 811.784 201.363 811.259C201.497 810.645 201.252 810.153 200.604 809.773C200.214 809.55 199.711 809.405 199.12 809.36C198.539 809.315 197.881 809.382 197.155 809.583C196.441 809.773 195.682 810.097 194.889 810.555C194.186 810.958 193.706 811.371 193.472 811.751C193.226 812.142 193.137 812.511 193.215 812.857C193.282 813.192 193.449 813.595 193.695 814.075C194.007 814.69 194.197 815.237 194.253 815.684C194.32 816.12 194.141 816.645 193.717 817.237C193.282 817.829 192.467 818.489 191.261 819.193C190.056 819.897 188.794 820.455 187.678 820.757C186.573 821.059 185.58 821.181 184.709 821.126C183.861 821.07 183.146 820.869 182.577 820.545C181.952 820.187 181.595 819.751 181.494 819.248C181.394 818.734 181.572 818.142 182.008 817.505C182.432 816.891 183.102 816.254 183.983 815.606L185.267 815.852C184.687 816.287 184.251 816.712 183.95 817.137C183.615 817.617 183.47 818.075 183.548 818.477C183.626 818.891 183.928 819.26 184.396 819.528M202.747 808.466C202.111 808.097 201.308 807.896 200.336 807.851C199.388 807.818 198.338 807.963 197.177 808.287C196.039 808.611 194.856 809.125 193.639 809.829C192.422 810.533 191.663 811.148 191.217 811.729C190.77 812.31 190.558 812.846 190.614 813.315C190.647 813.773 190.826 814.299 191.105 814.891C191.373 815.427 191.54 815.874 191.619 816.209C191.674 816.533 191.596 816.891 191.362 817.282C191.127 817.673 190.625 818.098 189.866 818.545C189.107 818.991 188.381 819.293 187.723 819.461C187.075 819.628 186.506 819.695 186.015 819.651C185.524 819.606 185.122 819.494 184.787 819.293C184.385 819.059 184.162 818.779 184.095 818.433C184.028 818.086 184.162 817.684 184.452 817.248C184.765 816.801 185.267 816.332 185.937 815.863L186.194 815.684L183.771 815.204L183.649 815.293C182.655 815.997 181.918 816.69 181.461 817.371C180.981 818.053 180.802 818.69 180.914 819.271C181.025 819.852 181.438 820.355 182.153 820.768C182.811 821.148 183.649 821.383 184.631 821.438C185.591 821.506 186.696 821.36 187.89 821.036C189.074 820.712 190.324 820.165 191.63 819.405C192.936 818.645 193.751 817.975 194.208 817.349C194.655 816.701 194.867 816.131 194.789 815.639C194.722 815.17 194.521 814.6 194.197 813.963C193.963 813.505 193.806 813.114 193.739 812.801C193.684 812.5 193.762 812.176 193.974 811.84C194.186 811.494 194.621 811.136 195.269 810.757C196.005 810.332 196.709 810.019 197.356 809.851C197.992 809.684 198.55 809.617 199.019 809.662C199.477 809.695 199.868 809.807 200.169 809.986C200.694 810.287 200.895 810.678 200.772 811.192C200.649 811.717 200.113 812.332 199.187 813.014L198.941 813.204L201.308 813.628L201.43 813.539C202.401 812.835 203.105 812.164 203.495 811.528C203.897 810.891 204.031 810.298 203.886 809.784C203.73 809.27 203.339 808.823 202.725 808.466" fill="black"/>
<path d="M215.841 816.466C215.294 816.153 214.635 815.986 213.787 815.952C212.939 815.919 211.979 816.053 210.907 816.355C209.824 816.667 208.686 817.17 207.525 817.841C206.364 818.511 205.639 819.092 205.214 819.64C204.801 820.176 204.612 820.656 204.656 821.081C204.69 821.517 204.857 822.02 205.136 822.589C205.404 823.137 205.572 823.595 205.65 823.964C205.739 824.332 205.65 824.746 205.371 825.182C205.103 825.629 204.556 826.087 203.741 826.556C202.926 827.025 202.156 827.361 201.43 827.539C200.682 827.729 200.002 827.807 199.41 827.752C198.807 827.696 198.283 827.528 197.881 827.293C197.412 827.025 197.11 826.657 197.032 826.243C196.954 825.841 197.099 825.383 197.434 824.902C197.736 824.478 198.171 824.053 198.751 823.617L197.468 823.372C196.586 824.02 195.916 824.657 195.492 825.271C195.057 825.908 194.878 826.489 194.978 827.014C195.079 827.528 195.447 827.964 196.061 828.31C196.63 828.634 197.345 828.847 198.193 828.891C199.064 828.947 200.057 828.824 201.162 828.523C202.279 828.221 203.484 827.696 204.746 826.958C206.007 826.221 206.766 825.595 207.201 825.003C207.637 824.411 207.804 823.886 207.748 823.45C207.681 822.992 207.492 822.444 207.179 821.83C206.933 821.349 206.766 820.947 206.71 820.612C206.632 820.265 206.71 819.885 206.956 819.494C207.19 819.103 207.681 818.701 208.373 818.299C209.155 817.841 209.914 817.517 210.639 817.327C211.365 817.137 212.035 817.058 212.604 817.103C213.196 817.148 213.687 817.293 214.089 817.517C214.736 817.897 214.993 818.388 214.848 819.003C214.714 819.539 214.234 820.131 213.396 820.779L214.635 821.003C215.517 820.355 216.131 819.74 216.488 819.17C216.857 818.578 216.98 818.053 216.846 817.584C216.712 817.137 216.377 816.757 215.841 816.444" fill="white"/>
<path d="M197.881 827.294C198.283 827.528 198.807 827.685 199.41 827.752C200.002 827.808 200.694 827.741 201.43 827.54C202.156 827.35 202.937 827.026 203.741 826.556C204.545 826.087 205.103 825.618 205.371 825.182C205.639 824.746 205.739 824.333 205.65 823.964C205.572 823.606 205.404 823.137 205.136 822.59C204.857 822.031 204.69 821.517 204.656 821.081C204.612 820.657 204.813 820.176 205.214 819.64C205.627 819.092 206.409 818.489 207.525 817.841C208.641 817.193 209.824 816.668 210.907 816.355C211.979 816.053 212.939 815.919 213.787 815.953C214.624 815.986 215.294 816.154 215.841 816.467C216.388 816.779 216.723 817.159 216.846 817.606C216.98 818.064 216.857 818.601 216.488 819.193C216.131 819.763 215.506 820.389 214.635 821.025L213.396 820.802C214.234 820.154 214.714 819.55 214.848 819.025C214.982 818.411 214.736 817.919 214.089 817.539C213.698 817.316 213.196 817.171 212.604 817.126C212.023 817.081 211.365 817.148 210.639 817.349C209.925 817.539 209.166 817.863 208.373 818.321C207.67 818.724 207.19 819.137 206.956 819.517C206.71 819.908 206.621 820.277 206.71 820.634C206.766 820.958 206.933 821.372 207.179 821.852C207.492 822.467 207.681 823.014 207.748 823.472C207.804 823.908 207.637 824.433 207.201 825.026C206.766 825.618 205.951 826.277 204.746 826.981C203.54 827.685 202.279 828.244 201.162 828.545C200.057 828.847 199.064 828.97 198.193 828.914C197.345 828.858 196.63 828.657 196.061 828.333C195.447 827.975 195.079 827.54 194.978 827.037C194.878 826.523 195.057 825.931 195.492 825.294C195.916 824.679 196.586 824.042 197.468 823.394L198.751 823.64C198.171 824.076 197.736 824.5 197.434 824.925C197.099 825.405 196.954 825.864 197.032 826.266C197.11 826.679 197.412 827.048 197.881 827.316M216.232 816.254C215.595 815.886 214.792 815.684 213.832 815.64C212.883 815.595 211.823 815.74 210.662 816.075C209.523 816.4 208.34 816.914 207.123 817.617C205.906 818.321 205.147 818.936 204.701 819.517C204.254 820.098 204.042 820.634 204.098 821.104C204.132 821.562 204.31 822.087 204.589 822.679C204.857 823.215 205.025 823.662 205.103 823.998C205.159 824.322 205.08 824.679 204.846 825.07C204.612 825.461 204.109 825.886 203.35 826.333C202.591 826.78 201.866 827.081 201.207 827.249C200.56 827.417 199.99 827.484 199.499 827.439C199.019 827.394 198.606 827.283 198.271 827.081C197.87 826.847 197.646 826.568 197.579 826.221C197.512 825.875 197.646 825.472 197.936 825.037C198.26 824.59 198.751 824.12 199.421 823.651L199.678 823.472L197.256 822.992L197.133 823.081C196.139 823.785 195.403 824.478 194.945 825.16C194.465 825.841 194.286 826.478 194.398 827.059C194.51 827.64 194.934 828.143 195.637 828.556C196.296 828.936 197.144 829.171 198.115 829.227C199.075 829.294 200.18 829.149 201.375 828.825C202.558 828.501 203.808 827.953 205.114 827.193C206.42 826.433 207.246 825.774 207.692 825.137C208.139 824.489 208.351 823.919 208.284 823.428C208.206 822.947 208.016 822.389 207.692 821.752C207.447 821.294 207.302 820.902 207.235 820.59C207.179 820.288 207.257 819.964 207.469 819.629C207.681 819.282 208.117 818.925 208.764 818.545C209.501 818.12 210.204 817.807 210.851 817.64C211.488 817.472 212.046 817.405 212.515 817.45C212.983 817.495 213.363 817.595 213.664 817.774C214.189 818.076 214.39 818.467 214.267 818.981C214.144 819.506 213.609 820.12 212.682 820.802L212.436 820.992L214.803 821.416L214.926 821.327C215.897 820.623 216.6 819.953 216.991 819.316C217.393 818.679 217.527 818.087 217.381 817.573C217.225 817.059 216.834 816.612 216.221 816.254" fill="black"/>
<path d="M227.015 823.226L221.266 819.908L219.357 821.025L221.824 822.444L204.199 832.701L205.013 833.171L222.639 822.925L225.095 824.344L227.015 823.226Z" fill="white"/>
<path d="M219.357 821.025L221.266 819.908L227.015 823.226L225.106 824.344L222.65 822.925L205.025 833.182L204.21 832.713L221.835 822.455L219.368 821.025M227.818 823.238L221.288 819.461L218.587 821.036L221.043 822.455L203.417 832.713L205.025 833.64L222.65 823.383L225.117 824.813L227.818 823.238Z" fill="black"/>
<path d="M217.348 832.634L217.605 832.523L231.1 826.969L221.389 834.97L217.348 832.634ZM232.853 826.612L231.714 825.953L208.708 835.316L209.59 835.819L215.182 833.528L219.86 836.232L215.919 839.473L216.801 839.975L232.864 826.601" fill="white"/>
<path d="M218.207 832.679L228.778 828.322L221.311 834.467L218.207 832.679ZM231.1 826.97L217.605 832.523L217.348 832.635L221.389 834.97L231.1 826.97ZM208.708 835.316L231.714 825.953L232.853 826.612L216.79 839.987L215.908 839.484L219.848 836.244L215.171 833.54L209.579 835.83L208.697 835.328M233.556 826.579L231.77 825.54L207.826 835.272L209.512 836.244L215.115 833.942L219.123 836.255L215.171 839.507L216.857 840.479L233.433 826.679L233.567 826.568" fill="black"/>
<path d="M230.207 836.646L238.389 831.886L240.823 833.294C241.258 833.54 241.448 833.875 241.381 834.277C241.314 834.657 241.046 835.07 240.588 835.506C240.131 835.942 239.517 836.389 238.746 836.836C237.976 837.283 237.184 837.663 236.447 837.92C235.677 838.188 234.973 838.344 234.337 838.378C233.656 838.422 233.087 838.299 232.652 838.054L230.218 836.646M242.653 832.266L239.371 830.366L219.837 841.73L220.663 842.21L228.633 837.573L230.609 838.713L224.972 844.691L225.999 845.283L231.535 839.216L231.781 839.294C232.339 839.462 233.042 839.495 233.88 839.383C234.75 839.272 235.677 839.037 236.681 838.668C237.686 838.311 238.691 837.83 239.639 837.271C240.767 836.612 241.682 835.953 242.352 835.305C242.999 834.668 243.379 834.076 243.446 833.54C243.502 833.014 243.245 832.601 242.653 832.255" fill="white"/>
<path d="M230.988 836.646L238.378 832.344L240.421 833.517C240.733 833.696 240.867 833.931 240.823 834.244C240.756 834.568 240.521 834.936 240.108 835.339C239.673 835.752 239.092 836.177 238.356 836.612C237.619 837.048 236.86 837.395 236.157 837.652C235.465 837.897 234.839 838.032 234.281 838.065C233.768 838.087 233.355 838.02 233.042 837.83L231 836.657M240.823 833.305L238.389 831.897L230.207 836.657L232.64 838.065C233.076 838.311 233.645 838.434 234.326 838.389C234.973 838.356 235.677 838.21 236.436 837.931C237.184 837.674 237.954 837.305 238.735 836.847C239.517 836.389 240.119 835.953 240.577 835.517C241.035 835.082 241.303 834.668 241.37 834.288C241.436 833.886 241.247 833.551 240.811 833.305M219.815 841.741L239.349 830.378L242.631 832.277C243.222 832.623 243.479 833.037 243.423 833.562C243.356 834.098 242.977 834.691 242.329 835.328C241.66 835.976 240.744 836.635 239.617 837.294C238.657 837.853 237.664 838.322 236.659 838.691C235.654 839.059 234.728 839.294 233.857 839.406C233.02 839.518 232.317 839.484 231.759 839.316L231.513 839.238L225.977 845.306L224.95 844.713L230.587 838.735L228.611 837.596L220.641 842.233L219.815 841.752M243.033 832.054L239.36 829.931L219.033 841.752L220.652 842.691L228.622 838.054L229.906 838.791L224.258 844.769L226.122 845.842L231.759 839.663C232.384 839.808 233.132 839.819 233.98 839.719C234.906 839.596 235.922 839.339 236.972 838.97C238.01 838.59 239.037 838.11 240.03 837.529C241.191 836.858 242.129 836.166 242.821 835.495C243.524 834.814 243.915 834.177 243.993 833.584C244.071 832.97 243.747 832.456 243.044 832.042" fill="black"/>
<path d="M253.626 838.613L247.888 835.294L245.968 836.411L248.435 837.83L230.821 848.088L231.625 848.557L249.25 838.3L251.717 839.73L253.626 838.613Z" fill="white"/>
<path d="M245.968 836.411L247.877 835.294L253.626 838.613L251.717 839.73L249.25 838.3L231.625 848.557L230.81 848.088L248.435 837.83L245.968 836.4M254.418 838.601L247.888 834.825L245.187 836.4L247.643 837.819L230.017 848.077L231.625 849.004L249.25 838.747L251.706 840.166L254.407 838.59" fill="black"/>
<path d="M267.635 846.713L266.809 846.233L258.002 851.35L252.744 848.311L261.551 843.193L260.714 842.713L241.18 854.076L242.017 854.557L250.858 849.406L256.115 852.445L247.274 857.596L248.1 858.077L267.635 846.713Z" fill="white"/>
<path d="M252.744 848.311L258.002 851.35L266.798 846.233L267.624 846.713L248.089 858.077L247.263 857.596L256.104 852.456L250.846 849.417L242.006 854.557L241.169 854.076L260.703 842.713L261.54 843.193L252.744 848.311ZM268.416 846.702L266.798 845.763L257.99 850.892L253.525 848.311L262.333 843.182L260.714 842.244L240.387 854.065L242.006 855.004L250.858 849.853L255.323 852.434L246.471 857.585L248.089 858.524L268.416 846.702Z" fill="black"/>
<path d="M276.397 851.775L271.642 849.026L252.108 860.39L256.863 863.139L258.772 862.021L254.876 859.764L261.774 855.753L265.212 857.742L267.11 856.647L263.661 854.658L270.582 850.624L274.488 852.881L276.397 851.775Z" fill="white"/>
<path d="M252.108 860.39L271.642 849.026L276.397 851.775L274.488 852.892L270.582 850.635L263.661 854.658L267.099 856.647L265.212 857.742L261.774 855.753L254.876 859.764L258.783 862.021L256.874 863.139L252.119 860.39M277.201 851.764L271.653 848.557L251.326 860.379L256.874 863.586L259.575 862.021L255.68 859.764L261.808 856.2L265.246 858.189L267.914 856.636L264.476 854.647L270.604 851.082L274.5 853.339L277.201 851.764Z" fill="black"/>
<path d="M270.582 859.988L278.764 855.228L281.197 856.635C281.632 856.881 281.822 857.217 281.755 857.619C281.688 857.999 281.42 858.412 280.963 858.848C280.505 859.284 279.891 859.731 279.121 860.178C278.351 860.624 277.558 861.004 276.821 861.261C276.051 861.53 275.348 861.686 274.712 861.719C274.031 861.764 273.462 861.641 273.026 861.395L270.593 859.988M283.028 855.608L279.746 853.708L260.212 865.072L261.038 865.552L269.008 860.915L270.983 862.055L265.346 868.033L266.373 868.625L271.91 862.557L272.156 862.636C272.714 862.803 273.417 862.837 274.254 862.725C275.125 862.613 276.051 862.379 277.056 862.01C278.06 861.652 279.065 861.172 280.014 860.613C281.141 859.954 282.057 859.295 282.726 858.647C283.374 858.01 283.753 857.418 283.82 856.881C283.876 856.356 283.619 855.943 283.028 855.596" fill="white"/>
<path d="M271.374 859.987L278.764 855.685L280.806 856.859C281.119 857.037 281.253 857.272 281.208 857.585C281.141 857.909 280.907 858.278 280.494 858.68C280.059 859.093 279.478 859.518 278.741 859.954C278.005 860.39 277.246 860.736 276.542 860.993C275.85 861.239 275.225 861.373 274.667 861.406C274.154 861.429 273.741 861.362 273.428 861.172L271.385 859.998M281.208 856.646L278.775 855.239L270.593 859.998L273.026 861.406C273.462 861.652 274.031 861.775 274.712 861.73C275.359 861.697 276.062 861.552 276.821 861.272C277.569 861.015 278.34 860.647 279.121 860.188C279.902 859.73 280.505 859.295 280.963 858.859C281.42 858.423 281.688 858.01 281.755 857.63C281.822 857.227 281.632 856.892 281.197 856.646M260.201 865.082L279.735 853.719L283.017 855.618C283.608 855.965 283.865 856.378 283.809 856.903C283.742 857.44 283.363 858.032 282.715 858.669C282.045 859.317 281.13 859.976 280.003 860.635C279.043 861.194 278.049 861.663 277.045 862.032C276.04 862.401 275.114 862.635 274.243 862.747C273.406 862.859 272.702 862.825 272.144 862.658L271.899 862.58L266.362 868.647L265.335 868.055L270.972 862.077L268.997 860.937L261.027 865.574L260.201 865.094M283.418 855.395L279.746 853.272L259.419 865.094L261.038 866.032L269.008 861.395L270.291 862.133L264.643 868.111L266.507 869.183L272.144 863.004C272.769 863.149 273.517 863.161 274.366 863.06C275.292 862.937 276.308 862.68 277.357 862.311C278.395 861.932 279.422 861.451 280.416 860.87C281.577 860.2 282.514 859.507 283.206 858.836C283.91 858.155 284.3 857.518 284.378 856.926C284.457 856.311 284.133 855.797 283.43 855.384" fill="black"/>
<path d="M294.056 861.976L289.312 859.228L269.767 870.602L274.522 873.34L276.442 872.234L272.535 869.977L279.433 865.954L282.883 867.943L284.769 866.848L281.32 864.859L288.241 860.837L292.147 863.094L294.056 861.976Z" fill="white"/>
<path d="M269.767 870.602L289.301 859.239L294.056 861.988L292.147 863.105L288.241 860.848L281.32 864.87L284.758 866.859L282.871 867.954L279.433 865.965L272.535 869.977L276.442 872.234L274.533 873.351L269.778 870.602M294.86 861.976L289.312 858.77L268.985 870.591L274.533 873.798L277.234 872.234L273.339 869.977L279.467 866.412L282.905 868.401L285.573 866.848L282.135 864.859L288.263 861.295L292.159 863.552L294.86 861.976Z" fill="black"/>
</g>
</g>
<g clip-path="url(#clip3_171_1388)">
<mask id="mask3_171_1388" style="mask-type:luminance" maskUnits="userSpaceOnUse" x="592" y="757" width="325" height="127">
<path d="M592.324 757.293L631.09 848.978L916.098 883.55L877.325 791.874L592.324 757.293Z" fill="white"/>
</mask>
<g mask="url(#mask3_171_1388)">
<path d="M743.646 858.576C743.125 858.512 742.613 858.454 742.098 858.381C695.704 852.463 652.883 833.921 624.367 818.878L627.869 803.166C653.656 816.743 692.244 833.43 733.917 838.734C734.331 838.789 734.761 838.841 735.176 838.896C799.542 846.71 833.547 821.844 845.224 810.737L846.478 809.542L821.357 789.373L873.95 795.533L888.311 843.121L866.87 825.902L865.712 827.026C849.862 842.418 812.936 866.983 743.646 858.576Z" fill="white"/>
<path d="M627.869 803.166L624.367 818.878C652.883 833.921 695.704 852.463 742.098 858.381C742.613 858.454 743.125 858.511 743.646 858.576C812.936 866.983 849.862 842.418 865.712 827.026L866.87 825.902L888.311 843.121L873.95 795.533L821.357 789.373L846.478 809.542L845.224 810.736C833.547 821.844 799.533 846.703 735.176 838.896C734.761 838.841 734.331 838.788 733.917 838.734C692.251 833.421 653.656 816.743 627.869 803.166ZM745.458 862.856C744.92 862.794 744.374 862.725 743.843 862.654C695.113 856.434 650.217 836.56 621.153 820.977L618.69 819.668L623.709 797.121L626.174 798.446C651.337 811.925 690.151 829.108 732.139 834.465C732.554 834.52 732.959 834.568 733.364 834.616C794.031 841.971 827.114 819.602 839.604 808.266L809.251 783.896L877.316 791.867L895.904 853.468L868.892 831.779C852.108 847.523 814.547 871.227 745.44 862.842" fill="black"/>
</g>
</g>
<g clip-path="url(#clip4_171_1388)">
<path fill-rule="evenodd" clip-rule="evenodd" d="M187.703 166.251L187.702 166.251C176.746 159.948 166.735 149.075 159.468 136.524C152.2 123.972 147.786 109.928 147.825 97.3946C147.863 84.8513 152.313 76.5757 158.918 72.8227C165.529 69.0658 175.005 69.4383 185.973 75.749C196.929 82.0526 206.941 92.9187 214.208 105.463C221.475 118.008 225.889 132.045 225.851 144.579C225.812 157.121 221.356 165.404 214.747 169.164C208.132 172.928 198.656 172.561 187.703 166.251ZM227.851 144.585C227.931 118.641 209.632 87.0534 186.971 74.0154C164.31 60.9774 145.904 71.4449 145.825 97.3884C145.745 123.332 164.044 154.946 186.705 167.984C209.339 181.022 227.771 170.528 227.851 144.585Z" fill="black"/>
<path d="M145.652 117.795C147.233 122.355 151.203 126.248 154.475 126.508C157.747 126.767 159.144 123.245 157.563 118.685C155.983 114.124 152.012 110.231 148.74 109.972C145.468 109.712 144.071 113.235 145.652 117.795Z" fill="#FFBABA"/>
<path d="M213.139 166.464C214.206 169.476 216.838 172.063 219.043 172.205C221.248 172.347 222.173 170.043 221.106 167.031C220.039 164.019 217.407 161.432 215.202 161.29C212.997 161.149 212.072 163.452 213.139 166.464Z" fill="#3658D3"/>
<path d="M219.256 172.772C220.145 172.772 220.892 172.418 221.39 171.744C222.244 170.646 222.315 168.874 221.604 166.854C220.465 163.594 217.656 160.936 215.237 160.759C214.241 160.688 213.388 161.042 212.854 161.751C212.001 162.85 211.929 164.622 212.641 166.641C213.779 169.902 216.589 172.559 219.007 172.737C219.078 172.737 219.185 172.737 219.256 172.737V172.772ZM215.024 161.822C217.158 161.964 219.647 164.444 220.643 167.208C221.212 168.839 221.177 170.291 220.572 171.106C220.252 171.532 219.754 171.744 219.114 171.709C217.158 171.567 214.668 169.087 213.672 166.322C213.103 164.692 213.139 163.239 213.743 162.424C214.063 162.035 214.49 161.822 215.024 161.822Z" fill="#3658D3"/>
<path d="M217.234 154.242C218.818 158.811 222.776 162.692 226.051 162.946C229.325 163.199 230.729 159.682 229.145 155.112C227.562 150.543 223.604 146.663 220.329 146.409C217.054 146.155 215.651 149.673 217.234 154.242Z" fill="#EC5212"/>
<g clip-path="url(#clip5_171_1388)">
<mask id="mask4_171_1388" style="mask-type:luminance" maskUnits="userSpaceOnUse" x="174" y="93" width="26" height="56">
<path d="M174 134.058L174.126 93L200 107.942L199.874 149L174 134.058Z" fill="white"/>
</mask>
<g mask="url(#mask4_171_1388)">
<path d="M198.242 106.937L176.01 94.0674L175.005 115.727L184.362 121.126C186.937 122.632 188.696 124.014 189.7 125.458C190.768 126.901 191.208 128.408 191.208 130.04C191.208 131.547 190.831 132.552 190.14 132.991C189.449 133.431 188.382 133.242 186.937 132.363C185.681 131.61 184.551 130.605 183.797 129.413C182.981 128.157 182.604 126.839 182.604 125.332C182.604 124.892 182.604 124.39 182.792 123.888L174.188 119.305C174.126 119.933 174.063 120.561 174.063 121.188C174.063 123.7 174.628 126.274 175.758 128.91C176.889 131.547 178.459 133.933 180.469 136.13C182.478 138.327 184.676 140.148 187.126 141.592C189.575 143.036 191.899 143.789 193.845 143.727C195.792 143.664 197.3 142.91 198.367 141.341C199.435 139.834 200 137.574 200 134.623C200 130.354 198.87 126.462 196.546 123.072C194.222 119.682 190.768 116.605 185.995 113.906L183.923 112.713L184.111 107.565L198.304 115.727V106.875" fill="black"/>
</g>
</g>
</g>
<path fill-rule="evenodd" clip-rule="evenodd" d="M967.956 839.244C978.39 833.553 991.862 830.622 1005.46 830.546C1005.51 831.33 1005.71 832.109 1006.07 832.856C1006.82 834.437 1008.18 835.767 1009.96 836.789C1012.69 838.369 1016.14 839.102 1019.49 839.102C1022.84 839.102 1026.3 838.368 1029.04 836.79L1029.05 836.789C1030.24 836.1 1031.26 835.274 1032.03 834.321C1036.66 835.756 1040.96 837.594 1044.82 839.825C1055.45 845.976 1060.28 853.747 1060.23 861.106C1060.19 868.471 1055.26 876.252 1044.56 882.408C1033.87 888.556 1019.77 891.686 1005.57 891.686C991.378 891.686 977.309 888.556 966.691 882.411L966.69 882.411C956.074 876.271 951.247 868.501 951.289 861.14C951.331 853.775 956.252 845.995 966.952 839.85L967.956 839.274V839.244ZM1031.17 831.975C1036.47 833.504 1041.41 835.544 1045.83 838.094C1067.81 850.82 1067.68 871.416 1045.56 884.142C1023.44 896.868 987.678 896.868 965.689 884.142C943.722 871.438 943.834 850.82 965.956 838.116V838.072C976.94 831.771 991.287 828.596 1005.65 828.546C1006.35 828.543 1007.05 828.548 1007.75 828.56C1007.49 829.215 1007.4 829.888 1007.47 830.556C1007.63 832.197 1008.79 833.812 1010.96 835.056C1015.66 837.783 1023.3 837.783 1028.05 835.056C1029.58 834.17 1030.63 833.105 1031.17 831.975Z" fill="black"/>
<path d="M936.008 851.798C936.004 850.267 938.145 849.021 940.79 849.013C943.435 849.006 945.583 850.241 945.588 851.771C945.592 853.302 943.451 854.548 940.806 854.556C938.16 854.563 936.012 853.328 936.008 851.798Z" fill="#EC5212"/>
<path d="M1009.17 825.697C1007.2 826.812 1005.92 828.186 1005.34 829.638C1004.26 832.284 1005.52 835.162 1009.12 837.237C1014.66 840.401 1023.67 840.401 1029.27 837.237C1031.08 836.2 1032.31 834.955 1032.94 833.632C1034.26 830.909 1033.05 827.849 1029.32 825.722C1023.78 822.533 1014.74 822.533 1009.17 825.722V825.697Z" fill="#619BF7"/>
<path d="M1039.01 835.156C1036.33 836.685 1036.33 839.191 1039.01 840.72C1041.68 842.25 1045.98 842.272 1048.65 840.72C1051.33 839.169 1051.35 836.685 1048.67 835.156C1046 833.626 1041.7 833.604 1039.01 835.156Z" fill="#FFBABA"/>
<path d="M947.005 858.156C944.332 859.685 944.332 862.191 947.005 863.72C949.678 865.25 953.978 865.272 956.652 863.72C959.325 862.169 959.347 859.685 956.674 858.156C954.001 856.626 949.701 856.604 947.005 858.156Z" fill="#41B383"/>
<path d="M1042.21 854.967L1029.7 847.696L997.745 850.685C994.275 851.008 991.37 851.574 988.948 852.22C986.447 852.867 984.348 853.756 982.573 854.806C979.667 856.503 977.73 858.523 976.843 860.785C975.874 863.047 976.036 865.39 977.246 867.733C978.457 870.076 980.636 872.177 983.783 874.035C986.931 875.894 990.401 877.106 994.436 877.833C998.472 878.641 1002.51 878.722 1006.54 878.237C1010.58 877.752 1014.05 876.702 1017.03 874.924C1020.02 873.147 1021.8 871.369 1022.68 869.268C1023.49 867.168 1023.41 865.148 1022.44 863.047C1021.39 861.027 1019.54 859.25 1016.95 857.715L1015.82 857.149L1042.21 854.967ZM993.306 868.056C991.935 867.249 991.127 866.441 990.643 865.633C990.24 864.825 990.24 863.936 990.643 863.128C991.127 862.32 991.854 861.593 993.064 860.866C994.275 860.138 995.728 859.654 997.261 859.33C998.714 859.088 1000.33 859.007 1001.94 859.25C1003.56 859.492 1005.01 859.977 1006.3 860.785C1007.59 861.593 1008.56 862.482 1008.96 863.37C1009.45 864.259 1009.45 865.148 1008.96 866.037C1008.48 866.925 1007.75 867.733 1006.62 868.38C1005.41 869.107 1004.04 869.511 1002.43 869.834C1000.89 870.076 999.279 870.076 997.665 869.834C996.05 869.592 994.598 869.026 993.226 868.218" fill="black"/>
<defs>
<clipPath id="clip0_171_1388">
<rect width="265" height="153" fill="white" transform="translate(309 762)"/>
</clipPath>
<clipPath id="clip1_171_1388">
<rect width="100.46" height="140.71" fill="white" transform="translate(138 331)"/>
</clipPath>
<clipPath id="clip2_171_1388">
<rect width="261" height="151" fill="white" transform="translate(74 747)"/>
</clipPath>
<clipPath id="clip3_171_1388">
<rect width="334.697" height="193.558" fill="white" transform="matrix(0.799505 0.600659 0.600659 -0.799505 562.28 797.282)"/>
</clipPath>
<clipPath id="clip4_171_1388">
<rect width="87" height="106" fill="white" transform="matrix(-1 0 0 1 232 68)"/>
</clipPath>
<clipPath id="clip5_171_1388">
<rect width="26" height="56" fill="white" transform="translate(174 93)"/>
</clipPath>
</defs>
</svg>
