<svg width="60" height="500" viewBox="0 0 43 570" fill="none" xmlns="http://www.w3.org/2000/svg">
<path d="M0.497677 505.776L4.58719 503.4L40.7957 524.422L36.7036 526.8L0.497677 505.776Z" fill="#FFF6D7"/>
<path d="M36.7036 526.8L40.7957 524.422L40.7951 566.882L36.7042 569.256L36.7036 526.8Z" fill="#FFF6D7"/>
<path d="M0.495655 505.776L36.7036 526.8L36.7042 569.256L0.495697 548.234L0.495655 505.776Z" fill="#FFF6D7"/>
<path fill-rule="evenodd" clip-rule="evenodd" d="M4.58713 503.111L0.496613 505.488L0.245655 505.342V505.634L-4.57764e-05 505.777L0.245655 505.919L0.245697 548.378L36.7041 569.545L41.0451 567.026L41.0457 524.278L4.58713 503.111ZM36.7036 526.511L0.995396 505.776L4.58725 503.689L40.2979 524.422L36.7036 526.511ZM40.5456 524.856L40.5451 566.738L36.9542 568.822L36.9536 526.944L40.5456 524.856ZM36.4536 526.944L0.745655 506.211L0.745697 548.09L36.4542 568.822L36.4536 526.944Z" fill="black"/>
<path d="M0.497677 463.776L4.58719 461.4L40.7957 482.422L36.7036 484.8L0.497677 463.776Z" fill="#FFF6D7"/>
<path d="M36.7036 484.8L40.7957 482.422L40.7951 524.882L36.7042 527.256L36.7036 484.8Z" fill="#FFF6D7"/>
<path d="M0.495655 463.776L36.7036 484.8L36.7042 527.256L0.495697 506.234L0.495655 463.776Z" fill="#FFF6D7"/>
<path fill-rule="evenodd" clip-rule="evenodd" d="M4.58713 461.111L0.496613 463.488L0.245655 463.342V463.634L-4.57764e-05 463.777L0.245655 463.919L0.245697 506.378L36.7041 527.545L41.0451 525.026L41.0457 482.278L4.58713 461.111ZM36.7036 484.511L0.995396 463.776L4.58725 461.689L40.2979 482.422L36.7036 484.511ZM40.5456 482.856L40.5451 524.738L36.9542 526.822L36.9536 484.944L40.5456 482.856ZM36.4536 484.944L0.745655 464.211L0.745697 506.09L36.4542 526.822L36.4536 484.944Z" fill="black"/>
<path d="M0.497677 421.776L4.58719 419.4L40.7957 440.422L36.7036 442.8L0.497677 421.776Z" fill="#FFF6D7"/>
<path d="M36.7036 442.8L40.7957 440.422L40.7951 482.882L36.7042 485.256L36.7036 442.8Z" fill="#FFF6D7"/>
<path d="M0.495655 421.776L36.7036 442.8L36.7042 485.256L0.495697 464.234L0.495655 421.776Z" fill="#FFF6D7"/>
<path fill-rule="evenodd" clip-rule="evenodd" d="M4.58713 419.111L0.496613 421.488L0.245655 421.342V421.634L-4.57764e-05 421.777L0.245655 421.919L0.245697 464.378L36.7041 485.545L41.0451 483.026L41.0457 440.278L4.58713 419.111ZM36.7036 442.511L0.995396 421.776L4.58725 419.689L40.2979 440.422L36.7036 442.511ZM40.5456 440.856L40.5451 482.738L36.9542 484.822L36.9536 442.944L40.5456 440.856ZM36.4536 442.944L0.745655 422.211L0.745697 464.09L36.4542 484.822L36.4536 442.944Z" fill="black"/>
<path d="M0.497677 379.776L4.58719 377.4L40.7957 398.422L36.7036 400.8L0.497677 379.776Z" fill="#FFF6D7"/>
<path d="M36.7036 400.8L40.7957 398.422L40.7951 440.882L36.7042 443.256L36.7036 400.8Z" fill="#FFF6D7"/>
<path d="M0.495655 379.776L36.7036 400.8L36.7042 443.256L0.495697 422.234L0.495655 379.776Z" fill="#FFF6D7"/>
<path fill-rule="evenodd" clip-rule="evenodd" d="M4.58713 377.111L0.496613 379.488L0.245655 379.342V379.634L-4.57764e-05 379.777L0.245655 379.919L0.245697 422.378L36.7041 443.545L41.0451 441.026L41.0457 398.278L4.58713 377.111ZM36.7036 400.511L0.995396 379.776L4.58725 377.689L40.2979 398.422L36.7036 400.511ZM40.5456 398.856L40.5451 440.738L36.9542 442.822L36.9536 400.944L40.5456 398.856ZM36.4536 400.944L0.745655 380.211L0.745697 422.09L36.4542 442.822L36.4536 400.944Z" fill="black"/>
<path d="M0.497677 337.776L4.58719 335.4L40.7957 356.422L36.7036 358.8L0.497677 337.776Z" fill="#FFF6D7"/>
<path d="M36.7036 358.8L40.7957 356.422L40.7951 398.882L36.7042 401.256L36.7036 358.8Z" fill="#FFF6D7"/>
<path d="M0.495655 337.776L36.7036 358.8L36.7042 401.256L0.495697 380.234L0.495655 337.776Z" fill="#FFF6D7"/>
<path fill-rule="evenodd" clip-rule="evenodd" d="M4.58713 335.111L0.496613 337.488L0.245655 337.342V337.634L-4.57764e-05 337.777L0.245655 337.919L0.245697 380.378L36.7041 401.545L41.0451 399.026L41.0457 356.278L4.58713 335.111ZM36.7036 358.511L0.995396 337.776L4.58725 335.689L40.2979 356.422L36.7036 358.511ZM40.5456 356.856L40.5451 398.738L36.9542 400.822L36.9536 358.944L40.5456 356.856ZM36.4536 358.944L0.745655 338.211L0.745697 380.09L36.4542 400.822L36.4536 358.944Z" fill="black"/>
<path d="M0.497677 295.776L4.58719 293.4L40.7957 314.422L36.7036 316.8L0.497677 295.776Z" fill="#FFF6D7"/>
<path d="M36.7036 316.8L40.7957 314.422L40.7951 356.882L36.7042 359.256L36.7036 316.8Z" fill="#FFF6D7"/>
<path d="M0.495655 295.776L36.7036 316.8L36.7042 359.256L0.495697 338.234L0.495655 295.776Z" fill="#FFF6D7"/>
<path fill-rule="evenodd" clip-rule="evenodd" d="M4.58713 293.111L0.496613 295.488L0.245655 295.342V295.634L-4.57764e-05 295.777L0.245655 295.919L0.245697 338.378L36.7041 359.545L41.0451 357.026L41.0457 314.278L4.58713 293.111ZM36.7036 316.511L0.995396 295.776L4.58725 293.689L40.2979 314.422L36.7036 316.511ZM40.5456 314.856L40.5451 356.738L36.9542 358.822L36.9536 316.944L40.5456 314.856ZM36.4536 316.944L0.745655 296.211L0.745697 338.09L36.4542 358.822L36.4536 316.944Z" fill="black"/>
<path d="M0.497677 253.776L4.58719 251.4L40.7957 272.422L36.7036 274.8L0.497677 253.776Z" fill="#FFF6D7"/>
<path d="M36.7036 274.8L40.7957 272.422L40.7951 314.882L36.7042 317.256L36.7036 274.8Z" fill="#FFF6D7"/>
<path d="M0.495655 253.776L36.7036 274.8L36.7042 317.256L0.495697 296.234L0.495655 253.776Z" fill="#FFF6D7"/>
<path fill-rule="evenodd" clip-rule="evenodd" d="M4.58713 251.111L0.496613 253.488L0.245655 253.342V253.634L-4.57764e-05 253.777L0.245655 253.919L0.245697 296.378L36.7041 317.545L41.0451 315.026L41.0457 272.278L4.58713 251.111ZM36.7036 274.511L0.995396 253.776L4.58725 251.689L40.2979 272.422L36.7036 274.511ZM40.5456 272.856L40.5451 314.738L36.9542 316.822L36.9536 274.944L40.5456 272.856ZM36.4536 274.944L0.745655 254.211L0.745697 296.09L36.4542 316.822L36.4536 274.944Z" fill="black"/>
<path d="M0.497677 211.776L4.58719 209.4L40.7957 230.422L36.7036 232.8L0.497677 211.776Z" fill="#FFF6D7"/>
<path d="M36.7036 232.8L40.7957 230.422L40.7951 272.882L36.7042 275.256L36.7036 232.8Z" fill="#FFF6D7"/>
<path d="M0.495655 211.776L36.7036 232.8L36.7042 275.256L0.495697 254.234L0.495655 211.776Z" fill="#FFF6D7"/>
<path fill-rule="evenodd" clip-rule="evenodd" d="M4.58713 209.111L0.496613 211.488L0.245655 211.342V211.634L-4.57764e-05 211.777L0.245655 211.919L0.245697 254.378L36.7041 275.545L41.0451 273.026L41.0457 230.278L4.58713 209.111ZM36.7036 232.511L0.995396 211.776L4.58725 209.689L40.2979 230.422L36.7036 232.511ZM40.5456 230.856L40.5451 272.738L36.9542 274.822L36.9536 232.944L40.5456 230.856ZM36.4536 232.944L0.745655 212.211L0.745697 254.09L36.4542 274.822L36.4536 232.944Z" fill="black"/>
<path d="M0.497677 169.776L4.58719 167.4L40.7957 188.422L36.7036 190.8L0.497677 169.776Z" fill="#FFF6D7"/>
<path d="M36.7036 190.8L40.7957 188.422L40.7951 230.882L36.7042 233.256L36.7036 190.8Z" fill="#FFF6D7"/>
<path d="M0.495655 169.776L36.7036 190.8L36.7042 233.256L0.495697 212.234L0.495655 169.776Z" fill="#FFF6D7"/>
<path fill-rule="evenodd" clip-rule="evenodd" d="M4.58713 167.111L0.496613 169.488L0.245655 169.342V169.634L-4.57764e-05 169.777L0.245655 169.919L0.245697 212.378L36.7041 233.545L41.0451 231.026L41.0457 188.278L4.58713 167.111ZM36.7036 190.511L0.995396 169.776L4.58725 167.689L40.2979 188.422L36.7036 190.511ZM40.5456 188.856L40.5451 230.738L36.9542 232.822L36.9536 190.944L40.5456 188.856ZM36.4536 190.944L0.745655 170.211L0.745697 212.09L36.4542 232.822L36.4536 190.944Z" fill="black"/>
<path d="M0.497677 128.776L4.58719 126.4L40.7957 147.422L36.7036 149.8L0.497677 128.776Z" fill="#FFF6D7"/>
<path d="M36.7036 149.8L40.7957 147.422L40.7951 189.882L36.7042 192.256L36.7036 149.8Z" fill="#FFF6D7"/>
<path d="M0.495655 128.776L36.7036 149.8L36.7042 192.256L0.495697 171.234L0.495655 128.776Z" fill="#FFF6D7"/>
<path fill-rule="evenodd" clip-rule="evenodd" d="M4.58713 126.111L0.496613 128.488L0.245655 128.342V128.634L-4.57764e-05 128.777L0.245655 128.919L0.245697 171.378L36.7041 192.545L41.0451 190.026L41.0457 147.278L4.58713 126.111ZM36.7036 149.511L0.995396 128.776L4.58725 126.689L40.2979 147.422L36.7036 149.511ZM40.5456 147.856L40.5451 189.738L36.9542 191.822L36.9536 149.944L40.5456 147.856ZM36.4536 149.944L0.745655 129.211L0.745697 171.09L36.4542 191.822L36.4536 149.944Z" fill="black"/>
<path d="M0.497677 86.7764L4.58719 84.3999L40.7957 105.422L36.7036 107.8L0.497677 86.7764Z" fill="#FFF6D7"/>
<path d="M36.7036 107.8L40.7957 105.422L40.7951 147.882L36.7042 150.256L36.7036 107.8Z" fill="#FFF6D7"/>
<path d="M0.495655 86.7764L36.7036 107.8L36.7042 150.256L0.495697 129.234L0.495655 86.7764Z" fill="#FFF6D7"/>
<path fill-rule="evenodd" clip-rule="evenodd" d="M4.58713 84.1108L0.496613 86.4879L0.245655 86.3422V86.6337L-4.57764e-05 86.7765L0.245655 86.9192L0.245697 129.378L36.7041 150.545L41.0451 148.026L41.0457 105.278L4.58713 84.1108ZM36.7036 107.511L0.995396 86.7763L4.58725 84.6891L40.2979 105.422L36.7036 107.511ZM40.5456 105.856L40.5451 147.738L36.9542 149.822L36.9536 107.944L40.5456 105.856ZM36.4536 107.944L0.745655 87.2107L0.745697 129.09L36.4542 149.822L36.4536 107.944Z" fill="black"/>
<path d="M0.497677 44.7764L4.58719 42.3999L40.7957 63.4217L36.7036 65.7996L0.497677 44.7764Z" fill="#FFF6D7"/>
<path d="M36.7036 65.7996L40.7957 63.4217L40.7951 105.882L36.7042 108.256L36.7036 65.7996Z" fill="#FFF6D7"/>
<path d="M0.495655 44.7764L36.7036 65.7996L36.7042 108.256L0.495697 87.2342L0.495655 44.7764Z" fill="#FFF6D7"/>
<path fill-rule="evenodd" clip-rule="evenodd" d="M4.58713 42.1108L0.496613 44.4879L0.245655 44.3422V44.6337L-4.57764e-05 44.7765L0.245655 44.9192L0.245697 87.3782L36.7041 108.545L41.0451 106.026L41.0457 63.2778L4.58713 42.1108ZM36.7036 65.5105L0.995396 44.7763L4.58725 42.6891L40.2979 63.4218L36.7036 65.5105ZM40.5456 63.8562L40.5451 105.738L36.9542 107.822L36.9536 65.9435L40.5456 63.8562ZM36.4536 65.9436L0.745655 45.2107L0.745697 87.0903L36.4542 107.822L36.4536 65.9436Z" fill="black"/>
<path d="M0.497677 2.77638L4.58719 0.399902L40.7957 21.4217L36.7036 23.7996L0.497677 2.77638Z" fill="#FFF6D7"/>
<path d="M36.7036 23.7996L40.7957 21.4217L40.7951 63.8821L36.7042 66.256L36.7036 23.7996Z" fill="#FFF6D7"/>
<path d="M0.495655 2.77638L36.7036 23.7996L36.7042 66.256L0.495697 45.2342L0.495655 2.77638Z" fill="#FFF6D7"/>
<path fill-rule="evenodd" clip-rule="evenodd" d="M4.58713 0.11084L0.496613 2.4879L0.245655 2.34219V2.63374L-4.57764e-05 2.77651L0.245655 2.91918L0.245697 45.3782L36.7041 66.5451L41.0451 64.0261L41.0457 21.2778L4.58713 0.11084ZM36.7036 23.5105L0.995396 2.77634L4.58725 0.689066L40.2979 21.4218L36.7036 23.5105ZM40.5456 21.8562L40.5451 63.7381L36.9542 65.8219L36.9536 23.9435L40.5456 21.8562ZM36.4536 23.9436L0.745655 3.21067L0.745697 45.0903L36.4542 65.8218L36.4536 23.9436Z" fill="black"/>
</svg>
