<svg width="100%" height="100%" viewBox="0 0 1245 1245" fill="none" xmlns="http://www.w3.org/2000/svg">
<path d="M1244 1473L1229.9 1464.93L1105 1536.37L1119.11 1544.46L1244 1473Z" fill="#FFF6DA"/>
<path d="M1119.11 1544.46L1105 1536.38V1680.69L1119.11 1688.76V1544.46Z" fill="#FFF6DA"/>
<path d="M1244.65 1472.23L1119.75 1543.68V1687.98L1244.65 1616.53V1472.23Z" fill="#FFF6DA"/>
<path fill-rule="evenodd" clip-rule="evenodd" d="M1229.9 1464.07L1244.01 1472.15L1244.76 1471.72V1472.58L1245.51 1473.01L1244.76 1473.43V1617.74L1119.11 1689.61L1104.25 1681.11V1535.94L1229.9 1464.07ZM1119.11 1543.6L1242.51 1473L1229.9 1465.79L1106.49 1536.38L1119.11 1543.6ZM1105.75 1537.66V1680.25L1118.36 1687.46V1544.89L1105.75 1537.66ZM1119.86 1544.89V1687.46L1243.26 1616.87V1474.29L1119.86 1544.89Z" fill="#0F0F0F"/>
<path d="M1244 1329.56L1229.9 1321.48L1105 1392.93L1119.11 1401.01L1244 1329.56Z" fill="#FFF6DA"/>
<path d="M1119.11 1401.01L1105 1392.93V1537.24L1119.11 1545.31V1401.01Z" fill="#FFF6DA"/>
<path d="M1244.65 1328.78L1119.75 1400.23V1544.53L1244.65 1473.08V1328.78Z" fill="#FFF6DA"/>
<path fill-rule="evenodd" clip-rule="evenodd" d="M1229.9 1320.62L1244.01 1328.7L1244.76 1328.27V1329.13L1245.51 1329.56L1244.76 1329.99V1474.29L1119.11 1546.17L1104.25 1537.67V1392.5L1229.9 1320.62ZM1119.11 1400.15L1242.51 1329.56L1229.9 1322.34L1106.49 1392.93L1119.11 1400.15ZM1105.75 1394.22V1536.8L1118.36 1544.02V1401.44L1105.75 1394.22ZM1119.86 1401.44V1544.02L1243.26 1473.42V1330.85L1119.86 1401.44Z" fill="#0F0F0F"/>
<path d="M1244 1186.11L1229.9 1178.04L1105 1249.48L1119.11 1257.56L1244 1186.11Z" fill="#FFF6DA"/>
<path d="M1119.11 1257.56L1105 1249.48V1393.79L1119.11 1401.87V1257.56Z" fill="#FFF6DA"/>
<path d="M1244.65 1185.33L1119.75 1256.79V1401.09L1244.65 1329.64V1185.33Z" fill="#FFF6DA"/>
<path fill-rule="evenodd" clip-rule="evenodd" d="M1229.9 1177.18L1244.01 1185.25L1244.76 1184.82V1185.68L1245.51 1186.11L1244.76 1186.54V1330.84L1119.11 1402.72L1104.25 1394.22V1249.05L1229.9 1177.18ZM1119.11 1256.7L1242.51 1186.11L1229.9 1178.9L1106.49 1249.48L1119.11 1256.7ZM1105.75 1250.77V1393.36L1118.36 1400.57V1258L1105.75 1250.77ZM1119.86 1258V1400.57L1243.26 1329.98V1187.4L1119.86 1258Z" fill="#0F0F0F"/>
<path d="M1244 1041.8L1229.9 1033.72L1105 1105.17L1119.11 1113.25L1244 1041.8Z" fill="#FFF6DA"/>
<path d="M1119.11 1113.25L1105 1105.17V1249.48L1119.11 1257.54V1113.25Z" fill="#FFF6DA"/>
<path d="M1244.01 1041.8L1119.11 1113.25V1257.55L1244.01 1186.1V1041.8Z" fill="#FFF6DA"/>
<path fill-rule="evenodd" clip-rule="evenodd" d="M1229.9 1032.86L1244.01 1040.94L1244.76 1040.51V1041.37L1245.51 1041.8L1244.76 1042.23V1186.53L1119.11 1258.41L1104.25 1249.91V1104.73L1229.9 1032.86ZM1119.11 1112.39L1242.51 1041.8L1229.9 1034.58L1106.49 1105.17L1119.11 1112.39ZM1105.75 1106.46V1249.04L1118.36 1256.26V1113.68L1105.75 1106.46ZM1119.86 1113.68V1256.26L1243.26 1185.67V1043.09L1119.86 1113.68Z" fill="#0F0F0F"/>
<path d="M716.822 159.388L716.782 175.611L592.286 247.767L592.326 231.535L716.822 159.388Z" fill="#FFF6DA"/>
<path d="M592.326 231.535L592.286 247.767L466.971 175.611L467.021 159.388L592.326 231.535Z" fill="#FFF6DA"/>
<path d="M716.822 159.388L592.326 231.534L467.021 159.388L591.518 87.2311L716.822 159.388Z" fill="#FFF6DA"/>
<path fill-rule="evenodd" clip-rule="evenodd" d="M591.517 86.3693L717.573 158.959L717.531 176.041L592.288 248.631L466.223 176.041L466.275 158.959L591.517 86.3693ZM591.52 88.0945L468.515 159.386L592.326 230.672L715.33 159.39L591.52 88.0945ZM716.072 160.687L593.074 231.965L593.038 246.469L716.036 175.181L716.072 160.687ZM591.541 246.477L591.577 231.965L467.767 160.679L467.722 175.181L591.541 246.477Z" fill="#0F0F0F"/>
<path d="M593.074 231.046L593.035 247.269L468.538 319.426L468.578 303.193L593.074 231.046Z" fill="#FFF6DA"/>
<path d="M468.578 303.193L468.538 319.426L343.224 247.269L343.274 231.046L468.578 303.193Z" fill="#FFF6DA"/>
<path d="M593.075 231.047L468.578 303.194L343.274 231.047L467.77 158.89L593.075 231.047Z" fill="#FFF6DA"/>
<path fill-rule="evenodd" clip-rule="evenodd" d="M467.77 158.027L593.825 230.617L593.783 247.7L468.54 320.289L342.475 247.7L342.527 230.617L467.77 158.027ZM467.772 159.753L344.768 231.045L468.578 302.331L591.583 231.049L467.772 159.753ZM592.324 232.346L469.327 303.624L469.291 318.128L592.288 246.84L592.324 232.346ZM467.794 318.135L467.83 303.624L344.019 232.338L343.974 246.84L467.794 318.135Z" fill="#0F0F0F"/>
<path d="M469.327 302.706L469.287 318.929L344.791 391.085L344.831 374.852L469.327 302.706Z" fill="#FFF6DA"/>
<path d="M344.831 374.852L344.791 391.085L219.476 318.929L219.526 302.706L344.831 374.852Z" fill="#FFF6DA"/>
<path d="M469.327 302.706L344.831 374.853L219.526 302.706L344.023 230.549L469.327 302.706Z" fill="#FFF6DA"/>
<path fill-rule="evenodd" clip-rule="evenodd" d="M344.022 229.686L470.077 302.275L470.035 319.358L344.793 391.948L218.728 319.358L218.78 302.275L344.022 229.686ZM344.024 231.412L221.02 302.703L344.831 373.989L467.835 302.707L344.024 231.412ZM468.576 304.004L345.579 375.282L345.543 389.786L468.541 318.498L468.576 304.004ZM344.046 389.794L344.082 375.282L220.272 303.996L220.227 318.498L344.046 389.794Z" fill="#0F0F0F"/>
<path d="M345.579 374.365L345.54 390.588L221.043 462.744L221.083 446.511L345.579 374.365Z" fill="#FFF6DA"/>
<path d="M221.083 446.511L221.043 462.744L95.7288 390.588L95.7787 374.365L221.083 446.511Z" fill="#FFF6DA"/>
<path d="M345.58 374.365L221.083 446.512L95.7788 374.365L220.275 302.209L345.58 374.365Z" fill="#FFF6DA"/>
<path fill-rule="evenodd" clip-rule="evenodd" d="M220.274 301.345L346.329 373.935L346.287 391.018L221.044 463.607L94.9785 391.018L95.0311 373.935L220.274 301.345ZM220.276 303.071L97.2716 374.363L221.082 445.649L344.086 374.367L220.276 303.071ZM344.828 375.664L221.83 446.941L221.795 461.445L344.792 390.158L344.828 375.664ZM220.298 461.453L220.334 446.941L96.5228 375.656L96.4782 390.158L220.298 461.453Z" fill="#0F0F0F"/>
<path d="M0.922831 462.048C0.89289 472.439 7.76888 482.849 21.5408 490.771L97.2964 534.394L97.3363 518.171L21.5907 474.558C7.81877 466.626 0.94279 456.216 0.972729 445.825L0.922831 462.048Z" fill="#FFF6DA"/>
<path fill-rule="evenodd" clip-rule="evenodd" d="M1.69344 454.287L1.66955 462.049C1.64072 472.079 8.27815 482.281 21.913 490.124L96.5494 533.102L96.585 518.6L21.2147 475.205C10.9879 469.314 4.4341 462.013 1.69344 454.287ZM0.172617 462.045C0.141636 472.797 7.25608 483.416 21.1648 491.418C21.1647 491.417 21.1649 491.418 21.1648 491.418L98.0399 535.684L98.0841 517.74L21.9633 473.912C8.32814 466.058 1.69062 455.856 1.71945 445.826L0.222514 445.823L0.172617 462.045Z" fill="#0F0F0F"/>
<path d="M221.832 446.014L221.782 462.247L97.2958 534.393L97.3357 518.171L221.832 446.014Z" fill="#FFF6DA"/>
<path fill-rule="evenodd" clip-rule="evenodd" d="M222.584 444.714L222.529 462.677L96.5439 535.692L96.5881 517.74L222.584 444.714ZM98.0828 518.6L98.0472 533.094L221.034 461.817L221.079 447.314L98.0828 518.6Z" fill="#0F0F0F"/>
<path d="M221.832 446.014L97.3463 518.16L21.5907 474.548C-5.77357 458.793 -5.92326 433.245 21.2713 417.48L96.5279 373.867L221.832 446.014Z" fill="#FFF6DA"/>
<path fill-rule="evenodd" clip-rule="evenodd" d="M96.525 373.005L223.324 446.012L97.3457 519.024L21.2147 475.196C7.39678 467.239 0.281901 456.708 0.221236 446.022C0.160558 435.335 7.15821 424.797 20.8935 416.835L96.525 373.005ZM96.5274 374.731L21.6457 418.125C8.18643 425.928 1.66158 436.047 1.71816 446.014C1.77476 455.983 8.41686 466.103 21.9632 473.902L97.3432 517.298L220.338 446.016L96.5274 374.731Z" fill="#0F0F0F"/>
<path d="M359.776 817.935L359.736 834.157L235.24 906.314L235.28 890.081L359.776 817.935Z" fill="#FFF6DA"/>
<path d="M235.28 890.081L235.24 906.314L109.925 834.157L109.975 817.935L235.28 890.081Z" fill="#FFF6DA"/>
<path d="M359.776 817.934L235.28 890.081L109.975 817.934L234.472 745.777L359.776 817.934Z" fill="#FFF6DA"/>
<path fill-rule="evenodd" clip-rule="evenodd" d="M234.47 744.916L360.525 817.505L360.483 834.588L235.241 907.178L109.175 834.588L109.228 817.505L234.47 744.916ZM234.472 746.642L111.468 817.933L235.279 889.219L358.283 817.937L234.472 746.642ZM359.024 819.234L236.027 890.512L235.991 905.016L358.988 833.728L359.024 819.234ZM234.494 905.024L234.53 890.512L110.719 819.226L110.675 833.728L234.494 905.024Z" fill="#0F0F0F"/>
<path d="M484.52 889.594L484.48 905.817L359.984 977.973L360.024 961.741L484.52 889.594Z" fill="#FFF6DA"/>
<path d="M360.024 961.741L359.984 977.973L234.67 905.817L234.72 889.594L360.024 961.741Z" fill="#FFF6DA"/>
<path d="M484.52 889.593L360.024 961.74L234.72 889.593L359.216 817.437L484.52 889.593Z" fill="#FFF6DA"/>
<path fill-rule="evenodd" clip-rule="evenodd" d="M359.216 816.574L485.271 889.164L485.229 906.246L359.986 978.836L233.921 906.246L233.973 889.164L359.216 816.574ZM359.218 818.3L236.214 889.591L360.024 960.877L483.028 889.595L359.218 818.3ZM483.77 890.892L360.773 962.17L360.737 976.674L483.734 905.386L483.77 890.892ZM359.24 976.682L359.276 962.17L235.465 890.884L235.42 905.386L359.24 976.682Z" fill="#0F0F0F"/>
<path d="M1229 890.589L1228.96 906.812L1104.47 978.968L1104.51 962.735L1229 890.589Z" fill="#FFF6DA"/>
<path d="M1104.51 962.735L1104.47 978.968L979.152 906.812L979.202 890.589L1104.51 962.735Z" fill="#FFF6DA"/>
<path d="M1229 890.589L1104.51 962.735L979.202 890.589L1103.7 818.432L1229 890.589Z" fill="#FFF6DA"/>
<path fill-rule="evenodd" clip-rule="evenodd" d="M1103.7 817.569L1229.75 890.159L1229.71 907.242L1104.47 979.831L978.403 907.242L978.455 890.159L1103.7 817.569ZM1103.7 819.295L980.696 890.587L1104.51 961.873L1227.51 890.591L1103.7 819.295ZM1228.26 891.888L1105.26 963.165L1105.22 977.669L1228.22 906.382L1228.26 891.888ZM1103.72 977.677L1103.76 963.165L979.947 891.88L979.902 906.382L1103.72 977.677Z" fill="#0F0F0F"/>
<path d="M608.27 961.252L608.23 977.475L483.733 1049.63L483.773 1033.4L608.27 961.252Z" fill="#FFF6DA"/>
<path d="M483.773 1033.4L483.733 1049.63L358.419 977.475L358.469 961.252L483.773 1033.4Z" fill="#FFF6DA"/>
<path d="M608.27 961.253L483.773 1033.4L358.469 961.253L482.965 889.096L608.27 961.253Z" fill="#FFF6DA"/>
<path fill-rule="evenodd" clip-rule="evenodd" d="M482.963 888.233L609.018 960.822L608.976 977.905L483.734 1050.49L357.669 977.905L357.721 960.822L482.963 888.233ZM482.965 889.958L359.961 961.25L483.772 1032.54L606.776 961.254L482.965 889.958ZM607.517 962.551L484.52 1033.83L484.484 1048.33L607.481 977.045L607.517 962.551ZM482.987 1048.34L483.023 1033.83L359.213 962.543L359.168 977.045L482.987 1048.34Z" fill="#0F0F0F"/>
<path d="M1107.25 961.279L1107.21 977.501L982.716 1049.66L982.756 1033.43L1107.25 961.279Z" fill="#FFF6DA"/>
<path d="M982.756 1033.43L982.716 1049.66L857.401 977.501L857.451 961.279L982.756 1033.43Z" fill="#FFF6DA"/>
<path d="M1107.25 961.279L982.756 1033.43L857.452 961.279L981.948 889.123L1107.25 961.279Z" fill="#FFF6DA"/>
<path fill-rule="evenodd" clip-rule="evenodd" d="M981.946 888.261L1108 960.849L1107.96 977.933L982.716 1050.52L856.651 977.933L856.703 960.849L981.946 888.261ZM981.948 889.986L858.944 961.278L982.754 1032.56L1105.75 961.281L981.948 889.986ZM1106.5 962.579L983.503 1033.86L983.467 1048.36L1106.46 977.072L1106.5 962.579ZM981.97 1048.37L982.006 1033.86L858.195 962.57L858.15 977.072L981.97 1048.37Z" fill="#0F0F0F"/>
<path d="M1244 898.451L1229.9 890.375L1105 961.821L1119.11 969.903L1244 898.451Z" fill="#FFF6DA"/>
<path d="M1119.11 969.903L1105 961.821V1106.13L1119.11 1114.2V969.903Z" fill="#FFF6DA"/>
<path d="M1244 898.452L1119.11 969.904V1114.2L1244.01 1042.75L1244 898.452Z" fill="#FFF6DA"/>
<path fill-rule="evenodd" clip-rule="evenodd" d="M1229.9 889.514L1244.75 898.02L1244.76 1043.19L1119.11 1115.06L1104.25 1106.56V961.389L1229.9 889.514ZM1105.75 963.111V1105.7L1118.36 1112.91V970.336L1105.75 963.111ZM1119.86 970.336V1112.91L1243.26 1042.32L1243.25 899.741L1119.86 970.336ZM1242.51 898.452L1119.11 969.043L1106.49 961.822L1229.9 891.235L1242.51 898.452Z" fill="#0F0F0F"/>
<path d="M734.012 1032.91L733.973 1049.13L609.476 1121.29L609.516 1105.06L734.012 1032.91Z" fill="#FFF6DA"/>
<path d="M609.516 1105.06L609.476 1121.29L484.162 1049.13L484.212 1032.91L609.516 1105.06Z" fill="#FFF6DA"/>
<path d="M734.013 1032.91L609.516 1105.06L484.212 1032.91L608.708 960.755L734.013 1032.91Z" fill="#FFF6DA"/>
<path fill-rule="evenodd" clip-rule="evenodd" d="M608.706 959.892L734.761 1032.48L734.719 1049.56L609.477 1122.15L483.412 1049.56L483.464 1032.48L608.706 959.892ZM608.708 961.618L485.704 1032.91L609.515 1104.2L732.519 1032.91L608.708 961.618ZM733.26 1034.21L610.263 1105.49L610.227 1119.99L733.225 1048.7L733.26 1034.21ZM608.73 1120L608.766 1105.49L484.956 1034.2L484.911 1048.7L608.73 1120Z" fill="#0F0F0F"/>
<path d="M983.503 1032.94L983.463 1049.16L858.967 1121.32L859.007 1105.08L983.503 1032.94Z" fill="#FFF6DA"/>
<path d="M859.008 1105.08L858.968 1121.32L733.654 1049.16L733.704 1032.94L859.008 1105.08Z" fill="#FFF6DA"/>
<path d="M983.503 1032.94L859.007 1105.09L733.702 1032.94L858.199 960.782L983.503 1032.94Z" fill="#FFF6DA"/>
<path fill-rule="evenodd" clip-rule="evenodd" d="M858.198 959.92L984.253 1032.51L984.211 1049.59L858.969 1122.18L732.904 1049.59L732.956 1032.51L858.198 959.92ZM858.2 961.645L735.196 1032.94L859.007 1104.22L982.011 1032.94L858.2 961.645ZM982.752 1034.24L859.755 1105.52L859.719 1120.02L982.716 1048.73L982.752 1034.24ZM858.222 1120.03L858.258 1105.52L734.448 1034.23L734.403 1048.73L858.222 1120.03Z" fill="#0F0F0F"/>
<path d="M858.759 1105.57L858.719 1121.79L734.222 1193.95L734.262 1177.71L858.759 1105.57Z" fill="#FFF6DA"/>
<path d="M734.262 1177.71L734.223 1193.95L608.908 1121.79L608.958 1105.57L734.262 1177.71Z" fill="#FFF6DA"/>
<path d="M858.759 1105.57L734.262 1177.71L608.958 1105.57L733.454 1033.41L858.759 1105.57Z" fill="#FFF6DA"/>
<path fill-rule="evenodd" clip-rule="evenodd" d="M733.452 1032.55L859.507 1105.14L859.465 1122.22L734.223 1194.81L608.158 1122.22L608.21 1105.14L733.452 1032.55ZM733.454 1034.27L610.45 1105.56L734.261 1176.85L857.265 1105.57L733.454 1034.27ZM858.006 1106.86L735.009 1178.14L734.973 1192.65L857.97 1121.36L858.006 1106.86ZM733.476 1192.65L733.512 1178.14L609.702 1106.86L609.657 1121.36L733.476 1192.65Z" fill="#0F0F0F"/>
<path fill-rule="evenodd" clip-rule="evenodd" d="M1183.87 1193.47C1193.77 1187.8 1202.82 1178.03 1209.38 1166.74C1215.96 1155.44 1219.95 1142.82 1219.91 1131.56C1219.88 1120.3 1215.86 1112.92 1209.95 1109.58C1204.03 1106.24 1195.52 1106.55 1185.61 1112.22C1175.72 1117.88 1166.67 1127.65 1160.09 1138.93C1153.53 1150.22 1149.54 1162.84 1149.58 1174.09C1149.61 1185.36 1153.63 1192.75 1159.55 1196.09C1165.46 1199.44 1173.98 1199.13 1183.87 1193.47ZM1147.58 1174.1C1147.51 1150.72 1164.09 1122.24 1184.62 1110.49C1205.16 1098.74 1221.84 1108.17 1221.91 1131.56C1221.98 1154.94 1205.4 1183.44 1184.86 1195.19C1164.36 1206.94 1147.65 1197.48 1147.58 1174.1Z" fill="#0F0F0F"/>
<path d="M1214.7 1107.48C1213.26 1111.59 1209.67 1115.1 1206.71 1115.34C1203.73 1115.57 1202.47 1112.4 1203.9 1108.28C1205.34 1104.17 1208.93 1100.66 1211.9 1100.43C1214.87 1100.2 1216.13 1103.37 1214.7 1107.48Z" fill="#FFBABA"/>
<path d="M1176.88 1118.18C1175.91 1120.9 1173.53 1123.23 1171.53 1123.36C1169.53 1123.48 1168.69 1121.41 1169.66 1118.69C1170.62 1115.98 1173.01 1113.65 1175 1113.52C1177.01 1113.39 1177.85 1115.47 1176.88 1118.18Z" fill="#0F0F0F"/>
<path d="M1171.33 1123.87C1170.52 1123.87 1169.85 1123.55 1169.39 1122.94C1168.63 1121.95 1168.56 1120.35 1169.21 1118.53C1170.23 1115.59 1172.79 1113.2 1174.97 1113.04C1175.88 1112.97 1176.65 1113.29 1177.14 1113.93C1177.91 1114.92 1177.98 1116.52 1177.33 1118.34C1176.3 1121.28 1173.75 1123.67 1171.56 1123.83C1171.49 1123.83 1171.4 1123.83 1171.33 1123.83V1123.87ZM1175.17 1114C1173.24 1114.12 1170.98 1116.36 1170.07 1118.85C1169.56 1120.32 1169.59 1121.63 1170.14 1122.36C1170.43 1122.75 1170.88 1122.94 1171.46 1122.91C1173.24 1122.78 1175.49 1120.54 1176.39 1118.05C1176.91 1116.58 1176.88 1115.27 1176.33 1114.54C1176.04 1114.19 1175.65 1114 1175.17 1114Z" fill="#0F0F0F"/>
<path d="M1158.2 1151.95C1156.76 1156.07 1153.18 1159.57 1150.2 1159.8C1147.24 1160.02 1145.96 1156.85 1147.4 1152.74C1148.84 1148.62 1152.42 1145.12 1155.39 1144.89C1158.36 1144.66 1159.64 1147.83 1158.2 1151.95Z" fill="#EC5212"/>
<mask id="mask0_262_20581" style="mask-type:luminance" maskUnits="userSpaceOnUse" x="1173" y="1124" width="21" height="56">
<path d="M1193.12 1124.97H1173.76V1179.94H1193.12V1124.97Z" fill="white"/>
</mask>
<g mask="url(#mask0_262_20581)">
<path d="M1184.51 1179.94L1183.82 1179.53L1183.71 1140.08L1184.4 1140.49L1184.51 1179.94Z" fill="#0F0F0F"/>
<path d="M1184.76 1130.11L1184.07 1129.7L1192.28 1124.97L1192.98 1125.38L1184.76 1130.11Z" fill="#0F0F0F"/>
<path d="M1174.46 1146.67L1173.76 1146.26L1184.07 1129.7L1184.76 1130.11L1174.46 1146.67Z" fill="#0F0F0F"/>
<path d="M1174.48 1156.82L1173.79 1156.42L1173.76 1146.26L1174.45 1146.67L1174.48 1156.82Z" fill="#0F0F0F"/>
<path d="M1192.98 1125.38L1193.12 1174.99L1184.52 1179.94L1184.41 1140.49L1174.49 1156.82L1174.46 1146.67L1184.76 1130.11L1192.98 1125.38Z" fill="#0F0F0F"/>
</g>
<mask id="mask1_262_20581" style="mask-type:luminance" maskUnits="userSpaceOnUse" x="519" y="0" width="130" height="200">
<path d="M648.602 0.643433H519.865V199.696H648.602V0.643433Z" fill="white"/>
</mask>
<g mask="url(#mask1_262_20581)">
<path d="M629.83 199.697L647.195 189.692V188.204L629.83 198.209V199.697Z" fill="#338C77"/>
<path d="M623.207 195.873L629.83 199.696V198.209L623.207 194.385V195.873Z" fill="#B2E1D6"/>
<path d="M629.83 198.208L647.195 188.204L640.551 184.38L623.207 194.385L629.83 198.208Z" fill="#41B383"/>
<path d="M645.559 189.134L639.371 192.71H634.632V189.134H645.559Z" fill="#338C77"/>
<path d="M633.224 147.34C634.321 147.96 636.081 147.96 637.177 147.34C638.274 146.72 638.274 145.686 637.177 145.066C636.081 144.445 634.321 144.445 633.224 145.066C632.128 145.686 632.128 146.72 633.224 147.34Z" fill="#338C77"/>
<path d="M632.396 146.182V191.181C632.396 191.594 632.666 192.007 633.224 192.338C634.321 192.959 636.081 192.959 637.177 192.338C637.715 192.028 637.985 191.615 638.006 191.222V146.223C638.006 146.637 637.736 147.029 637.177 147.34C636.081 147.96 634.321 147.96 633.224 147.34C632.666 147.029 632.396 146.595 632.396 146.182Z" fill="url(#paint0_linear_262_20581)"/>
<path d="M528.661 141.365L546.005 131.361V129.852L528.661 139.856V141.365Z" fill="#338C77"/>
<path d="M522.017 137.541L528.661 141.365V139.856L522.017 136.032V137.541Z" fill="#B2E1D6"/>
<path d="M528.661 139.856L546.005 129.852L539.382 126.028L522.017 136.032L528.661 139.856Z" fill="#41B383"/>
<path d="M544.391 130.803L538.181 134.379H533.442V130.803H544.391Z" fill="#338C77"/>
<path d="M532.035 89.0082C533.132 89.6283 534.891 89.6283 535.988 89.0082C537.085 88.3882 537.085 87.3546 535.988 86.7345C534.891 86.1144 533.132 86.1144 532.035 86.7345C530.937 87.3546 530.937 88.3882 532.035 89.0082Z" fill="#338C77"/>
<path d="M531.227 87.8505V132.849C531.227 133.262 531.496 133.676 532.055 134.007C533.153 134.627 534.911 134.627 536.009 134.007C536.547 133.696 536.815 133.283 536.836 132.89V87.8918C536.836 88.3052 536.568 88.6979 536.009 89.008C534.911 89.6281 533.153 89.6281 532.055 89.008C531.496 88.6979 531.227 88.2638 531.227 87.8505Z" fill="url(#paint1_linear_262_20581)"/>
<path d="M645.104 165.012L648.602 163.007V72.844L645.104 74.8697V165.012Z" fill="#338C77"/>
<path d="M519.865 92.8116L645.104 165.012V74.8699L519.865 2.66943V92.8116Z" fill="#B2E1D6"/>
<path d="M643.035 76.0686L521.935 6.24512V91.6125L643.035 161.436V76.0686Z" fill="#41B383"/>
<path d="M645.104 74.8696L648.602 72.8439L523.362 0.643433L519.865 2.6691L645.104 74.8696Z" fill="#41B383"/>
<path d="M541.576 49.6522C542.901 50.4171 544.163 51.3679 545.364 52.5048C546.564 53.6417 547.599 54.9439 548.468 56.4528C549.317 57.941 549.896 59.5739 550.166 61.3102L544.909 59.7599C544.764 58.6025 544.453 57.6103 543.956 56.8248C543.459 56.0187 542.797 55.3779 541.928 54.8819C541.141 54.4271 540.521 54.241 540.044 54.3444C539.589 54.4271 539.362 54.8199 539.362 55.5019C539.362 55.8739 539.507 56.3081 539.796 56.7628C540.086 57.1968 540.459 57.6516 540.893 58.127C541.349 58.5818 541.97 59.2019 542.797 59.9874C543.066 60.2354 543.274 60.4214 543.398 60.5454C544.722 61.8063 545.861 63.0052 546.792 64.08C547.724 65.1549 548.51 66.3537 549.172 67.718C549.814 69.0615 550.145 70.4877 550.145 71.9759C550.145 73.6502 549.773 74.8491 549.006 75.5519C548.262 76.2546 547.268 76.5027 546.047 76.3374C544.826 76.1513 543.46 75.6552 541.97 74.7871C540.48 73.919 538.989 72.7821 537.726 71.4592C536.443 70.157 535.388 68.71 534.56 67.1185C533.732 65.5269 533.235 63.9147 533.028 62.2197L538.699 63.9973C538.782 65.3202 539.134 66.4777 539.755 67.4906C540.397 68.5034 541.204 69.3095 542.218 69.8882C542.922 70.3017 543.48 70.4257 543.895 70.281C544.288 70.1364 544.494 69.7229 544.494 69.0408C544.494 68.5034 544.329 67.9453 543.997 67.3872C543.667 66.8084 543.253 66.2504 542.715 65.6922C542.197 65.1342 541.473 64.4107 540.541 63.5012C540.438 63.3772 540.314 63.2532 540.127 63.1085C538.844 61.889 537.768 60.7521 536.899 59.7599C536.05 58.7678 535.326 57.6516 534.725 56.4114C534.126 55.1505 533.856 53.8483 533.856 52.4635C533.856 50.9751 534.187 49.8797 534.85 49.1562C535.491 48.4327 536.423 48.1227 537.581 48.1847C538.761 48.288 540.106 48.7635 541.617 49.6316L541.576 49.6522Z" fill="#FDFAF5"/>
<path d="M568.214 65.3613L568.193 70.7975L563.433 68.0484L563.392 86.7962L557.989 83.675L558.031 64.9273L553.25 62.1782L553.271 56.7419L568.214 65.3613Z" fill="#FDFAF5"/>
<path d="M583.406 74.1048L591.084 102.774L585.538 99.5704L584.192 94.3202L575.769 89.4627L574.402 93.1626L568.856 89.9588L576.659 70.2395L583.385 74.1255L583.406 74.1048ZM577.362 85.184L582.682 88.2432L580.053 77.9701L577.362 85.184Z" fill="#FDFAF5"/>
<path d="M606.442 102.32L612.754 115.259L606.277 111.518L600.957 99.3636L600.812 99.281V108.355L595.307 105.193L595.369 81.0087L603.461 85.68C605.51 86.8582 607.125 88.1191 608.325 89.4626C609.526 90.8062 610.353 92.1911 610.85 93.6174C611.326 95.0436 611.575 96.5525 611.575 98.1441C611.575 99.2809 611.347 100.232 610.954 100.976C610.54 101.74 609.94 102.237 609.153 102.485C608.387 102.733 607.477 102.692 606.421 102.341L606.442 102.32ZM605.759 97.0899C606.194 96.8625 606.4 96.2838 606.421 95.3536C606.421 94.4855 606.194 93.6587 605.759 92.9352C605.344 92.1912 604.641 91.5504 603.71 91.013L600.833 89.3593V94.9816L603.689 96.6352C604.62 97.1726 605.324 97.338 605.759 97.0899Z" fill="#FDFAF5"/>
<path d="M630.265 101.121L630.244 106.578L625.462 103.829L625.422 122.556L620.02 119.455L620.061 100.708L615.279 97.9377L615.3 92.5015L630.265 101.121Z" fill="#FDFAF5"/>
</g>
<path d="M576.377 899.197L512.236 936.115L448.181 899.141L512.322 862.223L576.377 899.197Z" fill="#73ACFF"/>
<path d="M512.236 1004.19V936.116L448.181 899.142V967.216L512.236 1004.19Z" fill="#619BF7"/>
<path d="M576.378 967.272V899.198L512.236 936.115V1004.19L576.378 967.272Z" fill="#4688E8"/>
<path d="M565.165 929.845C562.582 922.381 556.197 919.97 549.017 923.771C542.092 927.461 534.712 936.796 532.243 947.182C529.888 957.057 533.804 963.413 539.765 963.385C545.327 963.385 553.472 956.887 555.942 947.211C557.133 942.557 556.708 937.676 554.069 936.427C551.94 935.435 548.563 937.052 546.32 940.514C544.192 943.805 543.341 949.083 545.526 950.332C547.229 951.269 549.925 948.856 550.663 945.649C550.804 945.111 550.209 945.111 550.038 945.649C548.789 950.105 545.271 949.963 545.328 946.359C545.383 944.061 546.547 941.535 548.137 939.918C551.032 936.995 554.153 937.222 555.062 940.542C557.332 948.601 549.13 959.044 543.256 961.115C538.061 962.959 533.066 960.207 532.697 953.141C532.272 945.565 537.068 936.144 542.291 930.639C554.126 918.125 567.152 923.829 564.74 942.217C563.633 950.672 559.688 958.618 554.437 965.03C548.874 971.784 542.035 978.084 535.962 979.332C529.831 980.581 525.715 975.814 524.41 968.464C522.963 960.094 523.531 949.622 527.504 939.804C527.675 939.35 527.276 939.294 527.107 939.72C522.367 950.87 521.345 962.818 523.757 971.87C525.801 979.502 531.136 983.135 538.09 980.382C545.639 977.374 555.232 968.039 560.795 957.795C565.847 948.488 567.691 937.052 565.194 929.816L565.165 929.845Z" fill="#FDFAF5"/>
<path d="M454.395 929.872C457.148 929.872 466.599 933.646 472.815 936.512C475.056 930.411 480.648 922.153 480.648 922.153C480.648 922.153 486.182 937.222 488.452 945.11C493.845 949.735 501.082 955.836 504.913 959.808C501.678 962.504 496.796 965.029 492.965 966.732C494.753 972.747 497.875 987.702 498.045 991.107C491.319 985.63 482.833 974.961 480.903 972.862C479.115 973.373 468.131 974.507 465.861 973.854C465.634 968.492 467.451 954.303 467.99 951.268C466.315 949.111 457.148 935.746 454.395 929.872ZM470.033 950.643C469.352 955.325 467.962 968.265 467.933 971.499C471.282 970.903 478.944 970.563 480.648 969.967C481.953 971.443 489.247 979.558 490.694 981.204C491.518 982.141 494.753 986.255 495.604 986.539C495.803 984.922 491.376 967.158 490.978 965.115C494.27 963.355 498.897 960.858 502.246 959.27C497.818 955.496 492.483 950.643 487.686 946.812C485.501 938.867 481.953 928.567 480.477 924.849C478.859 928.113 474.574 936.995 473.723 939.349C470.885 938.385 460.497 933.419 457.148 932.341C459.873 936.71 466.57 946.5 470.033 950.672V950.643Z" fill="#FDFAF5"/>
<path d="M492.37 880.781C489.957 881.321 486.693 882.938 484.877 883.96C483.118 885.01 480.336 886.882 479.399 888.273C474.291 895.793 484.678 901.837 488.226 903.652C493.476 906.32 498.755 906.973 504.971 908.136C513.797 909.782 522.084 915.968 528.584 919.714C530.145 919.656 535.395 916.592 537.239 915.457C537.58 915.23 537.978 915.031 538.375 914.804C538.744 914.577 539.112 914.35 539.482 914.151C541.44 913.074 546.747 910.066 546.833 909.157C540.305 905.383 529.605 900.617 526.768 895.509C524.752 891.905 523.645 888.869 519.019 885.832C515.869 883.761 505.368 877.802 492.341 880.724L492.37 880.781ZM536.303 913.641C535.821 913.897 531.11 916.535 528.641 917.727C525.547 915.571 521.062 912.733 517.742 911.087C519.473 910.236 521.034 909.271 522.652 908.335C523.389 907.909 524.213 907.512 524.95 907.086C525.717 906.66 526.369 906.178 527.108 905.752C528.726 904.816 530.4 903.908 531.876 902.915C534.742 904.816 539.623 907.426 543.37 909.214C541.327 910.661 536.785 913.357 536.303 913.641ZM523.816 894.374C525.206 897.297 527.448 899.708 530.371 901.894C528.527 902.745 526.88 903.738 525.178 904.675C524.411 905.1 523.588 905.469 522.851 905.895C522.113 906.32 521.459 906.802 520.722 907.228C519.104 908.222 517.402 909.157 515.897 910.236C512.151 908.562 507.951 907.256 502.898 906.462C496.513 905.469 490.922 903.993 486.267 900.901C482.947 898.687 481.585 896.218 480.79 893.891C479.456 889.862 485.16 885.748 486.552 884.953C487.942 884.158 495.065 880.867 502.019 881.633C506.049 882.087 510.334 882.853 514.166 884.782C519.501 887.478 522.027 890.685 523.787 894.374H523.816Z" fill="#FDFAF5"/>
<path d="M501.167 900.022C501.167 900.022 501.053 899.795 500.968 899.652C500.429 899.057 499.294 898.659 498.215 898.489C496.229 898.177 494.128 898.801 495.122 900.135C495.803 901.072 497.818 901.781 500.429 901.015C500.685 900.929 500.855 900.845 500.996 900.731C503.863 901.469 506.787 902.122 509.568 903.029C513.711 904.392 517.316 906.094 520.977 907.882C521.715 908.25 522.651 907.74 521.942 907.343C516.55 904.165 508.717 901.099 501.224 900.022H501.167Z" fill="#FDFAF5"/>
<path d="M512.49 893.495C512.292 893.495 512.093 893.438 511.865 893.381C510.816 893.069 510.135 892.416 509.851 891.792C509.34 890.628 510.418 889.437 512.717 890.005C514.335 890.402 515.555 891.565 514.222 893.069C514.108 893.21 513.909 893.325 513.711 893.381C514.988 895.027 516.123 896.729 517.713 898.318C520.068 900.702 523.02 902.802 526.141 904.902C526.766 905.328 525.915 905.866 525.176 905.441C519.671 902.32 514.363 897.807 512.462 893.495H512.49Z" fill="#FDFAF5"/>
<path d="M531.223 907.03C529.69 907.853 528.186 908.704 526.681 909.556C525.887 910.01 524.865 910.435 524.241 910.974C524.014 911.173 524.695 911.627 525.035 911.513C526.085 911.173 526.852 910.577 527.732 910.123C529.293 909.3 530.826 908.477 532.301 907.626C532.925 907.286 531.847 906.661 531.223 907.002V907.03Z" fill="#FDFAF5"/>
<path d="M535.111 909.272C533.578 910.095 532.074 910.946 530.569 911.797C529.774 912.251 528.753 912.677 528.129 913.216C527.901 913.414 528.583 913.869 528.923 913.756C529.973 913.414 530.739 912.819 531.62 912.365C533.18 911.542 534.713 910.719 536.188 909.868C536.813 909.527 535.734 908.903 535.111 909.243V909.272Z" fill="#FDFAF5"/>
<path d="M633.823 964.582L585.746 992.248L537.697 964.525L585.803 936.83L633.823 964.582Z" fill="#FF5E4C"/>
<path d="M585.746 1043.3V992.249L537.697 964.525V1015.57L585.746 1043.3Z" fill="#EC5212"/>
<path d="M633.823 1015.63V964.581L585.746 992.248V1043.3L633.823 1015.63Z" fill="#EF4335"/>
<path d="M605.811 987.537C606.947 986.317 608.962 984.956 610.183 984.246C611.374 983.565 613.418 982.572 614.553 982.515C620.655 982.061 620.683 990.148 620.569 992.844C620.371 996.788 618.952 1000.11 617.533 1004.11C615.518 1009.81 616.341 1016.71 616.341 1021.79C615.802 1022.7 612.225 1024.71 610.949 1025.39C610.694 1025.53 610.438 1025.67 610.211 1025.82C609.955 1025.96 609.7 1026.1 609.473 1026.24C608.196 1027.04 604.648 1029.11 604.08 1028.85C604.08 1023.77 604.903 1015.94 602.888 1012.57C601.469 1010.18 600.05 1008.51 599.852 1004.79C599.71 1002.27 599.767 994.121 605.868 987.509L605.811 987.537ZM610.183 1024.23C610.495 1024.03 613.617 1022.18 615.149 1021.13C614.922 1018.61 614.78 1015.03 614.951 1012.54C613.872 1013.25 612.765 1013.84 611.686 1014.47C611.204 1014.75 610.694 1015.12 610.183 1015.37C609.7 1015.69 609.189 1015.91 608.679 1016.2C607.6 1016.82 606.493 1017.5 605.414 1018.01C605.556 1020.31 605.414 1024.06 605.216 1026.84C606.749 1026.13 609.842 1024.4 610.183 1024.23ZM603.144 1010.47C604.392 1012.25 605.045 1014.38 605.329 1016.82C606.436 1016.03 607.571 1015.4 608.707 1014.72C609.218 1014.41 609.7 1014.07 610.211 1013.79C610.694 1013.5 611.204 1013.27 611.715 1012.99C612.85 1012.37 613.957 1011.71 615.093 1011.2C615.376 1008.45 616.029 1005.56 617.278 1002.35C618.839 998.292 619.86 994.547 619.633 990.801C619.463 988.106 618.498 986.487 617.391 985.267C615.49 983.139 611.176 985.097 610.239 985.608C609.302 986.119 604.989 989.183 603.087 993.525C601.98 996.022 601.015 998.775 600.845 1001.67C600.618 1005.7 601.64 1008.25 603.201 1010.49L603.144 1010.47Z" fill="#FDFAF5"/>
<path d="M614.071 999.143C614.071 999.143 613.957 999.002 613.929 998.889C613.759 998.377 613.929 997.583 614.185 996.902C614.667 995.625 615.746 994.632 616.2 995.653C616.512 996.363 616.228 997.782 614.922 999.03C614.808 999.143 614.667 999.229 614.553 999.257C614.014 1001.19 613.418 1003.09 613.021 1005.02C612.425 1007.88 612.198 1010.58 612.027 1013.3C611.999 1013.87 611.403 1014.24 611.374 1013.67C611.318 1009.47 612.198 1003.85 614.071 999.116V999.143Z" fill="#FDFAF5"/>
<path d="M606.436 1003.54C606.436 1003.54 606.55 1003.29 606.578 1003.14C606.749 1002.44 606.578 1001.81 606.323 1001.44C605.841 1000.76 604.762 1000.99 604.308 1002.52C603.995 1003.6 604.28 1004.71 605.585 1004.42C605.699 1004.42 605.841 1004.34 605.954 1004.22C606.493 1005.53 607.089 1006.75 607.486 1008.22C608.082 1010.41 608.31 1012.82 608.48 1015.35C608.508 1015.86 609.104 1015.54 609.133 1014.98C609.19 1010.72 608.31 1006.1 606.436 1003.54Z" fill="#FDFAF5"/>
<path d="M608.026 1019.03C609.02 1018.41 610.012 1017.81 611.034 1017.25C611.573 1016.94 612.17 1016.48 612.68 1016.31C612.88 1016.25 612.908 1016.79 612.737 1016.96C612.198 1017.45 611.573 1017.73 611.034 1018.07C610.041 1018.69 609.047 1019.32 608.026 1019.91C607.628 1020.14 607.628 1019.32 608.026 1019.06V1019.03Z" fill="#FDFAF5"/>
<path d="M608.026 1022.07C609.02 1021.45 610.012 1020.85 611.034 1020.28C611.573 1019.97 612.17 1019.52 612.68 1019.35C612.88 1019.29 612.908 1019.83 612.737 1020C612.198 1020.48 611.573 1020.74 611.034 1021.11C610.041 1021.73 609.047 1022.36 608.026 1022.95C607.628 1023.18 607.628 1022.36 608.026 1022.1V1022.07Z" fill="#FDFAF5"/>
<path d="M561.936 982.856C558.217 979.764 552.938 978.373 551.377 982.658C550.327 985.552 551.576 989.979 554.131 992.334C554.982 993.1 555.265 991.851 554.528 990.801C554.074 990.149 553.563 989.582 553.307 989.07C551.406 984.956 553.449 981.636 556.657 982.488C557.82 982.799 558.955 983.168 560.119 983.849C563.383 985.808 566.335 990.376 566.42 995.143C566.533 1001.53 561.765 1000.36 558.927 1002.18C556.203 1003.94 555.01 1009.36 558.984 1014.27C560.034 1015.55 560.857 1014.13 559.892 1012.71C555.578 1006.35 561.368 1004.14 562.872 1003.6C563.894 1003.23 565.001 1003 565.852 1002.29C567.044 1001.3 567.839 999.768 568.065 997.555C568.548 992.533 565.795 986.119 561.907 982.856H561.936Z" fill="#FDFAF5"/>
<path d="M561.679 1020.2C561.112 1018.75 560.09 1017.56 559.125 1017.11C558.217 1016.68 556.939 1016.88 556.627 1019.09C556.259 1021.73 558.018 1024.65 560.005 1025.28C562.02 1025.93 562.814 1023.01 561.708 1020.2H561.679ZM560.09 1022.87C559.522 1023.15 558.443 1022.21 558.188 1021.14C558.046 1020.54 558.132 1019.89 558.387 1019.63C558.699 1019.29 559.551 1019.46 560.033 1020.2C560.658 1021.14 560.686 1022.58 560.09 1022.89V1022.87Z" fill="#FDFAF5"/>
<path d="M657.863 914.64L609.758 942.335L561.709 914.612L609.814 886.917L657.863 914.64Z" fill="#5BBC82"/>
<path d="M609.758 993.384V942.336L561.709 914.612V965.661L609.758 993.384Z" fill="#41B383"/>
<path d="M657.863 965.688V914.64L609.758 942.335V993.383L657.863 965.688Z" fill="#359658"/>
<path d="M601.385 957.432C599.455 949.599 594.659 942.25 589.267 938.873C584.072 935.638 578.539 936.262 576.665 941.937C574.906 947.33 577.829 955.473 582.313 960.637C586.485 965.461 592.615 967.646 594.46 962.51C595.34 960.042 595.028 956.012 593.069 952.806C591.451 950.195 588.925 948.493 587.251 949.145C585.662 949.77 585.009 953.005 586.655 955.842C587.932 958.027 589.947 958.537 590.515 956.779C590.6 956.466 590.175 955.956 590.061 956.239C589.124 958.51 586.485 955.332 586.541 952.692C586.57 951.018 587.45 950.111 588.642 950.281C590.799 950.564 593.155 953.459 593.864 956.75C595.567 964.781 589.408 965.49 585.009 961.971C581.121 958.85 577.375 952.465 577.063 946.818C576.75 940.775 580.355 937.852 584.243 938.221C593.126 939.1 602.918 954.65 601.102 966.369C600.278 971.761 597.326 974.315 593.353 974.57C589.181 974.826 584.044 973.634 579.475 969.292C574.877 964.922 571.783 957.743 570.818 951.132C569.712 943.584 570.166 936.206 573.146 932.29C573.288 932.12 572.976 931.723 572.834 931.864C569.257 936.121 568.491 944.208 570.307 953.089C571.84 960.581 575.842 967.959 581.064 971.903C586.741 976.216 593.921 977.493 598.122 974.627C601.924 972.016 603.286 965.035 601.413 957.432H601.385Z" fill="#FDFAF5"/>
<path d="M624.685 898.211C621.365 898.835 612.624 902.552 607.175 905.135C600.25 903.205 587.763 901.191 587.763 901.191C587.763 901.191 591.565 908.512 594.318 912.2C591.054 915.294 586.57 919.408 584.726 921.876C590.487 922.217 598.093 922.103 603.854 921.876C605.898 924.714 612.51 931.411 614.668 932.801C618.953 929.056 621.734 922.813 622.614 921.536C625.112 921.309 639.103 919.238 641.373 918.443C637.939 916.258 625.906 910.98 623.154 909.902C623.664 908.653 625.424 901.191 624.657 898.183L624.685 898.211ZM620.315 910.157C624.374 911.86 635.016 916.741 637.316 918.018C632.888 918.557 623.437 920.174 620.968 920.345C620.4 921.224 617.279 926.19 616.683 927.154C616.341 927.723 615.292 930.106 614.468 930.418C613.106 929.822 606.124 921.678 605.16 920.77C599.966 920.826 592.701 920.912 587.535 921.025C590.232 918.5 593.268 915.322 596.39 912.654C593.495 908.966 590.629 904.028 589.834 902.184C594.034 903.121 605.359 905.702 608.026 906.44C610.751 905.39 619.804 900.992 623.068 899.8C622.841 902.184 621.564 907.66 620.315 910.129V910.157Z" fill="#FDFAF5"/>
<path d="M636.89 930.73C633.171 931.921 627.893 936.632 626.332 942.704C625.283 946.791 626.531 949.798 629.085 949.202C629.936 949.004 630.221 947.387 629.482 947.217C629.028 947.102 628.518 947.131 628.262 946.904C626.36 945.003 628.404 939.299 631.611 936.462C632.774 935.44 633.91 934.504 635.074 933.822C638.337 932.035 641.289 933.17 641.374 937.823C641.488 944.067 636.719 948.408 633.881 953.543C631.157 958.481 629.965 965.235 633.938 965.547C634.989 965.632 635.811 963.248 634.846 962.937C630.561 961.546 636.322 952.665 637.826 950.366C638.848 948.834 639.955 947.33 640.807 945.627C641.998 943.243 642.793 940.803 643.02 938.335C643.502 932.744 640.75 929.51 636.862 930.758L636.89 930.73Z" fill="#FDFAF5"/>
<path d="M636.634 968.327C636.067 967.532 635.045 967.533 634.08 968.213C633.172 968.838 631.894 970.512 631.582 973.066C631.214 976.102 632.973 977.01 634.959 975.364C636.975 973.662 637.769 969.859 636.663 968.327H636.634ZM635.045 972.81C634.477 973.776 633.398 974.059 633.143 973.264C633.001 972.839 633.086 972.101 633.341 971.533C633.654 970.824 634.505 970.03 634.988 970.2C635.613 970.427 635.641 971.846 635.045 972.81Z" fill="#FDFAF5"/>
<g filter="url(#filter0_d_262_20581)">
<path d="M1112.65 933.439L1086.84 918.477L803.317 1081.16L776.441 1065.56L1059.98 902.886L1031.1 886.118L1116.53 884.045L1112.65 933.439Z" fill="#FFEDAF"/>
<path d="M776.027 1065.9L802.887 1081.49L1086.84 918.476L1112.65 933.455L1116.52 884.06L1031.1 886.133L1059.98 902.902L776.027 1065.9ZM1115.46 937.663L1086.82 921.051L802.871 1084.06L771.576 1065.9L1055.55 902.87L1023.84 884.469L1119.84 882.129L1115.49 937.631" fill="#0F0F0F"/>
</g>
<path d="M466.572 205.174L466.541 217.675L461.857 214.972L461.888 202.47L466.572 205.174Z" fill="#FDFAF5"/>
<path d="M461.889 202.47L461.858 214.972L457.204 217.675L457.251 205.158L461.889 202.47Z" fill="#FDFAF5"/>
<path d="M457.205 217.675C454.149 219.456 452.613 221.769 452.598 224.097L452.629 211.581C452.629 209.253 454.165 206.94 457.236 205.158C457.236 208.908 457.205 213.909 457.205 217.675Z" fill="#FDFAF5"/>
<path d="M471.227 224.191C471.227 221.831 469.675 219.472 466.541 217.675L466.573 205.158C469.707 206.956 471.258 209.314 471.258 211.674C471.258 215.424 471.227 220.425 471.227 224.191Z" fill="#FDFAF5"/>
<path d="M471.258 211.691L471.226 224.207C471.226 226.535 469.691 228.863 466.62 230.629L466.652 218.112C469.722 216.331 471.242 214.018 471.258 211.691Z" fill="#FDFAF5"/>
<path d="M475.176 207.83L475.145 220.347C475.145 223.659 472.951 226.956 468.595 229.488L468.626 216.972C472.982 214.44 475.16 211.143 475.176 207.83Z" fill="#482A1D"/>
<path d="M452.598 224.097L452.629 211.581C452.629 213.939 454.18 216.299 457.315 218.097L457.283 230.613C454.165 228.816 452.598 226.457 452.598 224.097Z" fill="#FDFAF5"/>
<path d="M448.649 220.206L448.681 207.69C448.681 211.05 450.889 214.409 455.339 216.956L455.308 229.473C450.858 226.91 448.649 223.55 448.649 220.206Z" fill="#301A13"/>
<path d="M489.058 218.112L489.026 230.629C482.822 227.05 472.793 227.05 466.62 230.629L466.652 218.112C472.825 214.533 482.837 214.533 489.058 218.112Z" fill="#FDFAF5"/>
<path d="M457.313 218.112L457.282 230.629C451.078 227.05 441.049 227.05 434.876 230.629L434.908 218.112C441.081 214.533 451.109 214.533 457.313 218.112Z" fill="#FDFAF5"/>
<path d="M493.742 220.801L493.711 233.317L489.01 230.614L489.057 218.113L493.742 220.801Z" fill="#FDFAF5"/>
<path d="M434.908 218.113L434.877 230.614L430.223 233.317L430.254 220.801L434.908 218.113Z" fill="#FDFAF5"/>
<path d="M493.742 220.8L493.711 233.316L489.058 236.004L489.089 223.503L493.742 220.8Z" fill="#FDFAF5"/>
<path d="M434.94 223.503L434.908 236.004L430.223 233.316L430.254 220.8L434.94 223.503Z" fill="#FDFAF5"/>
<path d="M507.155 220.8L507.124 233.316L500.495 237.145L500.542 224.644L507.155 220.8Z" fill="#482A1D"/>
<path d="M489.089 223.503L489.058 236.019C482.884 239.598 472.857 239.598 466.651 236.019L466.683 223.503C472.888 227.082 482.915 227.082 489.089 223.503Z" fill="#FDFAF5"/>
<path d="M500.543 224.643L500.512 237.16C491.737 242.239 477.463 242.239 468.642 237.16L468.673 224.643C477.51 229.722 491.769 229.722 500.543 224.643Z" fill="#482A1D"/>
<path d="M468.688 237.458C468.108 236.942 467.42 236.457 466.636 236.019L466.667 223.503C467.451 223.956 468.124 224.441 468.72 224.941C468.72 229.113 468.688 233.285 468.688 237.458Z" fill="#FDFAF5"/>
<path d="M469.735 238.519C469.423 238.16 469.08 237.801 468.688 237.457C468.688 233.285 468.72 229.113 468.72 224.941C469.11 225.284 469.47 225.644 469.767 226.003C469.767 230.175 469.735 234.347 469.735 238.519Z" fill="#FDFAF5"/>
<path d="M469.738 238.52C469.691 238.394 469.738 238.191 469.738 238.051C469.738 237.972 469.738 237.879 469.738 237.8C469.738 237.363 469.738 236.941 469.738 236.503C469.738 235.832 469.738 235.16 469.738 234.488C469.738 231.659 469.754 228.831 469.77 226.003C469.91 226.174 470.05 226.347 470.176 226.534C470.176 230.706 470.145 234.878 470.145 239.051C470.019 238.879 469.879 238.691 469.738 238.52Z" fill="#FDFAF5"/>
<path d="M457.345 223.503L457.314 236.019C451.14 239.598 441.113 239.598 434.908 236.019L434.939 223.503C441.144 227.082 451.171 227.082 457.345 223.503Z" fill="#FDFAF5"/>
<path d="M455.386 224.644L455.355 237.161C446.581 242.255 432.307 242.255 423.485 237.161L416.81 233.316L416.841 220.816L423.501 224.644C432.338 229.738 446.596 229.738 455.371 224.644H455.386Z" fill="#482A1D"/>
<path d="M457.312 236.004C455.777 236.895 454.618 237.926 453.85 239.036C453.85 234.864 453.881 230.692 453.881 226.519C454.649 225.426 455.808 224.395 457.344 223.488C457.344 227.238 457.312 232.238 457.312 236.004Z" fill="#FDFAF5"/>
<path d="M453.847 239.036C453.098 240.13 452.706 241.27 452.706 242.427L452.737 229.91C452.737 228.754 453.128 227.597 453.879 226.52C453.879 226.956 453.879 227.535 453.879 227.973C453.879 228.441 453.879 229.05 453.879 229.519C453.879 230.004 453.879 230.645 453.879 231.129C453.879 231.613 453.879 232.269 453.879 232.77C453.879 233.02 453.879 233.348 453.879 233.598C453.879 234.661 453.879 235.739 453.879 236.802C453.879 237.254 453.879 237.864 453.879 238.317C453.879 238.535 453.941 238.833 453.879 239.036H453.847Z" fill="#FDFAF5"/>
<path d="M471.318 242.535C471.318 241.348 470.927 240.161 470.145 239.051C470.145 234.879 470.177 230.707 470.177 226.534C470.959 227.644 471.349 228.831 471.349 230.019C471.349 233.769 471.318 238.77 471.318 242.535Z" fill="#FDFAF5"/>
<path d="M471.368 230.019L471.336 242.535C471.336 244.863 469.801 247.192 466.73 248.958L466.762 236.441C469.832 234.66 471.352 232.347 471.368 230.019Z" fill="#FDFAF5"/>
<path d="M452.707 242.442L452.737 229.925C452.737 232.285 454.288 234.645 457.407 236.441L457.375 248.958C454.257 247.161 452.691 244.801 452.707 242.442Z" fill="#FDFAF5"/>
<path d="M466.761 236.442L466.715 248.959L462.077 251.646L462.108 239.146L466.761 236.442Z" fill="#FDFAF5"/>
<path d="M462.107 239.146L462.075 251.646L457.391 248.959L457.422 236.442L462.107 239.146Z" fill="#FDFAF5"/>
<path d="M475.316 233.91L475.285 246.427C475.285 249.74 473.091 253.036 468.735 255.568L468.766 243.052C473.122 240.52 475.301 237.222 475.316 233.91Z" fill="#482A1D"/>
<path d="M493.743 220.816L489.058 218.113C482.854 214.534 472.825 214.534 466.652 218.113C472.825 214.534 472.794 208.752 466.59 205.174L461.889 202.47L457.235 205.158C451.062 208.736 451.094 214.534 457.298 218.097C451.094 214.518 441.065 214.518 434.892 218.097L430.238 220.784L434.924 223.487C441.128 227.066 451.156 227.066 457.33 223.487C451.156 227.066 451.187 232.863 457.392 236.426L462.077 239.13L466.731 236.441C472.888 232.863 472.857 227.066 466.652 223.503C472.857 227.082 482.885 227.082 489.058 223.503L493.712 220.816H493.743Z" fill="#FDFAF5"/>
<path d="M500.495 216.971C491.658 211.893 477.4 211.893 468.626 216.971C477.4 211.877 477.353 203.643 468.516 198.564L461.857 194.72L455.244 198.564C446.47 203.659 446.517 211.893 455.339 216.971C446.502 211.877 432.243 211.877 423.469 216.971L416.842 220.8L423.516 224.644C432.337 229.723 446.611 229.723 455.386 224.644C446.611 229.723 446.659 237.957 455.48 243.052L462.154 246.896L468.767 243.052C477.541 237.973 477.494 229.723 468.657 224.644C477.494 229.723 491.768 229.723 500.527 224.644L507.139 220.8L500.48 216.956L500.495 216.971Z" fill="#6F4838"/>
<path d="M457.345 225.722L456.012 226.613C456.419 226.3 456.859 226.004 457.345 225.722Z" fill="#301A13"/>
<path d="M457.344 223.504L455.777 224.567C455.949 224.425 456.137 224.285 456.325 224.16C456.467 224.05 456.624 223.957 456.78 223.847C456.968 223.723 457.14 223.613 457.328 223.504H457.344Z" fill="#301A13"/>
<path d="M465.099 222.254C464.943 222.41 464.739 222.551 464.519 222.676C463.047 223.52 460.665 223.52 459.177 222.676C458.942 222.535 458.754 222.394 458.597 222.238C457.735 221.394 457.924 220.3 459.177 219.582C460.649 218.738 463.031 218.738 464.519 219.582C465.774 220.3 465.977 221.394 465.115 222.254H465.099Z" fill="#301A13"/>
<path d="M471.211 212.331C471.195 212.471 471.164 212.627 471.132 212.769C470.725 210.799 469.205 208.893 466.589 207.377L461.888 204.674L457.251 207.377C454.665 208.877 453.161 210.752 452.754 212.706C452.722 212.518 452.691 212.331 452.675 212.144C452.565 211.097 452.754 210.034 453.286 209.003C453.365 208.861 453.442 208.721 453.521 208.581C453.662 208.378 453.788 208.174 453.944 207.97C454.101 207.767 454.274 207.564 454.445 207.361C454.571 207.221 454.696 207.096 454.822 206.971C454.962 206.83 455.088 206.72 455.229 206.596C455.652 206.221 456.154 205.846 456.686 205.502C456.858 205.377 457.047 205.267 457.235 205.158L461.872 202.455L466.573 205.158C467.043 205.44 467.482 205.705 467.889 206.002C468.139 206.205 468.391 206.393 468.625 206.596C469.644 207.487 470.381 208.455 470.788 209.471C470.851 209.612 470.898 209.752 470.945 209.908C471.226 210.705 471.305 211.518 471.195 212.331H471.211Z" fill="#301A13"/>
<path d="M471.367 230.005C471.367 230.379 471.336 230.754 471.242 231.113C471.32 230.739 471.367 230.379 471.367 230.005Z" fill="#301A13"/>
<path d="M464.488 219.582C463 218.738 460.618 218.738 459.145 219.582C457.908 220.3 457.719 221.394 458.566 222.238C458.722 222.082 458.911 221.926 459.145 221.801C460.618 220.957 463 220.957 464.488 221.801C464.724 221.941 464.928 222.082 465.084 222.254C465.945 221.41 465.742 220.316 464.488 219.582ZM456.795 223.847C456.638 223.942 456.482 224.05 456.341 224.16C456.152 224.301 455.965 224.426 455.792 224.567L457.359 223.504C457.171 223.614 456.984 223.723 456.811 223.847H456.795ZM456.012 226.613L457.344 225.722C456.858 226.004 456.404 226.301 456.012 226.613Z" fill="#301A13"/>
<path d="M470.961 209.908C470.929 209.768 470.866 209.612 470.805 209.471C470.381 208.455 469.66 207.487 468.642 206.596C468.406 206.393 468.172 206.205 467.906 206.002C467.498 205.705 467.059 205.424 466.589 205.158L461.889 202.455L457.251 205.158C457.063 205.267 456.875 205.377 456.702 205.502C456.154 205.846 455.668 206.205 455.245 206.596C455.105 206.72 454.963 206.846 454.838 206.971C454.696 207.096 454.588 207.221 454.462 207.361C454.289 207.564 454.133 207.767 453.96 207.956C453.803 208.159 453.679 208.378 453.538 208.581C453.459 208.721 453.381 208.861 453.302 209.003C452.769 210.034 452.582 211.097 452.692 212.144C452.707 212.331 452.738 212.518 452.769 212.706C453.177 210.752 454.665 208.861 457.266 207.377L461.905 204.674L466.605 207.377C469.237 208.877 470.757 210.799 471.149 212.769C471.18 212.627 471.212 212.471 471.227 212.331C471.337 211.518 471.259 210.705 470.976 209.908H470.961ZM456.013 226.597L457.345 225.707C456.859 225.988 456.405 226.284 456.013 226.597ZM456.796 223.831C456.639 223.926 456.483 224.035 456.342 224.143C456.154 224.285 455.966 224.409 455.793 224.551L457.36 223.488C457.172 223.597 456.985 223.707 456.812 223.831H456.796Z" fill="#301A13"/>
<path d="M489.056 220.332C483.04 216.863 473.451 216.754 467.246 220.003L466.651 220.332V218.113C467.622 217.566 468.421 216.957 469.079 216.3C469.189 216.206 469.283 216.097 469.377 215.987C469.675 215.675 469.925 215.362 470.145 215.05C470.208 214.972 470.271 214.863 470.332 214.769C470.521 214.457 470.678 214.159 470.802 213.846C470.865 213.722 470.912 213.613 470.944 213.487C470.975 213.378 471.022 213.253 471.054 213.128C471.085 213.003 471.116 212.894 471.132 212.769C470.725 210.8 469.205 208.893 466.588 207.377L461.888 204.674L457.249 207.377C454.664 208.878 453.16 210.753 452.752 212.706C452.815 212.956 452.878 213.191 452.957 213.44C453.035 213.69 453.144 213.925 453.27 214.159C453.332 214.284 453.395 214.394 453.474 214.519C453.536 214.628 453.599 214.722 453.677 214.832C453.708 214.909 453.755 214.988 453.834 215.066C453.912 215.175 453.991 215.3 454.085 215.409C454.319 215.707 454.586 216.003 454.884 216.3C455.009 216.409 455.134 216.535 455.275 216.659C455.417 216.8 455.574 216.91 455.73 217.034C456.2 217.409 456.732 217.769 457.312 218.097V220.316C451.108 216.738 441.08 216.738 434.907 220.316L432.18 221.894L434.938 223.489C441.142 227.066 451.17 227.066 457.344 223.489V225.707L456.012 226.598L455.949 226.629C454.21 227.941 453.191 229.473 452.862 231.036C452.894 231.161 452.925 231.285 452.957 231.411C452.988 231.52 453.019 231.645 453.066 231.77C453.098 231.895 453.144 232.004 453.207 232.129C453.442 232.692 453.787 233.239 454.21 233.771C454.319 233.911 454.429 234.051 454.555 234.177C454.555 234.177 454.586 234.208 454.586 234.223L454.931 234.567C455.604 235.224 456.419 235.833 457.391 236.395L462.075 239.098L466.729 236.395C467.701 235.833 468.515 235.208 469.189 234.552C469.392 234.348 469.596 234.13 469.769 233.927C469.972 233.676 470.176 233.426 470.317 233.176C470.395 233.067 470.458 232.973 470.521 232.864C470.662 232.629 470.772 232.395 470.881 232.16C470.944 232.036 470.975 231.91 471.022 231.801C471.054 231.677 471.101 231.551 471.132 231.426C471.163 231.317 471.195 231.192 471.211 231.066C470.834 229.254 469.502 227.488 467.231 226.035L466.651 225.676V223.457C472.855 227.036 482.883 227.036 489.056 223.457L491.783 221.878L489.025 220.285L489.056 220.332ZM465.099 222.253C464.942 222.41 464.739 222.551 464.519 222.675C463.047 223.519 460.665 223.519 459.177 222.675C458.942 222.535 458.754 222.395 458.597 222.238C457.735 221.394 457.924 220.301 459.177 219.581C460.649 218.738 463.031 218.738 464.519 219.581C465.774 220.301 465.977 221.394 465.115 222.253H465.099Z" fill="#482A1D"/>
<path d="M457.312 218.112V220.331C451.108 216.753 441.08 216.753 434.907 220.331L432.18 221.91L430.253 220.8L434.891 218.112C437.993 216.315 442.035 215.424 446.109 215.424C446.407 215.424 446.705 215.424 447.002 215.44C447.315 215.44 447.629 215.455 447.927 215.487C448.194 215.487 448.475 215.518 448.741 215.55C448.93 215.55 449.118 215.581 449.29 215.612C449.478 215.612 449.651 215.643 449.838 215.674C450.136 215.706 450.434 215.753 450.7 215.815C450.982 215.846 451.248 215.909 451.515 215.971C452.095 216.08 452.674 216.222 453.238 216.393H453.27C453.584 216.487 453.865 216.581 454.162 216.69C454.367 216.753 454.571 216.831 454.758 216.909C455.228 217.081 455.698 217.284 456.137 217.503C456.278 217.565 456.435 217.643 456.575 217.706C456.811 217.831 457.046 217.955 457.281 218.081L457.312 218.112Z" fill="#301A13"/>
<path d="M493.742 220.8L491.815 221.91L489.057 220.316C483.04 216.847 473.451 216.737 467.246 219.988L466.651 220.316V218.097C467.842 217.394 469.173 216.847 470.599 216.425H470.631C470.835 216.347 471.054 216.285 471.273 216.238C471.476 216.191 471.681 216.128 471.869 216.097C472.088 216.035 472.308 215.988 472.542 215.941C472.793 215.878 473.059 215.832 473.31 215.8C473.796 215.722 474.298 215.644 474.799 215.597C474.939 215.581 475.065 215.566 475.206 215.566C475.456 215.534 475.708 215.503 475.958 215.503C476.272 215.471 476.585 215.471 476.882 215.456C477.196 215.456 477.509 215.441 477.807 215.441C481.865 215.441 485.923 216.331 489.026 218.129L493.71 220.832L493.742 220.8Z" fill="#301A13"/>
<path d="M457.345 223.503V225.722C456.859 226.004 456.405 226.301 456.012 226.613L455.95 226.644C454.211 227.957 453.192 229.488 452.863 231.051C452.832 230.911 452.801 230.769 452.785 230.629C452.754 230.394 452.738 230.16 452.738 229.925C452.738 229.785 452.738 229.645 452.754 229.503C452.754 229.363 452.785 229.223 452.816 229.066C452.832 228.926 452.863 228.785 452.895 228.644C452.926 228.535 452.942 228.441 452.973 228.348C453.005 228.238 453.036 228.145 453.082 228.035C453.161 227.832 453.239 227.613 453.349 227.41C453.349 227.41 453.365 227.378 453.381 227.348C453.475 227.145 453.584 226.941 453.725 226.753C453.803 226.644 453.882 226.519 453.96 226.394C453.992 226.363 454.023 226.316 454.039 226.285C454.148 226.128 454.273 225.972 454.399 225.832C454.539 225.675 454.681 225.503 454.853 225.363C455.104 225.113 455.37 224.878 455.668 224.613L455.746 224.55L457.313 223.488L457.345 223.503Z" fill="#301A13"/>
<path d="M457.345 225.722L456.012 226.613C456.419 226.3 456.859 226.004 457.345 225.722Z" fill="#301A13"/>
<path d="M471.367 229.988C471.367 230.363 471.321 230.738 471.243 231.098C470.866 229.285 469.534 227.52 467.263 226.066L466.683 225.706V223.488C466.934 223.628 467.153 223.769 467.388 223.925C467.592 224.05 467.764 224.176 467.952 224.316C468.187 224.488 468.422 224.675 468.626 224.847C468.814 225.004 468.986 225.16 469.143 225.316C469.44 225.597 469.707 225.894 469.942 226.191C470.02 226.285 470.099 226.394 470.177 226.504C470.396 226.8 470.584 227.098 470.726 227.41C470.788 227.551 470.851 227.676 470.913 227.8C470.929 227.863 470.96 227.91 470.976 227.973C471.007 228.05 471.039 228.145 471.07 228.238C471.101 228.348 471.149 228.457 471.164 228.566C471.227 228.77 471.258 228.957 471.306 229.16C471.321 229.3 471.337 229.426 471.353 229.566C471.353 229.707 471.367 229.848 471.367 229.988Z" fill="#301A13"/>
<path d="M468.768 243.052L468.736 255.569L462.109 259.398L462.155 246.896L468.768 243.052Z" fill="#482A1D"/>
<path d="M455.481 243.052C451.031 240.489 448.822 237.129 448.822 233.785L448.791 246.302C448.791 249.646 451 253.006 455.449 255.569L462.109 259.412L462.14 246.896L455.481 243.052Z" fill="#B2806B"/>
<path d="M257.809 803.038C256.948 805.328 254.986 807.491 251.908 809.272C243.329 814.251 229.327 814.251 220.683 809.272C217.557 807.475 215.548 805.264 214.687 802.942C215.548 800.652 217.509 798.489 220.588 796.708C229.167 791.746 243.169 791.746 251.812 796.708C254.938 798.505 256.932 800.716 257.809 803.038Z" fill="#FDFAF5"/>
<path d="M268.19 800.954V817.574C268.206 822.313 265.16 827.052 258.925 830.647C246.501 837.82 226.217 837.82 213.73 830.647C207.462 827.052 204.368 822.297 204.336 817.574V799.141L227.716 799.793C234.254 798.727 241.271 798.934 247.666 800.365L268.19 800.938V800.954Z" fill="#B2806B"/>
<path d="M258.782 787.674C271.285 794.863 271.349 806.584 258.925 813.789C246.502 820.993 226.218 820.993 213.73 813.789C201.228 806.6 201.164 794.879 213.587 787.674C226.01 780.485 246.279 780.485 258.782 787.674Z" fill="#FED6C1"/>
<path d="M257.522 803.483C256.66 805.741 254.731 807.873 251.718 809.621C251.366 809.828 250.999 810.019 250.633 810.21C242.435 814.361 230.093 814.345 221.895 810.163C221.577 809.988 221.226 809.796 220.922 809.621C217.845 807.857 215.868 805.677 215.006 803.387C213.475 799.347 215.405 794.974 220.812 791.825C229.279 786.926 243.105 786.926 251.622 791.825C257.092 794.99 259.069 799.395 257.538 803.483H257.522Z" fill="#B2806B"/>
<path d="M257.521 803.483C256.66 801.193 254.682 799.014 251.605 797.248C243.089 792.351 229.262 792.351 220.811 797.248C217.781 798.998 215.851 801.145 214.989 803.404C213.459 799.364 215.389 794.99 220.811 791.841C229.278 786.942 243.089 786.942 251.605 791.841C257.075 794.99 259.053 799.412 257.521 803.483Z" fill="#E7B49F"/>
<path d="M251.765 800.063V806.807C251.765 807.474 251.669 808.11 251.429 808.762C251.238 809.24 250.983 809.733 250.648 810.195C242.451 814.345 230.108 814.329 221.911 810.147C221.592 809.669 221.321 809.192 221.129 808.7C220.89 808.079 220.811 807.427 220.795 806.791V800.048H226.089C231.894 797.121 240.602 797.121 246.422 800.048H251.797L251.765 800.063Z" fill="#E7B49F"/>
<path d="M251.414 802.004C250.792 803.61 249.42 805.137 247.268 806.377C241.24 809.876 231.4 809.876 225.324 806.377C223.14 805.121 221.736 803.562 221.114 801.94C220.029 799.062 221.401 795.945 225.26 793.717C231.288 790.219 241.128 790.219 247.204 793.717C251.111 795.961 252.514 799.11 251.414 802.004Z" fill="#FED6C1"/>
<path d="M239.963 800.541C239.819 800.939 239.469 801.304 238.959 801.607C237.491 802.466 235.083 802.466 233.6 801.607C233.058 801.304 232.723 800.923 232.58 800.525C232.309 799.825 232.66 799.062 233.584 798.522C235.052 797.663 237.459 797.663 238.943 798.522C239.899 799.062 240.235 799.841 239.963 800.541Z" fill="#B2806B"/>
<path d="M235.489 599.413L221.285 591.281L95.5187 663.209L109.732 671.345L235.489 599.413Z" fill="#FFF6DA"/>
<path d="M109.732 671.345L95.5187 663.209L95.5205 808.489L109.73 816.612L109.732 671.345Z" fill="#FFF6DA"/>
<path d="M235.497 599.413L109.732 671.345L109.73 816.612L235.496 744.685L235.497 599.413Z" fill="#FFF6DA"/>
<path fill-rule="evenodd" clip-rule="evenodd" d="M221.285 590.165L235.493 598.298L236.466 597.742V598.855L237.441 599.413L236.466 599.971L236.466 745.247L109.73 817.728L94.5513 809.052L94.5494 662.646L221.285 590.165ZM109.732 670.228L233.538 599.412L221.285 592.398L97.4703 663.209L109.732 670.228ZM96.4879 664.88L96.4897 807.927L108.761 814.941L108.763 671.907L96.4879 664.88ZM110.701 671.907L110.699 814.941L234.527 744.122L234.527 601.084L110.701 671.907Z" fill="#0F0F0F"/>
<path d="M235.489 454.314L221.285 446.182L95.5187 518.11L109.732 526.246L235.489 454.314Z" fill="#FFF6DA"/>
<path d="M109.732 526.246L95.5187 518.11L95.5205 663.39L109.73 671.513L109.732 526.246Z" fill="#FFF6DA"/>
<path d="M235.497 454.314L109.732 526.246L109.73 671.513L235.496 599.586L235.497 454.314Z" fill="#FFF6DA"/>
<path fill-rule="evenodd" clip-rule="evenodd" d="M221.285 445.066L235.493 453.199L236.466 452.643V453.756L237.441 454.314L236.466 454.872L236.466 600.148L109.73 672.629L94.5513 663.952L94.5494 517.547L221.285 445.066ZM109.732 525.129L233.538 454.313L221.285 447.299L97.4703 518.11L109.732 525.129ZM96.4879 519.781L96.4897 662.828L108.761 669.842L108.763 526.808L96.4879 519.781ZM110.701 526.808L234.527 455.985L234.527 599.023L110.699 669.842L110.701 526.808Z" fill="#0F0F0F"/>
<defs>
<filter id="filter0_d_262_20581" x="771.576" y="882.129" width="349.76" height="203.434" filterUnits="userSpaceOnUse" color-interpolation-filters="sRGB">
<feFlood flood-opacity="0" result="BackgroundImageFix"/>
<feColorMatrix in="SourceAlpha" type="matrix" values="0 0 0 0 0 0 0 0 0 0 0 0 0 0 0 0 0 0 127 0" result="hardAlpha"/>
<feOffset dx="1" dy="1"/>
<feGaussianBlur stdDeviation="0.25"/>
<feComposite in2="hardAlpha" operator="out"/>
<feColorMatrix type="matrix" values="0 0 0 0 0 0 0 0 0 0 0 0 0 0 0 0 0 0 1 0"/>
<feBlend mode="normal" in2="BackgroundImageFix" result="effect1_dropShadow_262_20581"/>
<feBlend mode="normal" in="SourceGraphic" in2="effect1_dropShadow_262_20581" result="shape"/>
</filter>
<linearGradient id="paint0_linear_262_20581" x1="638.006" y1="169.497" x2="632.396" y2="169.497" gradientUnits="userSpaceOnUse">
<stop stop-color="#77C6B3"/>
<stop offset="1" stop-color="#B9E0D7"/>
</linearGradient>
<linearGradient id="paint1_linear_262_20581" x1="536.815" y1="111.166" x2="531.227" y2="111.166" gradientUnits="userSpaceOnUse">
<stop stop-color="#77C6B3"/>
<stop offset="1" stop-color="#ADD6CC"/>
</linearGradient>
</defs>
</svg>
