<svg width="100%" height="100%" viewBox="470 220 111 1516" fill="none" xmlns="http://www.w3.org/2000/svg">
<path d="M-28.2463 1296.14L-14.2739 1288.02L109.438 1359.84L95.4571 1367.96L-28.2463 1296.14Z" fill="#FFF6DA"/>
<path d="M95.4571 1367.96L109.438 1359.84L109.436 1504.91L95.4589 1513.02L95.4571 1367.96Z" fill="#FFF6DA"/>
<path d="M-28.2533 1296.14L95.4571 1367.96L95.4589 1513.02L-28.2531 1441.2L-28.2533 1296.14Z" fill="#FFF6DA"/>
<path fill-rule="evenodd" clip-rule="evenodd" d="M-13.6271 1286.94L-27.5363 1295.1L-28.3896 1294.6V1295.6L-29.2251 1296.09L-28.3896 1296.58L-28.3895 1442.35L95.582 1515.02L110.343 1506.37L110.345 1359.61L-13.6271 1286.94ZM95.5801 1367.28L-25.8402 1296.09L-13.6267 1288.93L107.802 1360.1L95.5801 1367.28ZM108.644 1361.6L108.643 1505.38L96.4321 1512.54L96.4304 1368.76L108.644 1361.6ZM94.7302 1368.76L-26.6894 1297.58L-26.6893 1441.36L94.732 1512.54L94.7302 1368.76Z" fill="#0F0F0F"/>
<path d="M-28.2463 1152.74L-14.2739 1144.62L109.438 1216.45L95.4571 1224.57L-28.2463 1152.74Z" fill="#FFF6DA"/>
<path d="M95.4571 1224.57L109.438 1216.45L109.436 1361.52L95.4589 1369.63L95.4571 1224.57Z" fill="#FFF6DA"/>
<path d="M-28.2533 1152.74L95.4571 1224.57L95.4589 1369.63L-28.2531 1297.81L-28.2533 1152.74Z" fill="#FFF6DA"/>
<path fill-rule="evenodd" clip-rule="evenodd" d="M-13.8207 1143.64L-27.7299 1151.8L-28.5833 1151.3V1152.3L-29.4187 1152.79L-28.5833 1153.28L-28.5831 1299.04L95.3883 1371.71L110.149 1363.06L110.151 1216.3L-13.8207 1143.64ZM95.3865 1223.97L-26.0339 1152.79L-13.8203 1145.62L107.608 1216.8L95.3865 1223.97ZM108.451 1218.29L108.449 1362.08L96.2385 1369.23L96.2367 1225.46L108.451 1218.29ZM94.5366 1225.46L-26.8831 1154.28L-26.8829 1298.06L94.5383 1369.23L94.5366 1225.46Z" fill="#0F0F0F"/>
<path d="M-28.2463 1009.35L-14.2739 1001.23L109.438 1073.06L95.4571 1081.18L-28.2463 1009.35Z" fill="#FFF6DA"/>
<path d="M95.4571 1081.18L109.438 1073.06L109.436 1218.13L95.4589 1226.24L95.4571 1081.18Z" fill="#FFF6DA"/>
<path d="M-28.2533 1009.35L95.4571 1081.18L95.4589 1226.24L-28.2531 1154.42L-28.2533 1009.35Z" fill="#FFF6DA"/>
<path fill-rule="evenodd" clip-rule="evenodd" d="M-13.8207 1000.24L-27.7299 1008.4L-28.5833 1007.9V1008.91L-29.4187 1009.4L-28.5833 1009.89L-28.5831 1155.65L95.3883 1228.32L110.149 1219.67L110.151 1072.91L-13.8207 1000.24ZM95.3865 1080.58L-26.0339 1009.39L-13.8203 1002.23L107.608 1073.41L95.3865 1080.58ZM108.451 1074.9L108.449 1218.68L96.2385 1225.84L96.2367 1082.06L108.451 1074.9ZM94.5366 1082.06L-26.8831 1010.89L-26.8829 1154.66L94.5383 1225.84L94.5366 1082.06Z" fill="#0F0F0F"/>
<path d="M-28.2463 865.959L-14.2739 857.84L109.438 929.664L95.4571 937.789L-28.2463 865.959Z" fill="#FFF6DA"/>
<path d="M95.4571 937.789L109.438 929.664L109.436 1074.74L95.4589 1082.85L95.4571 937.789Z" fill="#FFF6DA"/>
<path d="M-28.2533 865.959L95.4571 937.789L95.4589 1082.85L-28.2531 1011.02L-28.2533 865.959Z" fill="#FFF6DA"/>
<path fill-rule="evenodd" clip-rule="evenodd" d="M-13.8207 856.853L-27.7299 865.013L-28.5833 864.513V865.514L-29.4187 866.004L-28.5833 866.494L-28.5831 1012.26L95.3883 1084.93L110.149 1076.28L110.151 929.521L-13.8207 856.853ZM95.3865 937.187L-26.0339 866.004L-13.8203 858.838L107.608 930.016L95.3865 937.187ZM108.451 931.507L108.449 1075.29L96.2385 1082.45L96.2367 938.673L108.451 931.507ZM94.5366 938.673L-26.8831 867.495L-26.8829 1011.27L94.5383 1082.45L94.5366 938.673Z" fill="#0F0F0F"/>
<path d="M-28.2463 722.567L-14.2739 714.448L109.438 786.272L95.4571 794.397L-28.2463 722.567Z" fill="#FFF6DA"/>
<path d="M95.4571 794.397L109.438 786.272L109.436 931.345L95.4589 939.456L95.4571 794.397Z" fill="#FFF6DA"/>
<path d="M-28.2533 722.567L95.4571 794.397L95.4589 939.456L-28.2531 867.631L-28.2533 722.567Z" fill="#FFF6DA"/>
<path fill-rule="evenodd" clip-rule="evenodd" d="M-13.8207 713.46L-27.7299 721.621L-28.5833 721.121V722.122L-29.4187 722.612L-28.5833 723.102L-28.5831 868.869L95.3883 941.538L110.149 932.89L110.151 786.129L-13.8207 713.46ZM95.3865 793.795L-26.0339 722.611L-13.8203 715.446L107.608 786.624L95.3865 793.795ZM108.451 788.115L108.449 931.901L96.2385 939.055L96.2367 795.281L108.451 788.115ZM94.5366 795.281L-26.8831 724.103L-26.8829 867.881L94.5383 939.055L94.5366 795.281Z" fill="#0F0F0F"/>
<path d="M-28.2463 579.176L-14.2739 571.057L109.438 642.881L95.4571 651.005L-28.2463 579.176Z" fill="#FFF6DA"/>
<path d="M95.4571 651.005L109.438 642.881L109.436 787.954L95.4589 796.065L95.4571 651.005Z" fill="#FFF6DA"/>
<path d="M-28.2533 579.176L95.4571 651.005L95.4589 796.065L-28.2531 724.24L-28.2533 579.176Z" fill="#FFF6DA"/>
<path fill-rule="evenodd" clip-rule="evenodd" d="M-13.8207 570.068L-27.7299 578.229L-28.5833 577.729V578.73L-29.4187 579.22L-28.5833 579.71L-28.5831 725.477L95.3883 798.146L110.149 789.498L110.151 642.737L-13.8207 570.068ZM95.3865 650.403L-26.0339 579.219L-13.8203 572.053L107.608 643.232L95.3865 650.403ZM108.451 644.723L108.449 788.509L96.2385 795.663L96.2367 651.889L108.451 644.723ZM94.5366 651.889L-26.8831 580.71L-26.8829 724.489L94.5383 795.663L94.5366 651.889Z" fill="#0F0F0F"/>
<path d="M-28.2463 439.198L-14.2739 431.078L109.438 502.902L95.4571 511.027L-28.2463 439.198Z" fill="#FFF6DA"/>
<path d="M95.4571 511.027L109.438 502.902L109.436 647.975L95.4589 656.086L95.4571 511.027Z" fill="#FFF6DA"/>
<path d="M-28.2533 439.198L95.4571 511.027L95.4589 656.086L-28.2531 584.262L-28.2533 439.198Z" fill="#FFF6DA"/>
<path fill-rule="evenodd" clip-rule="evenodd" d="M-13.8207 430.09L-27.7299 438.251L-28.5833 437.75V438.751L-29.4187 439.241L-28.5833 439.731L-28.5831 585.499L95.3883 658.167L110.149 649.519L110.151 502.759L-13.8207 430.09ZM95.3865 510.424L-26.0339 439.241L-13.8203 432.075L107.608 503.253L95.3865 510.424ZM108.451 504.744L108.449 648.53L96.2385 655.684L96.2367 511.911L108.451 504.744ZM94.5366 511.911L-26.8831 440.732L-26.8829 584.51L94.5383 655.684L94.5366 511.911Z" fill="#0F0F0F"/>
<path d="M-28.2463 295.806L-14.2739 287.687L109.438 359.511L95.4571 367.636L-28.2463 295.806Z" fill="#FFF6DA"/>
<path d="M95.4571 367.636L109.438 359.511L109.436 504.584L95.4589 512.695L95.4571 367.636Z" fill="#FFF6DA"/>
<path d="M-28.2533 295.806L95.4571 367.636L95.4589 512.695L-28.2531 440.87L-28.2533 295.806Z" fill="#FFF6DA"/>
<path fill-rule="evenodd" clip-rule="evenodd" d="M-13.8207 286.699L-27.7299 294.859L-28.5833 294.359V295.36L-29.4187 295.85L-28.5833 296.34L-28.5831 442.107L95.3883 514.776L110.149 506.128L110.151 359.368L-13.8207 286.699ZM95.3865 367.033L-26.0339 295.85L-13.8203 288.684L107.608 359.862L95.3865 367.033ZM108.451 361.353L108.449 505.139L96.2385 512.293L96.2367 368.519L108.451 361.353ZM94.5366 368.52L-26.8831 297.341L-26.8829 441.119L94.5383 512.293L94.5366 368.52Z" fill="#0F0F0F"/>
<path d="M-28.2463 152.414L-14.2739 144.294L109.438 216.118L95.4571 224.243L-28.2463 152.414Z" fill="#FFF6DA"/>
<path d="M95.4571 224.243L109.438 216.118L109.436 361.191L95.4589 369.302L95.4571 224.243Z" fill="#FFF6DA"/>
<path d="M-28.2533 152.414L95.4571 224.243L95.4589 369.302L-28.2531 297.478L-28.2533 152.414Z" fill="#FFF6DA"/>
<path fill-rule="evenodd" clip-rule="evenodd" d="M-13.8207 143.307L-27.7299 151.467L-28.5833 150.967V151.968L-29.4187 152.458L-28.5833 152.948L-28.5831 298.715L95.3883 371.384L110.149 362.736L110.151 215.975L-13.8207 143.307ZM95.3865 223.641L-26.0339 152.458L-13.8203 145.292L107.608 216.47L95.3865 223.641ZM108.451 217.961L108.449 361.747L96.2385 368.901L96.2367 225.127L108.451 217.961ZM94.5366 225.128L-26.8831 153.949L-26.8829 297.727L94.5383 368.901L94.5366 225.128Z" fill="#0F0F0F"/>
<path d="M-28.2463 9.0222L-14.2739 0.902588L109.438 72.7268L95.4571 80.8514L-28.2463 9.0222Z" fill="#FFF6DA"/>
<path d="M95.4571 80.8514L109.438 72.7268L109.436 217.8L95.4589 225.91L95.4571 80.8514Z" fill="#FFF6DA"/>
<path d="M-28.2533 9.02221L95.4571 80.8514L95.4589 225.91L-28.2531 154.086L-28.2533 9.02221Z" fill="#FFF6DA"/>
<path fill-rule="evenodd" clip-rule="evenodd" d="M-14.402 0L-28.3112 8.16076L-29.1645 7.66051V8.66142L-30 9.1516L-29.1645 9.6414L-29.1644 155.409L94.807 228.077L109.568 219.429L109.57 72.6688L-14.402 0ZM94.8052 80.3342L-26.6151 9.15102L-14.4016 1.98512L107.027 73.1633L94.8052 80.3342ZM107.87 74.6544L107.868 218.441L95.6572 225.595L95.6554 81.8207L107.87 74.6544ZM93.9553 81.8209L-27.4644 10.6421L-27.4642 154.42L93.957 225.594L93.9553 81.8209Z" fill="#0F0F0F"/>
</svg>
