<svg width="100%" height="100%" viewBox="-140 200 1114 1031" fill="none" xmlns="http://www.w3.org/2000/svg">
<path d="M974.902 751.332L988.895 743.298L1112.79 814.361L1098.79 822.399L974.902 751.332Z" fill="#FFF6DA"/>
<path d="M1098.79 822.399L1112.79 814.361L1112.79 957.895L1098.79 965.92L1098.79 822.399Z" fill="#FFF6DA"/>
<path d="M974.895 751.332L1098.79 822.399L1098.79 965.92L974.895 894.857L974.895 751.332Z" fill="#FFF6DA"/>
<path fill-rule="evenodd" clip-rule="evenodd" d="M988.897 742.446L974.9 750.482L974.155 750.054V750.91L973.412 751.336L974.155 751.762L974.155 895.291L1098.8 966.779L1113.54 958.329L1113.54 813.935L988.897 742.446ZM1098.79 821.547L976.396 751.336L988.898 744.158L1111.3 814.365L1098.79 821.547ZM1112.05 815.647L1112.05 957.468L1099.54 964.642L1099.54 822.833L1112.05 815.647ZM1098.05 822.833L1098.05 964.642L975.64 894.431L975.639 752.618L1098.05 822.833Z" fill="#0F0F0F"/>
<path d="M1112.74 798.003L1112.7 814.138L989.206 885.907L989.246 869.762L1112.74 798.003Z" fill="#FFF6DA"/>
<path d="M989.246 869.762L989.206 885.907L864.903 814.138L864.953 798.003L989.246 869.762Z" fill="#FFF6DA"/>
<path d="M1112.74 798.003L989.246 869.762L864.953 798.003L988.444 726.234L1112.74 798.003Z" fill="#FFF6DA"/>
<path fill-rule="evenodd" clip-rule="evenodd" d="M988.445 725.376L1113.48 797.575L1113.44 814.566L989.209 886.765L864.161 814.566L864.213 797.575L988.445 725.376ZM988.447 727.092L866.436 798L989.246 868.903L1111.26 798.005L988.447 727.092ZM1111.99 799.294L989.989 870.189L989.954 884.615L1111.96 813.71L1111.99 799.294ZM988.469 884.623L988.504 870.189L865.693 799.286L865.649 813.71L988.469 884.623Z" fill="#0F0F0F"/>
<path d="M989.829 869.699L989.79 885.834L866.299 957.603L866.338 941.457L989.829 869.699Z" fill="#FFF6DA"/>
<path d="M866.338 941.457L866.299 957.603L741.996 885.834L742.045 869.699L866.338 941.457Z" fill="#FFF6DA"/>
<path d="M989.829 869.699L866.338 941.457L742.045 869.699L865.536 797.93L989.829 869.699Z" fill="#FFF6DA"/>
<path fill-rule="evenodd" clip-rule="evenodd" d="M865.537 797.073L990.575 869.271L990.533 886.263L866.302 958.461L741.254 886.263L741.306 869.271L865.537 797.073ZM865.54 798.789L743.528 869.697L866.339 940.6L988.35 869.701L865.54 798.789ZM989.086 870.991L867.082 941.886L867.046 956.311L989.05 885.407L989.086 870.991ZM865.561 956.319L865.597 941.886L742.786 870.983L742.741 885.407L865.561 956.319Z" fill="#0F0F0F"/>
<path d="M494.714 870.754L494.674 886.9L370.371 815.131L370.421 798.996L494.714 870.754Z" fill="#FFF6DA"/>
<path d="M619.443 942.028L619.403 958.173L495.1 886.405L495.149 870.269L619.443 942.028Z" fill="#FFF6DA"/>
<path d="M866.672 941.543L866.633 957.678L743.142 1029.45L743.181 1013.3L866.672 941.543Z" fill="#FFF6DA"/>
<path d="M743.181 1013.3L743.142 1029.45L618.839 957.678L618.888 941.543L743.181 1013.3Z" fill="#FFF6DA"/>
<path fill-rule="evenodd" clip-rule="evenodd" d="M493.911 726.368L618.576 798.351L617.834 799.637L493.913 728.084L371.902 798.992L494.408 869.719L494.411 868.984L618.149 940.423L618.149 940.258L743.18 1012.44L865.191 941.543L742.638 870.78L742.562 870.911L618.269 799.142L619.012 797.856L742.675 869.261L742.75 869.13L867.416 941.113L867.374 958.105L743.143 1030.3L620.142 959.287L620.142 959.456L495.415 887.443L495.413 888.182L369.627 815.558L369.679 798.566L493.911 726.368ZM493.97 871.181L371.159 800.278L371.115 814.702L493.935 885.614L493.97 871.181ZM495.843 885.976L618.099 956.562L618.144 942.134L495.888 871.551L495.843 885.976ZM620.147 957.575L742.402 1028.16L742.438 1013.73L620.182 943.146L620.147 957.575ZM743.922 1013.73L743.887 1028.15L865.891 957.249L865.927 942.833L743.922 1013.73Z" fill="#0F0F0F"/>
<path d="M865.823 941.045L742.579 1012.81L372.353 798.498L494.606 727.719L865.823 941.045Z" fill="#FFF6DA"/>
<path d="M371.718 798.001L371.679 814.137L248.187 885.906L248.227 869.76L371.718 798.001Z" fill="#FFF6DA"/>
<path d="M248.227 869.76L248.187 885.906L123.884 814.137L123.934 798.001L248.227 869.76Z" fill="#FFF6DA"/>
<path d="M371.718 798.001L248.227 869.76L123.934 798.001L247.425 726.233L371.718 798.001Z" fill="#FFF6DA"/>
<path fill-rule="evenodd" clip-rule="evenodd" d="M247.422 725.379L372.46 797.578L372.418 814.569L248.187 886.768L123.139 814.569L123.191 797.578L247.422 725.379ZM247.424 727.095L125.413 798.004L248.224 868.907L370.235 798.008L247.424 727.095ZM370.971 799.298L248.966 870.192L248.931 884.618L370.935 813.714L370.971 799.298ZM247.446 884.626L247.481 870.193L124.67 799.29L124.626 813.714L247.446 884.626Z" fill="#0F0F0F"/>
<path d="M495.46 870.267L495.421 886.403L371.929 958.171L371.969 942.026L495.46 870.267Z" fill="#FFF6DA"/>
<path d="M371.969 942.026L371.929 958.171L247.626 886.403L247.676 870.267L371.969 942.026Z" fill="#FFF6DA"/>
<path d="M495.46 870.267L371.969 942.026L247.676 870.267L371.167 798.499L495.46 870.267Z" fill="#FFF6DA"/>
<path fill-rule="evenodd" clip-rule="evenodd" d="M371.161 797.637L496.198 869.836L496.157 886.827L371.925 959.026L246.877 886.827L246.93 869.836L371.161 797.637ZM371.163 799.353L249.152 870.262L371.963 941.164L493.974 870.266L371.163 799.353ZM494.709 871.556L372.705 942.45L372.67 956.876L494.674 885.971L494.709 871.556ZM371.185 956.884L371.22 942.45L248.409 871.547L248.365 885.971L371.185 956.884Z" fill="#0F0F0F"/>
<path d="M248.972 870.267L248.932 886.403L125.441 958.171L125.481 942.026L248.972 870.267Z" fill="#FFF6DA"/>
<path d="M125.481 942.026L125.441 958.171L1.13797 886.403L1.18747 870.267L125.481 942.026Z" fill="#FFF6DA"/>
<path d="M248.972 870.267L125.481 942.026L1.18747 870.267L124.679 798.499L248.972 870.267Z" fill="#FFF6DA"/>
<path fill-rule="evenodd" clip-rule="evenodd" d="M124.677 797.637L249.715 869.836L249.673 886.827L125.442 959.026L0.393814 886.827L0.445935 869.836L124.677 797.637ZM124.68 799.353L2.66827 870.262L125.479 941.164L247.49 870.266L124.68 799.353ZM248.226 871.556L126.222 942.45L126.186 956.876L248.19 885.971L248.226 871.556ZM124.701 956.884L124.737 942.45L1.92556 871.547L1.88131 885.971L124.701 956.884Z" fill="#0F0F0F"/>
<path d="M1.88525 727.21L15.8788 719.177L139.778 790.239L125.776 798.278L1.88525 727.21Z" fill="#FFF6DA"/>
<path d="M125.776 798.278L139.778 790.239L139.776 933.773L125.777 941.798L125.776 798.278Z" fill="#FFF6DA"/>
<path d="M1.87833 727.21L125.776 798.278L125.777 941.798L1.87848 870.736L1.87833 727.21Z" fill="#FFF6DA"/>
<path fill-rule="evenodd" clip-rule="evenodd" d="M15.8803 718.318L1.88329 726.353L1.13754 725.926V726.781L0.395248 727.208L1.13754 727.633L1.1377 871.163L125.779 942.651L140.52 934.2L140.522 789.806L15.8803 718.318ZM125.777 797.419L3.37854 727.207L15.8806 720.03L138.288 790.237L125.777 797.419ZM139.037 791.519L139.035 933.34L126.521 940.514L126.52 798.705L139.037 791.519ZM125.035 798.705L125.037 940.513L2.62256 870.303L2.62241 728.489L125.035 798.705Z" fill="#0F0F0F"/>
<path d="M1.88525 583.663L15.8788 575.63L139.778 646.692L125.776 654.731L1.88525 583.663Z" fill="#FFF6DA"/>
<path d="M125.776 654.731L139.778 646.692L139.776 790.226L125.777 798.251L125.776 654.731Z" fill="#FFF6DA"/>
<path d="M1.87833 583.663L125.776 654.731L125.777 798.251L1.87848 727.189L1.87833 583.663Z" fill="#FFF6DA"/>
<path fill-rule="evenodd" clip-rule="evenodd" d="M15.8803 574.78L1.88329 582.815L1.13754 582.388V583.243L0.395248 583.67L1.13754 584.095L1.1377 727.625L125.779 799.113L140.52 790.662L140.522 646.268L15.8803 574.78ZM125.777 653.881L3.37854 583.669L15.8806 576.492L138.288 646.698L125.777 653.881ZM139.037 647.98L139.035 789.802L126.521 796.976L126.52 655.166L139.037 647.98ZM125.035 655.167L125.037 796.975L2.62256 726.765L2.62241 584.951L125.035 655.167Z" fill="#0F0F0F"/>
<path d="M1.88519 440.129L15.8788 432.096L139.778 503.158L125.776 511.197L1.88519 440.129Z" fill="#FFF6DA"/>
<path d="M125.776 511.197L139.778 503.158L139.776 646.692L125.777 654.717L125.776 511.197Z" fill="#FFF6DA"/>
<path d="M1.87827 440.129L125.776 511.197L125.777 654.717L1.87842 583.655L1.87827 440.129Z" fill="#FFF6DA"/>
<path fill-rule="evenodd" clip-rule="evenodd" d="M15.8803 431.243L1.88329 439.279L1.13754 438.851V439.707L0.395248 440.133L1.13754 440.559L1.1377 584.088L125.779 655.576L140.52 647.126L140.522 502.732L15.8803 431.243ZM125.777 510.344L3.37854 440.132L15.8806 432.955L138.288 503.162L125.777 510.344ZM139.037 504.444L139.035 646.265L126.521 653.439L126.52 511.63L139.037 504.444ZM125.035 511.63L125.037 653.439L2.62256 583.228L2.62241 441.414L125.035 511.63Z" fill="#0F0F0F"/>
<path d="M1.88525 296.599L15.8788 288.565L139.778 359.628L125.776 367.666L1.88525 296.599Z" fill="#FFF6DA"/>
<path d="M125.776 367.666L139.778 359.628L139.776 503.162L125.777 511.186L125.776 367.666Z" fill="#FFF6DA"/>
<path d="M1.87833 296.599L125.776 367.666L125.777 511.186L1.87848 440.124L1.87833 296.599Z" fill="#FFF6DA"/>
<path fill-rule="evenodd" clip-rule="evenodd" d="M15.8803 287.709L1.88329 295.744L1.13754 295.316V296.172L0.395248 296.598L1.13754 297.024L1.1377 440.554L125.779 512.042L140.52 503.591L140.522 359.197L15.8803 287.709ZM125.777 366.81L3.37854 296.598L15.8806 289.421L138.288 359.627L125.777 366.81ZM139.037 360.909L139.035 502.731L126.521 509.905L126.52 368.095L139.037 360.909ZM125.035 368.096L125.037 509.904L2.62256 439.694L2.62241 297.88L125.035 368.096Z" fill="#0F0F0F"/>
<path d="M1.88525 153.054L15.8788 145.021L139.778 216.083L125.776 224.122L1.88525 153.054Z" fill="#FFF6DA"/>
<path d="M125.776 224.122L139.778 216.083L139.776 359.617L125.777 367.642L125.776 224.122Z" fill="#FFF6DA"/>
<path d="M1.87833 153.054L125.776 224.122L125.777 367.642L1.87848 296.58L1.87833 153.054Z" fill="#FFF6DA"/>
<path fill-rule="evenodd" clip-rule="evenodd" d="M15.8803 144.167L1.88329 152.202L1.13754 151.775V152.631L0.395248 153.057L1.13754 153.483L1.1377 297.012L125.779 368.5L140.52 360.05L140.522 215.655L15.8803 144.167ZM125.777 223.268L3.37854 153.056L15.8806 145.879L138.288 216.086L125.777 223.268ZM139.037 217.368L139.035 359.189L126.521 366.363L126.52 224.554L139.037 217.368ZM125.035 224.554L125.037 366.363L2.62256 296.152L2.62241 154.338L125.035 224.554Z" fill="#0F0F0F"/>
<path d="M1.88196 9.52031L15.8755 1.48682L139.774 72.5492L125.772 80.5877L1.88196 9.52031Z" fill="#FFF6DA"/>
<path d="M125.772 80.5877L139.774 72.5492L139.773 216.083L125.774 224.108L125.772 80.5877Z" fill="#FFF6DA"/>
<path d="M1.87503 9.52031L125.772 80.5877L125.774 224.108L1.87518 153.046L1.87503 9.52031Z" fill="#FFF6DA"/>
<path fill-rule="evenodd" clip-rule="evenodd" d="M15.8754 0.629395L1.87834 8.66487L1.1326 8.23711V9.09298L0.390305 9.51912L1.1326 9.94492L1.13275 153.474L125.774 224.962L140.515 216.512L140.517 72.1177L15.8754 0.629395ZM125.772 79.7302L3.3736 9.51861L15.8757 2.34135L138.283 72.5481L125.772 79.7302ZM139.032 73.8301L139.03 215.652L126.517 222.825L126.515 81.0161L139.032 73.8301ZM125.03 81.0163L125.032 222.825L2.61761 152.614L2.61746 10.8006L125.03 81.0163Z" fill="#0F0F0F"/>
<path fill-rule="evenodd" clip-rule="evenodd" d="M944.207 769.584C956.507 762.875 972.389 759.419 988.418 759.33C988.48 760.254 988.721 761.171 989.138 762.053C990.021 763.916 991.627 765.484 993.725 766.689C996.94 768.552 1001.01 769.415 1004.96 769.415C1008.91 769.415 1012.99 768.551 1016.22 766.691L1016.23 766.689C1017.63 765.877 1018.83 764.903 1019.74 763.779C1025.2 765.471 1030.28 767.638 1034.83 770.269C1047.36 777.52 1053.04 786.68 1052.99 795.356C1052.94 804.039 1047.13 813.212 1034.52 820.469C1021.92 827.717 1005.29 831.407 988.554 831.407C971.819 831.407 955.233 827.717 942.715 820.472L942.715 820.472C930.199 813.234 924.509 804.074 924.558 795.397C924.608 786.713 930.41 777.541 943.024 770.298L944.207 769.618V769.584ZM1018.72 761.013C1024.98 762.817 1030.81 765.221 1036.01 768.227C1061.93 783.23 1061.77 807.511 1035.69 822.513C1009.61 837.516 967.457 837.516 941.534 822.513C915.638 807.537 915.769 783.23 941.85 768.253V768.201C954.798 760.774 971.711 757.03 988.649 756.971C989.473 756.968 990.297 756.974 991.121 756.988C990.817 757.76 990.705 758.553 990.785 759.341C990.983 761.276 992.346 763.179 994.903 764.646C1000.44 767.861 1009.45 767.861 1015.05 764.646C1016.86 763.601 1018.09 762.346 1018.72 761.013Z" fill="#0F0F0F"/>
<path d="M989.067 831.535C989.062 829.73 991.586 828.261 994.705 828.252C997.824 828.243 1000.36 829.699 1000.36 831.503C1000.37 833.308 997.842 834.778 994.723 834.786C991.605 834.795 989.072 833.339 989.067 831.535Z" fill="#41B383"/>
<path d="M992.803 753.613C990.481 754.928 988.964 756.548 988.282 758.26C987.013 761.379 988.499 764.772 992.741 767.218C999.275 770.948 1009.9 770.948 1016.49 767.218C1018.63 765.995 1020.08 764.528 1020.83 762.968C1022.37 759.758 1020.95 756.151 1016.55 753.644C1010.02 749.883 999.367 749.883 992.803 753.644V753.613Z" fill="#FFBABA"/>
<path d="M976.096 843.746C972.945 845.549 972.945 848.503 976.096 850.306C979.248 852.109 984.317 852.136 987.469 850.306C990.621 848.476 990.647 845.549 987.495 843.746C984.343 841.942 979.274 841.916 976.096 843.746Z" fill="#3658D3"/>
<path d="M967.84 756.51C964.688 758.313 964.688 761.267 967.84 763.07C970.991 764.874 976.06 764.9 979.212 763.07C982.364 761.241 982.39 758.313 979.238 756.51C976.087 754.706 971.018 754.68 967.84 756.51Z" fill="#41B383"/>
<mask id="mask0_262_20425" style="mask-type:luminance" maskUnits="userSpaceOnUse" x="465" y="770" width="285" height="165">
<path d="M465.653 784.517L489.282 770.787L749.787 921.194L726.158 934.924L465.653 784.517Z" fill="white"/>
</mask>
<g mask="url(#mask0_262_20425)">
<path d="M499.801 778.794L487.605 771.756L465.936 784.348L478.132 791.386L481.379 789.495L472.905 784.605L478.874 781.13L486.378 785.466L489.585 783.595L482.092 779.269L488.09 775.785L496.564 780.675L499.801 778.794Z" fill="#0F0F0F"/>
<path d="M507.5 790.3C506.51 789.726 505.431 789.32 504.263 789.063C503.085 788.815 501.917 788.736 500.729 788.825L502.541 787.776L499.017 785.747L483.723 794.636L487.247 796.665L496.027 791.557C497.373 790.785 498.7 790.409 500.016 790.419C501.323 790.429 502.521 790.746 503.58 791.359C504.471 791.874 504.926 792.438 504.976 793.072C505.025 793.705 504.501 794.329 503.412 794.963L493.889 800.496L497.443 802.545L507.728 796.566C509.411 795.586 510.222 794.547 510.163 793.448C510.114 792.349 509.223 791.3 507.49 790.3" fill="#0F0F0F"/>
<path d="M528.062 797.19L525.241 795.557C523.924 796.319 522.835 796.834 521.984 797.081C521.143 797.329 520.331 797.368 519.579 797.21C518.826 797.042 517.906 796.646 516.837 796.032L514.094 797.626L517.163 799.397L509.086 804.09C507.67 804.911 506.957 805.782 506.947 806.683C506.947 807.584 507.64 808.435 509.026 809.237L511.531 810.682L514.233 809.109L512.847 808.307C512.243 807.96 511.946 807.584 511.956 807.168C511.956 806.753 512.313 806.347 513.015 805.941L520.737 801.457L524.083 803.387L526.825 801.793L523.479 799.863L528.072 797.2" fill="#0F0F0F"/>
<path d="M528.689 809.277C530.025 808.802 531.332 808.614 532.599 808.723C533.866 808.832 535.044 809.198 536.133 809.832C537.162 810.426 537.746 811.079 537.875 811.782C538.004 812.494 537.608 813.197 536.707 813.91L528.689 809.277ZM538.716 808.307C537.192 807.426 535.529 806.832 533.707 806.515C531.886 806.199 530.055 806.199 528.194 806.515C526.333 806.822 524.58 807.456 522.927 808.406C521.274 809.356 520.205 810.376 519.671 811.455C519.136 812.534 519.146 813.593 519.71 814.652C520.274 815.712 521.343 816.692 522.927 817.602C524.511 818.513 526.422 819.147 528.491 819.384C530.56 819.622 532.589 819.473 534.588 818.929L531.926 816.761C530.807 817.008 529.708 817.058 528.629 816.909C527.55 816.771 526.58 816.444 525.729 815.949C524.917 815.484 524.353 814.969 524.046 814.395C523.719 813.821 523.69 813.227 523.957 812.603C524.224 811.97 524.828 811.366 525.768 810.772L537.469 817.533L538.39 817.048C540.082 816.058 541.191 815.058 541.706 814.019C542.221 812.989 542.221 811.99 541.686 811.02C541.142 810.049 540.162 809.158 538.707 808.317" fill="#0F0F0F"/>
<path d="M559.417 820.422C558.694 820.006 557.882 819.669 556.981 819.432C556.081 819.194 555.18 819.046 554.259 818.996C553.348 818.947 552.517 818.996 551.774 819.135L554.309 817.66L550.913 815.7L535.619 824.589L539.153 826.628L546.954 822.095C548.557 821.164 550.101 820.719 551.576 820.778C553.051 820.837 554.596 821.332 556.219 822.273L559.407 820.422" fill="#0F0F0F"/>
<path d="M582.076 828.372L579.245 826.738C577.929 827.501 576.85 828.015 575.998 828.263C575.157 828.51 574.345 828.55 573.593 828.391C572.841 828.223 571.92 827.827 570.851 827.213L568.109 828.807L571.177 830.579L563.1 835.271C561.684 836.093 560.972 836.964 560.962 837.865C560.962 838.766 561.655 839.617 563.04 840.419L565.545 841.864L568.247 840.29L566.861 839.488C566.258 839.142 565.961 838.766 565.971 838.35C565.971 837.934 566.327 837.528 567.03 837.122L574.751 832.638L578.097 834.568L580.839 832.975L577.493 831.044L582.086 828.382" fill="#0F0F0F"/>
<path d="M597.38 833.204L593.856 831.175L570.514 844.737L574.038 846.766L582.818 841.658C584.185 840.876 585.531 840.49 586.838 840.52C588.154 840.549 589.322 840.846 590.332 841.43C591.253 841.955 591.718 842.539 591.747 843.182C591.787 843.826 591.203 844.479 590.045 845.152L580.68 850.597L584.234 852.646L594.202 846.855C596.024 845.796 596.935 844.707 596.935 843.598C596.935 842.489 596.093 841.45 594.43 840.49C593.391 839.886 592.262 839.46 591.055 839.213C589.847 838.965 588.629 838.886 587.402 838.995L597.37 833.204" fill="#0F0F0F"/>
<path d="M602.494 851.891C603.83 851.406 605.127 851.228 606.404 851.337C607.671 851.446 608.849 851.812 609.938 852.446C610.967 853.04 611.551 853.693 611.68 854.396C611.799 855.109 611.413 855.811 610.512 856.524L602.494 851.901M612.521 850.931C611.007 850.06 609.334 849.456 607.522 849.139C605.711 848.823 603.86 848.823 602.009 849.139C600.148 849.446 598.395 850.08 596.742 851.03C595.089 851.98 594.01 853 593.485 854.069C592.951 855.148 592.971 856.217 593.535 857.267C594.099 858.326 595.168 859.306 596.752 860.217C598.336 861.127 600.247 861.761 602.315 861.998C604.384 862.236 606.414 862.087 608.413 861.543L605.75 859.375C604.632 859.623 603.533 859.672 602.454 859.524C601.365 859.375 600.405 859.058 599.544 858.563C598.742 858.098 598.168 857.583 597.861 857.009C597.544 856.435 597.514 855.841 597.772 855.217C598.049 854.594 598.643 853.98 599.593 853.386L611.294 860.137L612.224 859.652C613.917 858.662 615.026 857.663 615.541 856.623C616.055 855.584 616.046 854.584 615.521 853.624C614.986 852.664 613.996 851.763 612.541 850.921" fill="#0F0F0F"/>
<path d="M631.549 870.781L645.417 866.95L638.864 874.998L631.549 870.781ZM651.159 866.187L646.724 863.624L617.007 871.573L620.788 873.75L627.332 871.949L636.845 877.443L633.756 881.244L637.528 883.422L651.149 866.187" fill="#0F0F0F"/>
<path d="M657.704 882.116L665.118 877.809L669.553 880.373C670.345 880.829 670.87 881.314 671.117 881.819C671.355 882.323 671.345 882.818 671.078 883.313C670.801 883.808 670.296 884.254 669.583 884.67C668.445 885.333 667.227 885.669 665.92 885.689C664.604 885.709 663.346 885.372 662.149 884.679L657.714 882.116M672.592 878.562L664.524 873.909L642.855 886.501L646.528 888.619L655.021 883.68L657.635 885.194L654.497 893.222L658.842 895.727L661.555 887.313C662.822 887.817 664.158 888.134 665.564 888.243C666.979 888.362 668.346 888.283 669.682 888.006C671.018 887.738 672.206 887.293 673.265 886.679C674.572 885.917 675.463 885.105 675.948 884.224C676.433 883.353 676.413 882.422 675.889 881.462C675.364 880.492 674.265 879.532 672.592 878.562Z" fill="#0F0F0F"/>
<path d="M698.555 893.547L686.369 886.508L664.7 899.1L676.886 906.148L680.143 904.257L671.669 899.357L677.638 895.893L685.132 900.219L688.339 898.358L680.846 894.022L686.844 890.537L695.328 895.427L698.555 893.547Z" fill="#0F0F0F"/>
<path d="M722.261 907.24L718.618 905.131L702.364 914.585L708.818 899.479L704.74 897.123L683.07 909.715L686.713 911.823L703.086 902.31L696.494 917.466L700.582 919.832L722.261 907.24Z" fill="#0F0F0F"/>
<path d="M720.459 922.115L734.328 918.284L727.775 926.332L720.459 922.115ZM740.069 917.522L735.635 914.958L705.917 922.907L709.699 925.085L716.242 923.283L725.755 928.777L722.667 932.569L726.448 934.746L740.069 917.512" fill="#0F0F0F"/>
</g>
<path d="M1015.36 778.755C1011.32 776.417 1007.1 774.809 1002.7 773.929C998.298 773.049 993.874 772.949 989.451 773.678C985.002 774.407 980.754 775.94 976.657 778.327L990.154 787.024C991.612 786.169 993.045 785.491 994.352 784.988C995.684 784.485 997.142 784.259 998.725 784.284C1000.33 784.309 1001.94 784.812 1003.6 785.767C1005.46 786.848 1006.52 787.929 1006.82 788.984C1007.12 790.065 1006.42 791.096 1004.71 792.076C1003 793.056 1001.11 793.634 999.127 793.71C997.117 793.785 995.332 793.358 993.774 792.453L992.19 791.548L981.533 797.731L983.343 798.787C985.429 799.993 986.485 801.175 986.485 802.406C986.485 803.613 985.404 804.895 983.167 806.176C981.232 807.307 979.095 807.86 976.783 807.911C974.471 807.961 972.058 807.282 969.595 805.85C967.433 804.593 966.227 803.487 965.975 802.507C965.724 801.527 966.151 800.597 967.232 799.717C968.288 798.837 970.173 797.606 972.862 796.022L957.681 787.954C952.704 790.844 949.387 793.634 947.677 796.299C945.968 798.963 945.918 801.652 947.476 804.367C949.06 807.081 952.403 809.896 957.505 812.862C961.903 815.401 966.453 817.185 971.153 818.191C975.853 819.221 980.402 819.422 984.851 818.869C989.275 818.291 993.271 816.959 996.865 814.848C999.555 813.289 1001.39 811.681 1002.32 810.047C1003.27 808.413 1003.58 806.905 1003.22 805.473C1002.9 804.04 1002.14 802.758 1001.01 801.652C1002.39 801.929 1004.13 802.079 1006.19 802.079C1008.23 802.079 1010.41 801.828 1012.7 801.325C1014.96 800.848 1017.1 800.044 1019.06 798.887C1021.95 797.203 1023.76 795.218 1024.49 792.88C1025.24 790.568 1024.84 788.155 1023.26 785.642C1021.7 783.153 1019.06 780.816 1015.34 778.654" fill="#0F0F0F"/>
<g clip-path="url(#clip0_262_20425)">
<mask id="mask1_262_20425" style="mask-type:luminance" maskUnits="userSpaceOnUse" x="735" y="932" width="57" height="33">
<path d="M735.897 944.866L757.814 932.135L791.035 951.32L769.119 964.05L735.897 944.866Z" fill="white"/>
</mask>
<g mask="url(#mask1_262_20425)">
<path d="M778.216 943.915L774.276 944.093L775.533 953.448L748.251 937.688L745.45 939.312L772.742 955.071L756.596 954.368L756.309 956.655L777.038 957.556L780.077 957.685L779.839 955.933L778.216 943.915Z" fill="#0F0F0F"/>
</g>
</g>
<g clip-path="url(#clip1_262_20425)">
<mask id="mask2_262_20425" style="mask-type:luminance" maskUnits="userSpaceOnUse" x="16" y="182" width="99" height="120">
<path d="M16.2322 244.903L16.409 182.773L114.233 239.432L114.057 301.562L16.2322 244.903Z" fill="white"/>
</mask>
<g mask="url(#mask2_262_20425)">
<path d="M24.728 187.585C23.3015 186.762 22.0138 186.23 20.8524 185.99C19.7036 185.762 18.7947 185.863 18.1256 186.319C17.4565 186.762 17.1157 187.573 17.1157 188.738C17.1157 189.84 17.4187 190.916 18.0372 191.98C18.6558 193.044 19.4259 194.019 20.3222 194.918C21.2311 195.817 22.4052 196.868 23.8191 198.059C25.0815 199.122 26.0662 199.971 26.7605 200.604C27.4548 201.237 28.0355 201.908 28.5026 202.592C28.9824 203.289 29.2222 203.947 29.2096 204.593C29.2096 205.48 28.8435 205.923 28.1365 205.948C27.417 205.948 26.508 205.657 25.3971 205.011C24.0716 204.251 22.9606 203.301 22.0643 202.187C21.168 201.073 20.6252 199.933 20.4484 198.742L16.3708 197.223C16.5981 198.502 17.1283 199.794 17.9362 201.073C18.7442 202.352 19.7794 203.593 21.0418 204.745C22.3042 205.898 23.7055 206.936 25.2582 207.823C26.811 208.709 28.086 209.254 29.298 209.545C30.5225 209.836 31.5072 209.773 32.2268 209.33C32.959 208.899 33.325 208.038 33.3377 206.746C33.3377 205.543 32.9968 204.365 32.3025 203.213C31.6082 202.06 30.7624 201.009 29.7777 200.034C28.793 199.072 27.5306 197.957 26.0283 196.691C24.8669 195.728 23.9832 194.981 23.3646 194.399C22.746 193.829 22.2158 193.259 21.7992 192.664C21.37 192.081 21.168 191.511 21.168 190.979C21.168 190.118 21.5341 189.675 22.2537 189.662C22.9859 189.662 23.8696 189.954 24.9679 190.587C26.1167 191.258 27.0761 192.056 27.8462 192.98C28.6163 193.917 29.1212 194.931 29.3485 196.032L33.1862 197.413C32.9085 196.121 32.3656 194.855 31.5324 193.639C30.7119 192.423 29.7019 191.296 28.5405 190.27C27.3665 189.244 26.104 188.345 24.7533 187.56" fill="#0F0F0F"/>
<path d="M51.807 203.529L37.1504 195.032L37.1378 198.147L42.503 201.25L42.4525 217.536L46.4039 219.828L46.4544 203.542L51.7944 206.645L51.807 203.529Z" fill="#0F0F0F"/>
<path d="M60.1137 220.563L63.6737 213.775L67.1832 224.666L60.1011 220.563M66.0975 211.799L61.2625 209L53.1325 223.716L57.1975 226.071L58.9018 222.842L68.3699 228.326L70.0362 233.505L74.1265 235.873L66.0849 211.799" fill="#0F0F0F"/>
<path d="M83.544 230.795V224.881L87.811 227.338C88.9724 228.009 89.8687 228.794 90.4873 229.706C91.1059 230.618 91.4089 231.492 91.4089 232.378C91.4089 233.265 91.0933 233.847 90.4747 234.012C89.8561 234.189 88.9598 233.923 87.7857 233.252L83.544 230.795ZM87.7352 224.337L79.5927 219.613L79.5422 239.002L83.5188 241.306L83.544 233.759L85.8038 235.063L91.2069 245.764L95.9283 248.5L89.9192 237.33C91.0049 237.786 91.9517 237.976 92.7723 237.912C93.5928 237.849 94.2114 237.533 94.6533 236.975C95.0951 236.431 95.2971 235.671 95.3097 234.734C95.3097 233.543 95.0572 232.366 94.5396 231.162C94.0221 229.959 93.2015 228.782 92.0653 227.617C90.9418 226.451 89.5152 225.362 87.7605 224.349" fill="#0F0F0F"/>
<path d="M114.233 239.685L99.5767 231.188L99.5641 234.303L104.917 237.406L104.879 253.679L108.83 255.971L108.881 239.698L114.221 242.801L114.233 239.685Z" fill="#0F0F0F"/>
<path d="M27.9222 214.813C26.6093 214.053 25.3595 213.623 24.1854 213.559C23.0114 213.496 22.0014 213.8 21.1556 214.484C20.3098 215.18 19.7417 216.244 19.4135 217.713C19.1105 219.106 19.1484 220.398 19.5271 221.601C19.9058 222.804 20.4613 223.881 21.1935 224.843C21.9383 225.806 22.8978 226.882 24.1097 228.098C25.1953 229.187 26.0159 230.061 26.5966 230.719C27.1773 231.391 27.6318 232.112 27.9474 232.885C28.2756 233.657 28.3514 234.443 28.1746 235.253C27.9348 236.355 27.4172 236.988 26.6471 237.153C25.8771 237.305 24.9681 237.089 23.9582 236.507C22.7336 235.798 21.7868 234.835 21.1304 233.619C20.4613 232.391 20.1962 231.061 20.3224 229.605L16.308 228.465C16.2196 230.035 16.4342 231.542 16.9518 233.012C17.4694 234.468 18.2647 235.81 19.2999 237.013C20.3477 238.229 21.5722 239.23 23.0114 240.065C24.3622 240.851 25.6624 241.319 26.9122 241.458C28.1494 241.598 29.2224 241.319 30.1314 240.635C31.0403 239.951 31.6841 238.799 32.025 237.178C32.3532 235.671 32.2901 234.265 31.8609 232.961C31.419 231.656 30.7878 230.479 29.9925 229.466C29.1846 228.44 28.1368 227.287 26.8491 225.983C25.8644 225.008 25.1196 224.223 24.5894 223.627C24.0718 223.045 23.6678 222.412 23.3649 221.753C23.0619 221.095 22.9861 220.436 23.1376 219.765C23.3775 218.688 23.8824 218.068 24.6651 217.916C25.4478 217.764 26.3315 217.967 27.3414 218.549C28.4019 219.17 29.2224 219.98 29.8032 220.993C30.3839 222.006 30.649 223.197 30.5985 224.539L34.3605 225.527C34.411 223.957 34.1711 222.488 33.603 221.12C33.0476 219.752 32.2649 218.536 31.2802 217.473C30.2955 216.409 29.1719 215.51 27.9348 214.801" fill="#0F0F0F"/>
<path d="M45.0531 227.249L42.2379 225.616C41.9097 227.097 41.5688 228.136 41.2027 228.744C40.8493 229.364 40.3822 229.656 39.8393 229.63C39.2839 229.605 38.5138 229.301 37.5039 228.718L36.7843 231.986L39.6373 233.632L37.7185 242.396C37.365 244.017 37.4534 245.486 37.9962 246.815C38.539 248.145 39.4606 249.184 40.7861 249.943L43.2226 251.362L43.9295 248.107L42.6293 247.36C42.0738 247.043 41.6824 246.6 41.4552 246.018C41.228 245.448 41.2027 244.777 41.3668 243.991L43.1847 235.696L46.2524 237.469L46.9593 234.202L43.8917 232.429L45.0278 227.224" fill="#0F0F0F"/>
<path d="M59.5456 241.269C58.8765 240.876 58.1948 240.635 57.5257 240.559C56.844 240.471 56.2254 240.521 55.6574 240.699C55.0893 240.876 54.6222 241.18 54.2687 241.573L54.8873 238.786L51.4914 236.823L47.742 253.983L51.2894 256.035L53.183 247.411C53.4481 246.195 53.8269 245.321 54.3066 244.789C54.7863 244.257 55.4049 244.029 56.1118 244.105C56.8188 244.169 57.6898 244.485 58.7124 245.08L59.5582 241.256" fill="#0F0F0F"/>
<path d="M66.8171 261.594C66.0218 261.138 65.3779 260.493 64.8477 259.682C64.3301 258.859 63.9766 257.934 63.8125 256.883C63.6484 255.845 63.6863 254.768 63.9261 253.679C64.166 252.603 64.5574 251.729 65.0876 251.096C65.6178 250.463 66.249 250.095 66.9812 249.994C67.7008 249.893 68.4456 250.07 69.2283 250.526C70.011 250.982 70.7053 251.64 71.2355 252.464C71.7784 253.299 72.1318 254.224 72.2959 255.275C72.4601 256.326 72.4348 257.39 72.195 258.479C71.9551 259.581 71.5637 260.442 71.0209 261.075C70.4781 261.708 69.8469 262.076 69.1147 262.164C68.3825 262.253 67.6124 262.063 66.8045 261.594M69.9984 247.17C68.5213 246.309 67.1201 245.904 65.8071 245.954C64.4942 246.005 63.3707 246.511 62.4239 247.487C61.4771 248.449 60.808 249.842 60.404 251.64C60 253.464 59.9874 255.25 60.3535 256.972C60.707 258.707 61.3887 260.265 62.386 261.645C63.3833 263.038 64.6205 264.152 66.0849 265.001C67.5493 265.849 68.9632 266.267 70.2761 266.217C71.589 266.166 72.7125 265.66 73.6593 264.684C74.6062 263.722 75.2752 262.316 75.6792 260.48C76.0832 258.669 76.0958 256.909 75.7423 255.199C75.3889 253.477 74.7071 251.919 73.7098 250.539C72.7125 249.146 71.4628 248.031 69.9857 247.17" fill="#0F0F0F"/>
<path d="M90.1086 258.821C89.187 258.289 88.2907 257.998 87.4575 257.96C86.6243 257.922 85.8795 258.137 85.223 258.606L85.6523 256.617L82.1301 254.578L78.3808 271.738L81.9029 273.777L84.0238 264.051C84.3646 262.557 84.9074 261.645 85.6775 261.303C86.4476 260.961 87.3186 261.075 88.2781 261.632C89.0734 262.088 89.6794 262.747 90.0707 263.608C90.4621 264.456 90.5252 265.47 90.2727 266.647L87.9372 277.285L91.4846 279.337L94.0094 267.787C94.426 265.887 94.2872 264.165 93.6055 262.607C92.9111 261.05 91.7497 259.783 90.096 258.821" fill="#0F0F0F"/>
<path d="M104.046 282.072C103.313 281.642 102.682 281.034 102.165 280.236C101.647 279.451 101.294 278.552 101.117 277.576C100.94 276.601 100.94 275.651 101.155 274.714C101.357 273.765 101.723 273.005 102.24 272.435C102.758 271.865 103.377 271.548 104.071 271.46C104.778 271.384 105.51 271.561 106.255 271.992C107 272.422 107.631 273.055 108.136 273.841C108.653 274.651 109.007 275.538 109.184 276.513C109.36 277.488 109.36 278.425 109.158 279.349C108.956 280.249 108.59 280.996 108.073 281.566C107.542 282.123 106.937 282.465 106.23 282.566C105.523 282.655 104.79 282.503 104.046 282.072ZM106.141 268.104C104.955 267.407 103.768 267.129 102.606 267.243C101.458 267.369 100.435 267.901 99.564 268.838C98.693 269.775 98.0744 271.08 97.7209 272.726C97.3548 274.372 97.3296 276.006 97.6452 277.652C97.9482 279.286 98.5289 280.755 99.3747 282.047C100.208 283.339 101.23 284.326 102.404 285.01C103.377 285.567 104.323 285.846 105.245 285.833C106.179 285.833 106.937 285.542 107.542 284.985L107.025 287.353C106.634 289.151 106.002 290.355 105.119 290.937C104.248 291.532 103.149 291.444 101.824 290.671C100.801 290.076 100.006 289.291 99.4631 288.341C98.9076 287.378 98.5541 286.175 98.4026 284.757L95.1456 284.605C95.5243 288.809 97.5442 291.976 101.218 294.09C103.553 295.445 105.535 295.724 107.164 294.939C108.792 294.154 109.954 292.216 110.635 289.101L114.132 273.081L110.749 271.13L110.118 273.625C109.891 272.523 109.436 271.46 108.729 270.459C108.01 269.459 107.151 268.661 106.141 268.078" fill="#0F0F0F"/>
</g>
</g>
<mask id="mask3_262_20425" style="mask-type:luminance" maskUnits="userSpaceOnUse" x="10" y="459" width="39" height="59">
<path d="M10.294 498.477L10.4064 459.951L48.9005 478.84L48.7695 517.366L10.294 498.477Z" fill="white"/>
</mask>
<g mask="url(#mask3_262_20425)">
<path d="M18.9209 489.214L33.1315 477.008L33.0753 496.152L18.9209 489.214ZM42.1559 475.512L29.724 469.418L10.3271 484.981V491.028L33.0566 502.183V509.63L42.0249 514.038V506.591L48.8025 509.901V503.87L42.0623 500.56L42.1372 475.512" fill="#0F0F0F"/>
</g>
<mask id="mask4_262_20425" style="mask-type:luminance" maskUnits="userSpaceOnUse" x="10" y="530" width="105" height="79">
<path d="M10.294 548.929L10.3487 530.29L114.235 590.268L114.18 608.908L10.294 548.929Z" fill="white"/>
</mask>
<g mask="url(#mask4_262_20425)">
<path d="M39.4545 547.335L35.6008 545.108L31.2142 556.751L26.4996 539.86L23.3018 538.015L18.4915 549.399L14.2278 532.768L10.3468 530.526L15.8404 551.886L20.5414 554.592L24.887 544.985L29.1507 559.566L33.8516 562.285L39.4545 547.335Z" fill="black" fill-opacity="0.6"/>
<path d="M56.0719 556.924L44.4152 550.201L44.3605 568.349L56.0173 575.072L56.0309 572.148L48.1459 567.597L48.1596 562.896L55.129 566.927L55.1427 564.044L48.1596 560.013L48.1732 555.298L56.0583 559.849L56.0719 556.924Z" fill="black" fill-opacity="0.6"/>
<path d="M73.4115 566.948L61.7684 560.224L61.7137 578.372L73.3705 585.096V582.171L65.4991 577.62L65.5128 572.933L72.4822 576.951V574.067L65.5128 570.036L65.5264 565.321L73.4115 569.872V566.948Z" fill="black" fill-opacity="0.6"/>
<path d="M95.6572 579.791L91.0928 577.153L82.8252 580.761L82.8525 572.397L79.1218 570.238L79.0671 588.386L82.7978 590.545L82.8252 581.403L91.1475 595.356L95.9305 598.116L86.9932 583.467L95.6572 579.791Z" fill="black" fill-opacity="0.6"/>
<path d="M106.116 585.584C104.777 584.805 103.574 584.327 102.481 584.094C101.388 583.862 100.554 583.985 99.9255 584.395C99.3105 584.819 98.9825 585.57 98.9825 586.664C98.9825 587.757 99.2695 588.713 99.8435 589.697C100.417 590.681 101.142 591.611 101.989 592.444C102.836 593.291 103.943 594.275 105.269 595.396C106.458 596.38 107.373 597.172 108.029 597.774C108.671 598.361 109.218 598.99 109.669 599.632C110.106 600.275 110.325 600.903 110.325 601.504C110.325 602.324 109.983 602.762 109.314 602.775C108.644 602.789 107.783 602.502 106.745 601.901C105.501 601.176 104.462 600.302 103.615 599.263C102.768 598.225 102.262 597.145 102.098 596.038L98.2583 594.603C98.4769 595.806 98.9689 597.008 99.7205 598.211C100.472 599.427 101.456 600.562 102.645 601.655C103.82 602.734 105.146 603.705 106.608 604.538C107.988 605.331 109.245 605.877 110.393 606.151C111.541 606.424 112.457 606.356 113.14 605.946C113.837 605.536 114.179 604.73 114.179 603.527C114.179 602.406 113.851 601.313 113.195 600.234C112.539 599.154 111.746 598.17 110.817 597.254C109.888 596.353 108.712 595.314 107.291 594.125C106.212 593.223 105.378 592.526 104.79 591.98C104.203 591.447 103.725 590.914 103.328 590.367C102.932 589.82 102.727 589.287 102.727 588.795C102.727 587.989 103.069 587.579 103.738 587.566C104.421 587.566 105.269 587.839 106.28 588.426C107.36 589.055 108.275 589.793 108.986 590.668C109.71 591.542 110.175 592.485 110.393 593.524L113.987 594.822C113.741 593.619 113.222 592.43 112.443 591.283C111.664 590.135 110.735 589.096 109.628 588.126C108.535 587.169 107.346 586.308 106.075 585.584" fill="black" fill-opacity="0.6"/>
</g>
<mask id="mask5_262_20425" style="mask-type:luminance" maskUnits="userSpaceOnUse" x="10" y="504" width="105" height="79">
<path d="M10.294 522.964L10.3487 504.324L114.235 564.303L114.18 582.943L10.294 522.964Z" fill="white"/>
</mask>
<g mask="url(#mask5_262_20425)">
<path d="M39.4546 521.365L35.6009 519.137L31.2142 530.78L26.4996 513.89L23.3018 512.045L18.4915 523.428L14.2279 506.797L10.3468 504.556L15.8404 525.916L20.5414 528.621L24.887 519.014L29.1507 533.596L33.8517 536.315L39.4546 521.365Z" fill="#0F0F0F"/>
<path d="M56.0719 530.955L44.4152 524.231L44.3605 542.379L56.0173 549.103L56.0309 546.178L48.1459 541.628L48.1596 536.927L55.129 540.958L55.1427 538.075L48.1596 534.043L48.1732 529.329L56.0583 533.879L56.0719 530.955Z" fill="#0F0F0F"/>
<path d="M73.4115 540.973L61.7684 534.249L61.7137 552.397L73.3705 559.12V556.196L65.4991 551.645L65.5128 546.958L72.4822 550.976V548.092L65.5128 544.061L65.5264 539.346L73.4115 543.897V540.973Z" fill="#0F0F0F"/>
<path d="M95.6572 553.815L91.0928 551.178L82.8252 554.786L82.8525 546.422L79.1218 544.263L79.0671 562.411L82.7978 564.57L82.8252 555.428L91.1475 569.381L95.9305 572.141L86.9932 557.491L95.6572 553.815Z" fill="#0F0F0F"/>
<path d="M106.116 559.611C104.777 558.832 103.574 558.354 102.481 558.121C101.388 557.889 100.554 558.012 99.9255 558.422C99.3105 558.846 98.9825 559.597 98.9825 560.69C98.9825 561.784 99.2695 562.74 99.8435 563.724C100.417 564.708 101.142 565.637 101.989 566.471C102.836 567.318 103.943 568.302 105.269 569.423C106.458 570.407 107.373 571.199 108.029 571.801C108.671 572.388 109.218 573.017 109.669 573.659C110.106 574.301 110.325 574.93 110.325 575.531C110.325 576.351 109.983 576.789 109.314 576.802C108.644 576.816 107.783 576.529 106.745 575.928C105.501 575.203 104.462 574.329 103.615 573.29C102.768 572.252 102.262 571.172 102.098 570.065L98.2583 568.63C98.4769 569.833 98.9689 571.035 99.7205 572.238C100.472 573.454 101.456 574.588 102.645 575.682C103.82 576.761 105.146 577.731 106.608 578.565C107.988 579.358 109.245 579.904 110.393 580.178C111.541 580.451 112.457 580.383 113.14 579.973C113.837 579.563 114.179 578.756 114.179 577.554C114.179 576.433 113.851 575.34 113.195 574.26C112.539 573.181 111.746 572.197 110.817 571.281C109.888 570.379 108.712 569.341 107.291 568.152C106.212 567.25 105.378 566.553 104.79 566.006C104.203 565.473 103.725 564.94 103.328 564.394C102.932 563.847 102.727 563.314 102.727 562.822C102.727 562.016 103.069 561.606 103.738 561.592C104.421 561.592 105.269 561.866 106.28 562.453C107.36 563.082 108.275 563.82 108.986 564.694C109.71 565.569 110.175 566.512 110.393 567.551L113.987 568.849C113.741 567.646 113.222 566.457 112.443 565.309C111.664 564.162 110.735 563.123 109.628 562.153C108.535 561.196 107.346 560.335 106.075 559.611" fill="#0F0F0F"/>
</g>
<mask id="mask6_262_20425" style="mask-type:luminance" maskUnits="userSpaceOnUse" x="10" y="556" width="105" height="79">
<path d="M10.294 574.892L10.3487 556.252L114.235 616.23L114.18 634.87L10.294 574.892Z" fill="white"/>
</mask>
<g mask="url(#mask6_262_20425)">
<path d="M39.4545 573.294L35.6008 571.066L31.2141 582.709L26.4995 565.818L23.3017 563.974L18.4914 575.357L14.2278 558.726L10.3467 556.485L15.8403 577.844L20.5413 580.55L24.8869 570.943L29.1506 585.524L33.8516 588.244L39.4545 573.294Z" fill="black" fill-opacity="0.3"/>
<path d="M56.0719 582.888L44.4152 576.165L44.3605 594.312L56.0173 601.036L56.0309 598.112L48.1459 593.561L48.1596 588.86L55.129 592.891L55.1427 590.008L48.1596 585.976L48.1732 581.262L56.0583 585.812L56.0719 582.888Z" fill="black" fill-opacity="0.3"/>
<path d="M73.4115 592.902L61.7684 586.178L61.7137 604.326L73.3705 611.05V608.125L65.4991 603.575L65.5128 598.887L72.4822 602.905V600.021L65.5128 595.99L65.5264 591.275L73.4115 595.826V592.902Z" fill="black" fill-opacity="0.3"/>
<path d="M95.6572 605.748L91.0928 603.111L82.8252 606.718L82.8525 598.355L79.1218 596.196L79.0671 614.344L82.7978 616.503L82.8252 607.361L91.1475 621.313L95.9305 624.074L86.9932 609.424L95.6572 605.748Z" fill="black" fill-opacity="0.3"/>
<path d="M106.116 611.545C104.777 610.766 103.574 610.288 102.481 610.055C101.388 609.823 100.554 609.946 99.9255 610.356C99.3105 610.78 98.9825 611.531 98.9825 612.625C98.9825 613.718 99.2695 614.674 99.8435 615.658C100.417 616.642 101.142 617.571 101.989 618.405C102.836 619.252 103.943 620.236 105.269 621.357C106.458 622.341 107.373 623.133 108.029 623.735C108.671 624.322 109.218 624.951 109.669 625.593C110.106 626.235 110.325 626.864 110.325 627.465C110.325 628.285 109.983 628.723 109.314 628.736C108.644 628.75 107.783 628.463 106.745 627.862C105.501 627.137 104.462 626.263 103.615 625.224C102.768 624.186 102.262 623.106 102.098 621.999L98.2583 620.564C98.4769 621.767 98.9689 622.969 99.7205 624.172C100.472 625.388 101.456 626.522 102.645 627.616C103.82 628.695 105.146 629.666 106.608 630.499C107.988 631.292 109.245 631.838 110.393 632.112C111.541 632.385 112.457 632.317 113.14 631.907C113.837 631.497 114.179 630.69 114.179 629.488C114.179 628.367 113.851 627.274 113.195 626.194C112.539 625.115 111.746 624.131 110.817 623.215C109.888 622.313 108.712 621.275 107.291 620.086C106.212 619.184 105.378 618.487 104.79 617.94C104.203 617.407 103.725 616.875 103.328 616.328C102.932 615.781 102.727 615.248 102.727 614.756C102.727 613.95 103.069 613.54 103.738 613.526C104.421 613.526 105.269 613.8 106.28 614.387C107.36 615.016 108.275 615.754 108.986 616.629C109.71 617.503 110.175 618.446 110.393 619.485L113.987 620.783C113.741 619.58 113.222 618.391 112.443 617.244C111.664 616.096 110.735 615.057 109.628 614.087C108.535 613.13 107.346 612.269 106.075 611.545" fill="black" fill-opacity="0.3"/>
</g>
<g clip-path="url(#clip2_262_20425)">
<mask id="mask7_262_20425" style="mask-type:luminance" maskUnits="userSpaceOnUse" x="14" y="616" width="105" height="102">
<path d="M14.2512 657.14L14.3699 616.355L118.162 676.275L118.043 717.069L14.2512 657.14Z" fill="white"/>
</mask>
<g mask="url(#mask7_262_20425)">
<path d="M19.4878 619.315C18.6365 618.82 17.8544 618.533 17.1318 618.464C16.4191 618.385 15.8449 618.573 15.4094 619.008C14.9738 619.454 14.756 620.167 14.756 621.166C14.756 622.166 14.954 623.027 15.3599 623.849C15.7657 624.671 16.2805 625.413 16.8942 626.066C17.508 626.72 18.3098 627.482 19.2997 628.353C20.2599 629.195 21.0221 629.897 21.5567 630.442C22.1011 630.986 22.5565 631.59 22.9228 632.253C23.2989 632.907 23.4771 633.6 23.4771 634.332C23.4771 635.065 23.3088 635.57 22.9723 635.837C22.6357 636.104 22.21 636.193 21.6755 636.094C21.1409 635.995 20.5668 635.768 19.9431 635.411C19.2304 634.995 18.5771 634.491 17.993 633.887C17.409 633.293 16.9239 632.639 16.5378 631.937C16.1518 631.224 15.8944 630.501 15.7756 629.769L14.3204 629.333C14.4887 630.313 14.8253 631.283 15.3203 632.214C15.8251 633.154 16.4686 634.025 17.2407 634.827C18.0227 635.629 18.9037 636.312 19.8936 636.886C20.8143 637.421 21.6557 637.738 22.4278 637.846C23.19 637.945 23.7939 637.767 24.2591 637.332C24.7145 636.886 24.9521 636.144 24.9521 635.075C24.9521 634.006 24.7145 633.045 24.2492 632.145C23.7741 631.244 23.1999 630.452 22.5367 629.769C21.8636 629.086 20.9924 628.274 19.8936 627.314C19.0621 626.601 18.3989 625.977 17.9138 625.482C17.4189 624.968 17.013 624.433 16.6863 623.849C16.3696 623.265 16.2112 622.661 16.2112 622.028C16.2112 621.315 16.3696 620.83 16.6863 620.543C17.0031 620.256 17.409 620.157 17.9138 620.236C18.4187 620.315 18.9532 620.523 19.5175 620.85C20.4678 621.394 21.2795 622.107 21.9725 622.988C22.6654 623.879 23.1108 624.849 23.3088 625.918L24.7046 626.304C24.5462 625.334 24.2096 624.413 23.7147 623.532C23.2197 622.651 22.6159 621.859 21.8834 621.147C21.1607 620.434 20.3589 619.82 19.4878 619.325" fill="#0F0F0F"/>
<path d="M39.5335 631.115L37.7417 630.086L31.1687 634.233L31.1885 626.304L29.7532 625.473L29.7037 642.311L31.139 643.143L31.1687 634.461L37.9793 647.092L39.8304 648.161L32.8516 635.283L39.5335 631.115Z" fill="#0F0F0F"/>
<path d="M45.4135 634.51L43.9781 633.679L43.9286 650.527L45.364 651.349L45.4135 634.51Z" fill="#0F0F0F"/>
<path d="M52.6894 638.708L51.254 637.886L51.2045 654.725L57.8567 658.565L57.8666 657.021L52.6399 654.002L52.6894 638.708Z" fill="#0F0F0F"/>
<path d="M63.4596 644.934L62.0242 644.103L61.9747 660.951L68.6368 664.792V663.238L63.42 660.228L63.4596 644.934Z" fill="#0F0F0F"/>
<path d="M89.1676 659.773L87.7124 658.931L87.6827 670.058C87.6827 670.998 87.5243 671.701 87.1877 672.176C86.8611 672.642 86.4156 672.889 85.8514 672.899C85.2871 672.909 84.6536 672.711 83.9408 672.295C83.2281 671.879 82.6045 671.355 82.0402 670.691C81.4859 670.038 81.0404 669.286 80.7335 668.444C80.4168 667.603 80.2584 666.712 80.2584 665.772L80.2881 654.645L78.8527 653.813L78.823 665.188C78.823 666.336 79.0408 667.474 79.4763 668.583C79.9218 669.702 80.5355 670.721 81.3077 671.632C82.0897 672.552 82.9608 673.275 83.9309 673.839C84.901 674.404 85.792 674.691 86.5839 674.681C87.3659 674.671 87.9896 674.364 88.4449 673.76C88.9003 673.166 89.128 672.285 89.1379 671.137L89.1676 659.763" fill="#0F0F0F"/>
<path d="M105.392 669.137L103.967 668.316L103.917 682.353L96.0969 663.772L94.7011 662.97L94.6517 679.809L96.0573 680.62L96.0969 666.504L103.927 685.164L105.343 685.986L105.392 669.137Z" fill="#0F0F0F"/>
<path d="M118.132 686.253L110.658 681.937V683.283L118.122 687.589L118.132 686.253Z" fill="#0F0F0F"/>
<path d="M16.914 641.579L15.4786 640.747L15.4292 657.595L22.0912 661.436V659.882L16.8744 656.873L16.914 641.579Z" fill="#0F0F0F"/>
<path d="M31.8814 665.693C30.8123 665.079 29.8422 664.237 28.981 663.178C28.1099 662.119 27.4269 660.921 26.922 659.565C26.427 658.219 26.1796 656.803 26.1796 655.348C26.1796 653.893 26.4369 652.774 26.9418 652.012C27.4467 651.25 28.1396 650.844 29.0107 650.794C29.8818 650.745 30.8519 651.032 31.921 651.646C32.9901 652.259 33.9603 653.101 34.8215 654.15C35.6827 655.199 36.3657 656.407 36.8607 657.744C37.3556 659.09 37.6031 660.486 37.6031 661.951C37.6031 663.416 37.3457 664.524 36.8409 665.297C36.336 666.069 35.653 666.484 34.7819 666.534C33.9207 666.593 32.9506 666.316 31.8814 665.693ZM31.921 650.002C30.5748 649.22 29.3572 648.874 28.2683 648.943C27.1794 649.013 26.3182 649.517 25.6846 650.458C25.0511 651.408 24.7343 652.754 24.7343 654.507C24.7343 656.259 25.0412 657.991 25.6648 659.654C26.2885 661.327 27.1497 662.822 28.2386 664.148C29.3275 665.475 30.5352 666.524 31.8814 667.296C33.2277 668.068 34.4354 668.425 35.5342 668.355C36.6132 668.286 37.4843 667.771 38.1179 666.831C38.7514 665.881 39.0682 664.524 39.0682 662.772C39.0682 661.02 38.7613 659.298 38.1377 657.635C37.514 655.962 36.6528 654.467 35.5738 653.14C34.4849 651.814 33.2673 650.765 31.9309 649.993" fill="#0F0F0F"/>
<path d="M50.0958 660.505C48.7495 659.723 47.5319 659.377 46.443 659.446C45.3541 659.515 44.4929 660.02 43.8594 660.971C43.2258 661.911 42.9091 663.267 42.9091 665.019C42.9091 666.771 43.206 668.494 43.8396 670.167C44.4632 671.84 45.3145 673.335 46.4034 674.661C47.4923 675.988 48.7099 677.037 50.0562 677.819C51.4025 678.601 52.6894 678.957 53.7981 678.858C54.9068 678.749 55.7581 678.195 56.3322 677.185L55.0157 675.75C54.5405 676.532 53.8575 676.948 52.9863 677.017C52.1152 677.076 51.1352 676.809 50.0562 676.186C48.9772 675.562 48.017 674.73 47.1459 673.671C46.2748 672.612 45.5917 671.414 45.0968 670.068C44.5919 668.712 44.3444 667.316 44.3444 665.861C44.3444 664.406 44.6018 663.287 45.1166 662.525C45.6214 661.763 46.3143 661.347 47.1855 661.307C48.0566 661.258 49.0366 661.545 50.1057 662.159C51.1748 662.772 52.1647 663.633 53.0358 664.712C53.907 665.782 54.5801 666.979 55.0553 668.316L56.3718 668.395C55.7977 666.712 54.9563 665.188 53.8575 663.802C52.7488 662.416 51.5015 661.317 50.1156 660.525" fill="#0F0F0F"/>
<path d="M70.5968 672.573L68.815 671.543L62.2321 675.691L62.2618 667.752L60.8264 666.93L60.7769 683.769L62.2123 684.6L62.2321 675.919L69.0427 688.54L70.9037 689.619L63.9248 676.75L70.5968 672.573Z" fill="#0F0F0F"/>
<path d="M82.6242 679.512L75.0415 675.136L74.992 691.975L82.5846 696.36V694.816L76.5066 691.301L76.5264 685.204L81.862 688.292V686.758L76.5264 683.679L76.5462 677.552L82.6242 681.066V679.512Z" fill="#0F0F0F"/>
<path d="M88.7023 698.34L88.7419 684.59L91.771 686.342C92.9094 686.996 93.8597 687.837 94.6417 688.847C95.4139 689.856 95.988 690.995 96.3642 692.242C96.7403 693.489 96.9284 694.816 96.9284 696.202C96.9284 697.588 96.7205 698.686 96.3444 699.498C95.9583 700.31 95.3743 700.775 94.6021 700.894C93.8201 701.013 92.8698 700.745 91.7314 700.082L88.7023 698.33M91.7908 684.798L87.3065 682.214L87.257 699.053L91.7413 701.636C93.1668 702.458 94.3745 702.805 95.3743 702.666C96.3741 702.527 97.1264 701.973 97.6412 701.003C98.146 700.023 98.4034 698.706 98.4133 697.053C98.4232 695.4 98.1658 693.796 97.6709 692.232C97.166 690.668 96.4236 689.243 95.4238 687.956C94.4339 686.669 93.2163 685.62 91.8007 684.798" fill="#0F0F0F"/>
</g>
</g>
<g clip-path="url(#clip3_262_20425)">
<mask id="mask8_262_20425" style="mask-type:luminance" maskUnits="userSpaceOnUse" x="50" y="686" width="55" height="81">
<path d="M50.8805 735.332L51.0191 686.639L104.296 717.395L104.157 766.089L50.8805 735.332Z" fill="white"/>
</mask>
<g mask="url(#mask8_262_20425)">
<path d="M100.812 715.386L65.2837 735.649L54.4145 716.821L50.93 718.811L65.2639 743.638L104.276 721.395L100.812 715.386Z" fill="#0F0F0F"/>
</g>
</g>
<defs>
<clipPath id="clip0_262_20425">
<rect width="55.138" height="31.9147" fill="white" transform="translate(735.897 932.135)"/>
</clipPath>
<clipPath id="clip1_262_20425">
<rect width="98.0011" height="118.789" fill="white" transform="translate(16.2322 182.773)"/>
</clipPath>
<clipPath id="clip2_262_20425">
<rect width="103.911" height="100.714" fill="white" transform="translate(14.2512 616.355)"/>
</clipPath>
<clipPath id="clip3_262_20425">
<rect width="53.4155" height="79.4503" fill="white" transform="translate(50.8805 686.639)"/>
</clipPath>
</defs>
</svg>
