<svg width="100%" height="100%" viewBox="55 -470 877 1040" fill="none" xmlns="http://www.w3.org/2000/svg">
<path d="M861.507 960.98L875.643 952.865L1000.8 1024.65L986.66 1032.77L861.507 960.98Z" fill="#FFF6D7"/>
<path d="M986.66 1032.77L1000.8 1024.65L1000.8 1169.65L986.662 1177.75L986.66 1032.77Z" fill="#FFF6D7"/>
<path d="M861.5 960.98L986.66 1032.77L986.662 1177.75L861.5 1105.97L861.5 960.98Z" fill="#FFF6D7"/>
<path fill-rule="evenodd" clip-rule="evenodd" d="M875.643 952L861.503 960.117L860.75 959.685V960.55L860 960.98L860.75 961.41L860.75 1106.4L986.662 1178.62L1001.55 1170.08L1001.55 1024.22L875.643 952ZM986.66 1031.91L863.014 960.98L875.643 953.729L999.298 1024.65L986.66 1031.91ZM1000.05 1025.95L1000.05 1169.21L987.412 1176.46L987.41 1033.21L1000.05 1025.95ZM985.91 1033.21L985.912 1176.46L862.25 1105.53L862.25 962.275L985.91 1033.21Z" fill="black"/>
<path d="M499.361 878.99L499.321 895.3L373.751 822.8L373.801 806.5L499.361 878.99Z" fill="#FFF6D7"/>
<path d="M625.361 950.99L625.321 967.3L499.751 894.8L499.801 878.5L625.361 950.99Z" fill="#FFF6D7"/>
<path d="M875.111 950.5L875.071 966.8L750.321 1039.3L750.361 1022.99L875.111 950.5Z" fill="#FFF6D7"/>
<path d="M750.361 1022.99L750.321 1039.3L624.751 966.8L624.801 950.5L750.361 1022.99Z" fill="#FFF6D7"/>
<path fill-rule="evenodd" clip-rule="evenodd" d="M498.55 733.133L624.486 805.851L623.736 807.15L498.553 734.867L375.298 806.498L499.053 877.946L499.055 877.203L624.055 949.37L624.055 949.203L750.36 1022.12L873.615 950.502L749.813 879.017L749.736 879.15L624.176 806.65L624.926 805.351L749.85 877.483L749.926 877.351L875.862 950.068L875.82 967.232L750.323 1040.17L626.069 968.427L626.068 968.597L500.07 895.85L500.068 896.597L373 823.232L373.053 806.068L498.55 733.133ZM498.61 879.422L374.547 807.797L374.503 822.368L498.575 894.003L498.61 879.422ZM500.503 894.368L624.005 965.674L624.049 951.099L500.547 879.797L500.503 894.368ZM626.073 966.697L749.575 1038L749.61 1023.42L626.109 952.121L626.073 966.697ZM751.11 1023.42L751.075 1037.99L874.322 966.368L874.358 951.805L751.11 1023.42Z" fill="black"/>
<path d="M874.251 950L749.751 1022.5L375.751 806L499.251 734.5L874.251 950Z" fill="#FFF6D7"/>
<path d="M1000.11 1022.5L1000.07 1038.8L875.321 1111.3L875.361 1094.99L1000.11 1022.5Z" fill="#FFF6D7"/>
<path d="M875.361 1094.99L875.321 1111.3L749.751 1038.8L749.801 1022.5L875.361 1094.99Z" fill="#FFF6D7"/>
<path d="M1000.11 1022.5L875.361 1094.99L749.801 1022.5L874.551 950L1000.11 1022.5Z" fill="#FFF6D7"/>
<path fill-rule="evenodd" clip-rule="evenodd" d="M874.55 949.133L1000.86 1022.07L1000.82 1039.23L875.323 1112.17L749 1039.23L749.053 1022.07L874.55 949.133ZM874.553 950.867L751.298 1022.5L875.36 1094.12L998.615 1022.5L874.553 950.867ZM999.358 1023.81L876.11 1095.42L876.075 1109.99L999.322 1038.37L999.358 1023.81ZM874.575 1110L874.61 1095.42L750.547 1023.8L750.503 1038.37L874.575 1110Z" fill="black"/>
<path d="M375.111 805.5L375.071 821.8L250.321 894.3L250.361 877.99L375.111 805.5Z" fill="#FFF6D7"/>
<path d="M250.361 877.99L250.321 894.3L124.751 821.8L124.801 805.5L250.361 877.99Z" fill="#FFF6D7"/>
<path d="M375.111 805.5L250.361 877.99L124.801 805.5L249.551 733L375.111 805.5Z" fill="#FFF6D7"/>
<path fill-rule="evenodd" clip-rule="evenodd" d="M249.55 732.133L375.862 805.068L375.82 822.232L250.323 895.167L124 822.232L124.053 805.068L249.55 732.133ZM249.553 733.867L126.298 805.498L250.36 877.123L373.615 805.502L249.553 733.867ZM374.358 806.805L251.11 878.422L251.075 892.995L374.322 821.368L374.358 806.805ZM249.575 893.003L249.61 878.422L125.547 806.797L125.503 821.368L249.575 893.003Z" fill="black"/>
<path d="M500.111 878.5L500.071 894.8L375.321 967.3L375.361 950.99L500.111 878.5Z" fill="#FFF6D7"/>
<path d="M375.361 950.99L375.321 967.3L249.751 894.8L249.801 878.5L375.361 950.99Z" fill="#FFF6D7"/>
<path d="M500.111 878.5L375.361 950.99L249.801 878.5L374.551 806L500.111 878.5Z" fill="#FFF6D7"/>
<path fill-rule="evenodd" clip-rule="evenodd" d="M374.55 805.133L500.862 878.068L500.82 895.232L375.323 968.167L249 895.232L249.053 878.068L374.55 805.133ZM374.553 806.867L251.298 878.498L375.36 950.123L498.615 878.502L374.553 806.867ZM499.358 879.805L376.11 951.422L376.075 965.995L499.322 894.368L499.358 879.805ZM374.575 966.003L374.61 951.422L250.547 879.797L250.503 894.368L374.575 966.003Z" fill="black"/>
<path d="M251.111 878.5L251.071 894.8L126.321 967.3L126.361 950.99L251.111 878.5Z" fill="#FFF6D7"/>
<path d="M126.361 950.99L126.321 967.3L0.751343 894.8L0.801343 878.5L126.361 950.99Z" fill="#FFF6D7"/>
<path d="M251.111 878.5L126.361 950.99L0.801343 878.5L125.551 806L251.111 878.5Z" fill="#FFF6D7"/>
<path fill-rule="evenodd" clip-rule="evenodd" d="M125.55 805.133L251.862 878.068L251.82 895.232L126.323 968.167L0 895.232L0.0526521 878.068L125.55 805.133ZM125.553 806.867L2.29764 878.498L126.36 950.123L249.615 878.502L125.553 806.867ZM250.358 879.805L127.11 951.422L127.075 965.995L250.322 894.368L250.358 879.805ZM125.575 966.003L125.61 951.422L1.54736 879.797L1.50266 894.368L125.575 966.003Z" fill="black"/>
<path d="M1.50687 733.98L15.6431 725.865L140.805 797.651L126.66 805.772L1.50687 733.98Z" fill="#FFF6D7"/>
<path d="M126.66 805.772L140.805 797.651L140.803 942.648L126.662 950.755L126.66 805.772Z" fill="#FFF6D7"/>
<path d="M1.49988 733.98L126.66 805.772L126.662 950.755L1.50003 878.968L1.49988 733.98Z" fill="#FFF6D7"/>
<path fill-rule="evenodd" clip-rule="evenodd" d="M15.6429 725L1.50322 733.117L0.749878 732.685V733.55L1.52588e-05 733.98L0.749878 734.41L0.750031 879.403L126.662 951.619L141.553 943.083L141.555 797.217L15.6429 725ZM126.66 804.907L3.01372 733.98L15.6433 726.729L139.298 797.652L126.66 804.907ZM140.055 798.947L140.053 942.214L127.412 949.46L127.41 806.206L140.055 798.947ZM125.91 806.206L125.912 949.46L2.25003 878.534L2.24988 735.275L125.91 806.206Z" fill="black"/>
<path d="M1.50687 588.98L15.6431 580.865L140.805 652.651L126.66 660.772L1.50687 588.98Z" fill="#FFF6D7"/>
<path d="M126.66 660.772L140.805 652.651L140.803 797.648L126.662 805.755L126.66 660.772Z" fill="#FFF6D7"/>
<path d="M1.49988 588.98L126.66 660.772L126.662 805.755L1.50003 733.968L1.49988 588.98Z" fill="#FFF6D7"/>
<path fill-rule="evenodd" clip-rule="evenodd" d="M15.6429 580L1.50322 588.117L0.749878 587.685V588.55L1.52588e-05 588.98L0.749878 589.41L0.750031 734.403L126.662 806.619L141.553 798.083L141.555 652.217L15.6429 580ZM126.66 659.907L3.01372 588.98L15.6433 581.729L139.298 652.652L126.66 659.907ZM140.055 653.947L140.053 797.214L127.412 804.46L127.41 661.206L140.055 653.947ZM125.91 661.206L125.912 804.46L2.25003 733.534L2.24988 590.275L125.91 661.206Z" fill="black"/>
<path d="M1.50687 443.98L15.6431 435.865L140.805 507.651L126.66 515.772L1.50687 443.98Z" fill="#FFF6D7"/>
<path d="M126.66 515.772L140.805 507.651L140.803 652.648L126.662 660.755L126.66 515.772Z" fill="#FFF6D7"/>
<path d="M1.49988 443.98L126.66 515.772L126.662 660.755L1.50003 588.968L1.49988 443.98Z" fill="#FFF6D7"/>
<path fill-rule="evenodd" clip-rule="evenodd" d="M15.6429 435L1.50322 443.117L0.749878 442.685V443.55L1.52588e-05 443.98L0.749878 444.41L0.750031 589.403L126.662 661.619L141.553 653.083L141.555 507.217L15.6429 435ZM126.66 514.907L3.01372 443.98L15.6433 436.729L139.298 507.652L126.66 514.907ZM140.055 508.947L140.053 652.214L127.412 659.46L127.41 516.206L140.055 508.947ZM125.91 516.206L125.912 659.46L2.25003 588.534L2.24988 445.275L125.91 516.206Z" fill="black"/>
<path d="M1.50687 298.98L15.6431 290.865L140.805 362.651L126.66 370.772L1.50687 298.98Z" fill="#FFF6D7"/>
<path d="M126.66 370.772L140.805 362.651L140.803 507.648L126.662 515.755L126.66 370.772Z" fill="#FFF6D7"/>
<path d="M1.49988 298.98L126.66 370.772L126.662 515.755L1.50003 443.968L1.49988 298.98Z" fill="#FFF6D7"/>
<path fill-rule="evenodd" clip-rule="evenodd" d="M15.6429 290L1.50322 298.117L0.749878 297.685V298.55L1.52588e-05 298.98L0.749878 299.41L0.750031 444.403L126.662 516.619L141.553 508.083L141.555 362.217L15.6429 290ZM126.66 369.907L3.01372 298.98L15.6433 291.729L139.298 362.652L126.66 369.907ZM140.055 363.947L140.053 507.214L127.412 514.46L127.41 371.206L140.055 363.947ZM125.91 371.206L125.912 514.46L2.25003 443.534L2.24988 300.275L125.91 371.206Z" fill="black"/>
<path d="M1.50687 153.98L15.6431 145.865L140.805 217.651L126.66 225.772L1.50687 153.98Z" fill="#FFF6D7"/>
<path d="M126.66 225.772L140.805 217.651L140.803 362.648L126.662 370.755L126.66 225.772Z" fill="#FFF6D7"/>
<path d="M1.49988 153.98L126.66 225.772L126.662 370.755L1.50003 298.968L1.49988 153.98Z" fill="#FFF6D7"/>
<path fill-rule="evenodd" clip-rule="evenodd" d="M15.6429 145L1.50322 153.117L0.749878 152.685V153.55L1.52588e-05 153.98L0.749878 154.41L0.750031 299.403L126.662 371.619L141.553 363.083L141.555 217.217L15.6429 145ZM126.66 224.907L3.01372 153.98L15.6433 146.729L139.298 217.652L126.66 224.907ZM140.055 218.947L140.053 362.214L127.412 369.46L127.41 226.206L140.055 218.947ZM125.91 226.206L125.912 369.46L2.25003 298.534L2.24988 155.275L125.91 226.206Z" fill="black"/>
<path d="M1.50687 8.98011L15.6431 0.864746L140.805 72.6514L126.66 80.7718L1.50687 8.98011Z" fill="#FFF6D7"/>
<path d="M126.66 80.7718L140.805 72.6514L140.803 217.648L126.662 225.755L126.66 80.7718Z" fill="#FFF6D7"/>
<path d="M1.49988 8.98012L126.66 80.7718L126.662 225.755L1.50003 153.968L1.49988 8.98012Z" fill="#FFF6D7"/>
<path fill-rule="evenodd" clip-rule="evenodd" d="M15.6429 0L1.50322 8.11737L0.749878 7.68525V8.54984L1.52588e-05 8.98033L0.749878 9.41047L0.750031 154.403L126.662 226.619L141.553 218.083L141.555 72.2169L15.6429 0ZM126.66 79.907L3.01372 8.97981L15.6433 1.72941L139.298 72.6517L126.66 79.907ZM140.055 73.9467L140.053 217.214L127.412 224.46L127.41 81.206L140.055 73.9467ZM125.91 81.2062L125.912 224.46L2.25003 153.534L2.24988 10.2749L125.91 81.2062Z" fill="black"/>
<path fill-rule="evenodd" clip-rule="evenodd" d="M837.956 989.244C848.39 983.553 861.862 980.622 875.458 980.546C875.511 981.33 875.715 982.109 876.069 982.856C876.818 984.437 878.18 985.767 879.96 986.789C882.687 988.369 886.139 989.102 889.487 989.102C892.837 989.102 896.298 988.368 899.044 986.79L899.047 986.789C900.24 986.1 901.259 985.274 902.03 984.321C906.658 985.756 910.964 987.594 914.825 989.825C925.453 995.976 930.278 1003.75 930.234 1011.11C930.19 1018.47 925.263 1026.25 914.561 1032.41C903.874 1038.56 889.769 1041.69 875.573 1041.69C861.378 1041.69 847.309 1038.56 836.691 1032.41L836.69 1032.41C826.074 1026.27 821.247 1018.5 821.289 1011.14C821.331 1003.77 826.252 995.995 836.952 989.85L837.956 989.274V989.244ZM901.166 981.975C906.468 983.504 911.414 985.544 915.826 988.094C937.815 1000.82 937.681 1021.42 915.558 1034.14C893.435 1046.87 857.678 1046.87 835.689 1034.14C813.722 1021.44 813.834 1000.82 835.956 988.116V988.072C846.94 981.771 861.287 978.596 875.654 978.546C876.353 978.543 877.052 978.548 877.751 978.56C877.493 979.215 877.398 979.888 877.466 980.556C877.634 982.197 878.79 983.812 880.959 985.056C885.66 987.783 893.302 987.783 898.047 985.056C899.584 984.17 900.631 983.105 901.166 981.975Z" fill="black"/>
<path d="M876.008 1041.8C876.004 1040.27 878.145 1039.02 880.79 1039.01C883.435 1039.01 885.583 1040.24 885.588 1041.77C885.592 1043.3 883.451 1044.55 880.806 1044.56C878.16 1044.56 876.012 1043.33 876.008 1041.8Z" fill="#41B383"/>
<path d="M879.174 975.697C877.204 976.812 875.917 978.186 875.339 979.638C874.262 982.284 875.523 985.162 879.121 987.237C884.663 990.401 893.672 990.401 899.267 987.237C901.079 986.2 902.313 984.955 902.944 983.632C904.257 980.909 903.049 977.849 899.319 975.722C893.777 972.533 884.742 972.533 879.174 975.722V975.697Z" fill="#FFBABA"/>
<path d="M865.005 1052.16C862.332 1053.69 862.332 1056.19 865.005 1057.72C867.678 1059.25 871.978 1059.27 874.652 1057.72C877.325 1056.17 877.347 1053.69 874.674 1052.16C872.001 1050.63 867.701 1050.6 865.005 1052.16Z" fill="#3658D3"/>
<path d="M858.005 978.156C855.332 979.685 855.332 982.191 858.005 983.72C860.678 985.25 864.978 985.272 867.652 983.72C870.325 982.169 870.347 979.685 867.674 978.156C865.001 976.626 860.701 976.604 858.005 978.156Z" fill="#41B383"/>
<mask id="mask0_170_1198" style="mask-type:luminance" maskUnits="userSpaceOnUse" x="470" y="778" width="288" height="166">
<path d="M470 791.87L493.87 778L757.03 929.94L733.16 943.81L470 791.87Z" fill="white"/>
</mask>
<g mask="url(#mask0_170_1198)">
<path d="M504.5 786.09L492.18 778.98L470.29 791.7L482.61 798.81L485.89 796.9L477.33 791.96L483.36 788.45L490.94 792.83L494.18 790.94L486.61 786.57L492.67 783.05L501.23 787.99L504.5 786.09Z" fill="black"/>
<path d="M512.28 797.71C511.28 797.13 510.19 796.72 509.01 796.46C507.82 796.21 506.64 796.13 505.44 796.22L507.27 795.16L503.71 793.11L488.26 802.09L491.82 804.14L500.69 798.98C502.05 798.2 503.39 797.82 504.72 797.83C506.04 797.84 507.25 798.16 508.32 798.78C509.22 799.3 509.68 799.87 509.73 800.51C509.78 801.15 509.25 801.78 508.15 802.42L498.53 808.01L502.12 810.08L512.51 804.04C514.21 803.05 515.03 802 514.97 800.89C514.92 799.78 514.02 798.72 512.27 797.71" fill="black"/>
<path d="M533.05 804.67L530.2 803.02C528.87 803.79 527.77 804.31 526.91 804.56C526.06 804.81 525.24 804.85 524.48 804.69C523.72 804.52 522.79 804.12 521.71 803.5L518.94 805.11L522.04 806.9L513.88 811.64C512.45 812.47 511.73 813.35 511.72 814.26C511.72 815.17 512.42 816.03 513.82 816.84L516.35 818.3L519.08 816.71L517.68 815.9C517.07 815.55 516.77 815.17 516.78 814.75C516.78 814.33 517.14 813.92 517.85 813.51L525.65 808.98L529.03 810.93L531.8 809.32L528.42 807.37L533.06 804.68" fill="black"/>
<path d="M533.68 816.88C535.03 816.4 536.35 816.21 537.63 816.32C538.91 816.43 540.1 816.8 541.2 817.44C542.24 818.04 542.83 818.7 542.96 819.41C543.09 820.13 542.69 820.84 541.78 821.56L533.68 816.88ZM543.81 815.9C542.27 815.01 540.59 814.41 538.75 814.09C536.91 813.77 535.06 813.77 533.18 814.09C531.3 814.4 529.53 815.04 527.86 816C526.19 816.96 525.11 817.99 524.57 819.08C524.03 820.17 524.04 821.24 524.61 822.31C525.18 823.38 526.26 824.37 527.86 825.29C529.46 826.21 531.39 826.85 533.48 827.09C535.57 827.33 537.62 827.18 539.64 826.63L536.95 824.44C535.82 824.69 534.71 824.74 533.62 824.59C532.53 824.45 531.55 824.12 530.69 823.62C529.87 823.15 529.3 822.63 528.99 822.05C528.66 821.47 528.63 820.87 528.9 820.24C529.17 819.6 529.78 818.99 530.73 818.39L542.55 825.22L543.48 824.73C545.19 823.73 546.31 822.72 546.83 821.67C547.35 820.63 547.35 819.62 546.81 818.64C546.26 817.66 545.27 816.76 543.8 815.91" fill="black"/>
<path d="M564.72 828.14C563.99 827.72 563.17 827.38 562.26 827.14C561.35 826.9 560.44 826.75 559.51 826.7C558.59 826.65 557.75 826.7 557 826.84L559.56 825.35L556.13 823.37L540.68 832.35L544.25 834.41L552.13 829.83C553.75 828.89 555.31 828.44 556.8 828.5C558.29 828.56 559.85 829.06 561.49 830.01L564.71 828.14" fill="black"/>
<path d="M587.61 836.17L584.75 834.52C583.42 835.29 582.33 835.81 581.47 836.06C580.62 836.31 579.8 836.35 579.04 836.19C578.28 836.02 577.35 835.62 576.27 835L573.5 836.61L576.6 838.4L568.44 843.14C567.01 843.97 566.29 844.85 566.28 845.76C566.28 846.67 566.98 847.53 568.38 848.34L570.91 849.8L573.64 848.21L572.24 847.4C571.63 847.05 571.33 846.67 571.34 846.25C571.34 845.83 571.7 845.42 572.41 845.01L580.21 840.48L583.59 842.43L586.36 840.82L582.98 838.87L587.62 836.18" fill="black"/>
<path d="M603.07 841.05L599.51 839L575.93 852.7L579.49 854.75L588.36 849.59C589.74 848.8 591.1 848.41 592.42 848.44C593.75 848.47 594.93 848.77 595.95 849.36C596.88 849.89 597.35 850.48 597.38 851.13C597.42 851.78 596.83 852.44 595.66 853.12L586.2 858.62L589.79 860.69L599.86 854.84C601.7 853.77 602.62 852.67 602.62 851.55C602.62 850.43 601.77 849.38 600.09 848.41C599.04 847.8 597.9 847.37 596.68 847.12C595.46 846.87 594.23 846.79 592.99 846.9L603.06 841.05" fill="black"/>
<path d="M608.24 859.93C609.59 859.44 610.9 859.26 612.19 859.37C613.47 859.48 614.66 859.85 615.76 860.49C616.8 861.09 617.39 861.75 617.52 862.46C617.64 863.18 617.25 863.89 616.34 864.61L608.24 859.94M618.37 858.96C616.84 858.08 615.15 857.47 613.32 857.15C611.49 856.83 609.62 856.83 607.75 857.15C605.87 857.46 604.1 858.1 602.43 859.06C600.76 860.02 599.67 861.05 599.14 862.13C598.6 863.22 598.62 864.3 599.19 865.36C599.76 866.43 600.84 867.42 602.44 868.34C604.04 869.26 605.97 869.9 608.06 870.14C610.15 870.38 612.2 870.23 614.22 869.68L611.53 867.49C610.4 867.74 609.29 867.79 608.2 867.64C607.1 867.49 606.13 867.17 605.26 866.67C604.45 866.2 603.87 865.68 603.56 865.1C603.24 864.52 603.21 863.92 603.47 863.29C603.75 862.66 604.35 862.04 605.31 861.44L617.13 868.26L618.07 867.77C619.78 866.77 620.9 865.76 621.42 864.71C621.94 863.66 621.93 862.65 621.4 861.68C620.86 860.71 619.86 859.8 618.39 858.95" fill="black"/>
<path d="M637.59 879.01L651.6 875.14L644.98 883.27L637.59 879.01ZM657.4 874.37L652.92 871.78L622.9 879.81L626.72 882.01L633.33 880.19L642.94 885.74L639.82 889.58L643.63 891.78L657.39 874.37" fill="black"/>
<path d="M664.01 890.46L671.5 886.11L675.98 888.7C676.78 889.16 677.31 889.65 677.56 890.16C677.8 890.67 677.79 891.17 677.52 891.67C677.24 892.17 676.73 892.62 676.01 893.04C674.86 893.71 673.63 894.05 672.31 894.07C670.98 894.09 669.71 893.75 668.5 893.05L664.02 890.46M679.05 886.87L670.9 882.17L649.01 894.89L652.72 897.03L661.3 892.04L663.94 893.57L660.77 901.68L665.16 904.21L667.9 895.71C669.18 896.22 670.53 896.54 671.95 896.65C673.38 896.77 674.76 896.69 676.11 896.41C677.46 896.14 678.66 895.69 679.73 895.07C681.05 894.3 681.95 893.48 682.44 892.59C682.93 891.71 682.91 890.77 682.38 889.8C681.85 888.82 680.74 887.85 679.05 886.87Z" fill="black"/>
<path d="M705.28 902.01L692.97 894.9L671.08 907.62L683.39 914.74L686.68 912.83L678.12 907.88L684.15 904.38L691.72 908.75L694.96 906.87L687.39 902.49L693.45 898.97L702.02 903.91L705.28 902.01Z" fill="black"/>
<path d="M729.23 915.84L725.55 913.71L709.13 923.26L715.65 908L711.53 905.62L689.64 918.34L693.32 920.47L709.86 910.86L703.2 926.17L707.33 928.56L729.23 915.84Z" fill="black"/>
<path d="M727.41 930.87L741.42 927L734.8 935.13L727.41 930.87ZM747.22 926.23L742.74 923.64L712.72 931.67L716.54 933.87L723.15 932.05L732.76 937.6L729.64 941.43L733.46 943.63L747.22 926.22" fill="black"/>
</g>
<path d="M898.318 997.04C894.885 995.057 891.303 993.693 887.572 992.947C883.841 992.2 880.089 992.115 876.337 992.733C872.563 993.352 868.96 994.652 865.485 996.678L876.934 1004.05C878.17 1003.33 879.385 1002.75 880.494 1002.33C881.624 1001.9 882.861 1001.71 884.204 1001.73C885.568 1001.75 886.933 1002.18 888.34 1002.99C889.918 1003.91 890.813 1004.82 891.069 1005.72C891.325 1006.63 890.728 1007.51 889.278 1008.34C887.828 1009.17 886.229 1009.66 884.545 1009.73C882.839 1009.79 881.326 1009.43 880.004 1008.66L878.661 1007.89L869.621 1013.14L871.156 1014.03C872.925 1015.06 873.821 1016.06 873.821 1017.1C873.821 1018.13 872.904 1019.21 871.007 1020.3C869.365 1021.26 867.553 1021.73 865.591 1021.77C863.63 1021.81 861.583 1021.24 859.494 1020.02C857.66 1018.96 856.637 1018.02 856.423 1017.19C856.21 1016.36 856.573 1015.57 857.489 1014.82C858.385 1014.08 859.984 1013.03 862.265 1011.69L849.388 1004.84C845.166 1007.3 842.352 1009.66 840.902 1011.92C839.453 1014.18 839.41 1016.46 840.732 1018.77C842.075 1021.07 844.911 1023.46 849.239 1025.97C852.97 1028.13 856.829 1029.64 860.815 1030.49C864.802 1031.37 868.661 1031.54 872.435 1031.07C876.187 1030.58 879.577 1029.45 882.626 1027.66C884.907 1026.33 886.464 1024.97 887.253 1023.58C888.063 1022.2 888.319 1020.92 888.02 1019.7C887.743 1018.49 887.103 1017.4 886.144 1016.46C887.317 1016.7 888.788 1016.83 890.536 1016.83C892.263 1016.83 894.118 1016.61 896.058 1016.19C897.977 1015.78 899.789 1015.1 901.452 1014.12C903.904 1012.69 905.439 1011 906.057 1009.02C906.697 1007.06 906.356 1005.01 905.012 1002.88C903.691 1000.77 901.452 998.788 898.297 996.955" fill="black"/>
<g clip-path="url(#clip0_170_1198)">
<mask id="mask1_170_1198" style="mask-type:luminance" maskUnits="userSpaceOnUse" x="743" y="941" width="56" height="33">
<path d="M743 953.86L765.14 941L798.7 960.38L776.56 973.24L743 953.86Z" fill="white"/>
</mask>
<g mask="url(#mask1_170_1198)">
<path d="M785.75 952.9L781.77 953.08L783.04 962.53L755.48 946.61L752.65 948.25L780.22 964.17L763.91 963.46L763.62 965.77L784.56 966.68L787.63 966.81L787.39 965.04L785.75 952.9Z" fill="black"/>
</g>
</g>
<g clip-path="url(#clip1_170_1198)">
<mask id="mask2_170_1198" style="mask-type:luminance" maskUnits="userSpaceOnUse" x="16" y="184" width="99" height="120">
<path d="M16 246.763L16.1785 184L115 241.237L114.821 304L16 246.763Z" fill="white"/>
</mask>
<g mask="url(#mask2_170_1198)">
<path d="M24.5826 188.861C23.1415 188.03 21.8408 187.492 20.6675 187.249C19.507 187.019 18.5888 187.121 17.9129 187.582C17.237 188.03 16.8927 188.849 16.8927 190.026C16.8927 191.139 17.1987 192.226 17.8236 193.301C18.4485 194.375 19.2264 195.36 20.1319 196.269C21.0501 197.177 22.2361 198.239 23.6644 199.441C24.9397 200.516 25.9344 201.373 26.6358 202.013C27.3372 202.652 27.9238 203.33 28.3957 204.021C28.8803 204.725 29.1226 205.39 29.1099 206.043C29.1099 206.938 28.74 207.386 28.0259 207.411C27.299 207.411 26.3808 207.117 25.2585 206.465C23.9195 205.697 22.7972 204.738 21.8918 203.612C20.9863 202.486 20.438 201.335 20.2594 200.132L16.1403 198.597C16.3698 199.889 16.9054 201.194 17.7216 202.486C18.5378 203.778 19.5835 205.032 20.8588 206.196C22.1341 207.36 23.5496 208.409 25.1182 209.305C26.6868 210.2 27.9749 210.75 29.1991 211.045C30.4362 211.339 31.4309 211.275 32.1578 210.827C32.8974 210.392 33.2673 209.522 33.28 208.217C33.28 207.002 32.9357 205.812 32.2343 204.648C31.5329 203.484 30.6785 202.422 29.6837 201.437C28.689 200.465 27.4137 199.339 25.8962 198.06C24.7229 197.087 23.8302 196.333 23.2053 195.744C22.5804 195.168 22.0448 194.593 21.624 193.991C21.1904 193.403 20.9863 192.827 20.9863 192.29C20.9863 191.42 21.3562 190.972 22.0831 190.959C22.8227 190.959 23.7154 191.254 24.8249 191.893C25.9854 192.571 26.9546 193.377 27.7326 194.311C28.5105 195.258 29.0206 196.281 29.2501 197.394L33.127 198.789C32.8464 197.484 32.2981 196.205 31.4564 194.976C30.6274 193.748 29.6072 192.61 28.434 191.573C27.248 190.537 25.9727 189.629 24.6081 188.836" fill="black"/>
<path d="M51.9374 204.968L37.1314 196.384L37.1186 199.531L42.5386 202.665L42.4876 219.117L46.4792 221.433L46.5302 204.981L51.9246 208.115L51.9374 204.968Z" fill="black"/>
<path d="M60.3287 222.175L63.925 215.318L67.4703 226.32L60.316 222.175M66.3736 213.322L61.4892 210.495L53.2764 225.36L57.3828 227.74L59.1045 224.478L68.6691 230.017L70.3524 235.249L74.4843 237.642L66.3608 213.322" fill="black"/>
<path d="M83.9979 232.512V226.537L88.3084 229.019C89.4816 229.697 90.3871 230.49 91.012 231.411C91.6369 232.333 91.9429 233.215 91.9429 234.111C91.9429 235.006 91.6241 235.595 90.9992 235.761C90.3743 235.94 89.4689 235.672 88.2829 234.994L83.9979 232.512ZM88.2319 225.987L80.0063 221.215L79.9553 240.802L83.9724 243.13L83.9979 235.505L86.2807 236.823L91.7389 247.633L96.5084 250.397L90.4381 239.113C91.5348 239.574 92.4913 239.765 93.3202 239.701C94.1492 239.638 94.774 239.318 95.2204 238.755C95.6667 238.205 95.8708 237.437 95.8835 236.49C95.8835 235.288 95.6285 234.098 95.1056 232.883C94.5828 231.667 93.7538 230.478 92.6061 229.301C91.4711 228.124 90.03 227.023 88.2574 226" fill="black"/>
<path d="M115 241.492L100.194 232.908L100.181 236.055L105.588 239.19L105.55 255.629L109.542 257.944L109.593 241.505L114.987 244.64L115 241.492Z" fill="black"/>
<path d="M27.8091 216.367C26.4828 215.599 25.2203 215.164 24.0343 215.1C22.8482 215.036 21.828 215.343 20.9736 216.034C20.1191 216.738 19.5453 217.812 19.2137 219.296C18.9076 220.703 18.9459 222.008 19.3285 223.224C19.7111 224.439 20.2722 225.527 21.0118 226.499C21.7643 227.471 22.7335 228.558 23.9577 229.787C25.0545 230.887 25.8834 231.77 26.47 232.435C27.0567 233.113 27.5158 233.842 27.8346 234.622C28.1662 235.403 28.2427 236.196 28.0641 237.015C27.8218 238.128 27.299 238.767 26.521 238.934C25.7431 239.087 24.8249 238.87 23.8047 238.281C22.5677 237.565 21.6112 236.593 20.9481 235.364C20.2722 234.124 20.0044 232.78 20.1319 231.309L16.0765 230.158C15.9872 231.744 16.204 233.266 16.7269 234.75C17.2498 236.222 18.0532 237.578 19.0989 238.793C20.1574 240.021 21.3944 241.032 22.8482 241.876C24.2128 242.669 25.5263 243.143 26.7889 243.283C28.0386 243.424 29.1226 243.143 30.0408 242.452C30.959 241.761 31.6094 240.597 31.9537 238.959C32.2853 237.437 32.2216 236.017 31.788 234.699C31.3416 233.382 30.704 232.192 29.9005 231.168C29.0844 230.132 28.0259 228.968 26.7251 227.65C25.7304 226.665 24.978 225.872 24.4423 225.271C23.9195 224.682 23.5114 224.042 23.2053 223.377C22.8993 222.712 22.8227 222.047 22.9758 221.369C23.2181 220.281 23.7282 219.654 24.5189 219.501C25.3095 219.347 26.2022 219.552 27.2225 220.141C28.2937 220.767 29.1226 221.586 29.7093 222.61C30.2959 223.633 30.5637 224.836 30.5127 226.192L34.313 227.19C34.364 225.603 34.1217 224.119 33.5478 222.738C32.9867 221.356 32.196 220.128 31.2013 219.053C30.2066 217.979 29.0716 217.07 27.8218 216.354" fill="black"/>
<path d="M45.1146 228.93L42.2707 227.279C41.9392 228.776 41.5948 229.825 41.225 230.439C40.8679 231.066 40.3961 231.36 39.8477 231.335C39.2866 231.309 38.5087 231.002 37.4884 230.414L36.7615 233.714L39.6437 235.377L37.7052 244.23C37.3482 245.868 37.4374 247.352 37.9858 248.695C38.5342 250.038 39.4651 251.087 40.8042 251.855L43.2655 253.288L43.9796 250L42.6661 249.245C42.105 248.925 41.7096 248.478 41.4801 247.889C41.2505 247.313 41.225 246.635 41.3908 245.842L43.2272 237.463L46.3261 239.254L47.0403 235.953L43.9414 234.162L45.0891 228.904" fill="black"/>
<path d="M59.7549 243.091C59.079 242.695 58.3903 242.452 57.7144 242.375C57.0258 242.286 56.4009 242.337 55.827 242.516C55.2531 242.695 54.7813 243.002 54.4242 243.399L55.0491 240.584L51.6186 238.601L47.831 255.936L51.4145 258.008L53.3275 249.296C53.5953 248.068 53.9778 247.185 54.4625 246.648C54.9471 246.111 55.5719 245.88 56.2861 245.957C57.0003 246.021 57.8802 246.341 58.9132 246.942L59.7676 243.079" fill="black"/>
<path d="M67.1005 263.625C66.297 263.164 65.6466 262.512 65.111 261.693C64.5882 260.861 64.2311 259.927 64.0653 258.866C63.8995 257.817 63.9378 256.729 64.1801 255.629C64.4224 254.541 64.8177 253.659 65.3533 253.019C65.8889 252.379 66.5266 252.008 67.2662 251.906C67.9932 251.804 68.7456 251.983 69.5362 252.443C70.3269 252.904 71.0283 253.569 71.5639 254.401C72.1123 255.245 72.4694 256.179 72.6352 257.241C72.801 258.303 72.7755 259.377 72.5332 260.478C72.2909 261.591 71.8955 262.46 71.3471 263.1C70.7988 263.74 70.1611 264.111 69.4215 264.2C68.6818 264.29 67.9039 264.098 67.0877 263.625M70.3142 249.053C68.8221 248.183 67.4065 247.774 66.0802 247.825C64.7539 247.876 63.6189 248.388 62.6625 249.373C61.706 250.345 61.0301 251.753 60.622 253.569C60.2139 255.411 60.2012 257.215 60.571 258.955C60.9281 260.708 61.6168 262.281 62.6242 263.676C63.6317 265.083 64.8815 266.209 66.3608 267.066C67.8401 267.923 69.2684 268.345 70.5947 268.294C71.921 268.243 73.056 267.731 74.0125 266.746C74.9689 265.774 75.6448 264.354 76.0529 262.499C76.461 260.669 76.4738 258.891 76.1167 257.164C75.7596 255.424 75.071 253.851 74.0635 252.456C73.056 251.049 71.7935 249.923 70.3014 249.053" fill="black"/>
<path d="M90.6294 260.823C89.6984 260.286 88.793 259.991 87.9513 259.953C87.1096 259.915 86.3572 260.132 85.6941 260.605L86.1277 258.597L82.5696 256.537L78.782 273.872L82.3401 275.932L84.4825 266.106C84.8269 264.597 85.3752 263.676 86.1532 263.33C86.9311 262.985 87.811 263.1 88.7802 263.663C89.5837 264.123 90.1958 264.789 90.5911 265.659C90.9865 266.516 91.0502 267.539 90.7952 268.729L88.4359 279.475L92.0195 281.548L94.57 269.88C94.9909 267.961 94.8506 266.222 94.1619 264.648C93.4605 263.074 92.2873 261.795 90.6166 260.823" fill="black"/>
<path d="M104.708 284.311C103.969 283.876 103.331 283.262 102.808 282.456C102.285 281.663 101.928 280.755 101.75 279.77C101.571 278.785 101.571 277.825 101.788 276.878C101.992 275.919 102.362 275.151 102.885 274.576C103.408 274 104.033 273.68 104.734 273.591C105.448 273.514 106.188 273.693 106.94 274.128C107.693 274.563 108.33 275.202 108.84 275.996C109.363 276.814 109.72 277.71 109.899 278.695C110.077 279.68 110.077 280.627 109.873 281.561C109.669 282.469 109.299 283.224 108.777 283.8C108.241 284.362 107.629 284.708 106.915 284.81C106.201 284.9 105.461 284.746 104.708 284.311ZM106.825 270.2C105.627 269.497 104.428 269.215 103.255 269.33C102.094 269.458 101.061 269.996 100.181 270.942C99.3013 271.889 98.6764 273.207 98.3193 274.87C97.9495 276.533 97.924 278.183 98.2428 279.846C98.5489 281.497 99.1355 282.981 99.9899 284.286C100.832 285.591 101.865 286.588 103.051 287.279C104.033 287.842 104.989 288.124 105.92 288.111C106.864 288.111 107.629 287.817 108.241 287.254L107.718 289.646C107.323 291.463 106.685 292.678 105.792 293.266C104.913 293.868 103.803 293.778 102.464 292.998C101.431 292.397 100.628 291.603 100.079 290.644C99.5181 289.672 99.161 288.456 99.008 287.023L95.7177 286.87C96.1003 291.117 98.1408 294.315 101.852 296.452C104.211 297.821 106.213 298.102 107.858 297.309C109.504 296.516 110.677 294.559 111.365 291.411L114.898 275.228L111.48 273.258L110.843 275.778C110.613 274.665 110.154 273.591 109.44 272.58C108.713 271.569 107.846 270.763 106.825 270.175" fill="black"/>
</g>
</g>
<mask id="mask3_170_1198" style="mask-type:luminance" maskUnits="userSpaceOnUse" x="10" y="464" width="39" height="58">
<path d="M10 502.919L10.1135 464L49 483.081L48.8676 522L10 502.919Z" fill="white"/>
</mask>
<g mask="url(#mask3_170_1198)">
<path d="M18.7193 493.563L33.0748 481.233L33.018 500.572L18.7193 493.563ZM42.1912 479.722L29.6325 473.565L10.0379 489.287V495.395L32.9991 506.664V514.187L42.0588 518.64V511.117L48.9055 514.461V508.368L42.0966 505.024L42.1722 479.722" fill="black"/>
</g>
<mask id="mask4_170_1198" style="mask-type:luminance" maskUnits="userSpaceOnUse" x="10" y="535" width="105" height="80">
<path d="M10 553.885L10.0552 535.055L115 595.645L114.945 614.475L10 553.885Z" fill="white"/>
</mask>
<g mask="url(#mask4_170_1198)">
<path d="M39.4597 552.27L35.5667 550.02L31.1353 561.781L26.3726 544.719L23.1423 542.855L18.283 554.354L13.9759 537.554L10.0553 535.29L15.6048 556.867L20.3537 559.6L24.7437 549.895L29.0508 564.625L33.7997 567.372L39.4597 552.27Z" fill="black" fill-opacity="0.6"/>
<path d="M56.2464 561.96L44.4708 555.168L44.4156 573.501L56.1912 580.293L56.205 577.339L48.2395 572.742L48.2533 567.993L55.2938 572.066L55.3076 569.153L48.2533 565.08L48.2672 560.318L56.2326 564.915L56.2464 561.96Z" fill="black" fill-opacity="0.6"/>
<path d="M73.765 572.08L62.0033 565.288L61.9481 583.62L73.7236 590.413V587.458L65.772 582.861L65.7858 578.126L72.8263 582.185V579.272L65.7858 575.2L65.7996 570.437L73.765 575.034V572.08Z" fill="black" fill-opacity="0.6"/>
<path d="M96.2394 585.056L91.6285 582.392L83.2766 586.037L83.3042 577.588L79.5354 575.407L79.4802 593.74L83.249 595.921L83.2766 586.685L91.6837 600.78L96.5155 603.569L87.4871 588.77L96.2394 585.056Z" fill="black" fill-opacity="0.6"/>
<path d="M106.8 590.909C105.447 590.123 104.232 589.639 103.128 589.405C102.024 589.17 101.182 589.294 100.547 589.708C99.9253 590.136 99.594 590.896 99.594 592C99.594 593.104 99.8839 594.071 100.464 595.065C101.044 596.059 101.775 596.997 102.631 597.84C103.487 598.695 104.605 599.689 105.944 600.821C107.145 601.815 108.07 602.616 108.733 603.223C109.382 603.817 109.934 604.452 110.389 605.101C110.831 605.75 111.052 606.385 111.052 606.992C111.052 607.82 110.707 608.262 110.03 608.276C109.354 608.29 108.484 608 107.435 607.392C106.179 606.661 105.13 605.777 104.274 604.728C103.418 603.679 102.907 602.588 102.742 601.47L98.8623 600.021C99.0832 601.236 99.5802 602.45 100.339 603.665C101.099 604.894 102.093 606.04 103.294 607.144C104.481 608.235 105.82 609.215 107.297 610.057C108.691 610.858 109.961 611.41 111.121 611.686C112.281 611.962 113.206 611.893 113.896 611.479C114.6 611.065 114.945 610.25 114.945 609.035C114.945 607.903 114.614 606.799 113.951 605.708C113.288 604.618 112.488 603.624 111.549 602.699C110.61 601.788 109.423 600.739 107.987 599.538C106.897 598.626 106.055 597.922 105.461 597.37C104.867 596.832 104.384 596.293 103.984 595.741C103.584 595.189 103.377 594.651 103.377 594.154C103.377 593.339 103.722 592.925 104.398 592.911C105.088 592.911 105.944 593.187 106.966 593.781C108.056 594.416 108.981 595.161 109.699 596.045C110.431 596.928 110.9 597.881 111.121 598.93L114.752 600.242C114.503 599.027 113.979 597.826 113.192 596.666C112.405 595.506 111.466 594.457 110.348 593.477C109.244 592.511 108.043 591.641 106.759 590.909" fill="black" fill-opacity="0.6"/>
</g>
<mask id="mask5_170_1198" style="mask-type:luminance" maskUnits="userSpaceOnUse" x="10" y="508" width="105" height="81">
<path d="M10 527.656L10.0552 508.826L115 569.416L114.945 588.246L10 527.656Z" fill="white"/>
</mask>
<g mask="url(#mask5_170_1198)">
<path d="M39.4597 526.041L35.5667 523.79L31.1353 535.552L26.3726 518.489L23.1423 516.626L18.283 528.125L13.9759 511.325L10.0553 509.061L15.6048 530.638L20.3537 533.371L24.7437 523.666L29.0508 538.396L33.7997 541.143L39.4597 526.041Z" fill="black"/>
<path d="M56.2464 535.731L44.4708 528.939L44.4156 547.272L56.1912 554.064L56.205 551.11L48.2395 546.513L48.2533 541.764L55.2938 545.837L55.3076 542.924L48.2533 538.851L48.2672 534.089L56.2326 538.686L56.2464 535.731Z" fill="black"/>
<path d="M73.765 545.851L62.0033 539.059L61.9481 557.391L73.7236 564.183V561.229L65.772 556.632L65.7858 551.897L72.8263 555.956V553.043L65.7858 548.971L65.7996 544.208L73.765 548.805V545.851Z" fill="black"/>
<path d="M96.2394 558.827L91.6285 556.163L83.2766 559.807L83.3042 551.359L79.5354 549.177L79.4802 567.51L83.249 569.692L83.2766 560.456L91.6837 574.551L96.5155 577.339L87.4871 562.541L96.2394 558.827Z" fill="black"/>
<path d="M106.8 564.68C105.447 563.894 104.232 563.41 103.128 563.176C102.024 562.941 101.182 563.065 100.547 563.479C99.9253 563.907 99.594 564.667 99.594 565.771C99.594 566.875 99.8839 567.842 100.464 568.836C101.044 569.83 101.775 570.768 102.631 571.611C103.487 572.466 104.605 573.46 105.944 574.592C107.145 575.586 108.07 576.387 108.733 576.994C109.382 577.588 109.934 578.223 110.389 578.872C110.831 579.521 111.052 580.156 111.052 580.763C111.052 581.591 110.707 582.033 110.03 582.047C109.354 582.061 108.484 581.771 107.435 581.163C106.179 580.432 105.13 579.548 104.274 578.499C103.418 577.45 102.907 576.359 102.742 575.241L98.8623 573.792C99.0832 575.007 99.5802 576.221 100.339 577.436C101.099 578.665 102.093 579.811 103.294 580.915C104.481 582.006 105.82 582.986 107.297 583.828C108.691 584.629 109.961 585.181 111.121 585.457C112.281 585.733 113.206 585.664 113.896 585.25C114.6 584.836 114.945 584.021 114.945 582.806C114.945 581.674 114.614 580.57 113.951 579.479C113.288 578.389 112.488 577.395 111.549 576.47C110.61 575.559 109.423 574.51 107.987 573.309C106.897 572.397 106.055 571.693 105.461 571.141C104.867 570.603 104.384 570.064 103.984 569.512C103.584 568.96 103.377 568.422 103.377 567.925C103.377 567.11 103.722 566.696 104.398 566.682C105.088 566.682 105.944 566.958 106.966 567.552C108.056 568.187 108.981 568.932 109.699 569.816C110.431 570.699 110.9 571.652 111.121 572.701L114.752 574.013C114.503 572.798 113.979 571.597 113.192 570.437C112.405 569.277 111.466 568.228 110.348 567.248C109.244 566.282 108.043 565.412 106.759 564.68" fill="black"/>
</g>
<mask id="mask6_170_1198" style="mask-type:luminance" maskUnits="userSpaceOnUse" x="10" y="561" width="105" height="80">
<path d="M10 580.115L10.0552 561.285L115 621.874L114.945 640.704L10 580.115Z" fill="white"/>
</mask>
<g mask="url(#mask6_170_1198)">
<path d="M39.4597 578.499L35.5667 576.249L31.1353 588.011L26.3726 570.948L23.1423 569.084L18.283 580.584L13.9759 563.783L10.0553 561.519L15.6048 583.096L20.3537 585.829L24.7437 576.125L29.0508 590.854L33.7997 593.602L39.4597 578.499Z" fill="black" fill-opacity="0.3"/>
<path d="M56.2464 588.19L44.4708 581.398L44.4156 599.731L56.1912 606.523L56.205 603.569L48.2395 598.972L48.2533 594.223L55.2938 598.295L55.3076 595.382L48.2533 591.31L48.2672 586.547L56.2326 591.144L56.2464 588.19Z" fill="black" fill-opacity="0.3"/>
<path d="M73.765 598.309L62.0033 591.517L61.9481 609.85L73.7236 616.642V613.688L65.772 609.091L65.7858 604.356L72.8263 608.414V605.501L65.7858 601.429L65.7996 596.666L73.765 601.263V598.309Z" fill="black" fill-opacity="0.3"/>
<path d="M96.2394 611.286L91.6285 608.622L83.2766 612.266L83.3042 603.817L79.5354 601.636L79.4802 619.969L83.249 622.15L83.2766 612.915L91.6837 627.01L96.5155 629.798L87.4871 614.999L96.2394 611.286Z" fill="black" fill-opacity="0.3"/>
<path d="M106.8 617.139C105.447 616.352 104.232 615.869 103.128 615.634C102.024 615.4 101.182 615.524 100.547 615.938C99.9253 616.366 99.594 617.125 99.594 618.23C99.594 619.334 99.8839 620.3 100.464 621.294C101.044 622.288 101.775 623.227 102.631 624.069C103.487 624.925 104.605 625.919 105.944 627.051C107.145 628.045 108.07 628.846 108.733 629.453C109.382 630.047 109.934 630.682 110.389 631.33C110.831 631.979 111.052 632.614 111.052 633.222C111.052 634.05 110.707 634.492 110.03 634.506C109.354 634.519 108.484 634.229 107.435 633.622C106.179 632.89 105.13 632.007 104.274 630.958C103.418 629.908 102.907 628.818 102.742 627.7L98.8623 626.25C99.0832 627.465 99.5802 628.68 100.339 629.895C101.099 631.123 102.093 632.269 103.294 633.374C104.481 634.464 105.82 635.444 107.297 636.286C108.691 637.087 109.961 637.639 111.121 637.915C112.281 638.191 113.206 638.122 113.896 637.708C114.6 637.294 114.945 636.48 114.945 635.265C114.945 634.133 114.614 633.028 113.951 631.938C113.288 630.847 112.488 629.853 111.549 628.928C110.61 628.017 109.423 626.968 107.987 625.767C106.897 624.856 106.055 624.152 105.461 623.6C104.867 623.061 104.384 622.523 103.984 621.971C103.584 621.418 103.377 620.88 103.377 620.383C103.377 619.569 103.722 619.154 104.398 619.141C105.088 619.141 105.944 619.417 106.966 620.01C108.056 620.645 108.981 621.391 109.699 622.274C110.431 623.158 110.9 624.11 111.121 625.16L114.752 626.471C114.503 625.256 113.979 624.055 113.192 622.896C112.405 621.736 111.466 620.687 110.348 619.707C109.244 618.74 108.043 617.871 106.759 617.139" fill="black" fill-opacity="0.3"/>
</g>
<g clip-path="url(#clip2_170_1198)">
<mask id="mask7_170_1198" style="mask-type:luminance" maskUnits="userSpaceOnUse" x="14" y="622" width="105" height="102">
<path d="M14 663.2L14.12 622L118.97 682.53L118.85 723.74L14 663.2Z" fill="white"/>
</mask>
<g mask="url(#mask7_170_1198)">
<path d="M19.29 624.99C18.43 624.49 17.64 624.2 16.91 624.13C16.19 624.05 15.61 624.24 15.17 624.68C14.73 625.13 14.51 625.85 14.51 626.86C14.51 627.87 14.71 628.74 15.12 629.57C15.53 630.4 16.05 631.15 16.67 631.81C17.29 632.47 18.1 633.24 19.1 634.12C20.07 634.97 20.84 635.68 21.38 636.23C21.93 636.78 22.39 637.39 22.76 638.06C23.14 638.72 23.32 639.42 23.32 640.16C23.32 640.9 23.15 641.41 22.81 641.68C22.47 641.95 22.04 642.04 21.5 641.94C20.96 641.84 20.38 641.61 19.75 641.25C19.03 640.83 18.37 640.32 17.78 639.71C17.19 639.11 16.7 638.45 16.31 637.74C15.92 637.02 15.66 636.29 15.54 635.55L14.07 635.11C14.24 636.1 14.58 637.08 15.08 638.02C15.59 638.97 16.24 639.85 17.02 640.66C17.81 641.47 18.7 642.16 19.7 642.74C20.63 643.28 21.48 643.6 22.26 643.71C23.03 643.81 23.64 643.63 24.11 643.19C24.57 642.74 24.81 641.99 24.81 640.91C24.81 639.83 24.57 638.86 24.1 637.95C23.62 637.04 23.04 636.24 22.37 635.55C21.69 634.86 20.81 634.04 19.7 633.07C18.86 632.35 18.19 631.72 17.7 631.22C17.2 630.7 16.79 630.16 16.46 629.57C16.14 628.98 15.98 628.37 15.98 627.73C15.98 627.01 16.14 626.52 16.46 626.23C16.78 625.94 17.19 625.84 17.7 625.92C18.21 626 18.75 626.21 19.32 626.54C20.28 627.09 21.1 627.81 21.8 628.7C22.5 629.6 22.95 630.58 23.15 631.66L24.56 632.05C24.4 631.07 24.06 630.14 23.56 629.25C23.06 628.36 22.45 627.56 21.71 626.84C20.98 626.12 20.17 625.5 19.29 625" fill="black"/>
<path d="M39.54 636.91L37.73 635.87L31.09 640.06L31.11 632.05L29.66 631.21L29.61 648.22L31.06 649.06L31.09 640.29L37.97 653.05L39.84 654.13L32.79 641.12L39.54 636.91Z" fill="black"/>
<path d="M45.48 640.34L44.03 639.5L43.98 656.52L45.43 657.35L45.48 640.34Z" fill="black"/>
<path d="M52.83 644.58L51.38 643.75L51.33 660.76L58.05 664.64L58.06 663.08L52.78 660.03L52.83 644.58Z" fill="black"/>
<path d="M63.71 650.87L62.26 650.03L62.21 667.05L68.94 670.93V669.36L63.67 666.32L63.71 650.87Z" fill="black"/>
<path d="M89.68 665.86L88.21 665.01L88.18 676.25C88.18 677.2 88.02 677.91 87.68 678.39C87.35 678.86 86.9 679.11 86.33 679.12C85.76 679.13 85.12 678.93 84.4 678.51C83.68 678.09 83.05 677.56 82.48 676.89C81.92 676.23 81.47 675.47 81.16 674.62C80.84 673.77 80.68 672.87 80.68 671.92L80.71 660.68L79.26 659.84L79.23 671.33C79.23 672.49 79.45 673.64 79.89 674.76C80.34 675.89 80.96 676.92 81.74 677.84C82.53 678.77 83.41 679.5 84.39 680.07C85.37 680.64 86.27 680.93 87.07 680.92C87.86 680.91 88.49 680.6 88.95 679.99C89.41 679.39 89.64 678.5 89.65 677.34L89.68 665.85" fill="black"/>
<path d="M106.07 675.32L104.63 674.49L104.58 688.67L96.68 669.9L95.27 669.09L95.22 686.1L96.64 686.92L96.68 672.66L104.59 691.51L106.02 692.34L106.07 675.32Z" fill="black"/>
<path d="M118.94 692.61L111.39 688.25V689.61L118.93 693.96L118.94 692.61Z" fill="black"/>
<path d="M16.69 647.48L15.24 646.64L15.19 663.66L21.92 667.54V665.97L16.65 662.93L16.69 647.48Z" fill="black"/>
<path d="M31.81 671.84C30.73 671.22 29.75 670.37 28.88 669.3C28 668.23 27.31 667.02 26.8 665.65C26.3 664.29 26.05 662.86 26.05 661.39C26.05 659.92 26.31 658.79 26.82 658.02C27.33 657.25 28.03 656.84 28.91 656.79C29.79 656.74 30.77 657.03 31.85 657.65C32.93 658.27 33.91 659.12 34.78 660.18C35.65 661.24 36.34 662.46 36.84 663.81C37.34 665.17 37.59 666.58 37.59 668.06C37.59 669.54 37.33 670.66 36.82 671.44C36.31 672.22 35.62 672.64 34.74 672.69C33.87 672.75 32.89 672.47 31.81 671.84ZM31.85 655.99C30.49 655.2 29.26 654.85 28.16 654.92C27.06 654.99 26.19 655.5 25.55 656.45C24.91 657.41 24.59 658.77 24.59 660.54C24.59 662.31 24.9 664.06 25.53 665.74C26.16 667.43 27.03 668.94 28.13 670.28C29.23 671.62 30.45 672.68 31.81 673.46C33.17 674.24 34.39 674.6 35.5 674.53C36.59 674.46 37.47 673.94 38.11 672.99C38.75 672.03 39.07 670.66 39.07 668.89C39.07 667.12 38.76 665.38 38.13 663.7C37.5 662.01 36.63 660.5 35.54 659.16C34.44 657.82 33.21 656.76 31.86 655.98" fill="black"/>
<path d="M50.21 666.6C48.85 665.81 47.62 665.46 46.52 665.53C45.42 665.6 44.55 666.11 43.91 667.07C43.27 668.02 42.95 669.39 42.95 671.16C42.95 672.93 43.25 674.67 43.89 676.36C44.52 678.05 45.38 679.56 46.48 680.9C47.58 682.24 48.81 683.3 50.17 684.09C51.53 684.88 52.83 685.24 53.95 685.14C55.07 685.03 55.93 684.47 56.51 683.45L55.18 682C54.7 682.79 54.01 683.21 53.13 683.28C52.25 683.34 51.26 683.07 50.17 682.44C49.08 681.81 48.11 680.97 47.23 679.9C46.35 678.83 45.66 677.62 45.16 676.26C44.65 674.89 44.4 673.48 44.4 672.01C44.4 670.54 44.66 669.41 45.18 668.64C45.69 667.87 46.39 667.45 47.27 667.41C48.15 667.36 49.14 667.65 50.22 668.27C51.3 668.89 52.3 669.76 53.18 670.85C54.06 671.93 54.74 673.14 55.22 674.49L56.55 674.57C55.97 672.87 55.12 671.33 54.01 669.93C52.89 668.53 51.63 667.42 50.23 666.62" fill="black"/>
<path d="M70.92 678.79L69.12 677.75L62.47 681.94L62.5 673.92L61.05 673.09L61 690.1L62.45 690.94L62.47 682.17L69.35 694.92L71.23 696.01L64.18 683.01L70.92 678.79Z" fill="black"/>
<path d="M83.07 685.8L75.41 681.38L75.36 698.39L83.03 702.82V701.26L76.89 697.71L76.91 691.55L82.3 694.67V693.12L76.91 690.01L76.93 683.82L83.07 687.37V685.8Z" fill="black"/>
<path d="M89.21 704.82L89.25 690.93L92.31 692.7C93.46 693.36 94.42 694.21 95.21 695.23C95.99 696.25 96.57 697.4 96.95 698.66C97.33 699.92 97.52 701.26 97.52 702.66C97.52 704.06 97.31 705.17 96.93 705.99C96.54 706.81 95.95 707.28 95.17 707.4C94.38 707.52 93.42 707.25 92.27 706.58L89.21 704.81M92.33 691.14L87.8 688.53L87.75 705.54L92.28 708.15C93.72 708.98 94.94 709.33 95.95 709.19C96.96 709.05 97.72 708.49 98.24 707.51C98.75 706.52 99.01 705.19 99.02 703.52C99.03 701.85 98.77 700.23 98.27 698.65C97.76 697.07 97.01 695.63 96 694.33C95 693.03 93.77 691.97 92.34 691.14" fill="black"/>
</g>
</g>
<g clip-path="url(#clip3_170_1198)">
<mask id="mask8_170_1198" style="mask-type:luminance" maskUnits="userSpaceOnUse" x="51" y="693" width="54" height="81">
<path d="M51 742.19L51.14 693L104.96 724.07L104.82 773.26L51 742.19Z" fill="white"/>
</mask>
<g mask="url(#mask8_170_1198)">
<path d="M101.44 722.04L65.55 742.51L54.57 723.49L51.05 725.5L65.53 750.58L104.94 728.11L101.44 722.04Z" fill="black"/>
</g>
</g>
<defs>
<clipPath id="clip0_170_1198">
<rect width="55.7" height="32.24" fill="white" transform="translate(743 941)"/>
</clipPath>
<clipPath id="clip1_170_1198">
<rect width="99" height="120" fill="white" transform="translate(16 184)"/>
</clipPath>
<clipPath id="clip2_170_1198">
<rect width="104.97" height="101.74" fill="white" transform="translate(14 622)"/>
</clipPath>
<clipPath id="clip3_170_1198">
<rect width="53.96" height="80.26" fill="white" transform="translate(51 693)"/>
</clipPath>
</defs>
</svg>
