<svg width="100%" height="100%" viewBox="0 0 443 474" fill="none" xmlns="http://www.w3.org/2000/svg">
<g filter="url(#filter0_d_146_25562)">
<rect x="24" y="94" width="395" height="344" fill="black"/>
<path d="M215.391 414.713C214.008 414.713 212.974 414.341 212.289 413.597C211.609 412.847 211.269 411.751 211.269 410.31L212.816 410.231C212.816 410.917 212.895 411.488 213.053 411.945C213.217 412.396 213.487 412.742 213.862 412.982C214.243 413.216 214.753 413.333 215.391 413.333C215.913 413.333 216.373 413.234 216.771 413.035C217.175 412.83 217.489 412.545 217.712 412.182C217.934 411.813 218.046 411.391 218.046 410.917C218.046 410.43 217.934 410.008 217.712 409.651C217.495 409.288 217.196 409.012 216.815 408.825C216.44 408.631 216.024 408.535 215.567 408.535H214.952V407.243H215.549C215.895 407.243 216.214 407.158 216.507 406.988C216.8 406.812 217.032 406.575 217.202 406.276C217.378 405.971 217.465 405.634 217.465 405.265C217.465 404.902 217.375 404.577 217.193 404.29C217.011 404.002 216.759 403.78 216.437 403.622C216.121 403.458 215.763 403.375 215.365 403.375C214.615 403.375 214.088 403.598 213.783 404.043C213.484 404.483 213.335 405.098 213.335 405.889L211.788 405.836C211.788 404.606 212.095 403.66 212.711 402.998C213.332 402.335 214.213 402.004 215.356 402.004C216.024 402.004 216.628 402.142 217.167 402.417C217.706 402.693 218.13 403.071 218.441 403.551C218.752 404.032 218.907 404.568 218.907 405.16C218.907 405.769 218.743 406.305 218.415 406.768C218.087 407.231 217.673 407.565 217.175 407.77C217.884 407.975 218.464 408.353 218.916 408.904C219.367 409.455 219.592 410.149 219.592 410.987C219.592 411.725 219.411 412.375 219.047 412.938C218.69 413.5 218.192 413.937 217.553 414.248C216.915 414.558 216.194 414.713 215.391 414.713ZM227.493 402.171V414.546H225.99V403.833L223.02 406.408V404.782L226.07 402.171H227.493Z" fill="#FDFAF5"/>
<path d="M165.007 414.713C163.624 414.713 162.59 414.341 161.904 413.597C161.224 412.847 160.885 411.751 160.885 410.31L162.431 410.231C162.431 410.917 162.511 411.488 162.669 411.945C162.833 412.396 163.102 412.742 163.477 412.982C163.858 413.216 164.368 413.333 165.007 413.333C165.528 413.333 165.988 413.234 166.387 413.035C166.791 412.83 167.104 412.545 167.327 412.182C167.55 411.813 167.661 411.391 167.661 410.917C167.661 410.43 167.55 410.008 167.327 409.651C167.11 409.288 166.811 409.012 166.431 408.825C166.056 408.631 165.64 408.535 165.182 408.535H164.567V407.243H165.165C165.511 407.243 165.83 407.158 166.123 406.988C166.416 406.812 166.647 406.575 166.817 406.276C166.993 405.971 167.081 405.634 167.081 405.265C167.081 404.902 166.99 404.577 166.808 404.29C166.627 404.002 166.375 403.78 166.053 403.622C165.736 403.458 165.379 403.375 164.98 403.375C164.23 403.375 163.703 403.598 163.398 404.043C163.099 404.483 162.95 405.098 162.95 405.889L161.403 405.836C161.403 404.606 161.711 403.66 162.326 402.998C162.947 402.335 163.829 402.004 164.972 402.004C165.64 402.004 166.243 402.142 166.782 402.417C167.321 402.693 167.746 403.071 168.056 403.551C168.367 404.032 168.522 404.568 168.522 405.16C168.522 405.769 168.358 406.305 168.03 406.768C167.702 407.231 167.289 407.565 166.791 407.77C167.5 407.975 168.08 408.353 168.531 408.904C168.982 409.455 169.208 410.149 169.208 410.987C169.208 411.725 169.026 412.375 168.663 412.938C168.306 413.5 167.807 413.937 167.169 414.248C166.53 414.558 165.809 414.713 165.007 414.713ZM175.597 414.713C174.724 414.713 173.98 414.476 173.365 414.001C172.75 413.521 172.281 412.806 171.958 411.857C171.636 410.908 171.475 409.739 171.475 408.35C171.475 406.264 171.827 404.685 172.53 403.613C173.239 402.541 174.261 402.004 175.597 402.004C176.921 402.004 177.938 402.543 178.647 403.622C179.356 404.694 179.71 406.27 179.71 408.35C179.71 409.739 179.546 410.908 179.218 411.857C178.896 412.806 178.427 413.521 177.812 414.001C177.197 414.476 176.458 414.713 175.597 414.713ZM175.597 413.307C176.435 413.307 177.077 412.894 177.522 412.068C177.967 411.242 178.19 410.002 178.19 408.35C178.19 406.686 177.961 405.45 177.504 404.641C177.053 403.827 176.417 403.419 175.597 403.419C174.771 403.419 174.132 403.824 173.681 404.632C173.23 405.441 173.004 406.68 173.004 408.35C173.004 410.008 173.224 411.25 173.664 412.077C174.109 412.897 174.753 413.307 175.597 413.307Z" fill="#FDFAF5"/>
<path d="M118.867 413.149V414.546H110.518V413.395L115.475 408.271C116.014 407.72 116.386 407.231 116.591 406.803C116.796 406.375 116.899 405.951 116.899 405.529C116.899 405.06 116.802 404.659 116.608 404.325C116.415 403.991 116.149 403.739 115.809 403.569C115.475 403.393 115.091 403.305 114.657 403.305C113.948 403.305 113.383 403.519 112.961 403.947C112.545 404.369 112.337 405.031 112.337 405.933V406.847L110.817 406.707V405.942C110.817 405.086 110.978 404.363 111.3 403.771C111.622 403.173 112.07 402.728 112.645 402.435C113.225 402.136 113.896 401.987 114.657 401.987C115.366 401.987 116.002 402.127 116.565 402.409C117.133 402.684 117.578 403.088 117.9 403.622C118.229 404.149 118.393 404.773 118.393 405.494C118.393 406.138 118.252 406.736 117.971 407.287C117.695 407.832 117.25 408.423 116.635 409.062L112.706 413.149H118.867ZM125.186 402.031C125.983 402.031 126.71 402.207 127.366 402.558C128.028 402.91 128.55 403.402 128.93 404.035C129.311 404.667 129.502 405.388 129.502 406.197C129.502 407.222 129.141 408.212 128.421 409.167L124.281 414.546H122.462L125.881 410.24C125.552 410.328 125.207 410.372 124.843 410.372C124.164 410.372 123.522 410.205 122.919 409.871C122.321 409.531 121.838 409.047 121.468 408.42C121.105 407.788 120.924 407.058 120.924 406.232C120.924 405.412 121.114 404.682 121.495 404.043C121.876 403.405 122.391 402.91 123.042 402.558C123.692 402.207 124.407 402.031 125.186 402.031ZM125.248 409.176C125.781 409.176 126.259 409.05 126.68 408.798C127.108 408.541 127.442 408.195 127.682 407.761C127.923 407.322 128.043 406.838 128.043 406.311C128.043 405.719 127.92 405.209 127.674 404.782C127.433 404.348 127.099 404.02 126.672 403.797C126.25 403.569 125.766 403.455 125.221 403.455C124.694 403.455 124.214 403.572 123.78 403.806C123.352 404.035 123.015 404.363 122.769 404.791C122.523 405.212 122.4 405.708 122.4 406.276C122.4 406.862 122.523 407.375 122.769 407.814C123.021 408.253 123.361 408.59 123.789 408.825C124.222 409.059 124.709 409.176 125.248 409.176Z" fill="#FDFAF5"/>
<path d="M68.4828 413.149V414.546H60.1332V413.395L65.0902 408.271C65.6293 407.72 66.0013 407.231 66.2064 406.803C66.4115 406.375 66.514 405.951 66.514 405.529C66.514 405.06 66.4173 404.659 66.224 404.325C66.0306 403.991 65.764 403.739 65.4242 403.569C65.0902 403.393 64.7064 403.305 64.2728 403.305C63.5638 403.305 62.9984 403.519 62.5765 403.947C62.1605 404.369 61.9525 405.031 61.9525 405.933V406.847L60.432 406.707V405.942C60.432 405.086 60.5931 404.363 60.9154 403.771C61.2376 403.173 61.6859 402.728 62.2601 402.435C62.8402 402.136 63.5111 401.987 64.2728 401.987C64.9818 401.987 65.6175 402.127 66.18 402.409C66.7484 402.684 67.1937 403.088 67.516 403.622C67.8441 404.149 68.0082 404.773 68.0082 405.494C68.0082 406.138 67.8675 406.736 67.5863 407.287C67.3109 407.832 66.8656 408.423 66.2503 409.062L62.3216 413.149H68.4828ZM74.8369 414.713C74.0518 414.713 73.3398 414.561 72.7012 414.256C72.0625 413.952 71.5586 413.518 71.1894 412.956C70.8203 412.387 70.6357 411.734 70.6357 410.996C70.6357 410.216 70.8437 409.542 71.2598 408.974C71.6758 408.406 72.2412 407.99 72.956 407.726C72.4463 407.474 72.0391 407.123 71.7344 406.671C71.4355 406.214 71.2861 405.705 71.2861 405.142C71.2861 404.539 71.4385 404 71.7432 403.525C72.0537 403.044 72.4785 402.672 73.0176 402.409C73.5625 402.139 74.1689 402.004 74.8369 402.004C75.4932 402.004 76.0879 402.139 76.6211 402.409C77.1601 402.678 77.582 403.05 77.8867 403.525C78.1973 404 78.3525 404.539 78.3525 405.142C78.3525 405.705 78.206 406.214 77.9131 406.671C77.6201 407.123 77.2217 407.474 76.7178 407.726C77.4268 407.996 77.9893 408.415 78.4053 408.983C78.8213 409.545 79.0293 410.216 79.0293 410.996C79.0293 411.74 78.8447 412.393 78.4756 412.956C78.1064 413.518 77.6025 413.952 76.9639 414.256C76.331 414.561 75.6221 414.713 74.8369 414.713ZM74.8369 407.225C75.2236 407.225 75.5781 407.137 75.9004 406.961C76.2226 406.78 76.4775 406.537 76.665 406.232C76.8525 405.927 76.9463 405.59 76.9463 405.221C76.9463 404.858 76.8525 404.527 76.665 404.228C76.4775 403.929 76.2226 403.695 75.9004 403.525C75.5781 403.349 75.2236 403.261 74.8369 403.261C74.4443 403.261 74.084 403.349 73.7559 403.525C73.4336 403.695 73.1787 403.929 72.9912 404.228C72.8096 404.527 72.7187 404.858 72.7187 405.221C72.7187 405.59 72.8096 405.93 72.9912 406.241C73.1787 406.545 73.4336 406.786 73.7559 406.961C74.084 407.137 74.4443 407.225 74.8369 407.225ZM74.8369 413.307C75.335 413.307 75.7861 413.208 76.1904 413.008C76.5947 412.803 76.9141 412.513 77.1484 412.138C77.3828 411.763 77.5 411.33 77.5 410.837C77.5 410.351 77.3828 409.923 77.1484 409.554C76.9141 409.185 76.5947 408.901 76.1904 408.702C75.7861 408.502 75.335 408.403 74.8369 408.403C74.3389 408.403 73.8848 408.502 73.4746 408.702C73.0703 408.901 72.748 409.185 72.5078 409.554C72.2734 409.923 72.1562 410.351 72.1562 410.837C72.1562 411.33 72.2734 411.763 72.5078 412.138C72.7422 412.513 73.0615 412.803 73.4658 413.008C73.876 413.208 74.333 413.307 74.8369 413.307Z" fill="#FDFAF5"/>
<path d="M370.79 367.149V368.546H362.44V367.395L367.397 362.271C367.936 361.72 368.308 361.231 368.514 360.803C368.719 360.375 368.821 359.951 368.821 359.529C368.821 359.06 368.724 358.659 368.531 358.325C368.338 357.991 368.071 357.739 367.731 357.569C367.397 357.393 367.014 357.305 366.58 357.305C365.871 357.305 365.306 357.519 364.884 357.947C364.468 358.369 364.26 359.031 364.26 359.933V360.847L362.739 360.707V359.942C362.739 359.086 362.9 358.363 363.223 357.771C363.545 357.173 363.993 356.728 364.567 356.435C365.147 356.136 365.818 355.987 366.58 355.987C367.289 355.987 367.925 356.127 368.487 356.409C369.056 356.684 369.501 357.088 369.823 357.622C370.151 358.149 370.315 358.773 370.315 359.494C370.315 360.138 370.175 360.736 369.893 361.287C369.618 361.832 369.173 362.423 368.557 363.062L364.629 367.149H370.79ZM381.389 356.171V357.446L375.342 368.546H373.602L379.702 357.578H372.925V356.171H381.389Z" fill="#FDFAF5"/>
<path d="M320.405 367.149V368.546H312.056V367.395L317.013 362.271C317.552 361.72 317.924 361.231 318.129 360.803C318.334 360.375 318.437 359.951 318.437 359.529C318.437 359.06 318.34 358.659 318.147 358.325C317.953 357.991 317.687 357.739 317.347 357.569C317.013 357.393 316.629 357.305 316.195 357.305C315.486 357.305 314.921 357.519 314.499 357.947C314.083 358.369 313.875 359.031 313.875 359.933V360.847L312.355 360.707V359.942C312.355 359.086 312.516 358.363 312.838 357.771C313.16 357.173 313.608 356.728 314.183 356.435C314.763 356.136 315.434 355.987 316.195 355.987C316.904 355.987 317.54 356.127 318.103 356.409C318.671 356.684 319.116 357.088 319.439 357.622C319.767 358.149 319.931 358.773 319.931 359.494C319.931 360.138 319.79 360.736 319.509 361.287C319.233 361.832 318.788 362.423 318.173 363.062L314.244 367.149H320.405ZM331.022 364.495C331.022 365.309 330.829 366.036 330.442 366.674C330.061 367.307 329.546 367.802 328.895 368.16C328.245 368.511 327.533 368.687 326.76 368.687C325.957 368.687 325.227 368.511 324.571 368.16C323.915 367.808 323.396 367.316 323.015 366.683C322.635 366.05 322.444 365.33 322.444 364.521C322.444 363.49 322.802 362.5 323.516 361.55L327.656 356.171H329.449L326.012 360.504C326.358 360.405 326.716 360.355 327.085 360.355C327.77 360.355 328.415 360.525 329.018 360.865C329.622 361.199 330.105 361.679 330.468 362.306C330.838 362.933 331.022 363.663 331.022 364.495ZM326.724 367.272C327.258 367.272 327.738 367.158 328.166 366.929C328.593 366.695 328.927 366.367 329.168 365.945C329.414 365.517 329.537 365.019 329.537 364.451C329.537 363.859 329.414 363.343 329.168 362.904C328.922 362.464 328.582 362.127 328.148 361.893C327.72 361.659 327.237 361.542 326.698 361.542C326.165 361.542 325.684 361.67 325.257 361.928C324.835 362.18 324.501 362.526 324.255 362.965C324.014 363.399 323.894 363.879 323.894 364.407C323.894 365.004 324.014 365.52 324.255 365.954C324.495 366.381 324.829 366.709 325.257 366.938C325.684 367.161 326.174 367.272 326.724 367.272Z" fill="#FDFAF5"/>
<path d="M270.021 367.149V368.546H261.671V367.395L266.628 362.271C267.167 361.72 267.539 361.231 267.744 360.803C267.95 360.375 268.052 359.951 268.052 359.529C268.052 359.06 267.955 358.659 267.762 358.325C267.569 357.991 267.302 357.739 266.962 357.569C266.628 357.393 266.244 357.305 265.811 357.305C265.102 357.305 264.536 357.519 264.115 357.947C263.699 358.369 263.491 359.031 263.491 359.933V360.847L261.97 360.707V359.942C261.97 359.086 262.131 358.363 262.453 357.771C262.776 357.173 263.224 356.728 263.798 356.435C264.378 356.136 265.049 355.987 265.811 355.987C266.52 355.987 267.156 356.127 267.718 356.409C268.286 356.684 268.732 357.088 269.054 357.622C269.382 358.149 269.546 358.773 269.546 359.494C269.546 360.138 269.406 360.736 269.124 361.287C268.849 361.832 268.404 362.423 267.788 363.062L263.86 367.149H270.021ZM276.076 360.583C277.582 360.583 278.707 360.932 279.451 361.629C280.195 362.321 280.567 363.288 280.567 364.53C280.567 365.338 280.395 366.059 280.049 366.692C279.703 367.325 279.214 367.82 278.581 368.177C277.954 368.529 277.233 368.705 276.419 368.705C275.681 368.705 274.998 368.558 274.371 368.265C273.75 367.966 273.249 367.527 272.868 366.947C272.493 366.361 272.306 365.661 272.306 364.846C272.306 364.676 272.32 364.465 272.35 364.213L273.905 364.082C273.858 364.421 273.835 364.653 273.835 364.776C273.835 365.35 273.958 365.825 274.204 366.2C274.45 366.575 274.767 366.85 275.153 367.026C275.54 367.196 275.953 367.281 276.393 367.281C276.92 367.281 277.383 367.167 277.781 366.938C278.186 366.704 278.496 366.384 278.713 365.98C278.93 365.57 279.038 365.104 279.038 364.583C279.038 363.756 278.786 363.106 278.282 362.631C277.784 362.157 276.993 361.919 275.909 361.919H272.78L273.545 356.189H280.031V357.604H274.828L274.424 360.583H276.076Z" fill="#FDFAF5"/>
<path d="M219.636 367.149V368.546H211.287V367.395L216.244 362.271C216.783 361.72 217.155 361.231 217.36 360.803C217.565 360.375 217.668 359.951 217.668 359.529C217.668 359.06 217.571 358.659 217.378 358.325C217.184 357.991 216.918 357.739 216.578 357.569C216.244 357.393 215.86 357.305 215.426 357.305C214.717 357.305 214.152 357.519 213.73 357.947C213.314 358.369 213.106 359.031 213.106 359.933V360.847L211.586 360.707V359.942C211.586 359.086 211.747 358.363 212.069 357.771C212.391 357.173 212.839 356.728 213.414 356.435C213.994 356.136 214.665 355.987 215.426 355.987C216.135 355.987 216.771 356.127 217.334 356.409C217.902 356.684 218.347 357.088 218.67 357.622C218.998 358.149 219.162 358.773 219.162 359.494C219.162 360.138 219.021 360.736 218.74 361.287C218.464 361.832 218.019 362.423 217.404 363.062L213.475 367.149H219.636ZM230.587 366.059H228.68V368.546H227.159V366.059H221.385V364.653L226.535 356.171H228.68V364.662H230.587V366.059ZM227.159 364.662V357.542L222.958 364.662H227.159Z" fill="#FDFAF5"/>
<path d="M169.252 367.149V368.546H160.902V367.395L165.859 362.271C166.398 361.72 166.77 361.231 166.975 360.803C167.181 360.375 167.283 359.951 167.283 359.529C167.283 359.06 167.186 358.659 166.993 358.325C166.8 357.991 166.533 357.739 166.193 357.569C165.859 357.393 165.475 357.305 165.042 357.305C164.333 357.305 163.767 357.519 163.346 357.947C162.93 358.369 162.722 359.031 162.722 359.933V360.847L161.201 360.707V359.942C161.201 359.086 161.362 358.363 161.684 357.771C162.007 357.173 162.455 356.728 163.029 356.435C163.609 356.136 164.28 355.987 165.042 355.987C165.751 355.987 166.387 356.127 166.949 356.409C167.517 356.684 167.963 357.088 168.285 357.622C168.613 358.149 168.777 358.773 168.777 359.494C168.777 360.138 168.637 360.736 168.355 361.287C168.08 361.832 167.635 362.423 167.019 363.062L163.091 367.149H169.252ZM175.509 368.713C174.126 368.713 173.092 368.341 172.407 367.597C171.727 366.847 171.387 365.751 171.387 364.31L172.934 364.231C172.934 364.917 173.013 365.488 173.171 365.945C173.335 366.396 173.605 366.742 173.98 366.982C174.361 367.216 174.871 367.333 175.509 367.333C176.031 367.333 176.491 367.234 176.889 367.035C177.293 366.83 177.607 366.545 177.83 366.182C178.052 365.813 178.164 365.391 178.164 364.917C178.164 364.43 178.052 364.008 177.83 363.651C177.613 363.288 177.314 363.012 176.933 362.825C176.558 362.631 176.142 362.535 175.685 362.535H175.07V361.243H175.667C176.013 361.243 176.333 361.158 176.625 360.988C176.918 360.812 177.15 360.575 177.32 360.276C177.496 359.971 177.583 359.634 177.583 359.265C177.583 358.902 177.493 358.577 177.311 358.29C177.129 358.002 176.877 357.78 176.555 357.622C176.239 357.458 175.881 357.375 175.483 357.375C174.733 357.375 174.206 357.598 173.901 358.043C173.602 358.483 173.453 359.098 173.453 359.889L171.906 359.836C171.906 358.606 172.213 357.66 172.829 356.998C173.45 356.335 174.332 356.004 175.474 356.004C176.142 356.004 176.746 356.142 177.285 356.417C177.824 356.693 178.249 357.071 178.559 357.551C178.87 358.032 179.025 358.568 179.025 359.16C179.025 359.769 178.861 360.305 178.533 360.768C178.205 361.231 177.791 361.565 177.293 361.77C178.002 361.975 178.583 362.353 179.034 362.904C179.485 363.455 179.71 364.149 179.71 364.987C179.71 365.725 179.529 366.375 179.166 366.938C178.808 367.5 178.31 367.937 177.671 368.248C177.033 368.558 176.312 368.713 175.509 368.713Z" fill="#FDFAF5"/>
<path d="M118.867 367.149V368.546H110.518V367.395L115.475 362.271C116.014 361.72 116.386 361.231 116.591 360.803C116.796 360.375 116.899 359.951 116.899 359.529C116.899 359.06 116.802 358.659 116.608 358.325C116.415 357.991 116.149 357.739 115.809 357.569C115.475 357.393 115.091 357.305 114.657 357.305C113.948 357.305 113.383 357.519 112.961 357.947C112.545 358.369 112.337 359.031 112.337 359.933V360.847L110.817 360.707V359.942C110.817 359.086 110.978 358.363 111.3 357.771C111.622 357.173 112.07 356.728 112.645 356.435C113.225 356.136 113.896 355.987 114.657 355.987C115.366 355.987 116.002 356.127 116.565 356.409C117.133 356.684 117.578 357.088 117.9 357.622C118.229 358.149 118.393 358.773 118.393 359.494C118.393 360.138 118.252 360.736 117.971 361.287C117.695 361.832 117.25 362.423 116.635 363.062L112.706 367.149H118.867ZM129.37 367.149V368.546H121.02V367.395L125.977 362.271C126.516 361.72 126.888 361.231 127.093 360.803C127.299 360.375 127.401 359.951 127.401 359.529C127.401 359.06 127.304 358.659 127.111 358.325C126.918 357.991 126.651 357.739 126.311 357.569C125.977 357.393 125.593 357.305 125.16 357.305C124.451 357.305 123.885 357.519 123.464 357.947C123.048 358.369 122.84 359.031 122.84 359.933V360.847L121.319 360.707V359.942C121.319 359.086 121.48 358.363 121.802 357.771C122.125 357.173 122.573 356.728 123.147 356.435C123.727 356.136 124.398 355.987 125.16 355.987C125.869 355.987 126.505 356.127 127.067 356.409C127.635 356.684 128.081 357.088 128.403 357.622C128.731 358.149 128.895 358.773 128.895 359.494C128.895 360.138 128.755 360.736 128.473 361.287C128.198 361.832 127.753 362.423 127.137 363.062L123.209 367.149H129.37Z" fill="#FDFAF5"/>
<path d="M68.4828 367.149V368.546H60.1332V367.395L65.0902 362.271C65.6293 361.72 66.0013 361.231 66.2064 360.803C66.4115 360.375 66.514 359.951 66.514 359.529C66.514 359.06 66.4173 358.659 66.224 358.325C66.0306 357.991 65.764 357.739 65.4242 357.569C65.0902 357.393 64.7064 357.305 64.2728 357.305C63.5638 357.305 62.9984 357.519 62.5765 357.947C62.1605 358.369 61.9525 359.031 61.9525 359.933V360.847L60.432 360.707V359.942C60.432 359.086 60.5931 358.363 60.9154 357.771C61.2376 357.173 61.6859 356.728 62.2601 356.435C62.8402 356.136 63.5111 355.987 64.2728 355.987C64.9818 355.987 65.6175 356.127 66.18 356.409C66.7484 356.684 67.1937 357.088 67.516 357.622C67.8441 358.149 68.0082 358.773 68.0082 359.494C68.0082 360.138 67.8675 360.736 67.5863 361.287C67.3109 361.832 66.8656 362.423 66.2503 363.062L62.3216 367.149H68.4828ZM76.3398 356.171V368.546H74.8369V357.833L71.8662 360.408V358.782L74.916 356.171H76.3398Z" fill="#FDFAF5"/>
<path d="M370.79 321.149V322.546H362.44V321.395L367.397 316.271C367.936 315.72 368.308 315.231 368.514 314.803C368.719 314.375 368.821 313.951 368.821 313.529C368.821 313.06 368.724 312.659 368.531 312.325C368.338 311.991 368.071 311.739 367.731 311.569C367.397 311.393 367.014 311.305 366.58 311.305C365.871 311.305 365.306 311.519 364.884 311.947C364.468 312.369 364.26 313.031 364.26 313.933V314.847L362.739 314.707V313.942C362.739 313.086 362.9 312.363 363.223 311.771C363.545 311.173 363.993 310.728 364.567 310.435C365.147 310.136 365.818 309.987 366.58 309.987C367.289 309.987 367.925 310.127 368.487 310.409C369.056 310.684 369.501 311.088 369.823 311.622C370.151 312.149 370.315 312.773 370.315 313.494C370.315 314.138 370.175 314.736 369.893 315.287C369.618 315.832 369.173 316.423 368.557 317.062L364.629 321.149H370.79ZM377.135 322.713C376.262 322.713 375.518 322.476 374.903 322.001C374.288 321.521 373.819 320.806 373.497 319.857C373.174 318.908 373.013 317.739 373.013 316.35C373.013 314.264 373.365 312.685 374.068 311.613C374.777 310.541 375.799 310.004 377.135 310.004C378.459 310.004 379.476 310.543 380.185 311.622C380.894 312.694 381.249 314.27 381.249 316.35C381.249 317.739 381.084 318.908 380.756 319.857C380.434 320.806 379.965 321.521 379.35 322.001C378.735 322.476 377.997 322.713 377.135 322.713ZM377.135 321.307C377.973 321.307 378.615 320.894 379.06 320.068C379.505 319.242 379.728 318.002 379.728 316.35C379.728 314.686 379.5 313.45 379.042 312.641C378.591 311.827 377.956 311.419 377.135 311.419C376.309 311.419 375.67 311.824 375.219 312.632C374.768 313.441 374.542 314.68 374.542 316.35C374.542 318.008 374.762 319.25 375.202 320.077C375.647 320.897 376.291 321.307 377.135 321.307Z" fill="#FDFAF5"/>
<path d="M317.76 310.171V322.546H316.257V311.833L313.286 314.408V312.782L316.336 310.171H317.76ZM326.724 310.031C327.521 310.031 328.248 310.207 328.904 310.558C329.566 310.91 330.088 311.402 330.468 312.035C330.849 312.667 331.04 313.388 331.04 314.197C331.04 315.222 330.679 316.212 329.959 317.167L325.819 322.546H324L327.419 318.24C327.091 318.328 326.745 318.372 326.382 318.372C325.702 318.372 325.06 318.205 324.457 317.871C323.859 317.531 323.376 317.047 323.007 316.42C322.643 315.788 322.462 315.058 322.462 314.232C322.462 313.412 322.652 312.682 323.033 312.043C323.414 311.405 323.929 310.91 324.58 310.558C325.23 310.207 325.945 310.031 326.724 310.031ZM326.786 317.176C327.319 317.176 327.797 317.05 328.218 316.798C328.646 316.541 328.98 316.195 329.22 315.761C329.461 315.322 329.581 314.838 329.581 314.311C329.581 313.719 329.458 313.209 329.212 312.782C328.971 312.348 328.637 312.02 328.21 311.797C327.788 311.569 327.304 311.455 326.76 311.455C326.232 311.455 325.752 311.572 325.318 311.806C324.89 312.035 324.553 312.363 324.307 312.791C324.061 313.212 323.938 313.708 323.938 314.276C323.938 314.862 324.061 315.375 324.307 315.814C324.559 316.253 324.899 316.59 325.327 316.825C325.76 317.059 326.247 317.176 326.786 317.176Z" fill="#FDFAF5"/>
<path d="M267.375 310.171V322.546H265.872V311.833L262.902 314.408V312.782L265.952 310.171H267.375ZM276.375 322.713C275.59 322.713 274.878 322.561 274.239 322.256C273.601 321.952 273.097 321.518 272.728 320.956C272.358 320.387 272.174 319.734 272.174 318.996C272.174 318.216 272.382 317.542 272.798 316.974C273.214 316.406 273.779 315.99 274.494 315.726C273.984 315.474 273.577 315.123 273.272 314.671C272.974 314.214 272.824 313.705 272.824 313.142C272.824 312.539 272.977 312 273.281 311.525C273.592 311.044 274.017 310.672 274.556 310.409C275.101 310.139 275.707 310.004 276.375 310.004C277.031 310.004 277.626 310.139 278.159 310.409C278.698 310.678 279.12 311.05 279.425 311.525C279.735 312 279.891 312.539 279.891 313.142C279.891 313.705 279.744 314.214 279.451 314.671C279.158 315.123 278.76 315.474 278.256 315.726C278.965 315.996 279.527 316.415 279.943 316.983C280.359 317.545 280.567 318.216 280.567 318.996C280.567 319.74 280.383 320.393 280.014 320.956C279.645 321.518 279.141 321.952 278.502 322.256C277.869 322.561 277.16 322.713 276.375 322.713ZM276.375 315.225C276.762 315.225 277.116 315.137 277.438 314.961C277.761 314.78 278.016 314.537 278.203 314.232C278.391 313.927 278.484 313.59 278.484 313.221C278.484 312.858 278.391 312.527 278.203 312.228C278.016 311.929 277.761 311.695 277.438 311.525C277.116 311.349 276.762 311.261 276.375 311.261C275.982 311.261 275.622 311.349 275.294 311.525C274.972 311.695 274.717 311.929 274.529 312.228C274.348 312.527 274.257 312.858 274.257 313.221C274.257 313.59 274.348 313.93 274.529 314.241C274.717 314.545 274.972 314.786 275.294 314.961C275.622 315.137 275.982 315.225 276.375 315.225ZM276.375 321.307C276.873 321.307 277.324 321.208 277.729 321.008C278.133 320.803 278.452 320.513 278.687 320.138C278.921 319.763 279.038 319.33 279.038 318.837C279.038 318.351 278.921 317.923 278.687 317.554C278.452 317.185 278.133 316.901 277.729 316.702C277.324 316.502 276.873 316.403 276.375 316.403C275.877 316.403 275.423 316.502 275.013 316.702C274.608 316.901 274.286 317.185 274.046 317.554C273.812 317.923 273.694 318.351 273.694 318.837C273.694 319.33 273.812 319.763 274.046 320.138C274.28 320.513 274.6 320.803 275.004 321.008C275.414 321.208 275.871 321.307 276.375 321.307Z" fill="#FDFAF5"/>
<path d="M216.991 310.171V322.546H215.488V311.833L212.517 314.408V312.782L215.567 310.171H216.991ZM230.236 310.171V311.446L224.189 322.546H222.448L228.548 311.578H221.772V310.171H230.236Z" fill="#FDFAF5"/>
<path d="M166.606 310.171V322.546H165.103V311.833L162.133 314.408V312.782L165.182 310.171H166.606ZM179.869 318.495C179.869 319.309 179.675 320.036 179.289 320.674C178.908 321.307 178.392 321.802 177.742 322.16C177.091 322.511 176.379 322.687 175.606 322.687C174.803 322.687 174.074 322.511 173.417 322.16C172.761 321.808 172.243 321.316 171.862 320.683C171.481 320.05 171.291 319.33 171.291 318.521C171.291 317.49 171.648 316.5 172.363 315.55L176.502 310.171H178.295L174.859 314.504C175.205 314.405 175.562 314.355 175.931 314.355C176.617 314.355 177.261 314.525 177.865 314.865C178.468 315.199 178.952 315.679 179.315 316.306C179.684 316.933 179.869 317.663 179.869 318.495ZM175.571 321.272C176.104 321.272 176.584 321.158 177.012 320.929C177.44 320.695 177.774 320.367 178.014 319.945C178.26 319.517 178.383 319.019 178.383 318.451C178.383 317.859 178.26 317.343 178.014 316.904C177.768 316.464 177.428 316.127 176.995 315.893C176.567 315.659 176.083 315.542 175.544 315.542C175.011 315.542 174.531 315.67 174.103 315.928C173.681 316.18 173.347 316.526 173.101 316.965C172.861 317.399 172.741 317.879 172.741 318.407C172.741 319.004 172.861 319.52 173.101 319.954C173.341 320.381 173.675 320.709 174.103 320.938C174.531 321.161 175.02 321.272 175.571 321.272Z" fill="#FDFAF5"/>
<path d="M116.222 310.171V322.546H114.719V311.833L111.748 314.408V312.782L114.798 310.171H116.222ZM124.923 314.583C126.428 314.583 127.553 314.932 128.298 315.629C129.042 316.321 129.414 317.288 129.414 318.53C129.414 319.338 129.241 320.059 128.895 320.692C128.55 321.325 128.06 321.82 127.427 322.177C126.801 322.529 126.08 322.705 125.265 322.705C124.527 322.705 123.844 322.558 123.218 322.265C122.596 321.966 122.095 321.527 121.715 320.947C121.34 320.361 121.152 319.661 121.152 318.846C121.152 318.676 121.167 318.465 121.196 318.213L122.752 318.082C122.705 318.421 122.681 318.653 122.681 318.776C122.681 319.35 122.804 319.825 123.051 320.2C123.297 320.575 123.613 320.85 124 321.026C124.386 321.196 124.8 321.281 125.239 321.281C125.766 321.281 126.229 321.167 126.628 320.938C127.032 320.704 127.343 320.384 127.559 319.98C127.776 319.57 127.885 319.104 127.885 318.583C127.885 317.756 127.633 317.106 127.129 316.631C126.631 316.157 125.84 315.919 124.756 315.919H121.627L122.391 310.189H128.878V311.604H123.675L123.27 314.583H124.923Z" fill="#FDFAF5"/>
<path d="M65.8373 310.171V322.546H64.3343V311.833L61.3636 314.408V312.782L64.4134 310.171H65.8373ZM79.4336 320.059H77.5264V322.546H76.0059V320.059H70.2314V318.653L75.3818 310.171H77.5264V318.662H79.4336V320.059ZM76.0059 318.662V311.542L71.8047 318.662H76.0059Z" fill="#FDFAF5"/>
<path d="M368.144 264.171V276.546H366.641V265.833L363.671 268.408V266.782L366.721 264.171H368.144ZM377.047 276.713C375.665 276.713 374.63 276.341 373.945 275.597C373.265 274.847 372.925 273.751 372.925 272.31L374.472 272.231C374.472 272.917 374.551 273.488 374.709 273.945C374.874 274.396 375.143 274.742 375.518 274.982C375.899 275.216 376.409 275.333 377.047 275.333C377.569 275.333 378.029 275.234 378.427 275.035C378.832 274.83 379.145 274.545 379.368 274.182C379.59 273.813 379.702 273.391 379.702 272.917C379.702 272.43 379.59 272.008 379.368 271.651C379.151 271.288 378.852 271.012 378.471 270.825C378.096 270.631 377.68 270.535 377.223 270.535H376.608V269.243H377.206C377.551 269.243 377.871 269.158 378.164 268.988C378.457 268.812 378.688 268.575 378.858 268.276C379.034 267.971 379.122 267.634 379.122 267.265C379.122 266.902 379.031 266.577 378.849 266.29C378.667 266.002 378.416 265.78 378.093 265.622C377.777 265.458 377.419 265.375 377.021 265.375C376.271 265.375 375.744 265.598 375.439 266.043C375.14 266.483 374.991 267.098 374.991 267.889L373.444 267.836C373.444 266.606 373.751 265.66 374.367 264.998C374.988 264.335 375.87 264.004 377.012 264.004C377.68 264.004 378.284 264.142 378.823 264.417C379.362 264.693 379.787 265.071 380.097 265.551C380.408 266.032 380.563 266.568 380.563 267.16C380.563 267.769 380.399 268.305 380.071 268.768C379.743 269.231 379.33 269.565 378.832 269.77C379.541 269.975 380.121 270.353 380.572 270.904C381.023 271.455 381.249 272.149 381.249 272.987C381.249 273.725 381.067 274.375 380.704 274.938C380.346 275.5 379.848 275.937 379.209 276.248C378.571 276.558 377.85 276.713 377.047 276.713Z" fill="#FDFAF5"/>
<path d="M317.76 264.171V276.546H316.257V265.833L313.286 268.408V266.782L316.336 264.171H317.76ZM330.908 275.149V276.546H322.558V275.395L327.515 270.271C328.054 269.72 328.427 269.231 328.632 268.803C328.837 268.375 328.939 267.951 328.939 267.529C328.939 267.06 328.843 266.659 328.649 266.325C328.456 265.991 328.189 265.739 327.849 265.569C327.515 265.393 327.132 265.305 326.698 265.305C325.989 265.305 325.424 265.519 325.002 265.947C324.586 266.369 324.378 267.031 324.378 267.933V268.847L322.857 268.707V267.942C322.857 267.086 323.018 266.363 323.341 265.771C323.663 265.173 324.111 264.728 324.685 264.435C325.265 264.136 325.936 263.987 326.698 263.987C327.407 263.987 328.043 264.127 328.605 264.409C329.174 264.684 329.619 265.088 329.941 265.622C330.269 266.149 330.433 266.773 330.433 267.494C330.433 268.138 330.293 268.736 330.011 269.287C329.736 269.832 329.291 270.423 328.676 271.062L324.747 275.149H330.908Z" fill="#FDFAF5"/>
<path d="M267.375 264.171V276.546H265.872V265.833L262.902 268.408V266.782L265.952 264.171H267.375ZM277.878 264.171V276.546H276.375V265.833L273.404 268.408V266.782L276.454 264.171H277.878Z" fill="#FDFAF5"/>
<path d="M216.991 264.171V276.546H215.488V265.833L212.517 268.408V266.782L215.567 264.171H216.991ZM225.982 276.713C225.109 276.713 224.364 276.476 223.749 276.001C223.134 275.521 222.665 274.806 222.343 273.857C222.021 272.908 221.86 271.739 221.86 270.35C221.86 268.264 222.211 266.685 222.914 265.613C223.623 264.541 224.646 264.004 225.982 264.004C227.306 264.004 228.323 264.543 229.031 265.622C229.74 266.694 230.095 268.27 230.095 270.35C230.095 271.739 229.931 272.908 229.603 273.857C229.281 274.806 228.812 275.521 228.197 276.001C227.581 276.476 226.843 276.713 225.982 276.713ZM225.982 275.307C226.82 275.307 227.461 274.894 227.906 274.068C228.352 273.242 228.574 272.002 228.574 270.35C228.574 268.686 228.346 267.45 227.889 266.641C227.438 265.827 226.802 265.419 225.982 265.419C225.156 265.419 224.517 265.824 224.066 266.632C223.614 267.441 223.389 268.68 223.389 270.35C223.389 272.008 223.609 273.25 224.048 274.077C224.493 274.897 225.138 275.307 225.982 275.307Z" fill="#FDFAF5"/>
<path d="M170.32 264.031C171.116 264.031 171.843 264.207 172.499 264.558C173.161 264.91 173.683 265.402 174.064 266.035C174.445 266.667 174.635 267.388 174.635 268.197C174.635 269.222 174.275 270.212 173.554 271.167L169.414 276.546H167.595L171.014 272.24C170.686 272.328 170.34 272.372 169.977 272.372C169.297 272.372 168.655 272.205 168.052 271.871C167.454 271.531 166.971 271.047 166.602 270.42C166.238 269.788 166.057 269.058 166.057 268.232C166.057 267.412 166.247 266.682 166.628 266.043C167.009 265.405 167.525 264.91 168.175 264.558C168.825 264.207 169.54 264.031 170.32 264.031ZM170.381 271.176C170.914 271.176 171.392 271.05 171.814 270.798C172.241 270.541 172.575 270.195 172.816 269.761C173.056 269.322 173.176 268.838 173.176 268.311C173.176 267.719 173.053 267.209 172.807 266.782C172.567 266.348 172.233 266.02 171.805 265.797C171.383 265.569 170.9 265.455 170.355 265.455C169.827 265.455 169.347 265.572 168.913 265.806C168.486 266.035 168.149 266.363 167.903 266.791C167.656 267.212 167.533 267.708 167.533 268.276C167.533 268.862 167.656 269.375 167.903 269.814C168.154 270.253 168.494 270.59 168.922 270.825C169.356 271.059 169.842 271.176 170.381 271.176Z" fill="#FDFAF5"/>
<path d="M119.97 276.713C119.185 276.713 118.473 276.561 117.834 276.256C117.196 275.952 116.692 275.518 116.323 274.956C115.954 274.387 115.769 273.734 115.769 272.996C115.769 272.216 115.977 271.542 116.393 270.974C116.809 270.406 117.374 269.99 118.089 269.726C117.58 269.474 117.172 269.123 116.868 268.671C116.569 268.214 116.419 267.705 116.419 267.142C116.419 266.539 116.572 266 116.876 265.525C117.187 265.044 117.612 264.672 118.151 264.409C118.696 264.139 119.302 264.004 119.97 264.004C120.626 264.004 121.221 264.139 121.754 264.409C122.293 264.678 122.715 265.05 123.02 265.525C123.33 266 123.486 266.539 123.486 267.142C123.486 267.705 123.339 268.214 123.046 268.671C122.753 269.123 122.355 269.474 121.851 269.726C122.56 269.996 123.122 270.415 123.538 270.983C123.955 271.545 124.163 272.216 124.163 272.996C124.163 273.74 123.978 274.393 123.609 274.956C123.24 275.518 122.736 275.952 122.097 276.256C121.464 276.561 120.755 276.713 119.97 276.713ZM119.97 269.225C120.357 269.225 120.711 269.137 121.034 268.961C121.356 268.78 121.611 268.537 121.798 268.232C121.986 267.927 122.08 267.59 122.08 267.221C122.08 266.858 121.986 266.527 121.798 266.228C121.611 265.929 121.356 265.695 121.034 265.525C120.711 265.349 120.357 265.261 119.97 265.261C119.578 265.261 119.217 265.349 118.889 265.525C118.567 265.695 118.312 265.929 118.124 266.228C117.943 266.527 117.852 266.858 117.852 267.221C117.852 267.59 117.943 267.93 118.124 268.241C118.312 268.545 118.567 268.786 118.889 268.961C119.217 269.137 119.578 269.225 119.97 269.225ZM119.97 275.307C120.468 275.307 120.919 275.208 121.324 275.008C121.728 274.803 122.047 274.513 122.282 274.138C122.516 273.763 122.633 273.33 122.633 272.837C122.633 272.351 122.516 271.923 122.282 271.554C122.047 271.185 121.728 270.901 121.324 270.702C120.919 270.502 120.468 270.403 119.97 270.403C119.472 270.403 119.018 270.502 118.608 270.702C118.204 270.901 117.881 271.185 117.641 271.554C117.407 271.923 117.289 272.351 117.289 272.837C117.289 273.33 117.407 273.763 117.641 274.138C117.875 274.513 118.195 274.803 118.599 275.008C119.009 275.208 119.466 275.307 119.97 275.307Z" fill="#FDFAF5"/>
<path d="M73.8307 264.171V265.446L67.7839 276.546H66.0436L72.1432 265.578H65.3669V264.171H73.8307Z" fill="#FDFAF5"/>
<path d="M376.155 226.495C376.155 227.309 375.962 228.036 375.575 228.674C375.195 229.307 374.679 229.802 374.028 230.16C373.378 230.511 372.666 230.687 371.893 230.687C371.09 230.687 370.361 230.511 369.704 230.16C369.048 229.808 368.529 229.316 368.149 228.683C367.768 228.05 367.577 227.33 367.577 226.521C367.577 225.49 367.935 224.5 368.65 223.55L372.789 218.171H374.582L371.146 222.504C371.491 222.405 371.849 222.355 372.218 222.355C372.903 222.355 373.548 222.525 374.152 222.865C374.755 223.199 375.238 223.679 375.602 224.306C375.971 224.933 376.155 225.663 376.155 226.495ZM371.858 229.272C372.391 229.272 372.871 229.158 373.299 228.929C373.727 228.695 374.061 228.367 374.301 227.945C374.547 227.517 374.67 227.019 374.67 226.451C374.67 225.859 374.547 225.343 374.301 224.904C374.055 224.464 373.715 224.127 373.281 223.893C372.854 223.659 372.37 223.542 371.831 223.542C371.298 223.542 370.818 223.67 370.39 223.928C369.968 224.18 369.634 224.526 369.388 224.965C369.148 225.399 369.028 225.879 369.028 226.407C369.028 227.004 369.148 227.52 369.388 227.954C369.628 228.381 369.962 228.709 370.39 228.938C370.818 229.161 371.307 229.272 371.858 229.272Z" fill="#FDFAF5"/>
<path d="M321.209 222.583C322.715 222.583 323.84 222.932 324.584 223.629C325.329 224.321 325.701 225.288 325.701 226.53C325.701 227.338 325.528 228.059 325.182 228.692C324.836 229.325 324.347 229.82 323.714 230.177C323.087 230.529 322.367 230.705 321.552 230.705C320.814 230.705 320.131 230.558 319.504 230.265C318.883 229.966 318.382 229.527 318.001 228.947C317.626 228.361 317.439 227.661 317.439 226.846C317.439 226.676 317.454 226.465 317.483 226.213L319.038 226.082C318.992 226.421 318.968 226.653 318.968 226.776C318.968 227.35 319.091 227.825 319.337 228.2C319.583 228.575 319.9 228.85 320.287 229.026C320.673 229.196 321.086 229.281 321.526 229.281C322.053 229.281 322.516 229.167 322.914 228.938C323.319 228.704 323.629 228.384 323.846 227.98C324.063 227.57 324.171 227.104 324.171 226.583C324.171 225.756 323.919 225.106 323.415 224.631C322.917 224.157 322.126 223.919 321.042 223.919H317.913L318.678 218.189H325.164V219.604H319.961L319.557 222.583H321.209Z" fill="#FDFAF5"/>
<path d="M275.72 228.059H273.813V230.546H272.293V228.059H266.518V226.653L271.669 218.171H273.813V226.662H275.72V228.059ZM272.293 226.662V219.542L268.091 226.662H272.293Z" fill="#FDFAF5"/>
<path d="M220.643 230.713C219.26 230.713 218.226 230.341 217.54 229.597C216.86 228.847 216.52 227.751 216.52 226.31L218.067 226.231C218.067 226.917 218.146 227.488 218.305 227.945C218.469 228.396 218.738 228.742 219.113 228.982C219.494 229.216 220.004 229.333 220.643 229.333C221.164 229.333 221.624 229.234 222.022 229.035C222.427 228.83 222.74 228.545 222.963 228.182C223.185 227.813 223.297 227.391 223.297 226.917C223.297 226.43 223.185 226.008 222.963 225.651C222.746 225.288 222.447 225.012 222.066 224.825C221.691 224.631 221.275 224.535 220.818 224.535H220.203V223.243H220.801C221.146 223.243 221.466 223.158 221.759 222.988C222.052 222.812 222.283 222.575 222.453 222.276C222.629 221.971 222.717 221.634 222.717 221.265C222.717 220.902 222.626 220.577 222.444 220.29C222.263 220.002 222.011 219.78 221.688 219.622C221.372 219.458 221.015 219.375 220.616 219.375C219.866 219.375 219.339 219.598 219.034 220.043C218.735 220.483 218.586 221.098 218.586 221.889L217.039 221.836C217.039 220.606 217.347 219.66 217.962 218.998C218.583 218.335 219.465 218.004 220.607 218.004C221.275 218.004 221.879 218.142 222.418 218.417C222.957 218.693 223.382 219.071 223.692 219.551C224.003 220.032 224.158 220.568 224.158 221.16C224.158 221.769 223.994 222.305 223.666 222.768C223.338 223.231 222.925 223.565 222.427 223.77C223.136 223.975 223.716 224.353 224.167 224.904C224.618 225.455 224.844 226.149 224.844 226.987C224.844 227.725 224.662 228.375 224.299 228.938C223.941 229.5 223.443 229.937 222.805 230.248C222.166 230.558 221.445 230.713 220.643 230.713Z" fill="#FDFAF5"/>
<rect x="155.154" y="209.046" width="30.3846" height="30" rx="15" fill="#FDFAF5"/>
<path d="M174.503 229.149V230.546H166.153V229.395L171.111 224.271C171.65 223.72 172.022 223.231 172.227 222.803C172.432 222.375 172.534 221.951 172.534 221.529C172.534 221.06 172.438 220.659 172.244 220.325C172.051 219.991 171.784 219.739 171.445 219.569C171.111 219.393 170.727 219.305 170.293 219.305C169.584 219.305 169.019 219.519 168.597 219.947C168.181 220.369 167.973 221.031 167.973 221.933V222.847L166.452 222.707V221.942C166.452 221.086 166.613 220.363 166.936 219.771C167.258 219.173 167.706 218.728 168.28 218.435C168.861 218.136 169.531 217.987 170.293 217.987C171.002 217.987 171.638 218.127 172.2 218.409C172.769 218.684 173.214 219.088 173.536 219.622C173.864 220.149 174.028 220.773 174.028 221.494C174.028 222.138 173.888 222.736 173.607 223.287C173.331 223.832 172.886 224.423 172.271 225.062L168.342 229.149H174.503Z" fill="black"/>
<path d="M121.473 218.171V230.546H119.97V219.833L116.999 222.408V220.782L120.049 218.171H121.473Z" fill="#FDFAF5"/>
<path d="M64.2376 230.713C62.8548 230.713 61.8207 230.341 61.1351 229.597C60.4554 228.847 60.1156 227.751 60.1156 226.31L61.6625 226.231C61.6625 226.917 61.7416 227.488 61.8998 227.945C62.0638 228.396 62.3334 228.742 62.7084 228.982C63.0892 229.216 63.599 229.333 64.2376 229.333C64.7591 229.333 65.2191 229.234 65.6175 229.035C66.0218 228.83 66.3353 228.545 66.558 228.182C66.7806 227.813 66.8919 227.391 66.8919 226.917C66.8919 226.43 66.7806 226.008 66.558 225.651C66.3412 225.288 66.0423 225.012 65.6615 224.825C65.2865 224.631 64.8705 224.535 64.4134 224.535H63.7982V223.243H64.3959C64.7416 223.243 65.0609 223.158 65.3539 222.988C65.6468 222.812 65.8783 222.575 66.0482 222.276C66.224 221.971 66.3119 221.634 66.3119 221.265C66.3119 220.902 66.221 220.577 66.0394 220.29C65.8578 220.002 65.6058 219.78 65.2835 219.622C64.9671 219.458 64.6097 219.375 64.2113 219.375C63.4613 219.375 62.9339 219.598 62.6293 220.043C62.3304 220.483 62.181 221.098 62.181 221.889L60.6341 221.836C60.6341 220.606 60.9418 219.66 61.557 218.998C62.1781 218.335 63.0599 218.004 64.2025 218.004C64.8705 218.004 65.474 218.142 66.013 218.417C66.5521 218.693 66.9769 219.071 67.2875 219.551C67.598 220.032 67.7533 220.568 67.7533 221.16C67.7533 221.769 67.5892 222.305 67.2611 222.768C66.933 223.231 66.5199 223.565 66.0218 223.77C66.7308 223.975 67.3109 224.353 67.7621 224.904C68.2132 225.455 68.4388 226.149 68.4388 226.987C68.4388 227.725 68.2572 228.375 67.8939 228.938C67.5365 229.5 67.0384 229.937 66.3998 230.248C65.7611 230.558 65.0404 230.713 64.2376 230.713ZM76.3398 218.171V230.546H74.8369V219.833L71.8662 222.408V220.782L74.916 218.171H76.3398Z" fill="#A8A8A8" fill-opacity="0.5"/>
<line x1="54.8846" y1="155.624" x2="388.115" y2="155.624" stroke="#A8A8A8" stroke-linecap="round"/>
<path d="M61.0237 138.039L55.9464 132.808L61.0237 127.577" stroke="#FDFAF5" stroke-width="1.5" stroke-linecap="round" stroke-linejoin="round"/>
<path d="M156.48 125.882V139.808H153.863L147.623 129.29V139.808H145.298V125.882H147.896L154.156 136.331V125.882H156.48ZM164.595 139.993C163.605 139.993 162.717 139.788 161.929 139.378C161.148 138.961 160.536 138.369 160.093 137.601C159.65 136.832 159.429 135.927 159.429 134.886C159.429 133.857 159.65 132.959 160.093 132.19C160.536 131.422 161.148 130.833 161.929 130.423C162.71 130.006 163.599 129.798 164.595 129.798C165.597 129.798 166.489 130.006 167.271 130.423C168.052 130.833 168.664 131.422 169.107 132.19C169.549 132.959 169.771 133.857 169.771 134.886C169.771 135.927 169.549 136.836 169.107 137.61C168.664 138.379 168.049 138.968 167.261 139.378C166.48 139.788 165.591 139.993 164.595 139.993ZM164.575 138.177C165.142 138.177 165.65 138.04 166.099 137.767C166.548 137.493 166.9 137.109 167.153 136.614C167.407 136.113 167.534 135.537 167.534 134.886C167.534 134.235 167.407 133.662 167.153 133.167C166.9 132.672 166.548 132.288 166.099 132.015C165.65 131.741 165.142 131.604 164.575 131.604C164.015 131.604 163.514 131.741 163.071 132.015C162.635 132.288 162.29 132.672 162.036 133.167C161.789 133.662 161.665 134.235 161.665 134.886C161.665 135.537 161.789 136.113 162.036 136.614C162.29 137.109 162.635 137.493 163.071 137.767C163.514 138.04 164.015 138.177 164.575 138.177ZM181.303 129.983L177.212 139.808H175.268L171.216 129.983H173.589L176.245 137.229L178.911 129.983H181.303ZM192.016 135.296H184.545C184.571 135.927 184.715 136.461 184.975 136.897C185.235 137.327 185.574 137.649 185.991 137.864C186.407 138.079 186.873 138.187 187.387 138.187C187.934 138.187 188.419 138.053 188.842 137.786C189.272 137.519 189.597 137.138 189.819 136.644L191.869 136.995C191.531 137.939 190.965 138.675 190.17 139.202C189.376 139.729 188.455 139.993 187.407 139.993C186.397 139.993 185.512 139.791 184.75 139.388C183.989 138.984 183.396 138.398 182.973 137.63C182.55 136.862 182.338 135.95 182.338 134.896C182.338 133.841 182.55 132.929 182.973 132.161C183.403 131.393 183.995 130.807 184.75 130.403C185.506 129.993 186.368 129.788 187.338 129.788C188.263 129.788 189.076 129.97 189.78 130.335C190.483 130.7 191.036 131.253 191.44 131.995C191.843 132.731 192.045 133.642 192.045 134.729L192.016 135.296ZM187.348 131.458C186.651 131.458 186.069 131.631 185.6 131.976C185.138 132.321 184.825 132.841 184.662 133.538H189.78C189.682 132.854 189.415 132.337 188.979 131.985C188.549 131.634 188.006 131.458 187.348 131.458ZM205.58 129.798C206.238 129.798 206.814 129.918 207.309 130.159C207.81 130.4 208.197 130.755 208.471 131.224C208.751 131.692 208.891 132.259 208.891 132.923V139.808H206.635V133.548C206.635 132.916 206.472 132.441 206.146 132.122C205.821 131.797 205.411 131.634 204.916 131.634C204.33 131.634 203.855 131.829 203.49 132.22C203.132 132.604 202.953 133.2 202.953 134.007V139.808H200.678V133.597C200.678 132.952 200.512 132.464 200.18 132.132C199.854 131.8 199.437 131.634 198.93 131.634C198.35 131.634 197.878 131.836 197.514 132.239C197.149 132.636 196.967 133.258 196.967 134.104V139.808H194.73V129.983H196.967V131.194C197.279 130.745 197.67 130.4 198.139 130.159C198.614 129.918 199.148 129.798 199.74 129.798C200.417 129.798 201.003 129.931 201.498 130.198C201.999 130.459 202.374 130.84 202.621 131.341C202.94 130.833 203.35 130.449 203.851 130.188C204.359 129.928 204.935 129.798 205.58 129.798ZM217.611 129.798C218.464 129.798 219.242 130.009 219.945 130.433C220.654 130.849 221.218 131.445 221.634 132.22C222.051 132.988 222.259 133.883 222.259 134.905C222.259 135.934 222.051 136.836 221.634 137.61C221.224 138.385 220.664 138.984 219.955 139.407C219.245 139.824 218.464 140.032 217.611 140.032C216.869 140.032 216.208 139.882 215.628 139.583C215.049 139.284 214.616 138.851 214.33 138.284L214.271 139.808H212.123V124.808H214.369V131.458C214.668 130.924 215.101 130.514 215.668 130.228C216.24 129.941 216.888 129.798 217.611 129.798ZM217.103 138.128C217.643 138.128 218.135 137.994 218.578 137.728C219.02 137.461 219.369 137.083 219.623 136.595C219.883 136.106 220.013 135.543 220.013 134.905C220.013 134.267 219.883 133.704 219.623 133.216C219.369 132.728 219.02 132.353 218.578 132.093C218.135 131.826 217.643 131.692 217.103 131.692C216.563 131.692 216.071 131.823 215.628 132.083C215.186 132.343 214.837 132.718 214.584 133.206C214.33 133.694 214.203 134.261 214.203 134.905C214.203 135.556 214.33 136.126 214.584 136.614C214.837 137.096 215.182 137.47 215.619 137.737C216.061 137.998 216.556 138.128 217.103 138.128ZM233.919 135.296H226.448C226.474 135.927 226.618 136.461 226.878 136.897C227.138 137.327 227.477 137.649 227.894 137.864C228.31 138.079 228.776 138.187 229.29 138.187C229.837 138.187 230.322 138.053 230.745 137.786C231.175 137.519 231.5 137.138 231.722 136.644L233.773 136.995C233.434 137.939 232.868 138.675 232.073 139.202C231.279 139.729 230.358 139.993 229.31 139.993C228.301 139.993 227.415 139.791 226.653 139.388C225.892 138.984 225.299 138.398 224.876 137.63C224.453 136.862 224.241 135.95 224.241 134.896C224.241 133.841 224.453 132.929 224.876 132.161C225.306 131.393 225.898 130.807 226.653 130.403C227.409 129.993 228.271 129.788 229.241 129.788C230.166 129.788 230.98 129.97 231.683 130.335C232.386 130.7 232.939 131.253 233.343 131.995C233.747 132.731 233.948 133.642 233.948 134.729L233.919 135.296ZM229.251 131.458C228.554 131.458 227.972 131.631 227.503 131.976C227.041 132.321 226.728 132.841 226.566 133.538H231.683C231.585 132.854 231.318 132.337 230.882 131.985C230.452 131.634 229.909 131.458 229.251 131.458ZM238.801 131.614C238.964 131.295 239.205 131.006 239.524 130.745C239.843 130.478 240.211 130.267 240.628 130.11C241.051 129.954 241.494 129.876 241.956 129.876V131.927C240.921 131.927 240.149 132.148 239.641 132.591C239.14 133.027 238.889 133.763 238.889 134.798V139.808H236.634V129.983H238.801V131.614ZM258.439 137.776V139.808H248.83V138.108L254.396 132.396C254.911 131.868 255.272 131.386 255.48 130.95C255.689 130.514 255.793 130.084 255.793 129.661C255.793 128.991 255.594 128.47 255.197 128.099C254.8 127.721 254.263 127.532 253.586 127.532C252.876 127.532 252.316 127.741 251.906 128.157C251.496 128.567 251.291 129.225 251.291 130.13V131.155L249.055 130.94V130.159C249.055 129.196 249.24 128.379 249.611 127.708C249.989 127.031 250.516 126.523 251.193 126.185C251.87 125.84 252.665 125.667 253.576 125.667C254.429 125.667 255.191 125.826 255.861 126.146C256.532 126.458 257.056 126.917 257.434 127.522C257.818 128.121 258.01 128.831 258.01 129.651C258.01 130.361 257.857 131.015 257.551 131.614C257.245 132.213 256.763 132.854 256.105 133.538L252.014 137.776H258.439ZM265.666 139.993C264.11 139.993 262.912 139.391 262.072 138.187C261.232 136.982 260.812 135.198 260.812 132.835C260.812 130.472 261.229 128.691 262.062 127.493C262.895 126.289 264.097 125.687 265.666 125.687C267.222 125.687 268.416 126.289 269.25 127.493C270.089 128.698 270.509 130.478 270.509 132.835C270.509 134.41 270.317 135.732 269.933 136.8C269.556 137.868 269.005 138.668 268.283 139.202C267.56 139.729 266.688 139.993 265.666 139.993ZM265.666 137.952C266.499 137.952 267.137 137.529 267.58 136.683C268.029 135.836 268.253 134.554 268.253 132.835C268.253 131.11 268.026 129.83 267.57 128.997C267.121 128.157 266.486 127.737 265.666 127.737C264.839 127.737 264.201 128.154 263.751 128.987C263.302 129.821 263.078 131.103 263.078 132.835C263.078 134.56 263.299 135.846 263.742 136.692C264.184 137.532 264.826 137.952 265.666 137.952ZM282.443 137.776V139.808H272.833V138.108L278.4 132.396C278.914 131.868 279.275 131.386 279.484 130.95C279.692 130.514 279.796 130.084 279.796 129.661C279.796 128.991 279.597 128.47 279.2 128.099C278.803 127.721 278.266 127.532 277.589 127.532C276.879 127.532 276.319 127.741 275.909 128.157C275.499 128.567 275.294 129.225 275.294 130.13V131.155L273.058 130.94V130.159C273.058 129.196 273.243 128.379 273.614 127.708C273.992 127.031 274.519 126.523 275.196 126.185C275.873 125.84 276.668 125.667 277.579 125.667C278.432 125.667 279.194 125.826 279.864 126.146C280.535 126.458 281.059 126.917 281.437 127.522C281.821 128.121 282.013 128.831 282.013 129.651C282.013 130.361 281.86 131.015 281.554 131.614C281.248 132.213 280.766 132.854 280.109 133.538L276.017 137.776H282.443ZM294.444 137.776V139.808H284.835V138.108L290.401 132.396C290.915 131.868 291.277 131.386 291.485 130.95C291.693 130.514 291.798 130.084 291.798 129.661C291.798 128.991 291.599 128.47 291.202 128.099C290.805 127.721 290.268 127.532 289.591 127.532C288.881 127.532 288.321 127.741 287.911 128.157C287.501 128.567 287.296 129.225 287.296 130.13V131.155L285.059 130.94V130.159C285.059 129.196 285.245 128.379 285.616 127.708C285.994 127.031 286.521 126.523 287.198 126.185C287.875 125.84 288.669 125.667 289.581 125.667C290.434 125.667 291.195 125.826 291.866 126.146C292.537 126.458 293.061 126.917 293.438 127.522C293.822 128.121 294.014 128.831 294.014 129.651C294.014 130.361 293.861 131.015 293.555 131.614C293.249 132.213 292.768 132.854 292.11 133.538L288.018 137.776H294.444Z" fill="#FDFAF5"/>
<path d="M378.023 127.578L383.101 132.808L378.023 138.039" stroke="#FDFAF5" stroke-width="1.5" stroke-linecap="round" stroke-linejoin="round"/>
<path d="M70.7775 176.859V188H68.9103V179.141L65.6994 188H64.5275L61.3322 179.164V188H59.4572V176.859H62.2541L65.1056 184.867L67.9806 176.859H70.7775ZM77.2694 188.148C76.4777 188.148 75.7668 187.984 75.1366 187.656C74.5116 187.323 74.022 186.849 73.6678 186.234C73.3136 185.62 73.1366 184.896 73.1366 184.062C73.1366 183.24 73.3136 182.521 73.6678 181.906C74.022 181.292 74.5116 180.82 75.1366 180.492C75.7616 180.159 76.4725 179.992 77.2694 179.992C78.0715 179.992 78.785 180.159 79.41 180.492C80.035 180.82 80.5246 181.292 80.8787 181.906C81.2329 182.521 81.41 183.24 81.41 184.062C81.41 184.896 81.2329 185.622 80.8787 186.242C80.5246 186.857 80.0324 187.328 79.4022 187.656C78.7772 187.984 78.0662 188.148 77.2694 188.148ZM77.2537 186.695C77.7069 186.695 78.1131 186.586 78.4725 186.367C78.8319 186.148 79.1131 185.841 79.3162 185.445C79.5194 185.044 79.6209 184.583 79.6209 184.062C79.6209 183.542 79.5194 183.083 79.3162 182.688C79.1131 182.292 78.8319 181.984 78.4725 181.766C78.1131 181.547 77.7069 181.438 77.2537 181.438C76.8058 181.438 76.4048 181.547 76.0506 181.766C75.7017 181.984 75.4256 182.292 75.2225 182.688C75.0246 183.083 74.9256 183.542 74.9256 184.062C74.9256 184.583 75.0246 185.044 75.2225 185.445C75.4256 185.841 75.7017 186.148 76.0506 186.367C76.4048 186.586 76.8058 186.695 77.2537 186.695Z" fill="#A8A8A8"/>
<path d="M119.379 178.523H116.629V188H114.778V178.523H112.012V176.859H119.379V178.523ZM127.238 180.141V188H125.527L125.48 187.016C125.215 187.38 124.874 187.661 124.457 187.859C124.045 188.052 123.579 188.148 123.058 188.148C122.173 188.148 121.48 187.914 120.98 187.445C120.48 186.971 120.23 186.299 120.23 185.43V180.141H122.043V185.039C122.043 185.596 122.186 186.01 122.472 186.281C122.764 186.547 123.139 186.68 123.597 186.68C124.139 186.68 124.579 186.516 124.918 186.188C125.262 185.854 125.436 185.344 125.441 184.656V180.141H127.238Z" fill="#A8A8A8"/>
<path d="M157.887 176.859H159.832L162.246 185.664L164.871 176.859H166.481L169.106 185.664L171.528 176.859H173.465L170.418 188H168.09L165.676 180.281L163.27 188H160.942L157.887 176.859ZM181.941 184.391H175.965C175.986 184.896 176.1 185.323 176.308 185.672C176.517 186.016 176.788 186.273 177.121 186.445C177.454 186.617 177.827 186.703 178.238 186.703C178.676 186.703 179.064 186.596 179.402 186.383C179.746 186.169 180.006 185.865 180.183 185.469L181.824 185.75C181.553 186.505 181.1 187.094 180.465 187.516C179.829 187.938 179.092 188.148 178.254 188.148C177.446 188.148 176.738 187.987 176.129 187.664C175.519 187.341 175.045 186.872 174.707 186.258C174.368 185.643 174.199 184.914 174.199 184.07C174.199 183.227 174.368 182.497 174.707 181.883C175.051 181.268 175.525 180.799 176.129 180.477C176.733 180.148 177.423 179.984 178.199 179.984C178.939 179.984 179.59 180.13 180.152 180.422C180.715 180.714 181.157 181.156 181.48 181.75C181.803 182.339 181.965 183.068 181.965 183.938L181.941 184.391ZM178.207 181.32C177.65 181.32 177.183 181.458 176.808 181.734C176.439 182.01 176.189 182.427 176.058 182.984H180.152C180.074 182.438 179.861 182.023 179.512 181.742C179.168 181.461 178.733 181.32 178.207 181.32Z" fill="#A8A8A8"/>
<path d="M218.965 178.523H216.215V188H214.363V178.523H211.598V176.859H218.965V178.523ZM225.051 179.992C225.905 179.992 226.577 180.24 227.066 180.734C227.556 181.224 227.801 181.938 227.801 182.875V188H225.988V183.188C225.988 182.589 225.842 182.151 225.551 181.875C225.264 181.599 224.887 181.461 224.418 181.461C223.902 181.461 223.47 181.625 223.121 181.953C222.772 182.276 222.595 182.786 222.59 183.484V188H220.793V176H222.59V181.125C222.861 180.766 223.204 180.487 223.621 180.289C224.043 180.091 224.519 179.992 225.051 179.992Z" fill="#A8A8A8"/>
<path d="M266.199 178.523V181.602H270.028V183.258H266.199V188H264.301V176.859H270.606V178.523H266.199ZM274.433 181.445C274.564 181.19 274.756 180.958 275.012 180.75C275.267 180.536 275.561 180.367 275.894 180.242C276.233 180.117 276.587 180.055 276.957 180.055V181.695C276.129 181.695 275.512 181.872 275.105 182.227C274.704 182.576 274.504 183.164 274.504 183.992V188H272.699V180.141H274.433V181.445Z" fill="#A8A8A8"/>
<path d="M315.028 188.148C314.241 188.148 313.53 188.029 312.895 187.789C312.264 187.544 311.746 187.19 311.34 186.727C310.934 186.258 310.671 185.701 310.551 185.055L312.473 184.609C312.572 185.24 312.858 185.729 313.332 186.078C313.811 186.422 314.403 186.594 315.106 186.594C315.694 186.594 316.184 186.464 316.574 186.203C316.965 185.938 317.16 185.534 317.16 184.992C317.16 184.607 317.035 184.292 316.785 184.047C316.535 183.797 316.228 183.604 315.863 183.469C315.504 183.328 314.994 183.164 314.332 182.977C313.603 182.763 313.007 182.552 312.543 182.344C312.08 182.13 311.692 181.826 311.379 181.43C311.067 181.029 310.91 180.51 310.91 179.875C310.91 179.203 311.077 178.63 311.41 178.156C311.749 177.677 312.207 177.315 312.785 177.07C313.363 176.826 314.012 176.703 314.731 176.703C315.413 176.703 316.048 176.802 316.637 177C317.225 177.198 317.725 177.508 318.137 177.93C318.554 178.352 318.83 178.883 318.965 179.523L317.16 179.977C317.041 179.404 316.772 178.977 316.356 178.695C315.944 178.409 315.434 178.266 314.824 178.266C314.251 178.266 313.77 178.396 313.379 178.656C312.994 178.917 312.801 179.312 312.801 179.844C312.801 180.167 312.91 180.432 313.129 180.641C313.348 180.849 313.621 181.016 313.949 181.141C314.278 181.26 314.738 181.404 315.332 181.57C316.113 181.789 316.757 182.008 317.262 182.227C317.767 182.445 318.197 182.771 318.551 183.203C318.91 183.63 319.09 184.19 319.09 184.883C319.09 185.617 318.905 186.229 318.535 186.719C318.166 187.208 317.673 187.57 317.059 187.805C316.449 188.034 315.772 188.148 315.028 188.148ZM328.926 180.141V188H327.207L327.16 186.742C326.931 187.19 326.582 187.542 326.113 187.797C325.644 188.052 325.121 188.18 324.543 188.18C323.861 188.18 323.236 188.013 322.668 187.68C322.1 187.341 321.65 186.862 321.316 186.242C320.983 185.622 320.816 184.901 320.816 184.078C320.816 183.26 320.983 182.544 321.316 181.93C321.65 181.31 322.1 180.833 322.668 180.5C323.236 180.161 323.861 179.992 324.543 179.992C325.111 179.992 325.624 180.115 326.082 180.359C326.54 180.599 326.889 180.932 327.129 181.359V180.141H328.926ZM324.941 186.656C325.374 186.656 325.767 186.547 326.121 186.328C326.475 186.109 326.754 185.805 326.957 185.414C327.16 185.018 327.262 184.573 327.262 184.078C327.262 183.583 327.157 183.141 326.949 182.75C326.746 182.359 326.467 182.055 326.113 181.836C325.759 181.617 325.368 181.508 324.941 181.508C324.509 181.508 324.116 181.615 323.762 181.828C323.407 182.036 323.126 182.336 322.918 182.727C322.715 183.117 322.613 183.568 322.613 184.078C322.613 184.594 322.715 185.047 322.918 185.438C323.126 185.828 323.407 186.13 323.762 186.344C324.116 186.552 324.509 186.656 324.941 186.656Z" fill="#A8A8A8"/>
<path d="M365.371 188.148C364.585 188.148 363.874 188.029 363.238 187.789C362.608 187.544 362.09 187.19 361.684 186.727C361.278 186.258 361.014 185.701 360.895 185.055L362.817 184.609C362.916 185.24 363.202 185.729 363.676 186.078C364.155 186.422 364.746 186.594 365.449 186.594C366.038 186.594 366.528 186.464 366.918 186.203C367.309 185.938 367.504 185.534 367.504 184.992C367.504 184.607 367.379 184.292 367.129 184.047C366.879 183.797 366.572 183.604 366.207 183.469C365.848 183.328 365.337 183.164 364.676 182.977C363.947 182.763 363.35 182.552 362.887 182.344C362.423 182.13 362.035 181.826 361.723 181.43C361.41 181.029 361.254 180.51 361.254 179.875C361.254 179.203 361.421 178.63 361.754 178.156C362.093 177.677 362.551 177.315 363.129 177.07C363.707 176.826 364.356 176.703 365.074 176.703C365.757 176.703 366.392 176.802 366.981 177C367.569 177.198 368.069 177.508 368.481 177.93C368.897 178.352 369.173 178.883 369.309 179.523L367.504 179.977C367.384 179.404 367.116 178.977 366.699 178.695C366.288 178.409 365.778 178.266 365.168 178.266C364.595 178.266 364.113 178.396 363.723 178.656C363.337 178.917 363.145 179.312 363.145 179.844C363.145 180.167 363.254 180.432 363.473 180.641C363.692 180.849 363.965 181.016 364.293 181.141C364.621 181.26 365.082 181.404 365.676 181.57C366.457 181.789 367.1 182.008 367.606 182.227C368.111 182.445 368.541 182.771 368.895 183.203C369.254 183.63 369.434 184.19 369.434 184.883C369.434 185.617 369.249 186.229 368.879 186.719C368.509 187.208 368.017 187.57 367.403 187.805C366.793 188.034 366.116 188.148 365.371 188.148ZM378.59 180.141V188H376.879L376.832 187.016C376.566 187.38 376.225 187.661 375.808 187.859C375.397 188.052 374.931 188.148 374.41 188.148C373.525 188.148 372.832 187.914 372.332 187.445C371.832 186.971 371.582 186.299 371.582 185.43V180.141H373.394V185.039C373.394 185.596 373.538 186.01 373.824 186.281C374.116 186.547 374.491 186.68 374.949 186.68C375.491 186.68 375.931 186.516 376.269 186.188C376.613 185.854 376.788 185.344 376.793 184.656V180.141H378.59Z" fill="#A8A8A8"/>
<g filter="url(#filter1_ii_146_25562)">
<path d="M24 43C24 40.7909 25.7909 39 28 39H415C417.209 39 419 40.7909 419 43V101H24V43Z" fill="url(#paint0_linear_146_25562)"/>
</g>
<g filter="url(#filter2_dd_146_25562)">
<rect width="395" height="6" transform="matrix(1 0 0 -1 24 111)" fill="url(#paint1_linear_146_25562)"/>
<rect width="395" height="6" transform="matrix(1 0 0 -1 24 111)" fill="url(#paint2_radial_146_25562)" fill-opacity="0.08" style="mix-blend-mode:plus-lighter"/>
</g>
<g filter="url(#filter3_dii_146_25562)">
<circle cx="83" cy="67" r="11" fill="black" fill-opacity="0.7" shape-rendering="crispEdges"/>
</g>
<g filter="url(#filter4_iii_146_25562)">
<rect x="78" y="12" width="10" height="60" rx="5" fill="url(#paint3_linear_146_25562)"/>
<rect x="78" y="12" width="10" height="60" rx="5" fill="url(#paint4_radial_146_25562)" fill-opacity="0.4"/>
</g>
<rect x="78.1125" y="12.1125" width="9.775" height="59.775" rx="4.8875" stroke="url(#paint5_linear_146_25562)" stroke-opacity="0.3" stroke-width="0.225"/>
<g filter="url(#filter5_dii_146_25562)">
<circle cx="152.25" cy="67" r="11" fill="black" fill-opacity="0.7" shape-rendering="crispEdges"/>
</g>
<g filter="url(#filter6_iii_146_25562)">
<rect x="147.25" y="12" width="10" height="60" rx="5" fill="url(#paint6_linear_146_25562)"/>
<rect x="147.25" y="12" width="10" height="60" rx="5" fill="url(#paint7_radial_146_25562)" fill-opacity="0.4"/>
</g>
<rect x="147.363" y="12.1125" width="9.775" height="59.775" rx="4.8875" stroke="url(#paint8_linear_146_25562)" stroke-opacity="0.3" stroke-width="0.225"/>
<g filter="url(#filter7_dii_146_25562)">
<circle cx="221.5" cy="67" r="11" fill="black" fill-opacity="0.7" shape-rendering="crispEdges"/>
</g>
<g filter="url(#filter8_iii_146_25562)">
<rect x="216.5" y="12" width="10" height="60" rx="5" fill="url(#paint9_linear_146_25562)"/>
<rect x="216.5" y="12" width="10" height="60" rx="5" fill="url(#paint10_radial_146_25562)" fill-opacity="0.4"/>
</g>
<rect x="216.613" y="12.1125" width="9.775" height="59.775" rx="4.8875" stroke="url(#paint11_linear_146_25562)" stroke-opacity="0.3" stroke-width="0.225"/>
<g filter="url(#filter9_dii_146_25562)">
<circle cx="290.75" cy="67" r="11" fill="black" fill-opacity="0.7" shape-rendering="crispEdges"/>
</g>
<g filter="url(#filter10_iii_146_25562)">
<rect x="285.75" y="12" width="10" height="60" rx="5" fill="url(#paint12_linear_146_25562)"/>
<rect x="285.75" y="12" width="10" height="60" rx="5" fill="url(#paint13_radial_146_25562)" fill-opacity="0.4"/>
</g>
<rect x="285.863" y="12.1125" width="9.775" height="59.775" rx="4.8875" stroke="url(#paint14_linear_146_25562)" stroke-opacity="0.3" stroke-width="0.225"/>
<g filter="url(#filter11_dii_146_25562)">
<circle cx="360" cy="67" r="11" fill="black" fill-opacity="0.7" shape-rendering="crispEdges"/>
</g>
<g filter="url(#filter12_iii_146_25562)">
<rect x="355" y="12" width="10" height="60" rx="5" fill="url(#paint15_linear_146_25562)"/>
<rect x="355" y="12" width="10" height="60" rx="5" fill="url(#paint16_radial_146_25562)" fill-opacity="0.4"/>
</g>
<rect x="355.113" y="12.1125" width="9.775" height="59.775" rx="4.8875" stroke="url(#paint17_linear_146_25562)" stroke-opacity="0.3" stroke-width="0.225"/>
</g>
<defs>
<filter id="filter0_d_146_25562" x="0" y="0" width="443" height="474" filterUnits="userSpaceOnUse" color-interpolation-filters="sRGB">
<feFlood flood-opacity="0" result="BackgroundImageFix"/>
<feColorMatrix in="SourceAlpha" type="matrix" values="0 0 0 0 0 0 0 0 0 0 0 0 0 0 0 0 0 0 127 0" result="hardAlpha"/>
<feOffset dy="12"/>
<feGaussianBlur stdDeviation="12"/>
<feComposite in2="hardAlpha" operator="out"/>
<feColorMatrix type="matrix" values="0 0 0 0 0 0 0 0 0 0 0 0 0 0 0 0 0 0 0.07 0"/>
<feBlend mode="normal" in2="BackgroundImageFix" result="effect1_dropShadow_146_25562"/>
<feBlend mode="normal" in="SourceGraphic" in2="effect1_dropShadow_146_25562" result="shape"/>
</filter>
<filter id="filter1_ii_146_25562" x="24" y="39" width="395" height="62.5" filterUnits="userSpaceOnUse" color-interpolation-filters="sRGB">
<feFlood flood-opacity="0" result="BackgroundImageFix"/>
<feBlend mode="normal" in="SourceGraphic" in2="BackgroundImageFix" result="shape"/>
<feColorMatrix in="SourceAlpha" type="matrix" values="0 0 0 0 0 0 0 0 0 0 0 0 0 0 0 0 0 0 127 0" result="hardAlpha"/>
<feOffset dy="0.5"/>
<feGaussianBlur stdDeviation="0.25"/>
<feComposite in2="hardAlpha" operator="arithmetic" k2="-1" k3="1"/>
<feColorMatrix type="matrix" values="0 0 0 0 1 0 0 0 0 0.778333 0 0 0 0 0.445833 0 0 0 1 0"/>
<feBlend mode="normal" in2="shape" result="effect1_innerShadow_146_25562"/>
<feColorMatrix in="SourceAlpha" type="matrix" values="0 0 0 0 0 0 0 0 0 0 0 0 0 0 0 0 0 0 127 0" result="hardAlpha"/>
<feOffset dy="0.1"/>
<feGaussianBlur stdDeviation="0.05"/>
<feComposite in2="hardAlpha" operator="arithmetic" k2="-1" k3="1"/>
<feColorMatrix type="matrix" values="0 0 0 0 1 0 0 0 0 0.98725 0 0 0 0 0.9625 0 0 0 0.4 0"/>
<feBlend mode="normal" in2="effect1_innerShadow_146_25562" result="effect2_innerShadow_146_25562"/>
</filter>
<filter id="filter2_dd_146_25562" x="20" y="103" width="403" height="14" filterUnits="userSpaceOnUse" color-interpolation-filters="sRGB">
<feFlood flood-opacity="0" result="BackgroundImageFix"/>
<feColorMatrix in="SourceAlpha" type="matrix" values="0 0 0 0 0 0 0 0 0 0 0 0 0 0 0 0 0 0 127 0" result="hardAlpha"/>
<feOffset dy="2"/>
<feGaussianBlur stdDeviation="2"/>
<feComposite in2="hardAlpha" operator="out"/>
<feColorMatrix type="matrix" values="0 0 0 0 0 0 0 0 0 0 0 0 0 0 0 0 0 0 0.16 0"/>
<feBlend mode="normal" in2="BackgroundImageFix" result="effect1_dropShadow_146_25562"/>
<feColorMatrix in="SourceAlpha" type="matrix" values="0 0 0 0 0 0 0 0 0 0 0 0 0 0 0 0 0 0 127 0" result="hardAlpha"/>
<feOffset dy="2"/>
<feGaussianBlur stdDeviation="0.5"/>
<feComposite in2="hardAlpha" operator="out"/>
<feColorMatrix type="matrix" values="0 0 0 0 0 0 0 0 0 0 0 0 0 0 0 0 0 0 0.08 0"/>
<feBlend mode="normal" in2="effect1_dropShadow_146_25562" result="effect2_dropShadow_146_25562"/>
<feBlend mode="normal" in="SourceGraphic" in2="effect2_dropShadow_146_25562" result="shape"/>
</filter>
<filter id="filter3_dii_146_25562" x="45" y="29" width="76" height="76" filterUnits="userSpaceOnUse" color-interpolation-filters="sRGB">
<feFlood flood-opacity="0" result="BackgroundImageFix"/>
<feColorMatrix in="SourceAlpha" type="matrix" values="0 0 0 0 0 0 0 0 0 0 0 0 0 0 0 0 0 0 127 0" result="hardAlpha"/>
<feOffset/>
<feGaussianBlur stdDeviation="13.5"/>
<feComposite in2="hardAlpha" operator="out"/>
<feColorMatrix type="matrix" values="0 0 0 0 1 0 0 0 0 1 0 0 0 0 1 0 0 0 0.2 0"/>
<feBlend mode="normal" in2="BackgroundImageFix" result="effect1_dropShadow_146_25562"/>
<feBlend mode="normal" in="SourceGraphic" in2="effect1_dropShadow_146_25562" result="shape"/>
<feColorMatrix in="SourceAlpha" type="matrix" values="0 0 0 0 0 0 0 0 0 0 0 0 0 0 0 0 0 0 127 0" result="hardAlpha"/>
<feOffset dy="2.25"/>
<feGaussianBlur stdDeviation="4.5"/>
<feComposite in2="hardAlpha" operator="arithmetic" k2="-1" k3="1"/>
<feColorMatrix type="matrix" values="0 0 0 0 0 0 0 0 0 0 0 0 0 0 0 0 0 0 0.4 0"/>
<feBlend mode="normal" in2="shape" result="effect2_innerShadow_146_25562"/>
<feColorMatrix in="SourceAlpha" type="matrix" values="0 0 0 0 0 0 0 0 0 0 0 0 0 0 0 0 0 0 127 0" result="hardAlpha"/>
<feOffset dy="2.25"/>
<feGaussianBlur stdDeviation="2.25"/>
<feComposite in2="hardAlpha" operator="arithmetic" k2="-1" k3="1"/>
<feColorMatrix type="matrix" values="0 0 0 0 0.0666667 0 0 0 0 0 0 0 0 0 0 0 0 0 1 0"/>
<feBlend mode="normal" in2="effect2_innerShadow_146_25562" result="effect3_innerShadow_146_25562"/>
</filter>
<filter id="filter4_iii_146_25562" x="78" y="9.75" width="10" height="64.5" filterUnits="userSpaceOnUse" color-interpolation-filters="sRGB">
<feFlood flood-opacity="0" result="BackgroundImageFix"/>
<feBlend mode="normal" in="SourceGraphic" in2="BackgroundImageFix" result="shape"/>
<feColorMatrix in="SourceAlpha" type="matrix" values="0 0 0 0 0 0 0 0 0 0 0 0 0 0 0 0 0 0 127 0" result="hardAlpha"/>
<feOffset dy="-2.25"/>
<feGaussianBlur stdDeviation="2.25"/>
<feComposite in2="hardAlpha" operator="arithmetic" k2="-1" k3="1"/>
<feColorMatrix type="matrix" values="0 0 0 0 0 0 0 0 0 0 0 0 0 0 0 0 0 0 1 0"/>
<feBlend mode="normal" in2="shape" result="effect1_innerShadow_146_25562"/>
<feColorMatrix in="SourceAlpha" type="matrix" values="0 0 0 0 0 0 0 0 0 0 0 0 0 0 0 0 0 0 127 0" result="hardAlpha"/>
<feMorphology radius="2.25" operator="dilate" in="SourceAlpha" result="effect2_innerShadow_146_25562"/>
<feOffset dy="4.5"/>
<feGaussianBlur stdDeviation="2.25"/>
<feComposite in2="hardAlpha" operator="arithmetic" k2="-1" k3="1"/>
<feColorMatrix type="matrix" values="0 0 0 0 1 0 0 0 0 1 0 0 0 0 1 0 0 0 0.5 0"/>
<feBlend mode="normal" in2="effect1_innerShadow_146_25562" result="effect2_innerShadow_146_25562"/>
<feColorMatrix in="SourceAlpha" type="matrix" values="0 0 0 0 0 0 0 0 0 0 0 0 0 0 0 0 0 0 127 0" result="hardAlpha"/>
<feMorphology radius="1" operator="dilate" in="SourceAlpha" result="effect3_innerShadow_146_25562"/>
<feOffset dy="-2"/>
<feGaussianBlur stdDeviation="1"/>
<feComposite in2="hardAlpha" operator="arithmetic" k2="-1" k3="1"/>
<feColorMatrix type="matrix" values="0 0 0 0 0.506445 0 0 0 0 0.212368 0 0 0 0 0.0851989 0 0 0 0.2 0"/>
<feBlend mode="normal" in2="effect2_innerShadow_146_25562" result="effect3_innerShadow_146_25562"/>
</filter>
<filter id="filter5_dii_146_25562" x="114.25" y="29" width="76" height="76" filterUnits="userSpaceOnUse" color-interpolation-filters="sRGB">
<feFlood flood-opacity="0" result="BackgroundImageFix"/>
<feColorMatrix in="SourceAlpha" type="matrix" values="0 0 0 0 0 0 0 0 0 0 0 0 0 0 0 0 0 0 127 0" result="hardAlpha"/>
<feOffset/>
<feGaussianBlur stdDeviation="13.5"/>
<feComposite in2="hardAlpha" operator="out"/>
<feColorMatrix type="matrix" values="0 0 0 0 1 0 0 0 0 1 0 0 0 0 1 0 0 0 0.2 0"/>
<feBlend mode="normal" in2="BackgroundImageFix" result="effect1_dropShadow_146_25562"/>
<feBlend mode="normal" in="SourceGraphic" in2="effect1_dropShadow_146_25562" result="shape"/>
<feColorMatrix in="SourceAlpha" type="matrix" values="0 0 0 0 0 0 0 0 0 0 0 0 0 0 0 0 0 0 127 0" result="hardAlpha"/>
<feOffset dy="2.25"/>
<feGaussianBlur stdDeviation="4.5"/>
<feComposite in2="hardAlpha" operator="arithmetic" k2="-1" k3="1"/>
<feColorMatrix type="matrix" values="0 0 0 0 0 0 0 0 0 0 0 0 0 0 0 0 0 0 0.4 0"/>
<feBlend mode="normal" in2="shape" result="effect2_innerShadow_146_25562"/>
<feColorMatrix in="SourceAlpha" type="matrix" values="0 0 0 0 0 0 0 0 0 0 0 0 0 0 0 0 0 0 127 0" result="hardAlpha"/>
<feOffset dy="2.25"/>
<feGaussianBlur stdDeviation="2.25"/>
<feComposite in2="hardAlpha" operator="arithmetic" k2="-1" k3="1"/>
<feColorMatrix type="matrix" values="0 0 0 0 0.0666667 0 0 0 0 0 0 0 0 0 0 0 0 0 1 0"/>
<feBlend mode="normal" in2="effect2_innerShadow_146_25562" result="effect3_innerShadow_146_25562"/>
</filter>
<filter id="filter6_iii_146_25562" x="147.25" y="9.75" width="10" height="64.5" filterUnits="userSpaceOnUse" color-interpolation-filters="sRGB">
<feFlood flood-opacity="0" result="BackgroundImageFix"/>
<feBlend mode="normal" in="SourceGraphic" in2="BackgroundImageFix" result="shape"/>
<feColorMatrix in="SourceAlpha" type="matrix" values="0 0 0 0 0 0 0 0 0 0 0 0 0 0 0 0 0 0 127 0" result="hardAlpha"/>
<feOffset dy="-2.25"/>
<feGaussianBlur stdDeviation="2.25"/>
<feComposite in2="hardAlpha" operator="arithmetic" k2="-1" k3="1"/>
<feColorMatrix type="matrix" values="0 0 0 0 0 0 0 0 0 0 0 0 0 0 0 0 0 0 1 0"/>
<feBlend mode="normal" in2="shape" result="effect1_innerShadow_146_25562"/>
<feColorMatrix in="SourceAlpha" type="matrix" values="0 0 0 0 0 0 0 0 0 0 0 0 0 0 0 0 0 0 127 0" result="hardAlpha"/>
<feMorphology radius="2.25" operator="dilate" in="SourceAlpha" result="effect2_innerShadow_146_25562"/>
<feOffset dy="4.5"/>
<feGaussianBlur stdDeviation="2.25"/>
<feComposite in2="hardAlpha" operator="arithmetic" k2="-1" k3="1"/>
<feColorMatrix type="matrix" values="0 0 0 0 1 0 0 0 0 1 0 0 0 0 1 0 0 0 0.5 0"/>
<feBlend mode="normal" in2="effect1_innerShadow_146_25562" result="effect2_innerShadow_146_25562"/>
<feColorMatrix in="SourceAlpha" type="matrix" values="0 0 0 0 0 0 0 0 0 0 0 0 0 0 0 0 0 0 127 0" result="hardAlpha"/>
<feMorphology radius="1" operator="dilate" in="SourceAlpha" result="effect3_innerShadow_146_25562"/>
<feOffset dy="-2"/>
<feGaussianBlur stdDeviation="1"/>
<feComposite in2="hardAlpha" operator="arithmetic" k2="-1" k3="1"/>
<feColorMatrix type="matrix" values="0 0 0 0 0.506445 0 0 0 0 0.212368 0 0 0 0 0.0851989 0 0 0 0.2 0"/>
<feBlend mode="normal" in2="effect2_innerShadow_146_25562" result="effect3_innerShadow_146_25562"/>
</filter>
<filter id="filter7_dii_146_25562" x="183.5" y="29" width="76" height="76" filterUnits="userSpaceOnUse" color-interpolation-filters="sRGB">
<feFlood flood-opacity="0" result="BackgroundImageFix"/>
<feColorMatrix in="SourceAlpha" type="matrix" values="0 0 0 0 0 0 0 0 0 0 0 0 0 0 0 0 0 0 127 0" result="hardAlpha"/>
<feOffset/>
<feGaussianBlur stdDeviation="13.5"/>
<feComposite in2="hardAlpha" operator="out"/>
<feColorMatrix type="matrix" values="0 0 0 0 1 0 0 0 0 1 0 0 0 0 1 0 0 0 0.2 0"/>
<feBlend mode="normal" in2="BackgroundImageFix" result="effect1_dropShadow_146_25562"/>
<feBlend mode="normal" in="SourceGraphic" in2="effect1_dropShadow_146_25562" result="shape"/>
<feColorMatrix in="SourceAlpha" type="matrix" values="0 0 0 0 0 0 0 0 0 0 0 0 0 0 0 0 0 0 127 0" result="hardAlpha"/>
<feOffset dy="2.25"/>
<feGaussianBlur stdDeviation="4.5"/>
<feComposite in2="hardAlpha" operator="arithmetic" k2="-1" k3="1"/>
<feColorMatrix type="matrix" values="0 0 0 0 0 0 0 0 0 0 0 0 0 0 0 0 0 0 0.4 0"/>
<feBlend mode="normal" in2="shape" result="effect2_innerShadow_146_25562"/>
<feColorMatrix in="SourceAlpha" type="matrix" values="0 0 0 0 0 0 0 0 0 0 0 0 0 0 0 0 0 0 127 0" result="hardAlpha"/>
<feOffset dy="2.25"/>
<feGaussianBlur stdDeviation="2.25"/>
<feComposite in2="hardAlpha" operator="arithmetic" k2="-1" k3="1"/>
<feColorMatrix type="matrix" values="0 0 0 0 0.0666667 0 0 0 0 0 0 0 0 0 0 0 0 0 1 0"/>
<feBlend mode="normal" in2="effect2_innerShadow_146_25562" result="effect3_innerShadow_146_25562"/>
</filter>
<filter id="filter8_iii_146_25562" x="216.5" y="9.75" width="10" height="64.5" filterUnits="userSpaceOnUse" color-interpolation-filters="sRGB">
<feFlood flood-opacity="0" result="BackgroundImageFix"/>
<feBlend mode="normal" in="SourceGraphic" in2="BackgroundImageFix" result="shape"/>
<feColorMatrix in="SourceAlpha" type="matrix" values="0 0 0 0 0 0 0 0 0 0 0 0 0 0 0 0 0 0 127 0" result="hardAlpha"/>
<feOffset dy="-2.25"/>
<feGaussianBlur stdDeviation="2.25"/>
<feComposite in2="hardAlpha" operator="arithmetic" k2="-1" k3="1"/>
<feColorMatrix type="matrix" values="0 0 0 0 0 0 0 0 0 0 0 0 0 0 0 0 0 0 1 0"/>
<feBlend mode="normal" in2="shape" result="effect1_innerShadow_146_25562"/>
<feColorMatrix in="SourceAlpha" type="matrix" values="0 0 0 0 0 0 0 0 0 0 0 0 0 0 0 0 0 0 127 0" result="hardAlpha"/>
<feMorphology radius="2.25" operator="dilate" in="SourceAlpha" result="effect2_innerShadow_146_25562"/>
<feOffset dy="4.5"/>
<feGaussianBlur stdDeviation="2.25"/>
<feComposite in2="hardAlpha" operator="arithmetic" k2="-1" k3="1"/>
<feColorMatrix type="matrix" values="0 0 0 0 1 0 0 0 0 1 0 0 0 0 1 0 0 0 0.5 0"/>
<feBlend mode="normal" in2="effect1_innerShadow_146_25562" result="effect2_innerShadow_146_25562"/>
<feColorMatrix in="SourceAlpha" type="matrix" values="0 0 0 0 0 0 0 0 0 0 0 0 0 0 0 0 0 0 127 0" result="hardAlpha"/>
<feMorphology radius="1" operator="dilate" in="SourceAlpha" result="effect3_innerShadow_146_25562"/>
<feOffset dy="-2"/>
<feGaussianBlur stdDeviation="1"/>
<feComposite in2="hardAlpha" operator="arithmetic" k2="-1" k3="1"/>
<feColorMatrix type="matrix" values="0 0 0 0 0.506445 0 0 0 0 0.212368 0 0 0 0 0.0851989 0 0 0 0.2 0"/>
<feBlend mode="normal" in2="effect2_innerShadow_146_25562" result="effect3_innerShadow_146_25562"/>
</filter>
<filter id="filter9_dii_146_25562" x="252.75" y="29" width="76" height="76" filterUnits="userSpaceOnUse" color-interpolation-filters="sRGB">
<feFlood flood-opacity="0" result="BackgroundImageFix"/>
<feColorMatrix in="SourceAlpha" type="matrix" values="0 0 0 0 0 0 0 0 0 0 0 0 0 0 0 0 0 0 127 0" result="hardAlpha"/>
<feOffset/>
<feGaussianBlur stdDeviation="13.5"/>
<feComposite in2="hardAlpha" operator="out"/>
<feColorMatrix type="matrix" values="0 0 0 0 1 0 0 0 0 1 0 0 0 0 1 0 0 0 0.2 0"/>
<feBlend mode="normal" in2="BackgroundImageFix" result="effect1_dropShadow_146_25562"/>
<feBlend mode="normal" in="SourceGraphic" in2="effect1_dropShadow_146_25562" result="shape"/>
<feColorMatrix in="SourceAlpha" type="matrix" values="0 0 0 0 0 0 0 0 0 0 0 0 0 0 0 0 0 0 127 0" result="hardAlpha"/>
<feOffset dy="2.25"/>
<feGaussianBlur stdDeviation="4.5"/>
<feComposite in2="hardAlpha" operator="arithmetic" k2="-1" k3="1"/>
<feColorMatrix type="matrix" values="0 0 0 0 0 0 0 0 0 0 0 0 0 0 0 0 0 0 0.4 0"/>
<feBlend mode="normal" in2="shape" result="effect2_innerShadow_146_25562"/>
<feColorMatrix in="SourceAlpha" type="matrix" values="0 0 0 0 0 0 0 0 0 0 0 0 0 0 0 0 0 0 127 0" result="hardAlpha"/>
<feOffset dy="2.25"/>
<feGaussianBlur stdDeviation="2.25"/>
<feComposite in2="hardAlpha" operator="arithmetic" k2="-1" k3="1"/>
<feColorMatrix type="matrix" values="0 0 0 0 0.0666667 0 0 0 0 0 0 0 0 0 0 0 0 0 1 0"/>
<feBlend mode="normal" in2="effect2_innerShadow_146_25562" result="effect3_innerShadow_146_25562"/>
</filter>
<filter id="filter10_iii_146_25562" x="285.75" y="9.75" width="10" height="64.5" filterUnits="userSpaceOnUse" color-interpolation-filters="sRGB">
<feFlood flood-opacity="0" result="BackgroundImageFix"/>
<feBlend mode="normal" in="SourceGraphic" in2="BackgroundImageFix" result="shape"/>
<feColorMatrix in="SourceAlpha" type="matrix" values="0 0 0 0 0 0 0 0 0 0 0 0 0 0 0 0 0 0 127 0" result="hardAlpha"/>
<feOffset dy="-2.25"/>
<feGaussianBlur stdDeviation="2.25"/>
<feComposite in2="hardAlpha" operator="arithmetic" k2="-1" k3="1"/>
<feColorMatrix type="matrix" values="0 0 0 0 0 0 0 0 0 0 0 0 0 0 0 0 0 0 1 0"/>
<feBlend mode="normal" in2="shape" result="effect1_innerShadow_146_25562"/>
<feColorMatrix in="SourceAlpha" type="matrix" values="0 0 0 0 0 0 0 0 0 0 0 0 0 0 0 0 0 0 127 0" result="hardAlpha"/>
<feMorphology radius="2.25" operator="dilate" in="SourceAlpha" result="effect2_innerShadow_146_25562"/>
<feOffset dy="4.5"/>
<feGaussianBlur stdDeviation="2.25"/>
<feComposite in2="hardAlpha" operator="arithmetic" k2="-1" k3="1"/>
<feColorMatrix type="matrix" values="0 0 0 0 1 0 0 0 0 1 0 0 0 0 1 0 0 0 0.5 0"/>
<feBlend mode="normal" in2="effect1_innerShadow_146_25562" result="effect2_innerShadow_146_25562"/>
<feColorMatrix in="SourceAlpha" type="matrix" values="0 0 0 0 0 0 0 0 0 0 0 0 0 0 0 0 0 0 127 0" result="hardAlpha"/>
<feMorphology radius="1" operator="dilate" in="SourceAlpha" result="effect3_innerShadow_146_25562"/>
<feOffset dy="-2"/>
<feGaussianBlur stdDeviation="1"/>
<feComposite in2="hardAlpha" operator="arithmetic" k2="-1" k3="1"/>
<feColorMatrix type="matrix" values="0 0 0 0 0.506445 0 0 0 0 0.212368 0 0 0 0 0.0851989 0 0 0 0.2 0"/>
<feBlend mode="normal" in2="effect2_innerShadow_146_25562" result="effect3_innerShadow_146_25562"/>
</filter>
<filter id="filter11_dii_146_25562" x="322" y="29" width="76" height="76" filterUnits="userSpaceOnUse" color-interpolation-filters="sRGB">
<feFlood flood-opacity="0" result="BackgroundImageFix"/>
<feColorMatrix in="SourceAlpha" type="matrix" values="0 0 0 0 0 0 0 0 0 0 0 0 0 0 0 0 0 0 127 0" result="hardAlpha"/>
<feOffset/>
<feGaussianBlur stdDeviation="13.5"/>
<feComposite in2="hardAlpha" operator="out"/>
<feColorMatrix type="matrix" values="0 0 0 0 1 0 0 0 0 1 0 0 0 0 1 0 0 0 0.2 0"/>
<feBlend mode="normal" in2="BackgroundImageFix" result="effect1_dropShadow_146_25562"/>
<feBlend mode="normal" in="SourceGraphic" in2="effect1_dropShadow_146_25562" result="shape"/>
<feColorMatrix in="SourceAlpha" type="matrix" values="0 0 0 0 0 0 0 0 0 0 0 0 0 0 0 0 0 0 127 0" result="hardAlpha"/>
<feOffset dy="2.25"/>
<feGaussianBlur stdDeviation="4.5"/>
<feComposite in2="hardAlpha" operator="arithmetic" k2="-1" k3="1"/>
<feColorMatrix type="matrix" values="0 0 0 0 0 0 0 0 0 0 0 0 0 0 0 0 0 0 0.4 0"/>
<feBlend mode="normal" in2="shape" result="effect2_innerShadow_146_25562"/>
<feColorMatrix in="SourceAlpha" type="matrix" values="0 0 0 0 0 0 0 0 0 0 0 0 0 0 0 0 0 0 127 0" result="hardAlpha"/>
<feOffset dy="2.25"/>
<feGaussianBlur stdDeviation="2.25"/>
<feComposite in2="hardAlpha" operator="arithmetic" k2="-1" k3="1"/>
<feColorMatrix type="matrix" values="0 0 0 0 0.0666667 0 0 0 0 0 0 0 0 0 0 0 0 0 1 0"/>
<feBlend mode="normal" in2="effect2_innerShadow_146_25562" result="effect3_innerShadow_146_25562"/>
</filter>
<filter id="filter12_iii_146_25562" x="355" y="9.75" width="10" height="64.5" filterUnits="userSpaceOnUse" color-interpolation-filters="sRGB">
<feFlood flood-opacity="0" result="BackgroundImageFix"/>
<feBlend mode="normal" in="SourceGraphic" in2="BackgroundImageFix" result="shape"/>
<feColorMatrix in="SourceAlpha" type="matrix" values="0 0 0 0 0 0 0 0 0 0 0 0 0 0 0 0 0 0 127 0" result="hardAlpha"/>
<feOffset dy="-2.25"/>
<feGaussianBlur stdDeviation="2.25"/>
<feComposite in2="hardAlpha" operator="arithmetic" k2="-1" k3="1"/>
<feColorMatrix type="matrix" values="0 0 0 0 0 0 0 0 0 0 0 0 0 0 0 0 0 0 1 0"/>
<feBlend mode="normal" in2="shape" result="effect1_innerShadow_146_25562"/>
<feColorMatrix in="SourceAlpha" type="matrix" values="0 0 0 0 0 0 0 0 0 0 0 0 0 0 0 0 0 0 127 0" result="hardAlpha"/>
<feMorphology radius="2.25" operator="dilate" in="SourceAlpha" result="effect2_innerShadow_146_25562"/>
<feOffset dy="4.5"/>
<feGaussianBlur stdDeviation="2.25"/>
<feComposite in2="hardAlpha" operator="arithmetic" k2="-1" k3="1"/>
<feColorMatrix type="matrix" values="0 0 0 0 1 0 0 0 0 1 0 0 0 0 1 0 0 0 0.5 0"/>
<feBlend mode="normal" in2="effect1_innerShadow_146_25562" result="effect2_innerShadow_146_25562"/>
<feColorMatrix in="SourceAlpha" type="matrix" values="0 0 0 0 0 0 0 0 0 0 0 0 0 0 0 0 0 0 127 0" result="hardAlpha"/>
<feMorphology radius="1" operator="dilate" in="SourceAlpha" result="effect3_innerShadow_146_25562"/>
<feOffset dy="-2"/>
<feGaussianBlur stdDeviation="1"/>
<feComposite in2="hardAlpha" operator="arithmetic" k2="-1" k3="1"/>
<feColorMatrix type="matrix" values="0 0 0 0 0.506445 0 0 0 0 0.212368 0 0 0 0 0.0851989 0 0 0 0.2 0"/>
<feBlend mode="normal" in2="effect2_innerShadow_146_25562" result="effect3_innerShadow_146_25562"/>
</filter>
<linearGradient id="paint0_linear_146_25562" x1="221.5" y1="39" x2="221.5" y2="101" gradientUnits="userSpaceOnUse">
<stop stop-color="#F38137"/>
<stop offset="1" stop-color="#DB5C30"/>
</linearGradient>
<linearGradient id="paint1_linear_146_25562" x1="197.5" y1="0" x2="197.5" y2="6" gradientUnits="userSpaceOnUse">
<stop stop-color="#9A2700"/>
<stop offset="1" stop-color="#B9380D"/>
</linearGradient>
<radialGradient id="paint2_radial_146_25562" cx="0" cy="0" r="1" gradientUnits="userSpaceOnUse" gradientTransform="translate(197.5) rotate(90) scale(6 197.5)">
<stop stop-color="white" stop-opacity="0"/>
<stop offset="1" stop-color="white"/>
</radialGradient>
<linearGradient id="paint3_linear_146_25562" x1="83" y1="12" x2="83" y2="72" gradientUnits="userSpaceOnUse">
<stop stop-color="#46444E"/>
<stop offset="0.0989583" stop-color="#A5A7AA"/>
<stop offset="0.269792" stop-color="white"/>
<stop offset="0.463542" stop-color="#B0AFB5"/>
<stop offset="0.657596" stop-color="#4F2E2C"/>
<stop offset="0.838059" stop-color="#7A462D"/>
<stop offset="0.984375" stop-color="#1D0F0F"/>
</linearGradient>
<radialGradient id="paint4_radial_146_25562" cx="0" cy="0" r="1" gradientUnits="userSpaceOnUse" gradientTransform="translate(83 27.8824) rotate(90) scale(7.05882 5)">
<stop stop-color="white"/>
<stop offset="1" stop-color="white" stop-opacity="0"/>
</radialGradient>
<linearGradient id="paint5_linear_146_25562" x1="83" y1="12" x2="83" y2="72" gradientUnits="userSpaceOnUse">
<stop/>
<stop offset="1" stop-color="white" stop-opacity="0"/>
</linearGradient>
<linearGradient id="paint6_linear_146_25562" x1="152.25" y1="12" x2="152.25" y2="72" gradientUnits="userSpaceOnUse">
<stop stop-color="#46444E"/>
<stop offset="0.0989583" stop-color="#A5A7AA"/>
<stop offset="0.269792" stop-color="white"/>
<stop offset="0.463542" stop-color="#B0AFB5"/>
<stop offset="0.657596" stop-color="#4F2E2C"/>
<stop offset="0.838059" stop-color="#7A462D"/>
<stop offset="0.984375" stop-color="#1D0F0F"/>
</linearGradient>
<radialGradient id="paint7_radial_146_25562" cx="0" cy="0" r="1" gradientUnits="userSpaceOnUse" gradientTransform="translate(152.25 27.8824) rotate(90) scale(7.05882 5)">
<stop stop-color="white"/>
<stop offset="1" stop-color="white" stop-opacity="0"/>
</radialGradient>
<linearGradient id="paint8_linear_146_25562" x1="152.25" y1="12" x2="152.25" y2="72" gradientUnits="userSpaceOnUse">
<stop/>
<stop offset="1" stop-color="white" stop-opacity="0"/>
</linearGradient>
<linearGradient id="paint9_linear_146_25562" x1="221.5" y1="12" x2="221.5" y2="72" gradientUnits="userSpaceOnUse">
<stop stop-color="#46444E"/>
<stop offset="0.0989583" stop-color="#A5A7AA"/>
<stop offset="0.269792" stop-color="white"/>
<stop offset="0.463542" stop-color="#B0AFB5"/>
<stop offset="0.657596" stop-color="#4F2E2C"/>
<stop offset="0.838059" stop-color="#7A462D"/>
<stop offset="0.984375" stop-color="#1D0F0F"/>
</linearGradient>
<radialGradient id="paint10_radial_146_25562" cx="0" cy="0" r="1" gradientUnits="userSpaceOnUse" gradientTransform="translate(221.5 27.8824) rotate(90) scale(7.05882 5)">
<stop stop-color="white"/>
<stop offset="1" stop-color="white" stop-opacity="0"/>
</radialGradient>
<linearGradient id="paint11_linear_146_25562" x1="221.5" y1="12" x2="221.5" y2="72" gradientUnits="userSpaceOnUse">
<stop/>
<stop offset="1" stop-color="white" stop-opacity="0"/>
</linearGradient>
<linearGradient id="paint12_linear_146_25562" x1="290.75" y1="12" x2="290.75" y2="72" gradientUnits="userSpaceOnUse">
<stop stop-color="#46444E"/>
<stop offset="0.0989583" stop-color="#A5A7AA"/>
<stop offset="0.269792" stop-color="white"/>
<stop offset="0.463542" stop-color="#B0AFB5"/>
<stop offset="0.657596" stop-color="#4F2E2C"/>
<stop offset="0.838059" stop-color="#7A462D"/>
<stop offset="0.984375" stop-color="#1D0F0F"/>
</linearGradient>
<radialGradient id="paint13_radial_146_25562" cx="0" cy="0" r="1" gradientUnits="userSpaceOnUse" gradientTransform="translate(290.75 27.8824) rotate(90) scale(7.05882 5)">
<stop stop-color="white"/>
<stop offset="1" stop-color="white" stop-opacity="0"/>
</radialGradient>
<linearGradient id="paint14_linear_146_25562" x1="290.75" y1="12" x2="290.75" y2="72" gradientUnits="userSpaceOnUse">
<stop/>
<stop offset="1" stop-color="white" stop-opacity="0"/>
</linearGradient>
<linearGradient id="paint15_linear_146_25562" x1="360" y1="12" x2="360" y2="72" gradientUnits="userSpaceOnUse">
<stop stop-color="#46444E"/>
<stop offset="0.0989583" stop-color="#A5A7AA"/>
<stop offset="0.269792" stop-color="white"/>
<stop offset="0.463542" stop-color="#B0AFB5"/>
<stop offset="0.657596" stop-color="#4F2E2C"/>
<stop offset="0.838059" stop-color="#7A462D"/>
<stop offset="0.984375" stop-color="#1D0F0F"/>
</linearGradient>
<radialGradient id="paint16_radial_146_25562" cx="0" cy="0" r="1" gradientUnits="userSpaceOnUse" gradientTransform="translate(360 27.8824) rotate(90) scale(7.05882 5)">
<stop stop-color="white"/>
<stop offset="1" stop-color="white" stop-opacity="0"/>
</radialGradient>
<linearGradient id="paint17_linear_146_25562" x1="360" y1="12" x2="360" y2="72" gradientUnits="userSpaceOnUse">
<stop/>
<stop offset="1" stop-color="white" stop-opacity="0"/>
</linearGradient>
</defs>
</svg>
