<svg width="18" height="18" viewBox="0 0 18 18" fill="none" xmlns="http://www.w3.org/2000/svg">
<g id="Vector">
<path fill-rule="evenodd" clip-rule="evenodd" d="M8.75676 0C9.83147 4.69773e-08 10.7027 0.87123 10.7027 1.94595L10.7027 16.0541C10.7027 17.1288 9.83147 18 8.75676 18C7.68204 18 6.81081 17.1288 6.81081 16.0541L6.81081 1.94595C6.81081 0.87123 7.68204 -4.69773e-08 8.75676 0Z" fill="#FFBABA"/>
<path fill-rule="evenodd" clip-rule="evenodd" d="M18 8.75676C18 9.83147 17.1288 10.7027 16.0541 10.7027L1.94595 10.7027C0.871229 10.7027 -9.39547e-08 9.83147 0 8.75675C9.39547e-08 7.68204 0.871229 6.81081 1.94595 6.81081L16.0541 6.81081C17.1288 6.81081 18 7.68204 18 8.75676Z" fill="#FFBABA"/>
</g>
</svg>
