<svg viewBox="0 0 123 159" fill="none" xmlns="http://www.w3.org/2000/svg">
<g clip-path="url(#clip0_146_8306)">
<path d="M123 71.5483V146.502C123 153.312 117.314 159 110.88 159H12.4945C5.68613 159 0 153.312 0 146.502V71.5483C0 64.7377 5.68613 59.0498 12.4945 59.0498H110.88C117.314 59.424 123 64.7377 123 71.5483Z" fill="#FDD32F"/>
<path d="M111.254 85.5435V147.25H11.7463V85.5435H111.254Z" fill="#FFEDAF"/>
<path d="M73.3959 111.289C73.3959 115.817 71.114 119.634 67.3357 121.505V125.658C67.3357 127.155 66.5875 128.689 65.4278 129.812C64.3056 130.935 62.7718 131.72 61.2755 131.72C57.8713 131.72 55.2153 129.064 55.2153 125.658V121.505C51.437 119.222 48.7809 115.068 49.5291 110.129C49.9032 104.441 54.8412 99.913 60.4899 99.5388C67.6724 99.1646 73.3585 104.441 73.3585 111.289H73.3959Z" fill="#FDD32F"/>
<path d="M111.254 71.1738H11.7463V85.5433H111.254V71.1738Z" fill="#F2F2F2"/>
<path d="M104.071 42.7717H92.3249C92.3249 25.7454 78.7081 12.1243 61.6871 12.1243C44.6661 12.1243 31.0493 25.7454 31.0493 42.7717V59.4239H19.303V42.7717C19.303 31.0217 24.2035 20.4316 31.7975 12.4985C39.3541 4.90209 49.9408 0 62.0612 0C85.1424 0.374206 104.071 19.309 104.071 42.7717Z" fill="#FFEDAF"/>
</g>
<defs>
<clipPath id="clip0_146_8306">
<rect width="123" height="159" fill="white"/>
</clipPath>
</defs>
</svg>
