<svg  viewBox="0 0 162 152" fill="none" xmlns="http://www.w3.org/2000/svg">
<g clip-path="url(#clip0_146_8312)">
<path d="M71.573 0H69.4412V49.2859H71.573V0Z" fill="white"/>
<path d="M120.317 0H118.186V49.2859H120.317V0Z" fill="white"/>
<path d="M162 67.0068H106.705V69.1333H162V67.0068Z" fill="white"/>
<path d="M83.4761 0H81.3665V16.6575H94.3576V42.6849H96.4894V14.531H83.4761V0Z" fill="white"/>
<path d="M162 31.2774V29.1509H145.3V42.1314H119.207V44.2578H147.432V31.2774H162Z" fill="white"/>
<path d="M126.535 152H128.645V141.789H120.984V128.454H118.852V143.915H126.535V152Z" fill="white"/>
<path d="M57.7382 0V12.9362H45.3245V29.6823H47.4563V15.0405H59.87V0H57.7382Z" fill="white"/>
<path d="M43.5035 117.555H14.6788V105.173H0V103.046H16.7885V115.429H43.5035V117.555Z" fill="white"/>
<path d="M43.5035 66.6743H14.6788V79.0567H0V81.1832H16.7885V68.8008H43.5035V66.6743Z" fill="white"/>
<path d="M162 103.711H159.868V92.6576C155.338 92.6576 138.239 92.7462 135.44 92.6576L135.507 90.5532C138.616 90.664 160.69 90.5532 160.912 90.5532H161.978V103.733L162 103.711Z" fill="white"/>
<path d="M71.0179 151.801H63.3564V149.674H68.886C68.886 145.155 68.7972 128.099 68.886 125.308L70.9956 125.397C70.8846 128.498 70.9956 150.516 70.9956 150.737V151.801H71.0179Z" fill="white"/>
<path d="M107.504 151.8H94.2908V150.737C94.2908 150.516 94.4018 128.498 94.2908 125.397L96.4004 125.33C96.5115 128.121 96.4226 145.177 96.4004 149.696H107.482V151.823L107.504 151.8Z" fill="white"/>
<path d="M162 115.141H127.291V117.267H162V115.141Z" fill="white"/>
<path d="M46.3904 42.1753H0V44.3018H46.3904V42.1753Z" fill="white"/>
<path d="M34.7095 90.8188H0V92.9453H34.7095V90.8188Z" fill="white"/>
<path d="M47.4563 117.179H45.3245V151.801H47.4563V117.179Z" fill="white"/>
<path d="M53.2303 23.8125H38.9734V32.54H53.2303V23.8125Z" fill="#EC5212"/>
<path d="M77.6133 23.8125H63.3564V32.54H77.6133V23.8125Z" fill="#EC5212"/>
<path d="M101.997 23.8125H87.7397V32.54H101.997V23.8125Z" fill="#EC5212"/>
<path d="M126.38 23.8125H112.123V32.54H126.38V23.8125Z" fill="#EC5212"/>
<path d="M53.2303 126.903H38.9734V135.63H53.2303V126.903Z" fill="#EC5212"/>
<path d="M77.6133 126.903H63.3564V135.63H77.6133V126.903Z" fill="#EC5212"/>
<path d="M101.997 126.903H87.7397V135.63H101.997V126.903Z" fill="#EC5212"/>
<path d="M126.38 126.903H112.123V135.63H126.38V126.903Z" fill="#EC5212"/>
<path d="M138.727 36.1284H129.978V50.3493H138.727V36.1284Z" fill="#EC5212"/>
<path d="M138.727 60.4502H129.978V74.6711H138.727V60.4502Z" fill="#EC5212"/>
<path d="M138.727 84.772H129.978V98.9929H138.727V84.772Z" fill="#EC5212"/>
<path d="M138.727 109.094H129.978V123.315H138.727V109.094Z" fill="#EC5212"/>
<path d="M35.3758 36.1284H26.6262V50.3493H35.3758V36.1284Z" fill="#EC5212"/>
<path d="M35.3758 60.4502H26.6262V74.6711H35.3758V60.4502Z" fill="#EC5212"/>
<path d="M35.3758 84.772H26.6262V98.9929H35.3758V84.772Z" fill="#EC5212"/>
<path d="M35.3758 109.094H26.6262V123.315H35.3758V109.094Z" fill="#EC5212"/>
<path d="M134.352 28.1763H31.001V131.267H134.352V28.1763Z" fill="#FFBABA"/>
<path d="M123.76 38.7422H41.616V120.679H123.76V38.7422Z" fill="#FFEDAF"/>
<path d="M60.1142 46.8052H50.0544V56.8396H60.1142V46.8052Z" fill="white"/>
<path d="M73.9047 46.8052H63.845V56.8396H73.9047V46.8052Z" fill="white"/>
<path d="M87.7175 46.8052H77.6577V56.8396H87.7175V46.8052Z" fill="white"/>
<path d="M101.508 46.8052H91.4482V56.8396H101.508V46.8052Z" fill="white"/>
<path d="M115.321 46.8052H105.261V56.8396H115.321V46.8052Z" fill="white"/>
<path d="M60.1142 60.7383H50.0544V70.7727H60.1142V60.7383Z" fill="white"/>
<path d="M73.9047 60.7383H63.845V70.7727H73.9047V60.7383Z" fill="white"/>
<path d="M87.7175 60.7383H77.6577V70.7727H87.7175V60.7383Z" fill="white"/>
<path d="M101.508 60.7383H91.4482V70.7727H101.508V60.7383Z" fill="white"/>
<path d="M115.321 60.7383H105.261V70.7727H115.321V60.7383Z" fill="white"/>
<path d="M60.1142 74.6934H50.0544V84.7277H60.1142V74.6934Z" fill="white"/>
<path d="M73.9047 74.6934H63.845V84.7277H73.9047V74.6934Z" fill="white"/>
<path d="M87.7175 74.6934H77.6577V84.7277H87.7175V74.6934Z" fill="white"/>
<path d="M101.508 74.6934H91.4482V84.7277H101.508V74.6934Z" fill="white"/>
<path d="M115.321 74.6934H105.261V84.7277H115.321V74.6934Z" fill="white"/>
<path d="M60.1142 88.6484H50.0544V98.6828H60.1142V88.6484Z" fill="white"/>
<path d="M73.9047 88.6484H63.845V98.6828H73.9047V88.6484Z" fill="white"/>
<path d="M87.7175 88.6484H77.6577V98.6828H87.7175V88.6484Z" fill="white"/>
<path d="M101.508 88.6484H91.4482V98.6828H101.508V88.6484Z" fill="white"/>
<path d="M115.321 88.6484H105.261V98.6828H115.321V88.6484Z" fill="white"/>
<path d="M60.1142 102.604H50.0544V112.638H60.1142V102.604Z" fill="white"/>
<path d="M73.9047 102.604H63.845V112.638H73.9047V102.604Z" fill="white"/>
<path d="M87.7175 102.604H77.6577V112.638H87.7175V102.604Z" fill="white"/>
<path d="M101.508 102.604H91.4482V112.638H101.508V102.604Z" fill="white"/>
<path d="M115.321 102.604H105.261V112.638H115.321V102.604Z" fill="white"/>
</g>
<defs>
<clipPath id="clip0_146_8312">
<rect width="162" height="152" fill="white"/>
</clipPath>
</defs>
</svg>
