<svg viewBox="0 0 147 149" fill="none" xmlns="http://www.w3.org/2000/svg">
<g clip-path="url(#clip0_146_8378)">
<path d="M54.6001 139.069V141.203C54.6001 145.509 63.0725 149 73.5182 149C83.9639 149 92.4182 145.509 92.4182 141.203V139.069H54.6001Z" fill="#FFBABA"/>
<path d="M92.4182 139.069C92.4182 143.374 83.9639 146.865 73.5182 146.865C63.0725 146.865 54.6001 143.374 54.6001 139.069C54.6001 134.764 63.0725 131.272 73.5182 131.272C83.9639 131.272 92.4182 134.764 92.4182 139.069Z" fill="#FFBABA"/>
<path d="M54.6906 116.24H19.1536V109.005H47.4493V76.4443H54.6906V116.24Z" fill="#FFBABA"/>
<path d="M22.3216 101.787L3.56641 112.622L22.3216 123.44V101.787Z" fill="#FFBABA"/>
<path d="M127.847 119.877H92.3096V80.0806H99.5509V112.641H127.847V119.877Z" fill="#EC5212"/>
<path d="M124.678 127.076L143.452 116.259L124.678 105.423V127.076Z" fill="#EC5212"/>
<path d="M77.1205 83.3726H69.8792V123.494H77.1205V83.3726Z" fill="#41B383"/>
<path d="M62.6741 120.329L73.4999 139.069L84.3258 120.329H62.6741Z" fill="#41B383"/>
<path d="M116.822 28.3275C113.762 28.3275 110.811 28.7798 108.023 29.63C105.489 12.8614 90.9879 0 73.5 0C56.0121 0 41.5112 12.8614 38.9767 29.63C36.1888 28.7798 33.2379 28.3275 30.1784 28.3275C13.5233 28.3275 0 41.822 0 58.4821C0 75.1422 13.5233 88.6547 30.1966 88.6547H116.822C133.495 88.6547 147.018 75.1422 147.018 58.4821C147.018 41.822 133.495 28.3095 116.822 28.3095V28.3275Z" fill="#619BF7"/>
</g>
<defs>
<clipPath id="clip0_146_8378">
<rect width="147" height="149" fill="white"/>
</clipPath>
</defs>
</svg>
