<svg  viewBox="0 0 239 307" fill="none" xmlns="http://www.w3.org/2000/svg">
<path d="M194.127 62.836H152.61V21.5859H194.127L181.559 41.697L194.127 62.836Z" fill="#FF5000"/>
<path d="M160.947 52.7805L152.61 62.8361V11.5304H160.947V52.7805Z" fill="#EC5212"/>
<path d="M121.525 6.70374H117.336V112.086H121.525V6.70374Z" fill="#646464"/>
<path d="M238.115 306.896H0.70459L85.9578 157.492L119.389 98.8573L150.767 153.828L238.115 306.896Z" fill="#41B383"/>
<path d="M119.431 306.896H238.115L150.767 153.828L119.431 98.902V306.896Z" fill="#41B383"/>
<path d="M150.767 153.828L145.237 174.654L130.91 167.95L122.196 189.179L108.245 153.828L94.2529 178.765L85.958 157.492L119.389 98.8573L150.767 153.828Z" fill="#FDFAF5"/>
<path d="M160.947 11.5304H119.431V52.7805H160.947V11.5304Z" fill="#FF6400"/>
<path d="M119.431 13.4074C122.901 13.4074 125.715 10.4061 125.715 6.7037C125.715 3.00135 122.901 0 119.431 0C115.96 0 113.146 3.00135 113.146 6.7037C113.146 10.4061 115.96 13.4074 119.431 13.4074Z" fill="#FFEDAF"/>
</svg>
