<svg  viewBox="0 0 134 149" fill="none" xmlns="http://www.w3.org/2000/svg">
<path d="M23.4156 66.0314C23.1437 66.0314 22.5998 66.0314 22.3278 65.7595C21.5119 65.2156 21.5119 64.1005 22.0558 63.2847L55.8875 22.5724C56.4314 21.7565 57.5465 21.7565 58.3623 22.3005C59.1782 22.8444 59.1782 23.9594 58.6343 24.7753L24.8026 65.4875C24.2587 65.7595 23.9867 66.0314 23.4156 66.0314Z" fill="black"/>
<path d="M57.2474 66.0314C56.7035 66.0314 56.1324 65.7595 55.8604 65.4875L22.0287 24.7753C21.4848 23.9594 21.4848 22.8444 22.3007 22.3005C23.1166 21.7565 24.2316 21.7565 24.7755 22.5724L58.6072 63.2847C59.1511 64.1005 59.1511 65.2156 58.3352 65.7595C58.0633 65.7595 57.5194 66.0314 57.2474 66.0314Z" fill="black"/>
<path d="M76.774 66.0314C76.5021 66.0314 75.9582 66.0314 75.6862 65.7595C74.8703 65.2156 74.8703 64.1005 75.4142 63.2847L109.246 22.5724C109.79 21.7565 110.905 21.7565 111.721 22.3005C112.537 22.8444 112.537 23.9594 111.993 24.7753L77.8891 65.4875C77.6171 65.7595 77.0732 66.0314 76.774 66.0314Z" fill="black"/>
<path d="M110.606 66.0314C110.062 66.0314 109.518 65.7595 109.246 65.4875L75.4142 24.7753C74.8703 23.9594 74.8703 22.8444 75.6862 22.3005C76.5021 21.7565 77.6171 21.7565 78.161 22.5724L111.993 63.2847C112.537 64.1005 112.537 65.2156 111.721 65.7595C111.177 65.7595 110.905 66.0314 110.606 66.0314Z" fill="black"/>
<path d="M23.4156 126.271C23.1437 126.271 22.5998 126.271 22.3278 125.999C21.5119 125.455 21.5119 124.34 22.0558 123.524L55.8875 82.8117C56.4314 81.9958 57.5465 81.9958 58.3623 82.5397C59.1782 83.0836 59.1782 84.1987 58.6343 85.0145L24.8026 125.455C24.2587 125.999 23.9867 126.271 23.4156 126.271Z" fill="black"/>
<path d="M57.2474 126.271C56.7035 126.271 56.1324 125.999 55.8604 125.727L22.0287 84.7426C21.4848 83.9267 21.4848 82.8117 22.3007 82.2677C23.1166 81.7238 24.2316 81.7238 24.7755 82.5397L58.6072 123.252C59.1511 124.068 59.1511 125.183 58.3352 125.727C58.0633 125.999 57.5194 126.271 57.2474 126.271Z" fill="black"/>
<path d="M110.606 126.271C110.062 126.271 109.518 125.999 109.246 125.727L75.4142 84.7426C74.8703 83.9267 74.8703 82.8117 75.6862 82.2677C76.5021 81.7238 77.6171 81.7238 78.161 82.5397L111.993 123.252C112.537 124.068 112.537 125.183 111.721 125.727C111.177 125.999 110.905 126.271 110.606 126.271Z" fill="black"/>
<path d="M76.774 126.271C76.5021 126.271 75.9582 126.271 75.6862 125.999C74.8703 125.455 74.8703 124.34 75.4142 123.524L109.246 82.5397C109.79 81.7238 110.905 81.7238 111.721 82.2677C112.537 82.8117 112.537 83.9267 111.993 84.7426L77.8891 125.455C77.6171 125.999 77.0732 126.271 76.774 126.271Z" fill="black"/>
<path d="M53.1135 135.898H27.2503C26.4344 135.898 25.5913 135.082 25.5913 134.239C25.5913 133.396 26.4072 132.58 27.2503 132.58H53.1135C53.9294 132.58 54.7725 133.396 54.7725 134.239C55.0445 135.055 54.2286 135.898 53.1135 135.898Z" fill="black"/>
<path d="M106.499 135.898H80.6358C79.8199 135.898 78.9768 135.082 78.9768 134.239C78.9768 133.396 79.7927 132.58 80.6358 132.58H106.499C107.315 132.58 108.158 133.396 108.158 134.239C108.158 135.082 107.342 135.898 106.499 135.898Z" fill="black"/>
<path d="M53.1135 75.6587H27.2503C26.4344 75.6587 25.5913 74.8428 25.5913 73.9998C25.5913 73.1567 26.4072 72.3408 27.2503 72.3408H53.1135C53.9294 72.3408 54.7725 73.1567 54.7725 73.9998C54.7725 74.8428 54.2286 75.6587 53.1135 75.6587Z" fill="black"/>
<path d="M106.499 75.6587H80.6358C79.8199 75.6587 78.9768 74.8428 78.9768 73.9998C78.9768 73.1567 79.7927 72.3408 80.6358 72.3408H106.499C107.315 72.3408 108.158 73.1567 108.158 73.9998C108.158 74.8428 107.342 75.6587 106.499 75.6587Z" fill="black"/>
<path d="M53.1135 15.6919H27.2503C26.4344 15.6919 25.5913 14.876 25.5913 14.033C25.5913 13.1899 26.4072 12.374 27.2503 12.374H53.1135C53.9294 12.374 54.7725 13.1899 54.7725 14.033C54.7725 14.876 54.2286 15.6919 53.1135 15.6919Z" fill="black"/>
<path d="M106.499 15.6919H80.6358C79.8199 15.6919 78.9768 14.876 78.9768 14.033C78.9768 13.1899 79.7927 12.374 80.6358 12.374H106.499C107.315 12.374 108.158 13.1899 108.158 14.033C108.158 14.876 107.342 15.6919 106.499 15.6919Z" fill="black"/>
<path d="M120.233 120.505C127.929 120.505 133.994 126.57 133.994 134.266C133.994 141.962 127.929 148.027 120.233 148.027C112.537 148.027 106.472 141.962 106.472 134.266C106.472 126.57 112.537 120.505 120.233 120.505Z" fill="#FFEDAF"/>
<path d="M76.774 124.34C82.2676 129.561 82.2676 138.373 76.774 143.866C71.2804 149.36 62.7409 149.36 57.2474 143.866C51.7538 138.645 51.7538 129.833 57.2474 124.34C62.469 119.118 71.2804 119.118 76.774 124.34Z" fill="#41B383"/>
<path d="M27.5222 134.266C27.5222 141.962 21.4576 148.027 13.7611 148.027C6.06468 148.027 0 141.962 0 134.266C0 126.57 6.06468 120.505 13.7611 120.505C21.4576 120.505 27.5222 126.57 27.5222 134.266Z" fill="#619BF7"/>
<path d="M120.233 60.2388C127.93 60.2388 133.994 66.3035 133.994 73.9999C133.994 81.6963 127.93 87.761 120.233 87.761C116.371 87.761 113.081 86.1021 110.606 83.6272C105.112 78.1337 105.112 69.5942 110.606 64.1006C113.081 61.8977 116.371 60.2388 120.233 60.2388Z" fill="#619BF7"/>
<path d="M27.5222 73.9999C27.5222 81.6963 21.4576 87.761 13.7611 87.761C6.06468 87.761 0 81.6963 0 73.9999C0 66.3035 6.06468 60.2388 13.7611 60.2388C21.4576 60.2388 27.5222 66.3035 27.5222 73.9999Z" fill="#EC5212"/>
<path d="M76.774 64.3726C82.2676 69.5942 82.2676 78.4057 76.774 83.8993C71.2804 89.3928 62.7409 89.3928 57.2474 83.8993C51.7538 78.6777 51.7538 69.8662 57.2474 64.3726C62.469 58.879 71.2804 58.879 76.774 64.3726Z" fill="#41B383"/>
<path d="M120.233 0C127.929 0 133.994 6.06468 133.994 13.7611C133.994 21.4576 127.929 27.5222 120.233 27.5222C112.537 27.5222 106.472 21.4847 106.472 13.7611C106.472 6.03749 112.537 0 120.233 0Z" fill="#FFEDAF"/>
<path d="M76.7739 4.13367C82.2675 9.35528 82.2675 18.1667 76.7739 23.6603C71.2804 29.1539 62.7409 29.1539 57.2473 23.6603C54.5005 20.9135 53.1135 17.3237 53.1135 14.033C53.1135 10.4431 54.5005 6.88046 57.2473 4.40563C62.4689 -1.3599 71.2804 -1.3599 76.7739 4.13367Z" fill="#FDFAF5"/>
<path d="M13.761 0C21.4575 0 27.5221 6.06468 27.5221 13.7611C27.5221 21.4576 21.4575 27.5222 13.761 27.5222C6.06459 27.5222 0.0270996 21.4576 0.0270996 13.7611C0.0270996 6.06468 6.06459 0 13.761 0Z" fill="#FDFAF5"/>
</svg>
