<svg width="100%" height="100%" viewBox="100 0 1089 269" fill="none" xmlns="http://www.w3.org/2000/svg">
<path d="M989 269C989 233.674 982.055 198.695 968.562 166.058C955.068 133.422 935.291 103.767 910.358 78.7883C885.426 53.8093 855.826 33.9949 823.25 20.4764C790.675 6.95789 755.76 -1.54413e-06 720.5 0C685.24 1.54413e-06 650.325 6.95789 617.749 20.4764C585.174 33.9949 555.574 53.8093 530.642 78.7883C505.709 103.767 485.932 133.422 472.438 166.058C458.945 198.695 452 233.674 452 269H720.5H989Z" fill="#FFEDAF"/>
<path d="M100 137C100 109.386 122.386 87 150 87H681C708.614 87 731 109.386 731 137V268H100V137Z" fill="#41B383"/>
<path d="M232.039 159.686V194.5H226.204V166.814L216.17 194.5H212.508L202.522 166.888V194.5H196.663V159.686H205.403L214.314 184.71L223.299 159.686H232.039ZM252.326 194.964C249.852 194.964 247.631 194.451 245.661 193.426C243.708 192.384 242.178 190.903 241.071 188.982C239.965 187.062 239.411 184.799 239.411 182.195C239.411 179.624 239.965 177.378 241.071 175.457C242.178 173.536 243.708 172.063 245.661 171.038C247.614 169.996 249.836 169.476 252.326 169.476C254.833 169.476 257.062 169.996 259.016 171.038C260.969 172.063 262.499 173.536 263.605 175.457C264.712 177.378 265.266 179.624 265.266 182.195C265.266 184.799 264.712 187.07 263.605 189.007C262.499 190.927 260.961 192.4 258.991 193.426C257.038 194.451 254.816 194.964 252.326 194.964ZM252.277 190.423C253.693 190.423 254.963 190.081 256.086 189.397C257.209 188.714 258.088 187.754 258.723 186.517C259.357 185.263 259.675 183.823 259.675 182.195C259.675 180.568 259.357 179.135 258.723 177.898C258.088 176.661 257.209 175.701 256.086 175.018C254.963 174.334 253.693 173.992 252.277 173.992C250.878 173.992 249.624 174.334 248.518 175.018C247.427 175.701 246.564 176.661 245.93 177.898C245.311 179.135 245.002 180.568 245.002 182.195C245.002 183.823 245.311 185.263 245.93 186.517C246.564 187.754 247.427 188.714 248.518 189.397C249.624 190.081 250.878 190.423 252.277 190.423ZM277.374 174.017C277.781 173.219 278.383 172.495 279.181 171.844C279.978 171.176 280.898 170.647 281.939 170.257C282.997 169.866 284.104 169.671 285.26 169.671V174.798C282.672 174.798 280.743 175.351 279.474 176.458C278.22 177.549 277.594 179.388 277.594 181.976V194.5H271.954V169.939H277.374V174.017ZM312.92 183.221H294.243C294.308 184.799 294.666 186.134 295.317 187.225C295.968 188.299 296.815 189.104 297.856 189.642C298.898 190.179 300.062 190.447 301.348 190.447C302.715 190.447 303.927 190.114 304.985 189.446C306.06 188.779 306.873 187.827 307.427 186.59L312.554 187.469C311.707 189.829 310.291 191.668 308.306 192.986C306.32 194.305 304.017 194.964 301.396 194.964C298.874 194.964 296.66 194.459 294.756 193.45C292.852 192.441 291.37 190.976 290.312 189.056C289.255 187.135 288.726 184.856 288.726 182.22C288.726 179.583 289.255 177.304 290.312 175.384C291.387 173.463 292.868 171.998 294.756 170.989C296.644 169.964 298.8 169.451 301.226 169.451C303.537 169.451 305.571 169.907 307.329 170.818C309.087 171.73 310.47 173.113 311.479 174.969C312.489 176.808 312.993 179.087 312.993 181.805L312.92 183.221ZM301.25 173.626C299.508 173.626 298.052 174.057 296.88 174.92C295.724 175.783 294.943 177.085 294.536 178.826H307.329C307.085 177.117 306.418 175.823 305.327 174.944C304.253 174.065 302.894 173.626 301.25 173.626ZM330.496 159.686H336.575L344.119 187.2L352.322 159.686H357.352L365.555 187.2L373.123 159.686H379.178L369.656 194.5H362.381L354.837 170.379L347.317 194.5H340.042L330.496 159.686ZM406.789 169.939V194.5H401.418L401.271 190.569C400.555 191.969 399.465 193.068 398 193.865C396.535 194.663 394.899 195.062 393.093 195.062C390.961 195.062 389.007 194.541 387.233 193.499C385.459 192.441 384.051 190.944 383.01 189.007C381.968 187.07 381.447 184.816 381.447 182.244C381.447 179.689 381.968 177.451 383.01 175.53C384.051 173.593 385.459 172.104 387.233 171.062C389.007 170.005 390.961 169.476 393.093 169.476C394.867 169.476 396.47 169.858 397.902 170.623C399.335 171.372 400.425 172.413 401.174 173.748V169.939H406.789ZM394.338 190.301C395.689 190.301 396.918 189.959 398.024 189.275C399.131 188.592 400.002 187.64 400.637 186.419C401.271 185.182 401.589 183.79 401.589 182.244C401.589 180.698 401.263 179.314 400.612 178.094C399.978 176.873 399.107 175.921 398 175.237C396.893 174.554 395.673 174.212 394.338 174.212C392.987 174.212 391.758 174.546 390.651 175.213C389.545 175.864 388.666 176.8 388.015 178.021C387.38 179.241 387.062 180.649 387.062 182.244C387.062 183.855 387.38 185.271 388.015 186.492C388.666 187.713 389.545 188.657 390.651 189.324C391.758 189.975 392.987 190.301 394.338 190.301ZM437.086 169.939V194.598C437.086 202.28 433.359 206.121 425.904 206.121C422.747 206.121 420.248 205.486 418.409 204.217C416.586 202.947 415.39 201.173 414.82 198.895L419.728 196.966C420.118 198.772 420.81 200.026 421.803 200.726C422.812 201.425 424.179 201.775 425.904 201.775C429.583 201.775 431.422 199.798 431.422 195.843V191.375C430.592 192.449 429.542 193.279 428.272 193.865C427.003 194.435 425.579 194.72 424 194.72C421.233 194.72 419.068 193.979 417.506 192.498C415.943 191.017 415.162 188.925 415.162 186.224V169.939H420.826V185.003C420.826 186.744 421.282 188.038 422.193 188.885C423.105 189.715 424.277 190.13 425.709 190.13C427.385 190.13 428.753 189.617 429.811 188.592C430.885 187.55 431.422 185.955 431.422 183.807V169.939H437.086ZM453.882 194.964C451.115 194.964 448.812 194.386 446.973 193.23C445.15 192.059 444.035 190.366 443.628 188.152L448.389 186.81C448.714 188.177 449.357 189.21 450.317 189.91C451.278 190.594 452.466 190.936 453.882 190.936C455.037 190.936 456.022 190.7 456.836 190.228C457.65 189.739 458.057 188.966 458.057 187.908C458.057 187.192 457.837 186.606 457.397 186.15C456.958 185.678 456.388 185.304 455.688 185.027C455.005 184.751 454.036 184.433 452.783 184.075C451.953 183.847 451.196 183.619 450.513 183.392C449.243 182.985 448.169 182.529 447.29 182.024C446.411 181.52 445.687 180.836 445.117 179.974C444.548 179.095 444.263 177.988 444.263 176.653C444.263 175.058 444.661 173.732 445.459 172.674C446.257 171.6 447.347 170.802 448.73 170.281C450.114 169.76 451.676 169.5 453.418 169.5C455.876 169.5 457.943 170.029 459.619 171.087C461.312 172.145 462.362 173.764 462.769 175.945L458.325 176.995C458.016 175.758 457.422 174.847 456.543 174.261C455.68 173.675 454.647 173.382 453.442 173.382C452.319 173.382 451.367 173.618 450.586 174.09C449.821 174.546 449.438 175.245 449.438 176.189C449.438 176.857 449.658 177.402 450.098 177.825C450.537 178.232 451.082 178.558 451.733 178.802C452.401 179.03 453.337 179.298 454.541 179.607C454.688 179.656 454.989 179.738 455.444 179.852C457.039 180.275 458.398 180.747 459.521 181.268C460.645 181.788 461.58 182.562 462.329 183.587C463.094 184.596 463.477 185.906 463.477 187.518C463.477 189.243 463.037 190.667 462.158 191.79C461.296 192.897 460.14 193.702 458.691 194.207C457.259 194.712 455.656 194.964 453.882 194.964ZM492.137 194.5C489.923 194.5 488.198 193.873 486.961 192.62C485.724 191.367 485.105 189.601 485.105 187.322V174.334H480.198V169.939C481.907 169.939 483.177 169.752 484.007 169.378C484.853 169.004 485.439 168.304 485.765 167.278C486.106 166.253 486.277 164.682 486.277 162.566H490.794V169.939H496.141V174.334H490.794V186.736C490.794 187.859 491.071 188.714 491.624 189.3C492.194 189.869 492.959 190.154 493.919 190.154H496.141V194.5H492.137ZM513.498 194.964C511.024 194.964 508.802 194.451 506.833 193.426C504.88 192.384 503.35 190.903 502.243 188.982C501.136 187.062 500.583 184.799 500.583 182.195C500.583 179.624 501.136 177.378 502.243 175.457C503.35 173.536 504.88 172.063 506.833 171.038C508.786 169.996 511.008 169.476 513.498 169.476C516.005 169.476 518.234 169.996 520.188 171.038C522.141 172.063 523.671 173.536 524.777 175.457C525.884 177.378 526.438 179.624 526.438 182.195C526.438 184.799 525.884 187.07 524.777 189.007C523.671 190.927 522.132 192.4 520.163 193.426C518.21 194.451 515.988 194.964 513.498 194.964ZM513.449 190.423C514.865 190.423 516.135 190.081 517.258 189.397C518.381 188.714 519.26 187.754 519.895 186.517C520.529 185.263 520.847 183.823 520.847 182.195C520.847 180.568 520.529 179.135 519.895 177.898C519.26 176.661 518.381 175.701 517.258 175.018C516.135 174.334 514.865 173.992 513.449 173.992C512.049 173.992 510.796 174.334 509.689 175.018C508.599 175.701 507.736 176.661 507.102 177.898C506.483 179.135 506.174 180.568 506.174 182.195C506.174 183.823 506.483 185.263 507.102 186.517C507.736 187.754 508.599 188.714 509.689 189.397C510.796 190.081 512.049 190.423 513.449 190.423ZM543.916 159.686H549.995L557.539 187.2L565.742 159.686H570.771L578.975 187.2L586.543 159.686H592.598L583.076 194.5H575.801L568.257 170.379L560.737 194.5H553.462L543.916 159.686ZM598.896 169.939H604.535V194.5H598.896V169.939ZM601.752 165.252C601.133 165.252 600.556 165.097 600.019 164.788C599.481 164.479 599.058 164.064 598.749 163.543C598.44 163.006 598.285 162.428 598.285 161.81C598.285 161.191 598.44 160.621 598.749 160.101C599.058 159.563 599.481 159.14 600.019 158.831C600.556 158.522 601.133 158.367 601.752 158.367C602.354 158.367 602.916 158.522 603.437 158.831C603.974 159.14 604.397 159.563 604.706 160.101C605.015 160.621 605.17 161.191 605.17 161.81C605.17 162.428 605.015 163.006 604.706 163.543C604.397 164.064 603.974 164.479 603.437 164.788C602.916 165.097 602.354 165.252 601.752 165.252ZM626.092 169.476C628.859 169.476 631.023 170.216 632.586 171.697C634.148 173.178 634.93 175.27 634.93 177.972V194.5H629.266V179.192C629.266 177.451 628.81 176.165 627.898 175.335C627.003 174.489 625.848 174.065 624.432 174.065C622.739 174.065 621.355 174.586 620.281 175.628C619.207 176.653 618.662 178.24 618.646 180.389V194.5H613.03V169.939H618.646V172.845C619.476 171.771 620.525 170.94 621.795 170.354C623.081 169.769 624.513 169.476 626.092 169.476Z" fill="#0F0F0F"/>
</svg>
