<svg width="100%" height="100%" viewBox="0 0 197 369" fill="none" xmlns="http://www.w3.org/2000/svg">
<path d="M97.2443 187.69C92.5439 187.635 88.7558 183.765 88.8111 179.039C88.8664 174.341 92.7374 170.554 97.4655 170.609C102.166 170.665 105.954 174.534 105.899 179.26C105.843 183.959 101.972 187.745 97.2443 187.69ZM97.4102 175.087C95.1706 175.087 93.3181 176.856 93.2904 179.094C93.2628 181.333 95.06 183.185 97.2996 183.212C99.5393 183.212 101.392 181.444 101.419 179.205C101.447 176.966 99.6499 175.114 97.4102 175.087Z" fill="url(#paint0_linear_255_13935)"/>
<path d="M97.9079 187.026C93.2074 186.971 89.4194 183.102 89.4747 178.376C89.53 173.677 93.401 169.891 98.1291 169.946C102.83 170.001 106.618 173.871 106.562 178.597C106.507 183.295 102.636 187.082 97.9079 187.026ZM98.0738 174.424C95.8342 174.396 93.9816 176.192 93.954 178.431C93.9263 180.67 95.7236 182.521 97.9632 182.549C100.203 182.577 102.055 180.78 102.083 178.542C102.111 176.303 100.313 174.451 98.0738 174.424Z" fill="url(#paint1_linear_255_13935)"/>
<path d="M194.488 254.242L193.686 255.016L186.691 261.649L145.299 301.006L145.355 301.475L155.751 366.95L155.917 368.028L154.949 367.503L118.562 347.797L96.7186 335.968L96.2209 335.691L95.7232 335.968L76.7278 345.641H76.7002L42.1656 363.274L36.7462 366.038L35.7508 366.535L35.9444 365.457V365.43L37.1333 358.963L40.5066 340.694L48.055 299.817V299.79H48.0273L31.714 283.455L14.5435 266.348L0.829187 252.611L0.0273438 251.81L1.13333 251.672L21.7324 248.936L66.8015 242.966L67.3269 242.883L67.6034 242.385L82.5343 213.061L91.4375 195.539L97.631 183.406L98.1287 182.411L98.5988 183.434L105.539 197.861L127.244 243.27L127.299 243.353L127.437 243.657L128.212 243.767L177.179 251.506L193.382 254.076L194.488 254.242Z" fill="url(#paint2_linear_255_13935)"/>
<path d="M96.3318 286.358L95.7235 335.968L76.7282 345.641H76.7005L42.1659 363.274L36.7466 366.038L64.1199 329.418L96.3318 286.358Z" fill="url(#paint3_linear_255_13935)"/>
<path d="M95.7788 285.473L72.1106 317.091C72.1106 317.091 72.1106 317.119 72.1106 317.146L36 365.402L37.1889 358.935L40.5622 340.666L48.0276 300.232L95.8341 285.446L95.7788 285.473Z" fill="url(#paint4_linear_255_13935)"/>
<path d="M193.687 255.016L186.691 261.649L182.295 265.823L145.742 300.564L133.051 296.307L98.4609 284.644L140.101 271.682L193.687 255.016Z" fill="url(#paint5_linear_255_13935)"/>
<path d="M154.949 367.503L118.562 347.797L96.7188 335.968L97.327 286.136L154.949 367.503Z" fill="url(#paint6_linear_255_13935)"/>
<path d="M95.2536 284.589L89.4748 286.385L47.613 299.32L14.5439 266.348L0.82959 252.612L95.2536 284.589Z" fill="url(#paint7_linear_255_13935)"/>
<path d="M155.751 366.95L98.1289 285.556L133.023 297.33L145.355 301.476L151.244 338.428L155.751 366.95Z" fill="url(#paint8_linear_255_13935)"/>
<path d="M97.6316 183.406L96.3874 283.096L96.1939 282.792H96.1662L67.604 242.386L82.5349 213.062L91.4381 195.539L97.6316 183.406Z" fill="url(#paint9_linear_255_13935)"/>
<path d="M193.383 254.076L145.908 268.835L98.4058 283.621L128.212 243.767L177.18 251.506L193.383 254.076Z" fill="url(#paint10_linear_255_13935)"/>
<path d="M127.3 243.215L127.244 243.27L97.355 283.207L98.5992 183.295L105.539 197.805L127.3 243.215Z" fill="url(#paint11_linear_255_13935)"/>
<path d="M95.5854 283.649L1.13379 251.672L21.7329 248.936L66.802 242.966L91.7697 278.26L95.5854 283.649Z" fill="url(#paint12_linear_255_13935)"/>
<g style="mix-blend-mode:color-burn" opacity="0.1">
<path d="M145.742 300.563L145.299 301.005L145.742 300.563Z" fill="#848484"/>
</g>
<g style="mix-blend-mode:color-burn" opacity="0.1">
<path d="M47.6128 299.347L48.0552 299.789L47.6128 299.347Z" fill="#848484"/>
</g>
<g style="mix-blend-mode:color-burn" opacity="0.1">
<path d="M47.9722 300.259L48.0551 299.817L47.9722 300.259Z" fill="#848484"/>
</g>
<g style="mix-blend-mode:color-burn" opacity="0.1">
<path d="M140.101 271.682L98.4608 284.644L145.742 300.591L145.3 301.033L145.382 301.503L98.1567 285.584L155.779 366.95L155.945 368.028L154.949 367.503L97.3272 286.136L96.7189 335.968L96.2212 335.719L95.7235 335.968L96.3318 286.385L64.1198 329.445L36.7465 366.065L35.7511 366.563L35.9447 365.457L72.0553 317.174V317.146L95.7235 285.501L47.9171 300.287L48 299.845L47.5576 299.375L95.2258 284.644L0.801843 252.667L0 251.865L1.10599 251.727L95.5576 283.704L66.7742 243.021L67.2995 242.938L67.576 242.413L96.3594 283.124L97.6037 183.461L98.1014 182.466L98.5714 183.461L97.3272 283.372L127.244 243.38L127.382 243.684L128.157 243.822L98.3502 283.649L145.853 268.863L193.3 254.104L194.406 254.27L193.604 255.044L140.018 271.709L140.101 271.682Z" fill="#848484"/>
</g>
<g style="mix-blend-mode:color-burn" opacity="0.1">
<path d="M140.101 271.682L98.4608 284.644L145.742 300.591L145.3 301.033L145.382 301.503L98.1567 285.584L155.779 366.95L155.945 368.028L154.949 367.503L97.3272 286.136L96.7189 335.968L96.2212 335.719L95.7235 335.968L96.3318 286.385L64.1198 329.445L36.7465 366.065L35.7511 366.563L35.9447 365.457L72.0553 317.174V317.146L95.7235 285.501L47.9171 300.287L48 299.845L47.5576 299.375L95.2258 284.644L0.801843 252.667L0 251.865L1.10599 251.727L95.5576 283.704L66.7742 243.021L67.2995 242.938L67.576 242.413L96.3594 283.124L97.6037 183.461L98.1014 182.466L98.5714 183.461L97.3272 283.372L127.244 243.38L127.382 243.684L128.157 243.822L98.3502 283.649L145.853 268.863L193.3 254.104L194.406 254.27L193.604 255.044L140.018 271.709L140.101 271.682Z" fill="#848484"/>
</g>
<path style="mix-blend-mode:soft-light" opacity="0.8" d="M103.299 193.079C103.299 193.079 99.0413 228.235 97.9353 238.958C97.5205 242.772 97.327 245.868 97.2993 247.747C97.244 245.37 97.1058 242.745 96.9122 239.953C95.9168 225.664 94.9491 203.72 93.1519 192.195L97.6311 183.406L98.1288 182.411L98.5989 183.406V183.268L103.272 193.052L103.299 193.079Z" fill="url(#paint13_linear_255_13935)"/>
<path style="mix-blend-mode:soft-light" opacity="0.8" d="M194.489 254.242L193.687 255.016L188.627 259.825C173.917 263.059 153.871 268.724 140.102 271.682C140.074 271.682 140.046 271.682 140.019 271.682C140.019 271.682 142.286 270.632 145.908 268.807C153.152 265.214 184.424 252.639 184.424 252.639L193.355 254.049L194.461 254.215L194.489 254.242Z" fill="url(#paint14_linear_255_13935)"/>
<g style="mix-blend-mode:soft-light" opacity="0.2">
<path d="M97.0783 261.124C97.0783 261.124 94.2304 284.699 118.866 277.845C102.166 284.064 104.571 294.953 110.157 303.41C110.157 304.156 97.3825 283.317 83.1429 303.106C83.1429 303.106 97.3548 286.109 75.9263 277.375C77.1152 277.486 97.2719 287.435 97.106 261.096L97.0783 261.124Z" fill="white"/>
</g>
<g style="mix-blend-mode:color-burn" opacity="0.3">
<path d="M96.8848 283.677C96.8848 283.677 96.6083 283.373 96.3871 283.069C96.3042 282.986 96.2489 282.903 96.1936 282.82L67.6313 242.413L82.5622 213.089C82.6452 230.722 84.5254 264.054 96.4148 282.93C96.5807 283.207 96.7466 283.456 96.9125 283.704L96.8848 283.677Z" fill="#848484"/>
</g>
<g style="mix-blend-mode:color-burn" opacity="0.2">
<path d="M91.7695 278.26C72.6635 260.571 38.1289 252.114 21.7603 248.963L66.8294 242.993L91.7695 278.26Z" fill="#848484"/>
</g>
<g style="mix-blend-mode:color-burn" opacity="0.1">
<path d="M89.4745 286.385L47.6128 299.347L14.5713 266.348C52.8939 296.639 62.6266 288.099 89.5022 286.385H89.4745Z" fill="#848484"/>
</g>
<g style="mix-blend-mode:color-burn" opacity="0.3">
<path d="M96.8573 285.473C96.8573 285.473 96.7467 285.473 96.6914 285.473C96.7744 285.473 96.8297 285.445 96.8573 285.473Z" fill="#848484"/>
</g>
<g style="mix-blend-mode:color-burn" opacity="0.3">
<path d="M89.4746 286.385C87.2073 287.325 85.023 288.375 82.9216 289.453C49.1336 307.003 40.7004 339.92 40.5068 340.694L47.9723 300.259L48.1382 300.204L89.4746 286.357V286.385Z" fill="#848484"/>
</g>
<g style="mix-blend-mode:soft-light" opacity="0.9">
<path d="M72.083 317.146C71.6129 317.865 68.4332 322.757 64.1475 329.39C57.5392 339.561 48.3042 353.85 42.1936 363.247L36.7742 366.01L35.7788 366.508L35.9724 365.402L37.1613 358.907L72.1106 317.091L72.083 317.146Z" fill="white"/>
</g>
<g style="mix-blend-mode:color-burn" opacity="0.3">
<path d="M118.562 347.797L96.6915 335.968L96.1938 335.719L95.6961 335.968L76.7007 345.669C89.1984 335.443 94.4242 308.026 96.2214 295.45C96.7744 291.471 96.9956 288.983 96.9956 288.983C97.0233 290.973 97.1062 292.88 97.2168 294.732C99.2906 331.38 115.162 345.254 118.562 347.825V347.797Z" fill="#848484"/>
</g>
<g style="mix-blend-mode:color-burn" opacity="0.3">
<path d="M182.295 265.823L145.742 300.564L133.051 296.28C133.051 296.28 159.65 280.388 182.295 265.823Z" fill="#848484"/>
</g>
<g style="mix-blend-mode:color-burn" opacity="0.3">
<path d="M151.244 338.428C143.862 318.197 133.051 297.33 133.051 297.33L145.383 301.476L151.244 338.428Z" fill="#848484"/>
</g>
<path d="M196.175 126.997L186.47 131.17L177.207 135.095L162.608 141.341L131.972 154.441L118.701 160.107L109.41 164.059L98.5162 168.702L85.0231 162.539L75.871 158.366L62.0461 152.037L31.9079 138.273L18.083 131.972L8.93094 127.798L1.93555 124.592L40.5899 0L160.645 1.49245L196.175 126.997Z" fill="#3658D3"/>
<path d="M109.134 36.0677L62.0462 152.037L37.1338 140.678L82.2306 14.3442L109.134 36.0677Z" fill="#D1D1D1"/>
<path d="M66.47 1.63054L21.705 133.63L13.5483 129.899L56.2949 0.193359L64.8387 0.303911L66.47 1.63054Z" fill="#D1D1D1"/>
<path d="M126.691 50.2735L85.0232 162.539L75.8711 158.366L118.479 43.6404L126.691 50.2735Z" fill="#D1D1D1"/>
<path style="mix-blend-mode:multiply" opacity="0.5" d="M196.175 126.997L186.47 131.17L177.207 135.095L162.608 141.341L131.972 154.441L118.701 160.107L109.41 164.059L98.5162 168.702L85.0231 162.539L75.871 158.366L62.0461 152.037L31.9079 138.273L18.083 131.972L8.93094 127.798L1.93555 124.592L40.5899 0L160.645 1.49245L196.175 126.997Z" fill="url(#paint15_linear_255_13935)"/>
<path d="M196.175 126.997L186.47 131.17L177.207 135.095L162.608 141.341L159.29 142.75L135.429 152.949L131.972 154.441L118.7 160.107L109.41 164.059L98.5161 168.702L40.5898 0L160.645 1.49245L196.175 126.997Z" fill="#619BF7"/>
<path d="M159.29 142.75L135.428 152.949L87.4561 0.580322L116.792 0.939617L159.29 142.75Z" fill="white"/>
<path d="M118.7 160.107L109.41 164.059L56.5713 0.193359L67.1612 0.331549L118.7 160.107Z" fill="white"/>
<path d="M186.47 131.17L177.208 135.095L134.019 1.16089L144.581 1.29908L186.47 131.17Z" fill="white"/>
<path style="mix-blend-mode:multiply" opacity="0.5" d="M196.175 126.997L186.47 131.17L177.207 135.095L162.608 141.341L131.972 154.441L118.7 160.107L109.41 164.059L98.5161 168.702L40.5898 0L160.645 1.49245L196.175 126.997Z" fill="url(#paint16_linear_255_13935)"/>
<path d="M100.673 174.728C100.673 176.248 99.456 177.436 98.0182 177.436C96.5804 177.436 95.4191 176.192 95.4468 174.672L95.5574 165.828C95.5574 164.308 96.774 163.12 98.2117 163.12C99.6495 163.12 100.811 164.363 100.783 165.883L100.673 174.728Z" fill="url(#paint17_linear_255_13935)"/>
<path style="mix-blend-mode:color-burn" opacity="0.2" d="M193.382 254.076L184.451 252.667L177.207 251.506L128.24 243.767L127.465 243.629L127.327 243.325V243.242V243.187L105.594 197.75L100.479 187.054C101.696 186.584 102.774 185.81 103.659 184.871C105.428 183.323 106.59 181.084 106.617 178.569C106.673 174.783 104.212 171.549 100.783 170.416V167.735L109.465 164.032L118.756 160.079L132.028 154.414L162.691 141.313L177.29 135.067L186.553 131.142L196.258 126.997L160.645 1.4924L144.581 1.29894H143.281L116.82 0.967281L105.567 0.829091L65.8893 0.331606H64.8662L61.5483 0.27633L56.6266 0.221054L40.6174 0.0275879L1.96301 124.62L8.9584 127.826L18.1105 132.027L31.9354 138.328L37.1612 140.705L62.0736 152.092L75.8985 158.421L85.0506 162.594L95.5575 167.403V170.416C94.0644 170.858 92.7925 171.687 91.7695 172.793C89.9999 174.341 88.8386 176.579 88.8109 179.094C88.7556 183.212 91.6589 186.722 95.5575 187.552L91.4653 195.622L82.5621 213.117L67.6312 242.441L67.3547 242.966L66.8294 243.049L21.7602 249.019L1.16117 251.755L0.0551758 251.893L0.857019 252.694L14.5713 266.403L31.7142 283.538L47.8893 299.679L48.0552 299.872L40.5344 340.777L37.1612 359.046L35.9722 365.513L35.7787 366.618L36.7741 366.121L42.1934 363.357L76.728 345.752L95.7234 336.051L96.2211 335.802L96.7188 336.051L118.59 347.88L154.977 367.586L155.972 368.111L155.806 367.033L145.41 301.558L145.327 301.089L186.719 261.76L193.714 255.127L194.516 254.353L193.41 254.187L193.382 254.076ZM95.6128 175.501C95.9446 176.607 96.8847 177.436 98.046 177.436C98.9307 177.436 99.7049 176.966 100.175 176.248C100.949 176.994 101.419 178.044 101.419 179.205C101.419 180.145 101.06 181.029 100.507 181.692C99.8708 182.19 99.069 182.494 98.2119 182.521L98.1566 182.411L98.1013 182.521C98.1013 182.521 98.046 182.521 97.9907 182.521C95.751 182.494 93.9538 180.642 93.9814 178.403C93.9814 177.464 94.3409 176.607 94.8939 175.916C95.1151 175.75 95.3363 175.612 95.5851 175.474L95.6128 175.501Z" fill="url(#paint18_radial_255_13935)"/>
<defs>
<linearGradient id="paint0_linear_255_13935" x1="88.8044" y1="179.046" x2="105.863" y2="179.257" gradientUnits="userSpaceOnUse">
<stop stop-color="#F4A11C"/>
<stop offset="1" stop-color="#F4951C"/>
</linearGradient>
<linearGradient id="paint1_linear_255_13935" x1="92.31" y1="175.081" x2="105.482" y2="182.989" gradientUnits="userSpaceOnUse">
<stop stop-color="#FFF68B"/>
<stop offset="1" stop-color="#FFE446"/>
</linearGradient>
<linearGradient id="paint2_linear_255_13935" x1="-0.2467" y1="273.66" x2="194.199" y2="276.071" gradientUnits="userSpaceOnUse">
<stop stop-color="#CB7B30"/>
<stop offset="0.44" stop-color="#FFDA37"/>
<stop offset="1" stop-color="#FEFB80"/>
</linearGradient>
<linearGradient id="paint3_linear_255_13935" x1="43.5394" y1="317.239" x2="93.2328" y2="336.636" gradientUnits="userSpaceOnUse">
<stop stop-color="#FFD463"/>
<stop offset="1" stop-color="#FFC531"/>
</linearGradient>
<linearGradient id="paint4_linear_255_13935" x1="65.0617" y1="320.96" x2="60.4413" y2="294.699" gradientUnits="userSpaceOnUse">
<stop stop-color="#FFF68B"/>
<stop offset="1" stop-color="#FFE446"/>
</linearGradient>
<linearGradient id="paint5_linear_255_13935" x1="98.5687" y1="276.93" x2="193.4" y2="278.106" gradientUnits="userSpaceOnUse">
<stop stop-color="#F4A11C"/>
<stop offset="1" stop-color="#FF671B"/>
</linearGradient>
<linearGradient id="paint6_linear_255_13935" x1="126.657" y1="326.477" x2="94.2575" y2="348.809" gradientUnits="userSpaceOnUse">
<stop stop-color="#F29D1D"/>
<stop offset="1" stop-color="#F2B61D"/>
</linearGradient>
<linearGradient id="paint7_linear_255_13935" x1="60.0027" y1="303.014" x2="39.9928" y2="245.435" gradientUnits="userSpaceOnUse">
<stop offset="0.17" stop-color="#FFC420"/>
<stop offset="1" stop-color="#FFB820"/>
</linearGradient>
<linearGradient id="paint8_linear_255_13935" x1="126.855" y1="335.048" x2="127.384" y2="292.296" gradientUnits="userSpaceOnUse">
<stop offset="0.17" stop-color="#FFC420"/>
<stop offset="1" stop-color="#FFB820"/>
</linearGradient>
<linearGradient id="paint9_linear_255_13935" x1="71.2433" y1="237.232" x2="97.9779" y2="233.11" gradientUnits="userSpaceOnUse">
<stop stop-color="#FFF68B"/>
<stop offset="1" stop-color="#FFE446"/>
</linearGradient>
<linearGradient id="paint10_linear_255_13935" x1="119.064" y1="263.115" x2="173.034" y2="274.655" gradientUnits="userSpaceOnUse">
<stop stop-color="#FFA91F"/>
<stop offset="1" stop-color="#FF8C2E"/>
</linearGradient>
<linearGradient id="paint11_linear_255_13935" x1="96.5091" y1="233.399" x2="135.099" y2="229.921" gradientUnits="userSpaceOnUse">
<stop stop-color="#F4A11C"/>
<stop offset="1" stop-color="#F4951C"/>
</linearGradient>
<linearGradient id="paint12_linear_255_13935" x1="33.8761" y1="273.669" x2="109.383" y2="242.463" gradientUnits="userSpaceOnUse">
<stop stop-color="#FFA91F"/>
<stop offset="1" stop-color="#FF8C2E"/>
</linearGradient>
<linearGradient id="paint13_linear_255_13935" x1="92.8649" y1="215.056" x2="103.012" y2="215.182" gradientUnits="userSpaceOnUse">
<stop stop-color="white"/>
<stop offset="1" stop-color="white"/>
</linearGradient>
<linearGradient id="paint14_linear_255_13935" x1="140.122" y1="261.911" x2="194.367" y2="262.583" gradientUnits="userSpaceOnUse">
<stop stop-color="white"/>
<stop offset="1" stop-color="white"/>
</linearGradient>
<linearGradient id="paint15_linear_255_13935" x1="63.334" y1="172.594" x2="106.961" y2="86.0812" gradientUnits="userSpaceOnUse">
<stop stop-color="#888888"/>
<stop offset="0.08" stop-color="#ACACAC"/>
<stop offset="0.15" stop-color="#CACACA"/>
<stop offset="0.23" stop-color="#E1E1E1"/>
<stop offset="0.31" stop-color="#F2F2F2"/>
<stop offset="0.4" stop-color="#FBFBFB"/>
<stop offset="0.52" stop-color="white"/>
<stop offset="0.6" stop-color="#F9F9F9"/>
<stop offset="0.69" stop-color="#EBEBEB"/>
<stop offset="0.79" stop-color="#D2D2D2"/>
<stop offset="0.89" stop-color="#B0B0B0"/>
<stop offset="1" stop-color="#858585"/>
</linearGradient>
<linearGradient id="paint16_linear_255_13935" x1="103.162" y1="8.988" x2="145.945" y2="146.403" gradientUnits="userSpaceOnUse">
<stop stop-color="#888888"/>
<stop offset="0.08" stop-color="#ACACAC"/>
<stop offset="0.15" stop-color="#CACACA"/>
<stop offset="0.23" stop-color="#E1E1E1"/>
<stop offset="0.31" stop-color="#F2F2F2"/>
<stop offset="0.4" stop-color="#FBFBFB"/>
<stop offset="0.52" stop-color="white"/>
<stop offset="0.6" stop-color="#F9F9F9"/>
<stop offset="0.69" stop-color="#EBEBEB"/>
<stop offset="0.79" stop-color="#D2D2D2"/>
<stop offset="0.89" stop-color="#B0B0B0"/>
<stop offset="1" stop-color="#858585"/>
</linearGradient>
<linearGradient id="paint17_linear_255_13935" x1="96.4983" y1="165.1" x2="99.7389" y2="175.616" gradientUnits="userSpaceOnUse">
<stop stop-color="#FFCE47"/>
<stop offset="1" stop-color="#FFB820"/>
</linearGradient>
<radialGradient id="paint18_radial_255_13935" cx="0" cy="0" r="1" gradientUnits="userSpaceOnUse" gradientTransform="translate(98.1013 184.014) scale(147.484 147.421)">
<stop stop-color="white"/>
<stop offset="0.17" stop-color="#F0F0F0"/>
<stop offset="0.48" stop-color="#C8C8C8"/>
<stop offset="0.92" stop-color="#898989"/>
<stop offset="1" stop-color="#7D7D7D"/>
</radialGradient>
</defs>
</svg>
