<svg width="100%" height="100%"  viewBox="0 0 197 369" fill="none" xmlns="http://www.w3.org/2000/svg">
<path d="M97.9865 187.69C93.286 187.635 89.498 183.765 89.5533 179.039C89.6086 174.341 93.4796 170.554 98.2077 170.609C102.908 170.665 106.696 174.534 106.641 179.26C106.586 183.959 102.715 187.745 97.9865 187.69ZM98.1524 175.087C95.9128 175.087 94.0602 176.856 94.0326 179.094C94.0049 181.333 95.8022 183.185 98.0418 183.212C100.281 183.212 102.134 181.444 102.162 179.205C102.189 176.966 100.392 175.114 98.1524 175.087Z" fill="url(#paint0_linear_255_13997)"/>
<path d="M98.6501 187.026C93.9496 186.971 90.1616 183.102 90.2169 178.376C90.2722 173.677 94.1432 169.891 98.8713 169.946C103.572 170.001 107.36 173.871 107.304 178.597C107.249 183.295 103.378 187.082 98.6501 187.026ZM98.816 174.424C96.5763 174.396 94.7238 176.192 94.6962 178.431C94.6685 180.67 96.4658 182.521 98.7054 182.549C100.945 182.577 102.798 180.78 102.825 178.542C102.853 176.303 101.056 174.451 98.816 174.424Z" fill="url(#paint1_linear_255_13997)"/>
<path d="M195.23 254.242L194.429 255.016L187.433 261.649L146.041 301.006L146.097 301.475L156.493 366.95L156.659 368.028L155.691 367.503L119.304 347.797L97.4608 335.968L96.9631 335.691L96.4654 335.968L77.47 345.641H77.4423L42.9078 363.274L37.4884 366.038L36.493 366.535L36.6866 365.457V365.43L37.8755 358.963L41.2488 340.694L48.7972 299.817V299.79H48.7695L32.4562 283.455L15.2857 266.348L1.57137 252.611L0.769531 251.81L1.87552 251.672L22.4746 248.936L67.5437 242.966L68.0691 242.883L68.3456 242.385L83.2764 213.061L92.1797 195.539L98.3732 183.406L98.8709 182.411L99.341 183.434L106.281 197.861L127.986 243.27L128.041 243.353L128.18 243.657L128.954 243.767L177.922 251.506L194.124 254.076L195.23 254.242Z" fill="url(#paint2_linear_255_13997)"/>
<path d="M97.074 286.358L96.4657 335.968L77.4703 345.641H77.4427L42.9081 363.274L37.4888 366.038L64.862 329.418L97.074 286.358Z" fill="url(#paint3_linear_255_13997)"/>
<path d="M96.521 285.473L72.8528 317.091C72.8528 317.091 72.8528 317.119 72.8528 317.146L36.7422 365.402L37.9311 358.935L41.3044 340.666L48.7698 300.232L96.5763 285.446L96.521 285.473Z" fill="url(#paint4_linear_255_13997)"/>
<path d="M194.429 255.016L187.434 261.649L183.037 265.823L146.484 300.564L133.793 296.307L99.2031 284.644L140.844 271.682L194.429 255.016Z" fill="url(#paint5_linear_255_13997)"/>
<path d="M155.691 367.503L119.304 347.797L97.4609 335.968L98.0692 286.136L155.691 367.503Z" fill="url(#paint6_linear_255_13997)"/>
<path d="M95.9957 284.589L90.2169 286.385L48.3552 299.32L15.2861 266.348L1.57178 252.612L95.9957 284.589Z" fill="url(#paint7_linear_255_13997)"/>
<path d="M156.493 366.95L98.8711 285.556L133.765 297.33L146.097 301.476L151.986 338.428L156.493 366.95Z" fill="url(#paint8_linear_255_13997)"/>
<path d="M98.3738 183.406L97.1296 283.096L96.9361 282.792H96.9084L68.3462 242.386L83.2771 213.062L92.1803 195.539L98.3738 183.406Z" fill="url(#paint9_linear_255_13997)"/>
<path d="M194.125 254.076L146.65 268.835L99.1479 283.621L128.954 243.767L177.922 251.506L194.125 254.076Z" fill="url(#paint10_linear_255_13997)"/>
<path d="M128.042 243.215L127.987 243.27L98.0972 283.207L99.3414 183.295L106.281 197.805L128.042 243.215Z" fill="url(#paint11_linear_255_13997)"/>
<path d="M96.3276 283.649L1.87598 251.672L22.4751 248.936L67.5442 242.966L92.5119 278.26L96.3276 283.649Z" fill="url(#paint12_linear_255_13997)"/>
<g style="mix-blend-mode:color-burn" opacity="0.1">
<path d="M146.484 300.563L146.042 301.005L146.484 300.563Z" fill="#848484"/>
</g>
<g style="mix-blend-mode:color-burn" opacity="0.1">
<path d="M48.355 299.347L48.7974 299.789L48.355 299.347Z" fill="#848484"/>
</g>
<g style="mix-blend-mode:color-burn" opacity="0.1">
<path d="M48.7144 300.259L48.7973 299.817L48.7144 300.259Z" fill="#848484"/>
</g>
<g style="mix-blend-mode:color-burn" opacity="0.1">
<path d="M140.844 271.682L99.203 284.644L146.484 300.591L146.042 301.033L146.125 301.503L98.8989 285.584L156.521 366.95L156.687 368.028L155.691 367.503L98.0694 286.136L97.4611 335.968L96.9634 335.719L96.4657 335.968L97.074 286.385L64.862 329.445L37.4887 366.065L36.4933 366.563L36.6869 365.457L72.7975 317.174V317.146L96.4657 285.501L48.6592 300.287L48.7422 299.845L48.2998 299.375L95.968 284.644L1.54403 252.667L0.742188 251.865L1.84818 251.727L96.2998 283.704L67.5164 243.021L68.0417 242.938L68.3182 242.413L97.1016 283.124L98.3459 183.461L98.8436 182.466L99.3136 183.461L98.0694 283.372L127.986 243.38L128.125 243.684L128.899 243.822L99.0924 283.649L146.595 268.863L194.042 254.104L195.148 254.27L194.346 255.044L140.761 271.709L140.844 271.682Z" fill="#848484"/>
</g>
<g style="mix-blend-mode:color-burn" opacity="0.1">
<path d="M140.844 271.682L99.203 284.644L146.484 300.591L146.042 301.033L146.125 301.503L98.8989 285.584L156.521 366.95L156.687 368.028L155.691 367.503L98.0694 286.136L97.4611 335.968L96.9634 335.719L96.4657 335.968L97.074 286.385L64.862 329.445L37.4887 366.065L36.4933 366.563L36.6869 365.457L72.7975 317.174V317.146L96.4657 285.501L48.6592 300.287L48.7422 299.845L48.2998 299.375L95.968 284.644L1.54403 252.667L0.742188 251.865L1.84818 251.727L96.2998 283.704L67.5164 243.021L68.0417 242.938L68.3182 242.413L97.1016 283.124L98.3459 183.461L98.8436 182.466L99.3136 183.461L98.0694 283.372L127.986 243.38L128.125 243.684L128.899 243.822L99.0924 283.649L146.595 268.863L194.042 254.104L195.148 254.27L194.346 255.044L140.761 271.709L140.844 271.682Z" fill="#848484"/>
</g>
<path style="mix-blend-mode:soft-light" opacity="0.8" d="M104.042 193.079C104.042 193.079 99.7834 228.235 98.6775 238.958C98.2627 242.772 98.0692 245.868 98.0415 247.747C97.9862 245.37 97.848 242.745 97.6544 239.953C96.659 225.664 95.6913 203.72 93.894 192.195L98.3733 183.406L98.871 182.411L99.3411 183.406V183.268L104.014 193.052L104.042 193.079Z" fill="url(#paint13_linear_255_13997)"/>
<path style="mix-blend-mode:soft-light" opacity="0.8" d="M195.231 254.242L194.429 255.016L189.369 259.825C174.659 263.059 154.613 268.724 140.844 271.682C140.816 271.682 140.788 271.682 140.761 271.682C140.761 271.682 143.028 270.632 146.65 268.807C153.894 265.214 185.166 252.639 185.166 252.639L194.097 254.049L195.203 254.215L195.231 254.242Z" fill="url(#paint14_linear_255_13997)"/>
<g style="mix-blend-mode:soft-light" opacity="0.2">
<path d="M97.8205 261.124C97.8205 261.124 94.9726 284.699 119.609 277.845C102.908 284.064 105.314 294.953 110.899 303.41C110.899 304.156 98.1247 283.317 83.885 303.106C83.885 303.106 98.097 286.109 76.6685 277.375C77.8574 277.486 98.0141 287.435 97.8482 261.096L97.8205 261.124Z" fill="white"/>
</g>
<g style="mix-blend-mode:color-burn" opacity="0.3">
<path d="M97.627 283.677C97.627 283.677 97.3505 283.373 97.1293 283.069C97.0463 282.986 96.991 282.903 96.9357 282.82L68.3735 242.413L83.3044 213.089C83.3874 230.722 85.2675 264.054 97.1569 282.93C97.3228 283.207 97.4887 283.456 97.6546 283.704L97.627 283.677Z" fill="#848484"/>
</g>
<g style="mix-blend-mode:color-burn" opacity="0.2">
<path d="M92.5117 278.26C73.4057 260.571 38.8711 252.114 22.5024 248.963L67.5716 242.993L92.5117 278.26Z" fill="#848484"/>
</g>
<g style="mix-blend-mode:color-burn" opacity="0.1">
<path d="M90.2167 286.385L48.3549 299.347L15.3135 266.348C53.6361 296.639 63.3688 288.099 90.2443 286.385H90.2167Z" fill="#848484"/>
</g>
<g style="mix-blend-mode:color-burn" opacity="0.3">
<path d="M97.5995 285.473C97.5995 285.473 97.4889 285.473 97.4336 285.473C97.5165 285.473 97.5718 285.445 97.5995 285.473Z" fill="#848484"/>
</g>
<g style="mix-blend-mode:color-burn" opacity="0.3">
<path d="M90.2168 286.385C87.9495 287.325 85.7651 288.375 83.6638 289.453C49.8757 307.003 41.4426 339.92 41.249 340.694L48.7145 300.259L48.8804 300.204L90.2168 286.357V286.385Z" fill="#848484"/>
</g>
<g style="mix-blend-mode:soft-light" opacity="0.9">
<path d="M72.8251 317.146C72.3551 317.865 69.1754 322.757 64.8897 329.39C58.2814 339.561 49.0463 353.85 42.9357 363.247L37.5164 366.01L36.521 366.508L36.7145 365.402L37.9035 358.907L72.8528 317.091L72.8251 317.146Z" fill="white"/>
</g>
<g style="mix-blend-mode:color-burn" opacity="0.3">
<path d="M119.305 347.797L97.4337 335.968L96.936 335.719L96.4383 335.968L77.4429 345.669C89.9406 335.443 95.1664 308.026 96.9636 295.45C97.5166 291.471 97.7378 288.983 97.7378 288.983C97.7655 290.973 97.8484 292.88 97.959 294.732C100.033 331.38 115.904 345.254 119.305 347.825V347.797Z" fill="#848484"/>
</g>
<g style="mix-blend-mode:color-burn" opacity="0.3">
<path d="M183.037 265.823L146.484 300.564L133.793 296.28C133.793 296.28 160.392 280.388 183.037 265.823Z" fill="#848484"/>
</g>
<g style="mix-blend-mode:color-burn" opacity="0.3">
<path d="M151.987 338.428C144.604 318.197 133.793 297.33 133.793 297.33L146.125 301.476L151.987 338.428Z" fill="#848484"/>
</g>
<path d="M196.917 126.997L187.212 131.17L177.95 135.095L163.351 141.341L132.715 154.441L119.443 160.107L110.152 164.059L99.2584 168.702L85.7653 162.539L76.6132 158.366L62.7883 152.037L32.6501 138.273L18.8252 131.972L9.67313 127.798L2.67773 124.592L41.3321 0L161.387 1.49245L196.917 126.997Z" fill="#DA7272"/>
<path d="M109.876 36.0677L62.7884 152.037L37.876 140.678L82.9727 14.3442L109.876 36.0677Z" fill="#D1D1D1"/>
<path d="M67.2122 1.63054L22.4472 133.63L14.2905 129.899L57.0371 0.193359L65.5809 0.303911L67.2122 1.63054Z" fill="#D1D1D1"/>
<path d="M127.434 50.2735L85.7654 162.539L76.6133 158.366L119.222 43.6404L127.434 50.2735Z" fill="#D1D1D1"/>
<path style="mix-blend-mode:multiply" opacity="0.5" d="M196.917 126.997L187.212 131.17L177.95 135.095L163.351 141.341L132.715 154.441L119.443 160.107L110.152 164.059L99.2584 168.702L85.7653 162.539L76.6132 158.366L62.7883 152.037L32.6501 138.273L18.8252 131.972L9.67313 127.798L2.67773 124.592L41.3321 0L161.387 1.49245L196.917 126.997Z" fill="url(#paint15_linear_255_13997)"/>
<path d="M196.917 126.997L187.212 131.17L177.95 135.095L163.35 141.341L160.032 142.75L136.171 152.949L132.715 154.441L119.443 160.107L110.152 164.059L99.2583 168.702L41.332 0L161.387 1.49245L196.917 126.997Z" fill="#FFBABA"/>
<path d="M160.032 142.75L136.171 152.949L88.1982 0.580322L117.535 0.939617L160.032 142.75Z" fill="white"/>
<path d="M119.443 160.107L110.152 164.059L57.3135 0.193359L67.9033 0.331549L119.443 160.107Z" fill="white"/>
<path d="M187.212 131.17L177.95 135.095L134.761 1.16089L145.323 1.29908L187.212 131.17Z" fill="white"/>
<path style="mix-blend-mode:multiply" opacity="0.5" d="M196.917 126.997L187.212 131.17L177.95 135.095L163.35 141.341L132.715 154.441L119.443 160.107L110.152 164.059L99.2583 168.702L41.332 0L161.387 1.49245L196.917 126.997Z" fill="url(#paint16_linear_255_13997)"/>
<path d="M101.415 174.728C101.415 176.248 100.198 177.436 98.7604 177.436C97.3226 177.436 96.1613 176.192 96.189 174.672L96.2996 165.828C96.2996 164.308 97.5161 163.12 98.9539 163.12C100.392 163.12 101.553 164.363 101.525 165.883L101.415 174.728Z" fill="url(#paint17_linear_255_13997)"/>
<path style="mix-blend-mode:color-burn" opacity="0.2" d="M194.125 254.076L185.194 252.667L177.949 251.506L128.982 243.767L128.207 243.629L128.069 243.325V243.242V243.187L106.337 197.75L101.221 187.054C102.438 186.584 103.516 185.81 104.401 184.871C106.171 183.323 107.332 181.084 107.36 178.569C107.415 174.783 104.954 171.549 101.525 170.416V167.735L110.208 164.032L119.498 160.079L132.77 154.414L163.433 141.313L178.032 135.067L187.295 131.142L197 126.997L161.387 1.4924L145.323 1.29894H144.023L117.562 0.967281L106.309 0.829091L66.6315 0.331606H65.6084L62.2904 0.27633L57.3688 0.221054L41.3596 0.0275879L2.7052 124.62L9.70059 127.826L18.8527 132.027L32.6775 138.328L37.9034 140.705L62.8158 152.092L76.6407 158.421L85.7927 162.594L96.2997 167.403V170.416C94.8066 170.858 93.5347 171.687 92.5116 172.793C90.7421 174.341 89.5808 176.579 89.5531 179.094C89.4978 183.212 92.401 186.722 96.2997 187.552L92.2075 195.622L83.3043 213.117L68.3734 242.441L68.0969 242.966L67.5715 243.049L22.5024 249.019L1.90335 251.755L0.797363 251.893L1.59921 252.694L15.3135 266.403L32.4563 283.538L48.6315 299.679L48.7974 299.872L41.2766 340.777L37.9034 359.046L36.7144 365.513L36.5209 366.618L37.5163 366.121L42.9356 363.357L77.4702 345.752L96.4656 336.051L96.9633 335.802L97.461 336.051L119.332 347.88L155.719 367.586L156.714 368.111L156.549 367.033L146.152 301.558L146.069 301.089L187.461 261.76L194.456 255.127L195.258 254.353L194.152 254.187L194.125 254.076ZM96.355 175.501C96.6868 176.607 97.6269 177.436 98.7881 177.436C99.6729 177.436 100.447 176.966 100.917 176.248C101.691 176.994 102.161 178.044 102.161 179.205C102.161 180.145 101.802 181.029 101.249 181.692C100.613 182.19 99.8112 182.494 98.954 182.521L98.8987 182.411L98.8434 182.521C98.8434 182.521 98.7881 182.521 98.7328 182.521C96.4932 182.494 94.696 180.642 94.7236 178.403C94.7236 177.464 95.0831 176.607 95.6361 175.916C95.8573 175.75 96.0785 175.612 96.3273 175.474L96.355 175.501Z" fill="url(#paint18_radial_255_13997)"/>
<defs>
<linearGradient id="paint0_linear_255_13997" x1="89.5466" y1="179.046" x2="106.605" y2="179.257" gradientUnits="userSpaceOnUse">
<stop stop-color="#F4A11C"/>
<stop offset="1" stop-color="#F4951C"/>
</linearGradient>
<linearGradient id="paint1_linear_255_13997" x1="93.0522" y1="175.081" x2="106.224" y2="182.989" gradientUnits="userSpaceOnUse">
<stop stop-color="#FFF68B"/>
<stop offset="1" stop-color="#FFE446"/>
</linearGradient>
<linearGradient id="paint2_linear_255_13997" x1="0.495487" y1="273.66" x2="194.941" y2="276.071" gradientUnits="userSpaceOnUse">
<stop stop-color="#CB7B30"/>
<stop offset="0.44" stop-color="#FFDA37"/>
<stop offset="1" stop-color="#FEFB80"/>
</linearGradient>
<linearGradient id="paint3_linear_255_13997" x1="44.2815" y1="317.239" x2="93.975" y2="336.636" gradientUnits="userSpaceOnUse">
<stop stop-color="#FFD463"/>
<stop offset="1" stop-color="#FFC531"/>
</linearGradient>
<linearGradient id="paint4_linear_255_13997" x1="65.8038" y1="320.96" x2="61.1835" y2="294.699" gradientUnits="userSpaceOnUse">
<stop stop-color="#FFF68B"/>
<stop offset="1" stop-color="#FFE446"/>
</linearGradient>
<linearGradient id="paint5_linear_255_13997" x1="99.3109" y1="276.93" x2="194.142" y2="278.106" gradientUnits="userSpaceOnUse">
<stop stop-color="#F4A11C"/>
<stop offset="1" stop-color="#FF671B"/>
</linearGradient>
<linearGradient id="paint6_linear_255_13997" x1="127.399" y1="326.477" x2="94.9997" y2="348.809" gradientUnits="userSpaceOnUse">
<stop stop-color="#F29D1D"/>
<stop offset="1" stop-color="#F2B61D"/>
</linearGradient>
<linearGradient id="paint7_linear_255_13997" x1="60.7449" y1="303.014" x2="40.735" y2="245.435" gradientUnits="userSpaceOnUse">
<stop offset="0.17" stop-color="#FFC420"/>
<stop offset="1" stop-color="#FFB820"/>
</linearGradient>
<linearGradient id="paint8_linear_255_13997" x1="127.597" y1="335.048" x2="128.127" y2="292.296" gradientUnits="userSpaceOnUse">
<stop offset="0.17" stop-color="#FFC420"/>
<stop offset="1" stop-color="#FFB820"/>
</linearGradient>
<linearGradient id="paint9_linear_255_13997" x1="71.9855" y1="237.232" x2="98.7201" y2="233.11" gradientUnits="userSpaceOnUse">
<stop stop-color="#FFF68B"/>
<stop offset="1" stop-color="#FFE446"/>
</linearGradient>
<linearGradient id="paint10_linear_255_13997" x1="119.806" y1="263.115" x2="173.776" y2="274.655" gradientUnits="userSpaceOnUse">
<stop stop-color="#FFA91F"/>
<stop offset="1" stop-color="#FF8C2E"/>
</linearGradient>
<linearGradient id="paint11_linear_255_13997" x1="97.2513" y1="233.399" x2="135.841" y2="229.921" gradientUnits="userSpaceOnUse">
<stop stop-color="#F4A11C"/>
<stop offset="1" stop-color="#F4951C"/>
</linearGradient>
<linearGradient id="paint12_linear_255_13997" x1="34.6183" y1="273.669" x2="110.126" y2="242.463" gradientUnits="userSpaceOnUse">
<stop stop-color="#FFA91F"/>
<stop offset="1" stop-color="#FF8C2E"/>
</linearGradient>
<linearGradient id="paint13_linear_255_13997" x1="93.6071" y1="215.056" x2="103.754" y2="215.182" gradientUnits="userSpaceOnUse">
<stop stop-color="white"/>
<stop offset="1" stop-color="white"/>
</linearGradient>
<linearGradient id="paint14_linear_255_13997" x1="140.864" y1="261.911" x2="195.109" y2="262.583" gradientUnits="userSpaceOnUse">
<stop stop-color="white"/>
<stop offset="1" stop-color="white"/>
</linearGradient>
<linearGradient id="paint15_linear_255_13997" x1="64.0762" y1="172.594" x2="107.703" y2="86.0812" gradientUnits="userSpaceOnUse">
<stop stop-color="#888888"/>
<stop offset="0.08" stop-color="#ACACAC"/>
<stop offset="0.15" stop-color="#CACACA"/>
<stop offset="0.23" stop-color="#E1E1E1"/>
<stop offset="0.31" stop-color="#F2F2F2"/>
<stop offset="0.4" stop-color="#FBFBFB"/>
<stop offset="0.52" stop-color="white"/>
<stop offset="0.6" stop-color="#F9F9F9"/>
<stop offset="0.69" stop-color="#EBEBEB"/>
<stop offset="0.79" stop-color="#D2D2D2"/>
<stop offset="0.89" stop-color="#B0B0B0"/>
<stop offset="1" stop-color="#858585"/>
</linearGradient>
<linearGradient id="paint16_linear_255_13997" x1="103.905" y1="8.988" x2="146.688" y2="146.403" gradientUnits="userSpaceOnUse">
<stop stop-color="#888888"/>
<stop offset="0.08" stop-color="#ACACAC"/>
<stop offset="0.15" stop-color="#CACACA"/>
<stop offset="0.23" stop-color="#E1E1E1"/>
<stop offset="0.31" stop-color="#F2F2F2"/>
<stop offset="0.4" stop-color="#FBFBFB"/>
<stop offset="0.52" stop-color="white"/>
<stop offset="0.6" stop-color="#F9F9F9"/>
<stop offset="0.69" stop-color="#EBEBEB"/>
<stop offset="0.79" stop-color="#D2D2D2"/>
<stop offset="0.89" stop-color="#B0B0B0"/>
<stop offset="1" stop-color="#858585"/>
</linearGradient>
<linearGradient id="paint17_linear_255_13997" x1="97.2405" y1="165.1" x2="100.481" y2="175.616" gradientUnits="userSpaceOnUse">
<stop stop-color="#FFCE47"/>
<stop offset="1" stop-color="#FFB820"/>
</linearGradient>
<radialGradient id="paint18_radial_255_13997" cx="0" cy="0" r="1" gradientUnits="userSpaceOnUse" gradientTransform="translate(98.8434 184.014) scale(147.484 147.421)">
<stop stop-color="white"/>
<stop offset="0.17" stop-color="#F0F0F0"/>
<stop offset="0.48" stop-color="#C8C8C8"/>
<stop offset="0.92" stop-color="#898989"/>
<stop offset="1" stop-color="#7D7D7D"/>
</radialGradient>
</defs>
</svg>
