<svg width="100%" height="100%"  viewBox="0 0 59 36" fill="none" xmlns="http://www.w3.org/2000/svg">
<path d="M57.6307 7.3189C57.0531 6.94481 56.2817 6.9372 55.6973 7.29597L45.8837 13.2094C45.5063 13.44 45.2426 13.7988 45.1557 14.2064C45.0656 14.6125 45.159 15.0355 45.4129 15.3806C45.9772 16.1502 46.2744 17.0479 46.2744 17.9778C46.2744 20.5642 43.9737 22.6683 41.1455 22.6683C38.3173 22.6683 36.0165 20.5642 36.0165 17.9778C36.0165 16.457 36.838 15.0233 38.2104 14.1408C38.9818 13.6461 39.1687 12.6719 38.6277 11.965L30.577 1.4466C29.9426 0.609922 28.4133 0.609922 27.7788 1.4466L19.7282 11.9651C19.1872 12.672 19.3743 13.6462 20.1455 14.1409C21.5179 15.0234 22.3394 16.4571 22.3394 17.9779C22.3394 20.5644 20.0386 22.6684 17.2104 22.6684C14.3822 22.6684 12.0815 20.5644 12.0815 17.9779C12.0815 17.048 12.3786 16.1503 12.943 15.3807C13.1969 15.0356 13.2903 14.6127 13.2002 14.2065C13.1133 13.7989 12.8496 13.44 12.4722 13.2095L2.65859 7.29607C2.07092 6.9373 1.30284 6.94491 0.725204 7.319C0.147572 7.69153 -0.119589 8.34966 0.0506915 8.97569L7.00269 33.9917C7.21639 34.7796 8.05116 35.3063 8.94268 35.1551C22.3728 33.1091 35.9831 33.1091 49.4132 35.1551C49.5067 35.1704 49.6036 35.1765 49.6937 35.1765C50.4651 35.1765 51.1596 34.697 51.3533 33.9917L58.3053 8.97569C58.4755 8.34956 58.2084 7.69143 57.6307 7.3189Z" fill="#3658D3"/>
</svg>
