<svg width="100%" height="100%" viewBox="0 0 59 35" fill="none" xmlns="http://www.w3.org/2000/svg">
<path d="M57.6307 6.49981C57.0531 6.12571 56.2817 6.11811 55.6973 6.47688L45.8837 12.3903C45.5063 12.6209 45.2426 12.9797 45.1557 13.3873C45.0656 13.7934 45.159 14.2164 45.4129 14.5615C45.9772 15.3311 46.2744 16.2288 46.2744 17.1587C46.2744 19.7452 43.9737 21.8492 41.1455 21.8492C38.3173 21.8492 36.0165 19.7452 36.0165 17.1587C36.0165 15.6379 36.838 14.2042 38.2104 13.3217C38.9818 12.827 39.1687 11.8528 38.6277 11.1459L30.577 0.627511C29.9426 -0.20917 28.4133 -0.20917 27.7788 0.627511L19.7282 11.146C19.1872 11.8529 19.3743 12.8271 20.1455 13.3218C21.5179 14.2043 22.3394 15.638 22.3394 17.1588C22.3394 19.7453 20.0386 21.8493 17.2104 21.8493C14.3822 21.8493 12.0815 19.7453 12.0815 17.1588C12.0815 16.2289 12.3786 15.3312 12.943 14.5616C13.1969 14.2165 13.2903 13.7936 13.2002 13.3874C13.1133 12.9798 12.8496 12.6209 12.4722 12.3905L2.65859 6.47698C2.07092 6.11821 1.30284 6.12582 0.725204 6.49991C0.147572 6.87244 -0.119589 7.53057 0.0506915 8.1566L7.00269 33.1726C7.21639 33.9605 8.05116 34.4872 8.94268 34.3361C22.3728 32.2901 35.9831 32.2901 49.4132 34.3361C49.5067 34.3513 49.6036 34.3574 49.6937 34.3574C50.4651 34.3574 51.1596 33.8779 51.3533 33.1726L58.3053 8.1566C58.4755 7.53047 58.2084 6.87234 57.6307 6.49981Z" fill="#BC7029"/>
</svg>
