<svg width="36" height="36" viewBox="0 0 36 36" fill="none" xmlns="http://www.w3.org/2000/svg">
<path d="M33 25.11V7.00498C33 5.20498 31.53 3.86998 29.745 4.01998H29.655C26.505 4.28998 21.72 5.89498 19.05 7.57498L18.795 7.73998C18.36 8.00998 17.64 8.00998 17.205 7.73998L16.83 7.51498C14.16 5.84998 9.39 4.25998 6.24 4.00498C4.455 3.85498 3 5.20498 3 6.98998V25.11C3 26.55 4.17 27.9 5.61 28.08L6.045 28.14C9.3 28.575 14.325 30.225 17.205 31.8L17.265 31.83C17.67 32.055 18.315 32.055 18.705 31.83C21.585 30.24 26.625 28.575 29.895 28.14L30.39 28.08C31.83 27.9 33 26.55 33 25.11Z" stroke="#FDFAF5" stroke-width="2" stroke-linecap="round" stroke-linejoin="round"/>
<path d="M18 8.23499V30.735" stroke="#FDFAF5" stroke-width="2" stroke-linecap="round" stroke-linejoin="round"/>
<path d="M11.625 12.735H8.25" stroke="#FDFAF5" stroke-width="2" stroke-linecap="round" stroke-linejoin="round"/>
<path d="M12.75 17.235H8.25" stroke="#FDFAF5" stroke-width="2" stroke-linecap="round" stroke-linejoin="round"/>
</svg>
