<svg width="36" height="36" viewBox="0 0 36 36" fill="none" xmlns="http://www.w3.org/2000/svg">
<path d="M12 3V7.5" stroke="#FDFAF5" stroke-width="2" stroke-miterlimit="10" stroke-linecap="round" stroke-linejoin="round"/>
<path d="M24 3V7.5" stroke="#FDFAF5" stroke-width="2" stroke-miterlimit="10" stroke-linecap="round" stroke-linejoin="round"/>
<path d="M5.25 13.635H30.75" stroke="#FDFAF5" stroke-width="2" stroke-miterlimit="10" stroke-linecap="round" stroke-linejoin="round"/>
<path d="M33 28.5C33 29.625 32.685 30.69 32.13 31.59C31.095 33.33 29.19 34.5 27 34.5C25.485 34.5 24.105 33.945 23.055 33C22.59 32.61 22.185 32.13 21.87 31.59C21.315 30.69 21 29.625 21 28.5C21 25.185 23.685 22.5 27 22.5C28.8 22.5 30.405 23.295 31.5 24.54C32.43 25.605 33 26.985 33 28.5Z" stroke="#FDFAF5" stroke-width="2" stroke-miterlimit="10" stroke-linecap="round" stroke-linejoin="round"/>
<path d="M24.6602 28.5L26.1452 29.985L29.3401 27.03" stroke="#FDFAF5" stroke-width="2" stroke-linecap="round" stroke-linejoin="round"/>
<path d="M31.5 12.75V24.54C30.405 23.295 28.8 22.5 27 22.5C23.685 22.5 21 25.185 21 28.5C21 29.625 21.315 30.69 21.87 31.59C22.185 32.13 22.59 32.61 23.055 33H12C6.75 33 4.5 30 4.5 25.5V12.75C4.5 8.25 6.75 5.25 12 5.25H24C29.25 5.25 31.5 8.25 31.5 12.75Z" stroke="#FDFAF5" stroke-width="2" stroke-miterlimit="10" stroke-linecap="round" stroke-linejoin="round"/>
<path d="M17.9937 20.55H18.0072" stroke="#FDFAF5" stroke-width="3" stroke-linecap="round" stroke-linejoin="round"/>
<path d="M12.441 20.55H12.4545" stroke="#FDFAF5" stroke-width="3" stroke-linecap="round" stroke-linejoin="round"/>
<path d="M12.441 25.05H12.4545" stroke="#FDFAF5" stroke-width="3" stroke-linecap="round" stroke-linejoin="round"/>
</svg>
