<svg width="36" height="36" viewBox="0 0 36 36" fill="none" xmlns="http://www.w3.org/2000/svg">
<path d="M28.5 13.5C28.5 15.675 27.855 17.67 26.745 19.335C25.125 21.735 22.56 23.43 19.575 23.865C19.065 23.955 18.54 24 18 24C17.46 24 16.935 23.955 16.425 23.865C13.44 23.43 10.875 21.735 9.255 19.335C8.145 17.67 7.5 15.675 7.5 13.5C7.5 7.695 12.195 3 18 3C23.805 3 28.5 7.695 28.5 13.5Z" stroke="#41B383" stroke-width="2" stroke-linecap="round" stroke-linejoin="round"/>
<path d="M31.8746 27.705L29.3996 28.29C28.8446 28.425 28.4096 28.845 28.2896 29.4L27.7646 31.605C27.4796 32.805 25.9496 33.165 25.1546 32.22L17.9996 24L10.8446 32.235C10.0496 33.18 8.51963 32.82 8.23463 31.62L7.70963 29.415C7.57463 28.86 7.13963 28.425 6.59963 28.305L4.12463 27.72C2.98463 27.45 2.57963 26.025 3.40463 25.2L9.25463 19.35C10.8746 21.75 13.4396 23.445 16.4246 23.88C16.9346 23.97 17.4596 24.015 17.9996 24.015C18.5396 24.015 19.0646 23.97 19.5746 23.88C22.5596 23.445 25.1246 21.75 26.7446 19.35L32.5946 25.2C33.4196 26.01 33.0146 27.435 31.8746 27.705Z" stroke="#41B383" stroke-width="2" stroke-linecap="round" stroke-linejoin="round"/>
<path d="M18.87 8.97L19.755 10.74C19.875 10.98 20.19 11.22 20.475 11.265L22.08 11.535C23.1 11.7 23.34 12.45 22.605 13.185L21.36 14.43C21.15 14.64 21.03 15.045 21.105 15.345L21.465 16.89C21.75 18.105 21.105 18.585 20.025 17.94L18.525 17.055C18.255 16.89 17.805 16.89 17.535 17.055L16.035 17.94C14.955 18.57 14.31 18.105 14.595 16.89L14.955 15.345C15.015 15.06 14.91 14.64 14.7 14.43L13.455 13.185C12.72 12.45 12.96 11.715 13.98 11.535L15.585 11.265C15.855 11.22 16.17 10.98 16.29 10.74L17.175 8.97C17.61 8.01 18.39 8.01 18.87 8.97Z" stroke="#41B383" stroke-width="2" stroke-linecap="round" stroke-linejoin="round"/>
</svg>
