<svg viewBox="0 0 1240 252" fill="none" xmlns="http://www.w3.org/2000/svg">
<path class="hide_mobile" d="M1135 251.5C1135 218.473 1128.49 185.768 1115.86 155.255C1103.22 124.742 1084.69 97.0166 1061.34 73.6626C1037.98 50.3087 1010.26 31.7834 979.745 19.1443C949.231 6.50524 916.527 -1.44368e-06 883.5 0C850.473 1.44368e-06 817.768 6.50524 787.255 19.1443C756.742 31.7834 729.017 50.3087 705.663 73.6627C682.309 97.0166 663.783 124.742 651.144 155.255C638.505 185.769 632 218.473 632 251.5L883.5 251.5H1135Z" fill="#3658D3"/>
<path d="M0 120C0 92.3858 22.3858 70 50 70H477C504.614 70 527 92.3858 527 120V251H0V120Z" fill="#FFBABA"/>
<path d="M40.1631 115.686H46.0225V150.5H40.1631V115.686ZM68.5312 125.476C71.2982 125.476 73.4629 126.216 75.0254 127.697C76.5879 129.178 77.3691 131.27 77.3691 133.972V150.5H71.7051V135.192C71.7051 133.451 71.2493 132.165 70.3379 131.335C69.4427 130.489 68.2871 130.065 66.8711 130.065C65.1784 130.065 63.7949 130.586 62.7207 131.628C61.6465 132.653 61.1012 134.24 61.085 136.389V150.5H55.4697V125.939H61.085V128.845C61.915 127.771 62.9648 126.94 64.2344 126.354C65.5202 125.769 66.9525 125.476 68.5312 125.476ZM108.936 113V150.5H103.564L103.418 146.667C102.718 148.083 101.636 149.174 100.171 149.938C98.7223 150.687 97.0703 151.062 95.2148 151.062C93.0827 151.062 91.1296 150.541 89.3555 149.499C87.5814 148.441 86.1735 146.944 85.1318 145.007C84.1064 143.07 83.5938 140.816 83.5938 138.244C83.5938 135.689 84.1146 133.451 85.1562 131.53C86.1979 129.593 87.5977 128.104 89.3555 127.062C91.1296 126.005 93.0827 125.476 95.2148 125.476C97.0215 125.476 98.641 125.834 100.073 126.55C101.506 127.266 102.588 128.308 103.32 129.675L103.345 113H108.936ZM96.4844 146.301C97.8516 146.301 99.0804 145.975 100.171 145.324C101.278 144.657 102.148 143.721 102.783 142.517C103.418 141.296 103.735 139.872 103.735 138.244C103.735 136.633 103.418 135.217 102.783 133.996C102.148 132.775 101.278 131.84 100.171 131.188C99.0641 130.537 97.8353 130.212 96.4844 130.212C95.1335 130.212 93.9046 130.546 92.7979 131.213C91.6911 131.864 90.8122 132.8 90.1611 134.021C89.5264 135.241 89.209 136.649 89.209 138.244C89.209 139.855 89.5264 141.271 90.1611 142.492C90.8122 143.713 91.6911 144.657 92.7979 145.324C93.9046 145.975 95.1335 146.301 96.4844 146.301ZM117.431 125.939H123.07V150.5H117.431V125.939ZM120.287 121.252C119.669 121.252 119.091 121.097 118.554 120.788C118.017 120.479 117.593 120.064 117.284 119.543C116.975 119.006 116.82 118.428 116.82 117.81C116.82 117.191 116.975 116.621 117.284 116.101C117.593 115.563 118.017 115.14 118.554 114.831C119.091 114.522 119.669 114.367 120.287 114.367C120.889 114.367 121.451 114.522 121.972 114.831C122.509 115.14 122.932 115.563 123.241 116.101C123.55 116.621 123.705 117.191 123.705 117.81C123.705 118.428 123.55 119.006 123.241 119.543C122.932 120.064 122.509 120.479 121.972 120.788C121.451 121.097 120.889 121.252 120.287 121.252ZM155.125 125.939V150.5H149.754L149.607 146.569C148.891 147.969 147.801 149.068 146.336 149.865C144.871 150.663 143.235 151.062 141.429 151.062C139.297 151.062 137.343 150.541 135.569 149.499C133.795 148.441 132.387 146.944 131.346 145.007C130.304 143.07 129.783 140.816 129.783 138.244C129.783 135.689 130.304 133.451 131.346 131.53C132.387 129.593 133.795 128.104 135.569 127.062C137.343 126.005 139.297 125.476 141.429 125.476C143.203 125.476 144.806 125.858 146.238 126.623C147.671 127.372 148.761 128.413 149.51 129.748V125.939H155.125ZM142.674 146.301C144.025 146.301 145.254 145.959 146.36 145.275C147.467 144.592 148.338 143.64 148.973 142.419C149.607 141.182 149.925 139.79 149.925 138.244C149.925 136.698 149.599 135.314 148.948 134.094C148.313 132.873 147.443 131.921 146.336 131.237C145.229 130.554 144.008 130.212 142.674 130.212C141.323 130.212 140.094 130.546 138.987 131.213C137.881 131.864 137.002 132.8 136.351 134.021C135.716 135.241 135.398 136.649 135.398 138.244C135.398 139.855 135.716 141.271 136.351 142.492C137.002 143.713 137.881 144.657 138.987 145.324C140.094 145.975 141.323 146.301 142.674 146.301ZM162.839 131.237L165.842 115.686H171.677L166.867 131.237H162.839ZM183.712 150.964C180.945 150.964 178.642 150.386 176.803 149.23C174.98 148.059 173.865 146.366 173.458 144.152L178.219 142.81C178.544 144.177 179.187 145.21 180.147 145.91C181.108 146.594 182.296 146.936 183.712 146.936C184.868 146.936 185.852 146.7 186.666 146.228C187.48 145.739 187.887 144.966 187.887 143.908C187.887 143.192 187.667 142.606 187.228 142.15C186.788 141.678 186.218 141.304 185.519 141.027C184.835 140.751 183.867 140.433 182.613 140.075C181.783 139.847 181.026 139.619 180.343 139.392C179.073 138.985 177.999 138.529 177.12 138.024C176.241 137.52 175.517 136.836 174.947 135.974C174.378 135.095 174.093 133.988 174.093 132.653C174.093 131.058 174.492 129.732 175.289 128.674C176.087 127.6 177.177 126.802 178.561 126.281C179.944 125.76 181.507 125.5 183.248 125.5C185.706 125.5 187.773 126.029 189.449 127.087C191.142 128.145 192.192 129.764 192.599 131.945L188.155 132.995C187.846 131.758 187.252 130.847 186.373 130.261C185.51 129.675 184.477 129.382 183.272 129.382C182.149 129.382 181.197 129.618 180.416 130.09C179.651 130.546 179.269 131.245 179.269 132.189C179.269 132.857 179.488 133.402 179.928 133.825C180.367 134.232 180.912 134.558 181.563 134.802C182.231 135.03 183.167 135.298 184.371 135.607C184.518 135.656 184.819 135.738 185.274 135.852C186.869 136.275 188.229 136.747 189.352 137.268C190.475 137.788 191.41 138.562 192.159 139.587C192.924 140.596 193.307 141.906 193.307 143.518C193.307 145.243 192.867 146.667 191.988 147.79C191.126 148.897 189.97 149.702 188.521 150.207C187.089 150.712 185.486 150.964 183.712 150.964ZM225.385 150.964C222.927 150.964 220.705 150.59 218.72 149.841C216.75 149.076 215.131 147.969 213.861 146.521C212.592 145.056 211.77 143.314 211.396 141.296L217.401 139.904C217.711 141.874 218.606 143.404 220.087 144.494C221.584 145.568 223.432 146.105 225.629 146.105C227.468 146.105 228.998 145.699 230.219 144.885C231.439 144.055 232.05 142.793 232.05 141.101C232.05 139.896 231.659 138.911 230.878 138.146C230.097 137.365 229.136 136.763 227.997 136.34C226.874 135.9 225.279 135.388 223.212 134.802C220.933 134.134 219.07 133.475 217.621 132.824C216.173 132.157 214.96 131.205 213.983 129.968C213.007 128.715 212.519 127.095 212.519 125.109C212.519 123.01 213.039 121.219 214.081 119.738C215.139 118.241 216.571 117.11 218.378 116.345C220.185 115.58 222.211 115.197 224.457 115.197C226.589 115.197 228.575 115.507 230.414 116.125C232.253 116.743 233.816 117.712 235.102 119.03C236.404 120.349 237.266 122.009 237.689 124.011L232.05 125.427C231.675 123.636 230.837 122.302 229.535 121.423C228.249 120.528 226.654 120.08 224.75 120.08C222.96 120.08 221.454 120.487 220.233 121.301C219.029 122.115 218.427 123.352 218.427 125.012C218.427 126.021 218.769 126.851 219.452 127.502C220.136 128.153 220.99 128.674 222.016 129.064C223.041 129.439 224.481 129.886 226.337 130.407C228.778 131.091 230.788 131.774 232.367 132.458C233.946 133.142 235.289 134.159 236.396 135.51C237.519 136.844 238.08 138.594 238.08 140.759C238.08 143.054 237.502 144.966 236.347 146.496C235.191 148.026 233.653 149.157 231.732 149.89C229.828 150.606 227.712 150.964 225.385 150.964ZM266.692 125.939V150.5H261.346L261.199 147.424C260.369 148.563 259.303 149.442 258.001 150.061C256.715 150.663 255.258 150.964 253.631 150.964C250.864 150.964 248.699 150.231 247.137 148.767C245.574 147.285 244.793 145.186 244.793 142.468V125.939H250.457V141.247C250.457 142.989 250.905 144.283 251.8 145.129C252.711 145.959 253.883 146.374 255.315 146.374C257.008 146.374 258.383 145.861 259.441 144.836C260.516 143.794 261.061 142.199 261.077 140.051V125.939H266.692ZM288.859 125.476C290.992 125.476 292.945 125.996 294.719 127.038C296.493 128.08 297.893 129.569 298.918 131.506C299.96 133.426 300.48 135.673 300.48 138.244C300.48 140.832 299.96 143.094 298.918 145.031C297.893 146.968 296.493 148.457 294.719 149.499C292.945 150.541 290.992 151.062 288.859 151.062C287.118 151.062 285.523 150.687 284.074 149.938C282.626 149.174 281.527 148.124 280.778 146.789V162.658H275.163V125.939H280.534L280.681 129.895C281.413 128.511 282.512 127.429 283.977 126.647C285.441 125.866 287.069 125.476 288.859 125.476ZM287.639 146.301C288.973 146.301 290.186 145.975 291.276 145.324C292.367 144.673 293.229 143.737 293.864 142.517C294.515 141.296 294.841 139.872 294.841 138.244C294.841 136.617 294.515 135.201 293.864 133.996C293.229 132.792 292.367 131.864 291.276 131.213C290.186 130.562 288.973 130.236 287.639 130.236C286.288 130.236 285.051 130.578 283.928 131.262C282.821 131.945 281.942 132.897 281.291 134.118C280.656 135.339 280.339 136.714 280.339 138.244C280.339 139.79 280.656 141.182 281.291 142.419C281.942 143.64 282.821 144.592 283.928 145.275C285.051 145.959 286.288 146.301 287.639 146.301ZM329.654 139.221H310.978C311.043 140.799 311.401 142.134 312.052 143.225C312.703 144.299 313.549 145.104 314.591 145.642C315.632 146.179 316.796 146.447 318.082 146.447C319.449 146.447 320.662 146.114 321.72 145.446C322.794 144.779 323.608 143.827 324.161 142.59L329.288 143.469C328.442 145.829 327.026 147.668 325.04 148.986C323.054 150.305 320.751 150.964 318.131 150.964C315.608 150.964 313.395 150.459 311.49 149.45C309.586 148.441 308.105 146.976 307.047 145.056C305.989 143.135 305.46 140.856 305.46 138.22C305.46 135.583 305.989 133.304 307.047 131.384C308.121 129.463 309.602 127.998 311.49 126.989C313.378 125.964 315.535 125.451 317.96 125.451C320.271 125.451 322.306 125.907 324.063 126.818C325.821 127.73 327.205 129.113 328.214 130.969C329.223 132.808 329.728 135.087 329.728 137.805L329.654 139.221ZM317.984 129.626C316.243 129.626 314.786 130.057 313.614 130.92C312.459 131.783 311.677 133.085 311.271 134.826H324.063C323.819 133.117 323.152 131.823 322.062 130.944C320.987 130.065 319.628 129.626 317.984 129.626ZM341.86 130.017C342.267 129.219 342.869 128.495 343.667 127.844C344.465 127.176 345.384 126.647 346.426 126.257C347.484 125.866 348.59 125.671 349.746 125.671V130.798C347.158 130.798 345.229 131.351 343.96 132.458C342.707 133.549 342.08 135.388 342.08 137.976V150.5H336.44V125.939H341.86V130.017ZM387.024 131.994C389.124 132.548 390.727 133.549 391.834 134.997C392.957 136.446 393.519 138.366 393.519 140.759C393.519 143.802 392.607 146.187 390.784 147.912C388.978 149.637 386.17 150.5 382.361 150.5H369.153V115.686H379.212C383.297 115.686 386.276 116.516 388.147 118.176C390.035 119.82 390.979 122.066 390.979 124.914C390.979 126.558 390.646 127.998 389.979 129.235C389.311 130.456 388.326 131.376 387.024 131.994ZM374.817 120.617V130.139H380.433C382.174 130.139 383.46 129.707 384.29 128.845C385.136 127.982 385.56 126.81 385.56 125.329C385.56 123.685 384.998 122.489 383.875 121.74C382.768 120.992 381.222 120.617 379.236 120.617H374.817ZM381.312 145.422C383.704 145.422 385.389 144.95 386.365 144.006C387.342 143.046 387.83 141.776 387.83 140.197C387.83 138.521 387.334 137.202 386.341 136.242C385.364 135.266 383.777 134.777 381.58 134.777H374.817V145.422H381.312ZM406.042 130.017C406.449 129.219 407.051 128.495 407.849 127.844C408.646 127.176 409.566 126.647 410.607 126.257C411.665 125.866 412.772 125.671 413.928 125.671V130.798C411.34 130.798 409.411 131.351 408.142 132.458C406.888 133.549 406.262 135.388 406.262 137.976V150.5H400.622V125.939H406.042V130.017ZM442.711 125.939V150.5H437.34L437.193 146.569C436.477 147.969 435.387 149.068 433.922 149.865C432.457 150.663 430.821 151.062 429.015 151.062C426.882 151.062 424.929 150.541 423.155 149.499C421.381 148.441 419.973 146.944 418.932 145.007C417.89 143.07 417.369 140.816 417.369 138.244C417.369 135.689 417.89 133.451 418.932 131.53C419.973 129.593 421.381 128.104 423.155 127.062C424.929 126.005 426.882 125.476 429.015 125.476C430.789 125.476 432.392 125.858 433.824 126.623C435.257 127.372 436.347 128.413 437.096 129.748V125.939H442.711ZM430.26 146.301C431.611 146.301 432.84 145.959 433.946 145.275C435.053 144.592 435.924 143.64 436.559 142.419C437.193 141.182 437.511 139.79 437.511 138.244C437.511 136.698 437.185 135.314 436.534 134.094C435.899 132.873 435.029 131.921 433.922 131.237C432.815 130.554 431.594 130.212 430.26 130.212C428.909 130.212 427.68 130.546 426.573 131.213C425.466 131.864 424.588 132.8 423.937 134.021C423.302 135.241 422.984 136.649 422.984 138.244C422.984 139.855 423.302 141.271 423.937 142.492C424.588 143.713 425.466 144.657 426.573 145.324C427.68 145.975 428.909 146.301 430.26 146.301ZM451.206 125.939H456.846V150.5H451.206V125.939ZM454.062 121.252C453.444 121.252 452.866 121.097 452.329 120.788C451.792 120.479 451.369 120.064 451.06 119.543C450.75 119.006 450.596 118.428 450.596 117.81C450.596 117.191 450.75 116.621 451.06 116.101C451.369 115.563 451.792 115.14 452.329 114.831C452.866 114.522 453.444 114.367 454.062 114.367C454.665 114.367 455.226 114.522 455.747 114.831C456.284 115.14 456.707 115.563 457.017 116.101C457.326 116.621 457.48 117.191 457.48 117.81C457.48 118.428 457.326 119.006 457.017 119.543C456.707 120.064 456.284 120.479 455.747 120.788C455.226 121.097 454.665 121.252 454.062 121.252ZM478.402 125.476C481.169 125.476 483.334 126.216 484.896 127.697C486.459 129.178 487.24 131.27 487.24 133.972V150.5H481.576V135.192C481.576 133.451 481.12 132.165 480.209 131.335C479.314 130.489 478.158 130.065 476.742 130.065C475.049 130.065 473.666 130.586 472.592 131.628C471.518 132.653 470.972 134.24 470.956 136.389V150.5H465.341V125.939H470.956V128.845C471.786 127.771 472.836 126.94 474.105 126.354C475.391 125.769 476.824 125.476 478.402 125.476ZM46.0957 174.886V184.529H58.0586V189.681H46.0957V199.275H59.6211V204.5H40.1631V169.686H59.6211V174.886H46.0957ZM73.9023 192.195L64.1367 179.939H71.1191L77.3203 188.509L83.5459 179.939H90.4795L80.6895 192.22L90.4795 204.5H83.5215L77.3447 196.004L71.1191 204.5H64.1367L73.9023 192.195ZM109.717 179.476C111.849 179.476 113.802 179.996 115.576 181.038C117.35 182.08 118.75 183.569 119.775 185.506C120.817 187.426 121.338 189.673 121.338 192.244C121.338 194.832 120.817 197.094 119.775 199.031C118.75 200.968 117.35 202.457 115.576 203.499C113.802 204.541 111.849 205.062 109.717 205.062C107.975 205.062 106.38 204.687 104.932 203.938C103.483 203.174 102.384 202.124 101.636 200.789V216.658H96.0205V179.939H101.392L101.538 183.895C102.271 182.511 103.369 181.429 104.834 180.647C106.299 179.866 107.926 179.476 109.717 179.476ZM108.496 200.301C109.831 200.301 111.043 199.975 112.134 199.324C113.224 198.673 114.087 197.737 114.722 196.517C115.373 195.296 115.698 193.872 115.698 192.244C115.698 190.617 115.373 189.201 114.722 187.996C114.087 186.792 113.224 185.864 112.134 185.213C111.043 184.562 109.831 184.236 108.496 184.236C107.145 184.236 105.908 184.578 104.785 185.262C103.678 185.945 102.799 186.897 102.148 188.118C101.514 189.339 101.196 190.714 101.196 192.244C101.196 193.79 101.514 195.182 102.148 196.419C102.799 197.64 103.678 198.592 104.785 199.275C105.908 199.959 107.145 200.301 108.496 200.301ZM150.512 193.221H131.835C131.9 194.799 132.258 196.134 132.909 197.225C133.56 198.299 134.407 199.104 135.448 199.642C136.49 200.179 137.654 200.447 138.939 200.447C140.307 200.447 141.519 200.114 142.577 199.446C143.651 198.779 144.465 197.827 145.019 196.59L150.146 197.469C149.299 199.829 147.883 201.668 145.897 202.986C143.912 204.305 141.609 204.964 138.988 204.964C136.465 204.964 134.252 204.459 132.348 203.45C130.443 202.441 128.962 200.976 127.904 199.056C126.846 197.135 126.317 194.856 126.317 192.22C126.317 189.583 126.846 187.304 127.904 185.384C128.979 183.463 130.46 181.998 132.348 180.989C134.236 179.964 136.392 179.451 138.817 179.451C141.129 179.451 143.163 179.907 144.921 180.818C146.679 181.73 148.062 183.113 149.071 184.969C150.08 186.808 150.585 189.087 150.585 191.805L150.512 193.221ZM138.842 183.626C137.1 183.626 135.644 184.057 134.472 184.92C133.316 185.783 132.535 187.085 132.128 188.826H144.921C144.677 187.117 144.009 185.823 142.919 184.944C141.845 184.065 140.486 183.626 138.842 183.626ZM162.718 184.017C163.125 183.219 163.727 182.495 164.524 181.844C165.322 181.176 166.242 180.647 167.283 180.257C168.341 179.866 169.448 179.671 170.604 179.671V184.798C168.016 184.798 166.087 185.351 164.817 186.458C163.564 187.549 162.938 189.388 162.938 191.976V204.5H157.298V179.939H162.718V184.017ZM176.071 179.939H181.711V204.5H176.071V179.939ZM178.928 175.252C178.309 175.252 177.731 175.097 177.194 174.788C176.657 174.479 176.234 174.064 175.925 173.543C175.616 173.006 175.461 172.428 175.461 171.81C175.461 171.191 175.616 170.621 175.925 170.101C176.234 169.563 176.657 169.14 177.194 168.831C177.731 168.522 178.309 168.367 178.928 168.367C179.53 168.367 180.091 168.522 180.612 168.831C181.149 169.14 181.573 169.563 181.882 170.101C182.191 170.621 182.346 171.191 182.346 171.81C182.346 172.428 182.191 173.006 181.882 173.543C181.573 174.064 181.149 174.479 180.612 174.788C180.091 175.097 179.53 175.252 178.928 175.252ZM212.643 193.221H193.966C194.031 194.799 194.389 196.134 195.04 197.225C195.691 198.299 196.537 199.104 197.579 199.642C198.621 200.179 199.785 200.447 201.07 200.447C202.438 200.447 203.65 200.114 204.708 199.446C205.782 198.779 206.596 197.827 207.149 196.59L212.276 197.469C211.43 199.829 210.014 201.668 208.028 202.986C206.043 204.305 203.74 204.964 201.119 204.964C198.596 204.964 196.383 204.459 194.479 203.45C192.574 202.441 191.093 200.976 190.035 199.056C188.977 197.135 188.448 194.856 188.448 192.22C188.448 189.583 188.977 187.304 190.035 185.384C191.109 183.463 192.59 181.998 194.479 180.989C196.367 179.964 198.523 179.451 200.948 179.451C203.259 179.451 205.294 179.907 207.052 180.818C208.81 181.73 210.193 183.113 211.202 184.969C212.211 186.808 212.716 189.087 212.716 191.805L212.643 193.221ZM200.973 183.626C199.231 183.626 197.774 184.057 196.603 184.92C195.447 185.783 194.666 187.085 194.259 188.826H207.052C206.808 187.117 206.14 185.823 205.05 184.944C203.976 184.065 202.617 183.626 200.973 183.626ZM232.49 179.476C235.257 179.476 237.422 180.216 238.984 181.697C240.547 183.178 241.328 185.27 241.328 187.972V204.5H235.664V189.192C235.664 187.451 235.208 186.165 234.297 185.335C233.402 184.489 232.246 184.065 230.83 184.065C229.137 184.065 227.754 184.586 226.68 185.628C225.605 186.653 225.06 188.24 225.044 190.389V204.5H219.429V179.939H225.044V182.845C225.874 181.771 226.924 180.94 228.193 180.354C229.479 179.769 230.911 179.476 232.49 179.476ZM260.199 204.939C257.758 204.939 255.569 204.41 253.632 203.353C251.711 202.295 250.206 200.797 249.115 198.86C248.025 196.924 247.479 194.702 247.479 192.195C247.479 189.689 248.025 187.475 249.115 185.555C250.206 183.618 251.711 182.12 253.632 181.062C255.569 180.005 257.758 179.476 260.199 179.476C262.152 179.476 263.926 179.809 265.521 180.477C267.117 181.144 268.459 182.12 269.55 183.406C270.64 184.692 271.405 186.238 271.845 188.045L266.62 188.729C266.148 187.199 265.342 186.027 264.203 185.213C263.08 184.399 261.729 183.992 260.15 183.992C258.783 183.992 257.562 184.334 256.488 185.018C255.43 185.701 254.6 186.661 253.998 187.898C253.396 189.135 253.095 190.568 253.095 192.195C253.095 193.823 253.396 195.255 253.998 196.492C254.6 197.729 255.43 198.689 256.488 199.373C257.562 200.057 258.783 200.398 260.15 200.398C261.729 200.398 263.08 200 264.203 199.202C265.342 198.388 266.148 197.216 266.62 195.687L271.845 196.346C271.405 198.136 270.632 199.682 269.525 200.984C268.419 202.27 267.068 203.255 265.473 203.938C263.878 204.606 262.12 204.939 260.199 204.939ZM300.652 193.221H281.976C282.041 194.799 282.399 196.134 283.05 197.225C283.701 198.299 284.547 199.104 285.589 199.642C286.631 200.179 287.794 200.447 289.08 200.447C290.447 200.447 291.66 200.114 292.718 199.446C293.792 198.779 294.606 197.827 295.159 196.59L300.286 197.469C299.44 199.829 298.024 201.668 296.038 202.986C294.052 204.305 291.749 204.964 289.129 204.964C286.606 204.964 284.393 204.459 282.488 203.45C280.584 202.441 279.103 200.976 278.045 199.056C276.987 197.135 276.458 194.856 276.458 192.22C276.458 189.583 276.987 187.304 278.045 185.384C279.119 183.463 280.6 181.998 282.488 180.989C284.376 179.964 286.533 179.451 288.958 179.451C291.269 179.451 293.304 179.907 295.062 180.818C296.819 181.73 298.203 183.113 299.212 184.969C300.221 186.808 300.726 189.087 300.726 191.805L300.652 193.221ZM288.982 183.626C287.241 183.626 285.784 184.057 284.612 184.92C283.457 185.783 282.675 187.085 282.269 188.826H295.062C294.817 187.117 294.15 185.823 293.06 184.944C291.985 184.065 290.626 183.626 288.982 183.626Z" fill="black"/>
<rect class="hide_mobile" x="527" y="141" width="713" height="111" fill="#619BF7"/>
<path class="hide_mobile" d="M880.898 90C801.518 90 757.369 137.389 754.185 140.926C757.369 144.462 801.518 191.852 880.898 191.852C960.279 191.852 1001.95 144.462 1004.95 140.926C1001.95 137.389 960.279 90 880.898 90Z" fill="#FDFAF5"/>
<circle class="hide_mobile" cx="865.576" cy="145.656" r="45.7798" fill="#FFEDAF"/>
</svg>
