<svg width="100%" height="100%" viewBox="0 0 503 430" fill="none" xmlns="http://www.w3.org/2000/svg">
<path d="M179.524 397.893V401.76H323.457V397.893L321.193 383.394H181.787L179.524 397.893Z" fill="#BABABA"/>
<path d="M192.503 314.762L181.787 383.394H321.193L310.497 314.762H192.503Z" fill="#AAAAAA"/>
<path d="M323.457 397.893H179.524V401.76H323.457V397.893Z" fill="#CCCCCC"/>
<path d="M191.691 401.76H311.29L310.69 397.893H192.29L191.691 401.76Z" fill="#DDDDDD"/>
<path d="M0 336.265C0 342.316 4.95185 347.265 11.0063 347.265H491.994C498.048 347.265 503 342.316 503 336.265V287.063H0V336.265Z" fill="#CCCCCC"/>
<path d="M491.994 0H11.0063C4.95185 0 0 5.83756 0 12.9749V315H503V12.9749C503 5.83756 498.048 0 491.994 0Z" fill="black"/>
<path d="M489 15H14V301H489V15Z" fill="#575757"/>
<line x1="14" y1="91.875" x2="489" y2="91.875" stroke="#F2F2F2" stroke-width="0.25"/>
<line x1="14" y1="105.875" x2="292" y2="105.875" stroke="#F2F2F2" stroke-width="0.25"/>
<path d="M29.5654 67.4639H32.5049C33.4391 67.4639 34.2321 67.6667 34.8838 68.0723C35.54 68.4733 36.0345 69.0339 36.3672 69.7539C36.6999 70.4694 36.8662 71.2943 36.8662 72.2285C36.8662 73.1673 36.6999 73.9967 36.3672 74.7168C36.0345 75.4323 35.54 75.9928 34.8838 76.3984C34.2321 76.7995 33.4391 77 32.5049 77H29.5654V67.4639ZM32.4912 76.125C33.2386 76.125 33.8652 75.9655 34.3711 75.6465C34.8815 75.3229 35.262 74.8695 35.5127 74.2861C35.7633 73.7028 35.8887 73.0169 35.8887 72.2285C35.8887 71.4447 35.7633 70.7611 35.5127 70.1777C35.262 69.5944 34.8815 69.1432 34.3711 68.8242C33.8652 68.5007 33.2386 68.3389 32.4912 68.3389H30.5088V76.125H32.4912ZM44.9802 73.8213H39.7165C39.7256 74.3636 39.8327 74.8239 40.0378 75.2021C40.2474 75.5804 40.5232 75.8652 40.865 76.0566C41.2113 76.2435 41.5941 76.3369 42.0134 76.3369C42.4418 76.3369 42.8337 76.2207 43.1892 75.9883C43.5492 75.7559 43.8272 75.4391 44.0232 75.0381L44.8435 75.25C44.5928 75.8288 44.2168 76.2868 43.7155 76.624C43.2142 76.9613 42.6514 77.1299 42.0271 77.1299C41.4118 77.1299 40.8604 76.9932 40.3728 76.7197C39.8897 76.4417 39.5092 76.0452 39.2312 75.5303C38.9577 75.0107 38.821 74.3978 38.821 73.6914C38.821 72.9896 38.9577 72.3789 39.2312 71.8594C39.5092 71.3398 39.8897 70.9434 40.3728 70.6699C40.8558 70.3919 41.4004 70.2529 42.0066 70.2529C42.5945 70.2529 43.1117 70.3783 43.5583 70.6289C44.0095 70.8796 44.3604 71.251 44.6111 71.7432C44.8663 72.2354 44.9939 72.8346 44.9939 73.541L44.9802 73.8213ZM42.0066 70.998C41.4096 70.998 40.906 71.1781 40.4958 71.5381C40.0902 71.8936 39.8418 72.4062 39.7507 73.0762H44.0642C44.0232 72.3971 43.8181 71.8822 43.4489 71.5312C43.0798 71.1758 42.599 70.998 42.0066 70.998ZM50.6059 70.2598C51.1619 70.2598 51.6723 70.4033 52.1371 70.6904C52.602 70.9775 52.9711 71.3831 53.2446 71.9072C53.518 72.4268 53.6547 73.0215 53.6547 73.6914C53.6547 74.3659 53.518 74.9652 53.2446 75.4893C52.9757 76.0088 52.6088 76.4144 52.144 76.7061C51.6791 76.9932 51.1664 77.1367 50.6059 77.1367C50.0454 77.1367 49.5509 77.0046 49.1225 76.7402C48.6941 76.4759 48.3705 76.0908 48.1518 75.585L48.1381 77H47.2426V66.5H48.1586V71.7773C48.3774 71.2852 48.7009 70.9092 49.1293 70.6494C49.5577 70.3896 50.0499 70.2598 50.6059 70.2598ZM50.4145 76.3164C50.8429 76.3164 51.2325 76.207 51.5834 75.9883C51.9389 75.765 52.2192 75.4551 52.4243 75.0586C52.6339 74.6576 52.7387 74.2018 52.7387 73.6914C52.7387 73.181 52.6339 72.7275 52.4243 72.3311C52.2192 71.93 51.9389 71.6201 51.5834 71.4014C51.2325 71.1781 50.8429 71.0664 50.4145 71.0664C49.9861 71.0664 49.5965 71.1758 49.2455 71.3945C48.8946 71.6087 48.6166 71.9163 48.4116 72.3174C48.2065 72.7139 48.1039 73.1719 48.1039 73.6914C48.1039 74.2109 48.2042 74.6712 48.4047 75.0723C48.6098 75.4688 48.8878 75.7764 49.2387 75.9951C49.5896 76.2093 49.9815 76.3164 50.4145 76.3164ZM60.8459 70.3828V77H59.9572L59.9435 76.0908C59.7384 76.4235 59.4696 76.681 59.1369 76.8633C58.8042 77.041 58.4259 77.1299 58.0021 77.1299C57.5692 77.1299 57.1841 77.0433 56.8468 76.8701C56.5142 76.6924 56.2521 76.4326 56.0607 76.0908C55.8693 75.7445 55.7736 75.3275 55.7736 74.8398V70.3828H56.6964V74.6279C56.6964 75.1976 56.84 75.6237 57.1271 75.9062C57.4188 76.1888 57.7879 76.3301 58.2345 76.3301C58.5581 76.3301 58.8475 76.2594 59.1027 76.1182C59.3579 75.9769 59.5584 75.7673 59.7043 75.4893C59.8546 75.2067 59.9298 74.8626 59.9298 74.457V70.3828H60.8459ZM69.4315 70.3828V76.7129C69.4315 77.4284 69.3062 78.0436 69.0555 78.5586C68.8095 79.0736 68.4517 79.4678 67.9823 79.7412C67.5175 80.0146 66.9592 80.1514 66.3075 80.1514C65.5373 80.1514 64.8879 79.9782 64.3593 79.6318C63.8306 79.2855 63.4318 78.7865 63.163 78.1348L63.9286 77.7246C64.12 78.2578 64.4117 78.6611 64.8036 78.9346C65.2001 79.2126 65.6945 79.3516 66.287 79.3516C67.0025 79.3516 67.5516 79.1214 67.9345 78.6611C68.3173 78.2008 68.5087 77.5651 68.5087 76.7539V75.3457C68.299 75.7878 67.9709 76.1455 67.5243 76.4189C67.0822 76.6924 66.5992 76.8291 66.0751 76.8291C65.5282 76.8291 65.0223 76.6878 64.5575 76.4053C64.0972 76.1182 63.7304 75.724 63.4569 75.2227C63.1835 74.7168 63.0468 74.154 63.0468 73.5342C63.0468 72.9144 63.1835 72.3561 63.4569 71.8594C63.7304 71.3581 64.0995 70.9661 64.5643 70.6836C65.0292 70.401 65.535 70.2598 66.0819 70.2598C66.6106 70.2598 67.0959 70.3965 67.538 70.6699C67.98 70.9388 68.3059 71.2988 68.5155 71.75L68.5292 70.3828H69.4315ZM66.2528 76.0156C66.6721 76.0156 67.0595 75.9017 67.4149 75.6738C67.7704 75.446 68.0507 75.1429 68.2557 74.7646C68.4654 74.3818 68.5702 73.9717 68.5702 73.5342C68.5702 73.0967 68.4677 72.6888 68.2626 72.3105C68.0575 71.9277 67.7772 71.6224 67.4218 71.3945C67.0663 71.1667 66.6766 71.0527 66.2528 71.0527C65.8335 71.0527 65.4484 71.1621 65.0975 71.3809C64.7466 71.5951 64.4686 71.8913 64.2636 72.2695C64.0585 72.6478 63.9559 73.0693 63.9559 73.5342C63.9559 73.9945 64.0585 74.416 64.2636 74.7988C64.4732 75.1771 64.7535 75.4756 65.1044 75.6943C65.4553 75.9085 65.8381 76.0156 66.2528 76.0156ZM81.8382 70.3828V77H80.9359L80.9222 75.5781C80.6898 76.0521 80.3571 76.4303 79.9241 76.7129C79.4912 76.9954 79.0104 77.1367 78.4818 77.1367C77.9212 77.1367 77.4062 76.9932 76.9368 76.7061C76.472 76.4144 76.1029 76.0088 75.8294 75.4893C75.556 74.9652 75.4193 74.3659 75.4193 73.6914C75.4193 73.0215 75.556 72.4268 75.8294 71.9072C76.1074 71.3831 76.4788 70.9775 76.9437 70.6904C77.4131 70.4033 77.9258 70.2598 78.4818 70.2598C79.0104 70.2598 79.4912 70.3988 79.9241 70.6768C80.3571 70.9548 80.6875 71.3262 80.9154 71.791V70.3828H81.8382ZM78.6595 76.3164C79.0879 76.3164 79.4775 76.2002 79.8284 75.9678C80.1793 75.7354 80.4573 75.4186 80.6624 75.0176C80.8675 74.6165 80.97 74.1745 80.97 73.6914C80.97 73.2083 80.8675 72.7663 80.6624 72.3652C80.4573 71.9642 80.1771 71.6475 79.8216 71.415C79.4707 71.1826 79.0833 71.0664 78.6595 71.0664C78.2311 71.0664 77.8392 71.1781 77.4837 71.4014C77.1328 71.6201 76.8525 71.93 76.6429 72.3311C76.4378 72.7275 76.3353 73.181 76.3353 73.6914C76.3353 74.2018 76.4378 74.6576 76.6429 75.0586C76.8525 75.4551 77.1328 75.765 77.4837 75.9883C77.8392 76.207 78.2311 76.3164 78.6595 76.3164ZM91.5584 77.1299C90.9112 77.1299 90.3302 77.0319 89.8152 76.8359C89.3048 76.6354 88.8832 76.3529 88.5505 75.9883C88.2224 75.6191 88.0037 75.1839 87.8943 74.6826L88.8445 74.4502C88.9311 74.8239 89.0997 75.1497 89.3504 75.4277C89.6056 75.7012 89.9246 75.9108 90.3074 76.0566C90.6948 76.2025 91.1231 76.2754 91.5925 76.2754C92.0027 76.2754 92.381 76.2184 92.7273 76.1045C93.0737 75.986 93.3562 75.7969 93.575 75.5371C93.7937 75.2728 93.9031 74.9333 93.9031 74.5186C93.9031 74.1038 93.78 73.7712 93.5339 73.5205C93.2924 73.2699 92.9939 73.0785 92.6384 72.9463C92.283 72.8141 91.7885 72.666 91.155 72.502C90.5079 72.3333 89.9815 72.1647 89.5759 71.9961C89.1703 71.8275 88.8331 71.5768 88.5642 71.2441C88.2953 70.9115 88.1609 70.4717 88.1609 69.9248C88.1609 69.3597 88.3022 68.8835 88.5847 68.4961C88.8673 68.1042 89.2433 67.8125 89.7127 67.6211C90.1821 67.4297 90.697 67.334 91.2576 67.334C91.8272 67.334 92.3491 67.4183 92.823 67.5869C93.3015 67.751 93.7026 68.0016 94.0261 68.3389C94.3543 68.6761 94.573 69.0908 94.6824 69.583L93.7664 69.8223C93.6342 69.2845 93.3403 68.8789 92.8845 68.6055C92.4334 68.3275 91.8979 68.1885 91.2781 68.1885C90.9044 68.1885 90.5535 68.2477 90.2254 68.3662C89.8972 68.4847 89.6283 68.6761 89.4187 68.9404C89.2136 69.2002 89.1111 69.5306 89.1111 69.9316C89.1111 70.2917 89.2159 70.5833 89.4255 70.8066C89.6397 71.0299 89.9086 71.2054 90.2322 71.333C90.5603 71.4561 90.9955 71.5859 91.5379 71.7227C92.2579 71.9004 92.8367 72.0736 93.2742 72.2422C93.7117 72.4108 94.0854 72.6729 94.3953 73.0283C94.7097 73.3838 94.867 73.86 94.867 74.457C94.867 75.0586 94.7166 75.5599 94.4158 75.9609C94.115 76.3574 93.714 76.6514 93.2127 76.8428C92.7159 77.0342 92.1645 77.1299 91.5584 77.1299ZM103.145 70.3828V77H102.243L102.229 75.5781C101.997 76.0521 101.664 76.4303 101.231 76.7129C100.798 76.9954 100.317 77.1367 99.7886 77.1367C99.228 77.1367 98.713 76.9932 98.2436 76.7061C97.7788 76.4144 97.4096 76.0088 97.1362 75.4893C96.8628 74.9652 96.7261 74.3659 96.7261 73.6914C96.7261 73.0215 96.8628 72.4268 97.1362 71.9072C97.4142 71.3831 97.7856 70.9775 98.2505 70.6904C98.7199 70.4033 99.2326 70.2598 99.7886 70.2598C100.317 70.2598 100.798 70.3988 101.231 70.6768C101.664 70.9548 101.994 71.3262 102.222 71.791V70.3828H103.145ZM99.9663 76.3164C100.395 76.3164 100.784 76.2002 101.135 75.9678C101.486 75.7354 101.764 75.4186 101.969 75.0176C102.174 74.6165 102.277 74.1745 102.277 73.6914C102.277 73.2083 102.174 72.7663 101.969 72.3652C101.764 71.9642 101.484 71.6475 101.128 71.415C100.777 71.1826 100.39 71.0664 99.9663 71.0664C99.5379 71.0664 99.146 71.1781 98.7905 71.4014C98.4396 71.6201 98.1593 71.93 97.9497 72.3311C97.7446 72.7275 97.6421 73.181 97.6421 73.6914C97.6421 74.2018 97.7446 74.6576 97.9497 75.0586C98.1593 75.4551 98.4396 75.765 98.7905 75.9883C99.146 76.207 99.5379 76.3164 99.9663 76.3164ZM111.669 70.3828V77H110.767L110.753 75.5781C110.521 76.0521 110.188 76.4303 109.755 76.7129C109.322 76.9954 108.841 77.1367 108.313 77.1367C107.752 77.1367 107.237 76.9932 106.768 76.7061C106.303 76.4144 105.934 76.0088 105.66 75.4893C105.387 74.9652 105.25 74.3659 105.25 73.6914C105.25 73.0215 105.387 72.4268 105.66 71.9072C105.938 71.3831 106.31 70.9775 106.775 70.6904C107.244 70.4033 107.757 70.2598 108.313 70.2598C108.841 70.2598 109.322 70.3988 109.755 70.6768C110.188 70.9548 110.518 71.3262 110.746 71.791V70.3828H111.669ZM108.49 76.3164C108.919 76.3164 109.308 76.2002 109.659 75.9678C110.01 75.7354 110.288 75.4186 110.493 75.0176C110.698 74.6165 110.801 74.1745 110.801 73.6914C110.801 73.2083 110.698 72.7663 110.493 72.3652C110.288 71.9642 110.008 71.6475 109.653 71.415C109.302 71.1826 108.914 71.0664 108.49 71.0664C108.062 71.0664 107.67 71.1781 107.315 71.4014C106.964 71.6201 106.683 71.93 106.474 72.3311C106.269 72.7275 106.166 73.181 106.166 73.6914C106.166 74.2018 106.269 74.6576 106.474 75.0586C106.683 75.4551 106.964 75.765 107.315 75.9883C107.67 76.207 108.062 76.3164 108.49 76.3164ZM117.65 77.1299C117.003 77.1299 116.422 77.0319 115.907 76.8359C115.397 76.6354 114.975 76.3529 114.643 75.9883C114.314 75.6191 114.096 75.1839 113.986 74.6826L114.936 74.4502C115.023 74.8239 115.192 75.1497 115.442 75.4277C115.698 75.7012 116.017 75.9108 116.399 76.0566C116.787 76.2025 117.215 76.2754 117.684 76.2754C118.095 76.2754 118.473 76.2184 118.819 76.1045C119.166 75.986 119.448 75.7969 119.667 75.5371C119.886 75.2728 119.995 74.9333 119.995 74.5186C119.995 74.1038 119.872 73.7712 119.626 73.5205C119.384 73.2699 119.086 73.0785 118.73 72.9463C118.375 72.8141 117.88 72.666 117.247 72.502C116.6 72.3333 116.073 72.1647 115.668 71.9961C115.262 71.8275 114.925 71.5768 114.656 71.2441C114.387 70.9115 114.253 70.4717 114.253 69.9248C114.253 69.3597 114.394 68.8835 114.677 68.4961C114.959 68.1042 115.335 67.8125 115.805 67.6211C116.274 67.4297 116.789 67.334 117.35 67.334C117.919 67.334 118.441 67.4183 118.915 67.5869C119.393 67.751 119.795 68.0016 120.118 68.3389C120.446 68.6761 120.665 69.0908 120.774 69.583L119.858 69.8223C119.726 69.2845 119.432 68.8789 118.976 68.6055C118.525 68.3275 117.99 68.1885 117.37 68.1885C116.996 68.1885 116.645 68.2477 116.317 68.3662C115.989 68.4847 115.72 68.6761 115.511 68.9404C115.306 69.2002 115.203 69.5306 115.203 69.9316C115.203 70.2917 115.308 70.5833 115.518 70.8066C115.732 71.0299 116.001 71.2054 116.324 71.333C116.652 71.4561 117.087 71.5859 117.63 71.7227C118.35 71.9004 118.929 72.0736 119.366 72.2422C119.804 72.4108 120.177 72.6729 120.487 73.0283C120.802 73.3838 120.959 73.86 120.959 74.457C120.959 75.0586 120.809 75.5599 120.508 75.9609C120.207 76.3574 119.806 76.6514 119.305 76.8428C118.808 77.0342 118.256 77.1299 117.65 77.1299ZM127.09 66.5H128.013V77H127.09V66.5ZM133.488 77.1299C132.882 77.1299 132.333 76.9886 131.841 76.7061C131.349 76.4189 130.959 76.0156 130.672 75.4961C130.389 74.972 130.248 74.3682 130.248 73.6846C130.248 73.001 130.389 72.4017 130.672 71.8867C130.955 71.3672 131.342 70.9661 131.834 70.6836C132.326 70.401 132.878 70.2598 133.488 70.2598C134.094 70.2598 134.641 70.401 135.129 70.6836C135.621 70.9661 136.006 71.3672 136.284 71.8867C136.567 72.4017 136.708 73.001 136.708 73.6846C136.708 74.3727 136.567 74.9788 136.284 75.5029C136.006 76.0225 135.621 76.4235 135.129 76.7061C134.641 76.9886 134.094 77.1299 133.488 77.1299ZM133.482 76.3369C133.914 76.3369 134.306 76.2275 134.657 76.0088C135.013 75.79 135.293 75.4801 135.498 75.0791C135.703 74.6781 135.806 74.2132 135.806 73.6846C135.806 73.1605 135.703 72.7002 135.498 72.3037C135.293 71.9027 135.013 71.5951 134.657 71.3809C134.306 71.1621 133.914 71.0527 133.482 71.0527C133.049 71.0527 132.657 71.1621 132.306 71.3809C131.955 71.5951 131.677 71.9027 131.472 72.3037C131.271 72.7002 131.171 73.1605 131.171 73.6846C131.171 74.2132 131.271 74.6781 131.472 75.0791C131.677 75.4801 131.955 75.79 132.306 76.0088C132.657 76.2275 133.049 76.3369 133.482 76.3369ZM144.754 70.3828V76.7129C144.754 77.4284 144.628 78.0436 144.378 78.5586C144.132 79.0736 143.774 79.4678 143.304 79.7412C142.84 80.0146 142.281 80.1514 141.63 80.1514C140.86 80.1514 140.21 79.9782 139.681 79.6318C139.153 79.2855 138.754 78.7865 138.485 78.1348L139.251 77.7246C139.442 78.2578 139.734 78.6611 140.126 78.9346C140.522 79.2126 141.017 79.3516 141.609 79.3516C142.325 79.3516 142.874 79.1214 143.257 78.6611C143.639 78.2008 143.831 77.5651 143.831 76.7539V75.3457C143.621 75.7878 143.293 76.1455 142.846 76.4189C142.404 76.6924 141.921 76.8291 141.397 76.8291C140.85 76.8291 140.345 76.6878 139.88 76.4053C139.419 76.1182 139.053 75.724 138.779 75.2227C138.506 74.7168 138.369 74.154 138.369 73.5342C138.369 72.9144 138.506 72.3561 138.779 71.8594C139.053 71.3581 139.422 70.9661 139.887 70.6836C140.351 70.401 140.857 70.2598 141.404 70.2598C141.933 70.2598 142.418 70.3965 142.86 70.6699C143.302 70.9388 143.628 71.2988 143.838 71.75L143.851 70.3828H144.754ZM141.575 76.0156C141.994 76.0156 142.382 75.9017 142.737 75.6738C143.093 75.446 143.373 75.1429 143.578 74.7646C143.788 74.3818 143.892 73.9717 143.892 73.5342C143.892 73.0967 143.79 72.6888 143.585 72.3105C143.38 71.9277 143.099 71.6224 142.744 71.3945C142.388 71.1667 141.999 71.0527 141.575 71.0527C141.156 71.0527 140.771 71.1621 140.42 71.3809C140.069 71.5951 139.791 71.8913 139.586 72.2695C139.381 72.6478 139.278 73.0693 139.278 73.5342C139.278 73.9945 139.381 74.416 139.586 74.7988C139.795 75.1771 140.076 75.4756 140.427 75.6943C140.777 75.9085 141.16 76.0156 141.575 76.0156ZM147.536 70.3828H148.452V77H147.536V70.3828ZM148.001 68.6328C147.814 68.6328 147.652 68.5645 147.515 68.4277C147.383 68.291 147.317 68.1292 147.317 67.9424C147.317 67.751 147.383 67.5892 147.515 67.457C147.652 67.3249 147.814 67.2588 148.001 67.2588C148.187 67.2588 148.347 67.3249 148.479 67.457C148.616 67.5892 148.684 67.751 148.684 67.9424C148.684 68.1292 148.616 68.291 148.479 68.4277C148.347 68.5645 148.187 68.6328 148.001 68.6328ZM154.077 70.2598C154.51 70.2598 154.893 70.3486 155.226 70.5264C155.563 70.6995 155.827 70.9593 156.019 71.3057C156.21 71.6475 156.306 72.0622 156.306 72.5498V77H155.383V72.7549C155.383 72.1807 155.239 71.7546 154.952 71.4766C154.665 71.194 154.298 71.0527 153.852 71.0527C153.524 71.0527 153.232 71.1234 152.977 71.2646C152.722 71.4059 152.519 71.6178 152.368 71.9004C152.223 72.1829 152.15 72.527 152.15 72.9326V77H151.234V70.3828H152.15V71.2783C152.355 70.9502 152.621 70.6995 152.949 70.5264C153.282 70.3486 153.658 70.2598 154.077 70.2598ZM165.213 67.293C164.962 67.293 164.75 67.3226 164.577 67.3818C164.404 67.4365 164.256 67.5732 164.133 67.792C164.009 68.0107 163.948 68.3457 163.948 68.7969V70.3828H165.527V71.1348H163.948V77H163.039V71.1348H161.767V70.3828H163.039V68.7559C163.039 68.1406 163.134 67.6689 163.326 67.3408C163.522 67.0081 163.772 66.7848 164.078 66.6709C164.388 66.557 164.75 66.5 165.165 66.5H165.527V67.293H165.213ZM169.868 77.1299C169.261 77.1299 168.712 76.9886 168.22 76.7061C167.728 76.4189 167.338 76.0156 167.051 75.4961C166.769 74.972 166.627 74.3682 166.627 73.6846C166.627 73.001 166.769 72.4017 167.051 71.8867C167.334 71.3672 167.721 70.9661 168.213 70.6836C168.705 70.401 169.257 70.2598 169.868 70.2598C170.474 70.2598 171.021 70.401 171.508 70.6836C172 70.9661 172.385 71.3672 172.663 71.8867C172.946 72.4017 173.087 73.001 173.087 73.6846C173.087 74.3727 172.946 74.9788 172.663 75.5029C172.385 76.0225 172 76.4235 171.508 76.7061C171.021 76.9886 170.474 77.1299 169.868 77.1299ZM169.861 76.3369C170.294 76.3369 170.686 76.2275 171.037 76.0088C171.392 75.79 171.672 75.4801 171.877 75.0791C172.082 74.6781 172.185 74.2132 172.185 73.6846C172.185 73.1605 172.082 72.7002 171.877 72.3037C171.672 71.9027 171.392 71.5951 171.037 71.3809C170.686 71.1621 170.294 71.0527 169.861 71.0527C169.428 71.0527 169.036 71.1621 168.685 71.3809C168.334 71.5951 168.056 71.9027 167.851 72.3037C167.65 72.7002 167.55 73.1605 167.55 73.6846C167.55 74.2132 167.65 74.6781 167.851 75.0791C168.056 75.4801 168.334 75.79 168.685 76.0088C169.036 76.2275 169.428 76.3369 169.861 76.3369ZM176.238 71.5996C176.402 71.2077 176.671 70.8978 177.045 70.6699C177.419 70.4421 177.84 70.3236 178.31 70.3145V71.2168C177.658 71.2168 177.15 71.39 176.785 71.7363C176.425 72.0827 176.245 72.6227 176.245 73.3564V77H175.336V70.3828H176.238V71.5996ZM186.424 70.2598C186.82 70.2598 187.173 70.3441 187.483 70.5127C187.793 70.6768 188.035 70.9229 188.208 71.251C188.386 71.5745 188.474 71.9619 188.474 72.4131V77H187.552V72.6387C187.552 72.2878 187.49 71.9938 187.367 71.7568C187.249 71.5199 187.084 71.3444 186.875 71.2305C186.67 71.112 186.442 71.0527 186.191 71.0527C185.754 71.0527 185.403 71.2008 185.139 71.4971C184.874 71.7887 184.742 72.2171 184.742 72.7822V77H183.806V72.7002C183.806 72.1579 183.673 71.7477 183.409 71.4697C183.149 71.1917 182.817 71.0527 182.411 71.0527C181.983 71.0527 181.634 71.2031 181.365 71.5039C181.096 71.8001 180.962 72.2331 180.962 72.8027V77H180.046V70.3828H180.962V71.2852C181.144 70.957 181.386 70.7041 181.686 70.5264C181.992 70.3486 182.34 70.2598 182.732 70.2598C183.142 70.2598 183.505 70.3577 183.819 70.5537C184.138 70.7451 184.377 71.0208 184.537 71.3809C184.724 71.0208 184.979 70.7451 185.303 70.5537C185.631 70.3577 186.004 70.2598 186.424 70.2598ZM197.579 77.1299C196.973 77.1299 196.424 76.9886 195.932 76.7061C195.44 76.4189 195.05 76.0156 194.763 75.4961C194.48 74.972 194.339 74.3682 194.339 73.6846C194.339 73.001 194.48 72.4017 194.763 71.8867C195.046 71.3672 195.433 70.9661 195.925 70.6836C196.417 70.401 196.969 70.2598 197.579 70.2598C198.185 70.2598 198.732 70.401 199.22 70.6836C199.712 70.9661 200.097 71.3672 200.375 71.8867C200.658 72.4017 200.799 73.001 200.799 73.6846C200.799 74.3727 200.658 74.9788 200.375 75.5029C200.097 76.0225 199.712 76.4235 199.22 76.7061C198.732 76.9886 198.185 77.1299 197.579 77.1299ZM197.573 76.3369C198.005 76.3369 198.397 76.2275 198.748 76.0088C199.104 75.79 199.384 75.4801 199.589 75.0791C199.794 74.6781 199.897 74.2132 199.897 73.6846C199.897 73.1605 199.794 72.7002 199.589 72.3037C199.384 71.9027 199.104 71.5951 198.748 71.3809C198.397 71.1621 198.005 71.0527 197.573 71.0527C197.14 71.0527 196.748 71.1621 196.397 71.3809C196.046 71.5951 195.768 71.9027 195.563 72.3037C195.362 72.7002 195.262 73.1605 195.262 73.6846C195.262 74.2132 195.362 74.6781 195.563 75.0791C195.768 75.4801 196.046 75.79 196.397 76.0088C196.748 76.2275 197.14 76.3369 197.573 76.3369ZM203.95 71.5996C204.114 71.2077 204.383 70.8978 204.757 70.6699C205.131 70.4421 205.552 70.3236 206.021 70.3145V71.2168C205.37 71.2168 204.862 71.39 204.497 71.7363C204.137 72.0827 203.957 72.6227 203.957 73.3564V77H203.048V70.3828H203.95V71.5996ZM213.513 77.1299C213.057 77.1299 212.647 77.0592 212.283 76.918C211.918 76.7721 211.62 76.5625 211.387 76.2891C211.155 76.0111 211.007 75.6784 210.943 75.291L211.763 75.0518C211.827 75.4665 212.014 75.7946 212.324 76.0361C212.638 76.2731 213.03 76.3916 213.499 76.3916C213.9 76.3916 214.242 76.3027 214.525 76.125C214.812 75.9473 214.956 75.667 214.956 75.2842C214.956 75.029 214.887 74.8239 214.75 74.6689C214.618 74.514 214.443 74.3932 214.224 74.3066C214.005 74.2155 213.689 74.1107 213.274 73.9922L213.055 73.9307C212.65 73.8167 212.315 73.6982 212.05 73.5752C211.79 73.4476 211.572 73.2653 211.394 73.0283C211.221 72.7913 211.134 72.4814 211.134 72.0986C211.134 71.693 211.234 71.3535 211.435 71.0801C211.636 70.8021 211.904 70.597 212.242 70.4648C212.583 70.3327 212.962 70.2666 213.376 70.2666C213.996 70.2666 214.52 70.4124 214.949 70.7041C215.377 70.9958 215.635 71.4242 215.721 71.9893L214.935 72.2012C214.871 71.8001 214.696 71.4971 214.409 71.292C214.122 71.0824 213.782 70.9775 213.39 70.9775C213.016 70.9775 212.693 71.0664 212.419 71.2441C212.146 71.4219 212.009 71.693 212.009 72.0576C212.009 72.3083 212.08 72.5088 212.221 72.6592C212.367 72.8096 212.545 72.9235 212.754 73.001C212.969 73.0785 213.269 73.1673 213.657 73.2676C214.112 73.3815 214.488 73.5023 214.785 73.6299C215.085 73.7529 215.338 73.9421 215.543 74.1973C215.748 74.4525 215.851 74.7943 215.851 75.2227C215.851 75.6556 215.744 76.0156 215.53 76.3027C215.32 76.5853 215.04 76.7949 214.689 76.9316C214.338 77.0638 213.946 77.1299 213.513 77.1299ZM223.767 73.8213H218.503C218.512 74.3636 218.619 74.8239 218.824 75.2021C219.034 75.5804 219.31 75.8652 219.652 76.0566C219.998 76.2435 220.381 76.3369 220.8 76.3369C221.228 76.3369 221.62 76.2207 221.976 75.9883C222.336 75.7559 222.614 75.4391 222.81 75.0381L223.63 75.25C223.379 75.8288 223.003 76.2868 222.502 76.624C222.001 76.9613 221.438 77.1299 220.814 77.1299C220.198 77.1299 219.647 76.9932 219.159 76.7197C218.676 76.4417 218.296 76.0452 218.018 75.5303C217.744 75.0107 217.608 74.3978 217.608 73.6914C217.608 72.9896 217.744 72.3789 218.018 71.8594C218.296 71.3398 218.676 70.9434 219.159 70.6699C219.642 70.3919 220.187 70.2529 220.793 70.2529C221.381 70.2529 221.898 70.3783 222.345 70.6289C222.796 70.8796 223.147 71.251 223.398 71.7432C223.653 72.2354 223.78 72.8346 223.78 73.541L223.767 73.8213ZM220.793 70.998C220.196 70.998 219.693 71.1781 219.282 71.5381C218.877 71.8936 218.628 72.4062 218.537 73.0762H222.851C222.81 72.3971 222.605 71.8822 222.236 71.5312C221.866 71.1758 221.386 70.998 220.793 70.998ZM228.695 77.1162C228.089 77.1162 227.54 76.9749 227.048 76.6924C226.56 76.4053 226.175 76.002 225.892 75.4824C225.614 74.9583 225.475 74.359 225.475 73.6846C225.475 73.0101 225.614 72.4131 225.892 71.8936C226.175 71.374 226.56 70.973 227.048 70.6904C227.54 70.4033 228.089 70.2598 228.695 70.2598C229.392 70.2598 230.003 70.4466 230.527 70.8203C231.056 71.1895 231.43 71.6999 231.648 72.3516L230.78 72.5293C230.607 72.0645 230.334 71.7021 229.96 71.4424C229.591 71.1826 229.169 71.0527 228.695 71.0527C228.262 71.0527 227.87 71.1621 227.519 71.3809C227.173 71.5951 226.9 71.9027 226.699 72.3037C226.499 72.7002 226.398 73.1605 226.398 73.6846C226.398 74.2087 226.499 74.6712 226.699 75.0723C226.9 75.4688 227.175 75.7764 227.526 75.9951C227.877 76.2139 228.267 76.3232 228.695 76.3232C229.169 76.3232 229.591 76.1934 229.96 75.9336C230.334 75.6738 230.607 75.3115 230.78 74.8467L231.648 75.0176C231.502 75.4505 231.286 75.8265 230.999 76.1455C230.712 76.46 230.37 76.7015 229.974 76.8701C229.582 77.0342 229.155 77.1162 228.695 77.1162ZM238.716 70.3828V77H237.828L237.814 76.0908C237.609 76.4235 237.34 76.681 237.007 76.8633C236.675 77.041 236.296 77.1299 235.873 77.1299C235.44 77.1299 235.055 77.0433 234.717 76.8701C234.385 76.6924 234.123 76.4326 233.931 76.0908C233.74 75.7445 233.644 75.3275 233.644 74.8398V70.3828H234.567V74.6279C234.567 75.1976 234.711 75.6237 234.998 75.9062C235.289 76.1888 235.658 76.3301 236.105 76.3301C236.429 76.3301 236.718 76.2594 236.973 76.1182C237.228 75.9769 237.429 75.7673 237.575 75.4893C237.725 75.2067 237.8 74.8626 237.8 74.457V70.3828H238.716ZM242.408 71.5996C242.572 71.2077 242.84 70.8978 243.214 70.6699C243.588 70.4421 244.009 70.3236 244.479 70.3145V71.2168C243.827 71.2168 243.319 71.39 242.954 71.7363C242.594 72.0827 242.414 72.6227 242.414 73.3564V77H241.505V70.3828H242.408V71.5996ZM251.738 73.8213H246.475C246.484 74.3636 246.591 74.8239 246.796 75.2021C247.006 75.5804 247.281 75.8652 247.623 76.0566C247.969 76.2435 248.352 76.3369 248.772 76.3369C249.2 76.3369 249.592 76.2207 249.947 75.9883C250.307 75.7559 250.585 75.4391 250.781 75.0381L251.602 75.25C251.351 75.8288 250.975 76.2868 250.474 76.624C249.972 76.9613 249.41 77.1299 248.785 77.1299C248.17 77.1299 247.619 76.9932 247.131 76.7197C246.648 76.4417 246.267 76.0452 245.989 75.5303C245.716 75.0107 245.579 74.3978 245.579 73.6914C245.579 72.9896 245.716 72.3789 245.989 71.8594C246.267 71.3398 246.648 70.9434 247.131 70.6699C247.614 70.3919 248.159 70.2529 248.765 70.2529C249.353 70.2529 249.87 70.3783 250.316 70.6289C250.768 70.8796 251.119 71.251 251.369 71.7432C251.624 72.2354 251.752 72.8346 251.752 73.541L251.738 73.8213ZM248.765 70.998C248.168 70.998 247.664 71.1781 247.254 71.5381C246.848 71.8936 246.6 72.4062 246.509 73.0762H250.822C250.781 72.3971 250.576 71.8822 250.207 71.5312C249.838 71.1758 249.357 70.998 248.765 70.998ZM263.625 70.3828V77H262.723L262.709 75.5781C262.477 76.0521 262.144 76.4303 261.711 76.7129C261.278 76.9954 260.798 77.1367 260.269 77.1367C259.708 77.1367 259.194 76.9932 258.724 76.7061C258.259 76.4144 257.89 76.0088 257.617 75.4893C257.343 74.9652 257.207 74.3659 257.207 73.6914C257.207 73.0215 257.343 72.4268 257.617 71.9072C257.895 71.3831 258.266 70.9775 258.731 70.6904C259.2 70.4033 259.713 70.2598 260.269 70.2598C260.798 70.2598 261.278 70.3988 261.711 70.6768C262.144 70.9548 262.475 71.3262 262.703 71.791V70.3828H263.625ZM260.447 76.3164C260.875 76.3164 261.265 76.2002 261.616 75.9678C261.967 75.7354 262.245 75.4186 262.45 75.0176C262.655 74.6165 262.757 74.1745 262.757 73.6914C262.757 73.2083 262.655 72.7663 262.45 72.3652C262.245 71.9642 261.964 71.6475 261.609 71.415C261.258 71.1826 260.871 71.0664 260.447 71.0664C260.018 71.0664 259.626 71.1781 259.271 71.4014C258.92 71.6201 258.64 71.93 258.43 72.3311C258.225 72.7275 258.123 73.181 258.123 73.6914C258.123 74.2018 258.225 74.6576 258.43 75.0586C258.64 75.4551 258.92 75.765 259.271 75.9883C259.626 76.207 260.018 76.3164 260.447 76.3164ZM275.226 70.3828L272.58 77H271.814L269.169 70.3828H270.153L272.197 75.8994L274.241 70.3828H275.226ZM281.979 70.3828V77H281.09L281.077 76.0908C280.872 76.4235 280.603 76.681 280.27 76.8633C279.937 77.041 279.559 77.1299 279.135 77.1299C278.702 77.1299 278.317 77.0433 277.98 76.8701C277.647 76.6924 277.385 76.4326 277.194 76.0908C277.003 75.7445 276.907 75.3275 276.907 74.8398V70.3828H277.83V74.6279C277.83 75.1976 277.973 75.6237 278.26 75.9062C278.552 76.1888 278.921 76.3301 279.368 76.3301C279.691 76.3301 279.981 76.2594 280.236 76.1182C280.491 75.9769 280.692 75.7673 280.838 75.4893C280.988 75.2067 281.063 74.8626 281.063 74.457V70.3828H281.979ZM284.768 66.5H285.691V77H284.768V66.5ZM291.31 70.2598C291.743 70.2598 292.125 70.3486 292.458 70.5264C292.795 70.6995 293.06 70.9593 293.251 71.3057C293.442 71.6475 293.538 72.0622 293.538 72.5498V77H292.615V72.7549C292.615 72.1807 292.472 71.7546 292.185 71.4766C291.898 71.194 291.531 71.0527 291.084 71.0527C290.756 71.0527 290.464 71.1234 290.209 71.2646C289.954 71.4059 289.751 71.6178 289.601 71.9004C289.455 72.1829 289.382 72.527 289.382 72.9326V77H288.466V70.3828H289.382V71.2783C289.587 70.9502 289.854 70.6995 290.182 70.5264C290.514 70.3486 290.89 70.2598 291.31 70.2598ZM301.83 73.8213H296.566C296.575 74.3636 296.682 74.8239 296.888 75.2021C297.097 75.5804 297.373 75.8652 297.715 76.0566C298.061 76.2435 298.444 76.3369 298.863 76.3369C299.291 76.3369 299.683 76.2207 300.039 75.9883C300.399 75.7559 300.677 75.4391 300.873 75.0381L301.693 75.25C301.443 75.8288 301.067 76.2868 300.565 76.624C300.064 76.9613 299.501 77.1299 298.877 77.1299C298.262 77.1299 297.71 76.9932 297.222 76.7197C296.739 76.4417 296.359 76.0452 296.081 75.5303C295.807 75.0107 295.671 74.3978 295.671 73.6914C295.671 72.9896 295.807 72.3789 296.081 71.8594C296.359 71.3398 296.739 70.9434 297.222 70.6699C297.706 70.3919 298.25 70.2529 298.856 70.2529C299.444 70.2529 299.961 70.3783 300.408 70.6289C300.859 70.8796 301.21 71.251 301.461 71.7432C301.716 72.2354 301.844 72.8346 301.844 73.541L301.83 73.8213ZM298.856 70.998C298.259 70.998 297.756 71.1781 297.346 71.5381C296.94 71.8936 296.692 72.4062 296.6 73.0762H300.914C300.873 72.3971 300.668 71.8822 300.299 71.5312C299.93 71.1758 299.449 70.998 298.856 70.998ZM304.995 71.5996C305.159 71.2077 305.428 70.8978 305.801 70.6699C306.175 70.4421 306.597 70.3236 307.066 70.3145V71.2168C306.414 71.2168 305.906 71.39 305.542 71.7363C305.182 72.0827 305.001 72.6227 305.001 73.3564V77H304.092V70.3828H304.995V71.5996ZM314.578 70.3828V77H313.676L313.662 75.5781C313.43 76.0521 313.097 76.4303 312.664 76.7129C312.231 76.9954 311.751 77.1367 311.222 77.1367C310.661 77.1367 310.146 76.9932 309.677 76.7061C309.212 76.4144 308.843 76.0088 308.57 75.4893C308.296 74.9652 308.159 74.3659 308.159 73.6914C308.159 73.0215 308.296 72.4268 308.57 71.9072C308.848 71.3831 309.219 70.9775 309.684 70.6904C310.153 70.4033 310.666 70.2598 311.222 70.2598C311.751 70.2598 312.231 70.3988 312.664 70.6768C313.097 70.9548 313.428 71.3262 313.656 71.791V70.3828H314.578ZM311.4 76.3164C311.828 76.3164 312.218 76.2002 312.569 75.9678C312.92 75.7354 313.198 75.4186 313.403 75.0176C313.608 74.6165 313.71 74.1745 313.71 73.6914C313.71 73.2083 313.608 72.7663 313.403 72.3652C313.198 71.9642 312.917 71.6475 312.562 71.415C312.211 71.1826 311.823 71.0664 311.4 71.0664C310.971 71.0664 310.579 71.1781 310.224 71.4014C309.873 71.6201 309.593 71.93 309.383 72.3311C309.178 72.7275 309.075 73.181 309.075 73.6914C309.075 74.2018 309.178 74.6576 309.383 75.0586C309.593 75.4551 309.873 75.765 310.224 75.9883C310.579 76.207 310.971 76.3164 311.4 76.3164ZM320.717 70.2598C321.273 70.2598 321.783 70.4033 322.248 70.6904C322.713 70.9775 323.082 71.3831 323.355 71.9072C323.629 72.4268 323.766 73.0215 323.766 73.6914C323.766 74.3659 323.629 74.9652 323.355 75.4893C323.087 76.0088 322.72 76.4144 322.255 76.7061C321.79 76.9932 321.277 77.1367 320.717 77.1367C320.156 77.1367 319.662 77.0046 319.233 76.7402C318.805 76.4759 318.481 76.0908 318.263 75.585L318.249 77H317.353V66.5H318.27V71.7773C318.488 71.2852 318.812 70.9092 319.24 70.6494C319.669 70.3896 320.161 70.2598 320.717 70.2598ZM320.525 76.3164C320.954 76.3164 321.343 76.207 321.694 75.9883C322.05 75.765 322.33 75.4551 322.535 75.0586C322.745 74.6576 322.85 74.2018 322.85 73.6914C322.85 73.181 322.745 72.7275 322.535 72.3311C322.33 71.93 322.05 71.6201 321.694 71.4014C321.343 71.1781 320.954 71.0664 320.525 71.0664C320.097 71.0664 319.707 71.1758 319.356 71.3945C319.006 71.6087 318.728 71.9163 318.522 72.3174C318.317 72.7139 318.215 73.1719 318.215 73.6914C318.215 74.2109 318.315 74.6712 318.516 75.0723C318.721 75.4688 318.999 75.7764 319.35 75.9951C319.7 76.2093 320.092 76.3164 320.525 76.3164ZM326.014 66.5H326.937V77H326.014V66.5ZM335.345 73.8213H330.081C330.091 74.3636 330.198 74.8239 330.403 75.2021C330.612 75.5804 330.888 75.8652 331.23 76.0566C331.576 76.2435 331.959 76.3369 332.378 76.3369C332.807 76.3369 333.199 76.2207 333.554 75.9883C333.914 75.7559 334.192 75.4391 334.388 75.0381L335.208 75.25C334.958 75.8288 334.582 76.2868 334.08 76.624C333.579 76.9613 333.016 77.1299 332.392 77.1299C331.777 77.1299 331.225 76.9932 330.738 76.7197C330.255 76.4417 329.874 76.0452 329.596 75.5303C329.323 75.0107 329.186 74.3978 329.186 73.6914C329.186 72.9896 329.323 72.3789 329.596 71.8594C329.874 71.3398 330.255 70.9434 330.738 70.6699C331.221 70.3919 331.765 70.2529 332.371 70.2529C332.959 70.2529 333.477 70.3783 333.923 70.6289C334.374 70.8796 334.725 71.251 334.976 71.7432C335.231 72.2354 335.359 72.8346 335.359 73.541L335.345 73.8213ZM332.371 70.998C331.774 70.998 331.271 71.1781 330.861 71.5381C330.455 71.8936 330.207 72.4062 330.116 73.0762H334.429C334.388 72.3971 334.183 71.8822 333.814 71.5312C333.445 71.1758 332.964 70.998 332.371 70.998ZM341.661 67.4639H342.604V77H341.661V67.4639ZM348.278 77.1299C347.672 77.1299 347.123 76.9886 346.63 76.7061C346.138 76.4189 345.749 76.0156 345.461 75.4961C345.179 74.972 345.038 74.3682 345.038 73.6846C345.038 73.001 345.179 72.4017 345.461 71.8867C345.744 71.3672 346.131 70.9661 346.624 70.6836C347.116 70.401 347.667 70.2598 348.278 70.2598C348.884 70.2598 349.431 70.401 349.919 70.6836C350.411 70.9661 350.796 71.3672 351.074 71.8867C351.356 72.4017 351.498 73.001 351.498 73.6846C351.498 74.3727 351.356 74.9788 351.074 75.5029C350.796 76.0225 350.411 76.4235 349.919 76.7061C349.431 76.9886 348.884 77.1299 348.278 77.1299ZM348.271 76.3369C348.704 76.3369 349.096 76.2275 349.447 76.0088C349.802 75.79 350.083 75.4801 350.288 75.0791C350.493 74.6781 350.595 74.2132 350.595 73.6846C350.595 73.1605 350.493 72.7002 350.288 72.3037C350.083 71.9027 349.802 71.5951 349.447 71.3809C349.096 71.1621 348.704 71.0527 348.271 71.0527C347.838 71.0527 347.446 71.1621 347.095 71.3809C346.744 71.5951 346.466 71.9027 346.261 72.3037C346.061 72.7002 345.961 73.1605 345.961 73.6846C345.961 74.2132 346.061 74.6781 346.261 75.0791C346.466 75.4801 346.744 75.79 347.095 76.0088C347.446 76.2275 347.838 76.3369 348.271 76.3369ZM357.492 68.3389H354.984V77H354.04V68.3389H351.532V67.4639H357.492V68.3389ZM369.092 66.5V77H368.19L368.176 75.5986C367.953 76.0999 367.627 76.4827 367.199 76.7471C366.771 77.0068 366.278 77.1367 365.722 77.1367C365.162 77.1367 364.649 76.9932 364.184 76.7061C363.719 76.4144 363.35 76.0088 363.077 75.4893C362.808 74.9652 362.674 74.3659 362.674 73.6914C362.674 73.0215 362.81 72.4268 363.084 71.9072C363.357 71.3831 363.726 70.9775 364.191 70.6904C364.656 70.4033 365.166 70.2598 365.722 70.2598C366.278 70.2598 366.768 70.3896 367.192 70.6494C367.62 70.9046 367.946 71.2783 368.17 71.7705L368.183 66.5H369.092ZM365.914 76.3164C366.347 76.3164 366.739 76.2093 367.09 75.9951C367.44 75.7764 367.716 75.4688 367.917 75.0723C368.122 74.6712 368.224 74.2109 368.224 73.6914C368.224 73.1719 368.122 72.7139 367.917 72.3174C367.712 71.9163 367.434 71.6087 367.083 71.3945C366.732 71.1758 366.342 71.0664 365.914 71.0664C365.485 71.0664 365.093 71.1781 364.738 71.4014C364.387 71.6201 364.107 71.93 363.897 72.3311C363.692 72.7275 363.59 73.181 363.59 73.6914C363.59 74.2018 363.692 74.6576 363.897 75.0586C364.107 75.4551 364.387 75.765 364.738 75.9883C365.093 76.207 365.485 76.3164 365.914 76.3164ZM377.5 73.8213H372.237C372.246 74.3636 372.353 74.8239 372.558 75.2021C372.768 75.5804 373.043 75.8652 373.385 76.0566C373.732 76.2435 374.114 76.3369 374.534 76.3369C374.962 76.3369 375.354 76.2207 375.709 75.9883C376.069 75.7559 376.347 75.4391 376.543 75.0381L377.364 75.25C377.113 75.8288 376.737 76.2868 376.236 76.624C375.734 76.9613 375.172 77.1299 374.547 77.1299C373.932 77.1299 373.381 76.9932 372.893 76.7197C372.41 76.4417 372.029 76.0452 371.751 75.5303C371.478 75.0107 371.341 74.3978 371.341 73.6914C371.341 72.9896 371.478 72.3789 371.751 71.8594C372.029 71.3398 372.41 70.9434 372.893 70.6699C373.376 70.3919 373.921 70.2529 374.527 70.2529C375.115 70.2529 375.632 70.3783 376.079 70.6289C376.53 70.8796 376.881 71.251 377.131 71.7432C377.386 72.2354 377.514 72.8346 377.514 73.541L377.5 73.8213ZM374.527 70.998C373.93 70.998 373.426 71.1781 373.016 71.5381C372.61 71.8936 372.362 72.4062 372.271 73.0762H376.584C376.543 72.3971 376.338 71.8822 375.969 71.5312C375.6 71.1758 375.119 70.998 374.527 70.998ZM384.849 70.3828L382.203 77H381.438L378.792 70.3828H379.777L381.82 75.8994L383.864 70.3828H384.849ZM386.66 70.3828H387.576V77H386.66V70.3828ZM387.125 68.6328C386.938 68.6328 386.776 68.5645 386.64 68.4277C386.507 68.291 386.441 68.1292 386.441 67.9424C386.441 67.751 386.507 67.5892 386.64 67.457C386.776 67.3249 386.938 67.2588 387.125 67.2588C387.312 67.2588 387.471 67.3249 387.603 67.457C387.74 67.5892 387.808 67.751 387.808 67.9424C387.808 68.1292 387.74 68.291 387.603 68.4277C387.471 68.5645 387.312 68.6328 387.125 68.6328ZM393.024 77.1162C392.418 77.1162 391.869 76.9749 391.377 76.6924C390.889 76.4053 390.504 76.002 390.221 75.4824C389.943 74.9583 389.804 74.359 389.804 73.6846C389.804 73.0101 389.943 72.4131 390.221 71.8936C390.504 71.374 390.889 70.973 391.377 70.6904C391.869 70.4033 392.418 70.2598 393.024 70.2598C393.721 70.2598 394.332 70.4466 394.856 70.8203C395.385 71.1895 395.758 71.6999 395.977 72.3516L395.109 72.5293C394.936 72.0645 394.662 71.7021 394.289 71.4424C393.92 71.1826 393.498 71.0527 393.024 71.0527C392.591 71.0527 392.199 71.1621 391.848 71.3809C391.502 71.5951 391.228 71.9027 391.028 72.3037C390.827 72.7002 390.727 73.1605 390.727 73.6846C390.727 74.2087 390.827 74.6712 391.028 75.0723C391.228 75.4688 391.504 75.7764 391.855 75.9951C392.206 76.2139 392.596 76.3232 393.024 76.3232C393.498 76.3232 393.92 76.1934 394.289 75.9336C394.662 75.6738 394.936 75.3115 395.109 74.8467L395.977 75.0176C395.831 75.4505 395.615 75.8265 395.328 76.1455C395.041 76.46 394.699 76.7015 394.302 76.8701C393.91 77.0342 393.484 77.1162 393.024 77.1162ZM403.736 73.8213H398.472C398.481 74.3636 398.588 74.8239 398.793 75.2021C399.003 75.5804 399.279 75.8652 399.62 76.0566C399.967 76.2435 400.35 76.3369 400.769 76.3369C401.197 76.3369 401.589 76.2207 401.945 75.9883C402.305 75.7559 402.583 75.4391 402.779 75.0381L403.599 75.25C403.348 75.8288 402.972 76.2868 402.471 76.624C401.97 76.9613 401.407 77.1299 400.783 77.1299C400.167 77.1299 399.616 76.9932 399.128 76.7197C398.645 76.4417 398.265 76.0452 397.987 75.5303C397.713 75.0107 397.576 74.3978 397.576 73.6914C397.576 72.9896 397.713 72.3789 397.987 71.8594C398.265 71.3398 398.645 70.9434 399.128 70.6699C399.611 70.3919 400.156 70.2529 400.762 70.2529C401.35 70.2529 401.867 70.3783 402.314 70.6289C402.765 70.8796 403.116 71.251 403.367 71.7432C403.622 72.2354 403.749 72.8346 403.749 73.541L403.736 73.8213ZM400.762 70.998C400.165 70.998 399.661 71.1781 399.251 71.5381C398.846 71.8936 398.597 72.4062 398.506 73.0762H402.82C402.779 72.3971 402.574 71.8822 402.204 71.5312C401.835 71.1758 401.354 70.998 400.762 70.998ZM406.593 77.1367C406.406 77.1367 406.244 77.0706 406.107 76.9385C405.975 76.8063 405.909 76.6445 405.909 76.4531C405.909 76.2663 405.978 76.1068 406.114 75.9746C406.251 75.8379 406.411 75.7695 406.593 75.7695C406.78 75.7695 406.941 75.8379 407.078 75.9746C407.215 76.1113 407.283 76.2708 407.283 76.4531C407.283 76.6445 407.215 76.8063 407.078 76.9385C406.941 77.0706 406.78 77.1367 406.593 77.1367Z" fill="#FDFAF5"/>
<line x1="46" y1="124" x2="91" y2="124" stroke="#FDFAF5" stroke-width="2"/>
<rect x="38" y="152" width="205" height="84" rx="10" fill="#A8A8A8"/>
<line x1="46" y1="132.5" x2="211" y2="132.5" stroke="#FDFAF5"/>
<line x1="46" y1="140.5" x2="192" y2="140.5" stroke="#FDFAF5"/>
<line x1="46" y1="163.75" x2="114" y2="163.75" stroke="#619BF7" stroke-width="2.5"/>
<line x1="46" y1="172.5" x2="74" y2="172.5" stroke="#FDFAF5"/>
<line x1="46" y1="212.5" x2="74" y2="212.5" stroke="#FDFAF5"/>
<line x1="46" y1="180.5" x2="117" y2="180.5" stroke="#FDFAF5"/>
<line x1="46" y1="188" x2="142" y2="188" stroke="#41B383" stroke-width="2"/>
<line x1="46" y1="196.5" x2="86" y2="196.5" stroke="#FDFAF5"/>
<line x1="46" y1="204.5" x2="114" y2="204.5" stroke="#FDFAF5"/>
<line x1="46" y1="257.5" x2="192" y2="257.5" stroke="#FDFAF5"/>
<line x1="46" y1="249.5" x2="230" y2="249.5" stroke="#FDFAF5"/>
<line x1="46" y1="265" x2="119" y2="265" stroke="#FDFAF5" stroke-width="2"/>
<line x1="46" y1="273.5" x2="159" y2="273.5" stroke="#FDFAF5"/>
<line x1="293" y1="213.875" x2="490" y2="213.875" stroke="#F2F2F2" stroke-width="0.25"/>
<line x1="293" y1="228.875" x2="490" y2="228.875" stroke="#F2F2F2" stroke-width="0.25"/>
<rect x="301" y="111" width="180" height="16" rx="5" fill="#A8A8A8"/>
<line x1="293.125" y1="93" x2="293.125" y2="300" stroke="#F2F2F2" stroke-width="0.25"/>
<line x1="311" y1="117.5" x2="367" y2="117.5" stroke="#FFBABA" stroke-width="3"/>
<line x1="386" y1="118.5" x2="410" y2="118.5" stroke="#FDFAF5"/>
<path d="M118.895 167.953C118.678 167.953 118.49 167.909 118.328 167.82C118.167 167.734 118.043 167.616 117.957 167.465C117.871 167.314 117.828 167.143 117.828 166.953V165.312C117.828 165.065 117.812 164.879 117.781 164.754C117.753 164.626 117.697 164.526 117.613 164.453C117.533 164.38 117.404 164.309 117.227 164.238V163.715C117.404 163.647 117.533 163.577 117.613 163.504C117.697 163.428 117.753 163.327 117.781 163.199C117.812 163.072 117.828 162.884 117.828 162.637V161.004C117.828 160.814 117.871 160.643 117.957 160.492C118.043 160.339 118.167 160.219 118.328 160.133C118.49 160.044 118.678 160 118.895 160H119.312V160.629H119.062C118.935 160.629 118.835 160.673 118.762 160.762C118.691 160.848 118.656 160.974 118.656 161.141V162.672C118.656 162.904 118.635 163.098 118.594 163.254C118.555 163.41 118.474 163.549 118.352 163.672C118.229 163.794 118.049 163.896 117.812 163.977C118.049 164.055 118.229 164.156 118.352 164.281C118.474 164.404 118.555 164.544 118.594 164.703C118.635 164.859 118.656 165.052 118.656 165.281V166.824C118.656 166.996 118.689 167.121 118.754 167.199C118.819 167.28 118.922 167.32 119.062 167.32H119.312V167.953H118.895Z" fill="#FDFAF5"/>
<path d="M149.055 192.91C148.714 192.676 148.418 192.349 148.168 191.93C147.918 191.513 147.725 191.025 147.59 190.465C147.457 189.902 147.391 189.293 147.391 188.637C147.391 187.983 147.457 187.375 147.59 186.812C147.725 186.25 147.918 185.759 148.168 185.34C148.418 184.921 148.714 184.594 149.055 184.359L149.555 184.965C149.284 185.142 149.046 185.409 148.84 185.766C148.637 186.12 148.479 186.543 148.367 187.035C148.255 187.527 148.199 188.061 148.199 188.637C148.199 189.215 148.255 189.75 148.367 190.242C148.479 190.732 148.637 191.152 148.84 191.504C149.043 191.858 149.281 192.125 149.555 192.305L149.055 192.91ZM152.121 192.305C152.394 192.125 152.633 191.858 152.836 191.504C153.039 191.152 153.196 190.732 153.308 190.242C153.42 189.75 153.476 189.215 153.476 188.637C153.476 188.061 153.42 187.527 153.308 187.035C153.196 186.543 153.037 186.12 152.832 185.766C152.629 185.409 152.392 185.142 152.121 184.965L152.621 184.359C152.962 184.594 153.258 184.921 153.508 185.34C153.758 185.759 153.949 186.25 154.082 186.812C154.217 187.375 154.285 187.983 154.285 188.637C154.285 189.293 154.217 189.902 154.082 190.465C153.949 191.025 153.758 191.513 153.508 191.93C153.258 192.349 152.962 192.676 152.621 192.91L152.121 192.305ZM158.816 192.953C158.6 192.953 158.411 192.909 158.249 192.82C158.088 192.734 157.964 192.616 157.878 192.465C157.792 192.314 157.749 192.143 157.749 191.953V190.312C157.749 190.065 157.734 189.879 157.703 189.754C157.674 189.626 157.618 189.526 157.535 189.453C157.454 189.38 157.325 189.309 157.148 189.238V188.715C157.325 188.647 157.454 188.577 157.535 188.504C157.618 188.428 157.674 188.327 157.703 188.199C157.734 188.072 157.749 187.884 157.749 187.637V186.004C157.749 185.814 157.792 185.643 157.878 185.492C157.964 185.339 158.088 185.219 158.249 185.133C158.411 185.044 158.6 185 158.816 185H159.234V185.629H158.984C158.856 185.629 158.756 185.673 158.683 185.762C158.613 185.848 158.578 185.974 158.578 186.141V187.672C158.578 187.904 158.557 188.098 158.515 188.254C158.476 188.41 158.395 188.549 158.273 188.672C158.15 188.794 157.971 188.896 157.734 188.977C157.971 189.055 158.15 189.156 158.273 189.281C158.395 189.404 158.476 189.544 158.515 189.703C158.557 189.859 158.578 190.052 158.578 190.281V191.824C158.578 191.996 158.61 192.121 158.675 192.199C158.74 192.28 158.843 192.32 158.984 192.32H159.234V192.953H158.816Z" fill="#FDFAF5"/>
<line x1="310" y1="142.75" x2="378" y2="142.75" stroke="#619BF7" stroke-width="2.5"/>
<line x1="326" y1="151.5" x2="354" y2="151.5" stroke="#FDFAF5"/>
<line x1="326" y1="159.5" x2="397" y2="159.5" stroke="#FDFAF5"/>
<line x1="326" y1="167.5" x2="422" y2="167.5" stroke="#FDFAF5"/>
<line x1="336" y1="175.5" x2="376" y2="175.5" stroke="#FDFAF5"/>
<path d="M383.895 146.953C383.678 146.953 383.49 146.909 383.328 146.82C383.167 146.734 383.043 146.616 382.957 146.465C382.871 146.314 382.828 146.143 382.828 145.953V144.312C382.828 144.065 382.812 143.879 382.781 143.754C382.753 143.626 382.697 143.526 382.613 143.453C382.533 143.38 382.404 143.309 382.227 143.238V142.715C382.404 142.647 382.533 142.577 382.613 142.504C382.697 142.428 382.753 142.327 382.781 142.199C382.812 142.072 382.828 141.884 382.828 141.637V140.004C382.828 139.814 382.871 139.643 382.957 139.492C383.043 139.339 383.167 139.219 383.328 139.133C383.49 139.044 383.678 139 383.895 139H384.312V139.629H384.062C383.935 139.629 383.835 139.673 383.762 139.762C383.691 139.848 383.656 139.974 383.656 140.141V141.672C383.656 141.904 383.635 142.098 383.594 142.254C383.555 142.41 383.474 142.549 383.352 142.672C383.229 142.794 383.049 142.896 382.812 142.977C383.049 143.055 383.229 143.156 383.352 143.281C383.474 143.404 383.555 143.544 383.594 143.703C383.635 143.859 383.656 144.052 383.656 144.281V145.824C383.656 145.996 383.689 146.121 383.754 146.199C383.819 146.28 383.922 146.32 384.062 146.32H384.312V146.953H383.895Z" fill="#FDFAF5"/>
<path d="M382.055 180.91C381.714 180.676 381.418 180.349 381.168 179.93C380.918 179.513 380.725 179.025 380.59 178.465C380.457 177.902 380.391 177.293 380.391 176.637C380.391 175.983 380.457 175.375 380.59 174.812C380.725 174.25 380.918 173.759 381.168 173.34C381.418 172.921 381.714 172.594 382.055 172.359L382.555 172.965C382.284 173.142 382.046 173.409 381.84 173.766C381.637 174.12 381.479 174.543 381.367 175.035C381.255 175.527 381.199 176.061 381.199 176.637C381.199 177.215 381.255 177.75 381.367 178.242C381.479 178.732 381.637 179.152 381.84 179.504C382.043 179.858 382.281 180.125 382.555 180.305L382.055 180.91ZM385.121 180.305C385.394 180.125 385.633 179.858 385.836 179.504C386.039 179.152 386.196 178.732 386.308 178.242C386.42 177.75 386.476 177.215 386.476 176.637C386.476 176.061 386.42 175.527 386.308 175.035C386.196 174.543 386.037 174.12 385.832 173.766C385.629 173.409 385.392 173.142 385.121 172.965L385.621 172.359C385.962 172.594 386.258 172.921 386.508 173.34C386.758 173.759 386.949 174.25 387.082 174.812C387.217 175.375 387.285 175.983 387.285 176.637C387.285 177.293 387.217 177.902 387.082 178.465C386.949 179.025 386.758 179.513 386.508 179.93C386.258 180.349 385.962 180.676 385.621 180.91L385.121 180.305ZM389.21 176.441C389.112 176.441 389.019 176.417 388.933 176.367C388.85 176.318 388.783 176.25 388.734 176.164C388.684 176.078 388.66 175.986 388.66 175.887C388.66 175.79 388.684 175.701 388.734 175.617C388.783 175.534 388.85 175.467 388.933 175.418C389.019 175.366 389.112 175.34 389.21 175.34C389.307 175.34 389.398 175.366 389.484 175.418C389.57 175.467 389.638 175.534 389.687 175.617C389.739 175.701 389.765 175.79 389.765 175.887C389.765 175.986 389.739 176.078 389.687 176.164C389.638 176.25 389.57 176.318 389.484 176.367C389.398 176.417 389.307 176.441 389.21 176.441ZM388.816 177.938H389.746L388.98 180.426H388.332L388.816 177.938Z" fill="#FDFAF5"/>
<path d="M401.055 162.91C400.714 162.676 400.418 162.349 400.168 161.93C399.918 161.513 399.725 161.025 399.59 160.465C399.457 159.902 399.391 159.293 399.391 158.637C399.391 157.983 399.457 157.375 399.59 156.812C399.725 156.25 399.918 155.759 400.168 155.34C400.418 154.921 400.714 154.594 401.055 154.359L401.555 154.965C401.284 155.142 401.046 155.409 400.84 155.766C400.637 156.12 400.479 156.543 400.367 157.035C400.255 157.527 400.199 158.061 400.199 158.637C400.199 159.215 400.255 159.75 400.367 160.242C400.479 160.732 400.637 161.152 400.84 161.504C401.043 161.858 401.281 162.125 401.555 162.305L401.055 162.91ZM404.121 162.305C404.394 162.125 404.633 161.858 404.836 161.504C405.039 161.152 405.196 160.732 405.308 160.242C405.42 159.75 405.476 159.215 405.476 158.637C405.476 158.061 405.42 157.527 405.308 157.035C405.196 156.543 405.037 156.12 404.832 155.766C404.629 155.409 404.392 155.142 404.121 154.965L404.621 154.359C404.962 154.594 405.258 154.921 405.508 155.34C405.758 155.759 405.949 156.25 406.082 156.812C406.217 157.375 406.285 157.983 406.285 158.637C406.285 159.293 406.217 159.902 406.082 160.465C405.949 161.025 405.758 161.513 405.508 161.93C405.258 162.349 404.962 162.676 404.621 162.91L404.121 162.305ZM409.812 157.098H413.031V157.801H409.812V157.098ZM409.812 158.754H413.031V159.457H409.812V158.754ZM418.058 162.953C417.842 162.953 417.653 162.909 417.491 162.82C417.33 162.734 417.206 162.616 417.12 162.465C417.034 162.314 416.991 162.143 416.991 161.953V160.312C416.991 160.065 416.976 159.879 416.944 159.754C416.916 159.626 416.86 159.526 416.776 159.453C416.696 159.38 416.567 159.309 416.39 159.238V158.715C416.567 158.647 416.696 158.577 416.776 158.504C416.86 158.428 416.916 158.327 416.944 158.199C416.976 158.072 416.991 157.884 416.991 157.637V156.004C416.991 155.814 417.034 155.643 417.12 155.492C417.206 155.339 417.33 155.219 417.491 155.133C417.653 155.044 417.842 155 418.058 155H418.476V155.629H418.226C418.098 155.629 417.998 155.673 417.925 155.762C417.855 155.848 417.819 155.974 417.819 156.141V157.672C417.819 157.904 417.799 158.098 417.757 158.254C417.718 158.41 417.637 158.549 417.515 158.672C417.392 158.794 417.213 158.896 416.976 158.977C417.213 159.055 417.392 159.156 417.515 159.281C417.637 159.404 417.718 159.544 417.757 159.703C417.799 159.859 417.819 160.052 417.819 160.281V161.824C417.819 161.996 417.852 162.121 417.917 162.199C417.982 162.28 418.085 162.32 418.226 162.32H418.476V162.953H418.058Z" fill="#FDFAF5"/>
<path d="M47.1055 220.047C47.3216 220.047 47.5104 220.091 47.6719 220.18C47.8333 220.266 47.957 220.384 48.043 220.535C48.1289 220.686 48.1719 220.857 48.1719 221.047L48.1719 222.687C48.1719 222.935 48.1875 223.121 48.2188 223.246C48.2474 223.374 48.3034 223.474 48.3867 223.547C48.4674 223.62 48.5964 223.691 48.7734 223.762L48.7734 224.285C48.5964 224.353 48.4674 224.423 48.3867 224.496C48.3034 224.572 48.2474 224.673 48.2188 224.801C48.1875 224.928 48.1719 225.116 48.1719 225.363L48.1719 226.996C48.1719 227.186 48.1289 227.357 48.043 227.508C47.957 227.661 47.8333 227.781 47.6719 227.867C47.5104 227.956 47.3216 228 47.1055 228L46.6875 228L46.6875 227.371L46.9375 227.371C47.0651 227.371 47.1654 227.327 47.2383 227.238C47.3086 227.152 47.3438 227.026 47.3438 226.859L47.3438 225.328C47.3438 225.096 47.3646 224.902 47.4063 224.746C47.4453 224.59 47.526 224.451 47.6484 224.328C47.7708 224.206 47.9505 224.104 48.1875 224.023C47.9505 223.945 47.7708 223.844 47.6484 223.719C47.526 223.596 47.4453 223.456 47.4063 223.297C47.3646 223.141 47.3438 222.948 47.3438 222.719L47.3438 221.176C47.3438 221.004 47.3112 220.879 47.2461 220.801C47.181 220.72 47.0781 220.68 46.9375 220.68L46.6875 220.68L46.6875 220.047L47.1055 220.047Z" fill="#FDFAF5"/>
<path d="M311.105 182.047C311.322 182.047 311.51 182.091 311.672 182.18C311.833 182.266 311.957 182.384 312.043 182.535C312.129 182.686 312.172 182.857 312.172 183.047L312.172 184.687C312.172 184.935 312.188 185.121 312.219 185.246C312.247 185.374 312.303 185.474 312.387 185.547C312.467 185.62 312.596 185.691 312.773 185.762L312.773 186.285C312.596 186.353 312.467 186.423 312.387 186.496C312.303 186.572 312.247 186.673 312.219 186.801C312.188 186.928 312.172 187.116 312.172 187.363L312.172 188.996C312.172 189.186 312.129 189.357 312.043 189.508C311.957 189.661 311.833 189.781 311.672 189.867C311.51 189.956 311.322 190 311.105 190L310.688 190L310.688 189.371L310.938 189.371C311.065 189.371 311.165 189.327 311.238 189.238C311.309 189.152 311.344 189.026 311.344 188.859L311.344 187.328C311.344 187.096 311.365 186.902 311.406 186.746C311.445 186.59 311.526 186.451 311.648 186.328C311.771 186.206 311.951 186.104 312.188 186.023C311.951 185.945 311.771 185.844 311.648 185.719C311.526 185.596 311.445 185.456 311.406 185.297C311.365 185.141 311.344 184.948 311.344 184.719L311.344 183.176C311.344 183.004 311.311 182.879 311.246 182.801C311.181 182.72 311.078 182.68 310.938 182.68L310.688 182.68L310.688 182.047L311.105 182.047Z" fill="#FDFAF5"/>
<path d="M53.1055 220.047C53.3216 220.047 53.5104 220.091 53.6719 220.18C53.8333 220.266 53.957 220.384 54.043 220.535C54.1289 220.686 54.1719 220.857 54.1719 221.047L54.1719 222.687C54.1719 222.935 54.1875 223.121 54.2188 223.246C54.2474 223.374 54.3034 223.474 54.3867 223.547C54.4674 223.62 54.5964 223.691 54.7734 223.762L54.7734 224.285C54.5964 224.353 54.4674 224.423 54.3867 224.496C54.3034 224.572 54.2474 224.673 54.2188 224.801C54.1875 224.928 54.1719 225.116 54.1719 225.363L54.1719 226.996C54.1719 227.186 54.1289 227.357 54.043 227.508C53.957 227.661 53.8333 227.781 53.6719 227.867C53.5104 227.956 53.3216 228 53.1055 228L52.6875 228L52.6875 227.371L52.9375 227.371C53.0651 227.371 53.1654 227.327 53.2383 227.238C53.3086 227.152 53.3438 227.026 53.3438 226.859L53.3438 225.328C53.3438 225.096 53.3646 224.902 53.4063 224.746C53.4453 224.59 53.526 224.451 53.6484 224.328C53.7708 224.206 53.9505 224.104 54.1875 224.023C53.9505 223.945 53.7708 223.844 53.6484 223.719C53.526 223.596 53.4453 223.456 53.4063 223.297C53.3646 223.141 53.3438 222.948 53.3438 222.719L53.3438 221.176C53.3438 221.004 53.3112 220.879 53.2461 220.801C53.181 220.72 53.0781 220.68 52.9375 220.68L52.6875 220.68L52.6875 220.047L53.1055 220.047Z" fill="#FDFAF5"/>
<path d="M36.0469 52.1855C34.7122 52.1855 33.5111 51.8958 32.4434 51.3164C31.3757 50.7305 30.5358 49.8971 29.9238 48.8164C29.3184 47.7357 29.0156 46.4727 29.0156 45.0273C29.0156 43.5885 29.3184 42.3288 29.9238 41.248C30.5358 40.1673 31.3757 39.3372 32.4434 38.7578C33.5111 38.1719 34.7122 37.8789 36.0469 37.8789C37.0169 37.8789 37.9219 38.0384 38.7617 38.3574C39.6016 38.6699 40.334 39.1257 40.959 39.7246C41.5905 40.3171 42.0788 41.0267 42.4238 41.8535L40.2461 42.6836C39.888 41.8568 39.3346 41.2122 38.5859 40.75C37.8438 40.2878 36.9974 40.0566 36.0469 40.0566C35.1615 40.0566 34.3607 40.2552 33.6445 40.6523C32.9349 41.0495 32.375 41.6257 31.9648 42.3809C31.5547 43.1296 31.3496 44.0117 31.3496 45.0273C31.3496 46.0495 31.5547 46.9382 31.9648 47.6934C32.375 48.4421 32.9349 49.015 33.6445 49.4121C34.3607 49.8092 35.1615 50.0078 36.0469 50.0078C37.0039 50.0078 37.8535 49.7799 38.5957 49.3242C39.3379 48.862 39.888 48.2174 40.2461 47.3906L42.4238 48.2207C42.0788 49.041 41.5905 49.7507 40.959 50.3496C40.334 50.9421 39.6016 51.3978 38.7617 51.7168C37.9219 52.0293 37.0169 52.1855 36.0469 52.1855ZM49.4937 52.1855C48.5042 52.1855 47.6155 51.9805 46.8277 51.5703C46.0465 51.1536 45.4345 50.5612 44.9918 49.793C44.5491 49.0247 44.3277 48.1198 44.3277 47.0781C44.3277 46.0495 44.5491 45.151 44.9918 44.3828C45.4345 43.6146 46.0465 43.0254 46.8277 42.6152C47.609 42.1986 48.4977 41.9902 49.4937 41.9902C50.4964 41.9902 51.3883 42.1986 52.1695 42.6152C52.9508 43.0254 53.5628 43.6146 54.0055 44.3828C54.4482 45.151 54.6695 46.0495 54.6695 47.0781C54.6695 48.1198 54.4482 49.028 54.0055 49.8027C53.5628 50.571 52.9475 51.1602 52.1598 51.5703C51.3785 51.9805 50.4898 52.1855 49.4937 52.1855ZM49.4742 50.3691C50.0406 50.3691 50.5484 50.2324 50.9977 49.959C51.4469 49.6855 51.7984 49.3014 52.0523 48.8066C52.3062 48.3053 52.4332 47.7292 52.4332 47.0781C52.4332 46.4271 52.3062 45.8542 52.0523 45.3594C51.7984 44.8646 51.4469 44.4805 50.9977 44.207C50.5484 43.9336 50.0406 43.7969 49.4742 43.7969C48.9143 43.7969 48.413 43.9336 47.9703 44.207C47.5341 44.4805 47.1891 44.8646 46.9352 45.3594C46.6878 45.8542 46.5641 46.4271 46.5641 47.0781C46.5641 47.7292 46.6878 48.3053 46.9352 48.8066C47.1891 49.3014 47.5341 49.6855 47.9703 49.959C48.413 50.2324 48.9143 50.3691 49.4742 50.3691ZM66.7687 37V52H64.6203L64.5617 50.4668C64.2818 51.0332 63.8488 51.4694 63.2629 51.7754C62.6835 52.0749 62.0227 52.2246 61.2805 52.2246C60.4276 52.2246 59.6464 52.0163 58.9367 51.5996C58.2271 51.1764 57.6639 50.5775 57.2473 49.8027C56.8371 49.028 56.632 48.1263 56.632 47.0977C56.632 46.0755 56.8404 45.1803 57.257 44.4121C57.6737 43.6374 58.2336 43.0417 58.9367 42.625C59.6464 42.2018 60.4276 41.9902 61.2805 41.9902C62.0031 41.9902 62.6509 42.1335 63.2238 42.4199C63.7967 42.7064 64.2297 43.123 64.5227 43.6699L64.5324 37H66.7687ZM61.7883 50.3203C62.3352 50.3203 62.8267 50.1901 63.2629 49.9297C63.7056 49.6628 64.0539 49.2884 64.3078 48.8066C64.5617 48.3184 64.6887 47.7487 64.6887 47.0977C64.6887 46.4531 64.5617 45.8867 64.3078 45.3984C64.0539 44.9102 63.7056 44.5358 63.2629 44.2754C62.8202 44.015 62.3286 43.8848 61.7883 43.8848C61.2479 43.8848 60.7564 44.0182 60.3137 44.2852C59.871 44.5456 59.5194 44.9199 59.259 45.4082C59.0051 45.8965 58.8781 46.4596 58.8781 47.0977C58.8781 47.7422 59.0051 48.3086 59.259 48.7969C59.5194 49.2852 59.871 49.6628 60.3137 49.9297C60.7564 50.1901 61.2479 50.3203 61.7883 50.3203ZM79.1414 47.4883H71.6707C71.6967 48.1198 71.84 48.6536 72.1004 49.0898C72.3608 49.5195 72.6993 49.8418 73.116 50.0566C73.5327 50.2715 73.9982 50.3789 74.5125 50.3789C75.0594 50.3789 75.5444 50.2454 75.9676 49.9785C76.3973 49.7116 76.7228 49.3307 76.9441 48.8359L78.9949 49.1875C78.6564 50.1315 78.09 50.8672 77.2957 51.3945C76.5014 51.9219 75.5802 52.1855 74.532 52.1855C73.5229 52.1855 72.6375 51.9837 71.8758 51.5801C71.1141 51.1764 70.5216 50.5905 70.0984 49.8223C69.6753 49.054 69.4637 48.1426 69.4637 47.0879C69.4637 46.0332 69.6753 45.1217 70.0984 44.3535C70.5281 43.5853 71.1206 42.9993 71.8758 42.5957C72.631 42.1855 73.4936 41.9805 74.4637 41.9805C75.3882 41.9805 76.202 42.1628 76.9051 42.5273C77.6082 42.8919 78.1616 43.4453 78.5652 44.1875C78.9689 44.9232 79.1707 45.8346 79.1707 46.9219L79.1414 47.4883ZM74.4734 43.6504C73.7768 43.6504 73.1941 43.8229 72.7254 44.168C72.2632 44.513 71.9507 45.0339 71.7879 45.7305H76.9051C76.8074 45.0469 76.5405 44.5293 76.1043 44.1777C75.6746 43.8262 75.131 43.6504 74.4734 43.6504ZM92.0117 52.1855C91.0286 52.1855 90.14 52.0358 89.3457 51.7363C88.5579 51.4303 87.9102 50.9876 87.4023 50.4082C86.8945 49.8223 86.5658 49.1257 86.416 48.3184L88.8184 47.7617C88.9421 48.5495 89.3001 49.1615 89.8926 49.5977C90.4915 50.0273 91.2305 50.2422 92.1094 50.2422C92.8451 50.2422 93.457 50.0794 93.9453 49.7539C94.4336 49.4219 94.6777 48.9173 94.6777 48.2402C94.6777 47.7585 94.5215 47.3646 94.209 47.0586C93.8965 46.7461 93.5124 46.5052 93.0566 46.3359C92.6074 46.1602 91.9694 45.9551 91.1426 45.7207C90.2311 45.4538 89.4857 45.1901 88.9062 44.9297C88.3268 44.6628 87.8418 44.2819 87.4512 43.7871C87.0605 43.2858 86.8652 42.638 86.8652 41.8438C86.8652 41.0039 87.0736 40.2878 87.4902 39.6953C87.9134 39.0964 88.4863 38.6439 89.209 38.3379C89.9316 38.0319 90.7422 37.8789 91.6406 37.8789C92.4935 37.8789 93.2878 38.0026 94.0234 38.25C94.7591 38.4974 95.3841 38.8848 95.8984 39.4121C96.4193 39.9395 96.7643 40.6035 96.9336 41.4043L94.6777 41.9707C94.528 41.2546 94.1927 40.7207 93.6719 40.3691C93.1576 40.0111 92.5195 39.832 91.7578 39.832C91.0417 39.832 90.4395 39.9948 89.9512 40.3203C89.4694 40.6458 89.2285 41.1406 89.2285 41.8047C89.2285 42.2083 89.3652 42.5404 89.6387 42.8008C89.9121 43.0612 90.2539 43.2695 90.6641 43.4258C91.0742 43.5755 91.6504 43.7546 92.3926 43.9629C93.3691 44.2363 94.1732 44.5098 94.8047 44.7832C95.4362 45.0566 95.9733 45.4635 96.416 46.0039C96.8652 46.5378 97.0898 47.2376 97.0898 48.1035C97.0898 49.0215 96.8587 49.7865 96.3965 50.3984C95.9342 51.0104 95.319 51.4629 94.5508 51.7559C93.7891 52.0423 92.9427 52.1855 92.0117 52.1855ZM105.439 41.9902C106.292 41.9902 107.073 42.1986 107.783 42.6152C108.492 43.0319 109.052 43.6276 109.463 44.4023C109.879 45.1706 110.088 46.069 110.088 47.0977C110.088 48.1328 109.879 49.0378 109.463 49.8125C109.052 50.5872 108.492 51.1829 107.783 51.5996C107.073 52.0163 106.292 52.2246 105.439 52.2246C104.742 52.2246 104.104 52.0749 103.525 51.7754C102.946 51.4694 102.506 51.0495 102.207 50.5156V56.8633H99.9605V42.1758H102.109L102.168 43.7578C102.461 43.2044 102.9 42.7715 103.486 42.459C104.072 42.1465 104.723 41.9902 105.439 41.9902ZM104.951 50.3203C105.485 50.3203 105.97 50.1901 106.406 49.9297C106.842 49.6693 107.187 49.2949 107.441 48.8066C107.701 48.3184 107.832 47.7487 107.832 47.0977C107.832 46.4466 107.701 45.8802 107.441 45.3984C107.187 44.9167 106.842 44.5456 106.406 44.2852C105.97 44.0247 105.485 43.8945 104.951 43.8945C104.41 43.8945 103.916 44.0312 103.466 44.3047C103.024 44.5781 102.672 44.959 102.412 45.4473C102.158 45.9355 102.031 46.4857 102.031 47.0977C102.031 47.7161 102.158 48.2728 102.412 48.7676C102.672 49.2559 103.024 49.6367 103.466 49.9102C103.916 50.1836 104.41 50.3203 104.951 50.3203ZM114.95 43.8066C115.113 43.4876 115.354 43.1979 115.673 42.9375C115.992 42.6706 116.36 42.459 116.777 42.3027C117.2 42.1465 117.642 42.0684 118.105 42.0684V44.1191C117.07 44.1191 116.298 44.3405 115.79 44.7832C115.289 45.2194 115.038 45.9551 115.038 46.9902V52H112.782V42.1758H114.95V43.8066ZM120.292 42.1758H122.548V52H120.292V42.1758ZM121.434 40.3008C121.187 40.3008 120.956 40.2389 120.741 40.1152C120.526 39.9915 120.357 39.8255 120.233 39.6172C120.11 39.4023 120.048 39.1712 120.048 38.9238C120.048 38.6764 120.11 38.4486 120.233 38.2402C120.357 38.0254 120.526 37.8561 120.741 37.7324C120.956 37.6087 121.187 37.5469 121.434 37.5469C121.675 37.5469 121.9 37.6087 122.108 37.7324C122.323 37.8561 122.492 38.0254 122.616 38.2402C122.74 38.4486 122.802 38.6764 122.802 38.9238C122.802 39.1712 122.74 39.4023 122.616 39.6172C122.492 39.8255 122.323 39.9915 122.108 40.1152C121.9 40.2389 121.675 40.3008 121.434 40.3008ZM131.17 41.9902C132.277 41.9902 133.143 42.2865 133.768 42.8789C134.393 43.4714 134.705 44.3079 134.705 45.3887V52H132.44V45.877C132.44 45.1803 132.258 44.666 131.893 44.334C131.535 43.9954 131.073 43.8262 130.506 43.8262C129.829 43.8262 129.276 44.0345 128.846 44.4512C128.416 44.8613 128.198 45.4961 128.192 46.3555V52H125.946V42.1758H128.192V43.3379C128.524 42.9082 128.944 42.5762 129.452 42.3418C129.966 42.1074 130.539 41.9902 131.17 41.9902ZM141.492 52C140.607 52 139.917 51.7493 139.422 51.248C138.927 50.7467 138.68 50.0404 138.68 49.1289V43.9336H136.717V42.1758C137.4 42.1758 137.908 42.1009 138.24 41.9512C138.579 41.8014 138.813 41.5215 138.943 41.1113C139.08 40.7012 139.148 40.0729 139.148 39.2266H140.955V42.1758H143.094V43.9336H140.955V48.8945C140.955 49.3438 141.066 49.6855 141.287 49.9199C141.515 50.1478 141.821 50.2617 142.205 50.2617H143.094V52H141.492ZM149.011 52.1855C147.905 52.1855 146.983 51.9544 146.248 51.4922C145.518 51.0234 145.073 50.3464 144.91 49.4609L146.814 48.9238C146.944 49.4707 147.201 49.8841 147.586 50.1641C147.97 50.4375 148.445 50.5742 149.011 50.5742C149.474 50.5742 149.867 50.4798 150.193 50.291C150.518 50.0957 150.681 49.7865 150.681 49.3633C150.681 49.0768 150.593 48.8424 150.418 48.6602C150.242 48.4714 150.014 48.3216 149.734 48.2109C149.461 48.1003 149.073 47.9733 148.572 47.8301C148.24 47.7389 147.937 47.6478 147.664 47.5566C147.156 47.3939 146.726 47.2116 146.375 47.0098C146.023 46.8079 145.733 46.5345 145.505 46.1895C145.278 45.8379 145.164 45.3952 145.164 44.8613C145.164 44.2233 145.323 43.6927 145.642 43.2695C145.961 42.8398 146.397 42.5208 146.951 42.3125C147.504 42.1042 148.129 42 148.826 42C149.809 42 150.636 42.2116 151.306 42.6348C151.983 43.0579 152.403 43.7057 152.566 44.5781L150.789 44.998C150.665 44.5033 150.427 44.1387 150.076 43.9043C149.731 43.6699 149.317 43.5527 148.836 43.5527C148.386 43.5527 148.005 43.6471 147.693 43.8359C147.387 44.0182 147.234 44.2982 147.234 44.6758C147.234 44.9427 147.322 45.1608 147.498 45.3301C147.673 45.4928 147.892 45.623 148.152 45.7207C148.419 45.8118 148.793 45.9193 149.275 46.043C149.334 46.0625 149.454 46.0951 149.636 46.1406C150.274 46.3099 150.818 46.4987 151.267 46.707C151.716 46.9154 152.091 47.2246 152.39 47.6348C152.696 48.0384 152.849 48.5625 152.849 49.207C152.849 49.8971 152.673 50.4668 152.322 50.916C151.977 51.3587 151.515 51.681 150.935 51.8828C150.362 52.0846 149.721 52.1855 149.011 52.1855Z" fill="#FFBABA"/>
</svg>
