<svg viewBox="0 0 41 41" fill="none" xmlns="http://www.w3.org/2000/svg">
<g clip-path="url(#clip0_146_25243)">
<path d="M40.5 20.5C40.5 9.4543 31.5457 0.5 20.5 0.5C9.4543 0.5 0.5 9.4543 0.5 20.5C0.5 30.4824 7.81367 38.7566 17.375 40.257V26.2813H12.2969V20.5H17.375V16.0938C17.375 11.0813 20.3609 8.3125 24.9293 8.3125C27.1168 8.3125 29.4062 8.70312 29.4062 8.70312V13.625H26.8844C24.4 13.625 23.625 15.1668 23.625 16.75V20.5H29.1719L28.2852 26.2813H23.625V40.257C33.1863 38.7566 40.5 30.4824 40.5 20.5Z" fill="black"/>
</g>
<defs>
<clipPath id="clip0_146_25243">
<rect width="40" height="40" fill="white" transform="translate(0.5 0.5)"/>
</clipPath>
</defs>
</svg>
