<svg viewBox="0 0 41 41" fill="none" xmlns="http://www.w3.org/2000/svg">
<g clip-path="url(#clip0_146_25245)">
<path d="M37.5391 0.5H3.45312C1.82031 0.5 0.5 1.78906 0.5 3.38281V37.6094C0.5 39.2031 1.82031 40.5 3.45312 40.5H37.5391C39.1719 40.5 40.5 39.2031 40.5 37.6172V3.38281C40.5 1.78906 39.1719 0.5 37.5391 0.5ZM12.3672 34.5859H6.42969V15.4922H12.3672V34.5859ZM9.39844 12.8906C7.49219 12.8906 5.95312 11.3516 5.95312 9.45312C5.95312 7.55469 7.49219 6.01562 9.39844 6.01562C11.2969 6.01562 12.8359 7.55469 12.8359 9.45312C12.8359 11.3438 11.2969 12.8906 9.39844 12.8906ZM34.5859 34.5859H28.6562V25.3047C28.6562 23.0938 28.6172 20.2422 25.5703 20.2422C22.4844 20.2422 22.0156 22.6562 22.0156 25.1484V34.5859H16.0938V15.4922H21.7812V18.1016H21.8594C22.6484 16.6016 24.5859 15.0156 27.4688 15.0156C33.4766 15.0156 34.5859 18.9688 34.5859 24.1094V34.5859Z" fill="black"/>
</g>
<defs>
<clipPath id="clip0_146_25245">
<rect width="40" height="40" fill="white" transform="translate(0.5 0.5)"/>
</clipPath>
</defs>
</svg>
