<svg viewBox="0 0 41 41" fill="none" xmlns="http://www.w3.org/2000/svg">
<path fill-rule="evenodd" clip-rule="evenodd" d="M40.5 20.5C40.5 31.5457 31.5457 40.5 20.5 40.5C9.4543 40.5 0.5 31.5457 0.5 20.5C0.5 9.4543 9.4543 0.5 20.5 0.5C31.5457 0.5 40.5 9.4543 40.5 20.5ZM30.9094 17.576C32.5234 17.576 33.8333 18.8859 33.8333 20.5C33.8333 21.6929 33.1082 22.7222 32.1491 23.19C32.1959 23.4707 32.2193 23.7514 32.2193 24.0555C32.2193 28.5467 27.0029 32.1725 20.5468 32.1725C14.0907 32.1725 8.87428 28.5467 8.87428 24.0555C8.87428 23.7514 8.89767 23.4473 8.94446 23.1666C7.91522 22.6988 7.21346 21.6929 7.21346 20.5C7.21346 18.8859 8.5234 17.576 10.1374 17.576C10.9094 17.576 11.6345 17.9035 12.1491 18.3947C14.1608 16.921 16.9445 16.0087 20.0556 15.9152L21.5293 8.9444C21.576 8.80405 21.6462 8.68709 21.7632 8.61692C21.8801 8.54674 22.0205 8.52335 22.1608 8.54675L27.0029 9.57598C27.3304 8.87423 28.0322 8.40639 28.8509 8.40639C29.9971 8.40639 30.9328 9.34207 30.9328 10.4883C30.9328 11.6345 29.9971 12.5701 28.8509 12.5701C27.7281 12.5701 26.8158 11.6812 26.769 10.5818L22.4415 9.66955L21.1082 15.9152C24.1491 16.0321 26.9094 16.9678 28.8977 18.3947C29.4123 17.8801 30.114 17.576 30.9094 17.576ZM15.9152 20.5C14.769 20.5 13.8333 21.4356 13.8333 22.5818C13.8333 23.728 14.769 24.6637 15.9152 24.6637C17.0614 24.6637 17.9971 23.728 17.9971 22.5818C17.9971 21.4356 17.0614 20.5 15.9152 20.5ZM20.5234 29.5994C21.3187 29.5994 24.0322 29.5058 25.4591 28.0789C25.6696 27.8684 25.6696 27.5409 25.5059 27.307C25.2953 27.0965 24.9445 27.0965 24.7339 27.307C23.8216 28.1959 21.9269 28.5234 20.5468 28.5234C19.1667 28.5234 17.2485 28.1959 16.3597 27.307C16.1491 27.0965 15.7983 27.0965 15.5877 27.307C15.3772 27.5175 15.3772 27.8684 15.5877 28.0789C16.9912 29.4824 19.7281 29.5994 20.5234 29.5994ZM23.0029 22.5818C23.0029 23.728 23.9386 24.6637 25.0848 24.6637C26.231 24.6637 27.1667 23.728 27.1667 22.5818C27.1667 21.4356 26.231 20.5 25.0848 20.5C23.9386 20.5 23.0029 21.4356 23.0029 22.5818Z" fill="black"/>
</svg>
