<svg  viewBox="0 0 41 41" fill="none" xmlns="http://www.w3.org/2000/svg">
<g clip-path="url(#clip0_146_25247)">
<path d="M38.2072 37.568L25.4344 17.4948L38.0378 3.63042C38.8717 2.69042 38.3752 1.20025 37.1442 0.94811C36.5867 0.833906 36.0098 1.01839 35.622 1.43497L23.6164 14.6403L15.3549 1.65738C15.0555 1.18611 14.536 0.900563 13.9777 0.900391H4.18384C2.9273 0.899781 2.1413 2.25964 2.76905 3.34816C2.78109 3.36906 2.79362 3.3897 2.80659 3.41006L15.5794 23.4813L2.97595 37.3558C2.11973 38.2755 2.5802 39.7772 3.80478 40.0589C4.3868 40.1927 4.99544 39.998 5.39175 39.5513L17.3973 26.346L25.6588 39.3289C25.9607 39.7963 26.4797 40.0777 27.0361 40.0757H36.8299C38.0865 40.0753 38.8714 38.7148 38.2428 37.6268C38.2313 37.607 38.2195 37.5874 38.2072 37.568ZM27.9318 36.8111L7.15669 4.165H13.0738L33.8571 36.8111H27.9318Z" fill="black"/>
</g>
<defs>
<clipPath id="clip0_146_25247">
<rect width="40" height="40" fill="white" transform="translate(0.5 0.5)"/>
</clipPath>
</defs>
</svg>
