<svg  viewBox="0 0 41 41" fill="none" xmlns="http://www.w3.org/2000/svg">
<g clip-path="url(#clip0_146_25244)">
<path d="M20.5 4.10156C25.8438 4.10156 26.4766 4.125 28.5781 4.21875C30.5313 4.30469 31.5859 4.63281 32.2891 4.90625C33.2188 5.26563 33.8906 5.70313 34.5859 6.39844C35.2891 7.10156 35.7188 7.76563 36.0781 8.69531C36.3516 9.39844 36.6797 10.4609 36.7656 12.4062C36.8594 14.5156 36.8828 15.1484 36.8828 20.4844C36.8828 25.8281 36.8594 26.4609 36.7656 28.5625C36.6797 30.5156 36.3516 31.5703 36.0781 32.2734C35.7188 33.2031 35.2813 33.875 34.5859 34.5703C33.8828 35.2734 33.2188 35.7031 32.2891 36.0625C31.5859 36.3359 30.5234 36.6641 28.5781 36.75C26.4688 36.8438 25.8359 36.8672 20.5 36.8672C15.1563 36.8672 14.5234 36.8438 12.4219 36.75C10.4688 36.6641 9.41406 36.3359 8.71094 36.0625C7.78125 35.7031 7.10938 35.2656 6.41406 34.5703C5.71094 33.8672 5.28125 33.2031 4.92188 32.2734C4.64844 31.5703 4.32031 30.5078 4.23438 28.5625C4.14063 26.4531 4.11719 25.8203 4.11719 20.4844C4.11719 15.1406 4.14063 14.5078 4.23438 12.4062C4.32031 10.4531 4.64844 9.39844 4.92188 8.69531C5.28125 7.76563 5.71875 7.09375 6.41406 6.39844C7.11719 5.69531 7.78125 5.26563 8.71094 4.90625C9.41406 4.63281 10.4766 4.30469 12.4219 4.21875C14.5234 4.125 15.1563 4.10156 20.5 4.10156ZM20.5 0.5C15.0703 0.5 14.3906 0.523437 12.2578 0.617188C10.1328 0.710938 8.67188 1.05469 7.40625 1.54688C6.08594 2.0625 4.96875 2.74219 3.85938 3.85938C2.74219 4.96875 2.0625 6.08594 1.54688 7.39844C1.05469 8.67188 0.710938 10.125 0.617188 12.25C0.523438 14.3906 0.5 15.0703 0.5 20.5C0.5 25.9297 0.523438 26.6094 0.617188 28.7422C0.710938 30.8672 1.05469 32.3281 1.54688 33.5938C2.0625 34.9141 2.74219 36.0312 3.85938 37.1406C4.96875 38.25 6.08594 38.9375 7.39844 39.4453C8.67188 39.9375 10.125 40.2812 12.25 40.375C14.3828 40.4688 15.0625 40.4922 20.4922 40.4922C25.9219 40.4922 26.6016 40.4688 28.7344 40.375C30.8594 40.2812 32.3203 39.9375 33.5859 39.4453C34.8984 38.9375 36.0156 38.25 37.125 37.1406C38.2344 36.0312 38.9219 34.9141 39.4297 33.6016C39.9219 32.3281 40.2656 30.875 40.3594 28.75C40.4531 26.6172 40.4766 25.9375 40.4766 20.5078C40.4766 15.0781 40.4531 14.3984 40.3594 12.2656C40.2656 10.1406 39.9219 8.67969 39.4297 7.41406C38.9375 6.08594 38.2578 4.96875 37.1406 3.85938C36.0313 2.75 34.9141 2.0625 33.6016 1.55469C32.3281 1.0625 30.875 0.71875 28.75 0.625C26.6094 0.523438 25.9297 0.5 20.5 0.5Z" fill="black"/>
<path d="M20.5 10.2266C14.8281 10.2266 10.2266 14.8281 10.2266 20.5C10.2266 26.1719 14.8281 30.7734 20.5 30.7734C26.1719 30.7734 30.7734 26.1719 30.7734 20.5C30.7734 14.8281 26.1719 10.2266 20.5 10.2266ZM20.5 27.1641C16.8203 27.1641 13.8359 24.1797 13.8359 20.5C13.8359 16.8203 16.8203 13.8359 20.5 13.8359C24.1797 13.8359 27.1641 16.8203 27.1641 20.5C27.1641 24.1797 24.1797 27.1641 20.5 27.1641Z" fill="black"/>
<path d="M33.5781 9.82032C33.5781 11.1484 32.5 12.2188 31.1797 12.2188C29.8516 12.2188 28.7812 11.1406 28.7812 9.82032C28.7812 8.49219 29.8594 7.42188 31.1797 7.42188C32.5 7.42188 33.5781 8.5 33.5781 9.82032Z" fill="black"/>
</g>
<defs>
<clipPath id="clip0_146_25244">
<rect width="40" height="40" fill="white" transform="translate(0.5 0.5)"/>
</clipPath>
</defs>
</svg>
