<svg width="31" height="30" viewBox="0 0 31 30" fill="none" xmlns="http://www.w3.org/2000/svg">
<path d="M22.7496 8.95C22.6746 8.9375 22.5871 8.9375 22.5121 8.95C20.7871 8.8875 19.4121 7.475 19.4121 5.725C19.4121 3.9375 20.8496 2.5 22.6371 2.5C24.4246 2.5 25.8621 3.95 25.8621 5.725C25.8496 7.475 24.4746 8.8875 22.7496 8.95Z" stroke="#0F0F0F" stroke-width="2" stroke-linecap="round" stroke-linejoin="round"/>
<path d="M21.4623 18.05C23.1748 18.3375 25.0623 18.0375 26.3873 17.15C28.1498 15.975 28.1498 14.05 26.3873 12.875C25.0498 11.9875 23.1373 11.6875 21.4248 11.9875" stroke="#0F0F0F" stroke-width="2" stroke-linecap="round" stroke-linejoin="round"/>
<path d="M7.71211 8.95C7.78711 8.9375 7.87461 8.9375 7.94961 8.95C9.67461 8.8875 11.0496 7.475 11.0496 5.725C11.0496 3.9375 9.61211 2.5 7.82461 2.5C6.03711 2.5 4.59961 3.95 4.59961 5.725C4.61211 7.475 5.98711 8.8875 7.71211 8.95Z" stroke="#292D32" stroke-width="2" stroke-linecap="round" stroke-linejoin="round"/>
<path d="M8.9998 18.05C7.2873 18.3375 5.3998 18.0375 4.0748 17.15C2.3123 15.975 2.3123 14.05 4.0748 12.875C5.4123 11.9875 7.3248 11.6875 9.0373 11.9875" stroke="#292D32" stroke-width="2" stroke-linecap="round" stroke-linejoin="round"/>
<path d="M15.2506 18.2875C15.1756 18.275 15.0881 18.275 15.0131 18.2875C13.2881 18.225 11.9131 16.8125 11.9131 15.0625C11.9131 13.275 13.3506 11.8375 15.1381 11.8375C16.9256 11.8375 18.3631 13.2875 18.3631 15.0625C18.3506 16.8125 16.9756 18.2375 15.2506 18.2875Z" stroke="#292D32" stroke-width="2" stroke-linecap="round" stroke-linejoin="round"/>
<path d="M11.6129 22.225C9.85039 23.4 9.85039 25.325 11.6129 26.5C13.6129 27.8375 16.8879 27.8375 18.8879 26.5C20.6504 25.325 20.6504 23.4 18.8879 22.225C16.9004 20.9 13.6129 20.9 11.6129 22.225Z" stroke="#292D32" stroke-width="2" stroke-linecap="round" stroke-linejoin="round"/>
</svg>
